<svg id="Group_342" data-name="Group 342" xmlns="http://www.w3.org/2000/svg" width="1371.306" height="768" viewBox="0 0 1371.306 768">
  <path id="Path_38" data-name="Path 38" d="M680.439,517.649C906.384,325.649,997.317,0,997.317,0h373.989V768H0S454.494,709.649,680.439,517.649Z" fill="#0f123f"/>
  <path id="Path_207" data-name="Path 207" d="M789.082,778.275c10.03-1.431,218.381-101.638,419.437-135.517s384.788,0,384.788,0V778.275Z" transform="translate(-222 -10.274)" fill="#04051d"/>
  <g id="Innovation-pana" transform="translate(840.268 253.291)">
    <g id="freepik--background-complete--inject-119" transform="translate(-82.747 -186.96)">
      <path id="Path_40" data-name="Path 40" d="M177.094,140.011a13.623,13.623,0,0,0-3.316-1.441l-.682-3.284-5.548-.1-.8,3.255a13.508,13.508,0,0,0-3.364,1.325l-2.8-1.836-3.991,3.859,1.74,2.866a13.507,13.507,0,0,0-1.441,3.316l-3.274.663-.1,5.548,3.255.8a13.54,13.54,0,0,0,1.325,3.364l-1.836,2.8,3.859,3.988,2.866-1.737a13.646,13.646,0,0,0,3.319,1.441l.682,3.284,5.545.1.8-3.255a13.794,13.794,0,0,0,3.364-1.325l2.8,1.836,3.991-3.859-1.737-2.866a13.624,13.624,0,0,0,1.441-3.316l3.284-.682.1-5.548-3.258-.8A13.656,13.656,0,0,0,182,145.047l1.836-2.8-3.859-3.988-2.866,1.737Zm-2.956,7.4a4.461,4.461,0,1,1,0-.01Z" transform="translate(106.946 32.203)" fill="#f5f5f5"/>
      <path id="Path_41" data-name="Path 41" d="M271.605,174.175a10.37,10.37,0,0,0-2.7-.547l-1.032-2.338-4.149.81-.077,2.554a10.35,10.35,0,0,0-2.3,1.524l-2.38-.926-2.364,3.509,1.753,1.859a10.393,10.393,0,0,0-.547,2.7l-2.338,1.032.807,4.149,2.557.077a10.373,10.373,0,0,0,1.521,2.3l-.923,2.383,3.506,2.377,1.862-1.75a10.233,10.233,0,0,0,2.7.544l1.029,2.341,4.152-.814.077-2.573a10.243,10.243,0,0,0,2.3-1.521l2.383.923,2.345-3.5-1.75-1.859a10.394,10.394,0,0,0,.547-2.7l2.338-1.032-.794-4.136-2.554-.077a10.428,10.428,0,0,0-1.521-2.3l.923-2.383-3.509-2.361-1.859,1.75Zm-1.029,5.979a4.538,4.538,0,1,1-6.3,1.229A4.538,4.538,0,0,1,270.576,180.154Z" transform="translate(-61.118 7.713)" fill="#ebebeb"/>
      <path id="Path_42" data-name="Path 42" d="M404.88,41.07s-.1,0-.256.181a4.743,4.743,0,0,1-.714.565,25.681,25.681,0,0,1-2.931,1.961,24.67,24.67,0,0,1-5.083,2.206,22.551,22.551,0,0,1-7.247.948,74.194,74.194,0,0,1-8.867-1.066,37.162,37.162,0,0,0-10.274-.33,34.359,34.359,0,0,0-10.913,3.2,31.3,31.3,0,0,0-15.911,17.84,29.606,29.606,0,0,0-1.663,11.222c.128,3.634.639,7.034.725,10.242a24.512,24.512,0,0,1-1.14,8.782,23.445,23.445,0,0,1-3.346,6.512,23.161,23.161,0,0,1-3.751,4.082,15.1,15.1,0,0,1-1.588,1.258c-.522.362-.885.618-1.226.831l-.789.469c-.171.117-.266.171-.266.181a1.706,1.706,0,0,0,.288-.149l.8-.437c.352-.2.767-.49,1.258-.81a12.148,12.148,0,0,0,1.62-1.236,23.862,23.862,0,0,0,7.247-10.657,24.511,24.511,0,0,0,1.194-8.867c-.075-3.2-.575-6.65-.693-10.252a29.563,29.563,0,0,1,1.663-11.094,30.906,30.906,0,0,1,15.73-17.627,34.2,34.2,0,0,1,10.785-3.2,37.12,37.12,0,0,1,10.2.3,73.387,73.387,0,0,0,8.9,1.066,22.562,22.562,0,0,0,7.322-1.066,24.511,24.511,0,0,0,7.993-4.263c.32-.256.544-.469.693-.6Z" transform="translate(-249.891 -17.549)" fill="#00a1ff"/>
      <path id="Path_43" data-name="Path 43" d="M420.925,19a38.363,38.363,0,0,0-3.4,3.453,37.576,37.576,0,0,0-3.464,4.508A21.539,21.539,0,0,0,411,33.835a15.176,15.176,0,0,0-.33,2.131v2.249c0,1.524.064,3.1.1,4.742.064,3.272.171,6.778.117,10.455a33.636,33.636,0,0,1-2.131,11.233,29.776,29.776,0,0,1-6.565,10.338,27.229,27.229,0,0,1-10.338,6.533,24.022,24.022,0,0,1-11.307,1.194c-3.634-.49-6.991-1.567-10.231-2.131a25.322,25.322,0,0,0-4.742-.458,22.955,22.955,0,0,0-4.369.48,23.776,23.776,0,0,0-7,2.76,21.88,21.88,0,0,0-4.476,3.506,20.079,20.079,0,0,0-2.3,2.76l-.5.778-.171.277a3.046,3.046,0,0,0,.192-.256c.139-.181.309-.437.544-.757a22.763,22.763,0,0,1,6.821-6.139,23.52,23.52,0,0,1,6.874-2.718,22.381,22.381,0,0,1,4.316-.448,25.771,25.771,0,0,1,4.689.458c3.2.576,6.565,1.673,10.231,2.131a24.576,24.576,0,0,0,11.467-1.076A27.474,27.474,0,0,0,402.36,75.26,30.032,30.032,0,0,0,409,64.794a33.55,33.55,0,0,0,2.131-11.35c.053-3.7-.064-7.194-.149-10.476,0-1.631-.075-3.2-.107-4.732V36.009a16.431,16.431,0,0,1,.309-2.131,21.6,21.6,0,0,1,2.984-6.821,37.8,37.8,0,0,1,3.4-4.519c1.066-1.183,1.854-2.057,2.43-2.643l.65-.671Z" transform="translate(-284.169 -19)" fill="#00a1ff"/>
      <path id="Path_44" data-name="Path 44" d="M347.08,35.88c-.075.064,2.057,2.739,4.764,5.979s4.966,5.808,5.041,5.744-2.057-2.739-4.764-5.979S347.155,35.816,347.08,35.88Z" transform="translate(-220.481 -17.891)" fill="#00a1ff"/>
      <path id="Path_45" data-name="Path 45" d="M338.771,29.51c-.075.075,3.645,3.954,8.3,8.686s8.526,8.526,8.526,8.419-3.645-3.954-8.3-8.675S338.846,29.435,338.771,29.51Z" transform="translate(-210.339 -18.309)" fill="#00a1ff"/>
      <path id="Path_46" data-name="Path 46" d="M331.84,23.6c-.075.064,4.444,4.7,10.082,10.338s10.263,10.156,10.338,10.082-4.444-4.7-10.082-10.338S331.915,23.525,331.84,23.6Z" transform="translate(-199.614 -18.698)" fill="#00a1ff"/>
      <path id="Path_47" data-name="Path 47" d="M377.74,69.36c-.064.075,2.568,2.441,5.883,5.329a73.478,73.478,0,0,0,6.117,5.02c.075-.075-2.568-2.441-5.883-5.329A65.653,65.653,0,0,0,377.74,69.36Z" transform="translate(-286.011 -15.69)" fill="#00a1ff"/>
      <path id="Path_48" data-name="Path 48" d="M369.22,60.6a4.609,4.609,0,0,0,.618.693c.4.426,1.012,1.066,1.769,1.758,1.524,1.471,3.655,3.464,6.075,5.6s4.679,3.986,6.33,5.329c.831.65,1.5,1.172,1.982,1.524a3.548,3.548,0,0,0,.757.522,4.5,4.5,0,0,0-.671-.629l-1.908-1.62c-1.609-1.364-3.826-3.2-6.245-5.329s-4.583-4.082-6.139-5.5l-1.854-1.758a4.512,4.512,0,0,0-.714-.586Z" transform="translate(-273.943 -16.266)" fill="#00a1ff"/>
      <path id="Path_49" data-name="Path 49" d="M362.27,53.88a5.673,5.673,0,0,0,.767.671l2.131,1.769c1.833,1.492,4.338,3.57,7.044,5.947s5.083,4.6,6.8,6.224l2.025,1.918a4.72,4.72,0,0,0,.778.682,4.916,4.916,0,0,0-.671-.778c-.448-.48-1.119-1.172-1.95-2-1.673-1.673-4.039-3.933-6.746-6.32s-5.243-4.433-7.119-5.872c-.938-.714-1.705-1.29-2.249-1.673a5.449,5.449,0,0,0-.81-.565Z" transform="translate(-261.6 -16.708)" fill="#00a1ff"/>
      <path id="Path_50" data-name="Path 50" d="M358.58,49.32a3.516,3.516,0,0,0,.554.576l1.588,1.46c1.343,1.236,3.2,2.941,5.2,4.86s3.794,3.687,5.083,4.977l1.535,1.524a2.909,2.909,0,0,0,.6.522,4.158,4.158,0,0,0-.49-.629c-.341-.384-.831-.927-1.46-1.6-1.236-1.332-3.005-3.133-5.009-5.062s-3.9-3.6-5.329-4.785c-.693-.586-1.258-1.066-1.663-1.375A3.835,3.835,0,0,0,358.58,49.32Z" transform="translate(-248.99 -17.007)" fill="#00a1ff"/>
      <path id="Path_51" data-name="Path 51" d="M356.41,45.74a63.719,63.719,0,0,0,4.849,4.764,61.909,61.909,0,0,0,5.1,4.5,65.3,65.3,0,0,0-4.892-4.721,65.113,65.113,0,0,0-5.062-4.54Z" transform="translate(-239.904 -17.243)" fill="#00a1ff"/>
      <path id="Path_52" data-name="Path 52" d="M389,76.49a3,3,0,0,0,.48.544l1.428,1.321c1.268,1.183,2.9,2.686,4.711,4.348s3.41,3.2,4.668,4.391l1.428,1.322a3.2,3.2,0,0,0,.554.448,4.539,4.539,0,0,0-.458-.554c-.32-.341-.767-.821-1.343-1.407-1.151-1.172-2.771-2.76-4.6-4.465s-3.538-3.2-4.785-4.263c-.629-.533-1.14-.948-1.5-1.236A2.441,2.441,0,0,0,389,76.49Z" transform="translate(-310.54 -15.221)" fill="#00a1ff"/>
      <path id="Path_53" data-name="Path 53" d="M391.12,79.57c-.064.064,4.263,4.263,9.73,9.314s9.9,9.123,9.975,9.048-4.263-4.263-9.73-9.314S391.194,79.5,391.12,79.57Z" transform="translate(-321.356 -15.019)" fill="#00a1ff"/>
      <path id="Path_54" data-name="Path 54" d="M395.33,82.71c-.075.064,4.615,4.817,10.465,10.657s10.657,10.423,10.732,10.348-4.615-4.817-10.476-10.657S395.394,82.635,395.33,82.71Z" transform="translate(-331.545 -14.813)" fill="#00a1ff"/>
      <path id="Path_55" data-name="Path 55" d="M356.693,379.886l-.2-.426-.117-.234a.971.971,0,0,0-.107-.309,4.174,4.174,0,0,1-.213-.789,4.583,4.583,0,0,0-.085-.48v-.533a3.719,3.719,0,0,1,0-.6v-.65a12.212,12.212,0,0,1,.746-3.005,27.71,27.71,0,0,1,4.348-7.311,62.441,62.441,0,0,1,7.833-8.121,96.986,96.986,0,0,1,10.924-8.27,112.131,112.131,0,0,1,13.716-7.684c2.5-1.172,5.126-2.27,7.854-3.261a67.549,67.549,0,0,1,8.526-2.5,36.951,36.951,0,0,1,9.1-.991,15.347,15.347,0,0,1,4.593.8,8.525,8.525,0,0,1,2.078,1.066,6.254,6.254,0,0,1,1.588,1.716,6.628,6.628,0,0,1,.746,2.227,9,9,0,0,1-.064,2.334,15.421,15.421,0,0,1-1.535,4.4,36.384,36.384,0,0,1-5.265,7.46,69.49,69.49,0,0,1-6.32,6.224c-2.131,1.908-4.412,3.666-6.661,5.329a111.543,111.543,0,0,1-13.364,8.281,96.989,96.989,0,0,1-12.544,5.552,63,63,0,0,1-10.924,2.877,28.145,28.145,0,0,1-8.526.266,12.15,12.15,0,0,1-2.995-.81c-.213-.075-.394-.192-.586-.277a3.391,3.391,0,0,1-.512-.3l-.458-.3-.373-.309a4.263,4.263,0,0,1-.586-.565c-.075-.085-.149-.16-.213-.245l-.149-.213-.288-.394.266.4.149.224.213.245a4.876,4.876,0,0,0,.576.576l.384.309.448.309a4.81,4.81,0,0,0,.522.3c.192.085.373.2.586.288a11.9,11.9,0,0,0,3.005.821,27.475,27.475,0,0,0,8.526-.234,61.886,61.886,0,0,0,10.934-2.856,96.38,96.38,0,0,0,12.554-5.542,110.266,110.266,0,0,0,13.385-8.27c2.249-1.631,4.487-3.389,6.682-5.329a68.393,68.393,0,0,0,6.33-6.235,36.776,36.776,0,0,0,5.329-7.524,15.781,15.781,0,0,0,1.545-4.455,9.018,9.018,0,0,0,.064-2.4,6.4,6.4,0,0,0-.767-2.281,6.5,6.5,0,0,0-1.631-1.78,9.219,9.219,0,0,0-2.131-1.066,15.816,15.816,0,0,0-4.647-.8,37.134,37.134,0,0,0-9.144.991,67.549,67.549,0,0,0-8.526,2.526c-2.728.991-5.329,2.132-7.865,3.272a110.954,110.954,0,0,0-13.727,7.716,95.8,95.8,0,0,0-10.924,8.291,62.535,62.535,0,0,0-7.833,8.153,28.07,28.07,0,0,0-4.338,7.343,12.351,12.351,0,0,0-.725,3.027v.661a3.7,3.7,0,0,0,0,.6v.543a2.249,2.249,0,0,0,.1.48,4.13,4.13,0,0,0,.224.789.715.715,0,0,0,.107.3l.128.245Z" transform="translate(-301.199 1.739)" fill="#e0e0e0"/>
      <path id="Path_56" data-name="Path 56" d="M352.9,350.46s.053-.149.139-.458a.368.368,0,0,1,.075-.256l.117-.3a4.583,4.583,0,0,1,.362-.725c.085-.128.16-.277.256-.416l.33-.426a3.047,3.047,0,0,1,.394-.448,4.65,4.65,0,0,1,.458-.458,12.16,12.16,0,0,1,2.579-1.758,27.782,27.782,0,0,1,8.1-2.558,63.086,63.086,0,0,1,11.265-.842,96.908,96.908,0,0,1,13.652,1.066,111.549,111.549,0,0,1,15.346,3.389c2.654.8,5.329,1.716,8.036,2.792a69.068,69.068,0,0,1,8.014,3.783,37.084,37.084,0,0,1,7.46,5.329,15.771,15.771,0,0,1,2.9,3.645,9.049,9.049,0,0,1,.831,2.185,5.67,5.67,0,0,1-.884,4.5,9.036,9.036,0,0,1-1.609,1.705,15.431,15.431,0,0,1-4.071,2.27,37.109,37.109,0,0,1-8.92,2.078,69.271,69.271,0,0,1-8.856.437,82.915,82.915,0,0,1-8.526-.49,111.7,111.7,0,0,1-15.474-2.643A97.385,97.385,0,0,1,371.83,367.6a62.015,62.015,0,0,1-10.082-5.083,27.707,27.707,0,0,1-6.512-5.457,11.638,11.638,0,0,1-1.694-2.59,5.716,5.716,0,0,1-.256-.607,4.257,4.257,0,0,1-.192-.554l-.139-.533a3.461,3.461,0,0,0-.075-.48,3.679,3.679,0,0,1-.053-.81,3.183,3.183,0,0,1,0-.32V350.9a1.766,1.766,0,0,1,.053-.48l-.064.48v.586a3.673,3.673,0,0,0,0,.81,1.325,1.325,0,0,0,.064.49,3.893,3.893,0,0,1,.139.533,4.428,4.428,0,0,0,.192.565,5.579,5.579,0,0,0,.245.607,12.461,12.461,0,0,0,1.684,2.611,27.645,27.645,0,0,0,6.522,5.5,61.973,61.973,0,0,0,10.082,5.116,97.944,97.944,0,0,0,13.055,4.263,112.237,112.237,0,0,0,15.506,2.739c2.76.288,5.6.458,8.526.49a65.85,65.85,0,0,0,8.877-.437,36.567,36.567,0,0,0,8.963-2.131,15.709,15.709,0,0,0,4.124-2.3,8.825,8.825,0,0,0,1.641-1.748,6.4,6.4,0,0,0,.949-2.217,6.533,6.533,0,0,0,0-2.409,9.166,9.166,0,0,0-.853-2.238,15.739,15.739,0,0,0-2.931-3.7,36.982,36.982,0,0,0-7.46-5.329,67.732,67.732,0,0,0-8.046-3.751c-2.7-1.066-5.393-2-8.046-2.792a110.651,110.651,0,0,0-15.4-3.378,95.317,95.317,0,0,0-13.673-1.066,61.969,61.969,0,0,0-11.275.874,27.889,27.889,0,0,0-8.121,2.59,12.277,12.277,0,0,0-2.568,1.78c-.17.139-.309.32-.458.458a4.868,4.868,0,0,0-.384.458c-.117.149-.234.3-.33.437s-.171.288-.256.426a3.719,3.719,0,0,0-.352.725,2.927,2.927,0,0,0-.117.309l-.075.256C352.945,350.311,352.9,350.46,352.9,350.46Z" transform="translate(-303.185 2.21)" fill="#e0e0e0"/>
      <path id="Path_57" data-name="Path 57" d="M374.247,321.446l.448-.181.245-.1.309-.085a3.919,3.919,0,0,1,.8-.16l.49-.053h.544a3.8,3.8,0,0,1,.586,0,4.675,4.675,0,0,1,.65.075,13.034,13.034,0,0,1,2.952.949,27.975,27.975,0,0,1,6.98,4.849,61.693,61.693,0,0,1,7.567,8.377,96.713,96.713,0,0,1,7.46,11.467A111.32,111.32,0,0,1,410,360.793c.991,2.579,1.918,5.275,2.718,8.057a70.433,70.433,0,0,1,1.918,8.654,36.929,36.929,0,0,1,.352,9.155,15.506,15.506,0,0,1-1.066,4.519,8.749,8.749,0,0,1-1.215,2,6.4,6.4,0,0,1-1.833,1.46,6.16,6.16,0,0,1-2.259.586,8.587,8.587,0,0,1-2.334-.224,15.409,15.409,0,0,1-4.263-1.822,36.788,36.788,0,0,1-7.108-5.776,69.173,69.173,0,0,1-5.808-6.714c-1.748-2.313-3.346-4.668-4.817-7.012a112.111,112.111,0,0,1-7.332-13.908,97.523,97.523,0,0,1-4.678-12.874,62.523,62.523,0,0,1-2.131-11.084,27.933,27.933,0,0,1,.32-8.526,12.043,12.043,0,0,1,1.012-2.931,5.626,5.626,0,0,1,.32-.565,3.4,3.4,0,0,1,.33-.5l.33-.426c.107-.139.224-.245.33-.362a3.74,3.74,0,0,1,.607-.533c.1-.075.171-.149.256-.2l.224-.139.4-.245-.416.234-.224.128c-.085.053-.171.128-.266.2a3.741,3.741,0,0,0-.607.533c-.107.107-.234.224-.341.352l-.341.437a3.575,3.575,0,0,0-.33.49,4.828,4.828,0,0,0-.32.565,11.819,11.819,0,0,0-1.066,2.941,28.028,28.028,0,0,0-.352,8.526,62.813,62.813,0,0,0,2.131,11.115,96.645,96.645,0,0,0,4.668,12.9,110.17,110.17,0,0,0,7.332,13.929c1.46,2.355,3.059,4.711,4.817,7.023a66.985,66.985,0,0,0,5.787,6.757,36.829,36.829,0,0,0,7.14,5.808,15.656,15.656,0,0,0,4.338,1.844,8.951,8.951,0,0,0,2.387.235,5.776,5.776,0,0,0,4.263-2.131,8.527,8.527,0,0,0,1.247-2.046,15.6,15.6,0,0,0,1.119-4.583,36.648,36.648,0,0,0-.362-9.187,66.254,66.254,0,0,0-1.929-8.675c-.8-2.792-1.716-5.488-2.718-8.078a111.506,111.506,0,0,0-6.746-14.11,98.275,98.275,0,0,0-7.524-11.478,63.081,63.081,0,0,0-7.6-8.377,28.008,28.008,0,0,0-7.034-4.828,12.215,12.215,0,0,0-2.963-.938,1.878,1.878,0,0,1-.65-.075,3.866,3.866,0,0,0-.6,0h-.554l-.48.053a5.738,5.738,0,0,0-.8.171l-.309.1-.256.1Z" transform="translate(-303.237 0.84)" fill="#e0e0e0"/>
      <path id="Path_58" data-name="Path 58" d="M354.075,380.557a1.513,1.513,0,1,0,1.154-.243,1.524,1.524,0,0,0-1.154.243Z" transform="translate(-226.805 4.745)" fill="#e0e0e0"/>
      <path id="Path_59" data-name="Path 59" d="M423.278,321.525a1.524,1.524,0,1,0,1.79-1.194,1.524,1.524,0,0,0-1.79,1.194Z" transform="translate(-371.067 0.803)" fill="#e0e0e0"/>
      <path id="Path_60" data-name="Path 60" d="M364.7,383.409a.386.386,0,1,0,.453-.3A.386.386,0,0,0,364.7,383.409Z" transform="translate(-247.832 4.93)" fill="#e0e0e0"/>
      <path id="Path_61" data-name="Path 61" d="M364.509,342.649a.384.384,0,1,0,.16-.248.386.386,0,0,0-.16.248Z" transform="translate(-247.438 2.251)" fill="#e0e0e0"/>
      <path id="Path_62" data-name="Path 62" d="M423.858,350.71a.384.384,0,0,0,.309.448.373.373,0,0,0,.448-.3.386.386,0,1,0-.757-.149Z" transform="translate(-370.038 2.781)" fill="#e0e0e0"/>
      <path id="Path_63" data-name="Path 63" d="M425.511,333.129a.373.373,0,0,0,.3.448.387.387,0,1,0-.3-.448Z" transform="translate(-373.449 1.625)" fill="#e0e0e0"/>
      <ellipse id="Ellipse_7" data-name="Ellipse 7" cx="7.407" cy="7.407" rx="7.407" ry="7.407" transform="translate(86.8 370.565) rotate(-117.28)" fill="#e0e0e0"/>
      <path id="Path_64" data-name="Path 64" d="M218.165,94.111a19.843,19.843,0,0,1,4.387-6.841,38.566,38.566,0,0,1,27.7-12.427,13.243,13.243,0,0,1,6.336.984,4.264,4.264,0,0,1,2.843,3.477,5.107,5.107,0,0,1-2.007,4.1c-5.171,3.647-9.089,3.837-14.106,5.442s-10.176,3.982-12.88,8.445c-1.47,2.419-2.306,5.519-4.853,6.8-2.47,1.248-5.725.039-7.239-2.251S217.188,96.668,218.165,94.111Z" transform="translate(8.143 46.965)" fill="#f5f5f5"/>
      <path id="Path_65" data-name="Path 65" d="M332.111,278.08s.416.245,1.247.693,2.057,1.066,3.634,2.025a132.9,132.9,0,0,1,13.407,8.728,137.305,137.305,0,0,1,18.917,16.764,139.038,139.038,0,0,1,10.124,12.128,89.81,89.81,0,0,1,9.2,15.091,69.2,69.2,0,0,1,3.421,8.867,51.787,51.787,0,0,1,1.9,9.719,37.142,37.142,0,0,1-.544,10.274,35.32,35.32,0,0,1-1.417,5.137,34.356,34.356,0,0,1-2.281,4.881,42.533,42.533,0,0,1-15.986,15.464,67.8,67.8,0,0,1-22.6,7.5c-4.05.671-8.174,1.13-12.373,1.449-2.131.181-4.263.245-6.33.341l-6.394.277c-2.131.139-4.263.085-6.48.085H313c-2.2,0-4.4-.149-6.607-.224l-6.671-.309a332.1,332.1,0,0,1-54.65-8.206c-36.981-8.59-70.775-21.975-100.53-35.862-14.92-6.9-28.849-14.1-40.593-22.8a102.226,102.226,0,0,1-15.634-14.142l-1.663-1.9c-.544-.629-1.066-1.311-1.556-1.95l-1.524-1.95-1.4-2.014a46.338,46.338,0,0,1-4.764-8.206,38.5,38.5,0,0,1-3.73-17.052,20.835,20.835,0,0,1,5.9-14.132,23.158,23.158,0,0,1,12.085-5.979,32.8,32.8,0,0,1,11.467,0,54.6,54.6,0,0,1,8.909,2.355c2.526.874,4.615,1.737,6.309,2.451l3.826,1.641,1.3.554-1.279-.607c-.853-.384-2.131-.97-3.8-1.695s-3.773-1.609-6.3-2.5a54.16,54.16,0,0,0-8.92-2.409,32.77,32.77,0,0,0-11.563-.053,23.382,23.382,0,0,0-12.256,5.968,21.133,21.133,0,0,0-6.043,14.345,38.717,38.717,0,0,0,3.73,17.265,46.233,46.233,0,0,0,4.774,8.281l1.4,2.025,1.471,1.961c.522.65,1.012,1.332,1.567,1.972l1.663,1.908A102.418,102.418,0,0,0,103.6,330.46c11.776,8.75,25.748,15.986,40.647,22.892,29.766,13.929,63.592,27.336,100.626,35.947s73.631,11.062,106.274,6.554a68.206,68.206,0,0,0,22.743-7.609,43.034,43.034,0,0,0,16.178-15.655,33.645,33.645,0,0,0,2.313-4.956,35.918,35.918,0,0,0,1.428-5.179,37.6,37.6,0,0,0,.533-10.391,52.362,52.362,0,0,0-1.929-9.8,69.492,69.492,0,0,0-3.464-8.92,89.342,89.342,0,0,0-9.272-15.133,136.5,136.5,0,0,0-29.19-28.86A128.482,128.482,0,0,0,337,280.7C333.848,278.911,332.111,278.08,332.111,278.08Z" transform="translate(33.679 -3.027)" fill="#e0e0e0"/>
      <path id="Path_66" data-name="Path 66" d="M426.239,189.553l13.332,49.023,40.5,11.19a2.8,2.8,0,0,1,1.844,3.272h0L437.6,241.646l-1.513-.48L383.557,227.1l-5.872-23.233-7.577-27.283a2.131,2.131,0,0,1,2.366-2.931l52.359,14.377a2.067,2.067,0,0,1,1.407,1.524Z" transform="translate(-305.743 -69.129)" fill="red"/>
      <path id="Path_67" data-name="Path 67" d="M459.534,190.826,471.662,235.5l-47.6-13.066L413.42,178.4Z" transform="translate(-341.766 -68.814)" fill="#d3d3d3"/>
      <path id="Path_68" data-name="Path 68" d="M399.034,173.65a.787.787,0,0,0,0,.256c.053.2.107.448.171.757.171.693.4,1.663.693,2.888.639,2.547,1.545,6.181,2.664,10.657,2.313,9.1,5.52,21.719,9.155,35.968v.16h.16l7.62,2.057,41.02,10.945,12.448,3.25,3.389.863.885.2.309.053a1.448,1.448,0,0,0-.288-.107l-.874-.256-3.368-.959-12.394-3.432-40.977-11.1-7.631-2.046.2.2c-3.7-14.238-6.97-26.846-9.336-35.926-1.183-4.5-2.131-8.11-2.824-10.657-.33-1.215-.6-2.131-.789-2.867-.085-.3-.149-.544-.213-.735S399.034,173.65,399.034,173.65Z" transform="translate(-332.304 -69.126)" fill="#e0e0e0"/>
      <ellipse id="Ellipse_8" data-name="Ellipse 8" cx="20.121" cy="20.121" rx="20.121" ry="20.121" transform="translate(380.864 380.745) rotate(-149.61)" fill="#ebebeb"/>
      <g id="Group_108" data-name="Group 108" transform="translate(378.747 347.722)" opacity="0.3">
        <path id="Path_69" data-name="Path 69" d="M115.25,351.451a3.282,3.282,0,1,0-1.343-4.433,3.282,3.282,0,0,0,1.343,4.433Z" transform="translate(-113.521 -345.277)" fill="#fff"/>
      </g>
      <g id="Group_109" data-name="Group 109" transform="translate(373.318 341.7)" opacity="0.3">
        <path id="Path_70" data-name="Path 70" d="M122.212,343.222a1.908,1.908,0,1,0-.789-2.59,1.929,1.929,0,0,0,.789,2.59Z" transform="translate(-121.203 -339.627)" fill="#fff"/>
      </g>
      <path id="Path_71" data-name="Path 71" d="M141.346,336.706c.266.245,23.084-7.172,24.1-1.577S149.584,353,130.635,361s-39.688,13.471-41.457,7.982S107.69,351.68,107.69,351.68l.213,2.835S95.36,361.506,96.18,366.3s16.37.735,33.538-7.524,31.14-17.648,29.51-21.133-15.815,1.268-15.815,1.268Z" transform="translate(245.887 1.64)" fill="#e0e0e0"/>
      <g id="Group_110" data-name="Group 110" transform="translate(366.438 334.647)" opacity="0.3">
        <path id="Path_72" data-name="Path 72" d="M107.9,335.131c.1.234,1.758-.416,4.54-.682a18.49,18.49,0,0,1,18.085,9.208c1.417,2.409,1.865,4.135,2.131,4.071s.117-1.886-1.13-4.583a17.319,17.319,0,0,0-2.888-4.316,17.957,17.957,0,0,0-5.062-3.9,18.2,18.2,0,0,0-6.128-1.812,17.286,17.286,0,0,0-5.19.2C109.369,333.937,107.823,334.982,107.9,335.131Z" transform="translate(-107.895 -333.009)" fill="#fff"/>
      </g>
      <path id="Path_73" data-name="Path 73" d="M90.656,51.87,89.59,56.644a5.52,5.52,0,0,0,1.6,5.169l32.057,30.341a8.025,8.025,0,0,1-1.481,12.789l-20.249,11.723a8.526,8.526,0,0,1-12.544-5.435L79.092,68.41a5.51,5.51,0,0,0-3.879-4.071l-4.082-1.151Z" transform="translate(304.719 -16.84)" fill="#f5f5f5"/>
      <path id="Path_74" data-name="Path 74" d="M73.985,84.267a14.334,14.334,0,0,0,5.989-3.655c1.588-1.641,2.771-3.634,4.263-5.329s3.517-3.2,5.8-3.293l20,19.556A6.81,6.81,0,0,1,108.7,102.31L90.578,112.861a6.821,6.821,0,0,1-10.018-4.124Z" transform="translate(315.358 -15.517)" fill="#e0e0e0"/>
      <g id="Group_111" data-name="Group 111" transform="translate(404.496 60.426)" opacity="0.3">
        <path id="Path_75" data-name="Path 75" d="M94.431,101.171c0,.064.512-.117,1.066-.789a5.712,5.712,0,0,0,1.14-3.517,7.322,7.322,0,0,0-.448-2.558,10.806,10.806,0,0,0-1.375-2.579,45.753,45.753,0,0,0-4.327-4.806c-6.32-6.469-11.659-11.489-11.947-11.211s4.615,5.734,10.934,12.2A58.329,58.329,0,0,1,93.739,92.5a10.892,10.892,0,0,1,1.343,2.249,6.991,6.991,0,0,1,.533,2.131,5.915,5.915,0,0,1-.6,3.2C94.687,100.755,94.357,101.086,94.431,101.171Z" transform="translate(-78.529 -75.7)" fill="#fff"/>
      </g>
      <path id="Path_76" data-name="Path 76" d="M92.52,86.983a3.538,3.538,0,0,0,.778-.064,13.42,13.42,0,0,0,2.131-.341,12.085,12.085,0,0,0,3.005-1.066A8.418,8.418,0,0,0,100,84.447a10.807,10.807,0,0,0,1.375-1.439c.831-1.066,1.481-2.238,2.131-3.2a9.591,9.591,0,0,1,2.131-2.227,5.126,5.126,0,0,1,1.886-.874c.48-.107.757-.107.757-.139s-.064,0-.2,0a4.669,4.669,0,0,0-.575,0,5.02,5.02,0,0,0-1.982.831,9.283,9.283,0,0,0-2.249,2.238c-.714.949-1.375,2.131-2.2,3.2a9.592,9.592,0,0,1-1.321,1.449,7.7,7.7,0,0,1-1.5,1.066,12.789,12.789,0,0,1-2.92,1.066c-.874.2-1.588.33-2.078.426A6.278,6.278,0,0,0,92.52,86.983Z" transform="translate(299.412 -15.217)" fill="#fafafa"/>
      <path id="Path_77" data-name="Path 77" d="M115.967,47.553a9.815,9.815,0,0,1,3.3-5.4,18.117,18.117,0,0,1,9.826-5.041,14.675,14.675,0,0,1,11.19,3.091,13.577,13.577,0,0,1,5.094,9.911c.362,2.515-2.259,4.636-4.785,4.764s-4.913-1.066-7.183-2.206-4.774-2.2-7.268-1.726-4.9,2.494-7.364,1.758C116.724,52.135,115.636,49.673,115.967,47.553Z" transform="translate(237.354 -17.819)" fill="#f5f5f5"/>
      <path id="Path_78" data-name="Path 78" d="M150.865,43.289c.149-1.972,1.673-5.094,5.329-4.636,1.492,0,3.1,1.844,3.485,3.293a4.071,4.071,0,0,1-1.322,4.039,4.966,4.966,0,0,1-4.263.991C152.357,46.6,150.726,45.068,150.865,43.289Z" transform="translate(185.735 -17.711)" fill="#f5f5f5"/>
      <path id="Path_79" data-name="Path 79" d="M101.594,192.788l.554,1.481a3.506,3.506,0,0,1-.181,2.835L71.817,254.813a3.517,3.517,0,0,1-2.131,1.748l-1.705.458a3.421,3.421,0,0,1-1.183.117l-35.169-2.771a3.485,3.485,0,0,1-3.2-3.282h0a3.527,3.527,0,0,1,.4-1.833l31.972-59.617a3.485,3.485,0,0,1,3.346-1.822l34.4,2.718A3.485,3.485,0,0,1,101.594,192.788Z" transform="translate(373.636 -7.906)" fill="#e0e0e0"/>
      <path id="Path_80" data-name="Path 80" d="M99.458,191.887,67.465,251.7,31.22,248.839,62.968,189.02Z" transform="translate(373.565 -7.825)" fill="#fafafa"/>
      <path id="Path_81" data-name="Path 81" d="M68.928,234.314a5.329,5.329,0,1,0,2.923,2.922,5.329,5.329,0,0,0-2.923-2.922Z" transform="translate(368.415 -4.874)" fill="#08d121"/>
      <path id="Path_82" data-name="Path 82" d="M66.232,236.585l.139.97a.245.245,0,0,1-.16.277l-.181.075s-.33.1-.224.394.618,1.545.618,1.545.139.362.4.234l.266-.107a.245.245,0,0,1,.266.075l.671.842a.245.245,0,0,1,0,.309l-.256.234a.33.33,0,0,1-.16.107.906.906,0,0,1-.512,0,3.965,3.965,0,0,1-1.865-2.515c-.575-1.673,0-2.3.1-2.462a.725.725,0,0,1,.448-.224h.16a.266.266,0,0,1,.288.245Z" transform="translate(368.947 -4.715)" fill="#fff"/>
      <path id="Path_83" data-name="Path 83" d="M85.016,241.286a5.329,5.329,0,1,0-3.919,1.3,5.329,5.329,0,0,0,3.919-1.3Z" transform="translate(338.259 -5.004)" fill="red"/>
      <path id="Path_84" data-name="Path 84" d="M83.645,238.009l-.938-.309a.256.256,0,0,1-.181-.266v-.192a.32.32,0,0,0-.245-.384c-.224,0-1.663-.128-1.663-.128s-.384,0-.394.266v.277a.224.224,0,0,1-.181.2l-1.066.234a.234.234,0,0,1-.266-.149l-.107-.33a.394.394,0,0,1,0-.192,1.066,1.066,0,0,1,.213-.458,3.954,3.954,0,0,1,3.091-.565c1.748.224,2.131,1,2.131,1.183a.81.81,0,0,1,0,.5l-.1.171A.266.266,0,0,1,83.645,238.009Z" transform="translate(338.457 -4.743)" fill="#fff"/>
      <path id="Path_85" data-name="Path 85" d="M66.98,213.234c-1.353-.948-1.758-2.856-.831-4.9,1.2-2.675,4.263-4.551,6.757-4.2s3.57,2.824,2.355,5.488a7.46,7.46,0,0,1-4.977,4.092c6.512,2.131,2.7,9.592,2.7,9.592l-17.84-1.4S59.573,213.255,66.98,213.234Z" transform="translate(371.769 -6.835)" fill="#ebebeb"/>
      <path id="Path_86" data-name="Path 86" d="M56.15,226.526c0,.288,6.394,1.012,14.334,1.641s14.4.906,14.419.629-6.394-1.066-14.334-1.641S56.171,226.249,56.15,226.526Z" transform="translate(361.552 -5.367)" fill="#ebebeb"/>
      <path id="Path_87" data-name="Path 87" d="M92.3,418.38l-1.162,1.94a13.268,13.268,0,0,1-5.5,5.116l-2.036,1,1.94,1.13a13.194,13.194,0,0,1,5.062,5.5l1.012,2.025,1.162-1.94a13.333,13.333,0,0,1,5.5-5.062l2.036-1-1.95-1.172a13.374,13.374,0,0,1-5.062-5.488Z" transform="translate(316.89 7.249)" fill="#ebebeb"/>
      <path id="Path_88" data-name="Path 88" d="M442.632,60.61l-.843,1.407a9.673,9.673,0,0,1-3.99,3.673l-1.469.727,1.407.843a9.674,9.674,0,0,1,3.673,3.99l.727,1.477.843-1.407a9.573,9.573,0,0,1,3.99-3.673l1.477-.727-1.407-.851a9.573,9.573,0,0,1-3.673-3.99Z" transform="translate(-398.451 -12.285)" fill="#00a1ff"/>
      <path id="Path_206" data-name="Path 206" d="M440.162,60.61l-.512.856a5.882,5.882,0,0,1-2.426,2.233l-.893.442.856.512a5.882,5.882,0,0,1,2.233,2.426l.442.9.512-.856a5.821,5.821,0,0,1,2.426-2.233l.9-.442-.856-.517a5.82,5.82,0,0,1-2.233-2.426Z" transform="translate(-387.96 136.51)" fill="#00a1ff"/>
      <path id="Path_89" data-name="Path 89" d="M457.406,88.86l-1.012,1.684a11.6,11.6,0,0,1-4.774,4.4l-1.769.874,1.684,1.066a11.553,11.553,0,0,1,4.4,4.785l.874,1.758,1-1.737a11.552,11.552,0,0,1,4.785-4.4l1.769-.821L462.681,95.4a11.6,11.6,0,0,1-4.4-4.774Z" transform="translate(-444.486 8.379)" fill="#00a1ff"/>
      <path id="Path_90" data-name="Path 90" d="M70.8,397.81l-.821,1.375a9.41,9.41,0,0,1-3.89,3.581l-1.439.714,1.375.821a9.41,9.41,0,0,1,3.581,3.89l.714,1.439.821-1.375a9.474,9.474,0,0,1,3.922-3.581l1.439-.714-1.375-.821a9.41,9.41,0,0,1-3.581-3.89Z" transform="translate(360.895 5.897)" fill="#ebebeb"/>
      <path id="Path_91" data-name="Path 91" d="M401.619,411.93l-.831,1.375a9.272,9.272,0,0,1-3.89,3.581l-1.428.714,1.375.831a9.453,9.453,0,0,1,3.581,3.879l.7,1.439.831-1.375a9.41,9.41,0,0,1,3.89-3.581l1.439-.7-1.375-.831a9.272,9.272,0,0,1-3.581-3.89Z" transform="translate(-322.456 6.825)" fill="#ebebeb"/>
      <path id="Path_92" data-name="Path 92" d="M61.149,43.23,60.329,44.6a9.41,9.41,0,0,1-3.89,3.581L55,48.9l1.375.821a9.41,9.41,0,0,1,3.581,3.922l.714,1.439.831-1.439a9.474,9.474,0,0,1,3.89-3.581l1.439-.682-1.375-.831a9.474,9.474,0,0,1-3.581-3.89Z" transform="translate(380.851 -17.407)" fill="#ebebeb"/>
      <path id="Path_93" data-name="Path 93" d="M445.56,278.62l-.831,1.375a9.346,9.346,0,0,1-3.89,3.581l-1.439.714,1.375.821a9.336,9.336,0,0,1,3.581,3.89l.714,1.439.831-1.375a9.453,9.453,0,0,1,3.879-3.581l1.439-.7-1.375-.831a9.474,9.474,0,0,1-3.581-3.89Z" transform="translate(-413.203 -1.936)" fill="#ebebeb"/>
      <path id="Path_94" data-name="Path 94" d="M57.869,136.16l-.831,1.364a9.272,9.272,0,0,1-3.89,3.581l-1.428.714,1.364.831a9.272,9.272,0,0,1,3.581,3.89l.714,1.428.8-1.322a9.41,9.41,0,0,1,3.89-3.581l1.428-.7-1.364-.831a9.368,9.368,0,0,1-3.591-3.89Z" transform="translate(387.68 -11.3)" fill="#ebebeb"/>
    </g>
    <g id="freepik--Floor--inject-119" transform="translate(18.321 472.905)">
      <path id="Path_95" data-name="Path 95" d="M61.52,463.017c0,.149,94.572.277,211.195.277s211.216-.16,211.216-.277-94.54-.277-211.216-.277S61.52,462.825,61.52,463.017Z" transform="translate(-61.52 -462.74)" fill="#263238"/>
    </g>
    <g id="freepik--Sparkles--inject-119" transform="translate(62.069 7.172)">
      <path id="Path_96" data-name="Path 96" d="M110.553,152.59l-.767,1.279a8.7,8.7,0,0,1-3.613,3.325l-1.343.661,1.279.778a8.728,8.728,0,0,1,3.336,3.613l.661,1.332.767-1.268a8.75,8.75,0,0,1,3.623-3.336l1.332-.661-1.279-.767a8.728,8.728,0,0,1-3.325-3.623Z" transform="translate(216.678 -17.392)" fill="#358dc0"/>
      <path id="Path_97" data-name="Path 97" d="M370.123,284.28l-.767,1.279a8.792,8.792,0,0,1-3.613,3.336l-1.343.661,1.279.767a8.749,8.749,0,0,1,3.336,3.623l.661,1.332.767-1.279a8.867,8.867,0,0,1,3.613-3.336L375.4,290l-1.279-.767a8.729,8.729,0,0,1-3.336-3.613Z" transform="translate(-319.522 -8.737)" fill="#358dc0"/>
      <path id="Path_98" data-name="Path 98" d="M229.133,37l-.767,1.279a8.728,8.728,0,0,1-3.613,3.336l-1.343.661,1.279.767a8.792,8.792,0,0,1,3.336,3.549l.661,1.343.767-1.279a8.749,8.749,0,0,1,3.623-3.336l1.332-.661-1.279-.767a8.76,8.76,0,0,1-3.325-3.613Z" transform="translate(-28.276 -24.989)" fill="#358dc0"/>
      <path id="Path_99" data-name="Path 99" d="M397.923,150l-.767,1.279a8.749,8.749,0,0,1-3.624,3.336l-1.332.661,1.279.767a8.76,8.76,0,0,1,3.325,3.613l.661,1.343.767-1.279a8.749,8.749,0,0,1,3.623-3.336l1.332-.661-1.268-.767a8.792,8.792,0,0,1-3.336-3.613Z" transform="translate(-376.939 -17.562)" fill="#358dc0"/>
      <path id="Path_100" data-name="Path 100" d="M137.688,198.8l-.554.927a6.394,6.394,0,0,1-2.643,2.43l-.98.48.938.565a6.394,6.394,0,0,1,2.43,2.643l.48.97.565-.927a6.394,6.394,0,0,1,2.643-2.43l.97-.48-.927-.565a6.32,6.32,0,0,1-2.43-2.643Z" transform="translate(160.406 -14.355)" fill="#358dc0"/>
      <path id="Path_101" data-name="Path 101" d="M161.568,310.86,161,311.8a6.394,6.394,0,0,1-2.632,2.409l-.98.48.938.565a6.4,6.4,0,0,1,2.43,2.643l.48.97.565-.927a6.394,6.394,0,0,1,2.632-2.43l.98-.49-.938-.554a6.394,6.394,0,0,1-2.43-2.643Z" transform="translate(111.077 -6.99)" fill="#358dc0"/>
      <path id="Path_102" data-name="Path 102" d="M389.868,116l-.554.927a6.32,6.32,0,0,1-2.643,2.43l-.98.49.938.554a6.394,6.394,0,0,1,2.43,2.643l.48.98.565-.938a6.394,6.394,0,0,1,2.643-2.43l.97-.48-.927-.565a6.32,6.32,0,0,1-2.43-2.643Z" transform="translate(-360.528 -19.797)" fill="#358dc0"/>
      <path id="Path_103" data-name="Path 103" d="M90.868,175.16l-.554.927a6.394,6.394,0,0,1-2.643,2.44l-.98.48.938.554a6.522,6.522,0,0,1,2.43,2.643l.48.98.565-.938a6.394,6.394,0,0,1,2.643-2.43l.97-.48-.927-.565a6.32,6.32,0,0,1-2.43-2.643Z" transform="translate(257.123 -15.909)" fill="#358dc0"/>
      <path id="Path_104" data-name="Path 104" d="M414.9,121.42l-.32.533a3.656,3.656,0,0,1-1.513,1.385l-.565.277.533.32a3.613,3.613,0,0,1,1.417,1.513l.277.565.32-.533a3.613,3.613,0,0,1,1.513-1.4l.554-.277-.533-.32a3.655,3.655,0,0,1-1.385-1.513Z" transform="translate(-412.5 -19.441)" fill="#358dc0"/>
      <path id="Path_105" data-name="Path 105" d="M396.207,265.38l-.32.544a3.656,3.656,0,0,1-1.513,1.385l-.554.277.533.32a3.677,3.677,0,0,1,1.4,1.513l.277.565.32-.544a3.656,3.656,0,0,1,1.513-1.385l.554-.277-.533-.32a3.677,3.677,0,0,1-1.4-1.513Z" transform="translate(-373.891 -9.979)" fill="#358dc0"/>
      <path id="Path_106" data-name="Path 106" d="M266.9,25.73l-.32.533a3.655,3.655,0,0,1-1.513,1.385l-.565.277.533.33a3.581,3.581,0,0,1,1.407,1.5l.277.565.32-.533a3.677,3.677,0,0,1,1.535-1.4l.533-.245-.544-.32a3.655,3.655,0,0,1-1.385-1.513Z" transform="translate(-106.762 -25.73)" fill="#358dc0"/>
      <path id="Path_107" data-name="Path 107" d="M209.576,51.26l-.32.533a3.677,3.677,0,0,1-1.492,1.4l-.554.277.533.32a3.655,3.655,0,0,1,1.385,1.513l.277.554.33-.533a3.645,3.645,0,0,1,1.5-1.4l.565-.277-.533-.32a3.613,3.613,0,0,1-1.375-1.513Z" transform="translate(11.594 -24.052)" fill="#358dc0"/>
      <path id="Path_108" data-name="Path 108" d="M167.757,324l-.32.533a3.677,3.677,0,0,1-1.513,1.4l-.554.277.533.32a3.655,3.655,0,0,1,1.385,1.513l.277.554.32-.533a3.741,3.741,0,0,1,1.513-1.4l.565-.277-.533-.32a3.612,3.612,0,0,1-1.4-1.513Z" transform="translate(98.024 -6.126)" fill="#358dc0"/>
    </g>
    <g id="freepik--light-bulb--inject-119" transform="translate(106.443 46.071)">
      <path id="Path_109" data-name="Path 109" d="M191.223,398.906l132.15-.309c5.478,0,9.911-3.869,9.9-8.611h0c0-4.732-4.465-8.526-9.943-8.526l-132.15.309c-5.478,0-9.9,3.858-9.89,8.6h0C181.3,395.08,185.745,398.917,191.223,398.906Z" transform="translate(-126.626 -41.248)" fill="#455a64"/>
      <path id="Path_110" data-name="Path 110" d="M191.223,379.345l132.15-.3c5.478,0,9.911-3.869,9.9-8.611h0c0-4.742-4.465-8.526-9.943-8.526l-132.15.3c-5.478,0-9.9,3.869-9.89,8.611h0C181.3,375.53,185.745,379.356,191.223,379.345Z" transform="translate(-126.626 -42.533)" fill="#455a64"/>
      <path id="Path_111" data-name="Path 111" d="M196.612,400.767l120.981-.277a9.08,9.08,0,0,1,0,18.117H304.314l-17.542,33.645a11.723,11.723,0,0,1-10.306,6.267l-43.236.1a11.659,11.659,0,0,1-10.4-6.32l-17.2-33.389H196.6a9.08,9.08,0,0,1,0-18.117Z" transform="translate(-126.708 -39.998)" fill="#455a64"/>
      <path id="Path_112" data-name="Path 112" d="M146.726,282.238h0s.33.512.98,1.46l2.877,4.263,2.1,3.155c.767,1.162,1.524,2.494,2.4,3.9l2.771,4.583c1.012,1.62,1.886,3.464,2.931,5.329.512.959,1.066,1.94,1.577,2.941.266.512.533,1.066.81,1.535s.5,1.066.757,1.609c1.066,2.185,2.131,4.465,3.2,6.863l3.133,7.663c.991,2.7,1.972,5.531,2.984,8.462a168.387,168.387,0,0,1,5.02,19.279,111.9,111.9,0,0,1,2.132,22.327v.181h.171l141.049.075h.224v-.224a144.82,144.82,0,0,1,12.725-47.691A186.7,186.7,0,0,1,347.1,304.853q3.581-5.643,7.62-11.094c2.7-3.634,5.638-7.1,8.526-10.657l.352-.426h-.565l.2.426a136.733,136.733,0,0,0,26.313-57.986c.576-2.707.927-5.457,1.353-8.206.17-1.385.3-2.771.448-4.156l.213-2.131.139-2.131c.075-1.4.2-2.792.245-4.2s0-2.814.085-4.263,0-2.814,0-4.263,0-2.835-.128-4.263a140.59,140.59,0,0,0-6.075-33.688A137.478,137.478,0,0,0,328.187,83.3a139.694,139.694,0,0,0-20.494-10.657,133.628,133.628,0,0,0-21.581-6.9,137.787,137.787,0,0,0-43.631-2.931,142.592,142.592,0,0,0-20.846,3.549A146.85,146.85,0,0,0,202.1,72.887a151.877,151.877,0,0,0-17.808,9.1,148.544,148.544,0,0,0-15.8,11.2A138.118,138.118,0,0,0,143.5,120.035a134.785,134.785,0,0,0-15.986,29.84c-1.066,2.494-1.8,5.052-2.675,7.545s-1.449,5.03-2.131,7.46c-.565,2.515-1.183,4.977-1.673,7.46-.213,1.236-.437,2.451-.65,3.666s-.448,2.419-.576,3.634a138.249,138.249,0,0,0-1.226,27.378,136.413,136.413,0,0,0,9.592,42.789,143,143,0,0,0,6.842,14.5c2.259,4.071,4.327,7.46,6.1,10.06l2.355,3.464,1.812,2.419,1.481,1.982-1.428-1.982-1.79-2.462-2.345-3.485c-1.748-2.643-3.794-6-6.032-10.071a144.937,144.937,0,0,1-6.789-14.515,137.393,137.393,0,0,1-8.238-70.071c.128-1.215.362-2.409.576-3.623s.437-2.43.661-3.655c.48-2.451,1.066-4.9,1.673-7.46s1.364-4.977,2.131-7.46a78.437,78.437,0,0,1,2.675-7.524,133.759,133.759,0,0,1,15.986-29.712,137.862,137.862,0,0,1,24.938-26.7,151.338,151.338,0,0,1,15.762-11.147,149.2,149.2,0,0,1,17.755-9.048,146.215,146.215,0,0,1,19.46-6.49,140.312,140.312,0,0,1,20.782-3.528,137.042,137.042,0,0,1,43.46,2.941,132.6,132.6,0,0,1,21.5,6.874A139.089,139.089,0,0,1,327.9,83.779a136.956,136.956,0,0,1,57.4,74.441,140.056,140.056,0,0,1,6.053,33.56c.075,1.407.085,2.814.128,4.263s.117,2.8.053,4.21-.053,2.8-.085,4.2-.16,2.792-.245,4.178l-.128,2.131-.213,2.131c-.149,1.375-.288,2.76-.458,4.135-.416,2.739-.767,5.478-1.332,8.174a136.232,136.232,0,0,1-26.2,57.762l-.341.437h.554l-.213-.437c-2.909,3.528-5.9,6.98-8.526,10.657s-5.243,7.364-7.631,11.137a184.075,184.075,0,0,0-12.565,23.158,145.28,145.28,0,0,0-12.789,47.862l.234-.224-141.049.075.171.181a112.23,112.23,0,0,0-2.2-22.38,170.987,170.987,0,0,0-4.988-19.332c-1.066-2.931-2.014-5.766-3.016-8.462s-2.131-5.222-3.2-7.673-2.206-4.679-3.2-6.853l-.757-1.609-.821-1.535c-.544-1-1.066-1.982-1.588-2.941-1.066-1.886-1.94-3.73-2.952-5.329l-2.792-4.572c-.874-1.407-1.641-2.739-2.419-3.89s-1.5-2.2-2.131-3.123l-2.92-4.263-1.066-1.439h0Z" transform="translate(-118.374 -62.23)" fill="#263238"/>
      <path id="Path_113" data-name="Path 113" d="M146.1,241a1.065,1.065,0,0,0,.117-.3c.085-.234.181-.533.309-.906.277-.831.65-1.993,1.13-3.474l.81-2.515c.266-.927.5-1.95.778-3.037.533-2.2,1.247-4.668,1.705-7.46.256-1.4.522-2.856.81-4.38s.416-3.133.639-4.8c.5-3.3.661-6.863.906-10.657a147.742,147.742,0,0,0-1.066-24.384,148.745,148.745,0,0,0-5.425-23.8c-1.236-3.549-2.345-6.938-3.709-10-.661-1.535-1.226-3.048-1.9-4.444l-1.95-4.007c-1.183-2.579-2.536-4.774-3.623-6.746-.565-.97-1.066-1.9-1.567-2.718l-1.449-2.217-2.014-3.048-.533-.778c-.128-.181-.192-.266-.2-.256s0,.1.149.288l.49.81,1.929,3.1,1.407,2.227c.49.831.97,1.769,1.513,2.75,1.066,1.982,2.4,4.178,3.549,6.767l1.918,4.007c.65,1.4,1.2,2.909,1.854,4.444,1.343,3.048,2.43,6.394,3.645,9.975a151.554,151.554,0,0,1,5.329,23.712,151.528,151.528,0,0,1,1.14,24.288c-.234,3.73-.373,7.29-.853,10.583-.213,1.652-.341,3.261-.607,4.785s-.522,2.973-.778,4.369a72.6,72.6,0,0,1-1.609,7.46c-.266,1.066-.49,2.131-.735,3.048s-.533,1.758-.757,2.526c-.437,1.492-.789,2.664-1.066,3.5l-.256.917A1.183,1.183,0,0,0,146.1,241Z" transform="translate(108.037 -58.362)" fill="#263238"/>
      <path id="Path_114" data-name="Path 114" d="M160.82,99a90.477,90.477,0,0,0,7.332,6.693,86.028,86.028,0,0,0,7.705,6.277,89.638,89.638,0,0,0-7.343-6.693A87.393,87.393,0,0,0,160.82,99Z" transform="translate(52.605 -59.813)" fill="#263238"/>
      <path id="Path_115" data-name="Path 115" d="M366.284,254.1a.55.55,0,0,0-.1-.245l-.32-.693-1.268-2.622-.927-1.886c-.33-.693-.65-1.471-1.066-2.291-.7-1.652-1.588-3.5-2.366-5.616l-1.279-3.314c-.437-1.151-.81-2.377-1.236-3.634-.9-2.5-1.631-5.243-2.451-8.121a149.325,149.325,0,0,1-3.687-19.055,151.676,151.676,0,0,1-.97-19.4c.117-2.984.171-5.83.448-8.526.117-1.322.192-2.6.341-3.826s.309-2.4.448-3.517c.245-2.249.661-4.263.949-6.021.16-.885.288-1.716.437-2.472s.32-1.428.458-2.046l.607-2.856c.053-.3.107-.544.139-.746a.767.767,0,0,0,0-.256,1.416,1.416,0,0,0-.085.245c-.053.2-.117.437-.192.735-.181.693-.416,1.631-.714,2.824l-.5,2.046c-.171.757-.309,1.577-.48,2.462-.32,1.769-.767,3.783-1.066,6.032l-.49,3.517c-.16,1.236-.245,2.515-.373,3.847-.3,2.643-.373,5.5-.5,8.526a134.069,134.069,0,0,0,4.668,38.6c.842,2.877,1.6,5.627,2.515,8.132.448,1.258.821,2.483,1.279,3.634l1.311,3.3c.8,2.131,1.705,3.964,2.441,5.606.384.821.714,1.588,1.066,2.281l.98,1.865,1.364,2.579.362.661a.927.927,0,0,0,.256.245Z" transform="translate(-339.435 -56.004)" fill="#263238"/>
    </g>
    <g id="freepik--Robot--inject-119" transform="translate(103.264 55.508)">
      <path id="Path_116" data-name="Path 116" d="M285.513,126.315c7.29-4.178,14.92-7.982,23.116-9.794a9.7,9.7,0,0,1,3.5-.3,3.73,3.73,0,0,1,2.824,1.876c.7,1.46,0,3.2-.863,4.551-1.972,2.984-4.924,5.147-7.9,7.119-8.153,5.4-16.9,9.8-25.577,14.2,1.066-6.224,3.282-11.563,4.956-17.648" transform="translate(-211.258 -68.121)" fill="#358dc0"/>
      <path id="Path_117" data-name="Path 117" d="M379.308,141.758c-2.387,8.057-5.254,16.071-9.922,23.052a9.592,9.592,0,0,1-2.334,2.632,3.666,3.666,0,0,1-3.336.6c-1.513-.565-2.238-2.291-2.515-3.879-.639-3.517,0-7.13.778-10.6,2.131-9.592,5.435-18.767,8.707-27.975,3.506,5.254,5.627,10.657,8.622,16.178" transform="translate(-360.94 -67.503)" fill="#358dc0"/>
      <path id="Path_118" data-name="Path 118" d="M372.9,126.023s-.565,55.791-31.876,56.888S308.4,126.428,308.4,126.023c0,0,3.7-8.313,32.249-7.993S372.9,126.023,372.9,126.023Z" transform="translate(-298.536 -67.999)" fill="#358dc0"/>
      <path id="Path_119" data-name="Path 119" d="M327.216,147.034a10.8,10.8,0,1,0,9.975-11.552A10.8,10.8,0,0,0,327.216,147.034Z" transform="translate(-294.439 -66.854)" fill="#263238"/>
      <path id="Path_120" data-name="Path 120" d="M329.96,146.641a7.865,7.865,0,1,0,7.268-8.419A7.865,7.865,0,0,0,329.96,146.641Z" transform="translate(-294.263 -66.673)" fill="#fff"/>
      <path id="Path_121" data-name="Path 121" d="M333.565,147.921a8.072,8.072,0,0,0,.075-1.3c0-.821,0-1.972,0-3.389l-.085.149,4.082-2.355h-.224l4.082,2.291c.107.192-.149-.245-.128-.2h0v4.668l.107-.2-4,2.441h.181c-1.247-.671-2.281-1.2-3.005-1.577a7.773,7.773,0,0,0-1.172-.544,7.375,7.375,0,0,0,1.066.671c.682.416,1.705,1.066,2.984,1.758l.085.053.085-.053,4.05-2.355.117-.064v-4.753h0s-.234-.394-.117-.213l-4.1-2.27-.117-.064-.107.064-4,2.451h-.1v.1c0,1.471.085,2.654.128,3.464A6.682,6.682,0,0,0,333.565,147.921Z" transform="translate(-294.074 -66.515)" fill="#358dc0"/>
      <path id="Path_122" data-name="Path 122" d="M372.81,125.493h-.171l-.469.16-1.822.639-1.3.469-1.588.49a38.479,38.479,0,0,1-3.869,1.066l-2.27.575c-.789.2-1.62.352-2.483.533-1.705.394-3.57.661-5.51.98a89.83,89.83,0,0,1-25.577,0c-1.95-.309-3.8-.575-5.51-.97-.863-.192-1.695-.341-2.483-.533l-2.27-.586c-1.46-.341-2.739-.778-3.879-1.066-.565-.171-1.066-.32-1.577-.48l-1.311-.469-1.812-.639-.469-.16-.171-.053a.332.332,0,0,1,.16.075l.469.181,1.8.671,1.3.49c.48.171,1.066.32,1.577.512,1.13.341,2.409.789,3.869,1.14l2.27.6c.789.2,1.62.362,2.483.554,1.716.394,3.57.671,5.52.991a88.177,88.177,0,0,0,25.652,0c1.961-.32,3.815-.6,5.531-1,.853-.181,1.694-.341,2.483-.544l2.27-.6c1.46-.352,2.728-.8,3.869-1.151l1.577-.5,1.3-.49,1.8-.682.469-.181Z" transform="translate(-298.31 -67.511)" fill="#263238"/>
      <g id="Group_112" data-name="Group 112" transform="translate(9.864 50.022)" opacity="0.3">
        <path id="Path_123" data-name="Path 123" d="M372.9,126.024s-3.7-7.663-32.249-7.993-32.249,7.993-32.249,7.993S337.2,140.23,372.9,126.024Z" transform="translate(-308.4 -118.021)"/>
      </g>
      <path id="Path_124" data-name="Path 124" d="M309.46,165.044a.36.36,0,0,0,.053-.085l.139-.245.522-.98.362-.7.4-.863c.288-.618.607-1.322.927-2.131l.512-1.247.5-1.364c.373-.938.682-1.972,1.066-3.048.671-2.131,1.321-4.572,1.9-7.13s.991-5.009,1.332-7.258.565-4.263.693-5.979c.085-.853.139-1.62.181-2.3s.075-1.268.1-1.748v-1.076a5.166,5.166,0,0,1-.085,1.066c-.085.426-.064,1.066-.128,1.737s-.117,1.449-.2,2.3c-.16,1.705-.426,3.719-.746,5.968s-.789,4.679-1.343,7.236-1.226,4.945-1.876,7.108c-.362,1.066-.661,2.131-1.066,3.048l-.49,1.375-.5,1.247c-.3.8-.618,1.5-.9,2.131l-.384.874-.352.714-.48.991-.117.256Z" transform="translate(-244.914 -67.311)" fill="#fff"/>
      <path id="Path_125" data-name="Path 125" d="M322.31,175.818a2.738,2.738,0,0,0,.5-.064,8.813,8.813,0,0,0,1.332-.32,13.718,13.718,0,0,0,1.9-.725,15.8,15.8,0,0,0,2.132-1.258,15.561,15.561,0,0,0,1.908-1.6,13.222,13.222,0,0,0,1.332-1.545,9.061,9.061,0,0,0,.746-1.14,2.43,2.43,0,0,0,.234-.448s-.394.6-1.066,1.492a15.8,15.8,0,0,1-1.343,1.492,17.046,17.046,0,0,1-1.9,1.567,15.984,15.984,0,0,1-2.131,1.247,15.754,15.754,0,0,1-1.854.767C323.013,175.647,322.31,175.775,322.31,175.818Z" transform="translate(-272.855 -64.667)" fill="#fff"/>
      <path id="Path_126" data-name="Path 126" d="M325.794,158.193h1.162a11.1,11.1,0,0,0,3.112-.5,12.362,12.362,0,0,0,4.146-2.185,11.51,11.51,0,0,0,4.423-10.167,13.367,13.367,0,0,0-.448-2.483,13.992,13.992,0,0,0-.789-2.036,11.328,11.328,0,0,0-1.769-2.632,8.26,8.26,0,0,0-.6-.607c-.149-.139-.224-.2-.234-.192s.288.3.767.863a11.384,11.384,0,0,1,1.684,2.632,12.791,12.791,0,0,1,.757,2.025,13.1,13.1,0,0,1,.416,2.441,11.382,11.382,0,0,1-4.338,10,13.852,13.852,0,0,1-2.068,1.364,15.043,15.043,0,0,1-1.993.831,12.276,12.276,0,0,1-3.08.565C326.21,158.193,325.794,158.172,325.794,158.193Z" transform="translate(-282.861 -66.726)" fill="#fff"/>
      <path id="Path_127" data-name="Path 127" d="M340.72,71.1s27.3-.33,31.567,23.339-18.767,24.075-25.407,24.512c-3.016.2-9.453.224-15.133.117-12.586-.213-21.474-2.654-24.512-14.323a22.014,22.014,0,0,1-.682-4.188C305.817,87.769,314.482,70.472,340.72,71.1Z" transform="translate(-296.433 -71.084)" fill="#358dc0"/>
      <path id="Path_128" data-name="Path 128" d="M318.258,105.819l39.656.618a7.524,7.524,0,0,0,7.641-7.46h0a7.535,7.535,0,0,0-7.407-7.652l-39.677-.565a7.545,7.545,0,0,0-7.652,7.46h0A7.535,7.535,0,0,0,318.258,105.819Z" transform="translate(-293.773 -69.791)" fill="#263238"/>
      <path id="Path_129" data-name="Path 129" d="M321.257,97.928a2.419,2.419,0,1,0,1.9-2.835,2.419,2.419,0,0,0-1.9,2.835Z" transform="translate(-265.344 -69.51)" fill="#fff"/>
      <path id="Path_130" data-name="Path 130" d="M347.256,97.508a2.419,2.419,0,1,0,1.908-2.835,2.419,2.419,0,0,0-1.908,2.835Z" transform="translate(-319.051 -69.537)" fill="#fff"/>
      <path id="Path_131" data-name="Path 131" d="M341.219,96.7c-.181,0-.085.863-.618,1.993a5.158,5.158,0,0,1-1.279,1.684,4.178,4.178,0,0,1-2.27,1,4.124,4.124,0,0,1-2.419-.575,5.137,5.137,0,0,1-1.567-1.428c-.725-1.012-.789-1.854-.97-1.844s-.139.213-.139.618a3.88,3.88,0,0,0,.437,1.631,5.062,5.062,0,0,0,1.694,1.886,4.838,4.838,0,0,0,3.059.821A4.753,4.753,0,0,0,340,101.123a4.977,4.977,0,0,0,1.332-2.131,3.751,3.751,0,0,0,.139-1.684C341.4,96.881,341.293,96.689,341.219,96.7Z" transform="translate(-292.253 -69.401)" fill="#fff"/>
      <path id="Path_132" data-name="Path 132" d="M307.74,72.76h.384a5.322,5.322,0,0,1,1.066.085,30.9,30.9,0,0,1,4.028.671A29.84,29.84,0,0,1,318.93,75.5a29.362,29.362,0,0,1,6.267,3.964,29.953,29.953,0,0,1,9.485,14.483c.149.469.224.831.3,1.066l.085.277v0L335,95c-.053-.245-.117-.618-.256-1.066a27.2,27.2,0,0,0-1.3-3.869A28.61,28.61,0,0,0,313.3,73.4a27.8,27.8,0,0,0-4.092-.6h-1.449Z" transform="translate(-260 -70.974)" fill="#fff"/>
      <path id="Path_133" data-name="Path 133" d="M307.3,103.87a3,3,0,0,0,.394-.853,12.385,12.385,0,0,0,.554-2.131,12.79,12.79,0,0,0,.139-2.249,3.506,3.506,0,0,0-.107-.927c-.075,0,0,1.428-.256,3.2A24,24,0,0,1,307.3,103.87Z" transform="translate(-232.854 -69.334)" fill="#fff"/>
      <path id="Path_134" data-name="Path 134" d="M327.16,89.467c0,.064,5.222.117,11.659.117s11.67,0,11.67-.117-5.222-.107-11.67-.107S327.16,89.413,327.16,89.467Z" transform="translate(-296.12 -69.883)" fill="#fff"/>
      <path id="Path_135" data-name="Path 135" d="M312.76,114.7h2.867a29.349,29.349,0,0,0,3.112-.192,34.489,34.489,0,0,0,3.762-.65,31.694,31.694,0,0,0,3.655-1.066,29.052,29.052,0,0,0,2.867-1.215c.4-.192.757-.384,1.066-.554s.576-.309.789-.437l.49-.3.16-.117a.39.39,0,0,0-.181.075l-.512.256c-.213.117-.48.266-.8.416s-.671.341-1.066.512c-.8.373-1.769.778-2.867,1.172a37.3,37.3,0,0,1-3.645,1.066,36.565,36.565,0,0,1-3.741.661c-1.151.139-2.206.213-3.091.234h-2.856Z" transform="translate(-261.813 -68.515)" fill="#fff"/>
      <path id="Path_136" data-name="Path 136" d="M321.85,128.733h.1l.309.117,1.183.426c.512.181,1.14.394,1.886.618s1.588.5,2.526.735l1.481.394,1.62.373c1.066.266,2.323.48,3.591.725a83.216,83.216,0,0,0,8.345.98,82.057,82.057,0,0,0,8.387,0c1.29-.085,2.515-.149,3.655-.277l1.652-.171,1.524-.213c.97-.117,1.833-.288,2.6-.416s1.417-.266,1.95-.384l1.226-.277.32-.075h-.011l-.32.053-1.236.234c-.533.107-1.183.234-1.95.341s-1.631.288-2.6.394l-1.524.192c-.522.064-1.066.107-1.641.16-1.14.117-2.366.181-3.645.256-2.579.107-5.414.107-8.377-.064a79.788,79.788,0,0,1-8.313-.959c-1.268-.234-2.472-.437-3.591-.7-.554-.128-1.066-.234-1.62-.362l-1.481-.373c-.948-.224-1.79-.49-2.526-.7s-1.385-.416-1.908-.586l-1.194-.384-.309-.1Z" transform="translate(-304.281 -67.298)" fill="#fff"/>
    </g>
    <g id="freepik--Rocket--inject-119" transform="translate(330.348 245.659)">
      <path id="Path_137" data-name="Path 137" d="M137.092,301.621l-.075,14.782s-24.512-13.854-17.329-27.123Z" transform="translate(-87.295 -246.895)" fill="#358dc0"/>
      <path id="Path_138" data-name="Path 138" d="M91.44,268.927s17.7-6.469,31.087,5.52l-13.769,7.769Z" transform="translate(-44.03 -248.347)" fill="#358dc0"/>
      <path id="Path_139" data-name="Path 139" d="M162.6,283.222c-.554.725-14.92,20.814-14.92,20.814l-37.535-26.643a13.705,13.705,0,0,1-2.579-19.993h0a13.716,13.716,0,0,1,18.831-2.014Z" transform="translate(-97.872 -249.309)" fill="#f5f5f5"/>
      <path id="Path_140" data-name="Path 140" d="M162.857,283.238a2.2,2.2,0,0,0-.3-.256l-.938-.757-3.666-2.867-13.6-10.593-9.432-7.311-5.265-4.071-2.76-2.131a14.44,14.44,0,0,0-3.123-1.822,14.06,14.06,0,0,0-1.737-.629,15.07,15.07,0,0,0-1.833-.362,13.311,13.311,0,0,0-3.794,0,13.855,13.855,0,0,0-7.087,3.144,14.153,14.153,0,0,0-2.675,3.005,14.665,14.665,0,0,0-1.737,3.7,14.206,14.206,0,0,0,.107,8.27,13.854,13.854,0,0,0,4.465,6.533c2.131,1.6,4.188,2.995,6.235,4.476l11.851,8.377,20.249,14.281.171.117.117-.16c4.572-6.458,8.281-11.723,10.87-15.346l2.909-4.156.746-1.066a2.363,2.363,0,0,0,.234-.362,3.907,3.907,0,0,0-.288.373c-.2.256-.469.618-.81,1.066l-3.016,4.124-10.977,15.123h.277l-20.174-14.377c-3.783-2.675-7.737-5.488-11.83-8.4-2.036-1.471-4.178-2.9-6.2-4.455a13.343,13.343,0,0,1-4.263-6.277,13.63,13.63,0,0,1-.1-7.94,13.919,13.919,0,0,1,1.663-3.56A13.471,13.471,0,0,1,116.529,253a12.661,12.661,0,0,1,3.645,0,14.013,14.013,0,0,1,1.769.341,12.455,12.455,0,0,1,1.673.6c2.206.885,3.933,2.515,5.766,3.858l5.243,4.007,9.432,7.162L157.784,279.4l3.762,2.846,1,.735Z" transform="translate(-98.129 -249.325)" fill="#263238"/>
      <path id="Path_141" data-name="Path 141" d="M102.188,280.272l23.446,16.87s-1.066,2.568-1.652,2.313S105.769,287.2,100.046,283.3a1.854,1.854,0,0,1-.309-2.792h0A1.844,1.844,0,0,1,102.188,280.272Z" transform="translate(-55.449 -247.511)" fill="#358dc0"/>
      <path id="Path_142" data-name="Path 142" d="M129.382,270.763a7.844,7.844,0,1,0,8.323-7.322A7.844,7.844,0,0,0,129.382,270.763Z" transform="translate(-106.974 -248.594)" fill="#fff"/>
      <path id="Path_143" data-name="Path 143" d="M129.2,270.773a9.662,9.662,0,0,1,.469-1.854,7.812,7.812,0,0,1,3.123-4.007,7.639,7.639,0,0,1,11.8,6.874,7.748,7.748,0,0,1-1.758,4.38,7.6,7.6,0,0,1-7.695,2.515,7.46,7.46,0,0,1-3.123-1.609,7.726,7.726,0,0,1-2.59-4.37,18.966,18.966,0,0,1-.224-1.908,1.566,1.566,0,0,0-.064.5,5.691,5.691,0,0,0,.085,1.449,7.886,7.886,0,0,0,5.808,6.394,8.025,8.025,0,0,0,8.2-2.6,8.064,8.064,0,0,0-7.172-13.2,7.961,7.961,0,0,0-6.586,5.574,5.744,5.744,0,0,0-.266,1.417A1.492,1.492,0,0,0,129.2,270.773Z" transform="translate(-106.795 -248.604)" fill="#263238"/>
      <path id="Path_144" data-name="Path 144" d="M148.814,276.153c-12.608-11.787-10.359-25.439-10.359-25.439,16.956-4.455,28.4,4.87,28.4,4.87C155.571,257.173,149.528,264,148.814,276.153Z" transform="translate(-138.3 -249.509)" fill="#358dc0"/>
    </g>
    <g id="freepik--Character--inject-119" transform="translate(121.678 116.856)">
      <path id="Path_145" data-name="Path 145" d="M293.924,227.42l-4.38,40.252-25.918,8.643-1.066,12.533,36.576-2.451s11.275.277,13.727-14.579l.6-39.048Z" transform="translate(-208.658 -122.158)" fill="#ffbe9d"/>
      <path id="Path_146" data-name="Path 146" d="M313.243,286.051a1.769,1.769,0,0,0,1.929.533,1.492,1.492,0,0,0,.416-.2c.917-.576.288-2.59.288-2.59l4.561-2.036s7.279,2.366,10.188,4.433,7.982-1.567,7.982-1.567l-.735-10.657-10.892-5.627s.661.33-.341-1-3.613,0-3.613,0c-.618-.618-2.494-.4-2.494-.4l-7.46,2.92a5.457,5.457,0,0,0-3.2,3.453l-1.9,6.021s-.746,4.178-.245,4.966a1.6,1.6,0,0,0,2.068.544s1.066,2.334,1.694,2.259a5.51,5.51,0,0,0,1.79-.97Z" transform="translate(-281.764 -119.573)" fill="#ffbe9d"/>
      <path id="Path_147" data-name="Path 147" d="M330.194,285.006a3.079,3.079,0,0,1-.554-.234l-1.577-.693a53.455,53.455,0,0,0-5.989-2.131h.117l-4.561,2.078.117-.245a5.392,5.392,0,0,1,.213,1.183,2.3,2.3,0,0,1-.234,1.3,1.322,1.322,0,0,1-.554.458,1.781,1.781,0,0,1-.661.213,2.057,2.057,0,0,1-1.364-.341,1.979,1.979,0,0,1-.288-.234l-.064-.064h.3l-.128.107-.565.373a4.261,4.261,0,0,1-.607.341,1.715,1.715,0,0,1-.352.128.682.682,0,0,1-.458,0,1.492,1.492,0,0,1-.639-.5,5.329,5.329,0,0,1-.405-.6,11.077,11.077,0,0,1-.671-1.268l.33.117a1.875,1.875,0,0,1-1.94-.138,1.534,1.534,0,0,1-.576-.874,4.348,4.348,0,0,1-.2-.97,25.636,25.636,0,0,1,.4-3.783h0c.32-1.066.661-2.131,1.012-3.2.213-.693.426-1.364.639-2.046a10.051,10.051,0,0,1,.767-2,5.179,5.179,0,0,1,1.428-1.609,6.394,6.394,0,0,1,1.854-.927l7.055-2.739h.053a7.3,7.3,0,0,1,1.364,0,2.248,2.248,0,0,1,1.311.49h-.288a2.781,2.781,0,0,1,2.515-.512,3.282,3.282,0,0,1,1.748,1.631l-.085-.085,7.46,3.847,2.036,1.066a3.789,3.789,0,0,1,.693.4,6.126,6.126,0,0,1-.746-.309l-2.067-.98-7.577-3.7H328.4V268.5a2.877,2.877,0,0,0-1.535-1.407,2.377,2.377,0,0,0-2.131.458l-.149.117-.139-.128a1.854,1.854,0,0,0-1.066-.341,6.322,6.322,0,0,0-1.268,0h.053l-7.034,2.782a6.479,6.479,0,0,0-1.737.874,4.668,4.668,0,0,0-1.29,1.449,9.955,9.955,0,0,0-.725,1.918c-.2.671-.426,1.353-.639,2.036-.341,1.066-.693,2.131-1.012,3.2h0a26.553,26.553,0,0,0-.416,3.7,4.446,4.446,0,0,0,.064.863,1.066,1.066,0,0,0,.4.6,1.4,1.4,0,0,0,1.417.085l.234-.1.1.224a11.875,11.875,0,0,0,.629,1.215,2.44,2.44,0,0,0,.767.9.426.426,0,0,0,.2,0,1.577,1.577,0,0,0,.288-.107,5.55,5.55,0,0,0,.554-.3c.181-.117.362-.234.533-.362l.128-.1h.32l.053.053a1.275,1.275,0,0,0,.224.181,1.567,1.567,0,0,0,1.066.277,1.268,1.268,0,0,0,.512-.171.768.768,0,0,0,.394-.3,3.058,3.058,0,0,0,0-2.131v-.171l.16-.075,4.583-2.014h.117a47.158,47.158,0,0,1,5.968,2.3c.682.32,1.194.586,1.535.778a2.235,2.235,0,0,1,.629.2Z" transform="translate(-283.412 -119.584)" fill="#eb996e"/>
      <path id="Path_148" data-name="Path 148" d="M335.274,270.1a9.165,9.165,0,0,1-2.281,1.4,26,26,0,0,1-6.245,2.131l.213-.234a11.359,11.359,0,0,1-.117,1.29,19.587,19.587,0,0,1-2.323,7.1,15.141,15.141,0,0,1-1.236,1.9c-.33.426-.533.639-.554.618s.618-1,1.471-2.686a22.273,22.273,0,0,0,2.132-6.991c.053-.437.085-.863.117-1.258v-.171h.2a30.285,30.285,0,0,0,6.192-1.95A15.9,15.9,0,0,1,335.274,270.1Z" transform="translate(-294.598 -119.354)" fill="#eb996e"/>
      <path id="Path_149" data-name="Path 149" d="M331.783,276.14a12.607,12.607,0,0,1-3.293,9.005c-.128-.085,1.14-1.865,2.036-4.359S331.623,276.119,331.783,276.14Z" transform="translate(-297.245 -118.956)" fill="#eb996e"/>
      <path id="Path_150" data-name="Path 150" d="M330.758,280.772a1.537,1.537,0,0,1-.213.213,4.826,4.826,0,0,1-.682.49,8.355,8.355,0,0,1-2.941,1.183,8.729,8.729,0,0,1-4.8-.426,9.133,9.133,0,0,1-4.583-3.975l.33.107a20.249,20.249,0,0,1-7.652,1.972,6.574,6.574,0,0,1-2.131-.128,1.609,1.609,0,0,1-.97-.65,1.439,1.439,0,0,1-.171-1.14,1.492,1.492,0,0,1,.693-.906l.831-.458c2.2-1.183,4.263-2.131,5.947-2.909s3.2-1.311,4.135-1.673a8.034,8.034,0,0,1,1.567-.49,11.724,11.724,0,0,1-1.492.682c-.97.416-2.355,1.066-4.06,1.812s-3.7,1.8-5.862,3.005l-.821.458a.948.948,0,0,0-.448.6.98.98,0,0,0,.107.757,1.066,1.066,0,0,0,.682.416,6.246,6.246,0,0,0,1.961.107,20.451,20.451,0,0,0,7.46-1.908l.213-.107.117.213a8.718,8.718,0,0,0,4.263,3.815,8.526,8.526,0,0,0,4.583.522,9.3,9.3,0,0,0,2.909-.991C330.417,280.985,330.737,280.74,330.758,280.772Z" transform="translate(-273.212 -119.229)" fill="#eb996e"/>
      <path id="Path_151" data-name="Path 151" d="M337.552,421.7a2.217,2.217,0,0,1,0-1,6.64,6.64,0,0,1,1.012-2.558,3.358,3.358,0,0,1,.608-.735,1.14,1.14,0,0,1,1.13-.256.82.82,0,0,1,.5.512,1.066,1.066,0,0,1,0,.671,6.717,6.717,0,0,1-.533,1.066c-.384.661-.714,1.322-1.215,2.068a1.471,1.471,0,0,1-1.353.607,2.952,2.952,0,0,1-1.3-.575,11.245,11.245,0,0,1-1.908-1.769,10.51,10.51,0,0,1-.757-.981,3.3,3.3,0,0,1-.565-1.13,1.066,1.066,0,0,1,.576-1.226,1.289,1.289,0,0,1,1.215.277,7.62,7.62,0,0,1,1.268,1.439,9.859,9.859,0,0,1,1.258,2.441,2.3,2.3,0,0,1,.213.97,18.715,18.715,0,0,0-1.812-3.2,7.375,7.375,0,0,0-1.226-1.3.778.778,0,0,0-.714-.181.533.533,0,0,0-.234.629,2.633,2.633,0,0,0,.49.906c.224.32.469.629.725.927a11.861,11.861,0,0,0,1.822,1.663,2.451,2.451,0,0,0,1.066.469.853.853,0,0,0,.821-.373c.416-.607.81-1.364,1.2-1.982a8.216,8.216,0,0,0,.5-.917.411.411,0,0,0-.149-.554c-.458-.192-.906.33-1.215.767A9.528,9.528,0,0,0,337.552,421.7Z" transform="translate(-311.274 -109.741)" fill="#263238"/>
      <path id="Path_152" data-name="Path 152" d="M280.15,423.214l12.917,28,20.846-9.634L300.559,406.93Z" transform="translate(-227.858 -110.36)" fill="#ffbe9d"/>
      <path id="Path_153" data-name="Path 153" d="M278.789,447.448l7.556,14.4s-19.279,20-17.51,24.437l45.421-21.773-12.48-28.87Z" transform="translate(-216.02 -108.473)" fill="#358dc0"/>
      <path id="Path_154" data-name="Path 154" d="M282.04,452.061a2.057,2.057,0,0,1,2.291,1.5,1.961,1.961,0,0,1-1.46,2.291,2.131,2.131,0,0,1-2.43-1.6,2.057,2.057,0,0,1,1.79-2.217" transform="translate(-198.618 -107.395)" fill="#e0e0e0"/>
      <g id="Group_113" data-name="Group 113" transform="translate(52.532 352.414)" opacity="0.6">
        <path id="Path_155" data-name="Path 155" d="M314.423,462.953l-1.9-3.623-42.831,22.242s-1.609,1.844-.693,3.2Z" transform="translate(-268.72 -459.33)" fill="#fff"/>
      </g>
      <path id="Path_156" data-name="Path 156" d="M290.706,460.394c.117.224,1.268-.213,2.707,0s2.462.842,2.622.661-.789-1.311-2.526-1.513S290.557,460.213,290.706,460.394Z" transform="translate(-221.234 -106.904)" fill="#263238"/>
      <path id="Path_157" data-name="Path 157" d="M294.992,464.365c.053.234,1.194.149,2.4.725s1.9,1.471,2.131,1.353-.245-1.439-1.758-2.131S294.9,464.141,294.992,464.365Z" transform="translate(-229.335 -106.611)" fill="#263238"/>
      <path id="Path_158" data-name="Path 158" d="M302.767,471.09c.224,0,0-1.3-1.151-2.249s-2.419-.927-2.419-.693.949.576,1.876,1.353S302.543,471.2,302.767,471.09Z" transform="translate(-237.089 -106.345)" fill="#263238"/>
      <path id="Path_159" data-name="Path 159" d="M293.231,455.282c.192.16,1.066-.639,2.355-1.151s2.462-.586,2.483-.831-1.29-.586-2.814,0S293.039,455.133,293.231,455.282Z" transform="translate(-225.923 -107.333)" fill="#263238"/>
      <path id="Path_160" data-name="Path 160" d="M236.787,451.729l-34.05-85.258s.767-14.537,3.442-19.13,83.8-31.375,83.8-31.375,20.664-4.977,34.434,0,24.107,22.188,22.2,31.759-10.711,17.35-10.711,17.35l-58.935,1.066-32.5,11.819,21.9,62.761Z" transform="translate(-178.281 -116.484)" fill="#263238"/>
      <path id="Path_161" data-name="Path 161" d="M311.257,388.915l-.767,30.831,22.956.554,3.3-36.981Z" transform="translate(-283.029 -111.911)" fill="#ffbe9d"/>
      <path id="Path_162" data-name="Path 162" d="M338.207,414.938l.437,16.252s-26.153,9.4-26.494,14.206l50.366.512,1.545-31.418Z" transform="translate(-312.11 -109.863)" fill="#358dc0"/>
      <path id="Path_163" data-name="Path 163" d="M322.484,428.263a2.057,2.057,0,0,1,1.4,2.366,1.982,1.982,0,0,1-2.334,1.407,2.131,2.131,0,0,1-1.46-2.515,2.046,2.046,0,0,1,2.579-1.194" transform="translate(-280.369 -108.961)" fill="#e0e0e0"/>
      <g id="Group_114" data-name="Group 114" transform="translate(0 331.995)" opacity="0.6">
        <path id="Path_164" data-name="Path 164" d="M364,444.252l-.1-4.082-48.256,1.066s-2.259.948-2.014,2.536Z" transform="translate(-313.62 -440.17)" fill="#fff"/>
      </g>
      <path id="Path_165" data-name="Path 165" d="M332.5,429.923c0,.245,1.236.373,2.43,1.172s1.844,1.844,2.068,1.748-.128-1.513-1.6-2.462S332.45,429.7,332.5,429.923Z" transform="translate(-306.801 -108.863)" fill="#263238"/>
      <path id="Path_166" data-name="Path 166" d="M338.663,431.916c-.064.234,1,.671,1.822,1.716s1.066,2.131,1.3,2.131.416-1.4-.629-2.686S338.674,431.682,338.663,431.916Z" transform="translate(-318.268 -108.724)" fill="#263238"/>
      <path id="Path_167" data-name="Path 167" d="M346.228,438.073c.224.064.586-1.162,0-2.515s-1.769-1.908-1.876-1.705.6.938,1.066,2.057S345.994,438.051,346.228,438.073Z" transform="translate(-328.902 -108.593)" fill="#263238"/>
      <path id="Path_168" data-name="Path 168" d="M331.408,424.4c.1.224,1.236-.107,2.622,0s2.473.554,2.6.352-.906-1.066-2.547-1.2S331.291,424.2,331.408,424.4Z" transform="translate(-305.205 -109.268)" fill="#263238"/>
      <path id="Path_169" data-name="Path 169" d="M274.359,308.285s-13.759-1.066-15.283,13.854-3.016,84.533-3.016,84.533l32.142,2.686,4.977-71.169,51.272-21.815S283.545,306.377,274.359,308.285Z" transform="translate(-232.723 -116.859)" fill="#263238"/>
      <path id="Path_170" data-name="Path 170" d="M204.728,289.38s-8.345,23.446-6.757,26.014,23.062,13.332,23.062,13.332l53.713,20.632s5.51-8.771,5.51-22.252-18.682-37.727-18.682-37.727Z" transform="translate(-106.407 -118.086)" fill="#263238"/>
      <path id="Path_171" data-name="Path 171" d="M344.6,314.74a2.034,2.034,0,0,1-.245.139l-.767.352-2.973,1.321-11.169,4.86L290.894,338l.181-.245c-.49,7.034-1.012,14.632-1.567,22.487-1.3,18.362-2.5,35.286-3.464,48.682v.245H285.8l-23.446-2.057-6.394-.6-1.684-.181a3.463,3.463,0,0,1-.576-.085h.576l1.694.107,6.458.48,23.446,1.844-.256.224c.917-13.4,2.078-30.331,3.336-48.693.554-7.854,1.066-15.453,1.588-22.476v-.181l.16-.064,38.633-16.4,11.233-4.711,3.005-1.236.789-.309Z" transform="translate(-230.353 -116.419)" fill="#455a64"/>
      <path id="Path_172" data-name="Path 172" d="M252.1,317.324a9.084,9.084,0,0,1-1.513-.416l-4.039-1.3a88.458,88.458,0,0,0-13.535-3.421,39.86,39.86,0,0,0-13.854.171,56.394,56.394,0,0,0-5.552,1.609,6.662,6.662,0,0,1,1.4-.7,23.976,23.976,0,0,1,4.06-1.311,37.174,37.174,0,0,1,14.036-.362,75.535,75.535,0,0,1,13.577,3.666c1.695.6,3.059,1.119,3.986,1.481A7.684,7.684,0,0,1,252.1,317.324Z" transform="translate(-95.136 -116.659)" fill="#455a64"/>
      <path id="Path_173" data-name="Path 173" d="M250.879,305.388a38.146,38.146,0,0,0-4.689,0c-1.449.1-3.2.32-5.094.544s-4.007.48-6.181.9a28.775,28.775,0,0,0-10.529,3.9,33.866,33.866,0,0,0-3.645,2.941,4.262,4.262,0,0,1,.778-1.012,16.06,16.06,0,0,1,2.632-2.281,26.92,26.92,0,0,1,10.657-4.135c2.206-.426,4.327-.661,6.245-.863s3.645-.373,5.115-.416a20.107,20.107,0,0,1,3.485.149,4.189,4.189,0,0,1,1.226.277Z" transform="translate(-101.509 -117.063)" fill="#455a64"/>
      <path id="Path_174" data-name="Path 174" d="M234.354,128.906c6.181-1.066,11.616,1.322,16.828,4.806a30.991,30.991,0,0,1,11.4,14.59,30.682,30.682,0,0,1,1.13,19.428,24.512,24.512,0,0,1-12.064,15.005c-8.036,4.082-18.32,2.664-25.513-2.771s-11.307-14.43-11.648-23.446a29.84,29.84,0,0,1,4.711-17.712,22.689,22.689,0,0,1,15.155-9.9" transform="translate(-108.707 -128.65)" fill="#263238"/>
      <path id="Path_175" data-name="Path 175" d="M267.569,149.9c-.906-2.366-.554-5.009-.906-7.513-.789-5.52-5.233-9.943-10.38-12.1-4.785-2-10.657-1.567-16.391.3A22.029,22.029,0,0,0,229.6,137.3a17.307,17.307,0,0,0-3.2,15.56l28.231-4.1c2.643,2.185,5.329,4.4,8.526,5.627a5.851,5.851,0,0,0,2.941.469,2.622,2.622,0,0,0,2.2-1.812C268.6,151.979,267.963,150.924,267.569,149.9Z" transform="translate(-124.349 -128.628)" fill="#263238"/>
      <path id="Path_176" data-name="Path 176" d="M238.855,137.8l24.65,5.222a4.615,4.615,0,0,1,4.263,4.508l-.3,53.35A16.572,16.572,0,0,1,264,210.931l-2.355,3.037c-5.329,6.917-16.21,6.213-20.3-1.513a5.967,5.967,0,0,1-.576-1.4c-.075-.48-.2-.8-.224-1.2l-.48-5.2c-.234-4.753-.266-9.592-.266-9.528s-10.092-1.279-12.671-14.281c-1.29-6.458-1.375-17.137-1.162-25.876C226.13,147.105,230.958,137.279,238.855,137.8Z" transform="translate(-123.866 -128.05)" fill="#ffbe9d"/>
      <path id="Path_177" data-name="Path 177" d="M258.07,164.237a1.684,1.684,0,0,0,1.684,1.631,1.609,1.609,0,0,0,1.673-1.577,1.673,1.673,0,0,0-1.684-1.631,1.6,1.6,0,0,0-1.673,1.577Z" transform="translate(-151.841 -126.414)" fill="#263238"/>
      <path id="Path_178" data-name="Path 178" d="M256.53,159.117c.213.213,1.449-.778,3.25-.842s3.2.789,3.357.565-.139-.49-.735-.9a4.636,4.636,0,0,0-2.686-.714,4.391,4.391,0,0,0-2.579.949C256.594,158.658,256.423,159.117,256.53,159.117Z" transform="translate(-151.921 -126.772)" fill="#263238"/>
      <path id="Path_179" data-name="Path 179" d="M242.43,163.427a1.684,1.684,0,0,0,1.684,1.631,1.609,1.609,0,0,0,1.663-1.577,1.673,1.673,0,0,0-1.684-1.631,1.6,1.6,0,0,0-1.663,1.577Z" transform="translate(-119.523 -126.468)" fill="#263238"/>
      <path id="Path_180" data-name="Path 180" d="M240.454,158.737c.213.213,1.449-.778,3.261-.842s3.2.789,3.346.554-.139-.49-.725-.885a4.615,4.615,0,0,0-2.7-.714,4.391,4.391,0,0,0-2.579.949C240.518,158.246,240.347,158.641,240.454,158.737Z" transform="translate(-118.708 -126.797)" fill="#263238"/>
      <path id="Path_181" data-name="Path 181" d="M256.12,172.429a12.354,12.354,0,0,0-2.952-.416c-.458,0-.906-.107-.991-.416a2.291,2.291,0,0,1,.256-1.375c.384-1.13.8-2.323,1.226-3.56,1.694-5.073,2.909-9.24,2.707-9.3s-1.748,3.986-3.453,9.059c-.4,1.247-.8,2.441-1.162,3.581a2.622,2.622,0,0,0-.171,1.822,1.13,1.13,0,0,0,.778.639,3.2,3.2,0,0,0,.789.085,11.723,11.723,0,0,0,2.973-.117Z" transform="translate(-139.788 -126.763)" fill="#263238"/>
      <path id="Path_182" data-name="Path 182" d="M235.87,191.919A33.272,33.272,0,0,0,253.2,186.59s-4.05,9.229-17.19,8.526Z" transform="translate(-119.954 -124.842)" fill="#eb996e"/>
      <path id="Path_183" data-name="Path 183" d="M245.845,175.642a3.2,3.2,0,0,1,2.877-1.322,2.973,2.973,0,0,1,2.131,1.066,1.876,1.876,0,0,1,.224,2.131,2.132,2.132,0,0,1-2.345.682,6.778,6.778,0,0,1-2.355-1.279,1.918,1.918,0,0,1-.533-.522.6.6,0,0,1,0-.671" transform="translate(-128.586 -125.649)" fill="#eb996e"/>
      <path id="Path_184" data-name="Path 184" d="M251.958,172.48c-.3,0-.224,1.95-1.844,3.41s-3.719,1.322-3.719,1.6c0,.117.48.362,1.353.352a4.881,4.881,0,0,0,3.112-1.226,4.263,4.263,0,0,0,1.428-2.856C252.331,172.938,252.086,172.459,251.958,172.48Z" transform="translate(-130.266 -125.769)" fill="#263238"/>
      <path id="Path_185" data-name="Path 185" d="M238.822,153.692c.192.48,1.982.181,4.114.352s3.858.682,4.124.234c.117-.224-.2-.671-.906-1.119a7.183,7.183,0,0,0-6.277-.448C239.11,153.053,238.726,153.458,238.822,153.692Z" transform="translate(-116.97 -127.102)" fill="#263238"/>
      <path id="Path_186" data-name="Path 186" d="M256.834,151.733c.341.394,1.567-.075,3.059-.149s2.771.16,3.048-.277c.117-.213-.1-.618-.671-.98a4.2,4.2,0,0,0-2.5-.575,4.263,4.263,0,0,0-2.409.917C256.845,151.083,256.685,151.541,256.834,151.733Z" transform="translate(-152.012 -127.264)" fill="#263238"/>
      <path id="Path_187" data-name="Path 187" d="M254.866,146.054c-2.558-7.46-13.716-17.734-21.613-17.052l-12.469,7.822a12.171,12.171,0,0,0,8.451,9.165c2.249.629,4.934.767,6.309,2.664s.65,4.8,1.961,6.8c1.8,2.76,6.576,2.536,7.95,5.542.6,1.311.33,2.9.959,4.21.831,1.726,5.329,3.858,7.119,3.2s1.769-3.73,2.334-5.329a8.611,8.611,0,0,0,.149-5.808C255.153,153.631,256.091,149.666,254.866,146.054Z" transform="translate(-107.127 -128.629)" fill="#263238"/>
      <path id="Path_188" data-name="Path 188" d="M219.718,167.847c0-.97,1-3.3,1.95-3.5,2.558-.5,7.194-.469,7.46,6.043.4,8.92-8.632,7.46-8.654,7.236S219.835,171.215,219.718,167.847Z" transform="translate(-78.682 -126.316)" fill="#ffbe9d"/>
      <path id="Path_189" data-name="Path 189" d="M221.818,173.948a2.539,2.539,0,0,0,.426.213,1.567,1.567,0,0,0,1.162,0c.927-.384,1.652-1.918,1.62-3.528a5.062,5.062,0,0,0-.533-2.206,1.8,1.8,0,0,0-1.226-1.14.8.8,0,0,0-.9.469c-.107.256,0,.437-.085.448s-.2-.139-.149-.512a1.066,1.066,0,0,1,.33-.575,1.162,1.162,0,0,1,.842-.266,2.2,2.2,0,0,1,1.684,1.311,5.254,5.254,0,0,1,.661,2.462c0,1.8-.821,3.517-2.131,3.954a1.684,1.684,0,0,1-1.428-.171C221.84,174.161,221.786,173.969,221.818,173.948Z" transform="translate(-77.426 -126.139)" fill="#eb996e"/>
      <path id="Path_190" data-name="Path 190" d="M204.123,143.194h0c0-2.782,3.453-4.6,6.171-5.243a11.648,11.648,0,0,1,8.036,1.535c1.439.789,2.877,1.9,3.2,3.506s-1.226,3.506-2.75,2.931a5.329,5.329,0,1,1-5.116,9.037,11.787,11.787,0,0,0,4.636,6.33,13.268,13.268,0,0,1-14.174-18.117Z" transform="translate(-54.477 -128.049)" fill="#263238"/>
      <path id="Path_191" data-name="Path 191" d="M220.008,157.205a8.046,8.046,0,0,0,.33-2.675,19.577,19.577,0,0,0-4.1-12.181,8.206,8.206,0,0,0-1.876-1.929c-.171.117,2.824,3.08,4.391,7.865S219.805,157.205,220.008,157.205Z" transform="translate(-64.169 -127.876)" fill="#358dc0"/>
      <path id="Path_192" data-name="Path 192" d="M269.737,133.88c-.821,3.634-6.341,8.291-8.76,11.116-4.625,5.393-5.531,7.183-5.488,19.183-2.131-4.167-3.847-8.249-3.677-12.938a19.439,19.439,0,0,1,5.158-12.789,15.155,15.155,0,0,1,12.789-4.625" transform="translate(-153.491 -128.316)" fill="#263238"/>
      <path id="Path_193" data-name="Path 193" d="M192.46,228.934s9.592-15.986,12.277-19.258A21.507,21.507,0,0,1,212.6,203.9a16.54,16.54,0,0,1,3.741-1.066l13.854-3.059s0,9.421,9.9,10.007S258.3,196.6,258.3,196.6s15.986,2.472,19.79,4.433,9.815,4.465,13.119,21.005l2.323,16.178-27.56,2.5-2.632,40.9-13.652,9.506s-37.844,9.837-40.263,10.487-3.2-60.9-3.2-60.9S196.488,234.444,192.46,228.934Z" transform="translate(-114.025 -124.184)" fill="#358dc0"/>
      <path id="Path_194" data-name="Path 194" d="M274.916,220.49a5.731,5.731,0,0,0-.533,1.172c-.309.778-.714,1.908-1.162,3.336a64.85,64.85,0,0,0-2.814,22.988c.1,1.481.2,2.686.33,3.506a5.978,5.978,0,0,0,.224,1.268,5.438,5.438,0,0,0,0-1.29c-.053-.831-.117-2.025-.149-3.506a79.127,79.127,0,0,1,.533-11.542,80.142,80.142,0,0,1,2.259-11.318c.394-1.428.746-2.579.991-3.368a6.257,6.257,0,0,0,.32-1.247Z" transform="translate(-178.364 -122.613)" fill="#263238"/>
      <path id="Path_195" data-name="Path 195" d="M199.023,286.462l51.826-11.275,2.4-37.055L276.288,236s-.853,25.322-1.737,32.856c-1.268,10.828-7.673,25.577-11.414,28.551s-66.437,1.62-66.437,1.62Z" transform="translate(-101.299 -121.594)" fill="#ffbe9d"/>
      <path id="Path_196" data-name="Path 196" d="M274.159,290.8a2,2,0,0,0,1.929,1.13,2.215,2.215,0,0,0,.5-.107c1.151-.362,1.066-2.7,1.066-2.7l5.488-.9s7.14,4.6,9.687,7.652,9.016.586,9.016.586l2.249-11.723L293.981,275.6s.629.554-.075-1.162-3.869-1.066-3.869-1.066c-.5-.842-2.568-1.151-2.568-1.151l-8.867,1.066a6.075,6.075,0,0,0-4.444,2.792l-3.751,5.936s-1.982,4.263-1.663,5.275a1.78,1.78,0,0,0,2.068,1.162s.437,2.814,1.172,2.909a6.1,6.1,0,0,0,2.2-.533Z" transform="translate(-205.849 -119.214)" fill="#ffbe9d"/>
      <path id="Path_197" data-name="Path 197" d="M296.139,281.78c0,.1-1.194,0-3.08.075a26.238,26.238,0,0,0-7.236,1.353,25.966,25.966,0,0,0-3.741,1.588c-1.066.607-2.185,1.066-2.526,1.886a1.066,1.066,0,0,0,.1,1.066,1.449,1.449,0,0,0,.671.565,2.388,2.388,0,0,0,.778.117.927.927,0,0,1-.853.085,1.63,1.63,0,0,1-.853-.586,1.417,1.417,0,0,1-.213-1.385,2.771,2.771,0,0,1,1.066-1.247c.48-.32.98-.639,1.545-.949a23.741,23.741,0,0,1,3.8-1.673,23.191,23.191,0,0,1,7.407-1.215A10.658,10.658,0,0,1,296.139,281.78Z" transform="translate(-208.955 -118.607)" fill="#eb996e"/>
      <path id="Path_198" data-name="Path 198" d="M294.592,287.093c0,.171-3.623,0-8.057.277s-8,.8-8.025.639a8.771,8.771,0,0,1,2.3-.565,50.636,50.636,0,0,1,5.691-.639,51.263,51.263,0,0,1,5.734,0,8.632,8.632,0,0,1,2.355.288Z" transform="translate(-206.789 -118.26)" fill="#eb996e"/>
      <path id="Path_199" data-name="Path 199" d="M281.938,290.265a3.558,3.558,0,0,1-.117-.938,20.767,20.767,0,0,1,0-2.6,10.659,10.659,0,0,1,.245-1.8A5.329,5.329,0,0,1,282.94,283a12.065,12.065,0,0,1,3.314-3.4,16.945,16.945,0,0,1,4.263-2.131,15.092,15.092,0,0,1,3.837-.576h2.59a2.878,2.878,0,0,1,.949.1,32.114,32.114,0,0,1-3.517.288,16.4,16.4,0,0,0-3.7.682,17.3,17.3,0,0,0-4.071,2.131,12.214,12.214,0,0,0-3.2,3.2,6.82,6.82,0,0,0-1.151,3.464C282,288.912,282.055,290.276,281.938,290.265Z" transform="translate(-213.574 -118.907)" fill="#eb996e"/>
      <path id="Path_200" data-name="Path 200" d="M300.736,274.358c0,.085-1.332.117-3.453.362s-5.329.458-7.162,3.272a30.021,30.021,0,0,0-4.476,6.959,18.99,18.99,0,0,0-.842,3.314,2.6,2.6,0,0,1-.053-.938,9.069,9.069,0,0,1,.522-2.515,26.131,26.131,0,0,1,4.412-7.172A9.46,9.46,0,0,1,291.4,275.9a6.011,6.011,0,0,1,2.131-.98,18.9,18.9,0,0,1,3.762-.6,13.128,13.128,0,0,1,3.442.032Z" transform="translate(-219.563 -119.082)" fill="#eb996e"/>
      <path id="Path_201" data-name="Path 201" d="M291.561,294.011a2.772,2.772,0,0,1-.533-.4c-.384-.3-.874-.7-1.481-1.194a61.807,61.807,0,0,0-5.83-4.007h.128l-5.488.938.192-.234a6.391,6.391,0,0,1-.107,1.343,2.558,2.558,0,0,1-.618,1.321,1.439,1.439,0,0,1-.735.33,1.863,1.863,0,0,1-.767,0,2.227,2.227,0,0,1-1.364-.757,1.812,1.812,0,0,1-.245-.32l-.053-.085v-.053h0l.32.117h0l-.171.064-.7.256c-.245.075-.49.139-.757.192a2.489,2.489,0,0,1-.4,0,.992.992,0,0,1-.512-.1,1.663,1.663,0,0,1-.533-.735,5.335,5.335,0,0,1-.277-.746,12.664,12.664,0,0,1-.352-1.556l.32.224a2.131,2.131,0,0,1-2.046-.7,1.641,1.641,0,0,1-.373-1.066,4.264,4.264,0,0,1,.192-1.066,29.283,29.283,0,0,1,1.513-3.954h0c.629-1.012,1.311-2.078,1.993-3.2l1.268-2a10.935,10.935,0,0,1,1.4-1.95,5.882,5.882,0,0,1,1.982-1.321,7.917,7.917,0,0,1,2.27-.469l8.355-.938h.064a8.528,8.528,0,0,1,1.471.384,2.473,2.473,0,0,1,1.268.9l-.309-.1a3.069,3.069,0,0,1,2.856.16,3.591,3.591,0,0,1,1.407,2.249l-.075-.117,6.97,6.266c.789.714,1.407,1.29,1.876,1.726a4.415,4.415,0,0,1,.629.629,4.442,4.442,0,0,1-.7-.544l-1.95-1.641-7.1-6.128h0v-.075a3.2,3.2,0,0,0-1.236-1.95,2.622,2.622,0,0,0-2.409-.1l-.192.075-.117-.171a2.131,2.131,0,0,0-1.066-.682,7.982,7.982,0,0,0-1.364-.341h.064l-8.345.98a7.3,7.3,0,0,0-2.131.448,5.221,5.221,0,0,0-1.8,1.194,10.657,10.657,0,0,0-1.311,1.854l-1.268,2-2,3.2h0a30.912,30.912,0,0,0-1.492,3.858,4.526,4.526,0,0,0-.181.938,1.066,1.066,0,0,0,.266.757,1.534,1.534,0,0,0,1.5.5h.277v.266a13.763,13.763,0,0,0,.33,1.492,2.611,2.611,0,0,0,.576,1.183.682.682,0,0,0,.213,0,1.836,1.836,0,0,0,.341,0,5.949,5.949,0,0,0,.693-.171c.224-.064.448-.149.671-.234l.16-.064h0l.32.117h0v.064a1.471,1.471,0,0,0,.181.266,1.8,1.8,0,0,0,1.066.6,1.673,1.673,0,0,0,.607,0,.906.906,0,0,0,.5-.213,3.41,3.41,0,0,0,.6-2.291v-.2h.181l5.5-.863h.128a50.974,50.974,0,0,1,5.766,4.178c.629.533,1.066.97,1.428,1.268a3.477,3.477,0,0,1,.565.405Z" transform="translate(-206.54 -119.232)" fill="#eb996e"/>
      <path id="Path_202" data-name="Path 202" d="M244.175,257.7l68.26.554c2.217,0,4.327,1.066,4.657,3.2l7.46,49.759h35.169a2.046,2.046,0,0,1,0,4.092H247.436l-7.673-52.508a4.476,4.476,0,0,1,4.412-5.094Z" transform="translate(-232.625 -120.168)" fill="#e0e0e0"/>
      <path id="Path_203" data-name="Path 203" d="M243.93,257.7a3.432,3.432,0,0,0-1.066.1,4.508,4.508,0,0,0-2.611,1.737,4.38,4.38,0,0,0-.842,2.131,12.525,12.525,0,0,0,.245,2.814l.991,6.927c1.5,10.423,3.666,25.46,6.33,43.94v.181h.213l108.949.064h2.952a2.813,2.813,0,0,0,1.556-.288,2.291,2.291,0,0,0,1.066-1.236,2.323,2.323,0,0,0-1.066-2.835,2.76,2.76,0,0,0-1.535-.288H324.36l.266.224-7.46-49.354a3.879,3.879,0,0,0-1.258-2.6,5.211,5.211,0,0,0-2.611-1.151,24.123,24.123,0,0,0-2.75-.1h-2.686l-10.274-.064-18.267-.117-26-.128H246.36l6.959.107,26,.288,18.267.181,10.274.1h2.675a24.738,24.738,0,0,1,2.686.1,4.678,4.678,0,0,1,2.387,1.066,3.4,3.4,0,0,1,1.066,2.334c2.227,14.92,4.7,31.535,7.364,49.354v.234h35.052a2.238,2.238,0,0,1,1.268.213,1.79,1.79,0,0,1,.81,2.131,1.822,1.822,0,0,1-.8.938,2.28,2.28,0,0,1-1.289.234h-2.931L247.2,315l.213.181L240.9,271.248c-.394-2.59-.735-4.9-1.066-6.917a13.152,13.152,0,0,1-.277-2.76,4.369,4.369,0,0,1,.789-2.131,4.476,4.476,0,0,1,2.526-1.737A6.562,6.562,0,0,1,243.93,257.7Z" transform="translate(-232.38 -120.17)" fill="#263238"/>
      <path id="Path_204" data-name="Path 204" d="M319.836,284.423a4.263,4.263,0,1,1-4.263-4.263A4.263,4.263,0,0,1,319.836,284.423Z" transform="translate(-266.989 -118.692)" fill="#fff"/>
      <path id="Path_205" data-name="Path 205" d="M286.587,314.863c-.1,0-2.27-12.65-4.849-28.295s-4.6-28.338-4.508-28.348,2.27,12.65,4.849,28.295S286.683,314.853,286.587,314.863Z" transform="translate(-197.421 -120.134)" fill="#263238"/>
    </g>
  </g>
</svg>
