<svg xmlns="http://www.w3.org/2000/svg" width="17.175" height="18.283" viewBox="0 0 17.175 18.283">
  <path id="logout-svgrepo-com" d="M12.506,10.59a.831.831,0,0,0,1.662,0Zm1.662-6.509a.831.831,0,0,0-1.662,0ZM10.358,7.03a.831.831,0,1,0-.689-1.513ZM5.581,13.123l-.831,0v.014ZM13.337,20.7l.01-.831h-.019Zm7.756-7.579.831.01v-.014ZM17.006,5.518a.831.831,0,1,0-.689,1.513ZM14.168,10.59V4.081H12.506V10.59Zm-4.5-5.072a8.4,8.4,0,0,0-4.919,7.6l1.662.009a6.738,6.738,0,0,1,3.946-6.1ZM4.75,13.132a8.5,8.5,0,0,0,8.6,8.4l-.019-1.662a6.838,6.838,0,0,1-6.916-6.758Zm8.578,8.4a8.5,8.5,0,0,0,8.6-8.4l-1.662-.019a6.838,6.838,0,0,1-6.916,6.758Zm8.6-8.414a8.4,8.4,0,0,0-4.919-7.6L16.317,7.03a6.738,6.738,0,0,1,3.946,6.1Z" transform="translate(-4.75 -3.25)"/>
</svg>
