<svg xmlns="http://www.w3.org/2000/svg" width="66.987" height="66.535" viewBox="0 0 66.987 66.535">
  <g id="tag-price-label-svgrepo-com" transform="translate(-15.366 -15.7)" opacity="0.48">
    <path id="Path_32" data-name="Path 32" d="M49.559,26.888,30.711,18.7a7.181,7.181,0,0,0-9.762,4.656L15.542,43.183a5.2,5.2,0,0,0,.3,3.529l16.22,33.942a3.869,3.869,0,0,0,5.181,1.8L66.53,68.414a3.869,3.869,0,0,0,1.8-5.181L52.112,29.291A4.984,4.984,0,0,0,49.559,26.888ZM32.588,35a4.333,4.333,0,1,1,2.028-5.782A4.3,4.3,0,0,1,32.588,35Z" transform="translate(0 -0.6)" fill="#9fd8df"/>
    <g id="Group_104" data-name="Group 104" transform="translate(15.366 20.431)" opacity="0.1">
      <path id="Path_33" data-name="Path 33" d="M67.506,67.507,38.22,81.549a3.959,3.959,0,0,1-5.181-1.8L16.818,45.8a5.2,5.2,0,0,1-.3-3.529l5.407-19.825c.075-.15.075-.3.15-.451a6.116,6.116,0,0,0-1.126,2.328L15.542,44.153a5.2,5.2,0,0,0,.3,3.529l16.22,33.942a3.869,3.869,0,0,0,5.181,1.8L66.53,69.384a3.821,3.821,0,0,0,2.1-2.7A4.375,4.375,0,0,1,67.506,67.507Z" transform="translate(-15.366 -22)"/>
    </g>
    <path id="Path_34" data-name="Path 34" d="M44.267,15.85,24.292,20.656a7.156,7.156,0,0,0-4.956,9.537L26.92,49.342a5.3,5.3,0,0,0,2.328,2.628L62.664,69.317a3.856,3.856,0,0,0,5.181-1.652L82.789,38.829a3.856,3.856,0,0,0-1.652-5.181L47.8,16.3A4.84,4.84,0,0,0,44.267,15.85ZM35.631,32.6a4.349,4.349,0,1,1-1.877-5.857A4.371,4.371,0,0,1,35.631,32.6Z" transform="translate(-0.865)" fill="#ff7171"/>
    <path id="Path_35" data-name="Path 35" d="M37.305,30.244A4.371,4.371,0,0,1,39.183,36.1,4.261,4.261,0,0,1,36.4,38.279a4.083,4.083,0,0,0,1.652-1.727,4.307,4.307,0,0,0-1.877-5.857,4.44,4.44,0,0,0-3.079-.375A4.612,4.612,0,0,1,37.305,30.244Z" transform="translate(-4.417 -3.505)" opacity="0.1"/>
    <g id="Group_105" data-name="Group 105" transform="translate(17.916 25.012)" opacity="0.1">
      <path id="Path_36" data-name="Path 36" d="M68.352,68.35A3.856,3.856,0,0,1,63.171,70L29.754,52.655a4.714,4.714,0,0,1-2.328-2.628l-7.66-19.074a7.947,7.947,0,0,1-.526-2.854,7.451,7.451,0,0,0,0,5.257l7.584,19.149a5.3,5.3,0,0,0,2.328,2.628L62.57,72.48a3.856,3.856,0,0,0,5.181-1.652L82.695,41.992a3.375,3.375,0,0,0,.375-2.253Z" transform="translate(-18.762 -28.1)"/>
    </g>
    <path id="Path_37" data-name="Path 37" d="M29.213,57.026,62.63,74.373a2.135,2.135,0,0,0,.9.3l-1.427.676a3.51,3.51,0,0,1-1.427-.451L27.336,57.627A5,5,0,0,1,25.008,55L18.7,39.154,19.6,36l7.284,18.4A5,5,0,0,0,29.213,57.026Z" transform="translate(-0.83 -5.056)" opacity="0.1"/>
  </g>
</svg>
