<svg xmlns="http://www.w3.org/2000/svg" width="84" height="84" viewBox="0 0 84 84">
  <g id="Group_699" data-name="Group 699" transform="translate(-1012 -308)">
    <circle id="Ellipse_2" data-name="Ellipse 2" cx="42" cy="42" r="42" transform="translate(1012 308)" fill="#00a1ff" opacity="0.13"/>
    <g id="upload-svgrepo-com" transform="translate(942.24 272.298)">
      <path id="Path_3399" data-name="Path 3399" d="M137.347,783.7h-1.7a1,1,0,1,0,0,1.994h1.7a1,1,0,1,0,0-1.994Zm-5.111,0H114.9a1,1,0,1,0,0,1.994h17.339a1,1,0,1,0,0-1.994Z" transform="translate(-15.372 -696.945)" fill="#3c9"/>
      <path id="Path_3400" data-name="Path 3400" d="M208.136,856.591H188.046a1.445,1.445,0,0,1,0-2.891h20.091a1.445,1.445,0,0,1,0,2.891Z" transform="translate(-85.656 -764.619)" fill="#ffb89a"/>
      <path id="Path_3401" data-name="Path 3401" d="M121.055,409.6h-4.19a1,1,0,0,0,0,1.994h4.194a2.476,2.476,0,0,1,2.472,2.472v9.348a2.476,2.476,0,0,1-2.472,2.472H102.466a2.476,2.476,0,0,1-2.472-2.472v-9.348a2.476,2.476,0,0,1,2.472-2.472h4.629a1,1,0,0,0,0-1.994h-4.629A4.472,4.472,0,0,0,98,414.066v9.348a4.471,4.471,0,0,0,4.466,4.466h18.589a4.471,4.471,0,0,0,4.466-4.466v-9.348A4.471,4.471,0,0,0,121.055,409.6Z" transform="translate(0 -335.276)" fill="#002361"/>
      <path id="Path_3402" data-name="Path 3402" d="M312.826,69.755l3.948-3.948V84.114a1,1,0,0,0,1.994,0V65.807l3.948,3.948a1,1,0,1,0,1.409-1.409l-4.975-4.974a1.949,1.949,0,0,0-2.758,0l-4.974,4.974a1,1,0,0,0,1.409,1.409Z" transform="translate(-206.043 0)" fill="#002361"/>
    </g>
  </g>
</svg>
