<svg xmlns="http://www.w3.org/2000/svg" width="17.199" height="14.553" viewBox="0 0 17.199 14.553">
  <path id="Path_1336" data-name="Path 1336" d="M18.92,6.75H17.267v.992a.332.332,0,0,1-.331.331h-.662a.332.332,0,0,1-.331-.331V6.75H8.006v.992a.332.332,0,0,1-.331.331H7.013a.332.332,0,0,1-.331-.331V6.75H5.029A1.659,1.659,0,0,0,3.375,8.4V19.649A1.659,1.659,0,0,0,5.029,21.3H18.92a1.659,1.659,0,0,0,1.654-1.654V8.4A1.659,1.659,0,0,0,18.92,6.75Zm.331,12.4a.829.829,0,0,1-.827.827H5.525a.829.829,0,0,1-.827-.827V11.711a.332.332,0,0,1,.331-.331H18.92a.332.332,0,0,1,.331.331Z" transform="translate(-3.375 -6.75)"/>
</svg>
