<svg id="Group_474" data-name="Group 474" xmlns="http://www.w3.org/2000/svg" xmlns:xlink="http://www.w3.org/1999/xlink" width="99.249" height="85.119" viewBox="0 0 99.249 85.119">
  <defs>
    <clipPath id="clip-path">
      <rect id="Rectangle_469" data-name="Rectangle 469" width="99.249" height="85.119" fill="none"/>
    </clipPath>
  </defs>
  <g id="Group_473" data-name="Group 473" clip-path="url(#clip-path)">
    <path id="Path_1408" data-name="Path 1408" d="M31.19,55.695,72.2,4.992,120.93,47.653" transform="translate(-28.177 -4.51)" fill="none" stroke="#c9c9c9" stroke-linecap="round" stroke-width="6.947"/>
    <path id="Path_1409" data-name="Path 1409" d="M440.288,2.353A2.014,2.014,0,1,1,438.275.339a2.014,2.014,0,0,1,2.014,2.014" transform="translate(-394.109 -0.306)" fill="#292929"/>
    <path id="Path_1399" data-name="Path 1399" d="M97.874,456.688l-93.259,8.37a1.51,1.51,0,0,1-1.639-1.369L.007,430.6a1.51,1.51,0,0,1,1.369-1.639l93.259-8.37a1.51,1.51,0,0,1,1.639,1.369l2.97,33.092a1.51,1.51,0,0,1-1.369,1.639" transform="translate(0 -379.945)" fill="#f2456a"/>
    <path id="Path_1400" data-name="Path 1400" d="M110.244,604.535q.432,4.818,4.478,4.455a6.7,6.7,0,0,0,1.363-.26,13.944,13.944,0,0,0,1.539-.6,12.309,12.309,0,0,1,1.3,3.274q-.637.309-1.19.519a9.187,9.187,0,0,1-1.069.337q-.516.126-1.024.206t-1.054.129a8.641,8.641,0,0,1-3.454-.32,6.812,6.812,0,0,1-2.61-1.518,7.382,7.382,0,0,1-1.727-2.525,10.91,10.91,0,0,1-.8-3.319,10.579,10.579,0,0,1,.22-3.422,7.9,7.9,0,0,1,1.27-2.829,6.829,6.829,0,0,1,2.284-1.992,8.179,8.179,0,0,1,3.238-.932,12.949,12.949,0,0,1,2.082-.027,10.721,10.721,0,0,1,2.239.44,6.667,6.667,0,0,1-.179,1.837,13.5,13.5,0,0,1-.476,1.589q-.469-.118-.854-.2t-.732-.118q-.347-.037-.691-.041t-.73.031a3.489,3.489,0,0,0-2.741,1.495,5.764,5.764,0,0,0-.68,3.784" transform="translate(-95.709 -538.131)" fill="#fff"/>
    <path id="Path_1401" data-name="Path 1401" d="M246.581,589.8q.606-.146,1.1-.236t.882-.125q.409-.037.924-.037t1.114.037l1.142,12.727L257,601.7a8.867,8.867,0,0,1,.236.975q.072.418.1.758.035.387.038.81a9.707,9.707,0,0,1-.057,1.025l-9.272.832Z" transform="translate(-222.756 -532.455)" fill="#fff"/>
    <path id="Path_1402" data-name="Path 1402" d="M355.232,583.231a12.953,12.953,0,0,1,.117-3.413,7.638,7.638,0,0,1,1.054-2.809,6.1,6.1,0,0,1,2.067-1.984,7.408,7.408,0,0,1,3.158-.936,7.333,7.333,0,0,1,3.262.36,6.125,6.125,0,0,1,2.376,1.585,7.652,7.652,0,0,1,1.537,2.577,12.961,12.961,0,0,1,.723,3.337,12.705,12.705,0,0,1-.12,3.39,7.547,7.547,0,0,1-1.057,2.775,5.959,5.959,0,0,1-2.059,1.949,8.592,8.592,0,0,1-6.42.576,5.932,5.932,0,0,1-2.384-1.55,7.534,7.534,0,0,1-1.534-2.542,12.7,12.7,0,0,1-.721-3.314m10.067-.9q-.445-4.954-3.331-4.7-2.954.265-2.51,5.22a7.5,7.5,0,0,0,1.047,3.629,2.4,2.4,0,0,0,2.325,1.017q2.909-.261,2.468-5.17" transform="translate(-320.855 -518.584)" fill="#fff"/>
    <path id="Path_1403" data-name="Path 1403" d="M528.184,566.78q.989.3,1.786.63a5.17,5.17,0,0,1,1.392.837,3.821,3.821,0,0,1,.961,1.265,6.029,6.029,0,0,1,.24,4.079,4.526,4.526,0,0,1-1.09,1.77,5.745,5.745,0,0,1-1.915,1.249,9.17,9.17,0,0,1-2.705.62,12.218,12.218,0,0,1-2.509,0,15.566,15.566,0,0,1-2.393-.5,12.879,12.879,0,0,1,.166-1.722q.146-.918.381-1.878a9.4,9.4,0,0,0,3.718.583,3.834,3.834,0,0,0,1.775-.514,1.272,1.272,0,0,0,.539-1.274,1.34,1.34,0,0,0-.193-.613,1.385,1.385,0,0,0-.4-.41,2.318,2.318,0,0,0-.539-.261q-.3-.1-.6-.187l-1.315-.363a8.205,8.205,0,0,1-1.552-.571,4.772,4.772,0,0,1-1.234-.863,4.073,4.073,0,0,1-.854-1.218,5.053,5.053,0,0,1-.414-1.681,5.288,5.288,0,0,1,.218-2.173,4.469,4.469,0,0,1,1.006-1.682,4.916,4.916,0,0,1,1.7-1.138,7.809,7.809,0,0,1,2.311-.539,10.884,10.884,0,0,1,2.259.026,18.533,18.533,0,0,1,2.366.452,11.69,11.69,0,0,1-.185,1.632,10.152,10.152,0,0,1-.454,1.7q-.613-.2-1.433-.4a6.188,6.188,0,0,0-2-.1,3.4,3.4,0,0,0-.687.13,2.026,2.026,0,0,0-.571.269,1.148,1.148,0,0,0-.384.447,1.228,1.228,0,0,0-.1.662,1.138,1.138,0,0,0,.52.939,4.33,4.33,0,0,0,1.072.454Z" transform="translate(-471.021 -506.057)" fill="#fff"/>
    <path id="Path_1404" data-name="Path 1404" d="M661.828,555.618a8.771,8.771,0,0,1-.045,1.791l-4.386.394.29,3.227,5.7-.512a8.364,8.364,0,0,1,.359,1.709,8.628,8.628,0,0,1-.043,1.814l-9.727.873-1.466-16.34,9.59-.861q.135.492.22.919a7.951,7.951,0,0,1,.119.814,10.778,10.778,0,0,1-.021,1.812l-5.568.5.224,2.5,4.386-.394a9.02,9.02,0,0,1,.363,1.754" transform="translate(-589.467 -494.793)" fill="#fff"/>
    <path id="Path_1405" data-name="Path 1405" d="M781,537.879q4.3-.386,6.715,1.562t2.8,6.2q.387,4.318-1.7,6.533t-6.546,2.615q-1.137.1-2.2.095t-2.1-.052L776.507,538.6q.337-.076.854-.18t1.127-.2q.609-.1,1.254-.193t1.258-.147m.7,13.362a2.559,2.559,0,0,0,.366-.01l.432-.039a6.277,6.277,0,0,0,1.651-.366,3.122,3.122,0,0,0,1.284-.883,3.747,3.747,0,0,0,.765-1.558,7.312,7.312,0,0,0,.115-2.416,7.191,7.191,0,0,0-.555-2.356,4.023,4.023,0,0,0-1.033-1.43,3.2,3.2,0,0,0-1.378-.678,5.166,5.166,0,0,0-1.59-.1q-.455.041-.658.071c-.135.02-.226.032-.272.036Z" transform="translate(-701.481 -485.852)" fill="#fff"/>
    <path id="Path_1406" data-name="Path 1406" d="M20.745,526.134a.829.829,0,1,1-.9-.752.829.829,0,0,1,.9.752" transform="translate(-17.246 -474.617)" fill="#fff"/>
    <path id="Path_1407" data-name="Path 1407" d="M957.126,442.1a.829.829,0,1,1-.9-.752.829.829,0,0,1,.9.752" transform="translate(-863.154 -398.7)" fill="#fff"/>
  </g>
</svg>
