<svg xmlns="http://www.w3.org/2000/svg" xmlns:xlink="http://www.w3.org/1999/xlink" width="490" height="312.538" viewBox="0 0 490 312.538">
  <defs>
    <clipPath id="clip-path">
      <rect id="Rectangle_2793" data-name="Rectangle 2793" width="490" height="312.538" fill="none"/>
    </clipPath>
  </defs>
  <g id="Group_2882" data-name="Group 2882" transform="translate(0 0.002)">
    <g id="Group_2881" data-name="Group 2881" transform="translate(0 -0.002)" clip-path="url(#clip-path)">
      <path id="Path_6222" data-name="Path 6222" d="M214.158,628.622c40.666,1.974,64.745,3,86.416-18.93,33.121-33.517,117.3-75.284,210.863-10.88,100.557,69.223,73.311,203.156,11.181,207.713-5.827.427-365.537,2.18-368.1.723-96.857-55.08-44.717-183.692,59.638-178.627" transform="translate(-93.041 -508.99)" fill="#cae7f5"/>
      <path id="Path_6223" data-name="Path 6223" d="M549.991,2891.61c-120.331,0-217.879,5.686-217.879,12.7s97.548,12.7,217.879,12.7,217.878-5.686,217.878-12.7-97.548-12.7-217.878-12.7" transform="translate(-299.133 -2604.471)" fill="#b3d9e8"/>
      <path id="Path_6224" data-name="Path 6224" d="M4401.425,2395.172c-.141.156-.216.242-.215.243s.075-.082.215-.243" transform="translate(-3964.166 -2157.329)" fill="#a9d9ed"/>
      <path id="Path_6225" data-name="Path 6225" d="M4156.971,1839.985c-4.537-1.96-9.2.126-12.014,1.284-14.363,5.909-27.3,6.853-27.525,5.961-.342-1.336,27.559-7.944,34.782-26.677.782-2.027,3.737-9.691.76-13.806-1.746-2.415-4.8-2.584-5.727-2.635-6.116-.339-11.3,4.974-14.218,8.04-8.156,8.574-21.233,23-23.054,25.026-.14.161-.214.243-.215.242s.075-.086.215-.242c2.417-2.775,24.36-28.844,24.292-51.491-.007-2.118-.026-8.654-2.88-9.84-3.375-1.4-8.862,5.451-11.071,8.211a61.22,61.22,0,0,0-9.835,18.251c-6.35,17.88-9.614,34.1-10.021,34.025-.3-.055,2.226-8.788.535-19.337-.389-2.428-1.906-11.9-5.959-12.428-.986-.128-2.928.085-5.786,4.043-19.744,27.348-9.607,73.736-3.8,81.537,14.11,18.962,62.951-3.994,64.725-14.124,1.795-10.255-39.344,1.715-39.463-4.652-.018-.925,23.508-.724,41.435-11.9,2.424-1.51,10.918-6.8,10.563-12.6-.208-3.366-3.342-5.862-5.735-6.9" transform="translate(-3672.717 -1599.335)" fill="#84c3f7"/>
      <path id="Path_6226" data-name="Path 6226" d="M4401.424,2395.172c-.14.156-.216.242-.215.243s.076-.082.215-.243" transform="translate(-3964.166 -2157.329)" fill="#a9d9ed"/>
      <path id="Path_6227" data-name="Path 6227" d="M4131.386,1775.849c-3.375-1.4-8.862,5.451-11.071,8.21a61.213,61.213,0,0,0-9.836,18.252c-6.35,17.88-9.614,34.1-10.021,34.025-.3-.055,2.227-8.788.536-19.338-.389-2.429-1.907-11.9-5.96-12.428-.985-.128-2.928.085-5.786,4.043-19.744,27.348-9.607,73.736-3.8,81.537,3.032,4.075,7.669,6.213,13.1,6.959,4.088-8.348,7.815-19.3,3.994-26.585-1.832-3.494-6-7.291-7.453-6.262-1.927,1.366,1.776,10.634,1.146,10.957-.946.483-12.89-18.49-8.592-36.722.317-1.343,2.418-10.259,5.864-10.693.725-.091,1.98.134,3.813,2.784,5.758,8.327,3.3,20.458,4.235,20.554,1.032.105,3.18-14.669,8.677-32.446a157.569,157.569,0,0,1,5.854-15.848c3.252-7.544,5.129-11.812,8.838-16.213a37.09,37.09,0,0,1,8.679-7.532c-.417-1.512-1.1-2.792-2.212-3.255" transform="translate(-3672.716 -1599.336)" fill="#67aeef"/>
      <path id="Path_6228" data-name="Path 6228" d="M4522.038,1961.036c-1.72,1.972-3.765,5.164-3.676,6.108.08.843,1.849-.2,3.237-1.568,2.3-2.27,4.556-6.439,4.383-7.344-.159-.829-2.373,1-3.944,2.8" transform="translate(-4069.682 -1763.593)" fill="#67aeef"/>
      <path id="Path_6229" data-name="Path 6229" d="M4442.445,2133.018c-2.562,3.472-3.322,11.215-2.678,11.482.834.344,5.33-11.3,4.662-12.831-.281-.645-1.431.6-1.984,1.349" transform="translate(-3998.699 -1919.83)" fill="#67aeef"/>
      <path id="Path_6230" data-name="Path 6230" d="M4647.7,2124.378c-1.807,2.136-3.312,5.432-2.757,5.942,1.089,1,10.534-8.383,9.8-9.718-.417-.759-4.38.626-7.045,3.776" transform="translate(-4183.594 -1909.841)" fill="#67aeef"/>
      <path id="Path_6231" data-name="Path 6231" d="M4624.241,2277.711c-2.1.567-4.774,2.108-4.667,3.261.106,1.122,2.841,1.815,5.151,1.276,2.563-.6,5.086-2.831,4.837-3.954s-3.192-1.156-5.322-.582" transform="translate(-4160.844 -2051.206)" fill="#67aeef"/>
      <path id="Path_6232" data-name="Path 6232" d="M4511.665,2254.343c-.476-.471-3.842,2.123-5.656,5.959-.934,1.977-1.77,4.944-1.289,5.2.993.531,7.764-10.35,6.944-11.161" transform="translate(-4057.272 -2030.435)" fill="#67aeef"/>
      <path id="Path_6233" data-name="Path 6233" d="M4211.635,2369.7c-.847.3-.908,4.843.449,8.576.606,1.666,1.873,4.209,2.56,3.946.806-.308.725-4.428-.317-7.807-.619-2.009-1.953-4.975-2.691-4.715" transform="translate(-3792.868 -2134.369)" fill="#67aeef"/>
      <path id="Path_6234" data-name="Path 6234" d="M4378.163,2523.87c-2.595,1.563-3.992,5.025-3.364,5.792,1.085,1.324,9.268-4.106,8.857-5.9-.228-1-3.191-1.275-5.494.112" transform="translate(-3940.244 -2272.391)" fill="#67aeef"/>
      <path id="Path_6235" data-name="Path 6235" d="M4518.618,2606.653c-2-.594-4.672-.637-4.8-.085-.26,1.1,9.466,4.948,9.958,3.938.274-.564-2.178-2.967-5.156-3.853" transform="translate(-4065.586 -2347.384)" fill="#67aeef"/>
      <path id="Path_6236" data-name="Path 6236" d="M4627.395,2513.825c-1,.725-3.047,2.453-2.762,3.364.275.88,2.658.8,4.5.01,2.7-1.167,4.954-4.193,4.49-5.145-.474-.971-3.856.059-6.227,1.771" transform="translate(-4165.378 -2262.267)" fill="#67aeef"/>
      <path id="Path_6237" data-name="Path 6237" d="M4777.675,2513.558c-2.991.327-5.852,2.542-5.661,3.383.345,1.513,10.877-.085,11.029-1.685.081-.854-2.765-1.982-5.368-1.7" transform="translate(-4298.141 -2263.919)" fill="#67aeef"/>
      <path id="Path_6238" data-name="Path 6238" d="M4362.271,2794.873c-3.508,2.729-5.5,7.38-4.874,7.994,1.09,1.067,11.326-8.835,10.58-10.261-.373-.714-3.552.591-5.706,2.267" transform="translate(-3924.601 -2515.118)" fill="#67aeef"/>
      <path id="Path_6239" data-name="Path 6239" d="M4473.1,2881.709a10.422,10.422,0,0,0-2.076-.283c-.9-.019-2.339-.049-2.424.273-.23.877,9.471,4.949,9.958,3.938.3-.613-2.737-3.229-5.458-3.928" transform="translate(-4024.859 -2595.289)" fill="#67aeef"/>
      <path id="Path_6240" data-name="Path 6240" d="M4568.029,2777.013c-2.368,1.377-4.514,4.128-4.1,4.873.787,1.419,11.252-3.733,10.978-5.378-.155-.931-3.839-1.262-6.878.505" transform="translate(-4110.681 -2500.113)" fill="#67aeef"/>
      <path id="Path_6241" data-name="Path 6241" d="M74.006,1811.432c-3.174-1.609-8.569,1.226-7.791,11.118.952,12.109,6.8,25.835,6.483,25.934-.2.063-4.768-11.788-10.779-23.648-11.75-23.186-20.156-28.924-23-30.654-1.8-1.092-8.186-4.975-10.7-2.219-2.159,2.364-1.171,8.83,1.794,15.336,10.778,23.649,29.144,46.4,26.5,47.719,0,0-20.575-28.834-34.755-37.992-6.525-4.215-18.334-7.428-21.118-1.711-1.523,3.127.09,8.169.745,10.216,1.9,5.936,5.454,10.19,12.087,16.867,10.76,10.832,24.052,20.3,23.779,21.159s-13.486-9.7-21.392-8.194c-3.676.7-8.108,3.65-8.195,8.707-.1,6.078,6.114,12.474,12.847,19.261,6.3,6.354,15.584,15.541,29.434,21.237,9.683,3.982,21.494,8.839,30.939,3.575,18.965-10.569,11.236-52.378,9.883-59.7-1.249-6.758-5.817-31.467-16.754-37.012" transform="translate(0 -1613.147)" fill="#84c3f7"/>
      <path id="Path_6242" data-name="Path 6242" d="M319.383,1811.432c-3.174-1.609-8.569,1.226-7.791,11.118.952,12.109,6.8,25.835,6.483,25.934-.2.063-4.768-11.788-10.779-23.648-11.75-23.186-20.156-28.924-23-30.654-1.8-1.092-8.186-4.975-10.7-2.219-.97,1.062-1.3,2.953-1.108,5.3a8.77,8.77,0,0,1,4.351-.712c3.642.353,6.442,2.972,8.323,4.963,18.493,19.569,26.169,49.781,26.169,49.781,4.048,15.933,5.371,30.4,6.086,30.367.8-.033-1.914-17.942,1.285-18.776,2.383-.621,7.067,8.493,8.91,12.671,2.09,4.739,5.132,13.57,4.748,27.042,10.968-15.286,4.961-47.785,3.783-54.157-1.249-6.758-5.817-31.467-16.754-37.012" transform="translate(-245.376 -1613.147)" fill="#67aeef"/>
      <path id="Path_6243" data-name="Path 6243" d="M197.311,2634.571c-1.862-.072-6.009.192-6.208,1.94-.241,2.116,5.261,6.777,9.769,5.7,2.194-.523,4.5-2.487,4.2-4.18-.379-2.152-4.869-3.35-7.761-3.462" transform="translate(-172.119 -2372.946)" fill="#67aeef"/>
      <path id="Path_6244" data-name="Path 6244" d="M403.4,2579.816c-.684.305-.27,3.176.505,5.33,1.366,3.8,4.43,6.97,5.211,6.479.744-.467-.489-4.314-1.765-6.878-1.151-2.313-3.181-5.274-3.951-4.931" transform="translate(-363.032 -2323.613)" fill="#67aeef"/>
      <path id="Path_6245" data-name="Path 6245" d="M424.674,2792.427c-2.626-.337-7.18-.483-7.3.677-.122,1.209,4.576,3.732,9.086,4.559,4.025.738,8.764.282,8.817-.937.058-1.348-5.613-3.659-10.606-4.3" transform="translate(-375.929 -2514.919)" fill="#67aeef"/>
      <path id="Path_6246" data-name="Path 6246" d="M180.283,2075.208c-.655.3.065,3.656.846,5.9,1.748,5.022,5.423,9.125,6.17,8.646.679-.436-1.023-4.69-1.489-5.854-1.753-4.382-4.691-9.07-5.528-8.692" transform="translate(-162.15 -1869.119)" fill="#67aeef"/>
      <path id="Path_6247" data-name="Path 6247" d="M221.753,2290.983c-2.813-1.48-6.44-2.3-6.8-1.3s2.576,3.67,4.763,5.17c3.551,2.436,8.234,3.925,8.7,2.8.456-1.093-3.012-4.751-6.665-6.672" transform="translate(-193.579 -2061.92)" fill="#67aeef"/>
      <path id="Path_6248" data-name="Path 6248" d="M449.376,2358.9c-.725.24-.5,3.653.546,6.519,1.607,4.387,5.232,7.707,5.958,7.17.792-.584-1.685-5.879-2.342-7.283-.419-.9-3.153-6.74-4.162-6.406" transform="translate(-404.371 -2124.646)" fill="#67aeef"/>
      <path id="Path_6249" data-name="Path 6249" d="M522.7,2588.732c-.831,1.035,1.227,5.381,4.138,8.048,3.04,2.785,7.394,4.089,8.062,2.845.709-1.322-2.7-5.585-5.828-8.075-1.871-1.489-5.539-3.854-6.372-2.818" transform="translate(-470.63 -2331.44)" fill="#67aeef"/>
      <path id="Path_6250" data-name="Path 6250" d="M619.41,2785.237c-1.971-.524-4.542-.458-4.729.492-.314,1.59,6.183,5.054,6.453,5.2,1.7.9,5.75,3.034,6.266,2.081.586-1.084-3.208-6.5-7.99-7.769" transform="translate(-553.632 -2508.366)" fill="#67aeef"/>
      <path id="Path_6251" data-name="Path 6251" d="M344.309,1930.916c-.834.578,1.013,5.52,3.366,9,.592.874,1.972,2.914,2.585,2.645.666-.293.28-3.255-.676-5.615-1.447-3.573-4.52-6.552-5.275-6.027" transform="translate(-309.935 -1739.12)" fill="#67aeef"/>
      <path id="Path_6252" data-name="Path 6252" d="M490.754,2108.09c-.9.3-.493,3.976-.031,6.114,1.064,4.93,4.116,9.684,5.227,9.31.952-.321.483-4.41-.245-7.137-1.164-4.357-3.9-8.637-4.951-8.287" transform="translate(-441.538 -1898.737)" fill="#67aeef"/>
      <path id="Path_6253" data-name="Path 6253" d="M607.318,2411.295c-.908-.016-1.28,3.812-1.486,5.921-.06.617-.7,7.172.587,7.708.826.345,2.333-1.848,2.916-4.086,1.12-4.3-.961-9.524-2.018-9.543" transform="translate(-545.483 -2171.851)" fill="#67aeef"/>
      <path id="Path_6254" data-name="Path 6254" d="M766.765,2592.606c-.758.157-.513,3.578-.372,5.542.339,4.728,1.655,11.382,2.806,11.423.987.035,1.926-4.786,1.127-9.323-.692-3.927-2.717-7.817-3.561-7.642" transform="translate(-690.152 -2335.153)" fill="#67aeef"/>
      <path id="Path_6255" data-name="Path 6255" d="M2142.294,61.464l-48.731-.165.192-56.666,35.962.12,12.725,12.812Z" transform="translate(-1885.671 -4.173)" fill="#e6f2fc"/>
      <rect id="Rectangle_2632" data-name="Rectangle 2632" width="2.16" height="11.111" transform="translate(214.298 9.511) rotate(-89.806)" fill="#c0d6f9"/>
      <rect id="Rectangle_2633" data-name="Rectangle 2633" width="2.16" height="8.138" transform="translate(214.28 14.924) rotate(-89.806)" fill="#c0d6f9"/>
      <rect id="Rectangle_2634" data-name="Rectangle 2634" width="2.16" height="12.092" transform="translate(225.033 14.96) rotate(-89.806)" fill="#c0d6f9"/>
      <rect id="Rectangle_2635" data-name="Rectangle 2635" width="2.16" height="10.531" transform="matrix(0.003, -1, 1, 0.003, 239.15, 15.008)" fill="#c0d6f9"/>
      <rect id="Rectangle_2636" data-name="Rectangle 2636" width="2.16" height="8.138" transform="translate(214.247 24.671) rotate(-89.806)" fill="#c0d6f9"/>
      <rect id="Rectangle_2637" data-name="Rectangle 2637" width="2.161" height="12.092" transform="translate(225 24.708) rotate(-89.806)" fill="#c0d6f9"/>
      <rect id="Rectangle_2638" data-name="Rectangle 2638" width="2.16" height="10.531" transform="matrix(0.003, -1, 1, 0.003, 239.117, 24.756)" fill="#c0d6f9"/>
      <rect id="Rectangle_2639" data-name="Rectangle 2639" width="2.16" height="12.092" transform="translate(214.437 19.798) rotate(-89.806)" fill="#c0d6f9"/>
      <rect id="Rectangle_2640" data-name="Rectangle 2640" width="2.16" height="9.375" transform="translate(229.759 19.85) rotate(-89.806)" fill="#c0d6f9"/>
      <rect id="Rectangle_2641" data-name="Rectangle 2641" width="2.16" height="8.138" transform="translate(214.214 34.419) rotate(-89.806)" fill="#c0d6f9"/>
      <rect id="Rectangle_2642" data-name="Rectangle 2642" width="2.16" height="12.092" transform="translate(224.967 34.455) rotate(-89.806)" fill="#c0d6f9"/>
      <rect id="Rectangle_2643" data-name="Rectangle 2643" width="2.16" height="10.531" transform="matrix(0.003, -1, 1, 0.003, 239.084, 34.503)" fill="#c0d6f9"/>
      <rect id="Rectangle_2644" data-name="Rectangle 2644" width="2.161" height="12.092" transform="translate(214.404 29.546) rotate(-89.806)" fill="#c0d6f9"/>
      <rect id="Rectangle_2645" data-name="Rectangle 2645" width="2.16" height="9.375" transform="translate(229.726 29.598) rotate(-89.806)" fill="#c0d6f9"/>
      <rect id="Rectangle_2646" data-name="Rectangle 2646" width="2.16" height="8.138" transform="translate(214.181 44.166) rotate(-89.806)" fill="#c0d6f9"/>
      <rect id="Rectangle_2647" data-name="Rectangle 2647" width="2.16" height="12.092" transform="translate(224.934 44.203) rotate(-89.806)" fill="#c0d6f9"/>
      <rect id="Rectangle_2648" data-name="Rectangle 2648" width="2.16" height="10.531" transform="matrix(0.003, -1, 1, 0.003, 239.051, 44.251)" fill="#c0d6f9"/>
      <rect id="Rectangle_2649" data-name="Rectangle 2649" width="2.16" height="12.092" transform="translate(214.371 39.293) rotate(-89.806)" fill="#c0d6f9"/>
      <rect id="Rectangle_2650" data-name="Rectangle 2650" width="2.16" height="9.375" transform="translate(229.693 39.345) rotate(-89.806)" fill="#c0d6f9"/>
      <path id="Path_6256" data-name="Path 6256" d="M2143.971,14.08l-3.912-3.961-3.793,3.935L2136.313,0l7.705.026Z" transform="translate(-1924.133 0.002)" fill="#59a1f7"/>
      <path id="Path_6257" data-name="Path 6257" d="M2457.212,18.612l12.769.043L2457.256,5.844Z" transform="translate(-2213.209 -5.263)" fill="#fafbff"/>
      <rect id="Rectangle_2651" data-name="Rectangle 2651" width="13.987" height="28.726" transform="matrix(0.003, -1, 1, 0.003, 233.438, 46.351)" fill="#59a1f7"/>
      <path id="Path_6258" data-name="Path 6258" d="M2406.015,363.8a4.138,4.138,0,0,0-1.118-.137l-1.662-.006a.8.8,0,0,0-.615.208.983.983,0,0,0-.192.671l-.018,5.079a2.308,2.308,0,0,0,.053.551.555.555,0,0,0,.238.34.987.987,0,0,0,.536.121l1.662.006a4.531,4.531,0,0,0,.784-.059,2.369,2.369,0,0,0,.653-.213,2.215,2.215,0,0,0,.562-.4,2.913,2.913,0,0,0,.535-.743,3.645,3.645,0,0,0,.31-.933,6.2,6.2,0,0,0,.1-1.143,3.731,3.731,0,0,0-.981-2.836,2.027,2.027,0,0,0-.85-.5m.493,3.326a2.708,2.708,0,0,1-.641,2.033.975.975,0,0,1-.328.207,1.419,1.419,0,0,1-.368.092c-.119.012-.286.018-.5.017l-.944,0,.016-4.657.82,0a3.129,3.129,0,0,1,.989.142,1.278,1.278,0,0,1,.679.642,3.277,3.277,0,0,1,.273,1.526" transform="translate(-2163.848 -327.549)" fill="#fff"/>
      <path id="Path_6259" data-name="Path 6259" d="M2469.836,363.207a3.157,3.157,0,0,0-1.692-.446,3.219,3.219,0,0,0-1.3.246,2.648,2.648,0,0,0-.973.719,3.261,3.261,0,0,0-.611,1.14,4.923,4.923,0,0,0-.214,1.471,5.1,5.1,0,0,0,.2,1.458,3.285,3.285,0,0,0,.591,1.158,2.664,2.664,0,0,0,.98.749,3.524,3.524,0,0,0,2.66.016,2.637,2.637,0,0,0,.982-.74,3.289,3.289,0,0,0,.6-1.144,5.108,5.108,0,0,0,.2-1.466,4.642,4.642,0,0,0-.356-1.9,2.774,2.774,0,0,0-1.067-1.256m-2.394.867a1.578,1.578,0,0,1,.7-.154,1.621,1.621,0,0,1,.938.285,1.792,1.792,0,0,1,.627.836,3.526,3.526,0,0,1,.217,1.311,3.488,3.488,0,0,1-.246,1.375,1.805,1.805,0,0,1-.647.82,1.592,1.592,0,0,1-.888.263,1.568,1.568,0,0,1-.692-.156,1.61,1.61,0,0,1-.558-.466,2.248,2.248,0,0,1-.375-.785,3.891,3.891,0,0,1-.131-1.062,3.806,3.806,0,0,1,.138-1.049,2.262,2.262,0,0,1,.368-.764,1.561,1.561,0,0,1,.552-.452" transform="translate(-2220.266 -326.738)" fill="#fff"/>
      <path id="Path_6260" data-name="Path 6260" d="M2541.129,367.437a.541.541,0,0,0-.407-.183.461.461,0,0,0-.406.181,1.581,1.581,0,0,0-.206.452,1.8,1.8,0,0,1-.569.869,1.437,1.437,0,0,1-.917.292,1.49,1.49,0,0,1-.872-.264,1.662,1.662,0,0,1-.573-.793,3.778,3.778,0,0,1-.2-1.337,3.189,3.189,0,0,1,.469-1.852,1.445,1.445,0,0,1,1.236-.643,1.324,1.324,0,0,1,.817.253,2.067,2.067,0,0,1,.577.764,1.809,1.809,0,0,0,.275.446.51.51,0,0,0,.383.136.5.5,0,0,0,.391-.191.665.665,0,0,0,.161-.439,1.772,1.772,0,0,0-.318-.946,2.572,2.572,0,0,0-.92-.84,2.765,2.765,0,0,0-1.371-.343,2.921,2.921,0,0,0-1.191.243,2.8,2.8,0,0,0-.977.718,3.3,3.3,0,0,0-.642,1.137,4.759,4.759,0,0,0-.227,1.5,5.2,5.2,0,0,0,.085.978,4.132,4.132,0,0,0,.262.868,3.558,3.558,0,0,0,.426.736,2.613,2.613,0,0,0,.615.586,2.447,2.447,0,0,0,.747.329,3.712,3.712,0,0,0,.911.108,2.72,2.72,0,0,0,1.161-.23,2.415,2.415,0,0,0,.821-.605,2.644,2.644,0,0,0,.473-.761,2.041,2.041,0,0,0,.152-.723.64.64,0,0,0-.168-.451" transform="translate(-2283.851 -326.952)" fill="#fff"/>
      <path id="Path_6261" data-name="Path 6261" d="M3352.82,2195.8l-48.731.025-.029-56.666,35.962-.02L3352.8,2151.9Z" transform="translate(-2975.964 -1926.718)" fill="#f3f6ff"/>
      <rect id="Rectangle_2652" data-name="Rectangle 2652" width="11.111" height="2.16" transform="translate(334.344 219.301)" fill="#dce3f4"/>
      <rect id="Rectangle_2653" data-name="Rectangle 2653" width="8.138" height="2.16" transform="translate(334.347 224.715)" fill="#dce3f4"/>
      <rect id="Rectangle_2654" data-name="Rectangle 2654" width="12.092" height="2.16" transform="translate(345.1 224.708)" fill="#dce3f4"/>
      <rect id="Rectangle_2655" data-name="Rectangle 2655" width="10.531" height="2.16" transform="translate(359.217 224.701)" fill="#dce3f4"/>
      <rect id="Rectangle_2656" data-name="Rectangle 2656" width="8.138" height="2.16" transform="translate(334.352 234.462)" fill="#dce3f4"/>
      <rect id="Rectangle_2657" data-name="Rectangle 2657" width="12.092" height="2.16" transform="translate(345.105 234.456)" fill="#dce3f4"/>
      <rect id="Rectangle_2658" data-name="Rectangle 2658" width="10.531" height="2.16" transform="translate(359.223 234.449)" fill="#dce3f4"/>
      <rect id="Rectangle_2659" data-name="Rectangle 2659" width="12.092" height="2.16" transform="translate(334.523 229.588)" fill="#dce3f4"/>
      <rect id="Rectangle_2660" data-name="Rectangle 2660" width="9.375" height="2.16" transform="translate(349.845 229.58)" fill="#dce3f4"/>
      <rect id="Rectangle_2661" data-name="Rectangle 2661" width="8.138" height="2.16" transform="translate(334.357 244.21)" fill="#dce3f4"/>
      <rect id="Rectangle_2662" data-name="Rectangle 2662" width="12.092" height="2.16" transform="translate(345.11 244.203)" fill="#dce3f4"/>
      <rect id="Rectangle_2663" data-name="Rectangle 2663" width="10.531" height="2.16" transform="translate(359.228 244.197)" fill="#dce3f4"/>
      <rect id="Rectangle_2664" data-name="Rectangle 2664" width="12.092" height="2.16" transform="translate(334.528 239.335)" fill="#dce3f4"/>
      <rect id="Rectangle_2665" data-name="Rectangle 2665" width="9.375" height="2.16" transform="translate(349.85 239.328)" fill="#dce3f4"/>
      <rect id="Rectangle_2666" data-name="Rectangle 2666" width="8.138" height="2.16" transform="translate(334.362 253.958)" fill="#dce3f4"/>
      <rect id="Rectangle_2667" data-name="Rectangle 2667" width="12.092" height="2.16" transform="translate(345.115 253.951)" fill="#dce3f4"/>
      <rect id="Rectangle_2668" data-name="Rectangle 2668" width="10.531" height="2.16" transform="translate(359.233 253.944)" fill="#dce3f4"/>
      <rect id="Rectangle_2669" data-name="Rectangle 2669" width="12.092" height="2.16" transform="translate(334.533 249.083)" fill="#dce3f4"/>
      <rect id="Rectangle_2670" data-name="Rectangle 2670" width="9.375" height="2.16" transform="translate(349.855 249.076)" fill="#dce3f4"/>
      <path id="Path_6262" data-name="Path 6262" d="M3353,2148.559l-3.927-3.946-3.778,3.95-.008-14.056,7.706,0Z" transform="translate(-3013.1 -1922.545)" fill="#ffc533"/>
      <path id="Path_6263" data-name="Path 6263" d="M3666.219,2151.9l12.769-.007-12.776-12.762Z" transform="translate(-3302.154 -1926.718)" fill="#fff"/>
      <rect id="Rectangle_2671" data-name="Rectangle 2671" width="28.726" height="13.987" transform="translate(353.624 244.236)" fill="#ffc533"/>
      <path id="Path_6264" data-name="Path 6264" d="M3616.76,2497.646a1.655,1.655,0,0,0-.677-.4,3.961,3.961,0,0,0-1.124-.123h-1.637a.854.854,0,0,0-.63.205.954.954,0,0,0-.2.677l0,5.339a1,1,0,0,0,.182.645.619.619,0,0,0,.954,0,1.006,1.006,0,0,0,.185-.652V2501.4h1.146a2.558,2.558,0,0,0,1.78-.552,2.1,2.1,0,0,0,.6-1.621,2.607,2.607,0,0,0-.148-.9,1.809,1.809,0,0,0-.433-.679m-.911,2.215a.865.865,0,0,1-.451.332,2.342,2.342,0,0,1-.746.1h-.837v-2.072h.837a1.514,1.514,0,0,1,1.113.3,1.1,1.1,0,0,1,.24.732,1.073,1.073,0,0,1-.155.606" transform="translate(-3253.77 -2249.158)" fill="#fff"/>
      <path id="Path_6265" data-name="Path 6265" d="M3675.256,2497.227a4.131,4.131,0,0,0-1.119-.133h-1.663a.8.8,0,0,0-.613.21.99.99,0,0,0-.19.672l0,5.079a2.307,2.307,0,0,0,.055.551.557.557,0,0,0,.24.339.985.985,0,0,0,.536.119h1.662a4.515,4.515,0,0,0,.783-.062,2.356,2.356,0,0,0,.653-.215,2.213,2.213,0,0,0,.56-.406,2.9,2.9,0,0,0,.532-.745,3.629,3.629,0,0,0,.306-.934,6.126,6.126,0,0,0,.1-1.143,3.73,3.73,0,0,0-.992-2.831,2.022,2.022,0,0,0-.851-.5m.506,3.324a2.707,2.707,0,0,1-.632,2.035.974.974,0,0,1-.328.208,1.416,1.416,0,0,1-.368.094c-.119.012-.286.019-.5.019h-.944l0-4.657h.82a3.12,3.12,0,0,1,.99.138,1.278,1.278,0,0,1,.682.639,3.276,3.276,0,0,1,.279,1.525" transform="translate(-3307.071 -2249.13)" fill="#fff"/>
      <path id="Path_6266" data-name="Path 6266" d="M3740.716,2498.18a.638.638,0,0,0,.469-.156.559.559,0,0,0,.154-.41.552.552,0,0,0-.155-.405.639.639,0,0,0-.469-.155h-3.007a1.022,1.022,0,0,0-.455.09.559.559,0,0,0-.266.29,1.294,1.294,0,0,0-.083.5l0,5.33a1.011,1.011,0,0,0,.184.657.628.628,0,0,0,.954,0,1.008,1.008,0,0,0,.183-.66v-2.26h2.078a.622.622,0,0,0,.449-.148.53.53,0,0,0,.152-.4.545.545,0,0,0-.15-.4.616.616,0,0,0-.452-.15h-2.079v-1.728Z" transform="translate(-3365.828 -2249.093)" fill="#fff"/>
      <path id="Path_6267" data-name="Path 6267" d="M1152.172,575.361l-48.731-.062.072-56.666,35.962.044,12.753,12.785Z" transform="translate(-993.869 -467.133)" fill="#e6f2fc"/>
      <rect id="Rectangle_2672" data-name="Rectangle 2672" width="2.16" height="11.111" transform="matrix(0.001, -1, 1, 0.001, 115.877, 60.538)" fill="#c0d6f9"/>
      <rect id="Rectangle_2673" data-name="Rectangle 2673" width="2.16" height="8.138" transform="translate(115.87 65.951) rotate(-89.927)" fill="#c0d6f9"/>
      <rect id="Rectangle_2674" data-name="Rectangle 2674" width="2.16" height="12.092" transform="translate(126.623 65.965) rotate(-89.928)" fill="#c0d6f9"/>
      <rect id="Rectangle_2675" data-name="Rectangle 2675" width="2.16" height="10.531" transform="translate(140.741 65.983) rotate(-89.928)" fill="#c0d6f9"/>
      <rect id="Rectangle_2676" data-name="Rectangle 2676" width="2.16" height="8.138" transform="translate(115.858 75.699) rotate(-89.927)" fill="#c0d6f9"/>
      <rect id="Rectangle_2677" data-name="Rectangle 2677" width="2.16" height="12.092" transform="translate(126.611 75.712) rotate(-89.928)" fill="#c0d6f9"/>
      <rect id="Rectangle_2678" data-name="Rectangle 2678" width="2.16" height="10.531" transform="translate(140.728 75.73) rotate(-89.928)" fill="#c0d6f9"/>
      <rect id="Rectangle_2679" data-name="Rectangle 2679" width="2.16" height="12.092" transform="translate(116.037 70.825) rotate(-89.928)" fill="#c0d6f9"/>
      <rect id="Rectangle_2680" data-name="Rectangle 2680" width="2.16" height="9.375" transform="matrix(0.001, -1, 1, 0.001, 131.36, 70.845)" fill="#c0d6f9"/>
      <rect id="Rectangle_2681" data-name="Rectangle 2681" width="2.16" height="8.138" transform="translate(115.845 85.446) rotate(-89.927)" fill="#c0d6f9"/>
      <rect id="Rectangle_2682" data-name="Rectangle 2682" width="2.161" height="12.092" transform="translate(126.598 85.46) rotate(-89.927)" fill="#c0d6f9"/>
      <rect id="Rectangle_2683" data-name="Rectangle 2683" width="2.16" height="10.531" transform="translate(140.716 85.478) rotate(-89.928)" fill="#c0d6f9"/>
      <rect id="Rectangle_2684" data-name="Rectangle 2684" width="2.16" height="12.092" transform="translate(116.025 80.573) rotate(-89.928)" fill="#c0d6f9"/>
      <rect id="Rectangle_2685" data-name="Rectangle 2685" width="2.16" height="9.375" transform="matrix(0.001, -1, 1, 0.001, 131.347, 80.592)" fill="#c0d6f9"/>
      <rect id="Rectangle_2686" data-name="Rectangle 2686" width="2.16" height="8.138" transform="translate(115.833 95.194) rotate(-89.927)" fill="#c0d6f9"/>
      <rect id="Rectangle_2687" data-name="Rectangle 2687" width="2.16" height="12.092" transform="translate(126.586 95.208) rotate(-89.928)" fill="#c0d6f9"/>
      <rect id="Rectangle_2688" data-name="Rectangle 2688" width="2.16" height="10.531" transform="matrix(0.001, -1, 1, 0.001, 140.704, 95.225)" fill="#c0d6f9"/>
      <rect id="Rectangle_2689" data-name="Rectangle 2689" width="2.16" height="12.092" transform="translate(116.013 90.32) rotate(-89.928)" fill="#c0d6f9"/>
      <rect id="Rectangle_2690" data-name="Rectangle 2690" width="2.16" height="9.375" transform="matrix(0.001, -1, 1, 0.001, 131.335, 90.34)" fill="#c0d6f9"/>
      <path id="Path_6268" data-name="Path 6268" d="M1152.929,527.976l-3.92-3.953-3.785,3.944.018-14.056,7.705.01Z" transform="translate(-1031.502 -462.879)" fill="#ffc533"/>
      <path id="Path_6269" data-name="Path 6269" d="M1466.154,531.844l12.769.016-12.753-12.785Z" transform="translate(-1320.563 -467.531)" fill="#fafbff"/>
      <rect id="Rectangle_2691" data-name="Rectangle 2691" width="13.987" height="28.726" transform="translate(135.095 97.338) rotate(-89.928)" fill="#ffc533"/>
      <path id="Path_6270" data-name="Path 6270" d="M1431.915,881.2h-.447l0,2.226a.988.988,0,0,1-.177.647.573.573,0,0,1-.46.207.562.562,0,0,1-.472-.218,1.03,1.03,0,0,1-.167-.638l.007-5.33a.961.961,0,0,1,.185-.656.772.772,0,0,1,.6-.2l2.075,0a5.748,5.748,0,0,1,.735.041,1.721,1.721,0,0,1,.55.164,1.593,1.593,0,0,1,.524.393,1.75,1.75,0,0,1,.345.593,2.152,2.152,0,0,1,.117.716,1.836,1.836,0,0,1-.4,1.238,2.216,2.216,0,0,1-1.206.655,2.391,2.391,0,0,1,.648.587,5.947,5.947,0,0,1,.551.825,6.4,6.4,0,0,1,.377.789,1.687,1.687,0,0,1,.135.484.529.529,0,0,1-.08.272.579.579,0,0,1-.217.212.632.632,0,0,1-.318.078.579.579,0,0,1-.361-.112,1.027,1.027,0,0,1-.251-.281q-.105-.17-.285-.5l-.51-.936a5.212,5.212,0,0,0-.491-.785,1.23,1.23,0,0,0-.44-.369,1.388,1.388,0,0,0-.562-.1m.734-2.91-1.177,0,0,1.9,1.142,0a2.923,2.923,0,0,0,.773-.086.892.892,0,0,0,.479-.3.913.913,0,0,0,.166-.579.961.961,0,0,0-.132-.508.827.827,0,0,0-.369-.329,2.432,2.432,0,0,0-.88-.105" transform="translate(-1288.171 -790.128)" fill="#fff"/>
      <path id="Path_6271" data-name="Path 6271" d="M1434.612,884.109a.6.6,0,0,1-.374-.116,1.049,1.049,0,0,1-.256-.287c-.07-.113-.166-.282-.286-.5l-.51-.936a5.19,5.19,0,0,0-.489-.782,1.217,1.217,0,0,0-.431-.363,1.375,1.375,0,0,0-.554-.1h-.424l0,2.2a1.013,1.013,0,0,1-.182.662.6.6,0,0,1-.477.215.586.586,0,0,1-.49-.227,1.058,1.058,0,0,1-.171-.652l.007-5.33a.986.986,0,0,1,.191-.672.8.8,0,0,1,.614-.21l2.075,0a5.785,5.785,0,0,1,.737.041,1.757,1.757,0,0,1,.557.166,1.626,1.626,0,0,1,.53.4,1.781,1.781,0,0,1,.349.6,2.189,2.189,0,0,1,.118.723,1.867,1.867,0,0,1-.4,1.252,2.21,2.21,0,0,1-1.165.649,2.486,2.486,0,0,1,.608.564,6,6,0,0,1,.553.828,6.419,6.419,0,0,1,.378.792,1.679,1.679,0,0,1,.136.492.556.556,0,0,1-.083.283.6.6,0,0,1-.225.22.658.658,0,0,1-.329.08m-3.369-3.13h.469a1.416,1.416,0,0,1,.572.1,1.26,1.26,0,0,1,.448.375,5.26,5.26,0,0,1,.493.789l.51.936c.119.219.215.388.284.5a1.009,1.009,0,0,0,.245.275.558.558,0,0,0,.347.107.613.613,0,0,0,.307-.075.561.561,0,0,0,.209-.2.511.511,0,0,0,.077-.26,1.668,1.668,0,0,0-.133-.476,6.323,6.323,0,0,0-.376-.787,5.964,5.964,0,0,0-.549-.822,2.383,2.383,0,0,0-.642-.581l-.048-.028.054-.013a2.2,2.2,0,0,0,1.194-.648,1.824,1.824,0,0,0,.394-1.223,2.142,2.142,0,0,0-.116-.709,1.733,1.733,0,0,0-.341-.586,1.58,1.58,0,0,0-.516-.388,1.707,1.707,0,0,0-.543-.162,5.715,5.715,0,0,0-.732-.041l-2.075,0a.755.755,0,0,0-.581.2.945.945,0,0,0-.18.642l-.007,5.33a1.016,1.016,0,0,0,.162.625.543.543,0,0,0,.455.209.555.555,0,0,0,.443-.2.973.973,0,0,0,.172-.633Zm1.166-.96-1.165,0,0-1.949h1.2a2.423,2.423,0,0,1,.89.107.851.851,0,0,1,.379.338.987.987,0,0,1,.136.52.937.937,0,0,1-.171.592.916.916,0,0,1-.491.3,2.958,2.958,0,0,1-.78.087m-1.12-.046h1.12a2.907,2.907,0,0,0,.767-.086.874.874,0,0,0,.468-.289.9.9,0,0,0,.161-.565.944.944,0,0,0-.129-.5.808.808,0,0,0-.359-.32,2.428,2.428,0,0,0-.871-.1h-1.155Z" transform="translate(-1287.968 -789.926)" fill="#fff"/>
      <path id="Path_6272" data-name="Path 6272" d="M1488.21,878.467l-1.392,0-.006,5.032a.988.988,0,0,1-.177.645.567.567,0,0,1-.456.21.574.574,0,0,1-.462-.213.983.983,0,0,1-.177-.643l.006-5.032-1.392,0a.662.662,0,0,1-.485-.159.564.564,0,0,1-.158-.418.557.557,0,0,1,.166-.425.672.672,0,0,1,.479-.155l4.055.005a.67.67,0,0,1,.491.161.567.567,0,0,1,.161.421.556.556,0,0,1-.164.418.677.677,0,0,1-.49.158" transform="translate(-1336.197 -790.187)" fill="#fff"/>
      <path id="Path_6273" data-name="Path 6273" d="M1485.978,884.172a.6.6,0,0,1-.479-.221,1.01,1.01,0,0,1-.183-.657l.006-5.01-1.369,0a.685.685,0,0,1-.5-.165.588.588,0,0,1-.165-.434.58.58,0,0,1,.173-.441.7.7,0,0,1,.495-.161l4.055.005a.694.694,0,0,1,.507.168.592.592,0,0,1,.167.437.58.58,0,0,1-.171.434.7.7,0,0,1-.505.164l-1.369,0-.006,5.01a1.016,1.016,0,0,1-.182.659.59.59,0,0,1-.472.217m-2.023-7.048a.654.654,0,0,0-.464.149.537.537,0,0,0-.159.409.544.544,0,0,0,.152.4.642.642,0,0,0,.469.153l1.414,0-.006,5.055a.966.966,0,0,0,.172.628.555.555,0,0,0,.445.205.548.548,0,0,0,.438-.2.973.973,0,0,0,.172-.631l.007-5.054,1.414,0a.66.66,0,0,0,.474-.151.537.537,0,0,0,.157-.4.549.549,0,0,0-.154-.4.652.652,0,0,0-.476-.155Z" transform="translate(-1335.995 -789.985)" fill="#fff"/>
      <path id="Path_6274" data-name="Path 6274" d="M1548.489,878.47l-2.513,0,0,1.772,2.1,0a.593.593,0,0,1,.436.145.521.521,0,0,1,.143.385.508.508,0,0,1-.147.383.6.6,0,0,1-.434.141l-2.1,0,0,2.282a.981.981,0,0,1-.179.645.605.605,0,0,1-.919,0,.982.982,0,0,1-.177-.643l.007-5.33a1.273,1.273,0,0,1,.082-.494.534.534,0,0,1,.256-.279.988.988,0,0,1,.445-.087l3.007,0a.615.615,0,0,1,.453.149.528.528,0,0,1,.148.39.534.534,0,0,1-.149.394.615.615,0,0,1-.453.148" transform="translate(-1391.305 -790.259)" fill="#fff"/>
      <path id="Path_6275" data-name="Path 6275" d="M1545.131,884.249a.6.6,0,0,1-.479-.221,1.01,1.01,0,0,1-.183-.657l.007-5.33a1.3,1.3,0,0,1,.084-.5.558.558,0,0,1,.266-.29,1.014,1.014,0,0,1,.455-.089l3.007,0a.639.639,0,0,1,.469.156.553.553,0,0,1,.154.406.559.559,0,0,1-.155.41.639.639,0,0,1-.469.155l-2.491,0,0,1.727,2.078,0a.616.616,0,0,1,.452.151.545.545,0,0,1,.15.4.533.533,0,0,1-.153.4.623.623,0,0,1-.449.147l-2.078,0,0,2.26a1.006,1.006,0,0,1-.184.659.6.6,0,0,1-.475.217m.151-7.045a.973.973,0,0,0-.435.085.515.515,0,0,0-.246.267,1.259,1.259,0,0,0-.08.485l-.007,5.33a.967.967,0,0,0,.172.629.583.583,0,0,0,.885,0,.965.965,0,0,0,.174-.63l0-2.3,2.123,0a.581.581,0,0,0,.418-.135.49.49,0,0,0,.14-.367.5.5,0,0,0-.137-.37.575.575,0,0,0-.42-.138l-2.123,0,0-1.816,2.535,0a.6.6,0,0,0,.438-.142.516.516,0,0,0,.142-.379.509.509,0,0,0-.141-.374.6.6,0,0,0-.437-.143Z" transform="translate(-1391.103 -790.056)" fill="#fff"/>
      <path id="Path_6276" data-name="Path 6276" d="M1153.128,1398.219H1104.4v-56.666l35.962,0,12.769,12.769Z" transform="translate(-994.729 -1208.334)" fill="#f3f6ff"/>
      <rect id="Rectangle_2692" data-name="Rectangle 2692" width="11.111" height="2.16" transform="translate(115.912 140.088)" fill="#dce3f4"/>
      <rect id="Rectangle_2693" data-name="Rectangle 2693" width="8.138" height="2.16" transform="translate(115.912 145.501)" fill="#dce3f4"/>
      <rect id="Rectangle_2694" data-name="Rectangle 2694" width="12.092" height="2.16" transform="translate(126.665 145.501)" fill="#dce3f4"/>
      <rect id="Rectangle_2695" data-name="Rectangle 2695" width="10.531" height="2.16" transform="translate(140.782 145.501)" fill="#dce3f4"/>
      <rect id="Rectangle_2696" data-name="Rectangle 2696" width="8.138" height="2.16" transform="translate(115.912 155.249)" fill="#dce3f4"/>
      <rect id="Rectangle_2697" data-name="Rectangle 2697" width="12.092" height="2.16" transform="translate(126.665 155.249)" fill="#dce3f4"/>
      <rect id="Rectangle_2698" data-name="Rectangle 2698" width="10.531" height="2.16" transform="translate(140.782 155.248)" fill="#dce3f4"/>
      <rect id="Rectangle_2699" data-name="Rectangle 2699" width="12.092" height="2.16" transform="translate(116.085 150.375)" fill="#dce3f4"/>
      <rect id="Rectangle_2700" data-name="Rectangle 2700" width="9.375" height="2.16" transform="translate(131.408 150.375)" fill="#dce3f4"/>
      <rect id="Rectangle_2701" data-name="Rectangle 2701" width="8.138" height="2.16" transform="translate(115.912 164.996)" fill="#dce3f4"/>
      <rect id="Rectangle_2702" data-name="Rectangle 2702" width="12.092" height="2.16" transform="translate(126.665 164.996)" fill="#dce3f4"/>
      <rect id="Rectangle_2703" data-name="Rectangle 2703" width="10.531" height="2.16" transform="translate(140.783 164.996)" fill="#dce3f4"/>
      <rect id="Rectangle_2704" data-name="Rectangle 2704" width="12.092" height="2.16" transform="translate(116.085 160.123)" fill="#dce3f4"/>
      <rect id="Rectangle_2705" data-name="Rectangle 2705" width="9.375" height="2.16" transform="translate(131.408 160.122)" fill="#dce3f4"/>
      <rect id="Rectangle_2706" data-name="Rectangle 2706" width="8.138" height="2.16" transform="translate(115.912 174.744)" fill="#dce3f4"/>
      <rect id="Rectangle_2707" data-name="Rectangle 2707" width="12.092" height="2.16" transform="translate(126.665 174.744)" fill="#dce3f4"/>
      <rect id="Rectangle_2708" data-name="Rectangle 2708" width="10.531" height="2.16" transform="translate(140.783 174.744)" fill="#dce3f4"/>
      <rect id="Rectangle_2709" data-name="Rectangle 2709" width="12.092" height="2.16" transform="translate(116.085 169.87)" fill="#dce3f4"/>
      <rect id="Rectangle_2710" data-name="Rectangle 2710" width="9.375" height="2.16" transform="translate(131.408 169.87)" fill="#dce3f4"/>
      <path id="Path_6277" data-name="Path 6277" d="M1153.334,1350.852l-3.925-3.948-3.78,3.948V1336.8h7.705Z" transform="translate(-1031.866 -1204.051)" fill="#59a1f7"/>
      <path id="Path_6278" data-name="Path 6278" d="M1466.549,1354.32h12.769l-12.769-12.769Z" transform="translate(-1320.92 -1208.334)" fill="#fff"/>
      <rect id="Rectangle_2711" data-name="Rectangle 2711" width="28.726" height="13.987" transform="translate(135.176 165.037)" fill="#59a1f7"/>
      <path id="Path_6279" data-name="Path 6279" d="M1429.6,1700.908h-1.392v5.032a.989.989,0,0,1-.176.645.567.567,0,0,1-.455.21.574.574,0,0,1-.462-.213.982.982,0,0,1-.178-.643v-5.032h-1.392a.661.661,0,0,1-.485-.158.563.563,0,0,1-.159-.418.556.556,0,0,1,.165-.425.672.672,0,0,1,.479-.156h4.055a.67.67,0,0,1,.492.161.568.568,0,0,1,.161.421.555.555,0,0,1-.163.418.677.677,0,0,1-.49.158" transform="translate(-1283.408 -1530.963)" fill="#fff"/>
      <path id="Path_6280" data-name="Path 6280" d="M1427.376,1706.615a.6.6,0,0,1-.479-.22,1.008,1.008,0,0,1-.183-.657v-5.01h-1.37a.685.685,0,0,1-.5-.165.587.587,0,0,1-.166-.434.579.579,0,0,1,.172-.441.7.7,0,0,1,.494-.162h4.055a.694.694,0,0,1,.507.167.592.592,0,0,1,.168.436.579.579,0,0,1-.17.434.7.7,0,0,1-.505.165h-1.37v5.01a1.014,1.014,0,0,1-.181.659.59.59,0,0,1-.472.218m-2.032-7.045a.654.654,0,0,0-.464.15.537.537,0,0,0-.158.409.546.546,0,0,0,.152.4.644.644,0,0,0,.47.152h1.414v5.054a.966.966,0,0,0,.173.628.556.556,0,0,0,.445.2.548.548,0,0,0,.438-.2.975.975,0,0,0,.171-.631v-5.054h1.414a.661.661,0,0,0,.474-.152.537.537,0,0,0,.157-.4.55.55,0,0,0-.155-.4.653.653,0,0,0-.476-.154Z" transform="translate(-1283.206 -1530.761)" fill="#fff"/>
      <path id="Path_6281" data-name="Path 6281" d="M1481.236,1704.258l1.409-2.263-1.186-2.013a4.138,4.138,0,0,1-.251-.5,1.089,1.089,0,0,1-.084-.4.489.489,0,0,1,.161-.357.54.54,0,0,1,.393-.158.517.517,0,0,1,.415.172,4.384,4.384,0,0,1,.41.64l.945,1.682,1.009-1.682.213-.364a1.893,1.893,0,0,1,.17-.25.55.55,0,0,1,.182-.149.541.541,0,0,1,.78.484,1.84,1.84,0,0,1-.331.86l-1.241,2.041,1.336,2.263a3.875,3.875,0,0,1,.262.494.967.967,0,0,1,.082.371.631.631,0,0,1-.073.3.55.55,0,0,1-.206.217.569.569,0,0,1-.3.08.541.541,0,0,1-.305-.083.678.678,0,0,1-.2-.206q-.077-.123-.288-.477l-1.108-1.918-1.177,1.975q-.138.237-.2.331a1.225,1.225,0,0,1-.14.184.6.6,0,0,1-.193.142.619.619,0,0,1-.262.052.516.516,0,0,1-.385-.156.623.623,0,0,1-.152-.454,1.721,1.721,0,0,1,.313-.855" transform="translate(-1333.866 -1529.891)" fill="#fff"/>
      <path id="Path_6282" data-name="Path 6282" d="M1485.129,1705.543a.563.563,0,0,1-.317-.086.7.7,0,0,1-.208-.212c-.051-.081-.148-.242-.288-.478l-1.09-1.885-1.157,1.942c-.094.162-.158.27-.2.331a1.284,1.284,0,0,1-.142.188.626.626,0,0,1-.2.147.641.641,0,0,1-.271.054.538.538,0,0,1-.4-.163.646.646,0,0,1-.159-.469,1.751,1.751,0,0,1,.317-.867l1.4-2.252-1.179-2a4.229,4.229,0,0,1-.253-.506,1.122,1.122,0,0,1-.085-.412.512.512,0,0,1,.168-.373.563.563,0,0,1,.409-.165.541.541,0,0,1,.431.18,4.424,4.424,0,0,1,.413.644l.927,1.649.99-1.649.213-.364a1.917,1.917,0,0,1,.172-.253.579.579,0,0,1,.19-.155.552.552,0,0,1,.244-.052.553.553,0,0,1,.568.556,1.864,1.864,0,0,1-.334.872l-1.235,2.03,1.329,2.252a3.944,3.944,0,0,1,.263.5,1,1,0,0,1,.083.379.66.66,0,0,1-.076.313.577.577,0,0,1-.214.226.6.6,0,0,1-.312.083m-1.9-2.75,1.127,1.951c.14.235.236.4.287.477a.657.657,0,0,0,.2.2.521.521,0,0,0,.293.079.552.552,0,0,0,.289-.077.534.534,0,0,0,.2-.209.613.613,0,0,0,.071-.292.948.948,0,0,0-.08-.362,3.809,3.809,0,0,0-.26-.491l-1.343-2.275,1.248-2.053a1.828,1.828,0,0,0,.328-.848.529.529,0,0,0-.748-.464.539.539,0,0,0-.175.143,1.934,1.934,0,0,0-.168.248l-.213.364-1.029,1.715-.964-1.716a4.383,4.383,0,0,0-.407-.637.5.5,0,0,0-.4-.165.52.52,0,0,0-.377.152.469.469,0,0,0-.155.341,1.074,1.074,0,0,0,.082.4,4.1,4.1,0,0,0,.25.5l1.192,2.024-.007.011-1.409,2.263a1.711,1.711,0,0,0-.31.844.6.6,0,0,0,.146.438.5.5,0,0,0,.369.149.6.6,0,0,0,.253-.05.59.59,0,0,0,.186-.136,1.253,1.253,0,0,0,.137-.181c.037-.061.1-.169.2-.33Z" transform="translate(-1333.664 -1529.689)" fill="#fff"/>
      <path id="Path_6283" data-name="Path 6283" d="M1538.482,1700.907h-1.392v5.032a.99.99,0,0,1-.176.645.567.567,0,0,1-.455.21.574.574,0,0,1-.462-.213.981.981,0,0,1-.178-.643v-5.032h-1.392a.661.661,0,0,1-.485-.158.563.563,0,0,1-.159-.418.556.556,0,0,1,.165-.425.672.672,0,0,1,.479-.156h4.055a.671.671,0,0,1,.492.161.568.568,0,0,1,.161.421.555.555,0,0,1-.163.418.678.678,0,0,1-.49.158" transform="translate(-1381.477 -1530.962)" fill="#fff"/>
      <path id="Path_6284" data-name="Path 6284" d="M1536.257,1706.614a.6.6,0,0,1-.479-.221,1.008,1.008,0,0,1-.184-.657v-5.01h-1.37a.685.685,0,0,1-.5-.165.587.587,0,0,1-.166-.434.58.58,0,0,1,.172-.442.7.7,0,0,1,.494-.162h4.055a.7.7,0,0,1,.508.167.592.592,0,0,1,.168.436.58.58,0,0,1-.17.434.7.7,0,0,1-.505.165h-1.37v5.01a1.015,1.015,0,0,1-.181.659.591.591,0,0,1-.472.218m-2.032-7.045a.654.654,0,0,0-.464.15.537.537,0,0,0-.158.409.545.545,0,0,0,.152.4.644.644,0,0,0,.47.152h1.414v5.054a.966.966,0,0,0,.173.628.555.555,0,0,0,.445.2.548.548,0,0,0,.438-.2.974.974,0,0,0,.171-.631v-5.054h1.414a.659.659,0,0,0,.474-.152.537.537,0,0,0,.156-.4.549.549,0,0,0-.155-.4.652.652,0,0,0-.476-.154Z" transform="translate(-1381.275 -1530.76)" fill="#fff"/>
      <path id="Path_6285" data-name="Path 6285" d="M2676.957,2639.982h-52.4a1.6,1.6,0,0,1-1.6-1.6v-37.524a1.6,1.6,0,0,1,1.6-1.6h52.4a1.6,1.6,0,0,1,1.6,1.6v37.524a1.6,1.6,0,0,1-1.6,1.6" transform="translate(-2362.497 -2341.15)" fill="#3b95ed"/>
      <path id="Path_6286" data-name="Path 6286" d="M2804.059,2554h-24.5v-9.408h24.5ZM2781,2552.559h21.612v-6.524H2781Z" transform="translate(-2503.55 -2291.912)" fill="#2537a0"/>
      <path id="Path_6287" data-name="Path 6287" d="M2793.569,2544.3h-24.8a1.086,1.086,0,1,1,0-2.173h24.8a1.086,1.086,0,1,1,0,2.173" transform="translate(-2492.845 -2289.693)" fill="#3b95ed"/>
      <path id="Path_6288" data-name="Path 6288" d="M2793.569,2544.3h-24.8a1.086,1.086,0,1,1,0-2.173h24.8a1.086,1.086,0,1,1,0,2.173" transform="translate(-2492.845 -2289.693)" fill="#3b95ed"/>
      <path id="Path_6289" data-name="Path 6289" d="M2793.83,2542.128h-1.685a1.083,1.083,0,0,1-1.058,1.331h-23.119a1.086,1.086,0,0,0,1.058.841h24.8a1.086,1.086,0,1,0,0-2.172" transform="translate(-2493.107 -2289.692)" fill="#2c80e5"/>
      <path id="Path_6290" data-name="Path 6290" d="M2675.375,2601.981c.636,9.017-.1,23.155-9.5,30.57-5.38,4.243-12.286,5.252-21.99,6.669a105.781,105.781,0,0,1-20.995.959,2.34,2.34,0,0,0,2.255,2.255h51.476a1.866,1.866,0,0,0,1.867-1.866v-34.18a4.679,4.679,0,0,0-3.109-4.407" transform="translate(-2362.424 -2343.602)" fill="#3d80ea"/>
      <path id="Path_6291" data-name="Path 6291" d="M2678.557,2619.067v-17.942a1.866,1.866,0,0,0-1.866-1.866h-51.865a1.867,1.867,0,0,0-1.866,1.866v17.737c7.935,2.217,28.2,4.928,28.2,4.928s15.331-2.162,27.394-4.722" transform="translate(-2362.497 -2341.15)" fill="#2573e5"/>
      <path id="Path_6292" data-name="Path 6292" d="M2671.553,2611.935l-29.934,4.9-27.4-4.9v-16.484a2.271,2.271,0,0,1,2.27-2.271h52.793a2.271,2.271,0,0,1,2.271,2.271Z" transform="translate(-2354.625 -2335.675)" fill="#59a1f7"/>
      <path id="Path_6293" data-name="Path 6293" d="M2832.544,2593.18h0a24.9,24.9,0,0,1-.792,4.227,20.134,20.134,0,0,1-3.245,7.029c-1.266,1.673-3.286,3.653-8.291,5.948a49.69,49.69,0,0,1-14.6,4.146c-3.163.364-6.551.556-9.976.628l9.385,1.679,29.934-4.9v-16.34a2.415,2.415,0,0,0-2.415-2.415" transform="translate(-2518.031 -2335.675)" fill="#3b95ed"/>
      <path id="Path_6294" data-name="Path 6294" d="M2875.321,2807.327h-5.212a.723.723,0,0,1-.723-.723v-5.212a.723.723,0,0,1,.723-.722h5.212a.723.723,0,0,1,.722.723v5.211a.723.723,0,0,1-.722.723" transform="translate(-2584.455 -2522.561)" fill="#ffec00"/>
      <path id="Path_6295" data-name="Path 6295" d="M2650.6,2622.671s-14.047-.641-14.047.708c0,6.272-.4,13.206.024,13.25.55.057.807-4.49,5.141-9.214,1.97-2.147,9.109-3.847,8.881-4.744" transform="translate(-2374.586 -2362.101)" fill="#5eadfc"/>
      <path id="Path_6296" data-name="Path 6296" d="M2875.387,2800.769c.555.638.218,1.658-.079,2.659a6.008,6.008,0,0,1-.961,1.923c-.9,1.149-2.651,1.343-4.8,1.3-.017.311.564.768.774.768h4.963a.9.9,0,0,0,.9-.9l0-4.874a.933.933,0,0,0-.8-.869" transform="translate(-2584.599 -2522.65)" fill="#ffce00"/>
      <path id="Path_6297" data-name="Path 6297" d="M2878.009,2812.993h0a.666.666,0,0,1-.665-.666v-2.875a.665.665,0,1,1,1.331,0v2.875a.666.666,0,0,1-.665.666" transform="translate(-2591.621 -2529.872)" fill="#fff68a"/>
      <path id="Path_6298" data-name="Path 6298" d="M1993.425,2672.033a7.689,7.689,0,0,1-.754,2.315c-.395.757-2.86,3.753-3.172,4.172-1.2,1.6-.285,3.618-.113,7.333.214,4.645-1.015,5.8.113,7.712.831,1.411,2.508,2.5,3.625,2.022.81-.349.244-1.643,1.813-5.436,1.359-3.287,1.281-6.117,1.926-8.47.347-1.266.382-1.262,1.133-3.919.393-1.391.64-2.3.811-2.941a22.482,22.482,0,0,1-5.381-2.787" transform="translate(-1791.394 -2406.698)" fill="#e28164"/>
      <path id="Path_6299" data-name="Path 6299" d="M2848.868,1057.358a34.65,34.65,0,0,1,2.988-3.812c.5-.36,1.665-.716,2.116-.976a5.8,5.8,0,0,0,1.688-1.573,5.2,5.2,0,0,0,1.061-1.792,3.974,3.974,0,0,0,.15-1.924,5.357,5.357,0,0,0-.737-1.624c-.482-.975-.62-2.177-.9-4.581-.126-1.1-.139-1.584-.453-1.711-.25-.1-.531.088-1.785,1.108-1.075.874-1.613,1.311-2.215,1.854-1,.9-1.507,1.357-1.653,1.535a8.185,8.185,0,0,0-1.741,3.962c-.079.6.277,2.28.115,3.067a31.773,31.773,0,0,1-2.5,3.992c-1.437,1.226,3.687,2.884,3.863,2.476" transform="translate(-2562.265 -936.133)" fill="#eb8e6c"/>
      <path id="Path_6300" data-name="Path 6300" d="M2908.513,1046.279a5.9,5.9,0,0,1-.473-1.477l-1.235-4.77c-.48.336-1.368,1.016-1.426,1.064-.421.342-.759.617-1.052.858-.159.207-.32.432-.479.676a4.876,4.876,0,0,0-.907,1.85c-.11.6.046.684.3,2.581a9.5,9.5,0,0,1,.16,2.121c-.111,1.146-.11.618-.189.974-.095.429,3.286,1.47,5.229-.3a9,9,0,0,0,.865-1.239,3.582,3.582,0,0,0-.058-.717,5.361,5.361,0,0,0-.738-1.624" transform="translate(-2614.645 -936.755)" fill="#e58065"/>
      <path id="Path_6301" data-name="Path 6301" d="M2935.736,1104.411l-.085.039c.055-.022.085-.039.085-.039" transform="translate(-2644.138 -994.742)" fill="#fba78d"/>
      <path id="Path_6302" data-name="Path 6302" d="M2920.25,1067.153c-.061-.387.462-.51.526-.992a1.306,1.306,0,0,0-.517-1.105c-.125-.089-.24-.125-.253-.228-.021-.157.226-.23.479-.508a1.407,1.407,0,0,0,.405-.986,1.1,1.1,0,0,0-.2-.544,1.141,1.141,0,0,0-.7-.445,1.206,1.206,0,0,0-.648.059,2.159,2.159,0,0,0-.787.6c-.087.082-.6.566-1.128,1-.308.254-.462.38-.647.517-.448.329-.581.369-.715.593a1.379,1.379,0,0,0-.178.733.827.827,0,0,0,.1.477.854.854,0,0,0,.6.33,1.609,1.609,0,0,0,.847-.108l.085-.039s-.031.016-.085.039a8.082,8.082,0,0,0-1.666,1.019.916.916,0,0,0-.313.451.86.86,0,0,0,.162.763.934.934,0,0,0,.571.307,1.845,1.845,0,0,0,.555.019s-.274.571-.122.874c.128.255.581.269.738.274a2.446,2.446,0,0,0,1.022-.271,9.128,9.128,0,0,0,1.768-.745c.4-.246.469-.361.507-.437a1.443,1.443,0,0,0-.164-1.269c-.138-.233-.214-.228-.237-.373" transform="translate(-2625.917 -956.834)" fill="#ef9d78"/>
      <path id="Path_6303" data-name="Path 6303" d="M2936.839,1086.952c-.218.121-.465.258-.659.389l-.121.081c-.506.339-1.2.8-1.562,1.1l.111.134c.357-.3,1.046-.757,1.548-1.093l.121-.081c.188-.126.432-.262.647-.381.111-.062.216-.12.307-.174l-.088-.15c-.09.053-.194.111-.3.172" transform="translate(-2643.099 -978.862)" fill="#d86a50"/>
      <path id="Path_6304" data-name="Path 6304" d="M2931.353,1110.252a6.859,6.859,0,0,0-.748.284,12.221,12.221,0,0,0-1.321.7c-.274.17-.777.57-1.144.862l.108.136c.364-.289.862-.686,1.127-.85a12.152,12.152,0,0,1,1.3-.692,6.724,6.724,0,0,1,.729-.276c.13-.043.242-.081.331-.116l-.065-.161c-.084.034-.194.07-.321.113" transform="translate(-2637.373 -999.901)" fill="#d86a50"/>
      <path id="Path_6305" data-name="Path 6305" d="M2872.949,1031a4.717,4.717,0,0,1,.151-1.238,8.358,8.358,0,0,1,.578-1.357,7.825,7.825,0,0,0,.586-1.67,5.107,5.107,0,0,0-.005-1.9,1.821,1.821,0,0,0-.248-.589.375.375,0,0,0-.627-.1c-.2.176-.118.5-.523,1.586a12.6,12.6,0,0,1-.845,1.781,20.423,20.423,0,0,1-1.177,1.871,9.019,9.019,0,0,0-.65.927,5.373,5.373,0,0,0-.532,1.764,9.711,9.711,0,0,0-.307,2.837,2.529,2.529,0,0,0,.923,1.927,1.883,1.883,0,0,0,1.786.049c1.209-.635,1.6-2.831,1.195-4.258a5.321,5.321,0,0,1-.3-1.623" transform="translate(-2584.393 -922.322)" fill="#eb8e6c"/>
      <path id="Path_6306" data-name="Path 6306" d="M2934.184,1037.279a1.123,1.123,0,0,0-1.041-.523.984.984,0,0,0-.473.17c-.349.245-.324.589-.561,1.235-.314.855-.593.891-.6,1.43a1.087,1.087,0,0,0,.337.9.942.942,0,0,0,.778.127,1.206,1.206,0,0,0,.555-.439,5.153,5.153,0,0,0,1.036-1.357,2.311,2.311,0,0,0,.12-.922,1.282,1.282,0,0,0-.154-.619" transform="translate(-2640.409 -933.801)" fill="#ef9d78"/>
      <path id="Path_6307" data-name="Path 6307" d="M2346.665,2810.555a10.942,10.942,0,0,1-.786,4.615,11.316,11.316,0,0,0-1.359,4.3,5.912,5.912,0,0,0,.34,3.287c.75,1.476,1.959,1.125,4.758,2.529s3.578,2.758,6.23,3.161c1.332.2,1.667-.058,1.813-.253.215-.289,3.067,1,.813-3.675-1.48-3.072-4.75-5.909-5-7.829a13.971,13.971,0,0,1,0-2.908c.041-.564.1-1.189.19-1.884a21.374,21.374,0,0,1-6.993-1.34" transform="translate(-2111.635 -2531.465)" fill="#e28164"/>
      <path id="Path_6308" data-name="Path 6308" d="M2068.479,1758.027c-1.095-4.572-18.5-5.254-21.767-.536-.868,1.254-1.687,56.638-2.728,59.5-1.061,2.92-2.726,4.014-4.078,5.689-2.158,2.675-2.827,5.555-3.738,9.482a46.222,46.222,0,0,0-1.473,10.619,15.3,15.3,0,0,1-.152,2.616,22.466,22.466,0,0,0,5.381,2.787c.292-1.1.36-1.407.549-1.99.974-3,12.805-24.344,13.933-26.3,2.114-3.656,2.775-7.077,3.852-12.642.721-3.729.584-4.462,1.472-8.217.456-1.93,1.113-4.36,1.473-5.689,1.538-5.682,7.439-34.641,7.275-35.323" transform="translate(-1832.512 -1580.061)" fill="#1f4289"/>
      <path id="Path_6309" data-name="Path 6309" d="M2349.8,1815.009c.826-8.818,1.153-34.991-2.5-35.7-5.642-1.09-13.088-5.8-14.367-.753-2.557,10.1,2.137,54.935,2.463,56.989.315,1.989.74,2.41.906,4.3.175,1.979-.153,3.073-.68,5.942a56.248,56.248,0,0,0-1.246,10.114c0,.544.11,2.266.34,5.689.485,7.222.478,6.577.566,8.217.215,3.981.375,6.938.333,9.165a21.389,21.389,0,0,0,6.994,1.34c.486-3.957,1.678-10.236,3.435-21.124,1.253-7.766.437-14.245.679-16.94.107-1.189-.023-3.228.114-5.31.114-1.728,2.675-18.824,2.966-21.929" transform="translate(-2100.586 -1599.882)" fill="#1f4289"/>
      <path id="Path_6310" data-name="Path 6310" d="M2047.214,1785.1c-.868,1.254-2.19,54.677-3.23,57.537-1.062,2.92-2.726,4.014-4.078,5.689-2.158,2.674-2.827,5.555-3.738,9.481a46.2,46.2,0,0,0-1.473,10.619,15.269,15.269,0,0,1-.152,2.616c.459.322.952.645,1.484.959.73-2.038.235-3.108.431-6.161a47.978,47.978,0,0,1,1.5-7.522,30.482,30.482,0,0,1,1.5-5.182,19.062,19.062,0,0,1,3.176-5.015c1.469-1.654,2.2-1.849,3.009-3.343a8.976,8.976,0,0,0,1-3.677c.293-3.242,1.087-6.441,1.17-9.7.105-4.131,3.7-37.183,4.681-48.671-1.484.368-4.534,1.272-5.291,2.365" transform="translate(-1832.511 -1605.71)" fill="#193584"/>
      <path id="Path_6311" data-name="Path 6311" d="M1992.675,2674.347c-.4.757-2.86,3.754-3.172,4.172a3.994,3.994,0,0,0-.562,2.957,55.587,55.587,0,0,1,3.9-5.117,10.07,10.07,0,0,0,2.006-3.176c.025-.065.048-.128.071-.191-.532-.315-1.025-.637-1.484-.959a7.7,7.7,0,0,1-.754,2.314" transform="translate(-1791.397 -2406.698)" fill="#d8745d"/>
      <path id="Path_6312" data-name="Path 6312" d="M1968.425,2718.321c-.062-.348-2.373,1.1-2.958,2.608-.313.805-.1,1.941-.1,3.453,0,1.2,0,1.953-.057,2.662-.155,2.031-.647,2.406-1.02,4.645a9.54,9.54,0,0,0-.227,3.4,7.364,7.364,0,0,0,3.342,4.7,4.79,4.79,0,0,0,3.908.85,3.788,3.788,0,0,0,1.869-1.416,5.412,5.412,0,0,0,.736-3.115c.154-2.986-.2-2.726,0-4.3.331-2.623.25-6.282.006-5.991a3,3,0,0,1-4.858-.373c-1.208-2.188-.439-5.981-.642-7.116" transform="translate(-1768.96 -2448.342)" fill="#191960"/>
      <path id="Path_6313" data-name="Path 6313" d="M2297.688,1276.136c-.454,1.1,1.533,1.9,3.549,5.739a34.62,34.62,0,0,1,2.492,7.25,18.564,18.564,0,0,1,.906,4.456c.063,1.6.458,3.256.8,3.436.71.376,2.524-3.2,4.186-6a23.677,23.677,0,0,0,3.1-12.914c-.036-1.888-.13-6.779-1.888-7.25-1.146-.307-1.752,1.6-4.38,3.1-4.2,2.394-8.117.633-8.76,2.19" transform="translate(-2069.467 -1144.624)" fill="#99bc48"/>
      <path id="Path_6314" data-name="Path 6314" d="M2310.829,1270.85c-1.146-.306-1.752,1.6-4.38,3.1-4.2,2.394-8.117.633-8.76,2.19-.288.7.4,1.273,1.464,2.578a20.5,20.5,0,0,0,6.283.161c1.382-.275,3.783-.625,7.1-4.085-.208-1.836-.665-3.663-1.706-3.941" transform="translate(-2069.467 -1144.624)" fill="#c1e266"/>
      <path id="Path_6315" data-name="Path 6315" d="M2500.979,1155.649c-2.589,2.956-15.453,18.706-16.264,18.6-7.612-1-22-9.011-22.894-8.807-2.176.5-3.673,4.481,3.477,9.866,1.786,1.345,14.665,6.754,21.211,6.891,1.355.028,3.156-.656,5.048-3.536,2.4-3.657,12.679-19.551,12.976-19.8-1.119-.719-2.3-2.769-3.553-3.213" transform="translate(-2215.739 -1040.892)" fill="#eb8e6c"/>
      <path id="Path_6316" data-name="Path 6316" d="M2427.4,1235.762c5.811,4.2,22.2,5.821,22.934,5.107,2.01-1.961,1.859-7.951.672-9.075-.6-.568-24.727-11.008-24.727-11.008-1.944,1.187-4.655,10.807,1.121,14.977" transform="translate(-2183.221 -1099.56)" fill="#fcfcfc"/>
      <path id="Path_6317" data-name="Path 6317" d="M2231.113,1157.248a10.768,10.768,0,0,0-1.246-.717,18.732,18.732,0,0,0-5.4-1.964c-1.251-.218-4.975-.867-8.081,1.133-1.044.673-2.032,1.653-1.888,1.888.172.281,1.8-.763,3.814-1.246,3.446-.827,6.515.345,8.874,1.246,4.565,1.743,6.716,4.125,7.1,3.7.343-.381-1.091-2.617-3.172-4.04" transform="translate(-1994.584 -1039.668)" fill="#f9c23a"/>
      <path id="Path_6318" data-name="Path 6318" d="M2236.458,1036.085a9.534,9.534,0,0,0-.982,1.813,5.371,5.371,0,0,0-.3,2.794,4,4,0,0,0,.982,2.19c.86.882,1.7.644,2.945,1.208,1.859.842,3.736,7.823,2.643,9.591-2.322,3.758-8.763,3.9-12.989,2.19-4.147-1.674-8.086-5.9-7.552-9.44.27-1.791,1.447-1.837,2.492-4.758.856-2.392.472-3.495.831-7.1.487-4.889.729-7.333,2.115-8.005,3.217-1.561,11.045,6.85,9.818,9.516" transform="translate(-2000.592 -924.457)" fill="#eb8e6c"/>
      <path id="Path_6319" data-name="Path 6319" d="M2099.61,1196.156c.311-.416,7.844-5.4,10.091-5.886a3.776,3.776,0,0,1,1.208-.151c2.251.232,3.507,3.407,4.682,6.042,3.083,6.912,3.394,5.14,7.174,13.745,2.291,5.214,2.586,6.8,2.719,7.7.563,3.835.554,4.62,1.234,4.819.854.249,2.054-1.9,2.769-3.459,2.736-5.981,4.1-8.972,4.38-13.216a22.964,22.964,0,0,0-4.1-13.721,10.513,10.513,0,0,1-1.493-4.026c.1-.093,9.478,5.036,9.649,5.2,1.2,1.123.245,6.915.018,13.683-.3,8.987-1.547,18.742-1.523,20.768.043,3.6,1.745,14.748,2.557,19.874a2.457,2.457,0,0,1-2.25,2.835c-21.576,1.541-31.274-.936-31.274-.936s-.111-14.672,1.359-22.43c1.606-8.477-9.879-27.266-7.2-30.84" transform="translate(-1890.751 -1070.034)" fill="#fcfcfc"/>
      <path id="Path_6320" data-name="Path 6320" d="M2355.175,1561.951c-.212-4.119-.337-8.81-.227-12.932.13-4.84.583-10.826,1.156-15.635l.926.127c-.57,4.781-1.046,10.719-1.176,15.532-.11,4.1.055,8.793.266,12.889Z" transform="translate(-2121.063 -1381.117)" fill="#f2f2f4"/>
      <path id="Path_6321" data-name="Path 6321" d="M2183.745,1192.986a13.835,13.835,0,0,0,.947,4.513l4.736-1.17-4.513,2.006s4.358,6.039,7.856,9.918c.821.91,9.3,16.214,9.3,16.214s2.842-1.319,7.689-8.8c5.667-8.75,3.009-19.78,3.009-19.78a13.523,13.523,0,0,1-2.675-.78c0-.185,1.783-.669,1.783-.669s.26-.747-1.95-3.176q-.324-.356-.675-.719c-2.4-1.3-4.805-2.582-4.858-2.535a10.507,10.507,0,0,0,1.493,4.026,22.96,22.96,0,0,1,4.1,13.721c-.277,4.244-1.645,7.234-4.38,13.216-.715,1.563-1.915,3.708-2.768,3.46-.681-.2-.671-.983-1.234-4.819-.133-.907-.428-2.49-2.719-7.7-3.78-8.6-4.092-6.833-7.175-13.745-1.175-2.635-2.431-5.809-4.682-6.042a3.775,3.775,0,0,0-1.208.151,10.055,10.055,0,0,0-2.1.865c-.012.508-.012,1.134.021,1.85" transform="translate(-1966.872 -1070.034)" fill="#f2f2f4"/>
      <path id="Path_6322" data-name="Path 6322" d="M2311.089,1060.152a1.358,1.358,0,0,0,.1-.336,13.2,13.2,0,0,1-2.271-1.491c-3.024-2.473-3.9-5.472-4.531-5.211-.862.357-.449,6.483,3.512,9.289a7.709,7.709,0,0,0,1.865.965,6.137,6.137,0,0,1,.342-1.4,9.54,9.54,0,0,1,.982-1.813" transform="translate(-2075.223 -948.525)" fill="#db765e"/>
      <path id="Path_6323" data-name="Path 6323" d="M2192.778,1166.585c-.423-.116-1.093.45-2.417,1.586-1.556,1.336-2.339,2.023-2.568,2.945-.082.329-.067.5.226,2.417.512,3.337.831,3.776.831,3.776s4.765-1.391,4.984-.68c.3.982-4.084,2.5-4.084,2.5s5.147,6.727,7.029,8.676c1.926,1.995,8.609,16.917,9.364,16.01a29.051,29.051,0,0,0-.453-8.081,39.83,39.83,0,0,0-3.625-10.573c-.4-.8-1.879-3.278-4.833-8.232-2.044-3.428-2.506-4.137-2.945-5.664-.716-2.49-.587-4.428-1.51-4.682" transform="translate(-1970.505 -1050.729)" fill="#fff"/>
      <path id="Path_6324" data-name="Path 6324" d="M2362.083,1168.83a7.02,7.02,0,0,1,3.493,4.606c.824,3.9,2.461,6.66,2.87,9.44a24.368,24.368,0,0,1,.227,8.232c-.643,3.811-2.337,7.078-4.3,10.875-1.278,2.465-1.55,3.608-1.284,3.388,14.671-12.135,9.591-26.724,9.591-26.724a32.61,32.61,0,0,1-3.776-1.812c.025-.2,2.3.291,2.719-.453.5-.892-1.931-3.107-2.417-3.55-2.052-1.871-5.992-4.369-7.209-4.536,0,0,.073.444.091.535" transform="translate(-2127.445 -1052.282)" fill="#fff"/>
      <path id="Path_6325" data-name="Path 6325" d="M2299.293,914.823a14.8,14.8,0,0,1,1.057,1.964,15.729,15.729,0,0,1,1.208,3.474,1.911,1.911,0,0,1,0,.906,7.549,7.549,0,0,1-.453.906,3.508,3.508,0,0,0-.227.906,3.68,3.68,0,0,0,.831,2.266c.683,1.111,1.079,1.312.982,1.737-.111.482-.664.415-1.057,1.057-.267.436-.113.631-.227,1.888a15.773,15.773,0,0,1-.377,2.266,8.145,8.145,0,0,0-.3,1.208c-.087.831.125,1.146-.075,1.586a1.805,1.805,0,0,1-1.133.831c-1.433.493-4.458.172-7.628-1.888a11.138,11.138,0,0,1-3.852-3.625,10.6,10.6,0,0,1-1.435-6.495,12.6,12.6,0,0,1,4.229-8.005c1.447-1.43,3.441-3.4,5.589-2.945a5.838,5.838,0,0,1,2.87,1.963" transform="translate(-2059.5 -822.151)" fill="#eb8e6c"/>
      <path id="Path_6326" data-name="Path 6326" d="M2181.229,883.771c.16.185.7.809.528,1.359-.145.46-.7.57-1.737,1.057a21.386,21.386,0,0,0-1.888,1.057c-1.312.806-1.58,1.7-2.87,3.4a17.15,17.15,0,0,1-2.946,3.172c-2.621,2.084-4.111,1.346-4.984,2.87-.51.891-.189,2.507.453,5.74.427,2.149.665,2.661.982,4.682.559,3.571.182,4.315-.076,4.682-.814,1.158-2.386,1.317-3.549,1.435-.573.058-5.225.451-8.081-3.1a8.594,8.594,0,0,1-1.812-4.531,8.734,8.734,0,0,1,.377-3.172c1.73-6.49.974-5.435,2.341-9.667,1.169-3.62,1.782-5.47,3.172-7.477a10.039,10.039,0,0,1,3.927-3.7,10.576,10.576,0,0,1,4.38-.831,16.745,16.745,0,0,1,3.474.378c2.11.37,1.815.549,4.682,1.208,1.906.438,2.854.547,3.625,1.435" transform="translate(-1941.209 -793.29)" fill="#100c5b"/>
      <path id="Path_6327" data-name="Path 6327" d="M2265.625,1004.671c-1.169.207-1.837,1.627-1.985,2.753-.228,1.731.934,3.484,2.018,4.716.6.683,1.063,1.465,1.521,1.38,1.43-.267,2.138-5.323.685-7.721a2.626,2.626,0,0,0-2.239-1.128" transform="translate(-2038.833 -904.884)" fill="#eb8e6c"/>
      <path id="Path_6328" data-name="Path 6328" d="M2279.977,1027.99a1.351,1.351,0,0,0-1.554.486,2.847,2.847,0,0,0,.21,2.756c.179.338.519.871.9.909.041,0,.483,0,.036-.607l-.1-.129c-.029-.038-.064-.084-.1-.137-.229-.309-.133-.18-.007-.01a3.649,3.649,0,0,1-.54-1.051,1.646,1.646,0,0,1,.03-1.355.824.824,0,0,1,.924-.289.919.919,0,0,1,.5.677.275.275,0,0,0,.275.236.312.312,0,0,0,.263-.385,1.5,1.5,0,0,0-.84-1.1" transform="translate(-2051.921 -925.831)" fill="#db765e"/>
      <path id="Path_6329" data-name="Path 6329" d="M2291.817,1063.587a.957.957,0,0,0-.073-.1l.073.1" transform="translate(-2064.172 -957.883)" fill="#c36252"/>
      <path id="Path_6330" data-name="Path 6330" d="M2290.421,1061.709l.1.138.023.03-.132-.178.007.01" transform="translate(-2062.974 -956.271)" fill="#c36252"/>
      <path id="Path_6331" data-name="Path 6331" d="M2266.44,1001.778a1.791,1.791,0,0,0-1.389-.01,2.256,2.256,0,0,0-1.023,1.122,5.209,5.209,0,0,0-.493,2.9c.178,1.9,1.125,3.567,1.912,3.929l.007.027c.1.364.364,1.33,1.272,1.422h0c.7.07.927-.439,1.029-.878a.3.3,0,0,0-.219-.373h0a.287.287,0,0,0-.316.237c-.086.378-.191.43-.431.406h0c-.48-.049-.671-.51-.806-1-.049-.181-.092-.337-.26-.382-.543-.148-1.47-1.667-1.639-3.46a4.536,4.536,0,0,1,.422-2.535,1.7,1.7,0,0,1,.744-.852,1.3,1.3,0,0,1,1.007.025,2.166,2.166,0,0,1,1.145,1.157.258.258,0,0,0,.345.134.324.324,0,0,0,.145-.425,2.72,2.72,0,0,0-1.451-1.447m-.86,7.994h0Z" transform="translate(-2038.739 -902.166)" fill="#db765e"/>
      <path id="Path_6332" data-name="Path 6332" d="M2293.636,1042.138a1.27,1.27,0,0,0-.338.922c-.026.479.131.937.214.927.112-.014-.082-.852.378-1.464.238-.317.524-.4.5-.5s-.461-.131-.75.113" transform="translate(-2065.569 -938.481)" fill="#db765e"/>
      <path id="Path_6333" data-name="Path 6333" d="M2383.015,997.247a.4.4,0,0,1-.531.061,3.376,3.376,0,0,0-1.812-.624,3.333,3.333,0,0,0-1.256.2.4.4,0,1,1-.274-.744,4.129,4.129,0,0,1,1.561-.247,4.172,4.172,0,0,1,2.242.771.4.4,0,0,1,.071.585" transform="translate(-2142.657 -896.995)" fill="#100c5b"/>
      <path id="Path_6334" data-name="Path 6334" d="M2403.379,1017.473c0,.542-.2.982-.453.982s-.453-.439-.453-.982.2-.982.453-.982.453.44.453.982" transform="translate(-2163.906 -915.552)" fill="#100c5b"/>
      <path id="Path_6335" data-name="Path 6335" d="M2403.623,1077.417a8.229,8.229,0,0,1-3.361-.642c-.22-.1.668,1.043,1.359,1.586.391.307,1.237.972,1.624.718.091-.06.535-1.679.378-1.661" transform="translate(-2161.884 -969.845)" fill="#fff"/>
      <path id="Path_6336" data-name="Path 6336" d="M2363.7,1035.379c-.073.555-.828.914-1.686.8s-1.495-.654-1.422-1.209.827-.914,1.686-.8,1.495.654,1.422,1.209" transform="translate(-2126.177 -931.457)" fill="#db765e"/>
      <path id="Path_6337" data-name="Path 6337" d="M2161.366,1420.5c-.406-15.746-.55-16.983-1.057-17.068-.788-.131-1.995,2.6-3.221,6.283,1.427,4.3,2.412,8.41,1.862,11.314-1.47,7.757-1.359,22.429-1.359,22.429a39.634,39.634,0,0,0,4.543.743c-.092-2-.2-4.627-.314-7.691-.2-5.623-.3-9.947-.453-16.01" transform="translate(-1942.887 -1264.07)" fill="#f7f7f9"/>
      <path id="Path_6338" data-name="Path 6338" d="M1965.719,2749.258a7.461,7.461,0,0,1-1-3.3,9.221,9.221,0,0,1,.46-3.051c.485-1.789.846-1.852,1.128-3.3a12.867,12.867,0,0,0,.167-2.883c-.024-1.488-.187-1.817-.209-3.009a13.924,13.924,0,0,1,.154-2.318,4.231,4.231,0,0,0-.948,1.357c-.313.8-.1,1.94-.1,3.452,0,1.2,0,1.954-.057,2.662-.155,2.031-.647,2.405-1.02,4.644a9.54,9.54,0,0,0-.227,3.4,7.362,7.362,0,0,0,3.342,4.7,9.485,9.485,0,0,0,1.176.624,8.406,8.406,0,0,1-2.864-2.975" transform="translate(-1768.96 -2460.164)" fill="#04041c"/>
      <path id="Path_6339" data-name="Path 6339" d="M2345.878,2815.169a11.307,11.307,0,0,0-1.36,4.3,5.914,5.914,0,0,0,.34,3.287c.03.059.061.114.092.167.265-1.317.607-2.8,1.054-4.411,1.1-3.984,1.643-4.408,2.173-7.021.025-.125.052-.26.077-.413-.566-.162-1.1-.338-1.591-.521a10.947,10.947,0,0,1-.786,4.615" transform="translate(-2111.635 -2531.464)" fill="#d8745d"/>
      <path id="Path_6340" data-name="Path 6340" d="M2331.767,2019.337c-.389-6.488-.623-6.359-.669-10.03-.054-4.262-.067-6.6.669-9.7.4-1.686.785-2.592,1.17-4.848a40.318,40.318,0,0,0,.5-6.018,42.348,42.348,0,0,0-2.006-12.035c-1.23-3.817-2.687-19-1.66-33.58-.914.824-2.6-.191-2.862.845-2.557,10.1,2.8,39.811,3.124,41.865.316,1.989.739,2.41.906,4.3.175,1.979-.153,3.073-.679,5.942a56.266,56.266,0,0,0-1.246,10.114c0,.543.11,2.266.34,5.689.485,7.222.478,6.577.567,8.217.215,3.981.375,6.937.333,9.165.494.184,1.025.36,1.59.521.191-1.137.352-3.312-.077-10.452" transform="translate(-2095.225 -1750.177)" fill="#193584"/>
      <path id="Path_6341" data-name="Path 6341" d="M2332.983,2867.325a21.994,21.994,0,0,0-.793,3.059,9.4,9.4,0,0,1-.567,2.435,2.02,2.02,0,0,0-.4,1.076c.019.364.213.768.85,1.3a8.862,8.862,0,0,0,3.625,1.586,9.331,9.331,0,0,1,2.266.68,7.336,7.336,0,0,1,1.926,1.7c.79.9.769,1.132,1.3,1.756a7.938,7.938,0,0,0,3.229,2.1,9.778,9.778,0,0,0,3.908.906,4.254,4.254,0,0,0,3.115-.793,2.85,2.85,0,0,0,.906-1.642,3.28,3.28,0,0,0-.736-2.379,56.794,56.794,0,0,0-5.891-5.437c-.375-.142-1.825,1.066-3.978.173-5.6-2.324-8.474-7.35-8.766-6.517" transform="translate(-2099.733 -2582.514)" fill="#191960"/>
      <path id="Path_6342" data-name="Path 6342" d="M2350.776,2928.5a5.317,5.317,0,0,1-2.675.292,8.589,8.589,0,0,1-2.758-.71,9.4,9.4,0,0,1-2.549-1.463,19.892,19.892,0,0,1-1.88-2.048,19.6,19.6,0,0,0-2.048-2.3,15.981,15.981,0,0,0-2.3-1.379,25.676,25.676,0,0,1-3.469-1.964,9.318,9.318,0,0,1-1.27-1.2,1.937,1.937,0,0,1-.205.572,2.019,2.019,0,0,0-.4,1.076c.019.364.213.768.85,1.3a8.862,8.862,0,0,0,3.625,1.586,9.327,9.327,0,0,1,2.266.68,7.341,7.341,0,0,1,1.926,1.7c.79.9.769,1.132,1.3,1.756a7.943,7.943,0,0,0,3.229,2.1,9.786,9.786,0,0,0,3.908.906,4.258,4.258,0,0,0,3.115-.793,2.9,2.9,0,0,0,.862-1.42,3.8,3.8,0,0,1-1.533,1.309" transform="translate(-2099.733 -2627.999)" fill="#04041c"/>
      <path id="Path_6343" data-name="Path 6343" d="M1972.381,1695.42l-4.421-6.819-14.162-3.352-1.294,5.466-.735,3.106-6.2,26.213,43.481,10.29,6.939-29.319Z" transform="translate(-1752.369 -1517.903)" fill="#f7b103"/>
      <rect id="Rectangle_2712" data-name="Rectangle 2712" width="25.221" height="37.035" transform="translate(197.218 200.17) rotate(-76.685)" fill="#f3f6ff"/>
      <path id="Path_6344" data-name="Path 6344" d="M1970.661,1821.764l3.259-2.046,20.769,4.915-5.807,24.538-43.481-10.29,5.176-21.87Z" transform="translate(-1752.222 -1636.58)" fill="#ffc533"/>
      <path id="Path_6345" data-name="Path 6345" d="M1952.591,1820.042l18.07,1.722-20.084-4.753-5.176,21.87.46.109Z" transform="translate(-1752.222 -1636.58)" fill="#ffdd50"/>
      <path id="Path_6346" data-name="Path 6346" d="M2044.035,1918.132a36.117,36.117,0,0,1-3.974,6.662,23.184,23.184,0,0,1-11.548,8.281,21.709,21.709,0,0,1-8.831.631c-4.443-.491-10.865-1.311-18.859-2.443l37.978,8.988Z" transform="translate(-1802.139 -1727.66)" fill="#ffb31a"/>
      <rect id="Rectangle_2713" data-name="Rectangle 2713" width="13.826" height="3.703" transform="matrix(0.23, -0.973, 0.973, 0.23, 230.299, 199.381)" fill="#ef8800"/>
      <rect id="Rectangle_2714" data-name="Rectangle 2714" width="12.608" height="0.502" transform="matrix(0.23, -0.973, 0.973, 0.23, 232.137, 198.564)" fill="#fff"/>
      <rect id="Rectangle_2715" data-name="Rectangle 2715" width="0.375" height="1.213" transform="matrix(0.23, -0.973, 0.973, 0.23, 233.805, 187.342)" fill="#fff"/>
      <rect id="Rectangle_2716" data-name="Rectangle 2716" width="0.375" height="1.213" transform="matrix(0.23, -0.973, 0.973, 0.23, 233.532, 188.493)" fill="#fff"/>
      <rect id="Rectangle_2717" data-name="Rectangle 2717" width="0.375" height="1.213" transform="matrix(0.23, -0.973, 0.973, 0.23, 233.229, 189.771)" fill="#fff"/>
      <rect id="Rectangle_2718" data-name="Rectangle 2718" width="0.375" height="1.213" transform="matrix(0.23, -0.973, 0.973, 0.23, 232.906, 191.14)" fill="#fff"/>
      <rect id="Rectangle_2719" data-name="Rectangle 2719" width="0.375" height="1.213" transform="matrix(0.23, -0.973, 0.973, 0.23, 232.56, 192.599)" fill="#fff"/>
      <rect id="Rectangle_2720" data-name="Rectangle 2720" width="0.375" height="1.213" transform="matrix(0.23, -0.973, 0.973, 0.23, 232.197, 194.135)" fill="#fff"/>
      <rect id="Rectangle_2721" data-name="Rectangle 2721" width="0.375" height="1.213" transform="matrix(0.23, -0.973, 0.973, 0.23, 231.877, 195.487)" fill="#fff"/>
      <rect id="Rectangle_2722" data-name="Rectangle 2722" width="0.375" height="1.213" transform="matrix(0.23, -0.973, 0.973, 0.23, 231.566, 196.801)" fill="#fff"/>
      <rect id="Rectangle_2723" data-name="Rectangle 2723" width="0.375" height="1.213" transform="matrix(0.23, -0.973, 0.973, 0.23, 231.201, 198.343)" fill="#fff"/>
      <rect id="Rectangle_2724" data-name="Rectangle 2724" width="0.375" height="1.213" transform="matrix(0.23, -0.973, 0.973, 0.23, 234.91, 188.265)" fill="#fff"/>
      <rect id="Rectangle_2725" data-name="Rectangle 2725" width="0.375" height="1.213" transform="matrix(0.23, -0.973, 0.973, 0.23, 234.641, 189.404)" fill="#fff"/>
      <rect id="Rectangle_2726" data-name="Rectangle 2726" width="0.375" height="1.213" transform="matrix(0.23, -0.973, 0.973, 0.23, 234.322, 190.752)" fill="#fff"/>
      <rect id="Rectangle_2727" data-name="Rectangle 2727" width="0.375" height="1.213" transform="matrix(0.23, -0.973, 0.973, 0.23, 234.012, 192.059)" fill="#fff"/>
      <rect id="Rectangle_2728" data-name="Rectangle 2728" width="0.375" height="1.213" transform="matrix(0.23, -0.973, 0.973, 0.23, 233.663, 193.535)" fill="#fff"/>
      <rect id="Rectangle_2729" data-name="Rectangle 2729" width="0.375" height="1.213" transform="matrix(0.23, -0.973, 0.973, 0.23, 233.296, 195.084)" fill="#fff"/>
      <rect id="Rectangle_2730" data-name="Rectangle 2730" width="0.375" height="1.213" transform="matrix(0.23, -0.973, 0.973, 0.23, 232.966, 196.48)" fill="#fff"/>
      <rect id="Rectangle_2731" data-name="Rectangle 2731" width="0.375" height="1.213" transform="matrix(0.23, -0.973, 0.973, 0.23, 232.668, 197.741)" fill="#fff"/>
      <rect id="Rectangle_2732" data-name="Rectangle 2732" width="0.375" height="1.213" transform="matrix(0.23, -0.973, 0.973, 0.23, 235.197, 187.055)" fill="#fff"/>
      <path id="Path_6347" data-name="Path 6347" d="M2092.969,1614.944c-.687,2.054.96,10.436,1.528,14.477a63.145,63.145,0,0,0,2.719,11.932c.871,2.584,1.694,4.434,1.662,7.25-.01.874-.1,1.409-.151,3.7-.022.918-.011,1,0,4.531.01,3.143,0,3.426.227,4,.333.859,1.052,1.579,2.492,3.021,2.033,2.036,2.887,2.255,3.474,2.266a2.193,2.193,0,0,0,1.36-.378,1.754,1.754,0,0,0,.755-1.133c.066-.6-.375-.784-.68-1.737-.276-.862-.23-1.7-.075-1.737.2-.052.4,1.237,1.208,1.435a1.025,1.025,0,0,0,1.057-.378c.274-.441-.158-.954-.453-1.964a13.977,13.977,0,0,1-.227-2.794,21.079,21.079,0,0,0-.377-2.87,12.207,12.207,0,0,0-1.057-3.172,15.155,15.155,0,0,0-1.435-2.115,12.589,12.589,0,0,1-1.662-4.607,73.9,73.9,0,0,1-1.208-10.346c-.814-11.832-1.84-11.387-1.284-16.086.222-1.879-.079-6.5-.7-6.849a5.724,5.724,0,0,0-7.175,3.549" transform="translate(-1884.987 -1451.109)" fill="#eb8e6c"/>
      <path id="Path_6348" data-name="Path 6348" d="M2204.129,2112.876a.171.171,0,0,1-.242.011,12.393,12.393,0,0,1-1.338-1.463,4.293,4.293,0,0,1-.734-1.209,3.869,3.869,0,0,1-.176-.858c-.016-.118-.035-.255-.059-.42-.057-.394-.123-.792-.195-1.187a.17.17,0,0,1,.334-.061c.073.4.139.8.2,1.2.024.166.043.3.059.423a3.564,3.564,0,0,0,.16.792,3.832,3.832,0,0,0,.682,1.113,11.989,11.989,0,0,0,1.3,1.422A.169.169,0,0,1,2204.129,2112.876Z" transform="translate(-1982.784 -1898.269)" fill="#db765e"/>
      <path id="Path_6349" data-name="Path 6349" d="M2179.543,2106.942a.17.17,0,0,1-.216-.111,7.164,7.164,0,0,1-.171-.7,7.323,7.323,0,0,1-.123-1.339c-.005-.22-.011-.447-.031-.709a8.712,8.712,0,0,0-.226-1.391.17.17,0,1,1,.33-.082,9.11,9.11,0,0,1,.235,1.447c.021.271.027.5.032.727a7.075,7.075,0,0,0,.117,1.283,6.72,6.72,0,0,0,.162.661.17.17,0,0,1-.109.212" transform="translate(-1962.418 -1893.705)" fill="#db765e"/>
      <path id="Path_6350" data-name="Path 6350" d="M2163.3,2101.642a.18.18,0,0,1-.186-.181q-.06-.725-.125-1.457-.047-.527-.094-1.051a.2.2,0,0,1,.15-.224.18.18,0,0,1,.188.18q.048.524.095,1.052.064.732.125,1.459a.2.2,0,0,1-.152.222Z" transform="translate(-1948.115 -1890.322)" fill="#db765e"/>
      <path id="Path_6351" data-name="Path 6351" d="M2220.817,2064.111a.2.2,0,0,1-.245-.117,10.966,10.966,0,0,1-.561-3.238,10.85,10.85,0,0,1,.163-2.1.193.193,0,0,1,.226-.147.18.18,0,0,1,.155.206,10.544,10.544,0,0,0,.386,5.177A.177.177,0,0,1,2220.817,2064.111Z" transform="translate(-1999.561 -1854.09)" fill="#db765e"/>
      <path id="Path_6352" data-name="Path 6352" d="M2082.334,1307.275c-1.026-2.2-.677-27.081-.209-31.251.5-4.423.783-6.748,2.039-7.137,2.04-.631,5.161,4.3,5.664,5.1a22.274,22.274,0,0,1,3.285,11.1c.031.962-.36,20.348-1.943,21.962-.183.186-8.326,1.322-8.836.226" transform="translate(-1874.957 -1142.836)" fill="#fff"/>
      <path id="Path_6353" data-name="Path 6353" d="M1154.132,2193.792l-48.731,0,0-56.666h35.962l12.768,12.77Z" transform="translate(-995.634 -1924.905)" fill="#f3f6ff"/>
      <rect id="Rectangle_2733" data-name="Rectangle 2733" width="11.111" height="2.16" transform="translate(116.015 219.088)" fill="#dce3f4"/>
      <rect id="Rectangle_2734" data-name="Rectangle 2734" width="8.138" height="2.16" transform="translate(116.014 224.501)" fill="#dce3f4"/>
      <rect id="Rectangle_2735" data-name="Rectangle 2735" width="12.092" height="2.16" transform="translate(126.767 224.502)" fill="#dce3f4"/>
      <rect id="Rectangle_2736" data-name="Rectangle 2736" width="10.531" height="2.16" transform="translate(140.885 224.503)" fill="#dce3f4"/>
      <rect id="Rectangle_2737" data-name="Rectangle 2737" width="8.138" height="2.16" transform="translate(116.014 234.248)" fill="#dce3f4"/>
      <rect id="Rectangle_2738" data-name="Rectangle 2738" width="12.092" height="2.16" transform="translate(126.767 234.249)" fill="#dce3f4"/>
      <rect id="Rectangle_2739" data-name="Rectangle 2739" width="10.531" height="2.16" transform="translate(140.884 234.25)" fill="#dce3f4"/>
      <rect id="Rectangle_2740" data-name="Rectangle 2740" width="12.092" height="2.16" transform="translate(116.187 229.375)" fill="#dce3f4"/>
      <rect id="Rectangle_2741" data-name="Rectangle 2741" width="9.375" height="2.16" transform="translate(131.51 229.376)" fill="#dce3f4"/>
      <rect id="Rectangle_2742" data-name="Rectangle 2742" width="8.138" height="2.16" transform="translate(116.013 243.996)" fill="#dce3f4"/>
      <rect id="Rectangle_2743" data-name="Rectangle 2743" width="12.092" height="2.16" transform="translate(126.766 243.997)" fill="#dce3f4"/>
      <rect id="Rectangle_2744" data-name="Rectangle 2744" width="10.531" height="2.16" transform="translate(140.883 243.998)" fill="#dce3f4"/>
      <rect id="Rectangle_2745" data-name="Rectangle 2745" width="12.092" height="2.16" transform="translate(116.187 239.122)" fill="#dce3f4"/>
      <rect id="Rectangle_2746" data-name="Rectangle 2746" width="9.375" height="2.16" transform="translate(131.509 239.123)" fill="#dce3f4"/>
      <rect id="Rectangle_2747" data-name="Rectangle 2747" width="8.138" height="2.16" transform="translate(116.012 253.744)" fill="#dce3f4"/>
      <rect id="Rectangle_2748" data-name="Rectangle 2748" width="12.092" height="2.16" transform="translate(126.765 253.745)" fill="#dce3f4"/>
      <rect id="Rectangle_2749" data-name="Rectangle 2749" width="10.531" height="2.16" transform="translate(140.883 253.745)" fill="#dce3f4"/>
      <rect id="Rectangle_2750" data-name="Rectangle 2750" width="12.092" height="2.16" transform="translate(116.186 248.87)" fill="#dce3f4"/>
      <rect id="Rectangle_2751" data-name="Rectangle 2751" width="9.375" height="2.16" transform="translate(131.508 248.871)" fill="#dce3f4"/>
      <path id="Path_6354" data-name="Path 6354" d="M1154.368,2146.407l-3.925-3.948-3.781,3.948v-14.056h7.705Z" transform="translate(-1032.798 -1920.607)" fill="#ff6a48"/>
      <path id="Path_6355" data-name="Path 6355" d="M1467.584,2149.9h12.769l-12.768-12.77Z" transform="translate(-1321.851 -1924.912)" fill="#fff"/>
      <rect id="Rectangle_2752" data-name="Rectangle 2752" width="28.726" height="13.987" transform="translate(135.277 244.039)" fill="#ff6a48"/>
      <path id="Path_6356" data-name="Path 6356" d="M1434.5,2499.557h-1.169v1.961a.978.978,0,0,1-.18.638.6.6,0,0,1-.919,0,.975.975,0,0,1-.176-.631v-5.339a.929.929,0,0,1,.193-.662.826.826,0,0,1,.614-.2h1.637a3.921,3.921,0,0,1,1.117.123,1.626,1.626,0,0,1,.668.393,1.778,1.778,0,0,1,.427.671,2.571,2.571,0,0,1,.146.893,2.073,2.073,0,0,1-.593,1.6,2.526,2.526,0,0,1-1.765.546m-.309-3.175h-.859v2.117h.859a2.346,2.346,0,0,0,.754-.1.879.879,0,0,0,.462-.34,1.09,1.09,0,0,0,.159-.619,1.113,1.113,0,0,0-.245-.746,1.525,1.525,0,0,0-1.13-.307" transform="translate(-1289.851 -2247.54)" fill="#fff"/>
      <path id="Path_6357" data-name="Path 6357" d="M1432.493,2502.194a.594.594,0,0,1-.481-.223,1,1,0,0,1-.181-.645v-5.339a.955.955,0,0,1,.2-.677.852.852,0,0,1,.63-.205h1.637a3.955,3.955,0,0,1,1.123.124,1.652,1.652,0,0,1,.677.4,1.814,1.814,0,0,1,.433.679,2.61,2.61,0,0,1,.147.9,2.1,2.1,0,0,1-.6,1.62,2.555,2.555,0,0,1-1.781.552h-1.146v1.939a1,1,0,0,1-.185.652.59.59,0,0,1-.473.225m.168-7.045a.81.81,0,0,0-.6.192.914.914,0,0,0-.187.646v5.339a.96.96,0,0,0,.171.617.575.575,0,0,0,.885,0,.961.961,0,0,0,.175-.624v-1.983h1.191a2.517,2.517,0,0,0,1.75-.54,2.061,2.061,0,0,0,.586-1.588,2.561,2.561,0,0,0-.145-.885,1.768,1.768,0,0,0-.422-.663,1.608,1.608,0,0,0-.659-.387,3.926,3.926,0,0,0-1.11-.122Zm1.327,3.171h-.881v-2.161h.881a1.551,1.551,0,0,1,1.146.315,1.139,1.139,0,0,1,.25.761,1.118,1.118,0,0,1-.163.632.907.907,0,0,1-.473.349,2.383,2.383,0,0,1-.761.105m-.837-.045h.837a2.339,2.339,0,0,0,.747-.1.863.863,0,0,0,.451-.332,1.072,1.072,0,0,0,.155-.606,1.1,1.1,0,0,0-.24-.732,1.515,1.515,0,0,0-1.113-.3h-.837Z" transform="translate(-1289.649 -2247.338)" fill="#fff"/>
      <path id="Path_6358" data-name="Path 6358" d="M1493.59,2499.561h-1.168v1.961a.977.977,0,0,1-.18.638.6.6,0,0,1-.919,0,.975.975,0,0,1-.176-.631v-5.339a.928.928,0,0,1,.193-.661.826.826,0,0,1,.614-.2h1.637a3.9,3.9,0,0,1,1.117.123,1.619,1.619,0,0,1,.668.392,1.785,1.785,0,0,1,.427.671,2.579,2.579,0,0,1,.146.893,2.073,2.073,0,0,1-.593,1.6,2.525,2.525,0,0,1-1.766.546m-.309-3.175h-.859v2.117h.859a2.34,2.34,0,0,0,.754-.1.88.88,0,0,0,.462-.34,1.09,1.09,0,0,0,.159-.619,1.114,1.114,0,0,0-.245-.747,1.526,1.526,0,0,0-1.13-.307" transform="translate(-1343.074 -2247.543)" fill="#fff"/>
      <path id="Path_6359" data-name="Path 6359" d="M1491.584,2502.2a.593.593,0,0,1-.481-.223,1,1,0,0,1-.181-.645v-5.339a.955.955,0,0,1,.2-.677.852.852,0,0,1,.63-.205h1.637a3.953,3.953,0,0,1,1.123.124,1.651,1.651,0,0,1,.677.4,1.812,1.812,0,0,1,.433.679,2.61,2.61,0,0,1,.147.9,2.1,2.1,0,0,1-.6,1.62,2.556,2.556,0,0,1-1.781.552h-1.146v1.938a1,1,0,0,1-.185.652.591.591,0,0,1-.473.225m.168-7.045a.809.809,0,0,0-.6.192.913.913,0,0,0-.187.646v5.339a.959.959,0,0,0,.171.617.574.574,0,0,0,.885,0,.961.961,0,0,0,.175-.624v-1.983h1.191a2.517,2.517,0,0,0,1.75-.54,2.062,2.062,0,0,0,.586-1.588,2.561,2.561,0,0,0-.145-.885,1.769,1.769,0,0,0-.422-.663,1.609,1.609,0,0,0-.659-.387,3.926,3.926,0,0,0-1.11-.122Zm1.327,3.171h-.881v-2.161h.881a1.551,1.551,0,0,1,1.146.314,1.14,1.14,0,0,1,.25.761,1.12,1.12,0,0,1-.163.632.907.907,0,0,1-.473.349,2.385,2.385,0,0,1-.761.1m-.837-.044h.837a2.338,2.338,0,0,0,.747-.1.864.864,0,0,0,.451-.332,1.073,1.073,0,0,0,.155-.607,1.1,1.1,0,0,0-.239-.732,1.515,1.515,0,0,0-1.113-.3h-.837Z" transform="translate(-1342.872 -2247.341)" fill="#fff"/>
      <path id="Path_6360" data-name="Path 6360" d="M1548.8,2496.494H1547.4v5.032a.99.99,0,0,1-.176.645.567.567,0,0,1-.455.21.574.574,0,0,1-.462-.213.983.983,0,0,1-.178-.643v-5.032h-1.392a.662.662,0,0,1-.485-.158.563.563,0,0,1-.159-.418.556.556,0,0,1,.165-.425.674.674,0,0,1,.479-.156h4.055a.67.67,0,0,1,.492.161.568.568,0,0,1,.161.42.556.556,0,0,1-.163.418.678.678,0,0,1-.49.158" transform="translate(-1390.767 -2247.547)" fill="#fff"/>
      <path id="Path_6361" data-name="Path 6361" d="M1546.571,2502.2a.6.6,0,0,1-.479-.221,1.007,1.007,0,0,1-.183-.657v-5.01h-1.37a.688.688,0,0,1-.5-.165.588.588,0,0,1-.166-.434.58.58,0,0,1,.173-.442.7.7,0,0,1,.494-.162h4.055a.694.694,0,0,1,.508.167.592.592,0,0,1,.167.436.579.579,0,0,1-.17.434.7.7,0,0,1-.505.165h-1.369v5.01a1.013,1.013,0,0,1-.181.659.59.59,0,0,1-.472.218m-2.031-7.045a.654.654,0,0,0-.464.15.537.537,0,0,0-.158.409.544.544,0,0,0,.152.4.644.644,0,0,0,.47.152h1.414v5.054a.967.967,0,0,0,.173.628.555.555,0,0,0,.445.2.549.549,0,0,0,.438-.2.973.973,0,0,0,.171-.631v-5.054h1.414a.66.66,0,0,0,.474-.152.537.537,0,0,0,.157-.4.549.549,0,0,0-.155-.4.652.652,0,0,0-.476-.154Z" transform="translate(-1390.565 -2247.345)" fill="#fff"/>
      <path id="Path_6362" data-name="Path 6362" d="M3332.581,1398.367l-48.731-.079.092-56.666,35.962.056,12.748,12.79Z" transform="translate(-2957.761 -1208.398)" fill="#f3f6ff"/>
      <rect id="Rectangle_2753" data-name="Rectangle 2753" width="2.16" height="11.111" transform="matrix(0.002, -1, 1, 0.002, 332.41, 142.264)" fill="#dce3f4"/>
      <rect id="Rectangle_2754" data-name="Rectangle 2754" width="2.16" height="8.138" transform="translate(332.401 147.677) rotate(-89.908)" fill="#dce3f4"/>
      <rect id="Rectangle_2755" data-name="Rectangle 2755" width="2.16" height="12.092" transform="translate(343.154 147.694) rotate(-89.907)" fill="#dce3f4"/>
      <rect id="Rectangle_2756" data-name="Rectangle 2756" width="2.16" height="10.531" transform="matrix(0.002, -1, 1, 0.002, 357.272, 147.717)" fill="#dce3f4"/>
      <rect id="Rectangle_2757" data-name="Rectangle 2757" width="2.16" height="8.138" transform="translate(332.386 157.424) rotate(-89.908)" fill="#dce3f4"/>
      <rect id="Rectangle_2758" data-name="Rectangle 2758" width="2.16" height="12.092" transform="translate(343.138 157.442) rotate(-89.907)" fill="#dce3f4"/>
      <rect id="Rectangle_2759" data-name="Rectangle 2759" width="2.16" height="10.531" transform="matrix(0.002, -1, 1, 0.002, 357.256, 157.465)" fill="#dce3f4"/>
      <rect id="Rectangle_2760" data-name="Rectangle 2760" width="2.16" height="12.092" transform="translate(332.567 152.551) rotate(-89.907)" fill="#dce3f4"/>
      <rect id="Rectangle_2761" data-name="Rectangle 2761" width="2.16" height="9.375" transform="matrix(0.002, -1, 1, 0.002, 347.889, 152.576)" fill="#dce3f4"/>
      <rect id="Rectangle_2762" data-name="Rectangle 2762" width="2.16" height="8.138" transform="translate(332.37 167.172) rotate(-89.908)" fill="#dce3f4"/>
      <rect id="Rectangle_2763" data-name="Rectangle 2763" width="2.16" height="12.092" transform="translate(343.123 167.189) rotate(-89.907)" fill="#dce3f4"/>
      <rect id="Rectangle_2764" data-name="Rectangle 2764" width="2.16" height="10.531" transform="matrix(0.002, -1, 1, 0.002, 357.24, 167.212)" fill="#dce3f4"/>
      <rect id="Rectangle_2765" data-name="Rectangle 2765" width="2.16" height="12.092" transform="translate(332.551 162.298) rotate(-89.907)" fill="#dce3f4"/>
      <rect id="Rectangle_2766" data-name="Rectangle 2766" width="2.16" height="9.375" transform="matrix(0.002, -1, 1, 0.002, 347.874, 162.323)" fill="#dce3f4"/>
      <rect id="Rectangle_2767" data-name="Rectangle 2767" width="2.16" height="8.138" transform="translate(332.354 176.92) rotate(-89.908)" fill="#dce3f4"/>
      <rect id="Rectangle_2768" data-name="Rectangle 2768" width="2.16" height="12.092" transform="translate(343.107 176.937) rotate(-89.907)" fill="#dce3f4"/>
      <rect id="Rectangle_2769" data-name="Rectangle 2769" width="2.16" height="10.531" transform="translate(357.225 176.96) rotate(-89.908)" fill="#dce3f4"/>
      <rect id="Rectangle_2770" data-name="Rectangle 2770" width="2.16" height="12.092" transform="translate(332.535 172.046) rotate(-89.907)" fill="#dce3f4"/>
      <rect id="Rectangle_2771" data-name="Rectangle 2771" width="2.16" height="9.375" transform="translate(347.858 172.071) rotate(-89.907)" fill="#dce3f4"/>
      <path id="Path_6363" data-name="Path 6363" d="M3333.489,1350.981l-3.919-3.954-3.787,3.942.022-14.056,7.706.013Z" transform="translate(-2995.53 -1204.156)" fill="#ff6a48"/>
      <path id="Path_6364" data-name="Path 6364" d="M3646.716,1354.958l12.769.021-12.748-12.789Z" transform="translate(-3284.594 -1208.909)" fill="#fff"/>
      <rect id="Rectangle_2772" data-name="Rectangle 2772" width="13.987" height="33.137" transform="translate(348.383 180.205) rotate(-89.907)" fill="#ff6a48"/>
      <path id="Path_6365" data-name="Path 6365" d="M3557.737,1711.646a4.134,4.134,0,0,0-1.119-.135l-1.662,0a.8.8,0,0,0-.614.209.986.986,0,0,0-.192.671l-.008,5.08a2.3,2.3,0,0,0,.053.551.559.559,0,0,0,.239.339.986.986,0,0,0,.536.12l1.662,0a4.5,4.5,0,0,0,.783-.061,2.368,2.368,0,0,0,.653-.214,2.218,2.218,0,0,0,.561-.405,2.9,2.9,0,0,0,.533-.744,3.612,3.612,0,0,0,.308-.934,6.112,6.112,0,0,0,.1-1.143,3.733,3.733,0,0,0-.986-2.834,2.026,2.026,0,0,0-.851-.5m.5,3.325a2.708,2.708,0,0,1-.636,2.034.979.979,0,0,1-.328.207,1.424,1.424,0,0,1-.368.093c-.119.012-.286.018-.5.018l-.944,0,.008-4.657h.82a3.125,3.125,0,0,1,.99.14,1.275,1.275,0,0,1,.68.641,3.269,3.269,0,0,1,.276,1.525" transform="translate(-3201.213 -1541.554)" fill="#fff"/>
      <path id="Path_6366" data-name="Path 6366" d="M3621.517,1710.9a3.155,3.155,0,0,0-1.693-.443,3.224,3.224,0,0,0-1.3.248,2.649,2.649,0,0,0-.971.72,3.267,3.267,0,0,0-.61,1.141,4.935,4.935,0,0,0-.212,1.471,5.1,5.1,0,0,0,.2,1.457,3.285,3.285,0,0,0,.593,1.157,2.669,2.669,0,0,0,.982.747,3.525,3.525,0,0,0,2.66.011,2.634,2.634,0,0,0,.98-.742,3.289,3.289,0,0,0,.6-1.146,5.106,5.106,0,0,0,.2-1.466,4.641,4.641,0,0,0-.36-1.9,2.776,2.776,0,0,0-1.07-1.254m-2.392.872a1.574,1.574,0,0,1,.7-.155,1.622,1.622,0,0,1,.938.283,1.792,1.792,0,0,1,.628.834,3.53,3.53,0,0,1,.22,1.31,3.493,3.493,0,0,1-.243,1.375,1.808,1.808,0,0,1-.646.821,1.592,1.592,0,0,1-.888.264,1.569,1.569,0,0,1-.692-.155,1.618,1.618,0,0,1-.559-.465,2.258,2.258,0,0,1-.377-.784,3.9,3.9,0,0,1-.133-1.062,3.812,3.812,0,0,1,.136-1.05,2.279,2.279,0,0,1,.367-.764,1.559,1.559,0,0,1,.551-.453" transform="translate(-3257.589 -1540.607)" fill="#fff"/>
      <path id="Path_6367" data-name="Path 6367" d="M3692.413,1714.82a.461.461,0,0,0-.405.181,1.586,1.586,0,0,0-.206.452,1.8,1.8,0,0,1-.568.87,1.441,1.441,0,0,1-.917.294,1.489,1.489,0,0,1-.872-.262,1.661,1.661,0,0,1-.575-.792,3.773,3.773,0,0,1-.2-1.337,3.187,3.187,0,0,1,.465-1.853,1.445,1.445,0,0,1,1.235-.646,1.324,1.324,0,0,1,.817.252,2.065,2.065,0,0,1,.578.763,1.809,1.809,0,0,0,.276.446.509.509,0,0,0,.383.135.5.5,0,0,0,.391-.192.665.665,0,0,0,.16-.439,1.767,1.767,0,0,0-.32-.946,2.575,2.575,0,0,0-.921-.838,2.769,2.769,0,0,0-1.372-.34,2.913,2.913,0,0,0-1.191.246,2.8,2.8,0,0,0-.976.72,3.3,3.3,0,0,0-.64,1.138,4.752,4.752,0,0,0-.225,1.5,5.213,5.213,0,0,0,.087.978,4.141,4.141,0,0,0,.264.867,3.536,3.536,0,0,0,.427.736,2.625,2.625,0,0,0,.616.585,2.454,2.454,0,0,0,.747.328,3.726,3.726,0,0,0,.912.106,2.723,2.723,0,0,0,1.161-.232,2.409,2.409,0,0,0,.821-.607,2.645,2.645,0,0,0,.471-.762,2.035,2.035,0,0,0,.151-.723.636.636,0,0,0-.168-.45.54.54,0,0,0-.407-.183" transform="translate(-3321.177 -1540.708)" fill="#fff"/>
      <path id="Path_6368" data-name="Path 6368" d="M3754.825,1716.847a3.862,3.862,0,0,0-.263-.5l-1.325-2.254,1.238-2.028a1.866,1.866,0,0,0,.335-.871.574.574,0,0,0-.811-.506.574.574,0,0,0-.19.154,1.908,1.908,0,0,0-.172.253l-.213.363-.993,1.648-.923-1.65a4.407,4.407,0,0,0-.412-.645.54.54,0,0,0-.431-.181.563.563,0,0,0-.409.164.511.511,0,0,0-.168.372,1.111,1.111,0,0,0,.085.412,4.172,4.172,0,0,0,.252.507l1.176,2-1.406,2.25h0a1.746,1.746,0,0,0-.318.867.648.648,0,0,0,.158.469.538.538,0,0,0,.4.163.64.64,0,0,0,.271-.053.632.632,0,0,0,.2-.147,1.253,1.253,0,0,0,.142-.187c.037-.061.1-.169.2-.331l1.16-1.941,1.086,1.888c.14.236.236.4.287.478a.7.7,0,0,0,.208.213.564.564,0,0,0,.317.087.6.6,0,0,0,.312-.083.578.578,0,0,0,.215-.225.656.656,0,0,0,.076-.313.991.991,0,0,0-.083-.38" transform="translate(-3377.51 -1540.767)" fill="#fff"/>
      <path id="Path_6369" data-name="Path 6369" d="M3317.774,575.828h-48.731V519.162l35.962,0,12.769,12.769Z" transform="translate(-2944.424 -467.607)" fill="#f3f6ff"/>
      <rect id="Rectangle_2773" data-name="Rectangle 2773" width="11.111" height="2.16" transform="translate(330.863 58.424)" fill="#dce3f4"/>
      <rect id="Rectangle_2774" data-name="Rectangle 2774" width="8.138" height="2.16" transform="translate(330.863 63.837)" fill="#dce3f4"/>
      <rect id="Rectangle_2775" data-name="Rectangle 2775" width="12.092" height="2.16" transform="translate(341.616 63.837)" fill="#dce3f4"/>
      <rect id="Rectangle_2776" data-name="Rectangle 2776" width="10.531" height="2.16" transform="translate(355.733 63.837)" fill="#dce3f4"/>
      <rect id="Rectangle_2777" data-name="Rectangle 2777" width="8.138" height="2.16" transform="translate(330.863 73.584)" fill="#dce3f4"/>
      <rect id="Rectangle_2778" data-name="Rectangle 2778" width="12.092" height="2.16" transform="translate(341.616 73.584)" fill="#dce3f4"/>
      <rect id="Rectangle_2779" data-name="Rectangle 2779" width="10.531" height="2.16" transform="translate(355.733 73.584)" fill="#dce3f4"/>
      <rect id="Rectangle_2780" data-name="Rectangle 2780" width="12.092" height="2.16" transform="translate(331.036 68.711)" fill="#dce3f4"/>
      <rect id="Rectangle_2781" data-name="Rectangle 2781" width="9.375" height="2.16" transform="translate(346.359 68.711)" fill="#dce3f4"/>
      <rect id="Rectangle_2782" data-name="Rectangle 2782" width="8.138" height="2.16" transform="translate(330.863 83.332)" fill="#dce3f4"/>
      <rect id="Rectangle_2783" data-name="Rectangle 2783" width="12.092" height="2.16" transform="translate(341.616 83.332)" fill="#dce3f4"/>
      <rect id="Rectangle_2784" data-name="Rectangle 2784" width="10.531" height="2.16" transform="translate(355.733 83.332)" fill="#dce3f4"/>
      <rect id="Rectangle_2785" data-name="Rectangle 2785" width="12.092" height="2.16" transform="translate(331.036 78.458)" fill="#dce3f4"/>
      <rect id="Rectangle_2786" data-name="Rectangle 2786" width="9.375" height="2.16" transform="translate(346.359 78.458)" fill="#dce3f4"/>
      <rect id="Rectangle_2787" data-name="Rectangle 2787" width="8.138" height="2.16" transform="translate(330.863 93.08)" fill="#dce3f4"/>
      <rect id="Rectangle_2788" data-name="Rectangle 2788" width="12.092" height="2.16" transform="translate(341.616 93.08)" fill="#dce3f4"/>
      <rect id="Rectangle_2789" data-name="Rectangle 2789" width="10.531" height="2.16" transform="translate(355.733 93.08)" fill="#dce3f4"/>
      <rect id="Rectangle_2790" data-name="Rectangle 2790" width="12.092" height="2.16" transform="translate(331.036 88.206)" fill="#dce3f4"/>
      <rect id="Rectangle_2791" data-name="Rectangle 2791" width="9.375" height="2.16" transform="translate(346.359 88.206)" fill="#dce3f4"/>
      <path id="Path_6370" data-name="Path 6370" d="M3317.981,528.459l-3.925-3.948-3.78,3.948V514.4h7.706Z" transform="translate(-2981.563 -463.322)" fill="#3845b8"/>
      <path id="Path_6371" data-name="Path 6371" d="M3631.2,531.93h12.769L3631.2,519.161Z" transform="translate(-3270.615 -467.608)" fill="#f8faff"/>
      <rect id="Rectangle_2792" data-name="Rectangle 2792" width="28.726" height="13.987" transform="translate(350.127 83.373)" fill="#3845b8"/>
      <path id="Path_6372" data-name="Path 6372" d="M3594.655,881.656l-1.329-2.252,1.234-2.03a1.863,1.863,0,0,0,.334-.872.574.574,0,0,0-.812-.5.572.572,0,0,0-.19.155,1.943,1.943,0,0,0-.172.253l-.213.364-.99,1.649-.926-1.649a4.394,4.394,0,0,0-.413-.644.54.54,0,0,0-.431-.18.564.564,0,0,0-.409.165.513.513,0,0,0-.168.373,1.118,1.118,0,0,0,.085.412,4.173,4.173,0,0,0,.253.506l1.179,2-1.4,2.252h0a1.747,1.747,0,0,0-.317.867.648.648,0,0,0,.159.469.54.54,0,0,0,.4.162.641.641,0,0,0,.271-.054.629.629,0,0,0,.2-.147,1.3,1.3,0,0,0,.142-.188c.037-.061.1-.169.2-.331l1.157-1.943,1.089,1.886c.14.236.237.4.288.478a.7.7,0,0,0,.209.212.564.564,0,0,0,.317.086.6.6,0,0,0,.312-.083.58.58,0,0,0,.214-.226.661.661,0,0,0,.076-.313.989.989,0,0,0-.084-.379,3.882,3.882,0,0,0-.263-.5" transform="translate(-3233.483 -788.965)" fill="#fff"/>
      <path id="Path_6373" data-name="Path 6373" d="M3652.6,881.838h-2.564v-5.019a1,1,0,0,0-.183-.655.606.606,0,0,0-.483-.218.586.586,0,0,0-.475.221,1.017,1.017,0,0,0-.179.652v5.335a.993.993,0,0,0,.188.672.8.8,0,0,0,.616.211h3.08a.682.682,0,0,0,.492-.165.574.574,0,0,0,.17-.43.588.588,0,0,0-.172-.432.666.666,0,0,0-.49-.172" transform="translate(-3286.396 -788.964)" fill="#fff"/>
      <path id="Path_6374" data-name="Path 6374" d="M3701.781,880.039a1.647,1.647,0,0,0-.479-.606,2.872,2.872,0,0,0-.74-.4,9.039,9.039,0,0,0-.966-.3c-.282-.078-.487-.139-.609-.179a1.785,1.785,0,0,1-.36-.168.874.874,0,0,1-.277-.253.6.6,0,0,1-.1-.347.692.692,0,0,1,.294-.557,1.235,1.235,0,0,1,.783-.234,1.111,1.111,0,0,1,.758.214,1.774,1.774,0,0,1,.407.605,1.67,1.67,0,0,0,.251.4.459.459,0,0,0,.349.127.518.518,0,0,0,.419-.209.727.727,0,0,0,.166-.465,1.4,1.4,0,0,0-.131-.571,1.764,1.764,0,0,0-.413-.558,2.1,2.1,0,0,0-.71-.425,2.9,2.9,0,0,0-1.011-.16,3.124,3.124,0,0,0-1.272.241,1.847,1.847,0,0,0-.83.691,1.877,1.877,0,0,0-.287,1.028,1.805,1.805,0,0,0,.272,1.016,1.912,1.912,0,0,0,.734.645,5.611,5.611,0,0,0,1.141.41,7.929,7.929,0,0,1,.807.24,1.2,1.2,0,0,1,.485.322.794.794,0,0,1,.185.545.883.883,0,0,1-.346.708,1.391,1.391,0,0,1-.907.286,1.324,1.324,0,0,1-.655-.141,1.068,1.068,0,0,1-.385-.359,2.917,2.917,0,0,1-.258-.548,1.159,1.159,0,0,0-.243-.429.484.484,0,0,0-.357-.148.547.547,0,0,0-.427.189.66.66,0,0,0-.167.452,1.84,1.84,0,0,0,.272.916,2.183,2.183,0,0,0,.705.752,2.839,2.839,0,0,0,1.55.391,3.01,3.01,0,0,0,1.354-.286,2.043,2.043,0,0,0,.87-.793,2.217,2.217,0,0,0,.3-1.141,2.112,2.112,0,0,0-.172-.9" transform="translate(-3329.798 -788.964)" fill="#fff"/>
    </g>
  </g>
</svg>
