<svg id="Group_1391" data-name="Group 1391" xmlns="http://www.w3.org/2000/svg" xmlns:xlink="http://www.w3.org/1999/xlink" width="209" height="135.45" viewBox="0 0 209 135.45">
  <defs>
    <clipPath id="clip-path">
      <rect id="Rectangle_1125" data-name="Rectangle 1125" width="209" height="135.45" fill="none"/>
    </clipPath>
    <clipPath id="clip-path-3">
      <rect id="Rectangle_1078" data-name="Rectangle 1078" width="28.831" height="25.273" fill="none"/>
    </clipPath>
    <clipPath id="clip-path-4">
      <rect id="Rectangle_1079" data-name="Rectangle 1079" width="181.029" height="117.341" fill="none"/>
    </clipPath>
    <clipPath id="clip-path-5">
      <rect id="Rectangle_1083" data-name="Rectangle 1083" width="22.674" height="18.692" fill="none"/>
    </clipPath>
    <clipPath id="clip-path-6">
      <rect id="Rectangle_1087" data-name="Rectangle 1087" width="8.308" height="12.939" fill="none"/>
    </clipPath>
    <clipPath id="clip-path-7">
      <rect id="Rectangle_1088" data-name="Rectangle 1088" width="8.771" height="17.345" fill="none"/>
    </clipPath>
    <clipPath id="clip-path-8">
      <rect id="Rectangle_1089" data-name="Rectangle 1089" width="1.647" height="2.316" fill="none"/>
    </clipPath>
    <clipPath id="clip-path-9">
      <rect id="Rectangle_1090" data-name="Rectangle 1090" width="2.315" height="2.314" fill="none"/>
    </clipPath>
    <clipPath id="clip-path-10">
      <rect id="Rectangle_1095" data-name="Rectangle 1095" width="4.787" height="6.004" fill="none"/>
    </clipPath>
    <clipPath id="clip-path-11">
      <rect id="Rectangle_1108" data-name="Rectangle 1108" width="13.011" height="0.937" fill="none"/>
    </clipPath>
    <clipPath id="clip-path-12">
      <rect id="Rectangle_1110" data-name="Rectangle 1110" width="11.663" height="0.936" fill="none"/>
    </clipPath>
    <clipPath id="clip-path-13">
      <rect id="Rectangle_1112" data-name="Rectangle 1112" width="8.188" height="0.936" fill="none"/>
    </clipPath>
    <clipPath id="clip-path-14">
      <rect id="Rectangle_1116" data-name="Rectangle 1116" width="14.607" height="4.191" fill="none"/>
    </clipPath>
  </defs>
  <g id="Group_1390" data-name="Group 1390" clip-path="url(#clip-path)">
    <g id="Group_1389" data-name="Group 1389" transform="translate(0 0)">
      <g id="Group_1388" data-name="Group 1388" clip-path="url(#clip-path)">
        <g id="Group_1354" data-name="Group 1354" transform="translate(51.526 30.212)" opacity="0.6">
          <g id="Group_1353" data-name="Group 1353">
            <g id="Group_1352" data-name="Group 1352" clip-path="url(#clip-path-3)">
              <path id="Path_2717" data-name="Path 2717" d="M612.557,348.458a12.541,12.541,0,0,0-11.73,3.055,24.174,24.174,0,0,0-7.042,13.247c-2.483,15.036,33.477,9.159,28.174-8.292-1.27-4.177-5.275-7.035-9.4-8.01" transform="translate(-593.662 -348.091)" fill="#edf2ff"/>
            </g>
          </g>
        </g>
        <g id="Group_1357" data-name="Group 1357" transform="translate(20.52 18.109)" opacity="0.6">
          <g id="Group_1356" data-name="Group 1356">
            <g id="Group_1355" data-name="Group 1355" clip-path="url(#clip-path-4)">
              <path id="Path_2718" data-name="Path 2718" d="M407.482,288.872c-9,12.818-23.118,21.421-37.5,28.17q-6.176,2.9-12.488,5.465-4.385,1.8-8.815,3.472h-96.3q-1.62-1.7-3.138-3.472c-9.374-10.957-15.408-23.941-11.728-38.922,3.76-15.3,17.317-27.791,33.131-31.114,10.707-2.25,22.177-.528,32.367-4.513,11.915-4.659,19.421-15.973,29.01-24.313,9.947-8.648,22.8-14.31,36.019-14.949s26.68,3.954,35.773,13.057a47.447,47.447,0,0,1,12.391,23.514,55.972,55.972,0,0,1-8.728,43.6" transform="translate(-236.426 -208.637)" fill="#edf2ff"/>
            </g>
          </g>
        </g>
        <path id="Path_2719" data-name="Path 2719" d="M868.363,233.247c-.035.149-.069.3-.1.441a.018.018,0,0,1-.007.014,18.653,18.653,0,0,1-2.055,5.655l-3.347-3.18,1.83-3.461.118-.219v0l0-.007.024.007.382.08Z" transform="translate(-787.963 -212.309)" fill="#f9b384"/>
        <path id="Path_2720" data-name="Path 2720" d="M873.14,159.819q-.01.162-.031.323a9.441,9.441,0,0,1-.187,1c-.052.222-.111.444-.174.656-.073.253-.153.5-.229.719-.021.055-.038.111-.055.163s-.031.094-.049.139a.018.018,0,0,1-.007.014c-.024.066-.045.129-.069.191a.05.05,0,0,1-.007.021c-.017.052-.038.1-.055.149-.122.323-.208.521-.208.521a4.45,4.45,0,0,1-2.906-1.795c-.069-.09-.135-.181-.2-.274,0-.007-.007-.01-.01-.017v0a10.115,10.115,0,0,1-1.427-4.072c0-.014,0-.024-.007-.038-.062-.434-.1-.816-.118-1.1a.561.561,0,0,1,.566-.6l.507.007.555-.937,3.909,1.743a12.719,12.719,0,0,1,.219,1.923,11.183,11.183,0,0,1-.017,1.267" transform="translate(-792.115 -141.443)" fill="#f9b384"/>
        <path id="Path_2721" data-name="Path 2721" d="M871.974,188.442,870.69,189.8l-.41-.076v0a10.116,10.116,0,0,1-1.427-4.072l.993.233a9.633,9.633,0,0,0,.587,1.989Z" transform="translate(-793.442 -169.534)" fill="#e28b6d"/>
        <path id="Path_2722" data-name="Path 2722" d="M868.911,167.537c-.406.337-1.073-.021-1.392-.229-.062-.434-.1-.816-.118-1.1a.561.561,0,0,1,.566-.6l.507.007s.941,1.5.437,1.923" transform="translate(-792.115 -151.233)" fill="#e28b6d"/>
        <path id="Path_2723" data-name="Path 2723" d="M889.61,189.8l-.169-.022L886.5,189.1l-.945,1.923,1.405.652a3.431,3.431,0,0,0-1.548,1.219,4.541,4.541,0,0,0,3.1,2.068,14.752,14.752,0,0,0,1.074-3.9,11.386,11.386,0,0,0,.017-1.269m-2.223,1.772c.083-.277.08-.717-.574-1l.856.061.115.927a1.323,1.323,0,0,0-.4.016" transform="translate(-808.568 -172.686)" fill="#f9b384"/>
        <path id="Path_2724" data-name="Path 2724" d="M674.926,248.849a84.137,84.137,0,0,1-14.887,23.493,39.042,39.042,0,0,1-5.992,5.51l-3.052-7.87-.382-.986.958-.858.174-.156,11.057-9.891,7.19-11.884Z" transform="translate(-594.144 -224.838)" fill="#1f3c88"/>
        <path id="Path_2725" data-name="Path 2725" d="M656.348,1414.3l-7.206.292-1.133,5.046,6.76,1.057Z" transform="translate(-591.766 -1291.546)" fill="#f9b384"/>
        <path id="Path_2726" data-name="Path 2726" d="M643.725,1483.16l-6.222-6.3-6.761-1.057-1.641,7.306Z" transform="translate(-574.499 -1347.71)" fill="#d3dfff"/>
        <rect id="Rectangle_1080" data-name="Rectangle 1080" width="0.348" height="3.404" transform="matrix(0.191, -0.982, 0.982, 0.191, 55.8, 130.261)" fill="#708cd5"/>
        <rect id="Rectangle_1081" data-name="Rectangle 1081" width="2.313" height="0.347" transform="translate(62.839 132.186) rotate(-23.158)" fill="#708cd5"/>
        <rect id="Rectangle_1082" data-name="Rectangle 1082" width="2.313" height="0.347" transform="matrix(0.919, -0.393, 0.393, 0.919, 64.184, 133.401)" fill="#708cd5"/>
        <path id="Path_2727" data-name="Path 2727" d="M560.065,841.548l12.6,23.46-6.612,28.158,12.287-.069,6.812-22.219a15.561,15.561,0,0,0-.759-11.1l-7.389-15.945Z" transform="translate(-511.455 -768.507)" fill="#102048"/>
        <path id="Path_2728" data-name="Path 2728" d="M213.671,734.995c-8.134,10.853-18.841,16.959-30.773,20.8a7.806,7.806,0,0,0,.587-1.3,4.249,4.249,0,0,0-.587-4.065l-.365-3.777,21.934-16.206,5.242,3.534Z" transform="translate(-166.69 -667.049)" fill="#a11c20"/>
        <path id="Path_2729" data-name="Path 2729" d="M49.144,518.619c4.265,8.287,4.493,19.784,11.943,20.23l34.707-22.38L85.582,498.755,57.8,509.723Z" transform="translate(-44.879 -455.466)" fill="#a11c20"/>
        <g id="Group_1360" data-name="Group 1360" transform="translate(16.207 68.755)" opacity="0.3">
          <g id="Group_1359" data-name="Group 1359">
            <g id="Group_1358" data-name="Group 1358" clip-path="url(#clip-path-5)">
              <path id="Path_2730" data-name="Path 2730" d="M187.32,810.859a4.248,4.248,0,0,0-.587-4.065c6.56-3.314,14.366-8.577,22.674-14.626a142.473,142.473,0,0,1-22.087,18.692" transform="translate(-186.733 -792.167)" fill="#611113"/>
            </g>
          </g>
        </g>
        <path id="Path_2731" data-name="Path 2731" d="M151.754,740.261c-7.8,13.649-20.938,19.826-38.022,24.861l5.141,3.4a4.92,4.92,0,0,0,5.534-.073c10.745-7.519,20.587-15.122,28.078-22.948Z" transform="translate(-103.861 -676.011)" fill="#e1272c"/>
        <path id="Path_2732" data-name="Path 2732" d="M50.94,483.265c-10.026-4.49-26.346,3.153-42.515,10.5a12.192,12.192,0,0,0-6.98,9.1L0,511.539c9.506-14.5,29.422-24.264,50.94-28.273" transform="translate(0 -440.098)" fill="#e1272c"/>
        <path id="Path_2733" data-name="Path 2733" d="M570.244,416.557c-.045,1.51-.108,2.777-.094,3.02l-5.808.9-3.329-2.437c1.583-1.809,2.319-5.937,3.236-9.512L567.9,410.7l2.368,1.41c.063,1.2.031,2.941-.021,4.444" transform="translate(-512.321 -373.069)" fill="#f9b384"/>
        <path id="Path_2734" data-name="Path 2734" d="M614.553,435.333a10.122,10.122,0,0,1-5.02-6.246l2.673.392,2.368,1.41c.063,1.2.031,2.941-.021,4.444" transform="translate(-556.63 -391.845)" fill="#e28b6d"/>
        <path id="Path_2735" data-name="Path 2735" d="M610.446,330.525a6.038,6.038,0,0,1-.278,2.191c-1.142,3.475-5.461,4.426-8.648-.021l-.267-6.867,2.253-1.941,7.325,2.829-.458,3.031a6.838,6.838,0,0,1,.073.778" transform="translate(-549.068 -295.776)" fill="#f9b384"/>
        <path id="Path_2736" data-name="Path 2736" d="M651.549,542.215c-1.137-7.8-6.256-19.417-11.7-24.312l-2.559,5.118,7.434,20.961Z" transform="translate(-581.978 -472.952)" fill="#708cd5"/>
        <path id="Path_2737" data-name="Path 2737" d="M559.419,519.135a102.58,102.58,0,0,0-8.043-24.312c-2.011,2.315-7.921-2.194-7.921-2.194l-3.047,2.62,8.043,27.379Z" transform="translate(-493.504 -449.872)" fill="#fff"/>
        <path id="Path_2738" data-name="Path 2738" d="M763.768,1094.059l-6.256-2.112-1.518,3.68,5.987,3.226Z" transform="translate(-690.378 -997.173)" fill="#f9b384"/>
        <path id="Path_2739" data-name="Path 2739" d="M737.163,1145.447l-3.656-7.881-5.987-3.226-2.706,6.557Z" transform="translate(-661.905 -1035.887)" fill="#d3dfff"/>
        <rect id="Rectangle_1084" data-name="Rectangle 1084" width="2.162" height="0.347" transform="matrix(0.964, -0.268, 0.268, 0.964, 70.484, 104.319)" fill="#708cd5"/>
        <rect id="Rectangle_1085" data-name="Rectangle 1085" width="2.162" height="0.347" transform="matrix(0.964, -0.268, 0.268, 0.964, 71.236, 105.881)" fill="#708cd5"/>
        <rect id="Rectangle_1086" data-name="Rectangle 1086" width="0.347" height="4.011" transform="translate(64.725 100.533) rotate(-63.437)" fill="#708cd5"/>
        <path id="Path_2740" data-name="Path 2740" d="M561.294,745.6c8.622.618,17.486,2.157,25.373,5.576,4.251,1.843,5.662,7.673,3.723,11.881l-7.81,16.95-11.334-3.534,7.2-15c-21.773.65-24.158-7.349-24.158-7.349Z" transform="translate(-506.184 -680.888)" fill="#1f3c88"/>
        <path id="Path_2741" data-name="Path 2741" d="M520.69,519.719c-2.84,5.086-6.982,7.881-12.1,9.832l-.583-5.18-1.069-9.506-1.646-14.651,1.1-5.194,5-2.375c5.485,5.787,7.263,18.72,9.3,27.073" transform="translate(-461.437 -449.887)" fill="#708cd5"/>
        <path id="Path_2742" data-name="Path 2742" d="M580.319,296.881c.1-1.879.616-2.883,2.015-3.464a8.055,8.055,0,0,0,10.01.1,4.822,4.822,0,0,1-2.17-1.2,5.29,5.29,0,0,1-1.023-1.581c-1.7-3.4-8.061-3.627-8.958-.358-3.935,1.909-2.034,4.8-1.392,6.565Z" transform="translate(-527.629 -263.052)" fill="#102048"/>
        <path id="Path_2743" data-name="Path 2743" d="M622.3,598.138l.448-3.27,2.011-1.036s1,.168.577,1.457-3.036,2.849-3.036,2.849" transform="translate(-568.293 -542.291)" fill="#e28b6d"/>
        <path id="Path_2744" data-name="Path 2744" d="M607.7,603.789l1.268-.769L610.6,600.3l2.191-1.1a.249.249,0,0,1,.342.128,1.3,1.3,0,0,1,.432,1.048,1.077,1.077,0,0,1,.365,1.375c.679.288.934.643.734,1.069a2.06,2.06,0,0,1,.364,1.566l-3.371,2.436-3.311,1.225Z" transform="translate(-554.956 -547.172)" fill="#f9b384"/>
        <g id="Group_1363" data-name="Group 1363" transform="translate(45.502 61.544)" opacity="0.3">
          <g id="Group_1362" data-name="Group 1362">
            <g id="Group_1361" data-name="Group 1361" clip-path="url(#clip-path-6)">
              <path id="Path_2745" data-name="Path 2745" d="M532.561,709.086c-1.371,5.6-3.732,9.974-7.239,12.939l-1.069-9.506Z" transform="translate(-524.253 -709.086)" fill="#1f3c88"/>
            </g>
          </g>
        </g>
        <path id="Path_2746" data-name="Path 2746" d="M406.108,492.629l-6.905.824a6.456,6.456,0,0,0-5.293,4.2,64.533,64.533,0,0,0-3.892,17.286,5.085,5.085,0,0,0,6.192,5.261c5.41-1.2,9.831-4.7,13.757-8.784l-.65-5.606-11.049,5.281Z" transform="translate(-356.157 -449.872)" fill="#708cd5"/>
        <path id="Path_2747" data-name="Path 2747" d="M581.358,376.3c-.419.915-1.1,1.534-1.992,1.127s-1.983-1.706-1.414-2.959c.416-.916,1.677-.971,2.564-.564a1.8,1.8,0,0,1,.841,2.4" transform="translate(-527.647 -341.23)" fill="#f9b384"/>
        <path id="Path_2748" data-name="Path 2748" d="M488.395,606.937c-.249.724-.517,1.44-.79,2.154s-.56,1.423-.839,2.134l-.881,2.117c-.3.7-.61,1.4-.94,2.093l-.126-.051c.245-.725.514-1.441.785-2.156l.844-2.132c.3-.7.58-1.414.886-2.115s.609-1.4.935-2.1Z" transform="translate(-442.74 -554.212)" fill="#1f3c88"/>
        <path id="Path_2749" data-name="Path 2749" d="M485.457,649.037c.9-.469,1.8-.932,2.715-1.38s1.826-.887,2.738-1.332l2.758-1.291c.924-.42,1.849-.839,2.785-1.234l.058.123c-.9.478-1.8.932-2.713,1.385l-2.74,1.328c-.92.428-1.835.868-2.76,1.286s-1.851.835-2.783,1.238Z" transform="translate(-443.323 -587.922)" fill="#1f3c88"/>
        <g id="Group_1366" data-name="Group 1366" transform="translate(53.747 46.488)" opacity="0.3">
          <g id="Group_1365" data-name="Group 1365">
            <g id="Group_1364" data-name="Group 1364" clip-path="url(#clip-path-7)">
              <path id="Path_2750" data-name="Path 2750" d="M619.348,535.848a2.864,2.864,0,0,0,1.963.643,2.939,2.939,0,0,0,1.868-.881l.107.083a2.477,2.477,0,0,1-1.954,1.143,2.521,2.521,0,0,1-2.08-.892Z" transform="translate(-619.252 -535.61)" fill="#1f3c88"/>
              <path id="Path_2751" data-name="Path 2751" d="M678.571,661.855a8.491,8.491,0,0,0,1.154-1.426,8.449,8.449,0,0,0,1.249-3.4,8.636,8.636,0,0,0,.054-1.833l.134-.02a6.287,6.287,0,0,1,.113,1.886,7.188,7.188,0,0,1-1.308,3.531,6.363,6.363,0,0,1-1.307,1.364Z" transform="translate(-673.423 -644.799)" fill="#1f3c88"/>
              <path id="Path_2752" data-name="Path 2752" d="M688.209,709.361a15.052,15.052,0,0,0,1.409-1.092c.444-.391.852-.816,1.265-1.256l.111.078a4.845,4.845,0,0,1-1.149,1.438,5.152,5.152,0,0,1-1.574.953Z" transform="translate(-682.224 -692.136)" fill="#1f3c88"/>
            </g>
          </g>
        </g>
        <path id="Path_2753" data-name="Path 2753" d="M588.936,384.689a1.684,1.684,0,0,0-.218-.446,1.356,1.356,0,0,0-.335-.34,1.585,1.585,0,0,0-.919-.281l-.019-.1a1.1,1.1,0,0,1,.559-.05,1.236,1.236,0,0,1,.9.658,1.116,1.116,0,0,1,.13.545Z" transform="translate(-536.459 -350.176)" fill="#e28b6d"/>
        <path id="Path_2754" data-name="Path 2754" d="M642.785,371.825c-.59-.162-.742.863-.651,1.237.085.351.37.452.614.171.224-.258.554-1.267.037-1.409" transform="translate(-586.378 -339.537)" fill="#102048"/>
        <path id="Path_2755" data-name="Path 2755" d="M684.595,376.134a.362.362,0,0,0-.644-.18.873.873,0,0,0-.151.409,1.634,1.634,0,0,0-.018.733c.1.288.36.418.555.145a1.609,1.609,0,0,0,.259-1.107" transform="translate(-624.4 -343.194)" fill="#102048"/>
        <path id="Path_2756" data-name="Path 2756" d="M666.8,384.814c-.006.271-.021.543-.013.8a1.2,1.2,0,0,0,.051.349.994.994,0,0,0,.2.285,2.637,2.637,0,0,1,.271.336.922.922,0,0,1,.1.225.416.416,0,0,1-.021.306.438.438,0,0,1-.214.188,1.686,1.686,0,0,1-.206.077,1.454,1.454,0,0,0-.358.133l-.086-.095a1.19,1.19,0,0,1,.359-.251c.119-.054.245-.129.247-.176a.369.369,0,0,0-.09-.234,3.152,3.152,0,0,0-.248-.295.961.961,0,0,1-.278-.856,3.727,3.727,0,0,1,.163-.82Z" transform="translate(-608.654 -351.394)" fill="#102048"/>
        <path id="Path_2757" data-name="Path 2757" d="M647.043,413.68l2.409,1.172c-.412.8-2.257.716-2.409-1.172" transform="translate(-590.884 -377.775)" fill="#fff"/>
        <g id="Group_1369" data-name="Group 1369" transform="translate(59.739 34.645)" opacity="0.4">
          <g id="Group_1368" data-name="Group 1368">
            <g id="Group_1367" data-name="Group 1367" clip-path="url(#clip-path-8)">
              <path id="Path_2758" data-name="Path 2758" d="M689.654,401.462a1,1,0,0,1-.2.021,1.158,1.158,0,0,1,0-2.316,1.168,1.168,0,0,1,.483.1,6.037,6.037,0,0,1-.278,2.191" transform="translate(-688.293 -399.167)" fill="#fc8879"/>
            </g>
          </g>
        </g>
        <g id="Group_1372" data-name="Group 1372" transform="translate(53.461 33.923)" opacity="0.4">
          <g id="Group_1371" data-name="Group 1371">
            <g id="Group_1370" data-name="Group 1370" clip-path="url(#clip-path-9)">
              <path id="Path_2759" data-name="Path 2759" d="M618.275,392a1.157,1.157,0,1,1-1.157-1.157A1.157,1.157,0,0,1,618.275,392" transform="translate(-615.96 -390.847)" fill="#fc8879"/>
            </g>
          </g>
        </g>
        <path id="Path_2760" data-name="Path 2760" d="M951.363,3.765A19.056,19.056,0,0,1,948.708.513,2.455,2.455,0,0,0,950.082,0a12.14,12.14,0,0,0,2.358,3.373c-.418-.138-.685.262-1.076.394" transform="translate(-866.367 0.002)" fill="#c6eae9"/>
        <path id="Path_2761" data-name="Path 2761" d="M400.068,358.075a17.158,17.158,0,0,1-2.391-2.929,2.21,2.21,0,0,0,1.237-.464,10.933,10.933,0,0,0,2.123,3.038c-.377-.124-.617.236-.969.355" transform="translate(-363.161 -323.898)" fill="#fbd682"/>
        <path id="Path_2762" data-name="Path 2762" d="M581.459,249.223a14.029,14.029,0,0,1,1.608-2.522,2.233,2.233,0,0,0,.492,1.015,8.414,8.414,0,0,0-1.721,2.3c.028-.348-.248-.505-.38-.8" transform="translate(-530.992 -225.289)" fill="#fbd682"/>
        <path id="Path_2763" data-name="Path 2763" d="M975.94,542.438a15.581,15.581,0,0,1,1.786-2.8,2.48,2.48,0,0,0,.546,1.127,9.342,9.342,0,0,0-1.911,2.558c.031-.386-.276-.561-.422-.884" transform="translate(-891.235 -492.8)" fill="#ee6f57"/>
        <path id="Path_2764" data-name="Path 2764" d="M1163.451,17.289a15.582,15.582,0,0,1,1.786-2.8,2.48,2.48,0,0,0,.546,1.127,9.337,9.337,0,0,0-1.911,2.558c.031-.386-.276-.561-.422-.885" transform="translate(-1062.471 -13.23)" fill="#708cd5"/>
        <path id="Path_2765" data-name="Path 2765" d="M239.774,324.305a14.028,14.028,0,0,0-1.608-2.522,2.233,2.233,0,0,1-.492,1.015,8.413,8.413,0,0,1,1.721,2.3c-.028-.348.248-.505.38-.8" transform="translate(-217.046 -293.854)" fill="#708cd5"/>
        <path id="Path_2766" data-name="Path 2766" d="M711.8,173.554a15.58,15.58,0,0,0-1.786-2.8,2.478,2.478,0,0,1-.546,1.127,9.342,9.342,0,0,1,1.911,2.558c-.031-.386.276-.561.422-.884" transform="translate(-647.89 -155.933)" fill="#d3dfff"/>
        <path id="Path_2767" data-name="Path 2767" d="M1064.688,189.958a23.924,23.924,0,0,1-4.026.433,1.717,1.717,0,0,0,.434-1.082,14.919,14.919,0,0,0,3.939-.195c-.353.214-.213.541-.348.844" transform="translate(-968.604 -172.7)" fill="#f5c7be"/>
        <path id="Path_2768" data-name="Path 2768" d="M389.9,98.215a14.44,14.44,0,0,0,3.625.6,3.183,3.183,0,0,1-.391-1.492,8.87,8.87,0,0,1-3.547-.268c.318.3.191.746.313,1.164" transform="translate(-355.773 -88.627)" fill="#c6eae9"/>
        <path id="Path_2769" data-name="Path 2769" d="M714.791,44.884a18,18,0,0,1-4.205,1.542,3.924,3.924,0,0,0,.2-1.863,10.933,10.933,0,0,0,4.17-1.134c-.326.425-.1.931-.168,1.455" transform="translate(-648.912 -39.659)" fill="#ee6f57"/>
        <path id="Path_2770" data-name="Path 2770" d="M997.169,389.906a15.829,15.829,0,0,1,2.6,2.5,2.221,2.221,0,0,0-1.143.613,10.114,10.114,0,0,0-2.355-2.638c.375.069.569-.31.9-.472" transform="translate(-909.803 -356.065)" fill="#c6eae9"/>
        <path id="Path_2771" data-name="Path 2771" d="M842.271,399.36a15.84,15.84,0,0,1,2.6,2.5,2.222,2.222,0,0,0-1.143.613,10.116,10.116,0,0,0-2.355-2.638c.375.069.569-.31.9-.472" transform="translate(-768.348 -364.698)" fill="#fbd682"/>
        <path id="Path_2772" data-name="Path 2772" d="M446.579,214.2a17.832,17.832,0,0,1,2.929,2.811,2.5,2.5,0,0,0-1.287.69,11.384,11.384,0,0,0-2.651-2.97c.422.077.641-.349,1.009-.531" transform="translate(-406.898 -195.607)" fill="#f5c7be"/>
        <path id="Path_2773" data-name="Path 2773" d="M1103.363,295.211a12.958,12.958,0,0,0,2-2.824,2.616,2.616,0,0,1-1.255-.628,8.6,8.6,0,0,1-1.727,2.969c.353-.089.626.318.983.483" transform="translate(-1006.701 -266.436)" fill="#f5c7be"/>
        <path id="Path_2774" data-name="Path 2774" d="M1369.681,283.7a14.015,14.015,0,0,1,1.608-2.522,2.23,2.23,0,0,0,.492,1.015,8.409,8.409,0,0,0-1.721,2.3c.028-.348-.249-.505-.38-.8" transform="translate(-1250.802 -256.771)" fill="#ee6f57"/>
        <path id="Path_2775" data-name="Path 2775" d="M1251.426,143.392a20,20,0,0,1-1.587,3.776,2.811,2.811,0,0,0-.865-1.2,12.046,12.046,0,0,0,1.781-3.519c.037.467.435.6.67.946" transform="translate(-1140.571 -130.082)" fill="#d3dfff"/>
        <path id="Path_2776" data-name="Path 2776" d="M1182.434,413.994a14.641,14.641,0,0,0,1.162,2.766,2.06,2.06,0,0,1,.633-.881,8.819,8.819,0,0,1-1.3-2.577c-.027.342-.319.438-.491.693" transform="translate(-1079.807 -377.429)" fill="#d3dfff"/>
        <path id="Path_2777" data-name="Path 2777" d="M1433.385,132.786a17.831,17.831,0,0,0-2.929,2.811,2.5,2.5,0,0,1,1.287.69,11.384,11.384,0,0,1,2.651-2.97c-.422.077-.641-.349-1.009-.531" transform="translate(-1306.302 -121.261)" fill="#fbd682"/>
        <rect id="Rectangle_1091" data-name="Rectangle 1091" width="198.936" height="0.347" transform="translate(10.065 135.103)" fill="#102048"/>
        <path id="Path_2778" data-name="Path 2778" d="M1981.8,877.467h-11.84s1.009-4.745,5.92-4.745a5.624,5.624,0,0,1,5.92,4.745" transform="translate(-1798.983 -796.975)" fill="#d3dfff"/>
        <rect id="Rectangle_1092" data-name="Rectangle 1092" width="0.347" height="4.734" transform="translate(174.876 76.158) rotate(-21.874)" fill="#102048"/>
        <rect id="Rectangle_1093" data-name="Rectangle 1093" width="4.786" height="12.78" transform="translate(144.006 66.987)" fill="#f5c7be"/>
        <g id="Group_1375" data-name="Group 1375" transform="translate(144.007 66.987)" opacity="0.6">
          <g id="Group_1374" data-name="Group 1374">
            <g id="Group_1373" data-name="Group 1373" clip-path="url(#clip-path-10)">
              <rect id="Rectangle_1094" data-name="Rectangle 1094" width="4.786" height="6.004" transform="translate(0 0)" fill="#ee6f57"/>
            </g>
          </g>
        </g>
        <path id="Path_2779" data-name="Path 2779" d="M1600.825,894.865h-18.051V894.6a2.81,2.81,0,0,1,2.81-2.81h12.43a2.81,2.81,0,0,1,2.81,2.81Z" transform="translate(-1445.4 -814.392)" fill="#ee6f57"/>
        <rect id="Rectangle_1096" data-name="Rectangle 1096" width="53.333" height="33.523" transform="translate(120.212 36.603)" fill="#f5c7be"/>
        <rect id="Rectangle_1097" data-name="Rectangle 1097" width="50.019" height="29.247" transform="translate(121.869 38.239)" fill="#fff"/>
        <rect id="Rectangle_1098" data-name="Rectangle 1098" width="1.892" height="4.663" transform="translate(145.38 58.797)" fill="#d3dfff"/>
        <rect id="Rectangle_1099" data-name="Rectangle 1099" width="1.892" height="5.881" transform="translate(148.743 57.579)" fill="#d3dfff"/>
        <rect id="Rectangle_1100" data-name="Rectangle 1100" width="1.892" height="8.722" transform="translate(152.106 54.738)" fill="#d3dfff"/>
        <rect id="Rectangle_1101" data-name="Rectangle 1101" width="1.892" height="10.141" transform="translate(155.469 53.318)" fill="#d3dfff"/>
        <rect id="Rectangle_1102" data-name="Rectangle 1102" width="1.892" height="7.811" transform="translate(158.831 55.648)" fill="#d3dfff"/>
        <rect id="Rectangle_1103" data-name="Rectangle 1103" width="1.892" height="10.519" transform="translate(162.194 52.94)" fill="#d3dfff"/>
        <rect id="Rectangle_1104" data-name="Rectangle 1104" width="1.892" height="13.036" transform="translate(165.557 50.424)" fill="#d3dfff"/>
        <path id="Path_2780" data-name="Path 2780" d="M1682.78,529.714l-.053-.343,3.385-.521,3.456-4.076,3.49-.184,3.388,2.085,2.911-2.483,4.493-5.112.26.229-4.511,5.13-3.121,2.664-3.511-2.161-3.232.17-3.443,4.061Z" transform="translate(-1536.678 -474.026)" fill="#d3dfff"/>
        <rect id="Rectangle_1105" data-name="Rectangle 1105" width="13.786" height="0.936" transform="translate(126.308 42.812)" fill="#d3dfff"/>
        <rect id="Rectangle_1106" data-name="Rectangle 1106" width="12.044" height="0.936" transform="translate(126.308 45.017)" fill="#d3dfff"/>
        <g id="Group_1378" data-name="Group 1378" transform="translate(126.309 47.223)" opacity="0.6">
          <g id="Group_1377" data-name="Group 1377">
            <g id="Group_1376" data-name="Group 1376" clip-path="url(#clip-path-11)">
              <rect id="Rectangle_1107" data-name="Rectangle 1107" width="13.011" height="0.936" transform="translate(0 0)" fill="#d3dfff"/>
            </g>
          </g>
        </g>
        <g id="Group_1381" data-name="Group 1381" transform="translate(126.309 49.429)" opacity="0.6">
          <g id="Group_1380" data-name="Group 1380">
            <g id="Group_1379" data-name="Group 1379" clip-path="url(#clip-path-12)">
              <rect id="Rectangle_1109" data-name="Rectangle 1109" width="11.664" height="0.936" transform="translate(0 0)" fill="#d3dfff"/>
            </g>
          </g>
        </g>
        <g id="Group_1384" data-name="Group 1384" transform="translate(126.309 51.634)" opacity="0.6">
          <g id="Group_1383" data-name="Group 1383">
            <g id="Group_1382" data-name="Group 1382" clip-path="url(#clip-path-13)">
              <rect id="Rectangle_1111" data-name="Rectangle 1111" width="8.188" height="0.936" transform="translate(0 0)" fill="#d3dfff"/>
            </g>
          </g>
        </g>
        <rect id="Rectangle_1113" data-name="Rectangle 1113" width="13.847" height="8.823" transform="translate(126.308 54.637)" fill="#d3dfff"/>
        <rect id="Rectangle_1114" data-name="Rectangle 1114" width="14.901" height="9.984" transform="translate(98.496 70.416)" fill="#fff"/>
        <path id="Path_2781" data-name="Path 2781" d="M1148.3,819.847h-15.2V809.561h15.2Zm-14.9-.3h14.6v-9.682h-14.6Z" transform="translate(-1034.749 -739.296)" fill="#102048"/>
        <g id="Group_1387" data-name="Group 1387" transform="translate(98.629 70.416)" opacity="0.6">
          <g id="Group_1386" data-name="Group 1386">
            <g id="Group_1385" data-name="Group 1385" clip-path="url(#clip-path-14)">
              <rect id="Rectangle_1115" data-name="Rectangle 1115" width="14.607" height="4.191" transform="translate(0 0)" fill="#d3dfff"/>
            </g>
          </g>
        </g>
        <rect id="Rectangle_1117" data-name="Rectangle 1117" width="18.489" height="3.987" transform="translate(96.702 68.659)" fill="#fff"/>
        <path id="Path_2782" data-name="Path 2782" d="M1131.217,793.612h-18.791v-4.289h18.791Zm-18.489-.3h18.186v-3.684h-18.186Z" transform="translate(-1015.875 -720.815)" fill="#102048"/>
        <rect id="Rectangle_1118" data-name="Rectangle 1118" width="97.88" height="3.751" transform="translate(91.465 80.502)" fill="#d3dfff"/>
        <path id="Path_2783" data-name="Path 2783" d="M1149.914,979.285h-.347V924.452h-97.544v54.834h-.347V924.1h98.238Z" transform="translate(-960.398 -843.898)" fill="#102048"/>
        <rect id="Rectangle_1119" data-name="Rectangle 1119" width="0.347" height="26.843" transform="translate(125.284 108.473) rotate(-4.279)" fill="#102048"/>
        <rect id="Rectangle_1120" data-name="Rectangle 1120" width="30.609" height="0.347" transform="matrix(0.362, -0.932, 0.932, 0.362, 106.574, 135.265)" fill="#102048"/>
        <rect id="Rectangle_1121" data-name="Rectangle 1121" width="0.347" height="30.659" transform="matrix(0.932, -0.361, 0.361, 0.932, 134.029, 106.851)" fill="#102048"/>
        <path id="Path_2784" data-name="Path 2784" d="M1426.708,1161.891l-23.842-4.117-4.041,6.849,14.817,1.544,13.107-3.475a.406.406,0,0,0-.04-.8" transform="translate(-1277.416 -1057.287)" fill="#89a6a5"/>
        <path id="Path_2785" data-name="Path 2785" d="M1245.957,920.907c-4.212,2.914-14.8,6.795-24.5,7.042-8.391.214-16.372-3.9-18.2-13.775-1.343-7.254-2.462-15.289-2.321-19.356a1.925,1.925,0,0,1,1.98-1.845l9.891.25a8.9,8.9,0,0,1,7.34,4.228c5.354,8.666,5.072,29.436,25.813,23.455" transform="translate(-1096.689 -815.47)" fill="#c6eae9"/>
        <rect id="Rectangle_1122" data-name="Rectangle 1122" width="16.574" height="36.284" transform="translate(161.527 99.007)" fill="#fff"/>
        <path id="Path_2786" data-name="Path 2786" d="M1876.111,1175.494H1859.22v-36.6h16.891Zm-16.574-.317h16.256V1139.21h-16.256Z" transform="translate(-1697.852 -1040.045)" fill="#102048"/>
        <path id="Path_2787" data-name="Path 2787" d="M1937.52,1207.143a2,2,0,1,1-2-2,2,2,0,0,1,2,2" transform="translate(-1765.71 -1100.548)" fill="#fbd682"/>
        <rect id="Rectangle_1123" data-name="Rectangle 1123" width="6.076" height="14.755" transform="translate(166.776 115.535)" fill="#fbd682"/>
      </g>
    </g>
  </g>
</svg>
