<svg id="Group_2171" data-name="Group 2171" xmlns="http://www.w3.org/2000/svg" xmlns:xlink="http://www.w3.org/1999/xlink" width="142" height="128" viewBox="0 0 142 128">
  <defs>
    <clipPath id="clip-path">
      <rect id="Rectangle_2123" data-name="Rectangle 2123" width="142" height="128" fill="none"/>
    </clipPath>
    <clipPath id="clip-path-5">
      <rect id="Rectangle_2091" data-name="Rectangle 2091" width="3.957" height="8.172" fill="none"/>
    </clipPath>
    <clipPath id="clip-path-7">
      <rect id="Rectangle_2095" data-name="Rectangle 2095" width="22.244" height="12.952" fill="none"/>
    </clipPath>
    <clipPath id="clip-path-8">
      <rect id="Rectangle_2096" data-name="Rectangle 2096" width="3.558" height="3.558" fill="none"/>
    </clipPath>
    <clipPath id="clip-path-9">
      <rect id="Rectangle_2097" data-name="Rectangle 2097" width="18.84" height="11.469" fill="none"/>
    </clipPath>
    <clipPath id="clip-path-10">
      <rect id="Rectangle_2098" data-name="Rectangle 2098" width="6.457" height="4.561" fill="none"/>
    </clipPath>
    <clipPath id="clip-path-11">
      <rect id="Rectangle_2100" data-name="Rectangle 2100" width="6.617" height="1.645" fill="none"/>
    </clipPath>
    <clipPath id="clip-path-12">
      <rect id="Rectangle_2101" data-name="Rectangle 2101" width="7.598" height="6.036" fill="none"/>
    </clipPath>
    <clipPath id="clip-path-14">
      <rect id="Rectangle_2104" data-name="Rectangle 2104" width="2.282" height="0.881" fill="none"/>
    </clipPath>
    <clipPath id="clip-path-15">
      <rect id="Rectangle_2105" data-name="Rectangle 2105" width="2.306" height="2.377" fill="none"/>
    </clipPath>
    <clipPath id="clip-path-24">
      <rect id="Rectangle_2121" data-name="Rectangle 2121" width="10.026" height="11.493" fill="none"/>
    </clipPath>
  </defs>
  <g id="Group_2170" data-name="Group 2170" clip-path="url(#clip-path)">
    <g id="Group_2109" data-name="Group 2109">
      <g id="Group_2108" data-name="Group 2108" clip-path="url(#clip-path)">
        <path id="Path_4919" data-name="Path 4919" d="M385.648,255.4s-2.734-.9-4.045,5.413a74.614,74.614,0,0,0-1.508,9.8s-.429,1.365-1.434.824-2.684-2.4-3.934-1.638c-1.3.786-1.33,2.481-.433,4.713s2.685,7.195,2.845,7.644.08,1.175-.663.916-5.44-3.287-6.743-.972,2.219,8.122,2.592,8.765.318.975.036,1.236-1.765-.905-3.136-1.711-3.1-1.5-3.742-.1.347,6.208,6.942,12.657l3.251,2.788,4.081-1.362c8.556-3.446,11.3-7.516,11.244-9.053s-1.924-1.555-3.5-1.333-3.39.735-3.551.386-.085-.678.5-1.129,6.06-4.477,5.739-7.113-5.818-1.63-6.6-1.674-.577-.752-.264-1.1,3.864-4.26,5.544-5.981,2.3-3.3,1.4-4.522c-.866-1.177-3.126-.1-4.261.013S385,271.557,385,271.557a74.609,74.609,0,0,0,2.343-9.634c1.2-6.335-1.748-6.537-1.748-6.537" transform="translate(-254.373 -177.8)" fill="#ebebeb"/>
        <path id="Path_4920" data-name="Path 4920" d="M399.352,317.889c.895-4.649,2.187-11.061,3.637-18.14s2.757-13.484,3.678-18.128l1.086-5.5.3-1.5.081-.388c.019-.087.032-.131.032-.131s0,.046-.018.134l-.067.391c-.063.35-.154.854-.27,1.5-.236,1.3-.592,3.185-1.04,5.509-.9,4.649-2.187,11.061-3.636,18.137s-2.758,13.487-3.679,18.131" transform="translate(-278.072 -190.856)" fill="#e0e0e0"/>
        <path id="Path_4921" data-name="Path 4921" d="M403.7,311.762a1.25,1.25,0,0,1,.183.25c.11.166.262.411.447.715.369.609.856,1.463,1.375,2.416l1.319,2.445.4.739a1.233,1.233,0,0,1,.136.278,1.276,1.276,0,0,1-.185-.249c-.11-.166-.262-.411-.444-.717-.363-.613-.838-1.473-1.358-2.426l-1.336-2.435-.407-.737a1.266,1.266,0,0,1-.134-.28" transform="translate(-281.095 -217.074)" fill="#e0e0e0"/>
        <path id="Path_4922" data-name="Path 4922" d="M417.735,323.395c-.021-.035,1.7-1.117,3.833-2.418s3.889-2.327,3.91-2.293-1.695,1.117-3.834,2.418-3.888,2.327-3.909,2.292" transform="translate(-290.871 -221.894)" fill="#e0e0e0"/>
        <path id="Path_4923" data-name="Path 4923" d="M408.789,364.141a1.333,1.333,0,0,1,.3-.1l.829-.226c.7-.191,1.666-.458,2.72-.79s2-.662,2.685-.907l.81-.289a.159.159,0,1,1,.021.053c-.186.083-.456.2-.794.333-.675.27-1.618.618-2.677.95s-2.031.585-2.739.751c-.354.081-.642.143-.842.18a1.3,1.3,0,0,1-.313.044" transform="translate(-284.642 -251.872)" fill="#e0e0e0"/>
        <path id="Path_4924" data-name="Path 4924" d="M391.625,352.152a1.143,1.143,0,0,1,.227.185c.139.126.337.312.58.544.485.463,1.148,1.111,1.874,1.833s1.378,1.381,1.844,1.863c.233.241.42.438.547.576a1.112,1.112,0,0,1,.186.226,1.151,1.151,0,0,1-.227-.185c-.139-.126-.337-.312-.58-.544-.485-.463-1.149-1.111-1.875-1.833s-1.378-1.38-1.844-1.863c-.233-.241-.42-.438-.547-.576a1.114,1.114,0,0,1-.186-.226" transform="translate(-272.691 -245.197)" fill="#e0e0e0"/>
        <path id="Path_4925" data-name="Path 4925" d="M379.751,382.448a1.836,1.836,0,0,1,.287.24l.745.694c.625.591,1.481,1.414,2.421,2.33s1.784,1.752,2.391,2.361l.713.728a1.821,1.821,0,0,1,.247.281,1.859,1.859,0,0,1-.287-.24l-.745-.694c-.625-.591-1.481-1.414-2.421-2.33s-1.784-1.751-2.39-2.361l-.713-.727a1.844,1.844,0,0,1-.248-.281" transform="translate(-264.423 -266.292)" fill="#e0e0e0"/>
        <path id="Path_4926" data-name="Path 4926" d="M401.768,396.027a2.116,2.116,0,0,1,.377-.135l1.041-.323c.879-.274,2.092-.655,3.419-1.113s2.52-.9,3.38-1.227l1.02-.386a2.162,2.162,0,0,1,.38-.126,2.066,2.066,0,0,1-.359.179c-.235.106-.577.254-1,.429-.852.352-2.04.812-3.371,1.269s-2.55.826-3.437,1.074c-.444.123-.8.219-1.055.279a2.1,2.1,0,0,1-.393.08" transform="translate(-279.754 -273.441)" fill="#e0e0e0"/>
        <path id="Path_4927" data-name="Path 4927" d="M170.751,25.6l-11.364-5.425a1.576,1.576,0,0,1-.743-2.1l7.509-15.73a1.576,1.576,0,0,1,2.1-.743l7.207,3.441,2.833,8.414-5.442,11.4a1.576,1.576,0,0,1-2.1.743" transform="translate(-110.358 -1.008)" fill="#ebebeb"/>
        <path id="Path_4928" data-name="Path 4928" d="M209.195,13.284l-2.113,4.427a1.466,1.466,0,0,0,.691,1.954l4.256,2.033Z" transform="translate(-144.092 -9.249)" fill="#f5f5f5"/>
        <path id="Path_4929" data-name="Path 4929" d="M206.64,29.231a1.63,1.63,0,0,0,.485,1.984,1.506,1.506,0,0,0,.125.1c.508.364,3.856,2.762,3.9,2.678l.568-1.19-4.257-2.032a1.5,1.5,0,0,1-.818-1.538" transform="translate(-143.778 -20.353)" fill="#e0e0e0"/>
        <path id="Path_4930" data-name="Path 4930" d="M192.5,20a18.7,18.7,0,0,1-2.678-1.152,18.672,18.672,0,0,1-2.58-1.358,18.652,18.652,0,0,1,2.678,1.152A18.727,18.727,0,0,1,192.5,20" transform="translate(-130.38 -12.178)" fill="#fafafa"/>
        <path id="Path_4931" data-name="Path 4931" d="M191.964,29.869c-.027.057-1.986-.822-4.375-1.962s-4.3-2.112-4.277-2.169,1.986.822,4.376,1.963,4.3,2.112,4.277,2.169" transform="translate(-127.641 -17.919)" fill="#fafafa"/>
        <path id="Path_4932" data-name="Path 4932" d="M189.457,37.124c-.027.057-2.161-.905-4.765-2.148s-4.694-2.3-4.667-2.355,2.16.905,4.765,2.149,4.694,2.3,4.667,2.354" transform="translate(-125.353 -22.711)" fill="#fafafa"/>
        <path id="Path_4933" data-name="Path 4933" d="M186.358,43.617c-.027.057-2.161-.905-4.765-2.148s-4.694-2.3-4.667-2.355,2.16.905,4.765,2.149,4.694,2.3,4.667,2.354" transform="translate(-123.195 -27.232)" fill="#fafafa"/>
        <path id="Path_4934" data-name="Path 4934" d="M183.258,50.11c-.027.057-2.161-.905-4.765-2.148s-4.694-2.3-4.667-2.355,2.16.905,4.765,2.149,4.694,2.3,4.667,2.354" transform="translate(-121.036 -31.753)" fill="#fafafa"/>
        <path id="Path_4935" data-name="Path 4935" d="M180.158,56.6c-.027.057-2.161-.905-4.765-2.148s-4.694-2.3-4.667-2.355,2.16.905,4.765,2.149,4.694,2.3,4.667,2.354" transform="translate(-118.878 -36.274)" fill="#fafafa"/>
        <path id="Path_4936" data-name="Path 4936" d="M356.459,319.635H333.538s-.27-5.394,4.494-5.753a5.87,5.87,0,0,1,6.112-4.584c6.382-.029,6.461,5.527,6.461,5.527s5.224-.493,5.854,4.811" transform="translate(-232.243 -215.359)" fill="#fafafa"/>
        <path id="Path_4937" data-name="Path 4937" d="M40.121,316.58h0l-4.4,3.991h2.66v5.648h3.49v-5.648h2.66Z" transform="translate(-24.869 -220.429)" fill="#ebebeb"/>
        <path id="Path_4938" data-name="Path 4938" d="M411.617,62.082h0l-5.384,4.879h3.251v6.905h4.267V66.961H417Z" transform="translate(-282.862 -43.226)" fill="#ebebeb"/>
        <path id="Path_5669" data-name="Path 5669" d="M.015.012H16.282V20.358H.015Z" transform="matrix(0.218, -0.976, 0.976, 0.218, 7.938, 34.017)" fill="#ebebeb"/>
        <path id="Path_5670" data-name="Path 5670" d="M.014.011H14.233V18.927H.014Z" transform="matrix(0.218, -0.976, 0.976, 0.218, 8.848, 33.17)" fill="#f5f5f5"/>
        <path id="Path_4939" data-name="Path 4939" d="M29.179,92.709l8.376-7.183,2.787,6.29L43.7,89.537l3.942,7.3Z" transform="translate(-20.318 -59.551)" fill="#e0e0e0"/>
        <path id="Path_4940" data-name="Path 4940" d="M69.526,82.076A1.489,1.489,0,1,1,68.4,80.3a1.49,1.49,0,0,1,1.129,1.779" transform="translate(-46.362 -55.884)" fill="#e0e0e0"/>
      </g>
    </g>
    <g id="Group_2111" data-name="Group 2111">
      <g id="Group_2110" data-name="Group 2110" clip-path="url(#clip-path)">
        <path id="Path_4941" data-name="Path 4941" d="M142,420.693c0,.044-31.79.079-71,.079s-71-.035-71-.079,31.784-.079,71-.079,71,.035,71,.079" transform="translate(0 -292.866)" fill="#263238"/>
      </g>
    </g>
    <g id="Group_2116" data-name="Group 2116">
      <g id="Group_2115" data-name="Group 2115" clip-path="url(#clip-path)">
        <path id="Path_4942" data-name="Path 4942" d="M391.637,366.4a1.337,1.337,0,0,1-2,.043,3.773,3.773,0,0,1-.845-1.734,9.216,9.216,0,0,1-.52-4.384,2.436,2.436,0,0,1,.56-1.192,1.272,1.272,0,0,1,1.206-.4,1.861,1.861,0,0,1,1.053,1.107,10.456,10.456,0,0,1,1.033,4.484,3.624,3.624,0,0,1-.49,2.076" transform="translate(-270.285 -249.756)" fill="#e8505b"/>
        <g id="Group_2114" data-name="Group 2114" transform="translate(117.885 108.943)" opacity="0.2">
          <g id="Group_2113" data-name="Group 2113">
            <g id="Group_2112" data-name="Group 2112" clip-path="url(#clip-path-5)">
              <path id="Path_4943" data-name="Path 4943" d="M391.637,366.4a1.337,1.337,0,0,1-2,.043,3.773,3.773,0,0,1-.845-1.734,9.216,9.216,0,0,1-.52-4.384,2.436,2.436,0,0,1,.56-1.192,1.272,1.272,0,0,1,1.206-.4,1.861,1.861,0,0,1,1.053,1.107,10.456,10.456,0,0,1,1.033,4.484,3.624,3.624,0,0,1-.49,2.076" transform="translate(-388.17 -358.699)"/>
            </g>
          </g>
        </g>
        <path id="Path_4944" data-name="Path 4944" d="M382.967,395.455a4.5,4.5,0,0,0-2.791-.339,2.321,2.321,0,0,0-1.379.616.992.992,0,0,0-.014,1.376,1.321,1.321,0,0,0,.869.221,3.425,3.425,0,0,1,2.146.306c.336.253.56.674.962.8a.95.95,0,0,0,1.046-.465,1.625,1.625,0,0,0,.118-1.2,1.83,1.83,0,0,0-.958-1.313" transform="translate(-263.561 -275.058)" fill="#e8505b"/>
        <path id="Path_4945" data-name="Path 4945" d="M403.023,372.932a2.7,2.7,0,0,1-.42-2.483,4.782,4.782,0,0,1,1.47-2.133,7.918,7.918,0,0,1,2.633-1.554,2.813,2.813,0,0,1,1.184-.2,1.243,1.243,0,0,1,.994.6,1.859,1.859,0,0,1-.276,1.692,20.069,20.069,0,0,1-1.729,2.634,4.682,4.682,0,0,1-1.9,1.629,1.724,1.724,0,0,1-2.029-.281" transform="translate(-280.247 -255.225)" fill="#e8505b"/>
        <path id="Path_4946" data-name="Path 4946" d="M390.818,405.244a1.614,1.614,0,0,1-.047-.337c-.024-.245-.054-.553-.089-.919a13.286,13.286,0,0,0-.207-1.349,10.416,10.416,0,0,0-.49-1.591,5.87,5.87,0,0,0-.813-1.44,3.036,3.036,0,0,0-1.027-.854,2.878,2.878,0,0,0-.866-.269,1.588,1.588,0,0,1-.335-.049,1.615,1.615,0,0,1,.341-.005,2.617,2.617,0,0,1,.9.235,3.028,3.028,0,0,1,1.084.862,5.736,5.736,0,0,1,.842,1.469,9.741,9.741,0,0,1,.486,1.618,11.362,11.362,0,0,1,.179,1.365c.029.391.04.707.046.925a1.591,1.591,0,0,1-.007.34" transform="translate(-269.432 -277.418)" fill="#263238"/>
        <path id="Path_4947" data-name="Path 4947" d="M395.544,383.7a.676.676,0,0,1-.009-.156c0-.118,0-.265,0-.447,0-.388,0-.949-.02-1.643-.034-1.386-.154-3.3-.385-5.4s-.54-4-.821-5.355c-.066-.34-.133-.647-.2-.915s-.111-.5-.161-.688-.077-.32-.1-.435a.688.688,0,0,1-.027-.154.638.638,0,0,1,.054.147l.13.428c.057.186.116.416.184.684s.144.573.217.913a50.8,50.8,0,0,1,.863,5.36c.231,2.108.335,4.028.344,5.418.008.695-.006,1.258-.024,1.646-.011.182-.02.329-.027.447a.647.647,0,0,1-.019.155" transform="translate(-274.22 -256.585)" fill="#263238"/>
        <path id="Path_4948" data-name="Path 4948" d="M399.448,382.6a2.969,2.969,0,0,1,0-.467c.017-.3.058-.734.143-1.265a16.715,16.715,0,0,1,.411-1.843,16.314,16.314,0,0,1,.771-2.181,11.619,11.619,0,0,1,2.263-3.525,5.781,5.781,0,0,1,.532-.5c.082-.069.154-.138.227-.193l.207-.142a3.027,3.027,0,0,1,.393-.252,14.025,14.025,0,0,0-1.289,1.15A12.247,12.247,0,0,0,400.9,376.9a17.445,17.445,0,0,0-.775,2.161c-.2.677-.336,1.3-.438,1.825s-.152.955-.186,1.253a2.982,2.982,0,0,1-.057.463" transform="translate(-278.134 -259.18)" fill="#263238"/>
      </g>
    </g>
    <path id="Path_5671" data-name="Path 5671" d="M.015.012H19.44v24.3H.014Z" transform="translate(78.594 19.215) rotate(-79.975)" fill="#ebebeb"/>
    <g id="Group_2136" data-name="Group 2136">
      <g id="Group_2135" data-name="Group 2135" clip-path="url(#clip-path)">
        <path id="Path_4949" data-name="Path 4949" d="M285.959,4.3s-.041,0-.117-.017l-.336-.056-1.3-.223-4.9-.849L262.023.135,262.1.084c-1,5.694-2.155,12.221-3.374,19.128v0l-.057-.082,23.923,4.241-.068.047L285,9.553l.7-3.875.188-1.022c.043-.232.069-.354.069-.354s-.016.115-.054.344l-.172,1.013-.668,3.867-2.429,13.915-.01.058-.058-.01L258.64,19.272l-.069-.012.012-.069v0L261.972.062,261.983,0l.062.011L279.355,3.1l4.881.88,1.286.235.328.062c.073.014.108.023.108.023" transform="translate(-180.045)" fill="#263238"/>
        <path id="Path_5672" data-name="Path 5672" d="M.014.01h16.98V22.6H.013Z" transform="matrix(0.174, -0.985, 0.985, 0.174, 79.633, 18.155)" fill="#e8505b"/>
        <path id="Path_4950" data-name="Path 4950" d="M262.257,39.061l9.606-9.02,3.663,7.353,3.879-2.9,5.1,8.5Z" transform="translate(-182.611 -20.917)" fill="#e8505b"/>
        <path id="Path_4951" data-name="Path 4951" d="M309.11,25.05a1.779,1.779,0,1,1-1.442-2.061,1.779,1.779,0,0,1,1.442,2.061" transform="translate(-212.777 -15.988)" fill="#e8505b"/>
        <g id="Group_2119" data-name="Group 2119" transform="translate(79.646 9.124)" opacity="0.2">
          <g id="Group_2118" data-name="Group 2118">
            <g id="Group_2117" data-name="Group 2117" clip-path="url(#clip-path-7)">
              <path id="Path_4952" data-name="Path 4952" d="M262.257,39.061l9.606-9.02,3.663,7.353,3.879-2.9,5.1,8.5Z" transform="translate(-262.257 -30.041)"/>
            </g>
          </g>
        </g>
        <g id="Group_2122" data-name="Group 2122" transform="translate(92.803 6.974)" opacity="0.2">
          <g id="Group_2121" data-name="Group 2121">
            <g id="Group_2120" data-name="Group 2120" clip-path="url(#clip-path-8)">
              <path id="Path_4953" data-name="Path 4953" d="M309.11,25.05a1.779,1.779,0,1,1-1.442-2.061,1.779,1.779,0,0,1,1.442,2.061" transform="translate(-305.58 -22.962)"/>
            </g>
          </g>
        </g>
        <path id="Path_4954" data-name="Path 4954" d="M379.579,166.786l-13.831-4.059a1.8,1.8,0,0,1-1.223-2.239l5.618-19.145a1.8,1.8,0,0,1,2.239-1.223l8.772,2.575,4.736,8.992-4.073,13.877a1.8,1.8,0,0,1-2.239,1.223" transform="translate(-253.77 -97.512)" fill="#e8505b"/>
        <path id="Path_4955" data-name="Path 4955" d="M393.069,171.873c0-.01.116.03.341.047a1.694,1.694,0,0,0,.938-.223,1.653,1.653,0,0,0,.514-.47,1.677,1.677,0,0,0,.191-.35c.047-.129.086-.273.128-.42l.574-2,.336-1.161.179-.617a2.887,2.887,0,0,0,.138-.637,1.848,1.848,0,0,0-.929-1.721,2.971,2.971,0,0,0-.689-.255l-6.35-1.848a1.778,1.778,0,0,0-1.543.447,1.709,1.709,0,0,0-.449.673c-.089.256-.161.534-.241.8l-.9,3.064c-.067.242-.155.489-.2.718a1.654,1.654,0,0,0,.025.7,1.673,1.673,0,0,0,.794,1.045,2.751,2.751,0,0,0,.61.227l.616.183,1.158.345,3.491,1.05.947.293.245.08a.392.392,0,0,1,.082.032.384.384,0,0,1-.087-.017l-.249-.065-.955-.265-3.5-1-1.161-.336-.617-.179a2.869,2.869,0,0,1-.637-.234,1.8,1.8,0,0,1-.893-1.878c.052-.258.135-.485.2-.733l.895-3.066c.081-.267.148-.531.244-.807a1.855,1.855,0,0,1,.487-.731,1.928,1.928,0,0,1,1.675-.486c2.272.648,4.405,1.29,6.361,1.863a3.1,3.1,0,0,1,.718.271,1.978,1.978,0,0,1,.986,1.849,2.975,2.975,0,0,1-.147.663l-.183.616-.345,1.158-.6,1.99c-.044.146-.084.288-.137.425a1.713,1.713,0,0,1-.749.843,1.684,1.684,0,0,1-.969.2,1.255,1.255,0,0,1-.338-.078" transform="translate(-268.035 -112.824)" fill="#fafafa"/>
        <path id="Path_4956" data-name="Path 4956" d="M395.163,182.843a.555.555,0,0,1-.07-.133l-.172-.393-.605-1.454-.411-1.007-.228-.562-.119-.291a.5.5,0,0,0-.183-.214.505.505,0,0,0-.558,0l-.57.409-1.2.864-.539.387-.069.049-.041-.073-.672-1.188-.16-.284a.8.8,0,0,0-.17-.24.548.548,0,0,0-.512-.118,1.118,1.118,0,0,0-.251.123l-.251.142-.48.271-.859.482-1.242.686-.339.179a.487.487,0,0,1-.123.054.464.464,0,0,1,.108-.079l.326-.2,1.219-.727.85-.5.476-.278.25-.145a1.254,1.254,0,0,1,.28-.138.686.686,0,0,1,.643.143.926.926,0,0,1,.2.275l.162.283.677,1.186-.11-.024.539-.387,1.2-.862.576-.409a.648.648,0,0,1,.716,0,.635.635,0,0,1,.232.275l.118.3.22.564.394,1.014.56,1.472.145.4a.589.589,0,0,1,.041.144" transform="translate(-268.311 -124.243)" fill="#fafafa"/>
        <path id="Path_4957" data-name="Path 4957" d="M401.858,171.038a1.934,1.934,0,0,1,.229.007.937.937,0,0,0,.559-.2.888.888,0,0,0,.342-.765.87.87,0,0,0-1.565-.459.888.888,0,0,0-.126.829.937.937,0,0,0,.364.466c.121.08.2.105.2.118a.43.43,0,0,1-.227-.067.933.933,0,0,1-.435-.479.987.987,0,0,1,.114-.95,1,1,0,0,1,1.817.533.987.987,0,0,1-.418.861.933.933,0,0,1-.625.168.428.428,0,0,1-.227-.066" transform="translate(-279.305 -117.758)" fill="#fafafa"/>
        <g id="Group_2125" data-name="Group 2125" transform="translate(110.712 57.848)" opacity="0.2">
          <g id="Group_2124" data-name="Group 2124">
            <g id="Group_2123" data-name="Group 2123" clip-path="url(#clip-path-9)">
              <path id="Path_4958" data-name="Path 4958" d="M379.526,201.857l-13.586-3.987a1.931,1.931,0,0,1-1.309-2.4l1.469-5.006,17.292,5.075-1.469,5.006a1.931,1.931,0,0,1-2.4,1.309" transform="translate(-364.552 -190.466)"/>
            </g>
          </g>
        </g>
        <path id="Path_4959" data-name="Path 4959" d="M415.665,148.766l-1.581,5.388a1.678,1.678,0,0,0,1.137,2.082l5.18,1.521Z" transform="translate(-288.281 -103.583)" fill="#e8505b"/>
        <g id="Group_2128" data-name="Group 2128" transform="translate(125.662 51.065)" opacity="0.2">
          <g id="Group_2127" data-name="Group 2127">
            <g id="Group_2126" data-name="Group 2126" clip-path="url(#clip-path-10)">
              <path id="Path_4960" data-name="Path 4960" d="M413.852,168.132a1.865,1.865,0,0,0,.91,2.153,1.741,1.741,0,0,0,.159.088c.641.32,4.862,2.419,4.891,2.316l.425-1.448-5.181-1.52s-1.281-.424-1.2-1.589" transform="translate(-413.78 -168.132)"/>
            </g>
          </g>
        </g>
        <path id="Path_4961" data-name="Path 4961" d="M385.218,204.2l.569.167-.32,1.091a1.936,1.936,0,0,1-1.187.023,1.452,1.452,0,1,1,.828-2.778,1.494,1.494,0,0,1,.989.8l-.508.252a.95.95,0,0,0-.607-.508.9.9,0,1,0-.513,1.719,1.033,1.033,0,0,0,.518.027Z" transform="translate(-266.794 -141.086)" fill="#fafafa"/>
        <path id="Path_5673" data-name="Path 5673" d="M0,0H2.8V.651H0Z" transform="translate(119.157 64.836) rotate(-73.627)" fill="#fafafa"/>
        <path id="Path_4962" data-name="Path 4962" d="M397.781,206.52l-.209.711,1.245.365-.147.5-1.245-.365-.287.98-.623-.183.789-2.69,2.033.6-.147.5Z" transform="translate(-276.097 -143.322)" fill="#fafafa"/>
        <path id="Path_4963" data-name="Path 4963" d="M74.359,171.906,61.844,174.78a1.607,1.607,0,0,1-1.925-1.207l-3.977-17.324a1.607,1.607,0,0,1,1.206-1.926l7.937-1.822,7.6,4.923,2.882,12.557a1.607,1.607,0,0,1-1.207,1.926" transform="translate(-38.924 -106.184)" fill="#e8505b"/>
        <path id="Path_4964" data-name="Path 4964" d="M86.144,152.5l1.119,4.876a1.5,1.5,0,0,0,1.791,1.123l4.688-1.075Z" transform="translate(-59.983 -106.184)" fill="#e8505b"/>
        <g id="Group_2131" data-name="Group 2131" transform="translate(27.443 51.24)" opacity="0.2">
          <g id="Group_2130" data-name="Group 2130">
            <g id="Group_2129" data-name="Group 2129" clip-path="url(#clip-path-11)">
              <path id="Path_4965" data-name="Path 4965" d="M90.363,169.075a1.662,1.662,0,0,0,1.645,1.277,1.6,1.6,0,0,0,.162,0c.637-.031,4.831-.239,4.81-.332l-.3-1.31-4.688,1.076a1.531,1.531,0,0,1-1.629-.71" transform="translate(-90.363 -168.709)"/>
            </g>
          </g>
        </g>
        <g id="Group_2134" data-name="Group 2134" transform="translate(26.161 46.317)" opacity="0.3">
          <g id="Group_2133" data-name="Group 2133">
            <g id="Group_2132" data-name="Group 2132" clip-path="url(#clip-path-12)">
              <path id="Path_4966" data-name="Path 4966" d="M86.144,152.5l1.119,4.876a1.5,1.5,0,0,0,1.791,1.123l4.688-1.075Z" transform="translate(-86.144 -152.501)" fill="#fff"/>
            </g>
          </g>
        </g>
        <path id="Path_4967" data-name="Path 4967" d="M72.947,168.671a19.09,19.09,0,0,1-2.869.778,19.056,19.056,0,0,1-2.921.551,18.991,18.991,0,0,1,2.869-.778,19.052,19.052,0,0,1,2.921-.551" transform="translate(-46.762 -117.436)" fill="#fafafa"/>
        <path id="Path_4968" data-name="Path 4968" d="M78.77,174.929c.014.063-2.107.6-4.739,1.207s-4.776,1.043-4.791.98,2.107-.6,4.739-1.207,4.776-1.043,4.79-.98" transform="translate(-48.213 -121.796)" fill="#fafafa"/>
        <path id="Path_4969" data-name="Path 4969" d="M81.369,181.861c.014.063-2.3.647-5.168,1.306s-5.206,1.142-5.22,1.079,2.3-.647,5.168-1.306,5.205-1.141,5.22-1.079" transform="translate(-49.424 -126.623)" fill="#fafafa"/>
        <path id="Path_4970" data-name="Path 4970" d="M83.01,189.012c.014.063-2.3.647-5.168,1.306s-5.206,1.142-5.22,1.079,2.3-.647,5.168-1.306,5.205-1.141,5.22-1.079" transform="translate(-50.567 -131.602)" fill="#fafafa"/>
        <path id="Path_4971" data-name="Path 4971" d="M84.652,196.162c.014.063-2.3.648-5.168,1.306s-5.206,1.142-5.22,1.079,2.3-.647,5.168-1.306,5.205-1.141,5.22-1.079" transform="translate(-51.71 -136.581)" fill="#fafafa"/>
        <path id="Path_4972" data-name="Path 4972" d="M86.293,203.313c.014.063-2.3.647-5.168,1.306s-5.206,1.142-5.22,1.079,2.3-.647,5.168-1.306,5.205-1.141,5.22-1.079" transform="translate(-52.853 -141.56)" fill="#fafafa"/>
      </g>
    </g>
    <rect id="Rectangle_2103" data-name="Rectangle 2103" width="82.792" height="72.918" transform="translate(34.958 17.658)" fill="#f5f5f5"/>
    <g id="Group_2162" data-name="Group 2162">
      <g id="Group_2161" data-name="Group 2161" clip-path="url(#clip-path)">
        <path id="Path_4973" data-name="Path 4973" d="M197.72,130.878c0-.563-.027-29.036-.067-72.918l.067.067-82.784.012h-.008l.079-.079c0,26.5-.006,51.457-.009,72.918l-.07-.07,82.792.07-82.792.07h-.07v-.07c0-21.46-.006-46.415-.009-72.918v-.079h.087l82.784.012h.067v.067c-.04,43.882-.066,72.354-.067,72.918" transform="translate(-79.97 -40.302)" fill="#263238"/>
        <path id="Path_4974" data-name="Path 4974" d="M146.533,131.562h-4.7a.588.588,0,0,1-.588-.588v-6.5a.588.588,0,0,1,.588-.588h2.979l2.306,2.377v4.713a.588.588,0,0,1-.588.588" transform="translate(-98.352 -86.258)" fill="#e8505b"/>
        <path id="Path_4975" data-name="Path 4975" d="M152.993,123.885v1.83a.547.547,0,0,0,.547.547H155.3Z" transform="translate(-106.53 -86.259)" fill="#e8505b"/>
        <g id="Group_2139" data-name="Group 2139" transform="translate(46.487 39.616)" opacity="0.2">
          <g id="Group_2138" data-name="Group 2138">
            <g id="Group_2137" data-name="Group 2137" clip-path="url(#clip-path-14)">
              <path id="Path_4976" data-name="Path 4976" d="M153.072,130.439a.608.608,0,0,0,.482.59c.019.005.039.009.058.013.23.041,1.742.31,1.742.275v-.492h-1.759s-.439-.015-.523-.386" transform="translate(-153.071 -130.439)"/>
            </g>
          </g>
        </g>
        <g id="Group_2142" data-name="Group 2142" transform="translate(46.463 37.626)" opacity="0.3">
          <g id="Group_2141" data-name="Group 2141">
            <g id="Group_2140" data-name="Group 2140" clip-path="url(#clip-path-15)">
              <path id="Path_4977" data-name="Path 4977" d="M152.993,123.885v1.83a.547.547,0,0,0,.547.547H155.3Z" transform="translate(-152.993 -123.885)" fill="#fff"/>
            </g>
          </g>
        </g>
        <path id="Path_4978" data-name="Path 4978" d="M146.713,129.567a13.9,13.9,0,0,1-2.173,0,13.9,13.9,0,0,1,2.173,0" transform="translate(-100.644 -90.185)" fill="#fafafa"/>
        <path id="Path_4979" data-name="Path 4979" d="M148.117,132.973c0,.024-.8.043-1.788.043s-1.788-.019-1.788-.043.8-.042,1.788-.042,1.788.019,1.788.042" transform="translate(-100.644 -92.558)" fill="#fafafa"/>
        <path id="Path_4980" data-name="Path 4980" d="M148.439,135.818c0,.024-.873.043-1.949.043s-1.95-.019-1.95-.043.873-.043,1.95-.043,1.949.019,1.949.043" transform="translate(-100.644 -94.538)" fill="#fafafa"/>
        <path id="Path_4981" data-name="Path 4981" d="M148.439,138.5c0,.024-.873.043-1.949.043s-1.95-.019-1.95-.043.873-.043,1.95-.043,1.949.019,1.949.043" transform="translate(-100.644 -96.407)" fill="#fafafa"/>
        <path id="Path_4982" data-name="Path 4982" d="M148.439,141.186c0,.023-.873.043-1.949.043s-1.95-.019-1.95-.043.873-.043,1.95-.043,1.949.019,1.949.043" transform="translate(-100.644 -98.275)" fill="#fafafa"/>
        <path id="Path_4983" data-name="Path 4983" d="M148.439,143.869c0,.023-.873.043-1.949.043s-1.95-.019-1.95-.043.873-.042,1.95-.042,1.949.019,1.949.042" transform="translate(-100.644 -100.144)" fill="#fafafa"/>
        <path id="Path_4984" data-name="Path 4984" d="M172.25,126.444a.464.464,0,0,1,.262.067l-.081.218a.286.286,0,0,0-.16-.051c-.121,0-.183.067-.183.2v.074h.34v.231H172.1v1h-.29v-1h-.2v-.231h.2v-.079a.4.4,0,0,1,.442-.429m.519.12a.177.177,0,0,1,.186-.174.172.172,0,0,1,.185.167.186.186,0,0,1-.371.007m.039.378h.29v1.237h-.29Z" transform="translate(-119.489 -88.004)" fill="#263238"/>
        <rect id="Rectangle_2106" data-name="Rectangle 2106" width="0.29" height="1.719" transform="translate(53.991 38.457)" fill="#263238"/>
        <path id="Path_4985" data-name="Path 4985" d="M180.912,128.886h-.971a.374.374,0,0,0,.4.3.444.444,0,0,0,.336-.134l.155.178a.695.695,0,0,1-1.182-.433.615.615,0,0,1,.64-.633.6.6,0,0,1,.626.64c0,.023,0,.058,0,.086m-.973-.192h.7a.337.337,0,0,0-.35-.3.342.342,0,0,0-.352.3" transform="translate(-125.092 -89.236)" fill="#263238"/>
        <path id="Path_4986" data-name="Path 4986" d="M185.955,128.7v.709h-.29v-.672c0-.22-.109-.327-.294-.327a.329.329,0,0,0-.346.373v.626h-.289v-1.237h.276v.16a.538.538,0,0,1,.426-.174.484.484,0,0,1,.517.542" transform="translate(-128.633 -89.236)" fill="#263238"/>
        <path id="Path_4987" data-name="Path 4987" d="M190.8,128.687v.725h-.273v-.151a.439.439,0,0,1-.389.167c-.283,0-.461-.155-.461-.371s.139-.368.514-.368h.32v-.019c0-.169-.1-.268-.308-.268a.613.613,0,0,0-.375.123l-.113-.211a.869.869,0,0,1,.524-.153c.357,0,.563.169.563.526m-.29.338v-.144h-.3c-.2,0-.25.074-.25.164s.088.172.236.172a.315.315,0,0,0,.313-.192" transform="translate(-132.073 -89.236)" fill="#263238"/>
        <path id="Path_4988" data-name="Path 4988" d="M196.669,128.7v.709h-.29v-.672c0-.22-.1-.327-.278-.327s-.322.125-.322.371v.628h-.289v-.672c0-.22-.1-.327-.278-.327-.192,0-.322.125-.322.371v.628h-.29v-1.237h.276v.158a.513.513,0,0,1,.405-.172.464.464,0,0,1,.417.206.579.579,0,0,1,.464-.206.476.476,0,0,1,.507.542" transform="translate(-135.501 -89.236)" fill="#263238"/>
        <path id="Path_4989" data-name="Path 4989" d="M203.6,128.886h-.971a.374.374,0,0,0,.4.3.444.444,0,0,0,.336-.134l.155.178a.695.695,0,0,1-1.182-.433.615.615,0,0,1,.64-.633.6.6,0,0,1,.626.64c0,.023,0,.058,0,.086m-.973-.192h.7a.337.337,0,0,0-.35-.3.342.342,0,0,0-.352.3" transform="translate(-140.892 -89.236)" fill="#263238"/>
        <path id="Path_4990" data-name="Path 4990" d="M207.107,131.26a.19.19,0,1,1,.38,0,.19.19,0,1,1-.38,0" transform="translate(-144.21 -91.26)" fill="#263238"/>
        <path id="Path_4991" data-name="Path 4991" d="M210.191,126.62v1.719h-.278v-.16a.51.51,0,0,1-.41.176.634.634,0,0,1,0-1.267.506.506,0,0,1,.4.167v-.635Zm-.285,1.1a.369.369,0,1,0-.369.387.362.362,0,0,0,.369-.387" transform="translate(-145.443 -88.163)" fill="#263238"/>
        <path id="Path_4992" data-name="Path 4992" d="M214.123,128.794a.66.66,0,1,1,.658.635.623.623,0,0,1-.658-.635m1.026,0a.368.368,0,1,0-.368.387.36.36,0,0,0,.368-.387" transform="translate(-149.095 -89.236)" fill="#263238"/>
        <path id="Path_4993" data-name="Path 4993" d="M219.048,128.794a.626.626,0,0,1,.67-.633.557.557,0,0,1,.528.287l-.222.13a.349.349,0,0,0-.308-.172.387.387,0,0,0,0,.774.35.35,0,0,0,.308-.171l.222.13a.562.562,0,0,1-.528.289.628.628,0,0,1-.67-.635" transform="translate(-152.525 -89.236)" fill="#263238"/>
        <path id="Path_4994" data-name="Path 4994" d="M171.823,137.125a.622.622,0,0,1,.65-.63.6.6,0,0,1,.453.181l-.083.083a.491.491,0,0,0-.366-.147.513.513,0,1,0,0,1.027.486.486,0,0,0,.366-.149l.083.083a.6.6,0,0,1-.455.182.622.622,0,0,1-.648-.63" transform="translate(-119.642 -95.039)" fill="#e0e0e0"/>
        <path id="Path_4995" data-name="Path 4995" d="M175.84,137.993a.474.474,0,1,1,.474.474.458.458,0,0,1-.474-.474m.82,0a.346.346,0,1,0-.345.363.34.34,0,0,0,.345-.363" transform="translate(-122.439 -95.753)" fill="#e0e0e0"/>
        <path id="Path_4996" data-name="Path 4996" d="M181.337,137.919v.54h-.126v-.528c0-.2-.1-.3-.267-.3a.3.3,0,0,0-.312.336v.489h-.126v-.528c0-.2-.1-.3-.269-.3a.3.3,0,0,0-.312.336v.489H179.8v-.931h.121v.17a.376.376,0,0,1,.342-.177.334.334,0,0,1,.331.2.4.4,0,0,1,.368-.2.351.351,0,0,1,.375.4" transform="translate(-125.196 -95.754)" fill="#e0e0e0"/>
        <path id="Path_4997" data-name="Path 4997" d="M186.921,137.993a.451.451,0,0,1-.464.474.406.406,0,0,1-.354-.184v.519h-.126v-1.275h.121v.184a.405.405,0,0,1,.359-.191.45.45,0,0,1,.464.473m-.126,0a.347.347,0,1,0-.347.363.343.343,0,0,0,.347-.363" transform="translate(-129.497 -95.753)" fill="#e0e0e0"/>
        <rect id="Rectangle_2107" data-name="Rectangle 2107" width="0.126" height="1.314" transform="translate(57.679 41.392)" fill="#e0e0e0"/>
        <path id="Path_4998" data-name="Path 4998" d="M192.086,138.032h-.779a.345.345,0,0,0,.366.324.367.367,0,0,0,.285-.122l.071.081a.492.492,0,0,1-.848-.322.448.448,0,0,1,.455-.473.444.444,0,0,1,.451.473c0,.011,0,.025,0,.039m-.779-.094h.66a.331.331,0,0,0-.66,0" transform="translate(-133.121 -95.753)" fill="#e0e0e0"/>
        <path id="Path_4999" data-name="Path 4999" d="M195.165,137.951a.3.3,0,0,1-.2.066.247.247,0,0,1-.272-.271v-.563h-.166v-.106h.166v-.2h.126v.2h.283v.106h-.283v.556a.149.149,0,0,0,.161.17.208.208,0,0,0,.138-.048Z" transform="translate(-135.453 -95.302)" fill="#e0e0e0"/>
        <path id="Path_5000" data-name="Path 5000" d="M197.856,138.032h-.779a.345.345,0,0,0,.367.324.367.367,0,0,0,.285-.122l.071.081a.492.492,0,0,1-.848-.322.448.448,0,0,1,.455-.473.444.444,0,0,1,.451.473c0,.011,0,.025,0,.039m-.779-.094h.66a.331.331,0,0,0-.66,0" transform="translate(-137.139 -95.753)" fill="#e0e0e0"/>
        <path id="Path_5001" data-name="Path 5001" d="M224.564,144.952H170.54a.5.5,0,1,1,0-1.009h54.024a.5.5,0,0,1,0,1.009" transform="translate(-118.397 -100.225)" fill="#e8505b"/>
        <path id="Path_5002" data-name="Path 5002" d="M356.832,142.623a7.9,7.9,0,0,1-1.578,1.578,7.893,7.893,0,0,1,1.578-1.578" transform="translate(-247.365 -99.305)" fill="#263238"/>
        <path id="Path_5003" data-name="Path 5003" d="M356.714,144.2a7.893,7.893,0,0,1-1.578-1.578,7.891,7.891,0,0,1,1.578,1.578" transform="translate(-247.282 -99.305)" fill="#263238"/>
        <path id="Path_5004" data-name="Path 5004" d="M332.916,137.414c0,.207-.15.367-.449.367a.643.643,0,0,1-.446-.159l.062-.1a.543.543,0,0,0,.384.143c.205,0,.318-.1.318-.25s-.1-.246-.334-.246h-.088v-.094l.343-.43h-.634v-.113h.8v.09l-.35.441c.265.014.4.154.4.352" transform="translate(-231.188 -95.064)" fill="#e0e0e0"/>
        <path id="Path_5005" data-name="Path 5005" d="M338.728,136.53v1.239H338.6v-.991l-.487.834h-.062l-.487-.829v.986h-.126V136.53h.108l.538.919.533-.919Z" transform="translate(-234.962 -95.064)" fill="#e0e0e0"/>
        <path id="Path_5006" data-name="Path 5006" d="M344.035,137.439c0,.211-.156.331-.466.331H343v-1.239h.535c.276,0,.435.117.435.319a.288.288,0,0,1-.189.282.3.3,0,0,1,.255.308m-.9-.8v.45h.395c.2,0,.313-.076.313-.225s-.115-.225-.313-.225Zm.773.79c0-.161-.118-.232-.336-.232h-.437v.466h.437c.218,0,.336-.071.336-.234" transform="translate(-238.832 -95.064)" fill="#e0e0e0"/>
        <path id="Path_5007" data-name="Path 5007" d="M146.533,171.9h-4.7a.588.588,0,0,1-.588-.588v-6.5a.588.588,0,0,1,.588-.588h2.979l2.306,2.377v4.713a.588.588,0,0,1-.588.588" transform="translate(-98.352 -114.348)" fill="#e8505b"/>
        <path id="Path_5008" data-name="Path 5008" d="M152.993,164.227v1.83a.547.547,0,0,0,.547.547H155.3Z" transform="translate(-106.53 -114.348)" fill="#e8505b"/>
        <g id="Group_2145" data-name="Group 2145" transform="translate(46.487 51.869)" opacity="0.2">
          <g id="Group_2144" data-name="Group 2144">
            <g id="Group_2143" data-name="Group 2143" clip-path="url(#clip-path-14)">
              <path id="Path_5009" data-name="Path 5009" d="M153.072,170.781a.608.608,0,0,0,.482.59c.019.005.039.009.058.013.23.041,1.742.31,1.742.275v-.492h-1.759s-.439-.015-.523-.386" transform="translate(-153.071 -170.781)"/>
            </g>
          </g>
        </g>
        <g id="Group_2148" data-name="Group 2148" transform="translate(46.463 49.879)" opacity="0.3">
          <g id="Group_2147" data-name="Group 2147">
            <g id="Group_2146" data-name="Group 2146" clip-path="url(#clip-path-15)">
              <path id="Path_5010" data-name="Path 5010" d="M152.993,164.227v1.83a.547.547,0,0,0,.547.547H155.3Z" transform="translate(-152.993 -164.227)" fill="#fff"/>
            </g>
          </g>
        </g>
        <path id="Path_5011" data-name="Path 5011" d="M146.713,169.909a13.9,13.9,0,0,1-2.173,0,13.9,13.9,0,0,1,2.173,0" transform="translate(-100.644 -118.275)" fill="#fafafa"/>
        <path id="Path_5012" data-name="Path 5012" d="M148.117,173.316c0,.023-.8.042-1.788.042s-1.788-.019-1.788-.042.8-.043,1.788-.043,1.788.019,1.788.043" transform="translate(-100.644 -120.647)" fill="#fafafa"/>
        <path id="Path_5013" data-name="Path 5013" d="M148.439,176.16c0,.023-.873.043-1.949.043s-1.95-.019-1.95-.043.873-.043,1.95-.043,1.949.019,1.949.043" transform="translate(-100.644 -122.627)" fill="#fafafa"/>
        <path id="Path_5014" data-name="Path 5014" d="M148.439,178.843c0,.023-.873.043-1.949.043s-1.95-.019-1.95-.043.873-.043,1.95-.043,1.949.019,1.949.043" transform="translate(-100.644 -124.496)" fill="#fafafa"/>
        <path id="Path_5015" data-name="Path 5015" d="M148.439,181.528c0,.023-.873.043-1.949.043s-1.95-.019-1.95-.043.873-.043,1.95-.043,1.949.019,1.949.043" transform="translate(-100.644 -126.365)" fill="#fafafa"/>
        <path id="Path_5016" data-name="Path 5016" d="M148.439,184.212c0,.024-.873.043-1.949.043s-1.95-.019-1.95-.043.873-.043,1.95-.043,1.949.019,1.949.043" transform="translate(-100.644 -128.234)" fill="#fafafa"/>
        <path id="Path_5017" data-name="Path 5017" d="M172.25,166.786a.464.464,0,0,1,.262.067l-.081.218a.286.286,0,0,0-.16-.051c-.121,0-.183.067-.183.2v.074h.34v.232H172.1v1h-.29v-1h-.2v-.232h.2v-.079a.4.4,0,0,1,.442-.429m.519.12a.177.177,0,0,1,.186-.174.172.172,0,0,1,.185.167.186.186,0,0,1-.371.007m.039.378h.29v1.237h-.29Z" transform="translate(-119.489 -116.093)" fill="#263238"/>
        <rect id="Rectangle_2110" data-name="Rectangle 2110" width="0.29" height="1.719" transform="translate(53.991 50.709)" fill="#263238"/>
        <path id="Path_5018" data-name="Path 5018" d="M180.912,169.229h-.971a.374.374,0,0,0,.4.3.443.443,0,0,0,.336-.135l.155.179a.7.7,0,0,1-1.182-.433.615.615,0,0,1,.64-.632.6.6,0,0,1,.626.639c0,.023,0,.058,0,.086m-.973-.192h.7a.337.337,0,0,0-.35-.3.342.342,0,0,0-.352.3" transform="translate(-125.092 -117.326)" fill="#263238"/>
        <path id="Path_5019" data-name="Path 5019" d="M185.955,169.046v.709h-.29v-.672c0-.22-.109-.327-.294-.327a.329.329,0,0,0-.346.373v.626h-.289v-1.238h.276v.16a.538.538,0,0,1,.426-.174.483.483,0,0,1,.517.542" transform="translate(-128.633 -117.326)" fill="#263238"/>
        <path id="Path_5020" data-name="Path 5020" d="M190.8,169.029v.725h-.273V169.6a.439.439,0,0,1-.389.167c-.283,0-.461-.155-.461-.371s.139-.368.514-.368h.32v-.019c0-.169-.1-.269-.308-.269a.613.613,0,0,0-.375.123l-.113-.211a.869.869,0,0,1,.524-.153c.357,0,.563.169.563.526m-.29.338v-.144h-.3c-.2,0-.25.074-.25.164s.088.172.236.172a.315.315,0,0,0,.313-.192" transform="translate(-132.073 -117.326)" fill="#263238"/>
        <path id="Path_5021" data-name="Path 5021" d="M196.669,169.046v.709h-.29v-.672c0-.22-.1-.327-.278-.327s-.322.125-.322.371v.628h-.289v-.672c0-.22-.1-.327-.278-.327-.192,0-.322.125-.322.371v.628h-.29v-1.238h.276v.158a.512.512,0,0,1,.405-.171.463.463,0,0,1,.417.206.578.578,0,0,1,.464-.206.476.476,0,0,1,.507.542" transform="translate(-135.501 -117.326)" fill="#263238"/>
        <path id="Path_5022" data-name="Path 5022" d="M203.6,169.229h-.971a.374.374,0,0,0,.4.3.443.443,0,0,0,.336-.135l.155.179a.7.7,0,0,1-1.182-.433.615.615,0,0,1,.64-.632.6.6,0,0,1,.626.639c0,.023,0,.058,0,.086m-.973-.192h.7a.337.337,0,0,0-.35-.3.342.342,0,0,0-.352.3" transform="translate(-140.892 -117.326)" fill="#263238"/>
        <path id="Path_5023" data-name="Path 5023" d="M207.107,171.6a.19.19,0,1,1,.38,0,.19.19,0,1,1-.38,0" transform="translate(-144.21 -119.351)" fill="#263238"/>
        <path id="Path_5024" data-name="Path 5024" d="M208.031,168.916l.084-.216a.285.285,0,0,0,.169.049c.107,0,.167-.065.167-.2v-1.267h.29v1.26a.4.4,0,0,1-.431.443.474.474,0,0,1-.278-.072m.378-2.009a.176.176,0,0,1,.185-.174.173.173,0,0,1,.186.167.186.186,0,0,1-.371.007" transform="translate(-144.853 -116.093)" fill="#263238"/>
        <path id="Path_5025" data-name="Path 5025" d="M212.932,169.136a.6.6,0,0,1-.628.635.508.508,0,0,1-.4-.167v.6h-.29v-1.687h.276v.162a.511.511,0,0,1,.41-.176.6.6,0,0,1,.628.633m-.294,0a.368.368,0,1,0-.366.387.36.36,0,0,0,.366-.387" transform="translate(-147.351 -117.326)" fill="#263238"/>
        <path id="Path_5026" data-name="Path 5026" d="M217.851,168.518v1.05a.583.583,0,0,1-.667.654.985.985,0,0,1-.6-.176l.13-.218a.748.748,0,0,0,.456.148c.273,0,.394-.125.394-.375v-.065a.544.544,0,0,1-.415.164.6.6,0,1,1,0-1.2.535.535,0,0,1,.429.178v-.165Zm-.285.582a.377.377,0,1,0-.375.355.348.348,0,0,0,.375-.355" transform="translate(-150.765 -117.326)" fill="#263238"/>
        <path id="Path_5027" data-name="Path 5027" d="M172.184,176.872h.131V178h.694v.113h-.825Z" transform="translate(-119.893 -123.153)" fill="#e0e0e0"/>
        <path id="Path_5028" data-name="Path 5028" d="M175.171,178.336a.474.474,0,1,1,.474.474.458.458,0,0,1-.474-.474m.82,0a.347.347,0,1,0-.346.363.34.34,0,0,0,.346-.363" transform="translate(-121.973 -123.843)" fill="#e0e0e0"/>
        <path id="Path_5029" data-name="Path 5029" d="M179.638,178.224v.577h-.12v-.145a.35.35,0,0,1-.32.154c-.211,0-.34-.11-.34-.271,0-.143.092-.264.359-.264h.3v-.057c0-.159-.09-.246-.264-.246a.474.474,0,0,0-.31.11l-.057-.094a.59.59,0,0,1,.379-.126.331.331,0,0,1,.377.361m-.126.3v-.152h-.292c-.181,0-.239.071-.239.166s.087.176.236.176a.3.3,0,0,0,.3-.189" transform="translate(-124.539 -123.843)" fill="#e0e0e0"/>
        <path id="Path_5030" data-name="Path 5030" d="M183.194,176.627v1.314h-.12v-.184a.4.4,0,0,1-.359.193.474.474,0,0,1,0-.947.407.407,0,0,1,.354.184v-.559Zm-.124.848a.346.346,0,1,0-.345.363.341.341,0,0,0,.345-.363" transform="translate(-126.902 -122.982)" fill="#e0e0e0"/>
        <path id="Path_5031" data-name="Path 5031" d="M186.414,176.715a.091.091,0,0,1,.092-.088.089.089,0,0,1,.092.087.092.092,0,0,1-.184,0m.029.294h.126v.931h-.126Z" transform="translate(-129.801 -122.982)" fill="#e0e0e0"/>
        <path id="Path_5032" data-name="Path 5032" d="M188.931,178.26v.54H188.8v-.528a.26.26,0,0,0-.28-.3.306.306,0,0,0-.326.337v.489h-.125v-.931h.12v.172a.391.391,0,0,1,.354-.179.357.357,0,0,1,.382.4" transform="translate(-130.957 -123.842)" fill="#e0e0e0"/>
        <path id="Path_5033" data-name="Path 5033" d="M192.674,177.87v.818a.409.409,0,0,1-.466.466.649.649,0,0,1-.434-.144l.064-.1a.552.552,0,0,0,.366.128c.236,0,.343-.108.343-.338v-.118a.419.419,0,0,1-.363.181.452.452,0,1,1,0-.9.42.42,0,0,1,.368.186v-.179Zm-.122.443a.353.353,0,1,0-.354.342.333.333,0,0,0,.354-.342" transform="translate(-133.495 -123.843)" fill="#e0e0e0"/>
        <path id="Path_5034" data-name="Path 5034" d="M197.279,180.441a.094.094,0,0,1,.094-.1.1.1,0,0,1,.1.1.1.1,0,0,1-.1.1.1.1,0,0,1-.094-.1" transform="translate(-137.367 -125.571)" fill="#e0e0e0"/>
        <path id="Path_5035" data-name="Path 5035" d="M198.512,180.441a.094.094,0,0,1,.094-.1.1.1,0,0,1,.1.1.1.1,0,0,1-.1.1.1.1,0,0,1-.094-.1" transform="translate(-138.225 -125.571)" fill="#e0e0e0"/>
        <path id="Path_5036" data-name="Path 5036" d="M199.747,180.441a.094.094,0,0,1,.094-.1.1.1,0,0,1,.1.1.1.1,0,0,1-.1.1.1.1,0,0,1-.094-.1" transform="translate(-139.085 -125.571)" fill="#e0e0e0"/>
        <path id="Path_5037" data-name="Path 5037" d="M224.564,185.295H170.54a.5.5,0,1,1,0-1.009h54.024a.5.5,0,0,1,0,1.009" transform="translate(-118.397 -128.315)" fill="#e0e0e0"/>
        <path id="Path_5038" data-name="Path 5038" d="M202.107,185.295H170.54a.5.5,0,1,1,0-1.009h31.567a.5.5,0,0,1,0,1.009" transform="translate(-118.397 -128.315)" fill="#e8505b"/>
        <path id="Path_5039" data-name="Path 5039" d="M356.832,182.965a7.895,7.895,0,0,1-1.578,1.578,7.893,7.893,0,0,1,1.578-1.578" transform="translate(-247.365 -127.394)" fill="#263238"/>
        <path id="Path_5040" data-name="Path 5040" d="M356.714,184.543a7.892,7.892,0,0,1-1.578-1.578,7.891,7.891,0,0,1,1.578,1.578" transform="translate(-247.282 -127.394)" fill="#263238"/>
        <path id="Path_5041" data-name="Path 5041" d="M332.978,177.974v.113h-.869V178l.515-.5c.139-.138.166-.221.166-.306,0-.143-.1-.232-.291-.232a.419.419,0,0,0-.338.138l-.091-.078a.556.556,0,0,1,.439-.177c.251,0,.411.128.411.334a.511.511,0,0,1-.2.388l-.422.414Z" transform="translate(-231.224 -123.129)" fill="#e0e0e0"/>
        <path id="Path_5042" data-name="Path 5042" d="M335.554,177.467c0-.395.207-.63.494-.63s.5.235.5.63-.209.63-.5.63-.494-.235-.494-.63m.859,0c0-.331-.148-.513-.364-.513s-.365.182-.365.513.148.513.365.513.364-.182.364-.513" transform="translate(-233.648 -123.129)" fill="#e0e0e0"/>
        <path id="Path_5043" data-name="Path 5043" d="M341.553,177.473l-.22.2v.266h-.126v-1.314h.126v.891l.556-.508h.156l-.4.381.435.551h-.154Z" transform="translate(-237.585 -122.982)" fill="#e0e0e0"/>
        <path id="Path_5044" data-name="Path 5044" d="M345.65,177.475a.452.452,0,0,1-.464.474.4.4,0,0,1-.359-.193v.184h-.12v-1.314h.126v.559a.406.406,0,0,1,.354-.184.45.45,0,0,1,.464.473m-.126,0a.347.347,0,1,0-.347.363.342.342,0,0,0,.347-.363" transform="translate(-240.022 -122.982)" fill="#e0e0e0"/>
        <path id="Path_5045" data-name="Path 5045" d="M146.533,212.8h-4.7a.588.588,0,0,1-.588-.588v-6.5a.588.588,0,0,1,.588-.588h2.979l2.306,2.377v4.713a.588.588,0,0,1-.588.588" transform="translate(-98.352 -142.821)" fill="#e8505b"/>
        <path id="Path_5046" data-name="Path 5046" d="M152.993,205.12v1.83a.547.547,0,0,0,.547.547H155.3Z" transform="translate(-106.53 -142.822)" fill="#e8505b"/>
        <g id="Group_2151" data-name="Group 2151" transform="translate(46.487 64.289)" opacity="0.2">
          <g id="Group_2150" data-name="Group 2150">
            <g id="Group_2149" data-name="Group 2149" clip-path="url(#clip-path-14)">
              <path id="Path_5047" data-name="Path 5047" d="M153.072,211.673a.608.608,0,0,0,.482.59c.019.005.039.009.058.013.23.041,1.742.31,1.742.275v-.492h-1.759s-.439-.015-.523-.386" transform="translate(-153.071 -211.673)"/>
            </g>
          </g>
        </g>
        <g id="Group_2154" data-name="Group 2154" transform="translate(46.463 62.298)" opacity="0.3">
          <g id="Group_2153" data-name="Group 2153">
            <g id="Group_2152" data-name="Group 2152" clip-path="url(#clip-path-15)">
              <path id="Path_5048" data-name="Path 5048" d="M152.993,205.12v1.83a.547.547,0,0,0,.547.547H155.3Z" transform="translate(-152.993 -205.12)" fill="#fff"/>
            </g>
          </g>
        </g>
        <path id="Path_5049" data-name="Path 5049" d="M146.713,210.8a13.909,13.909,0,0,1-2.173,0,13.9,13.9,0,0,1,2.173,0" transform="translate(-100.644 -146.748)" fill="#fafafa"/>
        <path id="Path_5050" data-name="Path 5050" d="M148.117,214.208c0,.023-.8.043-1.788.043s-1.788-.019-1.788-.043.8-.043,1.788-.043,1.788.019,1.788.043" transform="translate(-100.644 -149.119)" fill="#fafafa"/>
        <path id="Path_5051" data-name="Path 5051" d="M148.439,217.052c0,.023-.873.043-1.949.043s-1.95-.019-1.95-.043.873-.043,1.95-.043,1.949.019,1.949.043" transform="translate(-100.644 -151.1)" fill="#fafafa"/>
        <path id="Path_5052" data-name="Path 5052" d="M148.439,219.737c0,.023-.873.043-1.949.043s-1.95-.019-1.95-.043.873-.043,1.95-.043,1.949.019,1.949.043" transform="translate(-100.644 -152.969)" fill="#fafafa"/>
        <path id="Path_5053" data-name="Path 5053" d="M148.439,222.421c0,.023-.873.043-1.949.043s-1.95-.019-1.95-.043.873-.043,1.95-.043,1.949.019,1.949.043" transform="translate(-100.644 -154.838)" fill="#fafafa"/>
        <path id="Path_5054" data-name="Path 5054" d="M148.439,225.1c0,.023-.873.043-1.949.043s-1.95-.019-1.95-.043.873-.043,1.95-.043,1.949.019,1.949.043" transform="translate(-100.644 -156.706)" fill="#fafafa"/>
        <path id="Path_5055" data-name="Path 5055" d="M172.25,207.68a.464.464,0,0,1,.262.067l-.081.217a.288.288,0,0,0-.16-.051c-.121,0-.183.067-.183.2v.074h.34v.232H172.1v1h-.29v-1h-.2v-.232h.2v-.079a.4.4,0,0,1,.442-.429m.519.121a.177.177,0,0,1,.186-.174.172.172,0,0,1,.185.167.186.186,0,0,1-.371.007m.039.378h.29v1.237h-.29Z" transform="translate(-119.489 -144.567)" fill="#263238"/>
        <rect id="Rectangle_2113" data-name="Rectangle 2113" width="0.29" height="1.719" transform="translate(53.991 63.129)" fill="#263238"/>
        <path id="Path_5056" data-name="Path 5056" d="M180.912,210.123h-.971a.374.374,0,0,0,.4.3.443.443,0,0,0,.336-.135l.155.179a.695.695,0,0,1-1.182-.433.615.615,0,0,1,.64-.633.6.6,0,0,1,.626.64c0,.023,0,.058,0,.086m-.973-.193h.7a.337.337,0,0,0-.35-.3.342.342,0,0,0-.352.3" transform="translate(-125.092 -145.8)" fill="#263238"/>
        <path id="Path_5057" data-name="Path 5057" d="M185.955,209.939v.709h-.29v-.672c0-.22-.109-.327-.294-.327a.329.329,0,0,0-.346.373v.626h-.289v-1.237h.276v.16a.538.538,0,0,1,.426-.174.484.484,0,0,1,.517.542" transform="translate(-128.633 -145.8)" fill="#263238"/>
        <path id="Path_5058" data-name="Path 5058" d="M190.8,209.922v.725h-.273V210.5a.438.438,0,0,1-.389.167c-.283,0-.461-.156-.461-.371s.139-.368.514-.368h.32v-.019c0-.169-.1-.269-.308-.269a.613.613,0,0,0-.375.123l-.113-.211a.869.869,0,0,1,.524-.153c.357,0,.563.169.563.526m-.29.338v-.144h-.3c-.2,0-.25.074-.25.165s.088.172.236.172a.315.315,0,0,0,.313-.193" transform="translate(-132.073 -145.799)" fill="#263238"/>
        <path id="Path_5059" data-name="Path 5059" d="M196.669,209.939v.709h-.29v-.672c0-.22-.1-.327-.278-.327s-.322.125-.322.371v.628h-.289v-.672c0-.22-.1-.327-.278-.327-.192,0-.322.125-.322.371v.628h-.29v-1.237h.276v.157a.512.512,0,0,1,.405-.171.463.463,0,0,1,.417.207.578.578,0,0,1,.464-.207.476.476,0,0,1,.507.542" transform="translate(-135.501 -145.8)" fill="#263238"/>
        <path id="Path_5060" data-name="Path 5060" d="M203.6,210.123h-.971a.374.374,0,0,0,.4.3.443.443,0,0,0,.336-.135l.155.179a.695.695,0,0,1-1.182-.433.615.615,0,0,1,.64-.633.6.6,0,0,1,.626.64c0,.023,0,.058,0,.086m-.973-.193h.7a.337.337,0,0,0-.35-.3.342.342,0,0,0-.352.3" transform="translate(-140.892 -145.8)" fill="#263238"/>
        <path id="Path_5061" data-name="Path 5061" d="M207.107,212.5a.19.19,0,1,1,.38,0,.19.19,0,1,1-.38,0" transform="translate(-144.21 -147.824)" fill="#263238"/>
        <path id="Path_5062" data-name="Path 5062" d="M210.6,210.03a.6.6,0,0,1-.628.635.508.508,0,0,1-.4-.167v.6h-.29v-1.687h.276v.162a.511.511,0,0,1,.41-.176.6.6,0,0,1,.628.633m-.294,0a.368.368,0,1,0-.366.387.36.36,0,0,0,.366-.387" transform="translate(-145.73 -145.8)" fill="#263238"/>
        <path id="Path_5063" data-name="Path 5063" d="M215.747,209.939v.709h-.29v-.672c0-.22-.109-.327-.294-.327a.329.329,0,0,0-.345.373v.626h-.29v-1.237h.276v.16a.538.538,0,0,1,.426-.174.484.484,0,0,1,.517.542" transform="translate(-149.377 -145.8)" fill="#263238"/>
        <path id="Path_5064" data-name="Path 5064" d="M220.79,209.411v1.05a.583.583,0,0,1-.667.653.985.985,0,0,1-.6-.176l.13-.218a.748.748,0,0,0,.456.148c.273,0,.394-.125.394-.375v-.065a.544.544,0,0,1-.415.164.6.6,0,1,1,0-1.2.536.536,0,0,1,.429.179v-.165Zm-.285.582a.377.377,0,1,0-.375.354.348.348,0,0,0,.375-.354" transform="translate(-152.811 -145.8)" fill="#263238"/>
        <path id="Path_5065" data-name="Path 5065" d="M172.184,217.765h.131v1.126h.694V219h-.825Z" transform="translate(-119.893 -151.626)" fill="#e0e0e0"/>
        <path id="Path_5066" data-name="Path 5066" d="M175.171,219.229a.474.474,0,1,1,.474.474.458.458,0,0,1-.474-.474m.82,0a.347.347,0,1,0-.346.363.34.34,0,0,0,.346-.363" transform="translate(-121.973 -152.316)" fill="#e0e0e0"/>
        <path id="Path_5067" data-name="Path 5067" d="M179.638,219.117v.577h-.12v-.145a.35.35,0,0,1-.32.154c-.211,0-.34-.11-.34-.271,0-.144.092-.264.359-.264h.3v-.056c0-.159-.09-.246-.264-.246a.473.473,0,0,0-.31.11l-.057-.094a.591.591,0,0,1,.379-.125.331.331,0,0,1,.377.361m-.126.3v-.152h-.292c-.181,0-.239.07-.239.166s.087.175.236.175a.3.3,0,0,0,.3-.19" transform="translate(-124.539 -152.316)" fill="#e0e0e0"/>
        <path id="Path_5068" data-name="Path 5068" d="M183.194,217.52v1.314h-.12v-.184a.4.4,0,0,1-.359.193.474.474,0,0,1,0-.947.406.406,0,0,1,.354.184v-.559Zm-.124.848a.346.346,0,1,0-.345.363.34.34,0,0,0,.345-.363" transform="translate(-126.902 -151.455)" fill="#e0e0e0"/>
        <path id="Path_5069" data-name="Path 5069" d="M186.414,217.609a.091.091,0,0,1,.092-.089.089.089,0,0,1,.092.087.092.092,0,0,1-.184,0m.029.293h.126v.931h-.126Z" transform="translate(-129.801 -151.455)" fill="#e0e0e0"/>
        <path id="Path_5070" data-name="Path 5070" d="M188.931,219.154v.54H188.8v-.528a.26.26,0,0,0-.28-.3.305.305,0,0,0-.326.337v.488h-.125v-.931h.12v.172a.391.391,0,0,1,.354-.179.356.356,0,0,1,.382.4" transform="translate(-130.957 -152.316)" fill="#e0e0e0"/>
        <path id="Path_5071" data-name="Path 5071" d="M192.674,218.764v.818a.409.409,0,0,1-.466.466.649.649,0,0,1-.434-.144l.064-.1a.552.552,0,0,0,.366.128c.236,0,.343-.108.343-.338v-.119a.419.419,0,0,1-.363.181.452.452,0,1,1,0-.9.421.421,0,0,1,.368.186v-.179Zm-.122.443a.353.353,0,1,0-.354.342.333.333,0,0,0,.354-.342" transform="translate(-133.495 -152.317)" fill="#e0e0e0"/>
        <path id="Path_5072" data-name="Path 5072" d="M197.279,221.335a.094.094,0,0,1,.094-.1.1.1,0,0,1,.1.1.1.1,0,0,1-.1.1.1.1,0,0,1-.094-.1" transform="translate(-137.367 -154.045)" fill="#e0e0e0"/>
        <path id="Path_5073" data-name="Path 5073" d="M198.512,221.335a.094.094,0,0,1,.094-.1.1.1,0,0,1,.1.1.1.1,0,0,1-.1.1.1.1,0,0,1-.094-.1" transform="translate(-138.225 -154.045)" fill="#e0e0e0"/>
        <path id="Path_5074" data-name="Path 5074" d="M199.747,221.335a.094.094,0,0,1,.094-.1.1.1,0,0,1,.1.1.1.1,0,0,1-.1.1.1.1,0,0,1-.094-.1" transform="translate(-139.085 -154.045)" fill="#e0e0e0"/>
        <path id="Path_5075" data-name="Path 5075" d="M224.564,226.187H170.54a.5.5,0,1,1,0-1.009h54.024a.5.5,0,0,1,0,1.009" transform="translate(-118.397 -156.788)" fill="#e0e0e0"/>
        <path id="Path_5076" data-name="Path 5076" d="M182.521,226.187H170.54a.5.5,0,1,1,0-1.009h11.981a.5.5,0,0,1,0,1.009" transform="translate(-118.397 -156.788)" fill="#e8505b"/>
        <path id="Path_5077" data-name="Path 5077" d="M356.832,223.858a7.9,7.9,0,0,1-1.578,1.578,7.892,7.892,0,0,1,1.578-1.578" transform="translate(-247.365 -155.867)" fill="#263238"/>
        <path id="Path_5078" data-name="Path 5078" d="M356.714,225.436a7.893,7.893,0,0,1-1.578-1.578,7.89,7.89,0,0,1,1.578,1.578" transform="translate(-247.282 -155.867)" fill="#263238"/>
        <path id="Path_5079" data-name="Path 5079" d="M332.916,218.648c0,.207-.15.367-.449.367a.645.645,0,0,1-.446-.159l.062-.1a.542.542,0,0,0,.384.143c.205,0,.318-.1.318-.25s-.1-.246-.334-.246h-.088v-.094l.343-.43h-.634v-.113h.8v.09l-.35.441c.265.014.4.154.4.352" transform="translate(-231.188 -151.626)" fill="#e0e0e0"/>
        <path id="Path_5080" data-name="Path 5080" d="M336.232,218.866v.113h-.869v-.09l.515-.5c.14-.138.166-.221.166-.306,0-.143-.1-.232-.29-.232a.419.419,0,0,0-.338.138l-.091-.078a.557.557,0,0,1,.439-.177c.251,0,.411.128.411.334a.51.51,0,0,1-.2.388l-.421.414Z" transform="translate(-233.49 -151.602)" fill="#e0e0e0"/>
        <path id="Path_5081" data-name="Path 5081" d="M342,217.765V219h-.126v-.991l-.487.834h-.062l-.487-.829V219h-.126v-1.239h.108l.538.919.533-.919Z" transform="translate(-237.244 -151.626)" fill="#e0e0e0"/>
        <path id="Path_5082" data-name="Path 5082" d="M347.314,218.673c0,.211-.156.331-.466.331h-.57v-1.239h.535c.276,0,.435.117.435.319a.287.287,0,0,1-.189.281.3.3,0,0,1,.255.308m-.9-.8v.45h.395c.2,0,.313-.076.313-.225s-.115-.225-.313-.225Zm.773.79c0-.161-.118-.232-.336-.232h-.437v.466h.437c.218,0,.336-.071.336-.234" transform="translate(-241.116 -151.626)" fill="#e0e0e0"/>
        <path id="Path_5083" data-name="Path 5083" d="M146.533,253.69h-4.7a.588.588,0,0,1-.588-.588v-6.5a.588.588,0,0,1,.588-.588h2.979l2.306,2.377V253.1a.588.588,0,0,1-.588.588" transform="translate(-98.352 -171.294)" fill="#e8505b"/>
        <path id="Path_5084" data-name="Path 5084" d="M152.993,246.012v1.83a.547.547,0,0,0,.547.547H155.3Z" transform="translate(-106.53 -171.294)" fill="#e8505b"/>
        <g id="Group_2157" data-name="Group 2157" transform="translate(46.487 76.709)" opacity="0.2">
          <g id="Group_2156" data-name="Group 2156">
            <g id="Group_2155" data-name="Group 2155" clip-path="url(#clip-path-14)">
              <path id="Path_5085" data-name="Path 5085" d="M153.072,252.566a.608.608,0,0,0,.482.59c.019.005.039.009.058.013.23.041,1.742.31,1.742.275v-.492h-1.759s-.439-.015-.523-.386" transform="translate(-153.071 -252.566)"/>
            </g>
          </g>
        </g>
        <g id="Group_2160" data-name="Group 2160" transform="translate(46.463 74.718)" opacity="0.3">
          <g id="Group_2159" data-name="Group 2159">
            <g id="Group_2158" data-name="Group 2158" clip-path="url(#clip-path-15)">
              <path id="Path_5086" data-name="Path 5086" d="M152.993,246.012v1.83a.547.547,0,0,0,.547.547H155.3Z" transform="translate(-152.993 -246.012)" fill="#fff"/>
            </g>
          </g>
        </g>
        <path id="Path_5087" data-name="Path 5087" d="M146.713,251.694a13.9,13.9,0,0,1-2.173,0,13.909,13.909,0,0,1,2.173,0" transform="translate(-100.644 -175.22)" fill="#fafafa"/>
        <path id="Path_5088" data-name="Path 5088" d="M148.117,255.1c0,.023-.8.043-1.788.043s-1.788-.019-1.788-.043.8-.043,1.788-.043,1.788.019,1.788.043" transform="translate(-100.644 -177.593)" fill="#fafafa"/>
        <path id="Path_5089" data-name="Path 5089" d="M148.439,257.945c0,.023-.873.043-1.949.043s-1.95-.019-1.95-.043.873-.042,1.95-.042,1.949.019,1.949.042" transform="translate(-100.644 -179.573)" fill="#fafafa"/>
        <path id="Path_5090" data-name="Path 5090" d="M148.439,260.629c0,.023-.873.043-1.949.043s-1.95-.019-1.95-.043.873-.043,1.95-.043,1.949.019,1.949.043" transform="translate(-100.644 -181.442)" fill="#fafafa"/>
        <path id="Path_5091" data-name="Path 5091" d="M148.439,263.313c0,.023-.873.042-1.949.042s-1.95-.019-1.95-.042.873-.043,1.95-.043,1.949.019,1.949.043" transform="translate(-100.644 -183.31)" fill="#fafafa"/>
        <path id="Path_5092" data-name="Path 5092" d="M148.439,266c0,.023-.873.043-1.949.043s-1.95-.019-1.95-.043.873-.043,1.95-.043,1.949.019,1.949.043" transform="translate(-100.644 -185.179)" fill="#fafafa"/>
        <path id="Path_5093" data-name="Path 5093" d="M172.25,248.573a.466.466,0,0,1,.262.067l-.081.218a.285.285,0,0,0-.16-.051c-.121,0-.183.067-.183.2v.074h.34v.232H172.1v1h-.29v-1h-.2v-.232h.2V249a.4.4,0,0,1,.442-.429m.519.121a.177.177,0,0,1,.186-.174.172.172,0,0,1,.185.167.186.186,0,0,1-.371.007m.039.378h.29v1.237h-.29Z" transform="translate(-119.489 -173.04)" fill="#263238"/>
        <rect id="Rectangle_2116" data-name="Rectangle 2116" width="0.29" height="1.719" transform="translate(53.991 75.549)" fill="#263238"/>
        <path id="Path_5094" data-name="Path 5094" d="M180.912,251.015h-.971a.374.374,0,0,0,.4.3.443.443,0,0,0,.336-.135l.155.179a.695.695,0,0,1-1.182-.433.615.615,0,0,1,.64-.633.6.6,0,0,1,.626.64c0,.023,0,.058,0,.086m-.973-.193h.7a.337.337,0,0,0-.35-.3.342.342,0,0,0-.352.3" transform="translate(-125.092 -174.272)" fill="#263238"/>
        <path id="Path_5095" data-name="Path 5095" d="M185.955,250.831v.709h-.29v-.672c0-.22-.109-.326-.294-.326a.329.329,0,0,0-.346.373v.626h-.289V250.3h.276v.16a.538.538,0,0,1,.426-.174.484.484,0,0,1,.517.542" transform="translate(-128.633 -174.272)" fill="#263238"/>
        <path id="Path_5096" data-name="Path 5096" d="M190.8,250.815v.725h-.273v-.151a.438.438,0,0,1-.389.167c-.283,0-.461-.156-.461-.371s.139-.368.514-.368h.32V250.8c0-.169-.1-.269-.308-.269a.613.613,0,0,0-.375.123l-.113-.211a.869.869,0,0,1,.524-.153c.357,0,.563.169.563.526m-.29.338v-.144h-.3c-.2,0-.25.074-.25.165s.088.172.236.172a.315.315,0,0,0,.313-.193" transform="translate(-132.073 -174.272)" fill="#263238"/>
        <path id="Path_5097" data-name="Path 5097" d="M196.669,250.831v.709h-.29v-.672c0-.22-.1-.326-.278-.326s-.322.125-.322.371v.628h-.289v-.672c0-.22-.1-.326-.278-.326-.192,0-.322.125-.322.371v.628h-.29V250.3h.276v.157a.512.512,0,0,1,.405-.171.463.463,0,0,1,.417.207.578.578,0,0,1,.464-.207.476.476,0,0,1,.507.542" transform="translate(-135.501 -174.272)" fill="#263238"/>
        <path id="Path_5098" data-name="Path 5098" d="M203.6,251.015h-.971a.374.374,0,0,0,.4.3.443.443,0,0,0,.336-.135l.155.179a.695.695,0,0,1-1.182-.433.615.615,0,0,1,.64-.633.6.6,0,0,1,.626.64c0,.023,0,.058,0,.086m-.973-.193h.7a.337.337,0,0,0-.35-.3.342.342,0,0,0-.352.3" transform="translate(-140.892 -174.272)" fill="#263238"/>
        <path id="Path_5099" data-name="Path 5099" d="M207.107,253.388a.19.19,0,1,1,.38,0,.19.19,0,1,1-.38,0" transform="translate(-144.21 -176.296)" fill="#263238"/>
        <path id="Path_5100" data-name="Path 5100" d="M210.6,250.922a.6.6,0,0,1-.628.635.508.508,0,0,1-.4-.167v.6h-.29V250.3h.276v.162a.511.511,0,0,1,.41-.176.6.6,0,0,1,.628.633m-.294,0a.368.368,0,1,0-.366.387.36.36,0,0,0,.366-.387" transform="translate(-145.73 -174.272)" fill="#263238"/>
        <path id="Path_5101" data-name="Path 5101" d="M215.506,248.748v1.719h-.278v-.16a.51.51,0,0,1-.41.176.634.634,0,0,1,0-1.268.507.507,0,0,1,.4.167v-.635Zm-.285,1.1a.369.369,0,1,0-.368.387.362.362,0,0,0,.368-.387" transform="translate(-149.143 -173.199)" fill="#263238"/>
        <path id="Path_5102" data-name="Path 5102" d="M219.715,249.127v.074h.34v.232h-.331v1h-.29v-1h-.2V249.2h.2v-.079a.4.4,0,0,1,.443-.429.465.465,0,0,1,.262.067l-.081.218a.285.285,0,0,0-.16-.051c-.121,0-.183.067-.183.2" transform="translate(-152.652 -173.161)" fill="#263238"/>
        <path id="Path_5103" data-name="Path 5103" d="M172.184,258.657h.131v1.126h.694v.113h-.825Z" transform="translate(-119.893 -180.099)" fill="#e0e0e0"/>
        <path id="Path_5104" data-name="Path 5104" d="M175.171,260.121a.474.474,0,1,1,.474.474.458.458,0,0,1-.474-.474m.82,0a.347.347,0,1,0-.346.363.34.34,0,0,0,.346-.363" transform="translate(-121.973 -180.789)" fill="#e0e0e0"/>
        <path id="Path_5105" data-name="Path 5105" d="M179.638,260.01v.577h-.12v-.145a.35.35,0,0,1-.32.154c-.211,0-.34-.11-.34-.271,0-.144.092-.264.359-.264h.3V260c0-.159-.09-.246-.264-.246a.473.473,0,0,0-.31.11l-.057-.094a.591.591,0,0,1,.379-.125.331.331,0,0,1,.377.361m-.126.3v-.152h-.292c-.181,0-.239.07-.239.166s.087.175.236.175a.3.3,0,0,0,.3-.19" transform="translate(-124.539 -180.789)" fill="#e0e0e0"/>
        <path id="Path_5106" data-name="Path 5106" d="M183.194,258.412v1.314h-.12v-.184a.4.4,0,0,1-.359.193.474.474,0,0,1,0-.947.406.406,0,0,1,.354.184v-.559Zm-.124.848a.346.346,0,1,0-.345.363.34.34,0,0,0,.345-.363" transform="translate(-126.902 -179.928)" fill="#e0e0e0"/>
        <path id="Path_5107" data-name="Path 5107" d="M186.414,258.5a.091.091,0,0,1,.092-.089.089.089,0,0,1,.092.087.092.092,0,0,1-.184,0m.029.294h.126v.931h-.126Z" transform="translate(-129.801 -179.928)" fill="#e0e0e0"/>
        <path id="Path_5108" data-name="Path 5108" d="M188.931,260.046v.54H188.8v-.528a.26.26,0,0,0-.28-.3.305.305,0,0,0-.326.336v.488h-.125v-.931h.12v.172a.391.391,0,0,1,.354-.179.356.356,0,0,1,.382.4" transform="translate(-130.957 -180.789)" fill="#e0e0e0"/>
        <path id="Path_5109" data-name="Path 5109" d="M192.674,259.656v.818a.409.409,0,0,1-.466.466.649.649,0,0,1-.434-.144l.064-.1a.552.552,0,0,0,.366.128c.236,0,.343-.108.343-.338v-.119a.419.419,0,0,1-.363.181.452.452,0,1,1,0-.9.421.421,0,0,1,.368.186v-.179Zm-.122.443a.353.353,0,1,0-.354.342.333.333,0,0,0,.354-.342" transform="translate(-133.495 -180.789)" fill="#e0e0e0"/>
        <path id="Path_5110" data-name="Path 5110" d="M197.279,262.228a.094.094,0,0,1,.094-.1.1.1,0,0,1,.1.1.1.1,0,0,1-.1.1.1.1,0,0,1-.094-.1" transform="translate(-137.367 -182.518)" fill="#e0e0e0"/>
        <path id="Path_5111" data-name="Path 5111" d="M198.512,262.228a.094.094,0,0,1,.094-.1.1.1,0,0,1,.1.1.1.1,0,0,1-.1.1.1.1,0,0,1-.094-.1" transform="translate(-138.225 -182.518)" fill="#e0e0e0"/>
        <path id="Path_5112" data-name="Path 5112" d="M199.747,262.228a.094.094,0,0,1,.094-.1.1.1,0,0,1,.1.1.1.1,0,0,1-.1.1.1.1,0,0,1-.094-.1" transform="translate(-139.085 -182.518)" fill="#e0e0e0"/>
        <path id="Path_5113" data-name="Path 5113" d="M224.564,267.08H170.54a.5.5,0,1,1,0-1.009h54.024a.5.5,0,0,1,0,1.009" transform="translate(-118.397 -185.261)" fill="#e0e0e0"/>
        <path id="Path_5114" data-name="Path 5114" d="M216.888,267.08H170.54a.5.5,0,0,1,0-1.009h46.348a.5.5,0,0,1,0,1.009" transform="translate(-118.397 -185.261)" fill="#e8505b"/>
        <path id="Path_5115" data-name="Path 5115" d="M356.832,264.75a7.894,7.894,0,0,1-1.578,1.578,7.892,7.892,0,0,1,1.578-1.578" transform="translate(-247.365 -184.34)" fill="#263238"/>
        <path id="Path_5116" data-name="Path 5116" d="M356.714,266.329a7.892,7.892,0,0,1-1.578-1.578,7.888,7.888,0,0,1,1.578,1.578" transform="translate(-247.282 -184.341)" fill="#263238"/>
        <path id="Path_5117" data-name="Path 5117" d="M332.439,258.657V259.9h-.127v-1.126h-.292v-.113Z" transform="translate(-231.187 -180.099)" fill="#e0e0e0"/>
        <path id="Path_5118" data-name="Path 5118" d="M335.091,259.531c0,.211-.147.375-.45.375a.64.64,0,0,1-.444-.159l.062-.1a.537.537,0,0,0,.381.144c.21,0,.322-.1.322-.253s-.1-.258-.414-.258h-.264l.064-.621h.678v.113h-.566l-.043.395h.16c.373,0,.515.147.515.366" transform="translate(-232.704 -180.098)" fill="#e0e0e0"/>
        <path id="Path_5119" data-name="Path 5119" d="M340.841,258.657V259.9h-.126v-.991l-.487.834h-.062l-.487-.829v.986h-.126v-1.239h.108l.538.919.533-.919Z" transform="translate(-236.434 -180.099)" fill="#e0e0e0"/>
        <path id="Path_5120" data-name="Path 5120" d="M346.15,259.566c0,.211-.156.331-.466.331h-.57v-1.239h.535c.276,0,.436.117.436.319a.288.288,0,0,1-.189.282.3.3,0,0,1,.255.308m-.9-.8v.45h.395c.2,0,.313-.076.313-.225s-.115-.225-.313-.225Zm.773.79c0-.161-.118-.232-.336-.232h-.437v.466h.437c.218,0,.336-.071.336-.234" transform="translate(-240.305 -180.099)" fill="#e0e0e0"/>
        <path id="Path_5121" data-name="Path 5121" d="M133.843,78.387V77.371h.255v1.006c0,.4.181.575.5.575s.506-.179.506-.575V77.371h.248v1.016a.757.757,0,1,1-1.511,0" transform="translate(-93.196 -53.872)" fill="#263238"/>
        <path id="Path_5122" data-name="Path 5122" d="M141.831,79.447a.658.658,0,0,1-.685.692.577.577,0,0,1-.472-.22v.7h-.245V78.77h.235v.215a.576.576,0,0,1,.483-.227.657.657,0,0,1,.685.689m-.248,0a.456.456,0,1,0-.457.478.447.447,0,0,0,.457-.478" transform="translate(-97.782 -54.838)" fill="#263238"/>
        <rect id="Rectangle_2117" data-name="Rectangle 2117" width="0.245" height="1.895" transform="translate(44.389 23.391)" fill="#263238"/>
        <path id="Path_5123" data-name="Path 5123" d="M148.1,79.447a.7.7,0,1,1,.7.692.673.673,0,0,1-.7-.692m1.159,0a.456.456,0,1,0-.454.478.444.444,0,0,0,.454-.478" transform="translate(-103.122 -54.838)" fill="#263238"/>
        <path id="Path_5124" data-name="Path 5124" d="M154.641,79.307v.817h-.232v-.179a.5.5,0,0,1-.444.194c-.306,0-.5-.163-.5-.4,0-.217.141-.4.544-.4h.388V79.3c0-.207-.12-.327-.363-.327a.684.684,0,0,0-.429.145l-.1-.184a.9.9,0,0,1,.559-.174c.371,0,.58.179.58.549m-.245.4v-.189h-.378c-.242,0-.311.094-.311.209,0,.135.112.22.3.22a.392.392,0,0,0,.391-.24" transform="translate(-106.858 -54.838)" fill="#263238"/>
        <path id="Path_5125" data-name="Path 5125" d="M159.854,77.018v1.895h-.235V78.7a.572.572,0,0,1-.482.23.691.691,0,0,1,0-1.381.575.575,0,0,1,.472.217v-.746Zm-.243,1.218a.456.456,0,1,0-.454.478.445.445,0,0,0,.454-.478" transform="translate(-110.331 -53.626)" fill="#263238"/>
        <path id="Path_5126" data-name="Path 5126" d="M166.9,76.914a.459.459,0,0,1,.276.079l-.074.186a.318.318,0,0,0-.189-.064c-.145,0-.219.082-.219.238v.117h.393v.2H166.7v1.151h-.245V77.672h-.23v-.2h.23v-.12a.407.407,0,0,1,.447-.437m.58.138a.161.161,0,0,1,.166-.161.16.16,0,1,1-.166.161m.043.419h.245v1.353h-.245Z" transform="translate(-115.742 -53.538)" fill="#263238"/>
        <rect id="Rectangle_2118" data-name="Rectangle 2118" width="0.245" height="1.895" transform="translate(52.494 23.391)" fill="#263238"/>
        <path id="Path_5127" data-name="Path 5127" d="M176.128,79.529h-1.1a.458.458,0,0,0,.49.4.506.506,0,0,0,.391-.163l.135.158a.738.738,0,0,1-1.261-.472.663.663,0,0,1,.679-.689.652.652,0,0,1,.669.7.722.722,0,0,1-.005.074m-1.1-.176h.868a.437.437,0,0,0-.868,0" transform="translate(-121.704 -54.838)" fill="#263238"/>
        <path id="Path_5128" data-name="Path 5128" d="M179.781,79.981l.1-.194a.87.87,0,0,0,.475.14c.227,0,.322-.069.322-.184,0-.3-.855-.041-.855-.579,0-.243.217-.406.564-.406a.986.986,0,0,1,.493.122l-.1.194a.705.705,0,0,0-.391-.107c-.214,0-.319.079-.319.186,0,.319.858.059.858.585,0,.245-.225.4-.585.4a.978.978,0,0,1-.559-.158" transform="translate(-125.183 -54.838)" fill="#263238"/>
        <path id="Path_5129" data-name="Path 5129" d="M197.773,96.114c0,.044-18.548.079-41.422.079s-41.426-.035-41.426-.079,18.543-.079,41.426-.079,41.422.035,41.422.079" transform="translate(-80.023 -66.868)" fill="#263238"/>
      </g>
    </g>
    <g id="Group_2164" data-name="Group 2164">
      <g id="Group_2163" data-name="Group 2163" clip-path="url(#clip-path)">
        <path id="Path_5130" data-name="Path 5130" d="M88.89,345.754H16.4s-.853-17.057,14.213-18.194c0,0,2.5-14.423,19.329-14.5,20.183-.09,20.432,17.48,20.432,17.48s16.522-1.56,18.512,15.213" transform="translate(-11.416 -217.979)" fill="#f5f5f5"/>
        <path id="Path_5131" data-name="Path 5131" d="M88.864,345.595s-.01-.041-.024-.122-.034-.205-.06-.362l-.094-.594c-.035-.236-.077-.509-.152-.814l-.227-1.022-.354-1.207c-.143-.43-.321-.884-.5-1.371l-.335-.731-.177-.381-.209-.378c-.146-.252-.274-.525-.445-.78l-.517-.79-.6-.784c-.212-.262-.451-.511-.682-.775a14.439,14.439,0,0,0-3.589-2.766,17.8,17.8,0,0,0-4.834-1.8,21.375,21.375,0,0,0-2.77-.426,18.664,18.664,0,0,0-2.931-.045l-.072.005,0-.072a17.391,17.391,0,0,0-.421-3.025,20.346,20.346,0,0,0-.931-3.048,17.567,17.567,0,0,0-3.548-5.661,16.7,16.7,0,0,0-2.667-2.276c-.242-.171-.5-.317-.754-.477l-.381-.236-.4-.209c-.268-.136-.53-.286-.8-.413l-.833-.363c-.275-.131-.567-.221-.854-.325s-.573-.215-.869-.3c-.594-.157-1.181-.354-1.794-.462l-.914-.19-.928-.135c-.618-.1-1.247-.146-1.877-.2a33.4,33.4,0,0,0-3.907-.04l-.962.083-.479.042-.475.068-.945.139-.93.193a19.492,19.492,0,0,0-3.559,1.14,18.193,18.193,0,0,0-3.175,1.774,17.654,17.654,0,0,0-4.75,5.024,19.3,19.3,0,0,0-1.517,2.92,16.425,16.425,0,0,0-.952,3l-.011.052-.05,0a16.035,16.035,0,0,0-5.352,1.3,12.742,12.742,0,0,0-4.061,2.831,15.022,15.022,0,0,0-2.517,3.567,19,19,0,0,0-1.35,3.462,24.924,24.924,0,0,0-.881,5.129c-.041.6-.053,1.061-.055,1.372s0,.471,0,.471-.015-.16-.019-.471,0-.773.035-1.374a24.366,24.366,0,0,1,.848-5.148,18.926,18.926,0,0,1,1.34-3.483,15.075,15.075,0,0,1,2.522-3.6,12.83,12.83,0,0,1,4.09-2.867,16.134,16.134,0,0,1,5.392-1.317l-.061.055a16.513,16.513,0,0,1,.955-3.03A19.4,19.4,0,0,1,33,321.415a17.784,17.784,0,0,1,4.784-5.071,18.378,18.378,0,0,1,3.2-1.792,19.648,19.648,0,0,1,3.586-1.151l.937-.194.951-.141.478-.069.482-.042.968-.084a33.544,33.544,0,0,1,3.928.039c.634.05,1.265.093,1.888.2l.934.136.92.192c.616.109,1.208.307,1.806.466.3.083.585.2.876.3s.583.2.861.328l.84.367c.277.128.541.279.811.417l.4.211.385.238c.254.162.516.31.761.482a16.846,16.846,0,0,1,2.691,2.3,17.7,17.7,0,0,1,3.573,5.713A20.506,20.506,0,0,1,70,327.327a17.49,17.49,0,0,1,.419,3.054l-.074-.067a18.728,18.728,0,0,1,2.956.05,21.448,21.448,0,0,1,2.786.434,17.892,17.892,0,0,1,4.861,1.824,14.517,14.517,0,0,1,3.6,2.8c.232.267.471.519.683.783l.6.792.516.8c.171.257.3.532.444.786l.208.381.176.384.332.736c.181.49.357.946.5,1.379l.346,1.213q.12.565.218,1.026a8.064,8.064,0,0,1,.143.817l.084.6.049.363c.01.082.013.123.013.123" transform="translate(-11.39 -217.82)" fill="#263238"/>
        <path id="Path_5132" data-name="Path 5132" d="M92.878,259.043h0L79.318,271.33h8.188v17.387H98.25V271.33h8.188Z" transform="translate(-55.23 -180.367)" fill="#e8505b"/>
        <path id="Path_5133" data-name="Path 5133" d="M86.519,336.2c4.764-1.2,7.861.146,10.061,3.229,1.886-3.245,6.235-4.135,9.718-2.737l2.191,8.3L95.15,346.74,84,344.694Z" transform="translate(-58.492 -233.79)" fill="#f5f5f5"/>
        <path id="Path_5134" data-name="Path 5134" d="M112.2,336.235c-.006.016-.264-.09-.745-.221a6.525,6.525,0,0,0-2.1-.187,7.042,7.042,0,0,0-3,.888,6.542,6.542,0,0,0-2.676,2.717l-.065.125-.075-.123-.279-.454a7.182,7.182,0,0,0-1.4-1.559,7.846,7.846,0,0,0-1.652-1.046,8.007,8.007,0,0,0-3.208-.775,7.448,7.448,0,0,0-2.221.265c-.508.154-.782.268-.788.252a1.09,1.09,0,0,1,.194-.091,5.664,5.664,0,0,1,.576-.22,7.1,7.1,0,0,1,2.241-.318,7.972,7.972,0,0,1,3.268.755,7.875,7.875,0,0,1,1.689,1.058,7.263,7.263,0,0,1,1.432,1.592l.285.466-.14,0a6.625,6.625,0,0,1,2.749-2.771,7.582,7.582,0,0,1,1.588-.641,7.432,7.432,0,0,1,1.469-.23,6.241,6.241,0,0,1,2.122.237,4.4,4.4,0,0,1,.545.2.993.993,0,0,1,.184.083" transform="translate(-65.451 -233.594)" fill="#263238"/>
      </g>
    </g>
    <g id="Group_2169" data-name="Group 2169">
      <g id="Group_2168" data-name="Group 2168" clip-path="url(#clip-path)">
        <path id="Path_5135" data-name="Path 5135" d="M209.241,225.157c-.626-2.007-.365-5.377,1.018-7.037a9.4,9.4,0,0,1,5.922-2.885,1.791,1.791,0,0,1,1.06.109.714.714,0,0,1,.359.905,4.524,4.524,0,0,1,1.4-.523,1.534,1.534,0,0,1,1.372.434.942.942,0,0,1-.084,1.331,1.619,1.619,0,0,1,1.842,2.331,5.141,5.141,0,0,1-1.317,1.463,1.452,1.452,0,0,0-.569,1.378" transform="translate(-145.472 -149.844)" fill="#263238"/>
        <path id="Path_5136" data-name="Path 5136" d="M208.893,224.675l-1.624,11.8a3.543,3.543,0,1,0,7.02.96c.121-.888.224-1.629.243-1.719A3.612,3.612,0,0,0,218.2,232.9c.3-1.422.687-4.4,1-7.1a5.6,5.6,0,0,0-4.47-6.146l-.285-.057c-3.105-.434-5.209,1.961-5.557,5.078" transform="translate(-144.299 -152.866)" fill="#ffbe9d"/>
        <path id="Path_5137" data-name="Path 5137" d="M222.988,268.38a7,7,0,0,1-3.628-1.862,3.707,3.707,0,0,0,3.482,2.628Z" transform="translate(-152.742 -185.572)" fill="#eb996e"/>
        <path id="Path_5138" data-name="Path 5138" d="M240.556,245a.43.43,0,0,1-.491.344.411.411,0,0,1-.359-.467.43.43,0,0,1,.491-.344.412.412,0,0,1,.359.467" transform="translate(-166.905 -170.26)" fill="#263238"/>
        <path id="Path_5139" data-name="Path 5139" d="M239.8,243.043c-.063.044-.335-.255-.789-.345s-.831.071-.869.006c-.019-.029.054-.118.22-.195a1.178,1.178,0,0,1,.709-.072,1.13,1.13,0,0,1,.614.343c.118.135.145.244.115.263" transform="translate(-165.817 -168.788)" fill="#263238"/>
        <path id="Path_5140" data-name="Path 5140" d="M225.813,242.579a.429.429,0,0,1-.491.344.411.411,0,0,1-.359-.467.43.43,0,0,1,.491-.344.412.412,0,0,1,.359.467" transform="translate(-156.64 -168.576)" fill="#263238"/>
        <path id="Path_5141" data-name="Path 5141" d="M225.067,240.39c-.063.044-.336-.255-.789-.345s-.831.071-.869.005c-.019-.029.053-.118.22-.194a1.177,1.177,0,0,1,.709-.073,1.132,1.132,0,0,1,.614.343c.118.135.145.244.115.263" transform="translate(-155.559 -166.94)" fill="#263238"/>
        <path id="Path_5142" data-name="Path 5142" d="M232.082,245.234a3.068,3.068,0,0,1,.763.014c.118.011.232.01.268-.065a.6.6,0,0,0-.008-.359q-.08-.453-.166-.95a15.457,15.457,0,0,1-.308-2.46,15.449,15.449,0,0,1,.506,2.429c.053.333.1.649.151.952a.683.683,0,0,1-.031.467.3.3,0,0,1-.224.131.8.8,0,0,1-.2-.012,3.007,3.007,0,0,1-.746-.148" transform="translate(-161.6 -168.093)" fill="#263238"/>
        <path id="Path_5143" data-name="Path 5143" d="M227.162,254.143c.075.01-.023.5.329.936s.886.484.876.554c0,.032-.136.072-.358.034a1.25,1.25,0,0,1-.737-.434,1.089,1.089,0,0,1-.244-.779c.022-.209.1-.32.135-.311" transform="translate(-158.077 -176.955)" fill="#263238"/>
        <path id="Path_5144" data-name="Path 5144" d="M225.592,234.8c-.069.114-.51-.035-1.055-.077s-1,.017-1.053-.108c-.021-.059.077-.16.275-.245a1.838,1.838,0,0,1,1.606.141c.18.118.258.234.227.289" transform="translate(-155.612 -163.101)" fill="#263238"/>
        <path id="Path_5145" data-name="Path 5145" d="M240.416,238.568c-.1.087-.391-.082-.766-.162s-.707-.07-.759-.192c-.022-.059.049-.152.207-.221a1.134,1.134,0,0,1,1.229.285c.111.132.134.247.089.29" transform="translate(-166.339 -165.658)" fill="#263238"/>
        <path id="Path_5146" data-name="Path 5146" d="M206.814,243.186c-.046-.032-1.908-1-2.246,1.025a1.547,1.547,0,0,0,1.782,1.894c.013-.058.463-2.919.463-2.919" transform="translate(-142.417 -169.145)" fill="#ffbe9d"/>
        <path id="Path_5147" data-name="Path 5147" d="M207.075,246.683c-.008-.008-.039.019-.1.036a.359.359,0,0,1-.265-.039.887.887,0,0,1-.274-.853,1.182,1.182,0,0,1,.183-.49.414.414,0,0,1,.311-.227.183.183,0,0,1,.193.132c.018.061,0,.1.008.105s.049-.027.047-.113a.227.227,0,0,0-.059-.141.271.271,0,0,0-.187-.084.5.5,0,0,0-.422.253,1.219,1.219,0,0,0-.217.545.93.93,0,0,0,.37.962.384.384,0,0,0,.332,0c.071-.039.09-.083.083-.088" transform="translate(-143.633 -170.595)" fill="#eb996e"/>
        <path id="Path_5148" data-name="Path 5148" d="M223.953,221.239a2.728,2.728,0,0,1-4.8,1.517,6.173,6.173,0,0,0-1.819-2.194,2.444,2.444,0,0,0-1.883-.115l-.018.006a3.135,3.135,0,0,0-1.851,2.092,27.3,27.3,0,0,1-.921,3.591.817.817,0,0,1-.328.419c-.275.136-.6-.079-.768-.338a2.541,2.541,0,0,1-.285-1.424,8.462,8.462,0,0,1,.673-3.268,5.762,5.762,0,0,1,2.122-2.541,5.458,5.458,0,0,1,4.037-.669,6.7,6.7,0,0,1,3.539,2.124,3.93,3.93,0,0,1,.954,1.675" transform="translate(-147.112 -151.919)" fill="#263238"/>
        <path id="Path_5149" data-name="Path 5149" d="M240.32,222.282a.609.609,0,0,1,.279.059,1.409,1.409,0,0,1,.608.486,1.745,1.745,0,0,1,.332,1.107,1.974,1.974,0,0,1-.612,1.272,2.587,2.587,0,0,1-1.242.672,3.5,3.5,0,0,1-1.148.06,4.347,4.347,0,0,1-.756-.15.858.858,0,0,1-.264-.1c.007-.028.392.1,1.029.141a3.655,3.655,0,0,0,1.1-.09,2.519,2.519,0,0,0,1.165-.643,1.869,1.869,0,0,0,.578-1.169,1.678,1.678,0,0,0-.279-1.033,1.474,1.474,0,0,0-.542-.494,2.535,2.535,0,0,1-.253-.115" transform="translate(-165.384 -154.77)" fill="#455a64"/>
        <path id="Path_5150" data-name="Path 5150" d="M236.215,218.469c0-.008.078-.01.188.067a.651.651,0,0,1,.244.487,1.2,1.2,0,0,1-.285.751,3.44,3.44,0,0,1-.686.683,3.564,3.564,0,0,1-1.606.677,1.7,1.7,0,0,1-.722,0c0-.029.275-.018.7-.112a3.9,3.9,0,0,0,1.53-.693,3.645,3.645,0,0,0,.665-.645,1.137,1.137,0,0,0,.289-.66.622.622,0,0,0-.172-.442c-.084-.081-.152-.1-.148-.114" transform="translate(-162.482 -152.114)" fill="#455a64"/>
        <path id="Path_5151" data-name="Path 5151" d="M215.711,294.539a4.659,4.659,0,0,1-6.945-.006l-5.369-6.012-.063,8.566,1.894,5.494L186.4,305.847l-.8-14.855-1.355-11.409a3.1,3.1,0,0,1,1.941-3.248l5.18-2.04,7.3,1.338,2.935,1.116a8.046,8.046,0,0,1,3.2,2.225l8.233,9.415" transform="translate(-128.279 -190.988)" fill="#e8505b"/>
        <path id="Path_5152" data-name="Path 5152" d="M247.364,317.75c.044,0,.055-2.968.025-6.627s-.09-6.627-.134-6.627-.055,2.967-.026,6.628.09,6.626.134,6.626" transform="translate(-172.136 -212.015)" fill="#263238"/>
        <path id="Path_5153" data-name="Path 5153" d="M197.941,303.578,186.566,299a2.6,2.6,0,0,1-1.621-2.214l-.832-10.906s.1-4.639-2.8-4.864l-1.648.649c-2.13,1.131-2.658,4.233-2.368,6.627.412,3.4.584,8.218,1.045,11.171.377,2.415,1.76,4.541,4.125,5.163l14.01,3.033Z" transform="translate(-123.403 -195.665)" fill="#e8505b"/>
        <path id="Path_5154" data-name="Path 5154" d="M200.435,302.508a1.6,1.6,0,0,1,.036.25q.027.267.073.719c.058.639.14,1.539.241,2.645.1,1.122.21,2.45.337,3.924q.046.554.1,1.134a8.553,8.553,0,0,0,.145,1.167,1.939,1.939,0,0,0,.566,1.022,3.833,3.833,0,0,0,1.05.653c3.137,1.357,6.027,2.478,8.126,3.264l2.491.918.678.25a1.528,1.528,0,0,1,.233.1,1.581,1.581,0,0,1-.243-.068l-.687-.223c-.6-.2-1.453-.493-2.509-.873-2.111-.761-5.006-1.865-8.152-3.227a3.973,3.973,0,0,1-1.091-.681,2.088,2.088,0,0,1-.606-1.1,8.584,8.584,0,0,1-.145-1.188q-.046-.58-.09-1.135c-.115-1.475-.218-2.8-.3-3.927l-.193-2.649q-.028-.453-.045-.721a1.565,1.565,0,0,1-.005-.252" transform="translate(-139.563 -210.631)" fill="#263238"/>
        <path id="Path_5155" data-name="Path 5155" d="M178.964,322.029a.551.551,0,0,1,.023.146c.01.114.023.253.038.421.034.389.08.912.135,1.548.063.653.142,1.43.255,2.288a21.827,21.827,0,0,0,.514,2.763,4.118,4.118,0,0,0,.555,1.317,7.549,7.549,0,0,0,.85,1.044,7.266,7.266,0,0,0,1.82,1.366,6.823,6.823,0,0,0,2,.654.526.526,0,0,1-.148,0,3.117,3.117,0,0,1-.421-.054,5.577,5.577,0,0,1-1.478-.5,7.136,7.136,0,0,1-1.871-1.363,7.51,7.51,0,0,1-.873-1.059,4.227,4.227,0,0,1-.578-1.36,20.569,20.569,0,0,1-.506-2.785c-.106-.863-.174-1.642-.223-2.3s-.073-1.186-.087-1.553l-.009-.423a.533.533,0,0,1,.008-.148" transform="translate(-124.608 -224.223)" fill="#263238"/>
        <path id="Path_5156" data-name="Path 5156" d="M194.993,340.984a1.669,1.669,0,0,1,.207-.606,3.911,3.911,0,0,1,2.308-1.971,1.665,1.665,0,0,1,.631-.11c0,.026-.234.073-.6.211a4.429,4.429,0,0,0-2.249,1.92c-.193.336-.278.564-.3.556" transform="translate(-135.773 -235.546)" fill="#263238"/>
        <g id="Group_2167" data-name="Group 2167" transform="translate(61.243 95.119)" opacity="0.3">
          <g id="Group_2166" data-name="Group 2166">
            <g id="Group_2165" data-name="Group 2165" clip-path="url(#clip-path-24)">
              <path id="Path_5157" data-name="Path 5157" d="M211.688,324.677c-1.216-.687-2.406-1.215-3.678-1.793a8.333,8.333,0,0,1-3.35-2.442c-1.57-2.116-1.391-5.17-3-7.258q.158,2.106.315,4.212c.1,1.287-.1,2.559.728,3.434a8.023,8.023,0,0,0,3.024,1.619c1.937.639,4.023,1.588,5.96,2.227" transform="translate(-201.662 -313.184)"/>
            </g>
          </g>
        </g>
        <path id="Path_5158" data-name="Path 5158" d="M206.279,271.219l.556-2.086,7.068,1.662a.709.709,0,0,1,.518.891l-.542,1.842-2.551,3.274-2.895-.517-2.155-1.654Z" transform="translate(-143.633 -187.393)" fill="#e8505b"/>
        <path id="Path_5159" data-name="Path 5159" d="M217.721,275.731a.79.79,0,0,1-.249.058,5.737,5.737,0,0,1-.693.068,8.329,8.329,0,0,1-4.424-1.061,5.772,5.772,0,0,1-.587-.374c-.132-.1-.2-.156-.2-.165s.318.177.836.44a9.594,9.594,0,0,0,4.369,1.048c.581,0,.941-.04.945-.013" transform="translate(-147.318 -190.959)" fill="#263238"/>
        <path id="Path_5160" data-name="Path 5160" d="M213.909,272.434c-.014.012-.1-.057-.171-.214a1.085,1.085,0,0,1,.287-1.229c.135-.109.241-.133.248-.116s-.07.08-.17.2a1.245,1.245,0,0,0-.26,1.112c.038.149.086.237.066.251" transform="translate(-148.77 -188.602)" fill="#f5f5f5"/>
        <path id="Path_5161" data-name="Path 5161" d="M223.986,274.837a2.741,2.741,0,0,0-.219-2c.015-.012.108.068.213.235a1.8,1.8,0,0,1,.163,1.489c-.066.186-.14.285-.157.276" transform="translate(-155.807 -189.971)" fill="#f5f5f5"/>
        <path id="Path_5162" data-name="Path 5162" d="M221.646,299.35a1.076,1.076,0,0,1,.01-.213c.008-.139.041-.343.05-.607a16.524,16.524,0,0,0,0-2.237,31,31,0,0,0-.421-3.294c-.213-1.233-.49-2.584-.715-4.015a43.172,43.172,0,0,1-.51-7.394c.018-.949.062-1.716.1-2.244.019-.265.042-.47.056-.608a1.057,1.057,0,0,1,.031-.211,1.079,1.079,0,0,1,0,.213l-.026.61c-.024.529-.051,1.3-.054,2.242a46.924,46.924,0,0,0,.554,7.368c.224,1.426.5,2.777.7,4.015a28.825,28.825,0,0,1,.389,3.312,14.569,14.569,0,0,1-.046,2.249c-.019.265-.062.468-.08.606a1.076,1.076,0,0,1-.042.209" transform="translate(-153.222 -193.932)" fill="#f5f5f5"/>
        <path id="Path_5163" data-name="Path 5163" d="M236.4,280.475s.01.018.021.054.027.091.044.164a3.864,3.864,0,0,1,.084.647c.034.568-.043,1.383-.088,2.388s-.1,2.2-.063,3.533a20.4,20.4,0,0,0,.546,4.277,38.555,38.555,0,0,1,.914,4.244,20.849,20.849,0,0,1,.118,3.546c-.05,1.009-.142,1.821-.215,2.38-.037.279-.068.5-.093.643a.114.114,0,1,1-.032,0c.016-.163.037-.378.064-.646.054-.561.128-1.373.164-2.378a21.783,21.783,0,0,0-.15-3.523,40.556,40.556,0,0,0-.924-4.227,20.026,20.026,0,0,1-.537-4.309c-.03-1.336.033-2.538.1-3.543s.154-1.819.138-2.379a4.753,4.753,0,0,0-.054-.643,1.707,1.707,0,0,1-.034-.224" transform="translate(-164.502 -195.29)" fill="#f5f5f5"/>
        <path id="Path_5164" data-name="Path 5164" d="M251.017,312.09a2.705,2.705,0,0,1-.553-.44,13.456,13.456,0,0,1-2.193-2.6,2.722,2.722,0,0,1-.34-.619c.041-.025.621.879,1.475,1.888s1.643,1.738,1.611,1.773" transform="translate(-172.634 -214.753)" fill="#f5f5f5"/>
        <path id="Path_5165" data-name="Path 5165" d="M254.31,295.915a2.633,2.633,0,0,1-.331-.329c-.206-.219-.5-.542-.852-.946-.708-.808-1.661-1.947-2.662-3.245s-1.861-2.51-2.462-3.4c-.3-.445-.539-.809-.7-1.064a2.643,2.643,0,0,1-.234-.4,2.627,2.627,0,0,1,.285.37l.739,1.034c.623.873,1.5,2.071,2.5,3.368s1.936,2.444,2.622,3.27l.812.977a2.649,2.649,0,0,1,.285.37" transform="translate(-172.037 -199.503)" fill="#f5f5f5"/>
        <path id="Path_5166" data-name="Path 5166" d="M206.037,294.682a.921.921,0,0,1-.118-.169,3.343,3.343,0,0,1-.254-.535,5.261,5.261,0,0,1-.269-2.152c.044-.923.309-1.99.458-3.182a21.34,21.34,0,0,0,.043-3.915c-.09-1.391-.227-2.715-.277-3.927a19.324,19.324,0,0,1,.093-3.219,10.873,10.873,0,0,1,.462-2.122c.081-.243.152-.429.207-.553a.986.986,0,0,1,.088-.186c.016.006-.095.268-.237.758a11.988,11.988,0,0,0-.41,2.116,20.332,20.332,0,0,0-.059,3.2c.057,1.205.2,2.528.289,3.924a20.762,20.762,0,0,1-.056,3.943c-.159,1.206-.434,2.262-.491,3.172a5.424,5.424,0,0,0,.215,2.124,6.448,6.448,0,0,0,.314.725" transform="translate(-143.009 -191.284)" fill="#f5f5f5"/>
        <path id="Path_5167" data-name="Path 5167" d="M191.142,298.268a2.546,2.546,0,0,1-.746-.431,4.273,4.273,0,0,1-1.3-1.943,5.885,5.885,0,0,1-.3-1.6,10.055,10.055,0,0,1,.094-1.864c.173-1.3.521-2.7.634-4.2a22.391,22.391,0,0,0-.037-4.234c-.065-.65-.13-1.271-.131-1.858a5.394,5.394,0,0,1,.211-1.616,3.276,3.276,0,0,1,1.382-1.867,2.271,2.271,0,0,1,.595-.241,1.087,1.087,0,0,1,.221-.031,2.878,2.878,0,0,0-.784.324,3.272,3.272,0,0,0-1.307,1.847,5.358,5.358,0,0,0-.186,1.582c.006.577.076,1.193.144,1.844a21.846,21.846,0,0,1,.05,4.262c-.114,1.513-.469,2.919-.647,4.207a10.118,10.118,0,0,0-.107,1.838,5.859,5.859,0,0,0,.278,1.571,4.322,4.322,0,0,0,1.23,1.932,5.636,5.636,0,0,0,.706.479" transform="translate(-131.452 -193.831)" fill="#f5f5f5"/>
        <path id="Path_5168" data-name="Path 5168" d="M209.8,348.324a3.539,3.539,0,0,1-.5-.2l-1.352-.588c-1.143-.492-2.734-1.142-4.52-1.783s-3.429-1.148-4.624-1.495l-1.417-.4a3.557,3.557,0,0,1-.517-.163,3.536,3.536,0,0,1,.532.1c.34.075.83.2,1.432.357,1.2.319,2.856.812,4.648,1.454s3.379,1.311,4.512,1.83c.567.259,1.022.477,1.333.634a3.542,3.542,0,0,1,.476.258" transform="translate(-137.078 -239.303)" fill="#f5f5f5"/>
        <path id="Path_5169" data-name="Path 5169" d="M182.872,309.049s-.019-.005-.052-.023-.083-.043-.142-.085a3.713,3.713,0,0,1-.491-.405,5.957,5.957,0,0,1-1.315-1.926,2.529,2.529,0,0,1-.171-.764l-.093-.832-.2-1.834a39.91,39.91,0,0,0-.657-4.169,22.989,22.989,0,0,1-.455-4.213c-.032-1.3.022-2.476.082-3.458s.132-1.775.184-2.323l.065-.63a1.132,1.132,0,0,1,.033-.219,1.171,1.171,0,0,1,0,.221c-.009.16-.02.37-.035.632-.033.549-.086,1.343-.134,2.324s-.087,2.151-.048,3.447a23.618,23.618,0,0,0,.464,4.185,37.852,37.852,0,0,1,.647,4.185c.066.646.128,1.26.186,1.837q.043.431.084.832a2.426,2.426,0,0,0,.154.738,6.161,6.161,0,0,0,1.254,1.923,4.532,4.532,0,0,0,.466.423,1.485,1.485,0,0,1,.176.134" transform="translate(-124.838 -200.647)" fill="#f5f5f5"/>
        <path id="Path_5170" data-name="Path 5170" d="M294.729,403.8s9.517,2.634,9.9,2.769c.573.2.477,2.3-.415,2.27-.422-.015-7.31.257-8.181.2a21.013,21.013,0,0,1-3.5-1.089Z" transform="translate(-203.695 -281.162)" fill="#e8505b"/>
        <path id="Path_5171" data-name="Path 5171" d="M312.769,411.4a4.164,4.164,0,0,1,1.092-1.9,2.113,2.113,0,0,0-1.092,1.9" transform="translate(-217.77 -285.129)" fill="#263238"/>
        <path id="Path_5172" data-name="Path 5172" d="M309.511,410.111c.047.008.143-.442.4-.939s.553-.845.518-.878a2.387,2.387,0,0,0-.915,1.817" transform="translate(-215.504 -284.287)" fill="#263238"/>
        <path id="Path_5173" data-name="Path 5173" d="M306.336,409.107a3.341,3.341,0,0,1,.741-1.9,1.787,1.787,0,0,0-.741,1.9" transform="translate(-213.26 -283.532)" fill="#263238"/>
        <path id="Path_5174" data-name="Path 5174" d="M305.305,404.342a1.685,1.685,0,0,0,.1-.708,3.334,3.334,0,0,0-.1-.776,3.278,3.278,0,0,0-.142-.442.531.531,0,0,0-.152-.233.254.254,0,0,0-.327.016.42.42,0,0,0-.127.269,1.831,1.831,0,0,0-.012.251,2.092,2.092,0,0,0,.059.466,2.826,2.826,0,0,0,.293.728,1.915,1.915,0,0,0,.428.573c.022-.015-.138-.237-.328-.625a3.1,3.1,0,0,1-.25-.707,2.078,2.078,0,0,1-.046-.435c0-.146,0-.329.087-.4a.093.093,0,0,1,.126-.011.4.4,0,0,1,.1.166,3.484,3.484,0,0,1,.144.42,3.828,3.828,0,0,1,.126.743c.028.431-.016.7.01.7" transform="translate(-212.06 -279.997)" fill="#263238"/>
        <path id="Path_5175" data-name="Path 5175" d="M302.631,408.866a1.331,1.331,0,0,0-.614-.1,2.774,2.774,0,0,0-.675.083,1.5,1.5,0,0,0-.389.143.4.4,0,0,0-.215.435.476.476,0,0,0,.343.34.874.874,0,0,0,.427,0,1.636,1.636,0,0,0,.618-.3,1.67,1.67,0,0,0,.442-.436,4.218,4.218,0,0,0-.507.344,1.694,1.694,0,0,1-.584.253.751.751,0,0,1-.353,0,.324.324,0,0,1-.232-.226.246.246,0,0,1,.142-.266,1.452,1.452,0,0,1,.345-.134,3.214,3.214,0,0,1,.641-.112c.373-.026.606.012.61-.013" transform="translate(-209.398 -284.618)" fill="#263238"/>
        <path id="Path_5176" data-name="Path 5176" d="M317.458,412.412a2.57,2.57,0,0,1,.654-1.6,1.366,1.366,0,0,0-.654,1.6" transform="translate(-220.997 -286.036)" fill="#263238"/>
        <path id="Path_5177" data-name="Path 5177" d="M295.76,417.538a2,2,0,0,0,.368.173,8.179,8.179,0,0,0,1.059.328,15.107,15.107,0,0,0,3.633.344c1.426-.016,2.712-.081,3.644-.118l1.1-.059a.2.2,0,1,0,0-.062l-1.1.008-3.641.071a16.991,16.991,0,0,1-3.608-.295c-.91-.187-1.441-.421-1.452-.392" transform="translate(-205.939 -290.723)" fill="#263238"/>
        <path id="Path_5178" data-name="Path 5178" d="M294.833,416.4c.013.022.273-.13.713-.323a3.313,3.313,0,0,1,1.8-.3,2.85,2.85,0,0,1,1.557.926,5.586,5.586,0,0,0,.548.56,2.947,2.947,0,0,0-.466-.637,3.763,3.763,0,0,0-.631-.59,2.259,2.259,0,0,0-.983-.417,3.148,3.148,0,0,0-1.874.354,2.532,2.532,0,0,0-.665.425" transform="translate(-205.294 -289.371)" fill="#263238"/>
        <path id="Path_5179" data-name="Path 5179" d="M244.688,395.152s-9.006,5.9-9.329,6.141c-.485.367.071,2.112.911,1.81.4-.143,7.955-2.245,8.768-2.562a20.994,20.994,0,0,0,3-2.1Z" transform="translate(-163.757 -275.138)" fill="#e8505b"/>
        <path id="Path_5180" data-name="Path 5180" d="M253.976,407.107a2.115,2.115,0,0,0-1.617-1.477,4.171,4.171,0,0,1,1.617,1.477" transform="translate(-175.719 -282.428)" fill="#263238"/>
        <path id="Path_5181" data-name="Path 5181" d="M257.082,404.763a2.386,2.386,0,0,0-1.423-1.453c-.022.042.372.278.76.679s.621.8.663.774" transform="translate(-178.016 -280.815)" fill="#263238"/>
        <path id="Path_5182" data-name="Path 5182" d="M260.079,402.754a1.787,1.787,0,0,0-1.282-1.581,3.342,3.342,0,0,1,1.282,1.581" transform="translate(-180.202 -279.326)" fill="#263238"/>
        <path id="Path_5183" data-name="Path 5183" d="M260.2,397.539c.024-.012-.1-.255-.2-.674a3.826,3.826,0,0,1-.106-.747,3.545,3.545,0,0,1,.01-.444.4.4,0,0,1,.049-.19.092.092,0,0,1,.123-.028c.1.041.156.216.2.354a2.082,2.082,0,0,1,.088.428,3.12,3.12,0,0,1-.023.75c-.063.428-.148.687-.122.7a1.914,1.914,0,0,0,.234-.676,2.836,2.836,0,0,0,.058-.782,2.089,2.089,0,0,0-.086-.462,1.826,1.826,0,0,0-.088-.236.419.419,0,0,0-.2-.218.254.254,0,0,0-.316.084.532.532,0,0,0-.074.269,3.288,3.288,0,0,0,0,.464,3.34,3.34,0,0,0,.144.769,1.691,1.691,0,0,0,.313.644" transform="translate(-180.853 -275.231)" fill="#263238"/>
        <path id="Path_5184" data-name="Path 5184" d="M261.2,401.442c.011.023.223-.084.585-.172a3.221,3.221,0,0,1,.645-.088,1.453,1.453,0,0,1,.37.023.246.246,0,0,1,.216.21.323.323,0,0,1-.152.286.752.752,0,0,1-.335.112,1.683,1.683,0,0,1-.633-.063,4.234,4.234,0,0,0-.587-.173,1.668,1.668,0,0,0,.554.281,1.64,1.64,0,0,0,.681.1.872.872,0,0,0,.407-.128.475.475,0,0,0,.224-.428.4.4,0,0,0-.337-.349,1.5,1.5,0,0,0-.414-.018,2.756,2.756,0,0,0-.668.126,1.334,1.334,0,0,0-.555.281" transform="translate(-181.875 -279.23)" fill="#263238"/>
        <path id="Path_5185" data-name="Path 5185" d="M240.361,415.146c.01.014.152-.091.22-.349a1.33,1.33,0,0,0-.169-.977,3.58,3.58,0,0,0-.3-.45,1.657,1.657,0,0,0-.306-.328.533.533,0,0,0-.288-.121c-.075,0-.114.015-.112.025a.849.849,0,0,1,.327.182,2.04,2.04,0,0,1,.26.328,5.074,5.074,0,0,1,.281.44,1.392,1.392,0,0,1,.2.878c-.033.233-.131.356-.11.372" transform="translate(-166.699 -287.51)" fill="#263238"/>
        <path id="Path_5186" data-name="Path 5186" d="M250.653,409.224a1.365,1.365,0,0,0-1.11-1.329,2.571,2.571,0,0,1,1.11,1.329" transform="translate(-173.759 -284.004)" fill="#263238"/>
        <path id="Path_5187" data-name="Path 5187" d="M248.391,407.028a3.133,3.133,0,0,0-.4.272,11.35,11.35,0,0,1-1.111.68,14.606,14.606,0,0,1-1.764.785c-.682.254-1.446.494-2.256.729-1.62.467-3.087.893-4.145,1.212l-1.252.384a2.756,2.756,0,0,0-.453.162,2.783,2.783,0,0,0,.47-.1l1.266-.336c1.067-.291,2.537-.7,4.159-1.167.81-.235,1.579-.48,2.263-.744a13.309,13.309,0,0,0,1.766-.824,8.872,8.872,0,0,0,1.093-.73,2.464,2.464,0,0,0,.359-.321" transform="translate(-165.036 -283.406)" fill="#263238"/>
        <path id="Path_5188" data-name="Path 5188" d="M266.078,406.846a2.519,2.519,0,0,0-.763-.2,3.145,3.145,0,0,0-1.893.231,2.258,2.258,0,0,0-.81.7,3.772,3.772,0,0,0-.422.754,2.958,2.958,0,0,0-.251.748,5.561,5.561,0,0,0,.353-.7,2.852,2.852,0,0,1,1.2-1.355,3.316,3.316,0,0,1,1.807-.262c.477.05.772.116.777.091" transform="translate(-182.389 -283.104)" fill="#263238"/>
        <path id="Path_5189" data-name="Path 5189" d="M269.37,346.69a4.314,4.314,0,0,1,2.713,3.995c.022,5.8-11.725,12.2-11.725,12.2l-15.632-10.359-.98-.4s21.1-7.927,25.624-5.44" transform="translate(-169.722 -241.058)" fill="#263238"/>
        <path id="Path_5190" data-name="Path 5190" d="M273.045,365.586a2.892,2.892,0,0,0,.407-.276c.256-.186.622-.461,1.069-.808.9-.692,2.113-1.672,3.423-2.8s2.463-2.181,3.283-2.961c.41-.39.737-.709.96-.935a2.905,2.905,0,0,0,.334-.361,2.874,2.874,0,0,0-.377.316l-.994.9c-.838.758-2,1.8-3.31,2.923s-2.513,2.116-3.389,2.829l-1.037.846a2.931,2.931,0,0,0-.369.325" transform="translate(-190.123 -248.885)" fill="#455a64"/>
        <path id="Path_5191" data-name="Path 5191" d="M307.063,354.849a3.872,3.872,0,0,0-2.846.84c.026.041.6-.322,1.384-.551s1.462-.241,1.461-.289" transform="translate(-211.828 -247.048)" fill="#455a64"/>
        <path id="Path_5192" data-name="Path 5192" d="M305.9,351.919a2.374,2.374,0,0,0-1.413,1.75c.046.016.216-.471.61-.953s.828-.756.8-.8" transform="translate(-212.009 -245.032)" fill="#455a64"/>
        <path id="Path_5193" data-name="Path 5193" d="M328.948,412.394c.009-.018-.186-.056-.4.122a1.465,1.465,0,0,0-.452.908,1.783,1.783,0,0,0,.143,1c.111.238.232.349.246.338s-.064-.146-.141-.38a2.028,2.028,0,0,1-.089-.936,1.568,1.568,0,0,1,.37-.846c.166-.174.331-.181.327-.206" transform="translate(-228.441 -287.131)" fill="#263238"/>
        <path id="Path_5194" data-name="Path 5194" d="M247.533,316.58,241.965,330.7l-23.973.391-.444-1.3,8.4-.3,4.038-12.521Z" transform="translate(-151.48 -220.43)" fill="#455a64"/>
        <path id="Path_5195" data-name="Path 5195" d="M278.4,336.428a1.066,1.066,0,0,1,1.153.123.932.932,0,0,1,.226,1.021,1.009,1.009,0,0,1-.866.605.91.91,0,0,1-.916-.6,1.022,1.022,0,0,1,.4-1.145" transform="translate(-193.547 -234.167)" fill="#ebebeb"/>
        <path id="Path_5196" data-name="Path 5196" d="M224.545,366.607s-22.086-14.488-22.991-14.79-3.09-1.734-5.275-1.131a8.055,8.055,0,0,0-5.125,5.427,29.161,29.161,0,0,0-.948,6.522,9.674,9.674,0,0,0,2.264,6.9,6.173,6.173,0,0,0,2.754,1.955c.23.072.469.133.714.186a10.387,10.387,0,0,0,10.813-4.541l.515-.784s14.448,5.308,14.674,5.233Z" transform="translate(-132.429 -244.075)" fill="#263238"/>
        <path id="Path_5197" data-name="Path 5197" d="M213.345,364.831s.04.02.121.053l.361.144,1.4.539,5.2,1.96c2.211.825,4.858,1.805,7.829,2.887s6.263,2.265,9.78,3.456l.064.022.031-.06,1.726-3.3.88-1.681.034-.065-.061-.039-16.847-10.7-5.061-3.192-1.375-.858-.359-.219c-.081-.049-.125-.07-.125-.07s.038.03.117.084l.351.232,1.359.882,5.034,3.234,16.82,10.737-.027-.1-.879,1.681-1.725,3.3.1-.038c-3.514-1.187-6.808-2.367-9.782-3.438l-7.84-2.854-5.221-1.915-1.41-.513-.367-.13c-.083-.029-.126-.039-.126-.039" transform="translate(-148.554 -246.287)" fill="#455a64"/>
      </g>
    </g>
  </g>
</svg>
