<svg id="Group_1939" data-name="Group 1939" xmlns="http://www.w3.org/2000/svg" xmlns:xlink="http://www.w3.org/1999/xlink" width="664.527" height="373.796" viewBox="0 0 664.527 373.796">
  <defs>
    <clipPath id="clip-path">
      <rect id="Rectangle_1748" data-name="Rectangle 1748" width="664.527" height="373.796" fill="none"/>
    </clipPath>
    <clipPath id="clip-path-2">
      <rect id="Rectangle_1747" data-name="Rectangle 1747" width="664.526" height="373.796" fill="none"/>
    </clipPath>
    <clipPath id="clip-path-3">
      <rect id="Rectangle_1688" data-name="Rectangle 1688" width="269.735" height="172.381" fill="none"/>
    </clipPath>
    <clipPath id="clip-path-4">
      <rect id="Rectangle_1689" data-name="Rectangle 1689" width="198.54" height="156.193" fill="none"/>
    </clipPath>
    <clipPath id="clip-path-5">
      <rect id="Rectangle_1690" data-name="Rectangle 1690" width="170.677" height="237.104" fill="none"/>
    </clipPath>
    <clipPath id="clip-path-6">
      <rect id="Rectangle_1713" data-name="Rectangle 1713" width="44.295" height="13.29" fill="none"/>
    </clipPath>
    <clipPath id="clip-path-7">
      <rect id="Rectangle_1714" data-name="Rectangle 1714" width="50.862" height="55.204" fill="none"/>
    </clipPath>
    <clipPath id="clip-path-8">
      <rect id="Rectangle_1726" data-name="Rectangle 1726" width="31.343" height="26.536" fill="none"/>
    </clipPath>
    <clipPath id="clip-path-9">
      <rect id="Rectangle_1728" data-name="Rectangle 1728" width="42.97" height="57.633" fill="none"/>
    </clipPath>
    <clipPath id="clip-path-10">
      <rect id="Rectangle_1746" data-name="Rectangle 1746" width="32.838" height="37.207" fill="none"/>
    </clipPath>
  </defs>
  <g id="Group_1938" data-name="Group 1938" clip-path="url(#clip-path)">
    <path id="Path_3627" data-name="Path 3627" d="M0,727.149Z" transform="translate(0 -353.354)" fill="#fff"/>
    <g id="Group_1937" data-name="Group 1937">
      <g id="Group_1936" data-name="Group 1936" clip-path="url(#clip-path-2)">
        <path id="Path_3498" data-name="Path 3498" d="M2910.988,650.758c-12.549,8.406-13.565,42.736-.19,58.665s40.069,10.433,44.434-10.7-22.005-62.865-44.244-47.968" transform="translate(-2358.944 -526.576)" fill="#e0f6fc"/>
        <path id="Path_3499" data-name="Path 3499" d="M441.142,1076.011c-9.145,14.337,5.311,50.2,26.3,60.586s46.034-7.337,40.993-31.1-51.085-54.894-67.291-29.487" transform="translate(-356.419 -867.202)" fill="#e0f6fc"/>
        <path id="Path_3500" data-name="Path 3500" d="M889.491,506.19s41.019-23.871,50.575-67.573c9.7-44.376-30.722-34.117-44.981-57.95-28.012-46.82-3.271-88.361-38.629-114.319-41.721-30.63-93.282,8.451-171.589-8.294S522.431,216.5,472.689,250.977s-45.309,92.1-14.775,115.736,59.1,32.012,61.562,57.622,6.895,77.814,84.217,93.081,118.2-9.85,118.2-9.85l80.276,4.925Z" transform="translate(-353.758 -189.977)" fill="#e0f6fc"/>
        <path id="Path_3501" data-name="Path 3501" d="M743.881,870.423c-5-13.1-8.563-18.175-13.5-25.194a201.129,201.129,0,0,1-13.492-21.524c-13.162-24.035-9.607-44.53-5.242-61.854,2.635-10.459-1.1-22.081-4.721-33.319-1.508-4.687-2.933-9.114-3.921-13.464-3.283-14.447-23.023-20.716-23.222-20.777l.369-1.191c.841.26,20.628,6.551,24.068,21.692.976,4.3,2.393,8.7,3.893,13.358,3.67,11.406,7.466,23.2,4.743,34.006-3.33,13.214-8.9,35.331,5.127,60.95A200.079,200.079,0,0,0,731.4,844.512c4.8,6.827,8.589,12.218,13.643,25.467Z" transform="translate(-552.735 -563.562)" fill="#ffb7b0"/>
        <path id="Path_3502" data-name="Path 3502" d="M749.921,567.261s-11.1,19.3-8.482,36.6,28.214,16.988,25.876-5.718c-1.99-19.325-17.395-30.884-17.395-30.884" transform="translate(-602.541 -461.241)" fill="#ffb7b0"/>
        <path id="Path_3503" data-name="Path 3503" d="M526.028,525.033c4.036-3.028,4.735-18.136-4.44-27.97S488.576,485,488.576,485s4.329,18.55,14.28,29.788,19.556,12.953,23.171,10.241" transform="translate(-397.262 -394.358)" fill="#ffb7b0"/>
        <path id="Path_3504" data-name="Path 3504" d="M853.946,736s-13.122,11.249-19.513,19.441-8.768,22.889-4.261,29.286,17.608-.123,21.68-11.8,2.077-27.732,2.094-36.925" transform="translate(-673.124 -598.442)" fill="#ffb7b0"/>
        <path id="Path_3505" data-name="Path 3505" d="M636.026,891.211s-2.934-14.5-16.329-17.326-31.017,5.241-31.017,5.241S600.965,892.7,618.564,897.1s22.9.51,17.463-5.889" transform="translate(-478.657 -710.069)" fill="#ffb7b0"/>
        <path id="Path_3506" data-name="Path 3506" d="M889.59,946.36s-16.679,3.553-30.249,11.007-21.326,18.051-20.9,23.576,11.812,13.749,31.762-1.118c17.008-12.674,19.383-33.465,19.383-33.465" transform="translate(-681.728 -769.487)" fill="#ffb7b0"/>
        <path id="Path_3507" data-name="Path 3507" d="M909.123,1121.428s-8.9,8.865-18.256,13.366-20.425,7.286-23.866,14.291-4.3,14.262-2.17,18.428,13.644,11.666,29.869,1.1,15.189-40.641,14.422-47.186" transform="translate(-702.256 -911.836)" fill="#ffb7b0"/>
        <path id="Path_3508" data-name="Path 3508" d="M553.949,1202.111s11.325,1.511,27.26,4.413c20.746,3.778,27.348,14.8,31.784,26.593,0,0-15.494,11.768-35.572-.422-19.644-11.927-23.472-30.584-23.472-30.584" transform="translate(-450.417 -977.439)" fill="#ffb7b0"/>
        <path id="Path_3509" data-name="Path 3509" d="M543.276,1056.266s-2.368-8.527-13.735-12.857-32.409-.785-54.541,2.447c0,0,19.244,19.67,45.941,21.921,13.6,1.147,20.628-3.529,22.335-11.511" transform="translate(-386.224 -846.766)" fill="#ffb7b0"/>
        <path id="Path_3510" data-name="Path 3510" d="M278.745,743.994S297,731.407,317.877,732.38s31.763,12.937,30.819,17.871-13.888,11.143-33.046,6.9-36.9-13.157-36.9-13.157" transform="translate(-226.648 -595.456)" fill="#ffb7b0"/>
        <path id="Path_3511" data-name="Path 3511" d="M652.754,844.249c-7.005-12.321-27.828-18.184-29.151-18.545-2.757-.1-5.837-.141-6.27-.036l-.376-1.188a52.258,52.258,0,0,1,6.762-.019l.135.02c.916.24,22.526,6.037,29.983,19.153Z" transform="translate(-501.649 -670.288)" fill="#ffb7b0"/>
        <path id="Path_3512" data-name="Path 3512" d="M2285.174,1098.1l-.721-1.017c11.57-8.2,17.72-10.568,25.5-13.571a200.062,200.062,0,0,0,23.06-10.32c25.912-13.483,33.586-34.961,38.171-47.793,3.75-10.494,13.465-18.182,22.861-25.617,3.839-3.038,7.465-5.907,10.666-8.934,11.284-10.667,31.225-4.885,32.068-4.634l-.356,1.194c-.2-.059-20.1-5.825-30.856,4.345-3.241,3.064-6.888,5.95-10.749,9.005-9.257,7.326-18.831,14.9-22.46,25.059-6.011,16.823-14.459,35.83-38.77,48.48a201.193,201.193,0,0,1-23.186,10.378c-8.006,3.087-13.791,5.318-25.233,13.425" transform="translate(-1857.494 -800.438)" fill="#ffb7b0"/>
        <path id="Path_3513" data-name="Path 3513" d="M2921.591,836.183s-1.516,22.213-13.316,35.132-32.9-1.581-18.321-19.148c12.406-14.951,31.637-15.985,31.637-15.985" transform="translate(-2345.801 -679.902)" fill="#ffb7b0"/>
        <path id="Path_3514" data-name="Path 3514" d="M3089.166,902.4c-1.669-4.761,6.156-17.7,19.251-20.77s34.139,8.346,34.139,8.346-13.918,13.006-28.439,16.806-23.457-.117-24.951-4.382" transform="translate(-2511.625 -716.429)" fill="#ffb7b0"/>
        <path id="Path_3515" data-name="Path 3515" d="M2753.178,870.667s4.645,16.648,5.4,27.011-5.449,23.9-12.753,26.706-14.562-9.9-11.448-21.869,13.7-24.2,18.8-31.847" transform="translate(-2222.723 -707.941)" fill="#ffb7b0"/>
        <path id="Path_3516" data-name="Path 3516" d="M2793.137,1105.032s10.5-10.413,23.208-5.312,22.858,21.612,22.858,21.612-17.763,4.448-34.833-1.691-19.315-12.32-11.233-14.609" transform="translate(-2267.444 -893.041)" fill="#ffb7b0"/>
        <path id="Path_3517" data-name="Path 3517" d="M2578.684,964.969s11.883,12.232,19.011,25.976,7.677,26.864,4.247,31.215-17.465,4.853-25.771-18.6c-7.08-19.994,2.513-38.591,2.513-38.591" transform="translate(-2092.572 -784.618)" fill="#ffb7b0"/>
        <path id="Path_3518" data-name="Path 3518" d="M2437.7,1113.4s2.461,12.317,7.732,21.264,12.918,17.418,11.88,25.153-4.364,14.242-8.45,16.519-17.828,2.1-25.431-15.7,9.99-42.22,14.269-47.233" transform="translate(-1968.969 -905.309)" fill="#ffb7b0"/>
        <path id="Path_3519" data-name="Path 3519" d="M2634.011,1419.592s-10.251-5.045-25.107-11.5c-19.341-8.4-30.958-2.92-41.206,4.414,0,0,6.327,18.4,29.793,19.44,22.959,1.019,36.52-12.354,36.52-12.354" transform="translate(-2087.801 -1141.476)" fill="#ffb7b0"/>
        <path id="Path_3520" data-name="Path 3520" d="M2725.93,1244.868s6.713-5.768,18.567-3.041,18.947,13.159,31.869,26.993c0,0-24.228,2.489-37.2-3.356-11.308-5.094-16.255-13.014-13.234-20.6" transform="translate(-2215.751 -1009.137)" fill="#ffb7b0"/>
        <path id="Path_3521" data-name="Path 3521" d="M3108.461,1135.747s-8.165-20.615-26.054-31.422-33.591-6.922-35.552-2.3,5.341,16.986,23.62,24.12,37.985,9.6,37.985,9.6" transform="translate(-2477.153 -892.277)" fill="#ffb7b0"/>
        <path id="Path_3522" data-name="Path 3522" d="M2899.3,1107.885c-.3-.327-2.884-2.007-5.23-3.458-1.3-.436-21.871-7.145-34.542-.809l-.558-1.115c13.494-6.75,34.676.457,35.571.768l.123.058a52.351,52.351,0,0,1,5.609,3.777l-.983.767Z" transform="translate(-2324.636 -894.11)" fill="#ffb7b0"/>
        <path id="Path_3523" data-name="Path 3523" d="M806.893,331.144l79.96-.592s.12-15.786-22.188-9.533c0,0,6.008-9.194.347-12.981s-12.743,2.266-12.743,2.266,5.216-12.224-5.2-15.412a15.346,15.346,0,0,0-18.641,19.749,9.265,9.265,0,0,0-9.717-.163c-4.989,3.089-3.735,8.167-1.987,9.614,0,0-9.288-2.643-9.835,7.053" transform="translate(-656.086 -239.285)" fill="#fff"/>
        <path id="Path_3524" data-name="Path 3524" d="M2372.192,412.331l42.172-.312s.063-8.326-11.7-5.028c0,0,3.168-4.849.183-6.846s-6.72,1.2-6.72,1.2,2.751-6.447-2.741-8.128a8.094,8.094,0,0,0-9.831,10.416,4.887,4.887,0,0,0-5.125-.086c-2.631,1.629-1.97,4.307-1.048,5.071,0,0-4.9-1.393-5.187,3.72" transform="translate(-1928.835 -319.461)" fill="#fff"/>
        <path id="Path_3525" data-name="Path 3525" d="M894.843,1604.963c-88.33-.784-276.914,1.553-276.842,13.478.073,12.027,121.231,12.206,121.231,12.206s-19.5,1.974-19.5,9.2c0,14.133,178.579,15.358,276.552,1.014,66.479-9.733,36.142-18.444,36.142-18.444s25.937-2.514,25.955-7.015c.026-6.65-65.322-9.565-163.538-10.437" transform="translate(-502.498 -1304.888)" fill="#8ecbed"/>
        <path id="Path_3526" data-name="Path 3526" d="M1020.807,562.557l1.961,190.468,298.107,1.834-3.483-195.676Z" transform="translate(-830.02 -454.674)" fill="#164b69"/>
        <path id="Path_3527" data-name="Path 3527" d="M1073.171,614.579l1.162,169.444,275.024-2.658V611.58Z" transform="translate(-872.598 -497.277)" fill="#ff4f3b"/>
        <rect id="Rectangle_1679" data-name="Rectangle 1679" width="25.765" height="4.793" transform="translate(201.735 292.36)" fill="#e4e9f4"/>
        <rect id="Rectangle_1680" data-name="Rectangle 1680" width="25.765" height="4.793" transform="translate(232.893 292.36)" fill="#e4e9f4"/>
        <rect id="Rectangle_1681" data-name="Rectangle 1681" width="25.765" height="4.793" transform="translate(264.05 292.36)" fill="#e4e9f4"/>
        <rect id="Rectangle_1682" data-name="Rectangle 1682" width="25.765" height="4.793" transform="translate(295.207 292.36)" fill="#e4e9f4"/>
        <rect id="Rectangle_1683" data-name="Rectangle 1683" width="25.765" height="4.793" transform="translate(326.365 292.36)" fill="#e4e9f4"/>
        <rect id="Rectangle_1684" data-name="Rectangle 1684" width="25.765" height="4.793" transform="translate(357.522 292.36)" fill="#e4e9f4"/>
        <rect id="Rectangle_1685" data-name="Rectangle 1685" width="25.765" height="4.793" transform="translate(388.679 292.36)" fill="#e4e9f4"/>
        <rect id="Rectangle_1686" data-name="Rectangle 1686" width="25.765" height="4.793" transform="translate(419.837 292.36)" fill="#e4e9f4"/>
        <rect id="Rectangle_1687" data-name="Rectangle 1687" width="25.765" height="4.793" transform="translate(450.994 292.36)" fill="#e4e9f4"/>
        <path id="Path_3528" data-name="Path 3528" d="M900.925,1583.514c.4,9.188,7.19,17.177,24.367,16.777s300.788,8.018,314.769.014,13.182-16.792,13.182-16.792Z" transform="translate(-732.544 -1287.558)" fill="#1f6b96"/>
        <g id="Group_1914" data-name="Group 1914" transform="translate(201.39 114.365)" style="mix-blend-mode: screen;isolation: isolate">
          <g id="Group_1913" data-name="Group 1913">
            <g id="Group_1912" data-name="Group 1912" clip-path="url(#clip-path-3)">
              <path id="Path_3529" data-name="Path 3529" d="M1284.559,612.588l-207.02,121.285.345,50.416,50.215-.485,219.175-171.9Z" transform="translate(-1077.539 -611.907)" fill="#6b2219"/>
            </g>
          </g>
        </g>
        <g id="Group_1917" data-name="Group 1917" transform="translate(278.22 129.814)" style="mix-blend-mode: screen;isolation: isolate">
          <g id="Group_1916" data-name="Group 1916">
            <g id="Group_1915" data-name="Group 1915" clip-path="url(#clip-path-4)">
              <path id="Path_3530" data-name="Path 3530" d="M1520.537,850.454l166.618-145.624V694.57l-198.54,156.193Z" transform="translate(-1488.616 -694.57)" fill="#6b2219"/>
            </g>
          </g>
        </g>
        <g id="Group_1920" data-name="Group 1920" transform="translate(262.801 47.472)" style="mix-blend-mode: multiply;isolation: isolate">
          <g id="Group_1919" data-name="Group 1919">
            <g id="Group_1918" data-name="Group 1918" clip-path="url(#clip-path-5)">
              <path id="Path_3531" data-name="Path 3531" d="M1569.605,491.1l3.4-.033L1576.795,254c-4.019.5-166.457,5.322-170.677,5.914Z" transform="translate(-1406.118 -253.997)" fill="#e1e2e3"/>
            </g>
          </g>
        </g>
        <path id="Path_3532" data-name="Path 3532" d="M1569.6,285.639H1406.117V518.41l163.487-1.58Z" transform="translate(-1143.317 -232.254)" fill="#fff"/>
        <rect id="Rectangle_1691" data-name="Rectangle 1691" width="38.3" height="0.796" transform="translate(270.045 70.897)" fill="#939598"/>
        <rect id="Rectangle_1692" data-name="Rectangle 1692" width="51.506" height="0.796" transform="translate(270.045 79.922)" fill="#939598"/>
        <rect id="Rectangle_1693" data-name="Rectangle 1693" width="61.852" height="0.796" transform="translate(270.045 88.947)" fill="#939598"/>
        <rect id="Rectangle_1694" data-name="Rectangle 1694" width="99.105" height="0.796" transform="translate(270.65 211.988)" fill="#939598"/>
        <rect id="Rectangle_1695" data-name="Rectangle 1695" width="45.068" height="0.796" transform="translate(270.651 266.438)" fill="#939598"/>
        <rect id="Rectangle_1696" data-name="Rectangle 1696" width="147.996" height="0.796" transform="translate(270.65 221.012)" fill="#939598"/>
        <rect id="Rectangle_1697" data-name="Rectangle 1697" width="38.3" height="0.796" transform="translate(380.76 88.947)" fill="#939598"/>
        <rect id="Rectangle_1698" data-name="Rectangle 1698" width="51.506" height="0.796" transform="translate(367.554 79.922)" fill="#939598"/>
        <rect id="Rectangle_1699" data-name="Rectangle 1699" width="24.212" height="0.796" transform="translate(394.847 70.897)" fill="#939598"/>
        <rect id="Rectangle_1700" data-name="Rectangle 1700" width="149.014" height="10.895" transform="translate(270.046 99.91)" fill="#939598"/>
        <path id="Path_3533" data-name="Path 3533" d="M1593.706,615.714h-149.04v-22.85h.8v22.054h147.448V592.864h.8Z" transform="translate(-1174.661 -482.059)" fill="#939598"/>
        <rect id="Rectangle_1701" data-name="Rectangle 1701" width="147.996" height="0.796" transform="translate(270.65 120.312)" fill="#939598"/>
        <rect id="Rectangle_1702" data-name="Rectangle 1702" width="0.796" height="22.452" transform="translate(318.512 110.805)" fill="#939598"/>
        <rect id="Rectangle_1703" data-name="Rectangle 1703" width="0.796" height="22.452" transform="translate(369.357 110.805)" fill="#939598"/>
        <rect id="Rectangle_1704" data-name="Rectangle 1704" width="149.014" height="10.895" transform="translate(270.046 144.812)" fill="#939598"/>
        <path id="Path_3534" data-name="Path 3534" d="M1593.706,855.964h-149.04v-22.85h.8v22.054h147.448V833.115h.8Z" transform="translate(-1174.661 -677.407)" fill="#939598"/>
        <rect id="Rectangle_1705" data-name="Rectangle 1705" width="147.996" height="0.796" transform="translate(270.65 165.214)" fill="#939598"/>
        <rect id="Rectangle_1706" data-name="Rectangle 1706" width="0.796" height="22.452" transform="translate(318.512 155.707)" fill="#939598"/>
        <rect id="Rectangle_1707" data-name="Rectangle 1707" width="0.796" height="22.452" transform="translate(369.357 155.707)" fill="#939598"/>
        <path id="Path_3535" data-name="Path 3535" d="M1593.706,976.091h-149.04V953.243h.8V975.3h147.448V953.243h.8Z" transform="translate(-1174.661 -775.084)" fill="#939598"/>
        <rect id="Rectangle_1708" data-name="Rectangle 1708" width="147.996" height="0.796" transform="translate(270.65 187.665)" fill="#939598"/>
        <rect id="Rectangle_1709" data-name="Rectangle 1709" width="0.796" height="22.45" transform="translate(318.512 178.159)" fill="#939598"/>
        <rect id="Rectangle_1710" data-name="Rectangle 1710" width="0.796" height="22.45" transform="translate(369.357 178.159)" fill="#939598"/>
        <rect id="Rectangle_1711" data-name="Rectangle 1711" width="147.996" height="0.796" transform="translate(270.65 230.476)" fill="#939598"/>
        <rect id="Rectangle_1712" data-name="Rectangle 1712" width="147.996" height="0.796" transform="translate(270.65 239.941)" fill="#939598"/>
        <path id="Path_3536" data-name="Path 3536" d="M2062.371,1364.459H2037.8a7.456,7.456,0,1,1,0-14.912h24.568a7.456,7.456,0,1,1,0,14.912" transform="translate(-1650.879 -1097.32)" fill="#ff4f3b"/>
        <path id="Path_3537" data-name="Path 3537" d="M2091.449,1371.339a10.156,10.156,0,0,1,1.674-.131,2.784,2.784,0,0,1,1.9.562,1.82,1.82,0,0,1,.591,1.416,1.992,1.992,0,0,1-.521,1.444,2.8,2.8,0,0,1-2.066.743,3.072,3.072,0,0,1-.7-.059v2.708h-.872Zm.872,3.26a2.848,2.848,0,0,0,.722.072c1.055,0,1.7-.513,1.7-1.447,0-.892-.632-1.323-1.6-1.323a3.609,3.609,0,0,0-.823.07Z" transform="translate(-1700.562 -1114.932)" fill="#fff"/>
        <path id="Path_3538" data-name="Path 3538" d="M2120.092,1376.119l-.7,2.128h-.9l2.3-6.763h1.055l2.309,6.763h-.933l-.722-2.128Zm2.218-.681-.663-1.948c-.152-.441-.25-.844-.351-1.235h-.02c-.1.4-.212.813-.341,1.225l-.663,1.958Z" transform="translate(-1722.544 -1115.156)" fill="#fff"/>
        <path id="Path_3539" data-name="Path 3539" d="M2154.338,1378.246v-2.871l-2.136-3.892h.993l.952,1.865c.263.513.461.923.673,1.4h.02c.191-.441.42-.882.681-1.4l.975-1.865h.993l-2.267,3.882v2.881Z" transform="translate(-1749.96 -1115.156)" fill="#fff"/>
        <g id="Group_1923" data-name="Group 1923" transform="translate(444.206 154.693)" style="mix-blend-mode: multiply;isolation: isolate">
          <g id="Group_1922" data-name="Group 1922">
            <g id="Group_1921" data-name="Group 1921" clip-path="url(#clip-path-6)">
              <path id="Path_3540" data-name="Path 3540" d="M2420.808,828.879c-7.837.249-22.044.666-22.044.666l-10.672-1.85-11.365,6.881,44.3,6.408Z" transform="translate(-2376.728 -827.694)" fill="#cdcecf"/>
            </g>
          </g>
        </g>
        <g id="Group_1926" data-name="Group 1926" transform="translate(191.967 117.591)" style="mix-blend-mode: multiply;isolation: isolate">
          <g id="Group_1925" data-name="Group 1925">
            <g id="Group_1924" data-name="Group 1924" clip-path="url(#clip-path-7)">
              <path id="Path_3541" data-name="Path 3541" d="M1027.172,682.212l50.811,2.166-1.384-55.2h-5.192l-32.4,31.993-9.228,9.13-2.66,6.874Z" transform="translate(-1027.12 -629.173)" fill="#cdcecf"/>
            </g>
          </g>
        </g>
        <rect id="Rectangle_1715" data-name="Rectangle 1715" width="69.067" height="33.528" transform="translate(444.205 128.048)" fill="#fff"/>
        <path id="Path_3542" data-name="Path 3542" d="M2414.869,757.956l-24.944,17.837,28.7-15.49-1.875-2.347Z" transform="translate(-1943.252 -616.296)" fill="#d7d8d9"/>
        <path id="Path_3543" data-name="Path 3543" d="M2576.49,760.051l29.639,16.143-26.42-18.239-2.548,1.609Z" transform="translate(-2094.949 -616.296)" fill="#d7d8d9"/>
        <path id="Path_3544" data-name="Path 3544" d="M2376.728,685.124l35.625,20.955,33.441-20.955Z" transform="translate(-1932.522 -557.075)" fill="#d7d8d9"/>
        <rect id="Rectangle_1716" data-name="Rectangle 1716" width="59.414" height="53.105" transform="translate(179.594 115.289)" fill="#fff"/>
        <rect id="Rectangle_1717" data-name="Rectangle 1717" width="59.414" height="12.182" transform="translate(179.594 115.289)" fill="#54c1f7"/>
        <path id="Path_3545" data-name="Path 3545" d="M1050.79,729.965a6.426,6.426,0,0,0,2.751-5.333c0-3.317-2.4-6.663-7.773-6.663a12.231,12.231,0,0,0-6.746,2.007l-.669.492,1.6,4.459,1.2-.856a7.427,7.427,0,0,1,4.006-1.332c1.941,0,2.967.828,2.967,2.394,0,2.072-2.438,2.824-4.077,2.824h-2.868v4.591h2.868c.812,0,4.863.171,4.9,3.561a3.2,3.2,0,0,1-.873,2.275,4.423,4.423,0,0,1-3.275,1.1,9.482,9.482,0,0,1-4.555-1.292l-1.184-.758-1.617,4.583.73.479a12.9,12.9,0,0,0,6.661,1.758c6.595,0,9.6-4.2,9.6-8.095a6.9,6.9,0,0,0-3.646-6.194" transform="translate(-843.55 -583.781)" fill="#d1d3d4"/>
        <path id="Path_3546" data-name="Path 3546" d="M1153.935,720.075l-6.1,3.264,1.175,4.629,3.731-2.014v19.619h5.271v-25.5Z" transform="translate(-933.308 -585.495)" fill="#d1d3d4"/>
        <rect id="Rectangle_1718" data-name="Rectangle 1718" width="1.83" height="9.528" transform="translate(184.485 110.525)" fill="#fff"/>
        <rect id="Rectangle_1719" data-name="Rectangle 1719" width="1.83" height="9.528" transform="translate(191.314 110.525)" fill="#fff"/>
        <rect id="Rectangle_1720" data-name="Rectangle 1720" width="1.83" height="9.528" transform="translate(198.143 110.525)" fill="#fff"/>
        <rect id="Rectangle_1721" data-name="Rectangle 1721" width="1.83" height="9.528" transform="translate(204.972 110.525)" fill="#fff"/>
        <rect id="Rectangle_1722" data-name="Rectangle 1722" width="1.83" height="9.528" transform="translate(211.801 110.525)" fill="#fff"/>
        <rect id="Rectangle_1723" data-name="Rectangle 1723" width="1.83" height="9.528" transform="translate(218.629 110.525)" fill="#fff"/>
        <rect id="Rectangle_1724" data-name="Rectangle 1724" width="1.83" height="9.528" transform="translate(225.458 110.525)" fill="#fff"/>
        <rect id="Rectangle_1725" data-name="Rectangle 1725" width="1.83" height="9.528" transform="translate(232.287 110.525)" fill="#fff"/>
        <g id="Group_1929" data-name="Group 1929" transform="translate(192.279 177.936)" style="mix-blend-mode: multiply;isolation: isolate">
          <g id="Group_1928" data-name="Group 1928">
            <g id="Group_1927" data-name="Group 1927" clip-path="url(#clip-path-8)">
              <path id="Path_3547" data-name="Path 3547" d="M1057.71,952.054h-4.774l-20.145,5.768-4,7.858.114,11.043,31.228,1.865Z" transform="translate(-1028.791 -952.053)" fill="#cdcecf"/>
            </g>
          </g>
        </g>
        <rect id="Rectangle_1727" data-name="Rectangle 1727" width="40.054" height="24.197" transform="translate(179.594 176.697)" fill="#fff6f5"/>
        <path id="Path_3548" data-name="Path 3548" d="M978.169,986.594h33.606V969.439s-2.409-.626-4.962,3.045c-1.623,2.335-4.6,6.777-7.152,6.021s-4.065-2.8-7.475-1.873c-3.829,1.038-5.8,6.7-9.918,6.755-2.957.04-4.1,3.206-4.1,3.206" transform="translate(-795.351 -788.22)" fill="#54c1f7"/>
        <g id="Group_1932" data-name="Group 1932" transform="translate(446.671 174.415)" style="mix-blend-mode: multiply;isolation: isolate">
          <g id="Group_1931" data-name="Group 1931">
            <g id="Group_1930" data-name="Group 1930" clip-path="url(#clip-path-9)">
              <path id="Path_3549" data-name="Path 3549" d="M2431.881,933.963l-8.732-.751-6.222.077-19.248,6.558-7.756,34.132,1.61,10.113,41.36,6.752Z" transform="translate(-2389.923 -933.212)" fill="#cdcecf"/>
            </g>
          </g>
        </g>
        <rect id="Rectangle_1729" data-name="Rectangle 1729" width="36.818" height="51.79" transform="translate(444.21 171.077)" fill="#54c1f7"/>
        <path id="Path_3550" data-name="Path 3550" d="M2398.54,950.286v-6.756h6.756v6.756Zm.61-6.145v5.534h5.534v-5.534Z" transform="translate(-1950.257 -767.185)" fill="#fff"/>
        <path id="Path_3551" data-name="Path 3551" d="M2393.108,940.367l-5.467-3.293.315-.524,5.05,3.042,6.152-6.38.44.424Z" transform="translate(-1941.396 -758.797)" fill="#fff"/>
        <rect id="Rectangle_1730" data-name="Rectangle 1730" width="18.571" height="0.611" transform="translate(459.129 176.341)" fill="#fff"/>
        <rect id="Rectangle_1731" data-name="Rectangle 1731" width="18.571" height="0.611" transform="translate(459.13 178.389)" fill="#fff"/>
        <rect id="Rectangle_1732" data-name="Rectangle 1732" width="18.572" height="0.611" transform="translate(459.13 180.437)" fill="#fff"/>
        <rect id="Rectangle_1733" data-name="Rectangle 1733" width="18.571" height="0.611" transform="translate(459.131 182.486)" fill="#fff"/>
        <path id="Path_3552" data-name="Path 3552" d="M2398.552,1012.257V1005.5h6.756v6.756Zm.61-6.145v5.534h5.534l0-5.534Z" transform="translate(-1950.267 -817.574)" fill="#fff"/>
        <path id="Path_3553" data-name="Path 3553" d="M2393.119,1002.339l-5.466-3.292.315-.524,5.049,3.042,6.152-6.381.44.424Z" transform="translate(-1941.406 -809.186)" fill="#fff"/>
        <rect id="Rectangle_1734" data-name="Rectangle 1734" width="18.571" height="0.611" transform="translate(459.132 187.923)" fill="#fff"/>
        <rect id="Rectangle_1735" data-name="Rectangle 1735" width="18.571" height="0.611" transform="translate(459.132 189.971)" fill="#fff"/>
        <rect id="Rectangle_1736" data-name="Rectangle 1736" width="18.571" height="0.611" transform="translate(459.132 192.02)" fill="#fff"/>
        <rect id="Rectangle_1737" data-name="Rectangle 1737" width="18.571" height="0.611" transform="translate(459.133 194.068)" fill="#fff"/>
        <path id="Path_3554" data-name="Path 3554" d="M2398.564,1074.229v-6.756h6.756l0,6.756Zm.61-6.145v5.534h5.534v-5.534Z" transform="translate(-1950.277 -867.963)" fill="#fff"/>
        <path id="Path_3555" data-name="Path 3555" d="M2393.132,1064.31l-5.467-3.292.315-.523,5.049,3.041,6.153-6.381.44.424Z" transform="translate(-1941.416 -859.575)" fill="#fff"/>
        <rect id="Rectangle_1738" data-name="Rectangle 1738" width="18.571" height="0.611" transform="translate(459.134 199.506)" fill="#fff"/>
        <rect id="Rectangle_1739" data-name="Rectangle 1739" width="18.571" height="0.611" transform="translate(459.134 201.554)" fill="#fff"/>
        <rect id="Rectangle_1740" data-name="Rectangle 1740" width="18.571" height="0.611" transform="translate(459.135 203.602)" fill="#fff"/>
        <rect id="Rectangle_1741" data-name="Rectangle 1741" width="18.572" height="0.611" transform="translate(459.135 205.651)" fill="#fff"/>
        <path id="Path_3556" data-name="Path 3556" d="M2398.574,1136.2v-6.756h6.756v6.756Zm.61-6.145v5.534h5.534v-5.534Z" transform="translate(-1950.285 -918.352)" fill="#fff"/>
        <path id="Path_3557" data-name="Path 3557" d="M2393.142,1126.282l-5.467-3.293.316-.524,5.049,3.042,6.152-6.381.44.424Z" transform="translate(-1941.424 -909.964)" fill="#fff"/>
        <rect id="Rectangle_1742" data-name="Rectangle 1742" width="18.571" height="0.611" transform="translate(459.136 211.088)" fill="#fff"/>
        <rect id="Rectangle_1743" data-name="Rectangle 1743" width="18.572" height="0.611" transform="translate(459.136 213.136)" fill="#fff"/>
        <rect id="Rectangle_1744" data-name="Rectangle 1744" width="18.572" height="0.611" transform="translate(459.137 215.185)" fill="#fff"/>
        <rect id="Rectangle_1745" data-name="Rectangle 1745" width="18.571" height="0.611" transform="translate(459.137 217.233)" fill="#fff"/>
        <path id="Path_3558" data-name="Path 3558" d="M1195.668,1109.6l-1.73-1.336-2.934,8.8s7.358,5.146,13.861,6.394l.943-2.266s-5.755-2.606-7.389-4.642l1.344-4.7-1.344-1.138-2.423-1.511Z" transform="translate(-968.408 -901.136)" fill="#a1d9e8"/>
        <path id="Path_3559" data-name="Path 3559" d="M1486.911,1069.667s-27.6-15.535-48.865-15.239c0,0,10.78-14.117,13.1-33.194s-2.943-39.65,9.9-65.168c0,0,29.9,12.949,49.289,15.161,0,0-8.9,19.858-12.875,37.881s-5.338,39.543-10.544,60.559" transform="translate(-1169.278 -777.379)" fill="#6db9e3"/>
        <path id="Path_3560" data-name="Path 3560" d="M1516.509,1020.02s9.342,3.606,18.152-5.964l15.24,4.906s-1.872,12.13,7,16.834c0,0-11.248,42.191-10.833,61.354,0,0-11.417-3.547-16.694,7.144a56.06,56.06,0,0,0-9.25-3.242s2.837-12.089-10.782-15.778a91,91,0,0,0,5.418-24.578c.707-12.558-2.631-24.669,1.751-40.677" transform="translate(-1227.248 -824.531)" fill="#99daff"/>
        <path id="Path_3561" data-name="Path 3561" d="M1588.805,1210.507c1.252-5.68-3.986-11.536-11.087-13.1-6.01-1.321-15.156-1.394-16.986,6.908-1.975,8.957,7.3,12.605,12.544,13.761s13.964-.472,15.529-7.573" transform="translate(-1268.814 -973.08)" fill="#6db9e3"/>
        <path id="Path_3562" data-name="Path 3562" d="M1491.453,1150.195l.822-.536a10.851,10.851,0,0,1,4.281-.624,15.119,15.119,0,0,1,5.3.788c.723.329-1.73.526-2.365.482,0,0,3.591-.088,3.526.723s-3.613.131-3.613.131,2.387.613,2.387.92-2.891.175-5.146-.547a16.056,16.056,0,0,0-5.19-.526c-.285,0,0-.81,0-.81" transform="translate(-1212.6 -934.28)" fill="#ffdcd8"/>
        <path id="Path_3563" data-name="Path 3563" d="M1497.2,1155.682s1.8,1.489,1.642,1.8-5.737-1.248-6.745-1.073.832-1.62.832-1.62l3.307.153Z" transform="translate(-1212.983 -938.957)" fill="#ffdcd8"/>
        <path id="Path_3564" data-name="Path 3564" d="M1767.5,1115.905l-.677-.71a10.85,10.85,0,0,0-4.023-1.588,15.116,15.116,0,0,0-5.339-.446c-.779.154,1.564.908,2.192,1.01,0,0-3.476-.908-3.6-.1s3.487.956,3.487.956-2.464.05-2.534.349,2.774.832,5.135.646a16.053,16.053,0,0,1,5.172.677c.277.065.186-.789.186-.789" transform="translate(-1427.853 -905.044)" fill="#ffdcd8"/>
        <path id="Path_3565" data-name="Path 3565" d="M1779.621,1123.673s-2.089,1.038-2.01,1.372,5.871.1,6.811.5-.439-1.768-.439-1.768l-3.254-.608Z" transform="translate(-1445.378 -913.251)" fill="#ffdcd8"/>
        <path id="Path_3566" data-name="Path 3566" d="M1227.7,1330.241l-.788,2.1a29.869,29.869,0,0,1-.92,8.277s-5.847,5.584-8.277,20.694l2.037.92,12.219-19.446s.526-4.336.723-4.8a43.9,43.9,0,0,0,.526-5.453c0-.788-1.445-3.088-1.445-3.088l-3.942-1.379Z" transform="translate(-990.129 -1079.859)" fill="#ffb8b0"/>
        <path id="Path_3567" data-name="Path 3567" d="M1203.812,1505.9a7.964,7.964,0,0,0-3.192,2.937l12.335,5.724s-1.04-3.416-7.177-7.748Z" transform="translate(-976.227 -1224.454)" fill="#0d2d3d"/>
        <path id="Path_3568" data-name="Path 3568" d="M1287.768,1333.072l1.314,2.759s-.394,7.161-.657,12.876-3.482,21.219-3.482,21.219h-2.168s-2.431-21.679-1.84-28.248,1.4-11.5,1.4-11.5h2.629l1.82,2.5Z" transform="translate(-1041.456 -1081.573)" fill="#ffdcd8"/>
        <path id="Path_3569" data-name="Path 3569" d="M1283.965,1542.837a7.967,7.967,0,0,0-1.659,4.008h13.6s-2.381-2.661-9.772-4.008Z" transform="translate(-1042.646 -1254.484)" fill="#0d2d3d"/>
        <path id="Path_3570" data-name="Path 3570" d="M1250.382,1185.295l1.963.657a24.893,24.893,0,0,1,3.358,15.109,76.084,76.084,0,0,1-3.022,16.161l-10.84-1.774a49.326,49.326,0,0,0-2.759-12.81c-2.431-6.635-3.876-8.606-2.431-12.81a9.241,9.241,0,0,1,4.664-5.518l5.256.526a16.068,16.068,0,0,1,2.759.46c.2.2,1.051,0,1.051,0" transform="translate(-1005.056 -962.964)" fill="#144561"/>
        <path id="Path_3571" data-name="Path 3571" d="M1260.245,1071.627s3.636.1,3.454-1.905l5.547,2.891-3.818,20.168a8.845,8.845,0,0,1-11.029-1.642l-2.234-15.832s5.453-2.956,5.65-2.956,2.431-.723,2.431-.723" transform="translate(-1018.138 -869.793)" fill="#a1d9e8"/>
        <path id="Path_3572" data-name="Path 3572" d="M1325.779,1088.209l2.628-3.022s12.351,14.584,28.511,12.383l.985,3.121s-17.934,7.73-32.124-4.533l-.854-5.715Z" transform="translate(-1077.299 -882.368)" fill="#a1d9e8"/>
        <path id="Path_3573" data-name="Path 3573" d="M1286.447,1033.83l-1.007,3.854,2.321,4.117,1.721,1.477c2.387-.5,2.7-1.583,1.273-3.163a1.488,1.488,0,0,1-.844-.723c-.223-.525.844-3.153.844-3.153l-4.052-2.929Z" transform="translate(-1045.193 -840.186)" fill="#ffdcd8"/>
        <path id="Path_3574" data-name="Path 3574" d="M1289.266,1034.948l.292-1.119.256-.521,4.052,2.929a14.43,14.43,0,0,0-.872,2.88c-.9-.2-2.373-1.05-3.729-4.17" transform="translate(-1048.305 -840.186)" fill="#ffb8b0"/>
        <path id="Path_3575" data-name="Path 3575" d="M1300.016,992.056s1.62,4.248-1.358,9.854l-1.839-.92a3.069,3.069,0,0,1-3.5,3.109c-3.5-.263-6-7.27-6-7.27s4.949-4.686,5.08-4.774a24.976,24.976,0,0,1,3.767-1.007c.744-.044,2.715.044,2.891,0s.963,1.007.963,1.007" transform="translate(-1046.719 -805.813)" fill="#ffdcd8"/>
        <path id="Path_3576" data-name="Path 3576" d="M1284.976,964.358s2.275.764,3.72-2.815-4.642-6.995-8.715-5.506-5.164,1.338-8.935,3.109c-4.637,2.179-2.524,13.715,2.833,12.77,0,0,.577-3.931,1.806-4.5l1.229-.566a9.609,9.609,0,0,1,7.8-3.547Z" transform="translate(-1031.413 -777.065)" fill="#0d2d3d"/>
        <path id="Path_3577" data-name="Path 3577" d="M1177.551,1027.378c2,1.754,3.723,4.774,3.854,10.686s-2.759,8.146-4.686,7.445-2.54.7-3.285,1.358-2.759,2.19-5.781-1.533-4.423-4.073-5.431-3.241-2.8,1.095-5.562-.219-5.08-.92-4.6-3.153,3.022-3.241,6.526-4.6,3.9-7.927,5.606-10.38,4.029-2.5,6.788-.832a45.71,45.71,0,0,1,6.569,4.467" transform="translate(-936.692 -830.8)" fill="#0d2d3d"/>
        <path id="Path_3578" data-name="Path 3578" d="M1274.22,1032.919a2.89,2.89,0,0,1-.544,1.7,26.455,26.455,0,0,0-3.458-2.545s.045-.575,1.028-1.4a4.63,4.63,0,0,0,2.973,2.243" transform="translate(-1032.817 -838.045)" fill="#e04434"/>
        <path id="Path_3579" data-name="Path 3579" d="M1302.6,1009s.193-2-1.322-1.364-1.672,4.386,0,3.948,1.382-1.577,1.33-1.708a5.018,5.018,0,0,1-.008-.876" transform="translate(-1057.102 -819.209)" fill="#ffdcd8"/>
        <g id="Group_1935" data-name="Group 1935" transform="translate(453.652 237.484)" style="mix-blend-mode: multiply;isolation: isolate">
          <g id="Group_1934" data-name="Group 1934">
            <g id="Group_1933" data-name="Group 1933" clip-path="url(#clip-path-10)">
              <path id="Path_3580" data-name="Path 3580" d="M2429.812,1302.678l-2.542,1.55,32.837,3.642-.952-36.687-4.5-.519-18.811,11.595-3.085,7.9Z" transform="translate(-2427.269 -1270.663)" fill="#cdcecf"/>
            </g>
          </g>
        </g>
        <path id="Path_3581" data-name="Path 3581" d="M2424.318,1258.491l.552,35.839h28.464l.827-35.839Z" transform="translate(-1971.219 -1023.282)" fill="#0d2d3d"/>
        <path id="Path_3582" data-name="Path 3582" d="M2435.381,1276.561v7.168h24.881l.275-6.823Z" transform="translate(-1980.214 -1037.974)" fill="#fff"/>
        <path id="Path_3583" data-name="Path 3583" d="M2477.271,1362.257l-.048-3.157-4.822.175.047,3.105Z" transform="translate(-2010.315 -1105.087)" fill="#1a5e80"/>
        <path id="Path_3584" data-name="Path 3584" d="M2477.578,1382.628l-4.823.123.051,3.345,4.823-.08Z" transform="translate(-2010.603 -1124.218)" fill="#1a5e80"/>
        <path id="Path_3585" data-name="Path 3585" d="M2445.008,1386.791l-.051-3.334-4.864.125.106,3.289Z" transform="translate(-1984.046 -1124.892)" fill="#1a5e80"/>
        <path id="Path_3586" data-name="Path 3586" d="M2509.707,1361.145l-.049-3.222-4.822.175.048,3.17Z" transform="translate(-2036.688 -1104.13)" fill="#1a5e80"/>
        <path id="Path_3587" data-name="Path 3587" d="M2472,1333.8l4.822-.175-.066-4.33h-4.824Z" transform="translate(-2009.936 -1080.852)" fill="#20749e"/>
        <path id="Path_3588" data-name="Path 3588" d="M2537.683,1384.466l5.511-.091v-3.506l-5.564.142Z" transform="translate(-2063.353 -1122.788)" fill="#1a5e80"/>
        <path id="Path_3589" data-name="Path 3589" d="M2444.294,1360.277l-4.936.179.1,3.037,4.885-.125Z" transform="translate(-1983.447 -1106.044)" fill="#1a5e80"/>
        <path id="Path_3590" data-name="Path 3590" d="M2504.388,1329.295l.065,4.285,4.821-.175-.062-4.11Z" transform="translate(-2036.323 -1080.852)" fill="#20749e"/>
        <path id="Path_3591" data-name="Path 3591" d="M2538.012,1406.359l.073,4.821h5.419v-4.912Z" transform="translate(-2063.663 -1143.44)" fill="#1a5e80"/>
        <path id="Path_3592" data-name="Path 3592" d="M2443.441,1333.844l-.069-4.55h-5.04l.152,4.73Z" transform="translate(-1982.613 -1080.852)" fill="#20749e"/>
        <path id="Path_3593" data-name="Path 3593" d="M2536.9,1333.36l5.65-.2v-3.86h-5.712Z" transform="translate(-2062.708 -1080.853)" fill="#20749e"/>
        <path id="Path_3594" data-name="Path 3594" d="M2445.661,1407.932l-4.787.079.145,4.522h4.712Z" transform="translate(-1984.679 -1144.793)" fill="#1a5e80"/>
        <path id="Path_3595" data-name="Path 3595" d="M2505.194,1381.923l.051,3.4,4.823-.08-.052-3.444Z" transform="translate(-2036.979 -1123.544)" fill="#1a5e80"/>
        <path id="Path_3596" data-name="Path 3596" d="M2537.318,1360.029l5.583-.143v-3.3l-5.631.2Z" transform="translate(-2063.06 -1103.045)" fill="#1a5e80"/>
        <path id="Path_3597" data-name="Path 3597" d="M2510.392,1406.863l-4.823.08.072,4.721h4.824Z" transform="translate(-2037.284 -1143.923)" fill="#ff4f3b"/>
        <path id="Path_3598" data-name="Path 3598" d="M2478.021,1412.1l-.071-4.7-4.823.079.07,4.622Z" transform="translate(-2010.905 -1144.358)" fill="#1a5e80"/>
        <path id="Path_3599" data-name="Path 3599" d="M2485.033,1285.343h-1.576l-.159,1.061a2.215,2.215,0,0,1,.337-.026,1.747,1.747,0,0,1,.89.223,1.178,1.178,0,0,1,.591,1.062,1.433,1.433,0,0,1-1.538,1.411,2.023,2.023,0,0,1-1.03-.254l.14-.426a1.85,1.85,0,0,0,.884.229.912.912,0,0,0,.979-.9c-.006-.534-.362-.915-1.188-.915a4.265,4.265,0,0,0-.572.045l.267-1.983h1.976Z" transform="translate(-2018.565 -1044.733)" fill="#939598"/>
        <path id="Path_3600" data-name="Path 3600" d="M2504.632,1289v-1.125h-1.919v-.369l1.843-2.637h.6v2.567h.578v.439h-.578V1289Zm0-1.563v-1.379c0-.216.006-.432.019-.648h-.019c-.128.242-.229.419-.344.61l-1.01,1.4v.013Z" transform="translate(-2034.961 -1044.733)" fill="#939598"/>
        <path id="Path_3601" data-name="Path 3601" d="M2526.869,1284.99a2.016,2.016,0,0,0-.419.026,1.679,1.679,0,0,0-1.436,1.468h.019a1.259,1.259,0,0,1,2.243.858,1.381,1.381,0,0,1-1.373,1.455c-.883,0-1.462-.686-1.462-1.761a2.6,2.6,0,0,1,.7-1.862,2.248,2.248,0,0,1,1.322-.61,2.658,2.658,0,0,1,.406-.032Zm-.159,2.383a.839.839,0,0,0-.852-.947.92.92,0,0,0-.8.508.48.48,0,0,0-.064.248c.013.68.324,1.182.909,1.182.483,0,.807-.4.807-.991" transform="translate(-2052.629 -1044.456)" fill="#939598"/>
        <path id="Path_3602" data-name="Path 3602" d="M2545.95,1288.058a1.867,1.867,0,0,0,.915.261c.718,0,.94-.458.934-.8-.006-.578-.527-.826-1.067-.826h-.312v-.419h.312c.406,0,.921-.21.921-.7,0-.33-.21-.623-.725-.623a1.518,1.518,0,0,0-.826.274l-.146-.407a1.963,1.963,0,0,1,1.081-.318c.813,0,1.182.483,1.182.985a1.026,1.026,0,0,1-.762.972v.013a1.076,1.076,0,0,1,.922,1.061c0,.661-.515,1.239-1.506,1.239a2.1,2.1,0,0,1-1.074-.28Z" transform="translate(-2069.993 -1044.429)" fill="#939598"/>
        <path id="Path_3603" data-name="Path 3603" d="M1995.343,1252.588l5.542-2.734a17.551,17.551,0,0,1,2.531,7.754c.245,4.285-.252,14.323,1.4,19.1s8.879,13.467,10.838,26.811l-3.305,1.347s-11.263-15.671-13.834-22.526-6.244-21.914-6.427-22.281,2.142-8.937,2.142-8.937l1.11.857Z" transform="translate(-1619.765 -1016.259)" fill="#113a52"/>
        <path id="Path_3604" data-name="Path 3604" d="M1943.641,1203.319l-1.844,3.157a180.724,180.724,0,0,0-1.787,21.328c-.122,10.284.735,28.158,2.571,36.116h4.53a62.74,62.74,0,0,0,1.95-20.568c-.971-10.528.253-15.548,2.947-21.547s6.488-9.3,6.121-17.874-13.957-2.075-13.957-2.075Z" transform="translate(-1577.417 -975.314)" fill="#144561"/>
        <path id="Path_3605" data-name="Path 3605" d="M1926.847,1544.185a7.421,7.421,0,0,1,1.545,3.734h-12.671s2.219-2.479,9.105-3.734Z" transform="translate(-1557.677 -1255.58)" fill="#0d2d3d"/>
        <path id="Path_3606" data-name="Path 3606" d="M2075.444,1537.136a7.419,7.419,0,0,1,2.857,2.858l-11.707,4.848s1.1-3.14,6.983-6.934Z" transform="translate(-1680.352 -1249.849)" fill="#0d2d3d"/>
        <path id="Path_3607" data-name="Path 3607" d="M1992.934,1049.277v6.978l-6.366-.306,1.041-6.979,4.716-.979Z" transform="translate(-1615.283 -852.124)" fill="#ffdcd8"/>
        <path id="Path_3608" data-name="Path 3608" d="M1988.487,1053.545l.682-4.573,4.716-.979.61,1.285v1.89c-.846.731-2.565,1.7-6.008,2.377" transform="translate(-1616.843 -852.125)" fill="#ffb8b0"/>
        <path id="Path_3609" data-name="Path 3609" d="M1958.957,975.61s-3.856,1.9-5.142,9.121l2.571.734s-1.531,5.2,2.2,6.489,9.549-3.244,9.549-3.244-.551-6.611-1.224-7.284-3.244-2.754-3.244-2.754Z" transform="translate(-1588.651 -793.271)" fill="#ffdcd8"/>
        <path id="Path_3610" data-name="Path 3610" d="M1968.436,964.376l-1.011-.569s-4.451-.514-5.235-7.216l-1,1.154s-2.6-3.286-1.375-5.9,5.182,1.02,5.182,1.02a17.147,17.147,0,0,1,7.631.979c4.448,1.673,6.162,4.979,5.387,7.509s-2.2,2.816-2.2,2.816a3.644,3.644,0,0,1,2.081,3.333,5.119,5.119,0,0,1-5.346,4.828c-3.346-.041-4.11-5.917-4.11-5.917v-2.04Z" transform="translate(-1593.262 -773.181)" fill="#0d2d3d"/>
        <path id="Path_3611" data-name="Path 3611" d="M1963.439,1085.816l-20.808-1.469s1.918,16.65-2.571,28.24l18.527,2.693s7.831-14.467,4.852-29.464" transform="translate(-1577.467 -881.685)" fill="#a1d9e8"/>
        <path id="Path_3612" data-name="Path 3612" d="M2008.4,1095.472c0-.327,4.035-3.265,4.035-3.265s6.074,13.545,1.759,18.854-13.875,3.1-13.875,3.1,4.571-12.814,4.734-13.059,2.978-5.305,2.978-5.305Z" transform="translate(-1626.467 -888.076)" fill="#a1d9e8"/>
        <path id="Path_3613" data-name="Path 3613" d="M1831.847,1084.347l-10.814,14.446-15.589-7.223-1.632,2.245,16.242,13.63,18.273-9.386v-6.611l-5.42-6.2Z" transform="translate(-1466.683 -881.685)" fill="#a1d9e8"/>
        <path id="Path_3614" data-name="Path 3614" d="M1998.233,1014.652s.857-1.614,2.326-1.125-.184,5.632-2.632,4.714l-.551-1.9Z" transform="translate(-1624.071 -824.026)" fill="#ffdcd8"/>
        <path id="Path_3615" data-name="Path 3615" d="M2718.692,490.177a14.266,14.266,0,1,0-14.266,14.266,14.266,14.266,0,0,0,14.266-14.266" transform="translate(-2187.374 -386.964)" fill="#ffab3b"/>
        <path id="Path_3616" data-name="Path 3616" d="M2700.711,504.365a14.334,14.334,0,0,0,4.678,4.825l20.625-17.93a14.322,14.322,0,0,0-6.445-6.8Z" transform="translate(-2195.954 -393.912)" fill="#ffbf3b"/>
        <path id="Path_3617" data-name="Path 3617" d="M2737.093,555.422l18.161-12.211a14.371,14.371,0,0,0-.127-3.913l-19.906,15.437a14.19,14.19,0,0,0,1.872.687" transform="translate(-2224.015 -438.504)" fill="#ffbf3b"/>
        <path id="Path_3618" data-name="Path 3618" d="M2709.013,507.976a13.212,13.212,0,1,1,13.212-13.212,13.227,13.227,0,0,1-13.212,13.212m0-26.017a12.805,12.805,0,1,0,12.805,12.805,12.819,12.819,0,0,0-12.805-12.805" transform="translate(-2191.961 -391.551)" fill="#fff"/>
        <path id="Path_3619" data-name="Path 3619" d="M752.363,1460.562a14.266,14.266,0,1,0-14.266,14.266,14.266,14.266,0,0,0,14.266-14.266" transform="translate(-588.548 -1175.986)" fill="#ffab3b"/>
        <path id="Path_3620" data-name="Path 3620" d="M734.381,1474.75a14.335,14.335,0,0,0,4.678,4.825l20.625-17.93a14.325,14.325,0,0,0-6.445-6.8Z" transform="translate(-597.127 -1182.934)" fill="#ffbf3b"/>
        <path id="Path_3621" data-name="Path 3621" d="M770.764,1525.808l18.162-12.211a14.363,14.363,0,0,0-.128-3.913l-19.905,15.438a14.168,14.168,0,0,0,1.871.687" transform="translate(-625.188 -1227.526)" fill="#ffbf3b"/>
        <path id="Path_3622" data-name="Path 3622" d="M742.685,1478.361a13.212,13.212,0,1,1,13.212-13.212,13.227,13.227,0,0,1-13.212,13.212m0-26.017a12.805,12.805,0,1,0,12.805,12.805,12.82,12.82,0,0,0-12.805-12.805" transform="translate(-593.136 -1180.573)" fill="#fff"/>
        <path id="Path_3623" data-name="Path 3623" d="M1011.679,1272.627a14.266,14.266,0,1,0-14.266,14.266,14.267,14.267,0,0,0,14.266-14.266" transform="translate(-799.398 -1023.176)" fill="#ffab3b"/>
        <path id="Path_3624" data-name="Path 3624" d="M993.7,1286.816a14.34,14.34,0,0,0,4.678,4.825l20.625-17.93a14.322,14.322,0,0,0-6.445-6.8Z" transform="translate(-807.977 -1030.125)" fill="#ffbf3b"/>
        <path id="Path_3625" data-name="Path 3625" d="M1030.08,1337.873l18.162-12.211a14.383,14.383,0,0,0-.128-3.913l-19.905,15.437a14.123,14.123,0,0,0,1.871.687" transform="translate(-836.039 -1074.717)" fill="#ffbf3b"/>
        <path id="Path_3626" data-name="Path 3626" d="M1002,1290.427a13.212,13.212,0,1,1,13.212-13.212A13.227,13.227,0,0,1,1002,1290.427m0-26.017a12.805,12.805,0,1,0,12.805,12.8,12.82,12.82,0,0,0-12.805-12.8" transform="translate(-803.986 -1027.764)" fill="#fff"/>
      </g>
    </g>
  </g>
</svg>
