<svg xmlns="http://www.w3.org/2000/svg" width="140.887" height="37.36" viewBox="0 0 140.887 37.36">
  <g id="Group_27317" data-name="Group 27317" transform="translate(-124.622 -507.567)">
    <path id="Path_232" data-name="Path 232" d="M153.869,11678.445l10.439-6.878H134.341s-8.589.9-9.867,6.878,12.214,12.521,22.592,14.677-12.054,8.063-12.054,8.063l-10.538,7.743h28.5s13.009-2.555,11.334-10.219-12.212-7.982-12.212-7.982l-10.218-5.509,4.352-2.458Z" transform="translate(0.232 -11164)" fill="#fff"/>
    <path id="Path_233" data-name="Path 233" d="M149.493,11692.944l4.71-3.593h13.731v22.353H149.247Z" transform="translate(-14.628 -11174.631)" fill="#358dc0"/>
    <path id="Path_24782" data-name="Path 24782" d="M13.4-20.082a12.851,12.851,0,0,1-5.993-1.336,9.848,9.848,0,0,1-3.989-3.655,9.974,9.974,0,0,1-1.41-5.288A10.146,10.146,0,0,1,3.4-35.685a9.864,9.864,0,0,1,3.8-3.636,11.191,11.191,0,0,1,5.454-1.317A11.156,11.156,0,0,1,17.948-39.4a9.307,9.307,0,0,1,3.729,3.564,10.693,10.693,0,0,1,1.374,5.547q0,.334-.037.761t-.074.8H6.724V-32.1H19.9l-2.226,1a5.548,5.548,0,0,0-.629-2.708,4.6,4.6,0,0,0-1.744-1.8,5.061,5.061,0,0,0-2.6-.649,5.163,5.163,0,0,0-2.616.649A4.536,4.536,0,0,0,8.32-33.792a5.738,5.738,0,0,0-.631,2.765v.891a5.611,5.611,0,0,0,.724,2.875,4.721,4.721,0,0,0,2.041,1.892,6.932,6.932,0,0,0,3.1.649,7.509,7.509,0,0,0,2.8-.482,6.824,6.824,0,0,0,2.208-1.447l3.08,3.34a8.971,8.971,0,0,1-3.45,2.393,12.767,12.767,0,0,1-4.787.835Zm13.506-.3V-40.341h5.528v5.64l-.779-1.633a6.414,6.414,0,0,1,2.857-3.21A9.711,9.711,0,0,1,39.3-40.638V-35.3q-.371-.037-.668-.056T38-35.369a5.434,5.434,0,0,0-3.84,1.354A5.475,5.475,0,0,0,32.7-29.8v9.423Zm15.844,0V-40.341h5.788v19.962Zm2.894-22.745a3.671,3.671,0,0,1-2.6-.926,3.008,3.008,0,0,1-1-2.3,3.008,3.008,0,0,1,1-2.3,3.671,3.671,0,0,1,2.6-.926,3.813,3.813,0,0,1,2.6.872,2.84,2.84,0,0,1,1,2.245,3.18,3.18,0,0,1-.983,2.393,3.614,3.614,0,0,1-2.616.942Zm20.408,2.486a9.3,9.3,0,0,1,4.248.946,6.861,6.861,0,0,1,2.95,2.894,10.255,10.255,0,0,1,1.076,4.99v11.428H68.541V-30.917a5.13,5.13,0,0,0-1.058-3.562,3.853,3.853,0,0,0-2.987-1.15,5.224,5.224,0,0,0-2.468.576,3.993,3.993,0,0,0-1.707,1.763,6.624,6.624,0,0,0-.612,3.043v9.87H53.922V-40.341H59.45v5.528l-1.039-1.67a7.394,7.394,0,0,1,3.08-3.08,9.494,9.494,0,0,1,4.564-1.076ZM91.806-20.379v-3.9l-.371-.854V-32.1A3.731,3.731,0,0,0,90.3-35a5,5,0,0,0-3.469-1.039,10.073,10.073,0,0,0-3.133.5,8.3,8.3,0,0,0-2.618,1.355l-2.076-4.044a12.517,12.517,0,0,1,3.933-1.781,17.6,17.6,0,0,1,4.675-.631q4.564,0,7.087,2.152t2.523,6.716v11.391Zm-6.085.3a9.226,9.226,0,0,1-4.007-.8,6.088,6.088,0,0,1-2.56-2.172,5.537,5.537,0,0,1-.891-3.08,5.573,5.573,0,0,1,.872-3.117,5.71,5.71,0,0,1,2.764-2.1,13.427,13.427,0,0,1,4.935-.761H92.14v3.378H87.464a4.351,4.351,0,0,0-2.8.668,2.13,2.13,0,0,0-.761,1.67,2.082,2.082,0,0,0,.872,1.763,3.929,3.929,0,0,0,2.393.649,4.97,4.97,0,0,0,2.6-.686,3.932,3.932,0,0,0,1.67-2.022l.891,2.671a5.168,5.168,0,0,1-2.3,2.931,8.277,8.277,0,0,1-4.3,1Z" transform="translate(168.284 564.051)" fill="#fff"/>
    <g id="Group_164" data-name="Group 164" transform="translate(137.335 520.615)">
      <rect id="Rectangle_109" data-name="Rectangle 109" width="7.642" height="0.804" rx="0.402" fill="#fff" stroke="#fff" stroke-width="0.5"/>
      <rect id="Rectangle_110" data-name="Rectangle 110" width="14.479" height="0.804" rx="0.402" transform="translate(0 3.62)" fill="#fff" stroke="#fff" stroke-width="0.5"/>
      <rect id="Rectangle_111" data-name="Rectangle 111" width="14.479" height="0.804" rx="0.402" transform="translate(0 6.837)" fill="#fff" stroke="#fff" stroke-width="0.5"/>
      <rect id="Rectangle_112" data-name="Rectangle 112" width="14.479" height="0.804" rx="0.402" transform="translate(0 10.457)" fill="#fff" stroke="#fff" stroke-width="0.5"/>
    </g>
  </g>
</svg>
