<svg id="Group_1005" data-name="Group 1005" xmlns="http://www.w3.org/2000/svg" xmlns:xlink="http://www.w3.org/1999/xlink" width="170.27" height="178.359" viewBox="0 0 170.27 178.359">
  <defs>
    <clipPath id="clip-path">
      <rect id="Rectangle_940" data-name="Rectangle 940" width="170.27" height="178.359" fill="none"/>
    </clipPath>
    <clipPath id="clip-path-3">
      <rect id="Rectangle_918" data-name="Rectangle 918" width="63.479" height="60.761" fill="none"/>
    </clipPath>
    <clipPath id="clip-path-4">
      <rect id="Rectangle_931" data-name="Rectangle 931" width="11.402" height="29.439" fill="none"/>
    </clipPath>
    <clipPath id="clip-path-5">
      <rect id="Rectangle_932" data-name="Rectangle 932" width="4.347" height="13.435" fill="none"/>
    </clipPath>
    <clipPath id="clip-path-6">
      <rect id="Rectangle_938" data-name="Rectangle 938" width="16.807" height="29.418"/>
    </clipPath>
  </defs>
  <g id="Group_1004" data-name="Group 1004" clip-path="url(#clip-path)">
    <g id="Group_1003" data-name="Group 1003">
      <g id="Group_1002" data-name="Group 1002" clip-path="url(#clip-path)">
        <path id="Path_2334" data-name="Path 2334" d="M182.457,96.086H128.567a1.876,1.876,0,0,1-1.876-1.876V14.163a1.876,1.876,0,0,1,1.876-1.876h53.889a1.876,1.876,0,0,1,1.876,1.876V94.21a1.876,1.876,0,0,1-1.876,1.876" transform="translate(-76.908 -7.459)" fill="#fff"/>
        <path id="Path_2335" data-name="Path 2335" d="M182.119,95.977H128.29a2.108,2.108,0,0,1-2.106-2.106V13.885a2.108,2.108,0,0,1,2.106-2.106h53.829a2.108,2.108,0,0,1,2.106,2.106V93.871a2.108,2.108,0,0,1-2.106,2.106m-53.829-83.8a1.709,1.709,0,0,0-1.707,1.707V93.871a1.709,1.709,0,0,0,1.707,1.707h53.829a1.709,1.709,0,0,0,1.707-1.707V13.885a1.709,1.709,0,0,0-1.707-1.707Z" transform="translate(-76.601 -7.15)" fill="#e0e0e0"/>
        <rect id="Rectangle_831" data-name="Rectangle 831" width="47.962" height="1.958" transform="translate(55.392 79.489)" fill="#e0e0e0"/>
        <rect id="Rectangle_832" data-name="Rectangle 832" width="47.962" height="1.958" transform="translate(55.392 82.411)" fill="#e0e0e0"/>
        <rect id="Rectangle_833" data-name="Rectangle 833" width="47.962" height="34.708" transform="translate(55.392 38.287)" fill="#f5f5f5"/>
        <path id="Path_2336" data-name="Path 2336" d="M188.447,112.591c0,.057-10.717.1-23.934.1s-23.937-.047-23.937-.1,10.715-.1,23.937-.1,23.934.047,23.934.1" transform="translate(-85.337 -68.286)" fill="#263238"/>
        <path id="Path_2337" data-name="Path 2337" d="M156.87,132.487c-.057,0-.1-7.721-.1-17.242S156.813,98,156.87,98s.1,7.719.1,17.243-.046,17.242-.1,17.242" transform="translate(-95.165 -59.493)" fill="#263238"/>
        <path id="Path_2338" data-name="Path 2338" d="M211.771,132.888c-.057,0-.1-7.81-.1-17.442s.047-17.444.1-17.444.1,7.808.1,17.444-.046,17.442-.1,17.442" transform="translate(-128.493 -59.493)" fill="#263238"/>
        <path id="Path_2339" data-name="Path 2339" d="M239.221,132.888c-.057,0-.1-7.81-.1-17.442s.047-17.444.1-17.444.1,7.808.1,17.444-.047,17.442-.1,17.442" transform="translate(-145.157 -59.493)" fill="#263238"/>
        <rect id="Rectangle_834" data-name="Rectangle 834" width="2.795" height="2.052" transform="translate(57.067 40.551)" fill="#e0e0e0"/>
        <rect id="Rectangle_835" data-name="Rectangle 835" width="2.795" height="2.052" transform="translate(57.067 47.87)" fill="#e0e0e0"/>
        <rect id="Rectangle_836" data-name="Rectangle 836" width="2.795" height="2.052" transform="translate(57.067 52.509)" fill="#e0e0e0"/>
        <rect id="Rectangle_837" data-name="Rectangle 837" width="2.795" height="2.052" transform="translate(57.067 56.569)" fill="#e0e0e0"/>
        <rect id="Rectangle_838" data-name="Rectangle 838" width="5.929" height="2.052" transform="translate(85.674 40.551)" fill="#e0e0e0"/>
        <rect id="Rectangle_839" data-name="Rectangle 839" width="4.089" height="2.052" transform="translate(86.606 46.243)" fill="#e0e0e0"/>
        <rect id="Rectangle_840" data-name="Rectangle 840" width="4.089" height="2.052" transform="translate(86.606 52.466)" fill="#e0e0e0"/>
        <rect id="Rectangle_841" data-name="Rectangle 841" width="4.089" height="2.052" transform="translate(96.955 52.466)" fill="#e0e0e0"/>
        <rect id="Rectangle_842" data-name="Rectangle 842" width="4.089" height="2.052" transform="translate(86.606 56.603)" fill="#e0e0e0"/>
        <rect id="Rectangle_843" data-name="Rectangle 843" width="4.089" height="2.052" transform="translate(96.924 56.41)" fill="#e0e0e0"/>
        <rect id="Rectangle_844" data-name="Rectangle 844" width="4.089" height="2.052" transform="translate(96.924 46.377)" fill="#e0e0e0"/>
        <rect id="Rectangle_845" data-name="Rectangle 845" width="4.735" height="2.052" transform="translate(96.278 40.551)" fill="#e0e0e0"/>
        <rect id="Rectangle_846" data-name="Rectangle 846" width="15.507" height="2.052" transform="translate(64.409 40.551)" fill="#e0e0e0"/>
        <rect id="Rectangle_847" data-name="Rectangle 847" width="9.219" height="2.052" transform="translate(64.41 47.437)" fill="#e0e0e0"/>
        <rect id="Rectangle_848" data-name="Rectangle 848" width="15.507" height="2.052" transform="translate(64.409 52.317)" fill="#e0e0e0"/>
        <rect id="Rectangle_849" data-name="Rectangle 849" width="8.231" height="2.052" transform="translate(64.409 56.41)" fill="#e0e0e0"/>
        <rect id="Rectangle_850" data-name="Rectangle 850" width="9.289" height="4.725" transform="translate(94.064 72.995)" fill="#e0e0e0"/>
        <rect id="Rectangle_851" data-name="Rectangle 851" width="20.623" height="1.958" transform="translate(80.42 13.639)" fill="#e0e0e0"/>
        <rect id="Rectangle_852" data-name="Rectangle 852" width="5.041" height="1.958" transform="translate(56.597 19.731)" fill="#e0e0e0"/>
        <rect id="Rectangle_853" data-name="Rectangle 853" width="13.457" height="1.958" transform="translate(56.451 23.009)" fill="#e0e0e0"/>
        <rect id="Rectangle_854" data-name="Rectangle 854" width="5.041" height="1.958" transform="translate(96.583 19.731)" fill="#e0e0e0"/>
        <rect id="Rectangle_855" data-name="Rectangle 855" width="13.457" height="1.958" transform="translate(88.313 23.009)" fill="#e0e0e0"/>
        <rect id="Rectangle_856" data-name="Rectangle 856" width="13.457" height="1.958" transform="translate(56.451 29.058)" fill="#e0e0e0"/>
        <rect id="Rectangle_857" data-name="Rectangle 857" width="34.355" height="1.958" transform="translate(56.451 32.458)" fill="#e0e0e0"/>
        <rect id="Rectangle_858" data-name="Rectangle 858" width="0.914" height="3.232" transform="translate(56.92 12.65)" fill="#e0e0e0"/>
        <path id="Path_2340" data-name="Path 2340" d="M151.915,32.194v3.232h-.753L149.735,33.7v1.722h-.9V32.194h.753l1.427,1.722V32.194Z" transform="translate(-90.354 -19.543)" fill="#e0e0e0"/>
        <path id="Path_2341" data-name="Path 2341" d="M160.971,32.194l-1.385,3.232h-.9L157.3,32.194h.988l.877,2.106.9-2.106Z" transform="translate(-95.493 -19.543)" fill="#e0e0e0"/>
        <path id="Path_2342" data-name="Path 2342" d="M166.593,33.711a1.8,1.8,0,1,1,1.8,1.681,1.69,1.69,0,0,1-1.8-1.681m2.669,0a.874.874,0,1,0-.873.923.865.865,0,0,0,.873-.923" transform="translate(-101.131 -19.444)" fill="#e0e0e0"/>
        <rect id="Rectangle_859" data-name="Rectangle 859" width="0.914" height="3.232" transform="translate(69.536 12.65)" fill="#e0e0e0"/>
        <path id="Path_2343" data-name="Path 2343" d="M180.524,33.711A1.671,1.671,0,0,1,182.3,32.03a1.709,1.709,0,0,1,1.39.609l-.582.526a.955.955,0,0,0-.762-.378.924.924,0,0,0,0,1.847.956.956,0,0,0,.762-.379l.582.526a1.708,1.708,0,0,1-1.39.61,1.672,1.672,0,0,1-1.778-1.681" transform="translate(-109.588 -19.444)" fill="#e0e0e0"/>
        <path id="Path_2344" data-name="Path 2344" d="M192.219,34.72v.707h-2.6V32.194h2.535V32.9h-1.63v.545h1.436v.683h-1.436v.591Z" transform="translate(-115.112 -19.544)" fill="#e0e0e0"/>
        <path id="Path_2345" data-name="Path 2345" d="M133.844,18.574a.879.879,0,1,1-.879-.879.879.879,0,0,1,.879.879" transform="translate(-80.184 -10.742)" fill="#e0e0e0"/>
        <path id="Path_2346" data-name="Path 2346" d="M139.6,18.574a.879.879,0,1,1-.879-.879.879.879,0,0,1,.879.879" transform="translate(-83.678 -10.742)" fill="#e0e0e0"/>
        <path id="Path_2347" data-name="Path 2347" d="M145.356,18.574a.879.879,0,1,1-.879-.879.879.879,0,0,1,.879.879" transform="translate(-87.172 -10.742)" fill="#e0e0e0"/>
        <path id="Path_2348" data-name="Path 2348" d="M331.7,245.483H277.806a1.876,1.876,0,0,1-1.876-1.876V163.56a1.876,1.876,0,0,1,1.876-1.876H331.7a1.876,1.876,0,0,1,1.876,1.876v80.047a1.876,1.876,0,0,1-1.876,1.876" transform="translate(-167.505 -98.151)" fill="#fff"/>
        <path id="Path_2349" data-name="Path 2349" d="M331.358,245.374h-53.83a2.108,2.108,0,0,1-2.106-2.106V163.282a2.108,2.108,0,0,1,2.106-2.106h53.83a2.108,2.108,0,0,1,2.105,2.106v79.986a2.108,2.108,0,0,1-2.105,2.106m-53.83-83.8a1.709,1.709,0,0,0-1.707,1.707v79.986a1.709,1.709,0,0,0,1.707,1.707h53.83a1.709,1.709,0,0,0,1.706-1.707V163.282a1.708,1.708,0,0,0-1.706-1.707Z" transform="translate(-167.196 -97.843)" fill="#e0e0e0"/>
        <rect id="Rectangle_860" data-name="Rectangle 860" width="47.962" height="1.958" transform="translate(114.034 138.193)" fill="#e0e0e0"/>
        <rect id="Rectangle_861" data-name="Rectangle 861" width="47.962" height="1.958" transform="translate(114.034 141.116)" fill="#e0e0e0"/>
        <rect id="Rectangle_862" data-name="Rectangle 862" width="47.962" height="34.708" transform="translate(114.034 96.992)" fill="#f5f5f5"/>
        <path id="Path_2350" data-name="Path 2350" d="M337.686,261.989c0,.057-10.717.1-23.934.1s-23.937-.047-23.937-.1,10.715-.1,23.937-.1,23.934.046,23.934.1" transform="translate(-175.933 -158.978)" fill="#e0e0e0"/>
        <path id="Path_2351" data-name="Path 2351" d="M306.11,281.884c-.057,0-.1-7.72-.1-17.242s.046-17.244.1-17.244.1,7.719.1,17.244-.046,17.242-.1,17.242" transform="translate(-185.762 -150.185)" fill="#e0e0e0"/>
        <path id="Path_2352" data-name="Path 2352" d="M361.01,282.285c-.057,0-.1-7.81-.1-17.442s.047-17.444.1-17.444.1,7.808.1,17.444-.046,17.442-.1,17.442" transform="translate(-219.09 -150.185)" fill="#e0e0e0"/>
        <path id="Path_2353" data-name="Path 2353" d="M388.46,282.285c-.057,0-.1-7.81-.1-17.442s.047-17.444.1-17.444.1,7.808.1,17.444-.047,17.442-.1,17.442" transform="translate(-235.753 -150.185)" fill="#e0e0e0"/>
        <rect id="Rectangle_863" data-name="Rectangle 863" width="2.795" height="2.052" transform="translate(115.71 99.256)" fill="#e0e0e0"/>
        <rect id="Rectangle_864" data-name="Rectangle 864" width="2.795" height="2.052" transform="translate(115.71 106.575)" fill="#e0e0e0"/>
        <rect id="Rectangle_865" data-name="Rectangle 865" width="2.795" height="2.052" transform="translate(115.71 111.214)" fill="#e0e0e0"/>
        <rect id="Rectangle_866" data-name="Rectangle 866" width="2.795" height="2.052" transform="translate(115.71 115.274)" fill="#e0e0e0"/>
        <rect id="Rectangle_867" data-name="Rectangle 867" width="5.929" height="2.052" transform="translate(144.317 99.256)" fill="#e0e0e0"/>
        <rect id="Rectangle_868" data-name="Rectangle 868" width="4.089" height="2.052" transform="translate(145.248 104.948)" fill="#e0e0e0"/>
        <rect id="Rectangle_869" data-name="Rectangle 869" width="4.089" height="2.052" transform="translate(145.248 111.171)" fill="#e0e0e0"/>
        <rect id="Rectangle_870" data-name="Rectangle 870" width="4.089" height="2.052" transform="translate(155.597 111.171)" fill="#e0e0e0"/>
        <rect id="Rectangle_871" data-name="Rectangle 871" width="4.089" height="2.052" transform="translate(145.248 115.308)" fill="#e0e0e0"/>
        <rect id="Rectangle_872" data-name="Rectangle 872" width="4.089" height="2.052" transform="translate(155.567 115.115)" fill="#e0e0e0"/>
        <rect id="Rectangle_873" data-name="Rectangle 873" width="4.089" height="2.052" transform="translate(155.567 105.082)" fill="#e0e0e0"/>
        <rect id="Rectangle_874" data-name="Rectangle 874" width="4.735" height="2.052" transform="translate(154.921 99.256)" fill="#e0e0e0"/>
        <rect id="Rectangle_875" data-name="Rectangle 875" width="15.507" height="2.052" transform="translate(123.052 99.256)" fill="#e0e0e0"/>
        <rect id="Rectangle_876" data-name="Rectangle 876" width="9.219" height="2.052" transform="translate(123.052 106.142)" fill="#e0e0e0"/>
        <rect id="Rectangle_877" data-name="Rectangle 877" width="15.507" height="2.052" transform="translate(123.052 111.022)" fill="#e0e0e0"/>
        <rect id="Rectangle_878" data-name="Rectangle 878" width="8.231" height="2.052" transform="translate(123.052 115.115)" fill="#e0e0e0"/>
        <rect id="Rectangle_879" data-name="Rectangle 879" width="9.289" height="4.725" transform="translate(152.707 131.7)" fill="#e0e0e0"/>
        <rect id="Rectangle_880" data-name="Rectangle 880" width="20.623" height="1.958" transform="translate(139.063 72.344)" fill="#e0e0e0"/>
        <rect id="Rectangle_881" data-name="Rectangle 881" width="5.041" height="1.958" transform="translate(115.24 78.436)" fill="#e0e0e0"/>
        <rect id="Rectangle_882" data-name="Rectangle 882" width="13.457" height="1.958" transform="translate(115.094 81.714)" fill="#e0e0e0"/>
        <rect id="Rectangle_883" data-name="Rectangle 883" width="5.041" height="1.958" transform="translate(155.226 78.436)" fill="#e0e0e0"/>
        <rect id="Rectangle_884" data-name="Rectangle 884" width="13.457" height="1.958" transform="translate(146.956 81.714)" fill="#e0e0e0"/>
        <rect id="Rectangle_885" data-name="Rectangle 885" width="13.457" height="1.958" transform="translate(115.094 87.763)" fill="#e0e0e0"/>
        <rect id="Rectangle_886" data-name="Rectangle 886" width="34.355" height="1.958" transform="translate(115.094 91.163)" fill="#e0e0e0"/>
        <rect id="Rectangle_887" data-name="Rectangle 887" width="0.914" height="3.232" transform="translate(115.562 71.355)" fill="#e0e0e0"/>
        <path id="Path_2354" data-name="Path 2354" d="M301.153,181.591v3.232H300.4l-1.427-1.722v1.722h-.9v-3.232h.753l1.427,1.722v-1.722Z" transform="translate(-180.95 -110.236)" fill="#e0e0e0"/>
        <path id="Path_2355" data-name="Path 2355" d="M310.211,181.591l-1.385,3.232h-.9l-1.38-3.232h.988l.877,2.106.9-2.106Z" transform="translate(-186.089 -110.236)" fill="#e0e0e0"/>
        <path id="Path_2356" data-name="Path 2356" d="M315.832,183.109a1.8,1.8,0,1,1,1.8,1.681,1.69,1.69,0,0,1-1.8-1.681m2.669,0a.874.874,0,1,0-.873.923.866.866,0,0,0,.873-.923" transform="translate(-191.727 -110.137)" fill="#e0e0e0"/>
        <rect id="Rectangle_888" data-name="Rectangle 888" width="0.914" height="3.232" transform="translate(128.179 71.355)" fill="#e0e0e0"/>
        <path id="Path_2357" data-name="Path 2357" d="M329.764,183.109a1.671,1.671,0,0,1,1.778-1.681,1.709,1.709,0,0,1,1.39.609l-.582.527a.955.955,0,0,0-.762-.379.924.924,0,0,0,0,1.847.955.955,0,0,0,.762-.378l.582.526a1.71,1.71,0,0,1-1.39.61,1.672,1.672,0,0,1-1.778-1.681" transform="translate(-200.185 -110.137)" fill="#e0e0e0"/>
        <path id="Path_2358" data-name="Path 2358" d="M341.458,184.117v.707h-2.6v-3.232H341.4v.706h-1.63v.545H341.2v.683h-1.436v.591Z" transform="translate(-205.708 -110.236)" fill="#e0e0e0"/>
        <path id="Path_2359" data-name="Path 2359" d="M283.083,167.971a.879.879,0,1,1-.879-.879.879.879,0,0,1,.879.879" transform="translate(-170.78 -101.434)" fill="#e0e0e0"/>
        <path id="Path_2360" data-name="Path 2360" d="M288.839,167.971a.879.879,0,1,1-.879-.879.879.879,0,0,1,.879.879" transform="translate(-174.274 -101.434)" fill="#e0e0e0"/>
        <path id="Path_2361" data-name="Path 2361" d="M294.6,167.971a.879.879,0,1,1-.879-.879.879.879,0,0,1,.879.879" transform="translate(-177.769 -101.434)" fill="#e0e0e0"/>
        <path id="Path_2362" data-name="Path 2362" d="M329.317,4.18a11.074,11.074,0,0,1,13.932.021.871.871,0,0,0,1.2,0,.854.854,0,0,0,0-1.2,12.635,12.635,0,0,0-16.329-.021.854.854,0,0,0,0,1.2.867.867,0,0,0,1.2,0" transform="translate(-199.037 0)" fill="#e0e0e0"/>
        <path id="Path_2363" data-name="Path 2363" d="M336.439,13.3a6.663,6.663,0,0,1,8.335.013.872.872,0,0,0,1.2,0,.854.854,0,0,0,0-1.2,8.27,8.27,0,0,0-10.732-.013.853.853,0,0,0,0,1.2.867.867,0,0,0,1.2,0" transform="translate(-203.36 -6.152)" fill="#e0e0e0"/>
        <path id="Path_2364" data-name="Path 2364" d="M348.135,21.316a2.1,2.1,0,1,1-2.1-2.1,2.1,2.1,0,0,1,2.1,2.1" transform="translate(-208.792 -11.668)" fill="#e0e0e0"/>
        <path id="Path_2365" data-name="Path 2365" d="M170.27,442.08c0,.057-38.119.1-85.131.1-47.028,0-85.139-.046-85.139-.1s38.111-.1,85.139-.1c47.012,0,85.131.046,85.131.1" transform="translate(0 -268.305)" fill="#263238"/>
        <path id="Path_2366" data-name="Path 2366" d="M99.422,131.486H45.532a1.876,1.876,0,0,1-1.876-1.876V49.563a1.876,1.876,0,0,1,1.876-1.876H99.422a1.876,1.876,0,0,1,1.876,1.876V129.61a1.876,1.876,0,0,1-1.876,1.876" transform="translate(-26.502 -28.949)" fill="#fff"/>
        <path id="Path_2367" data-name="Path 2367" d="M99.084,131.377H45.255a2.108,2.108,0,0,1-2.106-2.106V49.285a2.108,2.108,0,0,1,2.106-2.106H99.084a2.109,2.109,0,0,1,2.106,2.106v79.986a2.108,2.108,0,0,1-2.106,2.106m-53.829-83.8a1.709,1.709,0,0,0-1.707,1.707v79.986a1.709,1.709,0,0,0,1.707,1.707H99.084a1.709,1.709,0,0,0,1.707-1.707V49.285a1.709,1.709,0,0,0-1.707-1.707Z" transform="translate(-26.194 -28.64)" fill="#263238"/>
        <rect id="Rectangle_889" data-name="Rectangle 889" width="47.962" height="1.958" transform="translate(22.763 93.399)" fill="#e0e0e0"/>
        <rect id="Rectangle_890" data-name="Rectangle 890" width="47.962" height="1.958" transform="translate(22.763 96.322)" fill="#e0e0e0"/>
        <rect id="Rectangle_891" data-name="Rectangle 891" width="47.962" height="34.708" transform="translate(22.763 52.197)" fill="#f5f5f5"/>
        <path id="Path_2368" data-name="Path 2368" d="M105.412,147.992c0,.057-10.717.1-23.934.1s-23.937-.047-23.937-.1,10.715-.1,23.937-.1,23.934.046,23.934.1" transform="translate(-34.931 -89.776)" fill="#263238"/>
        <path id="Path_2369" data-name="Path 2369" d="M73.836,167.887c-.057,0-.1-7.721-.1-17.242s.046-17.243.1-17.243.1,7.719.1,17.243-.047,17.242-.1,17.242" transform="translate(-44.759 -80.982)" fill="#263238"/>
        <path id="Path_2370" data-name="Path 2370" d="M128.737,168.288c-.057,0-.1-7.81-.1-17.442s.046-17.444.1-17.444.1,7.808.1,17.444-.046,17.442-.1,17.442" transform="translate(-78.087 -80.982)" fill="#263238"/>
        <path id="Path_2371" data-name="Path 2371" d="M156.187,168.288c-.057,0-.1-7.81-.1-17.442s.046-17.444.1-17.444.1,7.808.1,17.444-.047,17.442-.1,17.442" transform="translate(-94.751 -80.982)" fill="#263238"/>
        <rect id="Rectangle_892" data-name="Rectangle 892" width="2.795" height="2.052" transform="translate(24.439 54.461)" fill="#e0e0e0"/>
        <rect id="Rectangle_893" data-name="Rectangle 893" width="2.795" height="2.052" transform="translate(24.439 61.78)" fill="#e0e0e0"/>
        <rect id="Rectangle_894" data-name="Rectangle 894" width="2.795" height="2.052" transform="translate(24.439 66.419)" fill="#e0e0e0"/>
        <rect id="Rectangle_895" data-name="Rectangle 895" width="2.795" height="2.052" transform="translate(24.439 70.479)" fill="#e0e0e0"/>
        <rect id="Rectangle_896" data-name="Rectangle 896" width="5.929" height="2.052" transform="translate(53.046 54.461)" fill="#e0e0e0"/>
        <rect id="Rectangle_897" data-name="Rectangle 897" width="4.089" height="2.052" transform="translate(53.977 60.153)" fill="#e0e0e0"/>
        <rect id="Rectangle_898" data-name="Rectangle 898" width="4.089" height="2.052" transform="translate(53.977 66.376)" fill="#e0e0e0"/>
        <rect id="Rectangle_899" data-name="Rectangle 899" width="4.089" height="2.052" transform="translate(64.326 66.376)" fill="#e0e0e0"/>
        <rect id="Rectangle_900" data-name="Rectangle 900" width="4.089" height="2.052" transform="translate(53.977 70.514)" fill="#e0e0e0"/>
        <rect id="Rectangle_901" data-name="Rectangle 901" width="4.089" height="2.052" transform="translate(64.296 70.32)" fill="#e0e0e0"/>
        <rect id="Rectangle_902" data-name="Rectangle 902" width="4.089" height="2.052" transform="translate(64.296 60.288)" fill="#e0e0e0"/>
        <rect id="Rectangle_903" data-name="Rectangle 903" width="4.735" height="2.052" transform="translate(63.65 54.461)" fill="#e0e0e0"/>
        <rect id="Rectangle_904" data-name="Rectangle 904" width="15.507" height="2.052" transform="translate(31.781 54.461)" fill="#e0e0e0"/>
        <rect id="Rectangle_905" data-name="Rectangle 905" width="9.219" height="2.052" transform="translate(31.781 61.347)" fill="#e0e0e0"/>
        <rect id="Rectangle_906" data-name="Rectangle 906" width="15.507" height="2.052" transform="translate(31.781 66.227)" fill="#e0e0e0"/>
        <rect id="Rectangle_907" data-name="Rectangle 907" width="8.231" height="2.052" transform="translate(31.781 70.32)" fill="#e0e0e0"/>
        <rect id="Rectangle_908" data-name="Rectangle 908" width="9.289" height="4.725" transform="translate(61.436 86.905)" fill="#358dc0"/>
        <rect id="Rectangle_909" data-name="Rectangle 909" width="20.623" height="1.958" transform="translate(47.792 27.549)" fill="#e0e0e0"/>
        <rect id="Rectangle_910" data-name="Rectangle 910" width="5.041" height="1.958" transform="translate(23.969 33.642)" fill="#e0e0e0"/>
        <rect id="Rectangle_911" data-name="Rectangle 911" width="13.457" height="1.958" transform="translate(23.823 36.919)" fill="#e0e0e0"/>
        <rect id="Rectangle_912" data-name="Rectangle 912" width="5.041" height="1.958" transform="translate(63.955 33.642)" fill="#e0e0e0"/>
        <rect id="Rectangle_913" data-name="Rectangle 913" width="13.457" height="1.958" transform="translate(55.685 36.919)" fill="#e0e0e0"/>
        <rect id="Rectangle_914" data-name="Rectangle 914" width="13.457" height="1.958" transform="translate(23.823 42.968)" fill="#358dc0"/>
        <rect id="Rectangle_915" data-name="Rectangle 915" width="34.355" height="1.958" transform="translate(23.823 46.369)" fill="#e0e0e0"/>
        <rect id="Rectangle_916" data-name="Rectangle 916" width="0.914" height="3.232" transform="translate(24.292 26.561)" fill="#263238"/>
        <path id="Path_2372" data-name="Path 2372" d="M68.88,67.594v3.232h-.752L66.7,69.1v1.722h-.9V67.594h.752l1.427,1.722V67.594Z" transform="translate(-39.947 -41.033)" fill="#263238"/>
        <path id="Path_2373" data-name="Path 2373" d="M77.937,67.594l-1.385,3.232h-.9l-1.38-3.232h.988l.877,2.106.9-2.106Z" transform="translate(-45.086 -41.033)" fill="#263238"/>
        <path id="Path_2374" data-name="Path 2374" d="M83.558,69.112a1.8,1.8,0,1,1,1.8,1.681,1.69,1.69,0,0,1-1.8-1.681m2.669,0a.874.874,0,1,0-.873.923.865.865,0,0,0,.873-.923" transform="translate(-50.724 -40.934)" fill="#263238"/>
        <rect id="Rectangle_917" data-name="Rectangle 917" width="0.914" height="3.232" transform="translate(36.909 26.561)" fill="#263238"/>
        <path id="Path_2375" data-name="Path 2375" d="M97.49,69.112a1.671,1.671,0,0,1,1.778-1.681,1.709,1.709,0,0,1,1.39.609l-.582.526a.955.955,0,0,0-.762-.378.924.924,0,0,0,0,1.847.956.956,0,0,0,.762-.379l.582.526a1.708,1.708,0,0,1-1.39.61,1.672,1.672,0,0,1-1.778-1.681" transform="translate(-59.182 -40.934)" fill="#263238"/>
        <path id="Path_2376" data-name="Path 2376" d="M109.185,70.12v.707h-2.6V67.595h2.535V68.3h-1.63v.545h1.436v.683h-1.436v.591Z" transform="translate(-64.706 -41.034)" fill="#263238"/>
        <path id="Path_2377" data-name="Path 2377" d="M50.809,53.973a.879.879,0,1,1-.879-.879.879.879,0,0,1,.879.879" transform="translate(-29.777 -32.231)" fill="#e0e0e0"/>
        <path id="Path_2378" data-name="Path 2378" d="M56.565,53.973a.879.879,0,1,1-.879-.879.879.879,0,0,1,.879.879" transform="translate(-33.271 -32.231)" fill="#e0e0e0"/>
        <path id="Path_2379" data-name="Path 2379" d="M62.321,53.973a.879.879,0,1,1-.879-.879.879.879,0,0,1,.879.879" transform="translate(-36.766 -32.231)" fill="#e0e0e0"/>
        <path id="Path_2380" data-name="Path 2380" d="M232.274,206.024l-51.383-.227c-6.181-.027-11.169-4.658-11.142-10.345l.543-118.512c.027-5.69,5.063-10.283,11.247-10.257h.015l51.368.206c6.179.027,11.167,4.656,11.142,10.342l-.543,118.525c-.017,5.686-5.04,10.283-11.221,10.268h-.027" transform="translate(-103.047 -40.48)" fill="#263238"/>
        <path id="Path_2381" data-name="Path 2381" d="M237.221,75.311l-9.947-.042-29.1-.128h-3.5l-8.725-.035a7.6,7.6,0,0,0-7.875,7.286v0l-.531,117.472a7.587,7.587,0,0,0,7.8,7.354h0l51.284.22a7.6,7.6,0,0,0,7.864-7.3v0l.531-117.473a7.586,7.586,0,0,0-7.8-7.357Z" transform="translate(-107.778 -45.593)" fill="#fff"/>
        <path id="Path_2382" data-name="Path 2382" d="M328.613,101.218a.641.641,0,1,1-.641-.641h0a.642.642,0,0,1,.637.641" transform="translate(-198.708 -61.056)" fill="#263238"/>
        <path id="Path_2383" data-name="Path 2383" d="M328.594,107.121a.641.641,0,1,1-.641-.645.641.641,0,0,1,.641.645" transform="translate(-198.696 -64.637)" fill="#263238"/>
        <path id="Path_2384" data-name="Path 2384" d="M328.564,112.967a.645.645,0,1,1-.649-.641h.007a.645.645,0,0,1,.641.641" transform="translate(-198.673 -68.188)" fill="#263238"/>
        <path id="Path_2385" data-name="Path 2385" d="M251.585,105.913H222.8a1.033,1.033,0,0,1,0-2.066h28.788a1.033,1.033,0,0,1,0,2.066" transform="translate(-134.623 -63.041)" fill="#e0e0e0"/>
        <path id="Path_2386" data-name="Path 2386" d="M245.386,160.784h-49.6a.606.606,0,0,1-.605-.606v-.019a.605.605,0,0,1,.605-.605h49.6a.605.605,0,0,1,.605.605v.019a.606.606,0,0,1-.605.606" transform="translate(-118.484 -96.858)" fill="#263238"/>
        <g id="Group_989" data-name="Group 989" transform="translate(77.273 63.311)" opacity="0.3">
          <g id="Group_988" data-name="Group 988">
            <g id="Group_987" data-name="Group 987" clip-path="url(#clip-path-3)">
              <path id="Path_2387" data-name="Path 2387" d="M250.288,211.028a39.588,39.588,0,0,1-2.319-13.537V172.918a13.9,13.9,0,0,0-6.513-11.8h-44.8a13.894,13.894,0,0,1,6.514,11.8v28.856s.287,18.238,9.334,20.1l43.36-.06,4.271,0v-2.828c-2.626-1.982-8.492-4.246-9.842-7.961" transform="translate(-196.651 -161.118)"/>
            </g>
          </g>
        </g>
        <path id="Path_2388" data-name="Path 2388" d="M253.153,208.87a39.589,39.589,0,0,1-2.319-13.537V170.761c0-8.178-7.732-9.642-7.732-9.642H198.3s7.732,1.464,7.732,9.642v28.857s.287,18.237,9.334,20.1l46.893-.2c-4.523-.934-7.379-5.91-9.1-10.653" transform="translate(-120.378 -97.808)" fill="#fff"/>
        <path id="Path_2389" data-name="Path 2389" d="M251.751,208.711s.124.3.354.9c.246.586.6,1.467,1.158,2.572a19.88,19.88,0,0,0,2.483,3.829,12.021,12.021,0,0,0,2.123,1.977,7.9,7.9,0,0,0,3,1.33l.482.1-.492,0-46.893.24h-.01l-.009,0a8.2,8.2,0,0,1-4.725-3.124,17.934,17.934,0,0,1-2.7-5.272,36.558,36.558,0,0,1-1.427-5.942,44.18,44.18,0,0,1-.567-6.253c0-8.466,0-17.342,0-26.473v-1.957l-.056-.965-.029-.482c-.023-.159-.057-.316-.086-.474a8.654,8.654,0,0,0-1.365-3.541,9.26,9.26,0,0,0-2.685-2.634,10.69,10.69,0,0,0-3.428-1.476l-.888-.2h.908l44.8.015h.009l.007,0a10.782,10.782,0,0,1,2.718,1.041,9.686,9.686,0,0,1,2.294,1.678,8.861,8.861,0,0,1,2.553,4.778,29.267,29.267,0,0,1,.227,5.182q0,2.519,0,4.889c-.008,6.317-.015,11.816-.021,16.341a40.89,40.89,0,0,0,1.206,10.382c.295,1.172.574,2.055.765,2.649l.225.67c.05.15.073.228.073.228s-.117-.3-.324-.889-.487-1.473-.791-2.644a40.457,40.457,0,0,1-1.255-10.4c-.005-4.525-.013-10.024-.02-16.341q0-2.369,0-4.889a29.183,29.183,0,0,0-.232-5.15,8.7,8.7,0,0,0-2.512-4.689,9.534,9.534,0,0,0-2.259-1.647,10.621,10.621,0,0,0-2.669-1.02l.016,0-44.8.015.019-.2a10.879,10.879,0,0,1,3.5,1.505,9.464,9.464,0,0,1,2.745,2.692,8.868,8.868,0,0,1,1.4,3.621c.029.161.064.321.087.483l.029.49.057.982v1.957c0,9.131,0,18.006,0,26.472a44.039,44.039,0,0,0,.561,6.224,36.388,36.388,0,0,0,1.415,5.91,17.759,17.759,0,0,0,2.663,5.217,8.017,8.017,0,0,0,4.613,3.06l-.019,0,46.893-.157-.01.1a7.987,7.987,0,0,1-3.029-1.355,12.069,12.069,0,0,1-2.131-2,19.743,19.743,0,0,1-2.47-3.856c-.556-1.11-.9-2-1.136-2.586-.222-.6-.328-.906-.328-.906" transform="translate(-118.975 -97.648)" fill="#263238"/>
        <path id="Path_2390" data-name="Path 2390" d="M290.52,294.1a13.459,13.459,0,0,0,5.421-9.922l-50.662-.2a16.222,16.222,0,0,1-.779,6.993,6.473,6.473,0,0,1-2.2,3.334Z" transform="translate(-147.09 -172.389)" fill="#e0e0e0"/>
        <path id="Path_2391" data-name="Path 2391" d="M290.017,293.938s-.079.006-.236.01l-.7.012-2.712.028-10.109.073-34.462.182-.326,0,.268-.187A5.284,5.284,0,0,0,243.4,292a13.349,13.349,0,0,0,.9-2.59,16.2,16.2,0,0,0,.374-5.587l-.013-.115h.116l1.476.006,49.186.24h.065l0,.064a13.362,13.362,0,0,1-1.236,4.773,13.678,13.678,0,0,1-1.986,3.079,13.425,13.425,0,0,1-1.631,1.6c-.411.319-.629.47-.629.47s.051-.046.153-.129l.454-.367a14.169,14.169,0,0,0,1.6-1.611,13.759,13.759,0,0,0,1.949-3.077,13.327,13.327,0,0,0,1.2-4.741l.061.064-49.187-.154-1.475-.006.1-.115a16.386,16.386,0,0,1-.38,5.658,13.493,13.493,0,0,1-.918,2.631,5.479,5.479,0,0,1-1.725,2.132l-.058-.185,34.433-.107,10.119-.013,2.721.005.705.006c.159,0,.242.008.242.008" transform="translate(-146.587 -172.227)" fill="#263238"/>
        <path id="Path_2392" data-name="Path 2392" d="M265.451,185.081c0,.057-7.49.1-16.728.1s-16.73-.047-16.73-.1,7.489-.1,16.73-.1,16.728.046,16.728.1" transform="translate(-140.832 -112.291)" fill="#263238"/>
        <path id="Path_2393" data-name="Path 2393" d="M265.451,203.226c0,.057-7.49.1-16.728.1s-16.73-.047-16.73-.1,7.489-.1,16.73-.1,16.728.046,16.728.1" transform="translate(-140.832 -123.306)" fill="#263238"/>
        <path id="Path_2394" data-name="Path 2394" d="M267.442,253.182c0,.057-7.936.1-17.724.1s-17.725-.047-17.725-.1,7.935-.1,17.725-.1,17.724.047,17.724.1" transform="translate(-140.832 -153.632)" fill="#263238"/>
        <rect id="Rectangle_919" data-name="Rectangle 919" width="16.994" height="2.538" transform="translate(91.605 75.358)" fill="#e0e0e0"/>
        <rect id="Rectangle_920" data-name="Rectangle 920" width="10.083" height="2.538" transform="translate(115.39 75.358)" fill="#e0e0e0"/>
        <rect id="Rectangle_921" data-name="Rectangle 921" width="16.284" height="2.538" transform="translate(91.605 83.048)" fill="#e0e0e0"/>
        <rect id="Rectangle_922" data-name="Rectangle 922" width="6.807" height="2.538" transform="translate(91.605 88.484)" fill="#e0e0e0"/>
        <rect id="Rectangle_923" data-name="Rectangle 923" width="11.035" height="2.538" transform="translate(91.605 93.505)" fill="#e0e0e0"/>
        <rect id="Rectangle_924" data-name="Rectangle 924" width="34.43" height="2.538" transform="translate(92.894 107.407)" fill="#e0e0e0"/>
        <rect id="Rectangle_925" data-name="Rectangle 925" width="4.943" height="2.538" transform="translate(120.799 83.048)" fill="#358dc0"/>
        <rect id="Rectangle_926" data-name="Rectangle 926" width="4.943" height="2.538" transform="translate(120.799 87.907)" fill="#358dc0"/>
        <rect id="Rectangle_927" data-name="Rectangle 927" width="4.943" height="2.538" transform="translate(120.799 93.308)" fill="#358dc0"/>
        <rect id="Rectangle_928" data-name="Rectangle 928" width="6.851" height="2.538" transform="translate(118.808 101.819)" fill="#358dc0"/>
        <path id="Path_2396" data-name="Path 2396" d="M80.047,423.029H77.372l-3.232-18.913h3.928Z" transform="translate(-45.007 -245.321)" fill="#ae7461"/>
        <path id="Path_2397" data-name="Path 2397" d="M25.525,423.029H28.2l3.232-18.913H27.5Z" transform="translate(-15.495 -245.321)" fill="#ae7461"/>
        <path id="Path_2398" data-name="Path 2398" d="M194.458,423.029h-2.675l-3.232-18.913h3.928Z" transform="translate(-114.461 -245.321)" fill="#ae7461"/>
        <path id="Path_2399" data-name="Path 2399" d="M139.936,423.029h2.675l3.232-18.913h-3.928Z" transform="translate(-84.949 -245.321)" fill="#ae7461"/>
        <rect id="Rectangle_930" data-name="Rectangle 930" width="72.561" height="7.978" transform="translate(7.533 151.229)" fill="#358dc0"/>
        <path id="Path_2400" data-name="Path 2400" d="M108.494,357.495H63.538a3.512,3.512,0,0,1-3.511-3.511v-4.07a3.511,3.511,0,0,1,3.511-3.511h44.955a3.511,3.511,0,0,1,3.511,3.511v4.07a3.511,3.511,0,0,1-3.511,3.511" transform="translate(-36.44 -210.285)" fill="#358dc0"/>
        <path id="Path_2401" data-name="Path 2401" d="M174.262,351.945H152.3V330.3h18.114a3.849,3.849,0,0,1,3.848,3.849Z" transform="translate(-92.454 -200.508)" fill="#358dc0"/>
        <path id="Path_2402" data-name="Path 2402" d="M105.638,300.924h-40.1V271.486h34.943a5.153,5.153,0,0,1,5.153,5.153Z" transform="translate(-39.788 -164.807)" fill="#358dc0"/>
        <path id="Path_2403" data-name="Path 2403" d="M119,378.068l-44.863.042v-4.985H119Z" transform="translate(-45.007 -226.506)" fill="#358dc0"/>
        <path id="Path_2404" data-name="Path 2404" d="M65.418,300.924H19.171V273.5a2.019,2.019,0,0,1,2.019-2.018H65.418Z" transform="translate(-11.638 -164.807)" fill="#358dc0"/>
        <g id="Group_995" data-name="Group 995" transform="translate(7.533 106.679)" opacity="0.3">
          <g id="Group_994" data-name="Group 994">
            <g id="Group_993" data-name="Group 993" clip-path="url(#clip-path-4)">
              <path id="Path_2405" data-name="Path 2405" d="M27.5,300.924H22.246a3.075,3.075,0,0,1-3.075-3.075V273.487a2,2,0,0,1,2-2h9.4v26.363a3.075,3.075,0,0,1-3.075,3.075" transform="translate(-19.171 -271.486)"/>
            </g>
          </g>
        </g>
        <path id="Path_2406" data-name="Path 2406" d="M96.061,214.438l-2.233-12.475c-.587-3.78,1.123-7.273,4.919-7.755l.353-.024a6.839,6.839,0,0,1,7.23,5.809c.491,3.279.991,6.908,1.09,8.679A4.406,4.406,0,0,1,104,213.156c-.008,0,.221,2.221.341,3.291l-.613,2.838Z" transform="translate(-56.89 -117.87)" fill="#ffc09d"/>
        <path id="Path_2407" data-name="Path 2407" d="M112.358,240.843a8.867,8.867,0,0,1-4.865-1.084,4.558,4.558,0,0,0,4.967,2.1Z" transform="translate(-65.254 -145.547)" fill="#ff9b6c"/>
        <path id="Path_2408" data-name="Path 2408" d="M121.9,216.991a.524.524,0,0,1-.468.562.5.5,0,0,1-.571-.435.524.524,0,0,1,.468-.562.5.5,0,0,1,.572.435" transform="translate(-73.366 -131.458)" fill="#263238"/>
        <path id="Path_2409" data-name="Path 2409" d="M120.884,212.177c-.06.073-.476-.194-1.039-.154s-.956.349-1.022.284c-.032-.028.026-.156.2-.3a1.436,1.436,0,0,1,.812-.312,1.38,1.38,0,0,1,.833.207c.182.121.249.24.219.273" transform="translate(-72.127 -128.51)" fill="#263238"/>
        <path id="Path_2410" data-name="Path 2410" d="M109.413,217.956a.524.524,0,0,1-.468.562.5.5,0,0,1-.571-.435.524.524,0,0,1,.468-.562.5.5,0,0,1,.572.435" transform="translate(-65.787 -132.044)" fill="#263238"/>
        <path id="Path_2411" data-name="Path 2411" d="M106.868,213.467c-.061.073-.477-.193-1.039-.154s-.956.35-1.022.285c-.032-.029.025-.156.2-.3a1.441,1.441,0,0,1,.812-.312,1.387,1.387,0,0,1,.833.207c.182.121.249.24.219.273" transform="translate(-63.618 -129.293)" fill="#263238"/>
        <path id="Path_2412" data-name="Path 2412" d="M115.054,217.652a3.729,3.729,0,0,1,.9-.228c.143-.024.277-.062.294-.162a.729.729,0,0,0-.125-.42l-.5-1.065a18.822,18.822,0,0,1-1.15-2.8,18.888,18.888,0,0,1,1.372,2.7l.482,1.073a.833.833,0,0,1,.113.559.362.362,0,0,1-.222.226.965.965,0,0,1-.242.051,3.675,3.675,0,0,1-.926.064" transform="translate(-69.49 -129.29)" fill="#263238"/>
        <path id="Path_2413" data-name="Path 2413" d="M106.227,208.919c-.067.149-.623.035-1.289.066s-1.213.172-1.29.028c-.034-.068.069-.206.3-.338a2.244,2.244,0,0,1,1.965-.072c.235.116.349.245.319.316" transform="translate(-62.916 -126.517)" fill="#263238"/>
        <path id="Path_2414" data-name="Path 2414" d="M120.35,207.948c-.106.138-.575.043-1.126.083-.552.023-1.009.171-1.128.046-.052-.061.01-.194.2-.332a1.774,1.774,0,0,1,.9-.285,1.748,1.748,0,0,1,.919.182c.206.115.28.242.234.308" transform="translate(-71.68 -125.936)" fill="#263238"/>
        <path id="Path_2415" data-name="Path 2415" d="M91.594,220.433c-.064-.023-2.567-.573-2.316,1.926s3.151,1.794,3.151,1.794c0-.072-.834-3.72-.834-3.72" transform="translate(-54.186 -133.774)" fill="#ffc09d"/>
        <path id="Path_2416" data-name="Path 2416" d="M92.125,224.462c-.012-.007-.04.035-.111.076a.436.436,0,0,1-.325.039,1.082,1.082,0,0,1-.6-.916,1.448,1.448,0,0,1,.059-.635.507.507,0,0,1,.294-.367.223.223,0,0,1,.269.094c.04.066.029.117.043.121s.05-.047.019-.148a.279.279,0,0,0-.114-.147.329.329,0,0,0-.247-.039.614.614,0,0,0-.416.433,1.48,1.48,0,0,0-.081.711,1.136,1.136,0,0,0,.743,1.015.47.47,0,0,0,.391-.106c.071-.07.079-.126.07-.13" transform="translate(-55.186 -135.088)" fill="#ff9b6c"/>
        <path id="Path_2417" data-name="Path 2417" d="M104.814,191.735a.594.594,0,0,0-.312-.318,1.828,1.828,0,0,0-.95-.06,5.293,5.293,0,0,1-2.343-.349,2.624,2.624,0,0,0,.626-.538,1.575,1.575,0,0,0,.3-1.6.348.348,0,0,0-.219-.22c-.167-.034-.294.139-.395.277a1.357,1.357,0,0,1-1.218.663,2.23,2.23,0,0,1-.978-.187l-.035-.032c-.143-.121-.283-.237-.42-.349h0a8.312,8.312,0,0,0-2.769-1.66,8.533,8.533,0,0,0-4.567.09,3.447,3.447,0,0,0-2.329,2.924,2.65,2.65,0,0,0-2.678.012l-.023-.007a3.334,3.334,0,0,0-1.571,2.531c-.01.056-.018.112-.027.167a3.854,3.854,0,0,1-1.177,1.4c-.088.064-.189.141-.189.25s.1.187.191.241a1.937,1.937,0,0,0,.815.249,4.421,4.421,0,0,1-.254.711c-.091.2-.2.43-.085.613a.41.41,0,0,0,.446.144,1.207,1.207,0,0,0,.43-.248l-.248.807a2.3,2.3,0,0,0,1.046-.174c.3.9.619,2.6.918,3.2a3.823,3.823,0,0,1,1.164-.064c.446.1.357.883.9.61.276-.139.609-1.269.676-1.57a14.344,14.344,0,0,0,.024-6.1,4.612,4.612,0,0,1,1.316-1.162l-.039.044a4.175,4.175,0,0,1,3.124-.534,6.772,6.772,0,0,1,1.931,1.6,5.254,5.254,0,0,0,4.045,1.5c.252,1.089.472,2.889.627,3.913l.676-2.147,0,.008c.059-.128.106-.255.15-.382l.016-.039v0a6.45,6.45,0,0,1,.232-.614l.011.008a.646.646,0,0,0,.855-.953,1.447,1.447,0,0,0-.342-.282,1.022,1.022,0,0,0,.994.156.8.8,0,0,0,.487-.845.682.682,0,0,0-.458-.5,2.3,2.3,0,0,0,1.275-.416c.243-.172.472-.439.353-.754" transform="translate(-50.712 -113.574)" fill="#263238"/>
        <path id="Path_2418" data-name="Path 2418" d="M93.6,196.22a3.141,3.141,0,0,0-.334.372,2.634,2.634,0,0,0-.442,1.269,4.638,4.638,0,0,0,0,.939c.031.337.094.695.157,1.072a9.62,9.62,0,0,1,.145,1.2,4.235,4.235,0,0,1-.02.641,1.325,1.325,0,0,1-.2.639.555.555,0,0,1-.5.224.823.823,0,0,1-.49-.217,1.91,1.91,0,0,1-.444-.9l.078,0a3.084,3.084,0,0,1-.369.81,1.094,1.094,0,0,1-.674.457.708.708,0,0,1-.383-.029.612.612,0,0,1-.281-.227.632.632,0,0,1-.11-.317.458.458,0,0,1,.09-.3l.042.031a2.37,2.37,0,0,1-.727.667,2.192,2.192,0,0,1-.234.119.4.4,0,0,1-.085.03.481.481,0,0,1,.079-.043c.052-.028.13-.068.226-.129a2.442,2.442,0,0,0,.7-.673l.042.031a.471.471,0,0,0,.029.546.551.551,0,0,0,.253.2.642.642,0,0,0,.347.022,1.025,1.025,0,0,0,.624-.433,3.04,3.04,0,0,0,.355-.792l.041-.123.037.124a1.838,1.838,0,0,0,.423.855.742.742,0,0,0,.439.194.467.467,0,0,0,.424-.19,1.257,1.257,0,0,0,.182-.6,4.21,4.21,0,0,0,.021-.628,9.8,9.8,0,0,0-.139-1.187c-.061-.378-.121-.737-.15-1.079a4.618,4.618,0,0,1,.013-.952,2.6,2.6,0,0,1,.475-1.282,1.491,1.491,0,0,1,.361-.352" transform="translate(-53.921 -119.116)" fill="#455a64"/>
        <path id="Path_2419" data-name="Path 2419" d="M112.792,195.161s-.008.011-.027.028l-.084.075a1.217,1.217,0,0,1-.145.115,1.954,1.954,0,0,1-.211.139,3.261,3.261,0,0,1-1.538.435,4.163,4.163,0,0,1-2.287-.6,7.211,7.211,0,0,1-2.111-2c-.309-.417-.571-.849-.851-1.245a4.873,4.873,0,0,0-.927-1.033,2.514,2.514,0,0,0-1.117-.536,1.8,1.8,0,0,0-.562-.009,2,2,0,0,0-.5.148,2.129,2.129,0,0,0-1.077,1.11,2.56,2.56,0,0,0-.135.567.114.114,0,0,1,0-.039c0-.031,0-.068.006-.114a1.848,1.848,0,0,1,.1-.426,2.084,2.084,0,0,1,.355-.6,2.15,2.15,0,0,1,.728-.558,2.017,2.017,0,0,1,.515-.158,1.858,1.858,0,0,1,.584,0,2.57,2.57,0,0,1,1.154.544,4.908,4.908,0,0,1,.946,1.046c.283.4.545.83.852,1.243a7.21,7.21,0,0,0,2.082,1.981,4.138,4.138,0,0,0,2.245.606,3.308,3.308,0,0,0,1.523-.4,5.159,5.159,0,0,0,.484-.328" transform="translate(-61.446 -115.612)" fill="#455a64"/>
        <path id="Path_2420" data-name="Path 2420" d="M125.147,198.269a.572.572,0,0,1-.122.1,2.769,2.769,0,0,1-.369.235,3.759,3.759,0,0,1-.595.262,4.007,4.007,0,0,1-1.573.206,3.816,3.816,0,0,1-.642-.1,2.855,2.855,0,0,1-.417-.133.573.573,0,0,1-.145-.069c.006-.015.218.069.575.143a4.346,4.346,0,0,0,.634.081,4.281,4.281,0,0,0,1.543-.2,4.368,4.368,0,0,0,.592-.241c.326-.163.51-.3.519-.286" transform="translate(-73.626 -120.359)" fill="#455a64"/>
        <path id="Path_2421" data-name="Path 2421" d="M112.806,227.77c-.039-.087-.6.205-1.254-.069s-.9-.907-.982-.87c-.039.011-.04.191.085.448a1.583,1.583,0,0,0,.788.743,1.378,1.378,0,0,0,1.033.022c.247-.1.354-.237.33-.273" transform="translate(-67.107 -137.698)" fill="#263238"/>
        <path id="Path_2422" data-name="Path 2422" d="M195.669,365.931l4.833,6.453s8.183-2.745,9.192-1.64l-12.175,9.82-7.943-9.746Z" transform="translate(-115.082 -222.14)" fill="#263238"/>
        <path id="Path_2423" data-name="Path 2423" d="M206.547,388.369a.639.639,0,0,0,.114.845.614.614,0,0,0,.838-.106.674.674,0,0,0-.125-.894.637.637,0,0,0-.86.207" transform="translate(-125.318 -235.616)" fill="#e0e0e0"/>
        <path id="Path_2424" data-name="Path 2424" d="M208.61,387.573l-.762-1.014,11.959-9.037s.732-.2.979.23Z" transform="translate(-126.175 -229.148)" fill="#455a64"/>
        <path id="Path_2425" data-name="Path 2425" d="M216.689,381.773c.046.061-.229.328-.368.755s-.093.8-.166.823-.262-.394-.086-.908.589-.734.62-.67" transform="translate(-131.122 -231.75)" fill="#fff"/>
        <path id="Path_2426" data-name="Path 2426" d="M221.5,380.5c.06.047-.116.356-.115.77s.157.727.1.773-.37-.26-.362-.776.334-.822.381-.767" transform="translate(-134.233 -230.982)" fill="#fff"/>
        <path id="Path_2427" data-name="Path 2427" d="M226.282,380.755c-.044.056-.366-.174-.476-.623s.063-.8.128-.773.033.342.129.709.273.633.218.687" transform="translate(-137.054 -230.29)" fill="#fff"/>
        <path id="Path_2428" data-name="Path 2428" d="M212.644,378.313c.019.074-.32.212-.638.506s-.494.611-.566.585.009-.441.388-.782.807-.38.816-.309" transform="translate(-128.342 -229.638)" fill="#fff"/>
        <path id="Path_2429" data-name="Path 2429" d="M165.384,421.861l-.306,8.057s8.086,3.017,8.174,4.511L157.61,434.4l-.038-12.572Z" transform="translate(-95.655 -256.07)" fill="#263238"/>
        <path id="Path_2430" data-name="Path 2430" d="M163.662,440.631a.639.639,0,0,0-.443.728.614.614,0,0,0,.718.446.674.674,0,0,0,.465-.774.637.637,0,0,0-.8-.38" transform="translate(-99.074 -267.471)" fill="#e0e0e0"/>
        <path id="Path_2431" data-name="Path 2431" d="M157.668,451.861l.046-1.268,14.98.506s.7.3.616.794Z" transform="translate(-95.713 -273.534)" fill="#455a64"/>
        <path id="Path_2432" data-name="Path 2432" d="M175.114,442.11c0,.076-.385.11-.761.355s-.577.565-.647.535c-.07-.015.044-.471.505-.76s.92-.2.9-.13" transform="translate(-105.437 -268.342)" fill="#fff"/>
        <path id="Path_2433" data-name="Path 2433" d="M179.885,443.908c.017.074-.314.2-.574.526s-.336.664-.412.661c-.072.012-.123-.436.207-.83s.777-.429.778-.356" transform="translate(-108.569 -269.457)" fill="#fff"/>
        <path id="Path_2434" data-name="Path 2434" d="M183.71,446.924c-.07.016-.175-.366.022-.784s.554-.583.587-.52-.189.287-.346.632-.187.664-.263.671" transform="translate(-111.467 -270.508)" fill="#fff"/>
        <path id="Path_2435" data-name="Path 2435" d="M174.465,437.1c-.032.069-.382-.037-.814-.008s-.769.164-.808.1.285-.337.794-.363.866.214.829.274" transform="translate(-104.923 -265.177)" fill="#fff"/>
        <path id="Path_2436" data-name="Path 2436" d="M90.974,317.044c.2-.064,7.322-3.186,13.174-5.594a49.779,49.779,0,0,1,8.734-2.46s5.943-3.459,8.2-.315,18.263,25.058,18.15,25.4-7.767,7.133-7.767,7.133-16.492-21-16.83-20.887-7.964,6.084-7.964,6.084-2.29,2.366-3.98,2.592-11.579-.559-11.579-.559l-3.745-10.151Z" transform="translate(-53.035 -186.581)" fill="#263238"/>
        <path id="Path_2437" data-name="Path 2437" d="M117.958,345.912c.354.236,4.111,2.869,4.111,2.869l8.5,1.964,1.732,27.919,10.159-.363s.014-20.13.014-24.845-.118-9.076-1.532-10.608-7.739-2.5-7.739-2.5Z" transform="translate(-71.607 -206.607)" fill="#263238"/>
        <path id="Path_2438" data-name="Path 2438" d="M148.926,351.868a1.987,1.987,0,0,1-.014-.331c0-.237-.006-.552-.011-.947-.013-.822-.034-2.013-.133-3.478-.057-.732-.129-1.533-.268-2.383l-.123-.643c-.058-.213-.1-.434-.173-.65a2.554,2.554,0,0,0-.677-1.169,8.672,8.672,0,0,0-2.678-1.34,31.4,31.4,0,0,0-3.149-.861c-.572-.127-1.14-.242-1.676-.336l.083-.022-8.151,6.371-2.441,1.88-.666.5a1.553,1.553,0,0,1-.24.163,1.564,1.564,0,0,1,.215-.195l.642-.53,2.4-1.932,8.108-6.425.037-.029.047.008c.543.094,1.112.21,1.688.337a30.746,30.746,0,0,1,3.17.871,8.758,8.758,0,0,1,2.743,1.392,2.739,2.739,0,0,1,.725,1.259c.069.224.115.449.172.667l.119.654c.132.86.2,1.666.244,2.4.08,1.472.078,2.665.065,3.489-.007.412-.018.731-.029.948a1.793,1.793,0,0,1-.029.33" transform="translate(-78.072 -206.102)" fill="#455a64"/>
        <path id="Path_2439" data-name="Path 2439" d="M96.518,242.222l.621-3.151L104,242.927l1.58-2.061.159.638,6.82,11.618,4.344,14.042-18.625,7.614-2.034-11.464Z" transform="translate(-58.424 -145.129)" fill="#fafafa"/>
        <path id="Path_2440" data-name="Path 2440" d="M123.047,272.8a.959.959,0,0,1-.052-.229c-.028-.175-.063-.395-.106-.663-.084-.577-.221-1.409-.407-2.435a67.21,67.21,0,0,0-4.79-15.516c-.424-.951-.781-1.716-1.036-2.24l-.286-.608a.972.972,0,0,1-.087-.219.964.964,0,0,1,.125.2l.322.59c.279.513.657,1.269,1.1,2.215a59.849,59.849,0,0,1,4.8,15.553c.167,1.031.281,1.868.34,2.45l.067.669a.976.976,0,0,1,.009.235" transform="translate(-70.59 -152.302)" fill="#263238"/>
        <path id="Path_2441" data-name="Path 2441" d="M107.642,248.475a1.714,1.714,0,0,1-.236.333l-.709.877-.044.054-.054-.048-1.711-1.516.158-.044-.624,2.182-.035.123-.115-.057-.5-.245c-1.644-.814-3.128-1.561-4.2-2.111l-1.261-.662a2.43,2.43,0,0,1-.449-.269,2.47,2.47,0,0,1,.486.194l1.291.6c1.086.516,2.58,1.241,4.225,2.055l.5.246-.15.066.642-2.176.044-.151.114.106,1.673,1.559-.1.006.757-.837a1.71,1.71,0,0,1,.292-.285" transform="translate(-59.412 -149.997)" fill="#263238"/>
        <g id="Group_998" data-name="Group 998" transform="translate(38.075 128.553)" opacity="0.3">
          <g id="Group_997" data-name="Group 997">
            <g id="Group_996" data-name="Group 996" clip-path="url(#clip-path-5)">
              <path id="Path_2442" data-name="Path 2442" d="M96.9,340.451l1.777.134,2.571-13.434a28.62,28.62,0,0,0-2.874,1.921c-.072.215-1.474,11.38-1.474,11.38" transform="translate(-96.895 -327.151)"/>
            </g>
          </g>
        </g>
        <path id="Path_2443" data-name="Path 2443" d="M84.334,242.4l-1.077,1.99-5.875,3.164,1.928,21.737s-3.736,10.6-3.736,15.291,1.042,6.951,2.259,7.559,5.908-1.651,5.908-1.651a48.382,48.382,0,0,1,3.231-9.034C89.7,275.19,92.6,268.336,92.6,268.336s.869-3.388-1.129-9.557S84.334,242.4,84.334,242.4" transform="translate(-45.877 -147.151)" fill="#455a64"/>
        <path id="Path_2444" data-name="Path 2444" d="M162.319,257.951a28.927,28.927,0,0,1,.051-3.824l.005-.017a3.024,3.024,0,0,1,2.059-1.826,1.192,1.192,0,0,1,.95.091,6.01,6.01,0,0,1,.385,1.383l4.373-.808s-2.584,4.034-3.314,5.115a12,12,0,0,1-1.485,1.8l-4.83,11.507-1.96-6.554Z" transform="translate(-96.252 -153.123)" fill="#ffc09d"/>
        <path id="Path_2445" data-name="Path 2445" d="M181.683,235.058c-1.091,2.082-4.762,9.221-5.81,11.261a.652.652,0,0,1-1.159-.6l5.791-11.274a.663.663,0,1,1,1.178.61" transform="translate(-106.017 -142.104)" fill="#263238"/>
        <path id="Path_2446" data-name="Path 2446" d="M178.617,244.183c.105.017.531-.094.592.4s-.017,2.186-.26,2.3l-.62.281s.224,1.068-.029,1.443a2.277,2.277,0,0,1-.725.622,2.852,2.852,0,0,1-.286,1.234,10.258,10.258,0,0,1-.883.92s-.171,1.416-.833,1.678a1.93,1.93,0,0,0-.811.47l-.208-.853s-1.794-1.235-2.156-1.461-.529-.736-.175-.961,2.679.964,2.679.964l.842-.869-.5-.958s-1.025-1.114-1-1.352a.9.9,0,0,1,.87-.589,5.108,5.108,0,0,1,1.436.942.241.241,0,0,0,.439.025l.061-.117s-.356-1.11-.545-1.936c-.05-.219.022-.6.234-.694.426-.191.783-.209,1.013.2Z" transform="translate(-104.429 -148.232)" fill="#ffc09d"/>
        <path id="Path_2447" data-name="Path 2447" d="M171.037,254.253a1.612,1.612,0,0,0,.528.035l-.063-.046a2.2,2.2,0,0,0,.281.783.934.934,0,0,0,.42.354.716.716,0,0,0,.617-.011.744.744,0,0,0,.327-.432,2.3,2.3,0,0,0,.088-.459,3.452,3.452,0,0,0-.005-.774,1.51,1.51,0,0,0-.19-.682c-.031.008.032.269.05.694a4.2,4.2,0,0,1-.037.74c-.04.268-.092.6-.328.738a.533.533,0,0,1-.447.005.767.767,0,0,1-.346-.276,2.489,2.489,0,0,1-.308-.712l-.017-.051-.046,0a1.628,1.628,0,0,0-.521.089" transform="translate(-103.829 -153.597)" fill="#ff9b6c"/>
        <path id="Path_2448" data-name="Path 2448" d="M174.325,261.855a4.849,4.849,0,0,0-.774-.609l-.871-.616-.511-.355a.82.82,0,0,1-.316-.487c-.031-.173.161-.3.337-.275a2.627,2.627,0,0,1,.586.134c.375.124.707.265.986.382a6.482,6.482,0,0,0,.91.369,3.836,3.836,0,0,0-.852-.5,9.374,9.374,0,0,0-.986-.428,2.646,2.646,0,0,0-.635-.156.527.527,0,0,0-.378.1.418.418,0,0,0-.168.387.986.986,0,0,0,.4.622l.529.354.894.58a4.82,4.82,0,0,0,.853.492" transform="translate(-104.201 -157.417)" fill="#ff9b6c"/>
        <path id="Path_2449" data-name="Path 2449" d="M184.278,256.058c.052-.009.015-.371-.22-.741s-.544-.56-.575-.517.194.284.406.623.333.648.389.634" transform="translate(-111.382 -154.674)" fill="#ff9b6c"/>
        <path id="Path_2450" data-name="Path 2450" d="M186.209,247.983c-.053.027.113.389.346.8s.36.767.415.754a1.322,1.322,0,0,0-.24-.85c-.24-.424-.476-.728-.521-.7" transform="translate(-113.033 -150.538)" fill="#ff9b6c"/>
        <path id="Path_2451" data-name="Path 2451" d="M145.558,259.909c-.174.26-2.767,4.752-2.767,4.752s-5.927-13.542-7.975-13.757c-2.119-.223-.477,5.864-.477,5.864l5.092,15.541s3.579,1.108,5.577-.2,6.5-10.28,6.5-10.28Z" transform="translate(-81.183 -152.309)" fill="#455a64"/>
        <path id="Path_2452" data-name="Path 2452" d="M120.395,245.015s4.916,9.6,6.324,14.679c.924,3.335,2.234,12.355,2.234,12.355l4.049-.9-3.459-12.09-2.824-11.73-4.373-.866Z" transform="translate(-73.086 -148.737)" fill="#455a64"/>
        <path id="Path_2453" data-name="Path 2453" d="M103.082,269.82a1.112,1.112,0,0,1-.123-.2l-.323-.6-1.158-2.244-3.76-7.445c-.725-1.461-1.437-2.835-2.03-4.131a14.82,14.82,0,0,1-1.193-3.645,8.618,8.618,0,0,1-.068-2.632,6.021,6.021,0,0,1,.138-.7,1.222,1.222,0,0,1,.076-.234c.018.006-.079.332-.144.945a9.031,9.031,0,0,0,.124,2.59,15.067,15.067,0,0,0,1.214,3.582c.6,1.28,1.316,2.656,2.04,4.116l3.714,7.477,1.108,2.279.294.625a1.191,1.191,0,0,1,.092.226" transform="translate(-57.28 -150.538)" fill="#263238"/>
        <path id="Path_2454" data-name="Path 2454" d="M140.482,258.608a.778.778,0,0,1,.085.191l.2.562c.17.491.394,1.208.645,2.1.5,1.789,1.036,4.3,1.5,7.091.229,1.395.448,2.722.648,3.935.1.6.2,1.177.286,1.716a11.944,11.944,0,0,0,.366,1.459c.277.881.539,1.586.7,2.081.079.247.137.441.171.573a.744.744,0,0,1,.041.205.787.787,0,0,1-.083-.192l-.209-.558c-.18-.486-.463-1.18-.76-2.062a11.415,11.415,0,0,1-.4-1.474c-.1-.539-.2-1.112-.306-1.714-.205-1.212-.429-2.538-.664-3.932-.465-2.788-.979-5.294-1.437-7.088-.231-.9-.433-1.618-.578-2.115l-.165-.574a.776.776,0,0,1-.044-.2" transform="translate(-85.279 -156.989)" fill="#263238"/>
        <path id="Path_2455" data-name="Path 2455" d="M125.361,248.709a.863.863,0,0,1,.2.1,5.568,5.568,0,0,1,.523.362,13.855,13.855,0,0,1,1.691,1.606c.33.365.681.776,1.028,1.243s.67,1,1,1.556a21.253,21.253,0,0,1,1.806,3.831,19.863,19.863,0,0,1,1.044,4.106,13.889,13.889,0,0,1,.009,3.461,16.45,16.45,0,0,1-.438,2.29c-.07.266-.132.47-.177.608a.84.84,0,0,1-.08.207.869.869,0,0,1,.038-.218c.037-.165.082-.368.138-.616a19.912,19.912,0,0,0,.368-2.287,14.342,14.342,0,0,0-.054-3.418,20.42,20.42,0,0,0-1.05-4.061,21.983,21.983,0,0,0-1.774-3.8c-.326-.558-.644-1.087-.977-1.551s-.677-.878-1-1.247a16.143,16.143,0,0,0-1.63-1.642c-.417-.354-.677-.51-.668-.526" transform="translate(-76.101 -150.979)" fill="#263238"/>
        <path id="Path_2456" data-name="Path 2456" d="M83.3,338.781a.786.786,0,0,1,.077.227,6.7,6.7,0,0,1,.136.663,8.953,8.953,0,0,1,.038,2.427l-.011.093-.095-.016a34.028,34.028,0,0,0-3.9-.435,33.519,33.519,0,0,0-4.033.033l-.2.013.117-.155,1.411-1.864a5.6,5.6,0,0,1,.562-.681,5.55,5.55,0,0,1-.479.741l-1.35,1.909L75.5,341.6a29.135,29.135,0,0,1,4.058-.07,29.618,29.618,0,0,1,3.921.472l-.105.077a9.935,9.935,0,0,0,.037-2.39c-.061-.575-.132-.9-.11-.9" transform="translate(-45.721 -205.658)" fill="#263238"/>
        <path id="Path_2457" data-name="Path 2457" d="M73.523,255.518s-3.64,2.427-4.124,5.2c-.652,3.738.637,16.831.978,19.807s2.3,5.61,4.335,5.781,18.191-5.7,18.191-5.7l-1.615-5.95-11.731,2.38-1.19-13.771Z" transform="translate(-42.019 -155.113)" fill="#455a64"/>
        <path id="Path_2458" data-name="Path 2458" d="M81.871,279.71l1.039,12.017,11.731-2.38,1.615,5.95s-12.346,4.88-14.078,5.1-6.427,1.1-7.438-2.042" transform="translate(-45.371 -169.799)" fill="#455a64"/>
        <path id="Path_2459" data-name="Path 2459" d="M138.761,283.647l5.39.582a.371.371,0,0,1,.329.409l-.962,8.915a.372.372,0,0,1-.409.329l-5.39-.582a.371.371,0,0,1-.33-.409l.962-8.914a.372.372,0,0,1,.409-.33" transform="translate(-83.402 -172.188)" fill="#ff725e"/>
        <path id="Path_2460" data-name="Path 2460" d="M138.611,283.633a.439.439,0,0,0-.277.112.444.444,0,0,0-.114.336q-.021.232-.047.521c-.079.805-.189,1.933-.325,3.318-.145,1.407-.317,3.071-.508,4.918a.291.291,0,0,0,.312.359l.719.076,1.482.157,3.116.334a.27.27,0,0,0,.25-.115.279.279,0,0,0,.047-.139l.021-.2.085-.786q.085-.78.167-1.536l.319-2.9c.1-.924.2-1.8.293-2.626l.068-.606c.009-.094.027-.209.029-.283a.289.289,0,0,0-.091-.2.319.319,0,0,0-.213-.084l-.277-.031-.537-.061-3.311-.391-.9-.117a1.782,1.782,0,0,1-.312-.055,1.831,1.831,0,0,1,.316.013l.9.078,3.317.325.538.054.278.028a.481.481,0,0,1,.306.123.454.454,0,0,1,.145.314c0,.121-.018.2-.026.307l-.062.607c-.086.824-.178,1.7-.274,2.628s-.2,1.9-.307,2.9q-.081.755-.164,1.536l-.084.786-.022.2a.494.494,0,0,1-.082.234.479.479,0,0,1-.444.2l-3.116-.338-1.482-.162-.718-.079a.512.512,0,0,1-.379-.171.489.489,0,0,1-.1-.4l.552-4.913.391-3.311q.036-.288.066-.519a.483.483,0,0,1,.147-.361.316.316,0,0,1,.305-.081" transform="translate(-83.252 -172.174)" fill="#263238"/>
        <rect id="Rectangle_933" data-name="Rectangle 933" width="1.144" height="0.644" transform="matrix(0.107, -0.994, 0.994, 0.107, 58.565, 116.807)" fill="#fff"/>
        <rect id="Rectangle_934" data-name="Rectangle 934" width="1.144" height="0.644" transform="matrix(0.107, -0.994, 0.994, 0.107, 58.744, 115.145)" fill="#fff"/>
        <rect id="Rectangle_935" data-name="Rectangle 935" width="1.144" height="0.644" transform="matrix(0.107, -0.994, 0.994, 0.107, 58.385, 118.468)" fill="#fff"/>
        <rect id="Rectangle_936" data-name="Rectangle 936" width="1.144" height="0.644" transform="matrix(0.107, -0.994, 0.994, 0.107, 58.199, 120.104)" fill="#fff"/>
        <path id="Path_2461" data-name="Path 2461" d="M74.738,298.352a.542.542,0,0,1,.055.1l.144.312a2.919,2.919,0,0,0,.842,1,4.179,4.179,0,0,0,1.937.745,11.353,11.353,0,0,0,2.8.014c.521-.05,1.063-.132,1.634-.208a13.641,13.641,0,0,0,1.71-.481c1.176-.39,2.426-.844,3.744-1.331,2.635-.978,5.539-2.1,8.61-3.308l-.064.127c-.285-1.052-.587-2.16-.892-3.285l-.723-2.666.124.077-11.734,2.363-.1.02-.008-.1c-.3-3.615-.543-6.616-.716-8.729-.079-1.039-.142-1.859-.186-2.434-.018-.271-.032-.483-.042-.641a1.276,1.276,0,0,1-.005-.22,1.307,1.307,0,0,1,.033.218c.017.157.04.369.068.639l.235,2.43L83,291.719l-.107-.08,11.727-2.4.1-.02.026.1.724,2.665.891,3.285.025.092-.088.035c-3.074,1.207-5.981,2.32-8.623,3.288-1.321.482-2.575.93-3.758,1.314a13.4,13.4,0,0,1-1.743.476c-.568.072-1.115.15-1.639.2a11.31,11.31,0,0,1-2.831-.046,4.209,4.209,0,0,1-1.966-.794,2.849,2.849,0,0,1-.831-1.042l-.127-.323a.507.507,0,0,1-.037-.112" transform="translate(-45.37 -169.799)" fill="#263238"/>
        <path id="Path_2462" data-name="Path 2462" d="M74.661,261.637a2.951,2.951,0,0,1,1.047,0,6.33,6.33,0,0,1,4.26,2.535,2.947,2.947,0,0,1,.5.918c-.033.018-.224-.332-.623-.826a7.011,7.011,0,0,0-4.162-2.477c-.625-.115-1.024-.116-1.024-.153" transform="translate(-45.323 -158.805)" fill="#263238"/>
        <path id="Path_2463" data-name="Path 2463" d="M126.034,297.577s3.765-3.657,4.436-4.4,4.7-.936,5.3-.666.519,1.1.154,1.224a30.42,30.42,0,0,0-3.221.238c-.672.259,1.719.182,2.694.909s.433,1.2.061,1.231c0,0,.524.464.11.909a.792.792,0,0,1-.88.239s.66.285.4.829-1.173.318-1.173.318a6.669,6.669,0,0,0-1.684-.446c-.236.094-.974,1.277-1.782,1.949a3.346,3.346,0,0,1-2.611.6l-.817.731c-.266-.875-.993-3.658-.993-3.658" transform="translate(-76.509 -177.497)" fill="#ffc09d"/>
        <rect id="Rectangle_937" data-name="Rectangle 937" width="0.886" height="0.965" transform="matrix(0.107, -0.994, 0.994, 0.107, 56.138, 113.613)" fill="#fff"/>
        <path id="Path_2464" data-name="Path 2464" d="M48.112,352.111H19.171V330.3H46.118c1.028,0,1.861.426,1.861.951Z" transform="translate(-11.638 -200.508)" fill="#358dc0"/>
        <g id="Group_1001" data-name="Group 1001" transform="translate(7.533 129.789)" opacity="0.3">
          <g id="Group_1000" data-name="Group 1000">
            <g id="Group_999" data-name="Group 999" clip-path="url(#clip-path-6)">
              <path id="Path_2465" data-name="Path 2465" d="M35.978,359.716H19.172V330.3l16.715.043Z" transform="translate(-19.172 -330.297)"/>
            </g>
          </g>
        </g>
        <path id="Path_2466" data-name="Path 2466" d="M47.019,330.218c0,.057-5.5.1-12.294.1s-12.3-.047-12.3-.1,5.5-.1,12.3-.1,12.294.047,12.294.1" transform="translate(-13.616 -200.397)" fill="#263238"/>
        <path id="Path_2467" data-name="Path 2467" d="M92.284,368.2c-.057,0-.1-5.392-.1-12.041s.047-12.042.1-12.042.1,5.39.1,12.042-.046,12.041-.1,12.041" transform="translate(-55.958 -208.898)" fill="#263238"/>
        <path id="Path_2468" data-name="Path 2468" d="M116.367,385.375c0,.057-5.293.1-11.821.1s-11.822-.047-11.822-.1,5.292-.1,11.822-.1,11.821.047,11.821.1" transform="translate(-56.289 -233.88)" fill="#263238"/>
      </g>
    </g>
  </g>
</svg>
