<svg id="Group_2677" data-name="Group 2677" xmlns="http://www.w3.org/2000/svg" xmlns:xlink="http://www.w3.org/1999/xlink" width="142" height="142" viewBox="0 0 142 142">
  <defs>
    <clipPath id="clip-path">
      <rect id="Rectangle_2304" data-name="Rectangle 2304" width="142" height="142" fill="none"/>
    </clipPath>
    <clipPath id="clip-path-4">
      <rect id="Rectangle_2292" data-name="Rectangle 2292" width="13.606" height="16.485" fill="none"/>
    </clipPath>
    <clipPath id="clip-path-6">
      <rect id="Rectangle_2295" data-name="Rectangle 2295" width="7.358" height="13.494" fill="none"/>
    </clipPath>
    <clipPath id="clip-path-7">
      <rect id="Rectangle_2296" data-name="Rectangle 2296" width="15.507" height="5.696" fill="none"/>
    </clipPath>
    <clipPath id="clip-path-8">
      <rect id="Rectangle_2297" data-name="Rectangle 2297" width="5.991" height="7.644" fill="none"/>
    </clipPath>
    <clipPath id="clip-path-11">
      <rect id="Rectangle_2300" data-name="Rectangle 2300" width="8.521" height="3.96" fill="none"/>
    </clipPath>
    <clipPath id="clip-path-12">
      <rect id="Rectangle_2301" data-name="Rectangle 2301" width="1.846" height="1.835" fill="none"/>
    </clipPath>
  </defs>
  <g id="Group_2676" data-name="Group 2676" clip-path="url(#clip-path)">
    <g id="Group_2647" data-name="Group 2647">
      <g id="Group_2646" data-name="Group 2646" clip-path="url(#clip-path)">
        <path id="Path_5674" data-name="Path 5674" d="M30.733,305.511H20.4a1.445,1.445,0,0,1-1.449-1.44V293.79a1.445,1.445,0,0,1,1.449-1.44H30.733a1.444,1.444,0,0,1,1.448,1.44v10.28a1.444,1.444,0,0,1-1.448,1.44" transform="translate(-12.812 -198.212)" fill="#ebebeb"/>
        <path id="Path_5675" data-name="Path 5675" d="M22.382,313.789l-.248-.208,2.676-3.161a.938.938,0,0,1,1.284-.226l1.605,1.064,1.878-2.36a.943.943,0,0,1,.7-.355.93.93,0,0,1,.729.3l2.29,2.462-.238.219-2.29-2.462a.613.613,0,0,0-.479-.2.621.621,0,0,0-.462.234l-2.063,2.593-1.853-1.229a.619.619,0,0,0-.849.155Z" transform="translate(-14.967 -209.189)" fill="#fff"/>
        <path id="Path_5676" data-name="Path 5676" d="M34.441,300.484a1.183,1.183,0,1,1-1.183-1.177,1.18,1.18,0,0,1,1.183,1.177" transform="translate(-21.689 -202.928)" fill="#fff"/>
        <path id="Path_5677" data-name="Path 5677" d="M365.335,136.992a4.827,4.827,0,0,1-.124-1.09,8.913,8.913,0,0,0-.147-1.309,12.761,12.761,0,0,0-.346-1.758,16.42,16.42,0,0,0-1.836-4.524,16.969,16.969,0,0,0-20.117-7.56,15.824,15.824,0,0,0-4.3,2.18,15.336,15.336,0,0,0-3.627,3.463,16.554,16.554,0,0,0-.482,19.71,15.3,15.3,0,0,0,3.454,3.635A15.816,15.816,0,0,0,342,152.124a17.019,17.019,0,0,0,20.464-6.581,16.443,16.443,0,0,0,2.054-4.43,12.733,12.733,0,0,0,.431-1.739,8.882,8.882,0,0,0,.21-1.3,4.843,4.843,0,0,1,.177-1.082,4.756,4.756,0,0,1,.013,1.1,7.631,7.631,0,0,1-.123,1.329,11.853,11.853,0,0,1-.354,1.791,16.089,16.089,0,0,1-1.961,4.612,17.217,17.217,0,0,1-4.517,4.895,17.412,17.412,0,0,1-7.458,3.153,17.724,17.724,0,0,1-9.255-.938,16.6,16.6,0,0,1-4.425-2.484,16.132,16.132,0,0,1-3.659-3.816,17.394,17.394,0,0,1,.509-20.8,16.135,16.135,0,0,1,3.841-3.634,16.614,16.614,0,0,1,4.54-2.267,17.726,17.726,0,0,1,9.289-.49,17.4,17.4,0,0,1,7.3,3.509,17.2,17.2,0,0,1,4.273,5.107,16.075,16.075,0,0,1,1.734,4.7,11.851,11.851,0,0,1,.266,1.807,7.621,7.621,0,0,1,.058,1.334,4.744,4.744,0,0,1-.066,1.1" transform="translate(-223.409 -80.71)" fill="#ebebeb"/>
        <path id="Path_5678" data-name="Path 5678" d="M371.155,140.137c.038.053-.273.322-.873.766l-1.109.791c-.22.15-.45.319-.706.479l-.849.441a19.538,19.538,0,0,1-10.133,2.538l-1.534-.068-1.472-.229c-.241-.041-.481-.072-.715-.119l-.687-.182c-.452-.125-.9-.231-1.325-.366a22.263,22.263,0,0,1-4.3-1.97c-2.31-1.389-3.434-2.652-3.347-2.734.093-.106,1.349.952,3.675,2.153a25.96,25.96,0,0,0,4.232,1.722c.412.119.844.209,1.278.321l.661.163.685.1,1.407.206,1.462.059a21.079,21.079,0,0,0,9.812-2.191l.859-.371c.261-.136.5-.282.727-.407l1.176-.645c.654-.344,1.037-.511,1.075-.459" transform="translate(-232.677 -94.564)" fill="#ebebeb"/>
        <path id="Path_5679" data-name="Path 5679" d="M342.486,195.667c-.038-.053.273-.322.873-.766l1.109-.791c.22-.15.45-.319.706-.479l.849-.441a19.538,19.538,0,0,1,10.133-2.538l1.534.068,1.472.229c.241.041.481.072.715.119l.687.182c.452.125.9.231,1.325.366a22.222,22.222,0,0,1,4.3,1.97c2.31,1.389,3.434,2.652,3.347,2.734-.093.106-1.348-.952-3.675-2.153a26.016,26.016,0,0,0-4.232-1.722c-.412-.119-.844-.209-1.278-.32l-.661-.163-.686-.1-1.407-.206-1.462-.059a21.078,21.078,0,0,0-9.812,2.191l-.859.371c-.261.136-.5.282-.727.407l-1.176.645c-.654.344-1.037.511-1.075.459" transform="translate(-231.583 -129.255)" fill="#ebebeb"/>
        <path id="Path_5680" data-name="Path 5680" d="M366.3,173.82c-.006.26-7.727.285-17.243.055s-17.228-.627-17.222-.887,7.726-.285,17.245-.055,17.226.627,17.22.887" transform="translate(-224.382 -117.141)" fill="#ebebeb"/>
        <path id="Path_5681" data-name="Path 5681" d="M382.152,154.522c-.262-.006-.287-7.682-.055-17.141s.63-17.127.892-17.12.286,7.68.055,17.143-.63,17.125-.892,17.118" transform="translate(-258.262 -81.536)" fill="#ebebeb"/>
        <path id="Path_5682" data-name="Path 5682" d="M364.7,154.475c-.065.1-1.964-1.18-4.155-4.079a23.011,23.011,0,0,1-3.08-5.562,20.561,20.561,0,0,1-1.334-7.68,19.567,19.567,0,0,1,1.74-7.6,23.8,23.8,0,0,1,3.366-5.391c2.321-2.789,4.235-4.025,4.3-3.926.093.107-1.641,1.51-3.772,4.337a25.625,25.625,0,0,0-3.093,5.325,19.655,19.655,0,0,0-1.594,7.275,20.766,20.766,0,0,0,1.206,7.363,24.678,24.678,0,0,0,2.807,5.475c2,2.921,3.7,4.361,3.609,4.465" transform="translate(-240.806 -81.515)" fill="#ebebeb"/>
        <path id="Path_5683" data-name="Path 5683" d="M384.621,120.264c.065-.1,1.964,1.181,4.155,4.079a23.011,23.011,0,0,1,3.081,5.562,20.567,20.567,0,0,1,1.333,7.68,19.567,19.567,0,0,1-1.74,7.6,23.8,23.8,0,0,1-3.366,5.391c-2.321,2.789-4.235,4.026-4.3,3.926-.093-.107,1.641-1.51,3.772-4.337a25.639,25.639,0,0,0,3.092-5.325,19.655,19.655,0,0,0,1.594-7.275,20.765,20.765,0,0,0-1.206-7.363,24.693,24.693,0,0,0-2.807-5.475c-2-2.921-3.705-4.361-3.609-4.465" transform="translate(-259.508 -81.534)" fill="#ebebeb"/>
        <path id="Path_5684" data-name="Path 5684" d="M368.044,18.973H352.657a.773.773,0,1,1,0-1.545h15.387a.773.773,0,1,1,0,1.545" transform="translate(-237.937 -11.816)" fill="#e0e0e0"/>
        <path id="Path_5685" data-name="Path 5685" d="M368.044,29.678H352.657a.773.773,0,1,1,0-1.545h15.387a.773.773,0,1,1,0,1.545" transform="translate(-237.937 -19.074)" fill="#e0e0e0"/>
        <path id="Path_5686" data-name="Path 5686" d="M368.044,40.383H352.657a.773.773,0,1,1,0-1.545h15.387a.773.773,0,1,1,0,1.545" transform="translate(-237.937 -26.332)" fill="#e0e0e0"/>
        <path id="Path_5687" data-name="Path 5687" d="M374.925,274.441H360.244a.737.737,0,1,1,0-1.474h14.681a.737.737,0,1,1,0,1.474" transform="translate(-243.092 -185.07)" fill="#f5f5f5"/>
        <path id="Path_5688" data-name="Path 5688" d="M374.925,284.654H360.244a.737.737,0,1,1,0-1.474h14.681a.737.737,0,1,1,0,1.474" transform="translate(-243.092 -191.994)" fill="#f5f5f5"/>
        <path id="Path_5689" data-name="Path 5689" d="M374.925,294.868H360.244a.737.737,0,1,1,0-1.474h14.681a.737.737,0,1,1,0,1.474" transform="translate(-243.092 -198.919)" fill="#f5f5f5"/>
        <path id="Path_5690" data-name="Path 5690" d="M20.221,29.724a4.837,4.837,0,0,0-9.593-.852,4.769,4.769,0,0,0,.592,3.281h0l.014.018c.186.311.418.533.652.859l2.807,3.7a.876.876,0,0,0,1.394,0l2.76-3.636a10.354,10.354,0,0,0,.7-.925l.01-.013h0a4.756,4.756,0,0,0,.667-2.429m-4.834,2.093A2.115,2.115,0,1,1,17.514,29.7a2.121,2.121,0,0,1-2.127,2.115" transform="translate(-7.135 -16.893)" fill="#ebebeb"/>
        <path id="Path_5691" data-name="Path 5691" d="M40.312,369.687s-3.7,2.8-.155,6.505a.324.324,0,0,0,.234.1L72.71,376.1a5.578,5.578,0,0,0,.47-6.625Z" transform="translate(-26.115 -250.504)" fill="#ebebeb"/>
        <path id="Path_5692" data-name="Path 5692" d="M84.3,379.075c0,.036-4.024.065-8.988.065s-8.988-.029-8.988-.065,4.023-.065,8.988-.065,8.988.029,8.988.065" transform="translate(-44.847 -256.967)" fill="#e0e0e0"/>
        <path id="Path_5693" data-name="Path 5693" d="M88.663,382.686c0,.036-1.892.065-4.225.065s-4.226-.029-4.226-.065,1.892-.065,4.226-.065,4.225.029,4.225.065" transform="translate(-54.238 -259.415)" fill="#e0e0e0"/>
        <path id="Path_5694" data-name="Path 5694" d="M131.9,375.812c-.021-.005.071-.369.171-.964a13.249,13.249,0,0,0-.045-4.686c-.111-.593-.21-.955-.189-.961a1.037,1.037,0,0,1,.094.247c.054.161.119.4.186.7a11.33,11.33,0,0,1,.045,4.721c-.062.3-.122.536-.173.7a1.064,1.064,0,0,1-.089.249" transform="translate(-89.148 -250.316)" fill="#e0e0e0"/>
        <path id="Path_5695" data-name="Path 5695" d="M139.487,369.353a1.113,1.113,0,0,1,.144.234,2.717,2.717,0,0,1,.144.288c.051.115.114.243.165.393a6.806,6.806,0,0,1,.308,1.066,7.121,7.121,0,0,1,.022,2.707,6.824,6.824,0,0,1-.29,1.071c-.048.15-.11.28-.158.4a2.807,2.807,0,0,1-.139.29,1.1,1.1,0,0,1-.14.236c-.022-.011.158-.357.35-.951a7.7,7.7,0,0,0,.259-1.063,7.6,7.6,0,0,0-.022-2.664,7.706,7.706,0,0,0-.276-1.058c-.2-.591-.388-.934-.366-.945" transform="translate(-94.318 -250.419)" fill="#e0e0e0"/>
        <path id="Path_5696" data-name="Path 5696" d="M57.681,376.607a1.013,1.013,0,0,1-.151-.215,2.25,2.25,0,0,1-.151-.268,3.748,3.748,0,0,1-.173-.369,5.61,5.61,0,0,1-.315-1.014,5.938,5.938,0,0,1,.035-2.586,5.606,5.606,0,0,1,.343-1.005,3.766,3.766,0,0,1,.183-.365,2.292,2.292,0,0,1,.158-.264,1,1,0,0,1,.156-.211c.022.014-.186.324-.412.876a6.248,6.248,0,0,0-.31,1,6.264,6.264,0,0,0-.034,2.536,6.18,6.18,0,0,0,.283,1c.211.557.411.873.388.886" transform="translate(-38.385 -251.068)" fill="#e0e0e0"/>
        <path id="Path_5697" data-name="Path 5697" d="M46.552,377.281a1.277,1.277,0,0,1-.166-.244,2.782,2.782,0,0,1-.169-.3c-.059-.121-.135-.256-.2-.415a6.822,6.822,0,0,1-.37-1.134,7.138,7.138,0,0,1-.065-2.907,6.808,6.808,0,0,1,.319-1.15,4.525,4.525,0,0,1,.177-.423,2.82,2.82,0,0,1,.155-.309,1.27,1.27,0,0,1,.155-.25c.023.012-.183.378-.4,1.013a7.541,7.541,0,0,0-.288,1.14,7.528,7.528,0,0,0,.064,2.86,7.531,7.531,0,0,0,.338,1.126c.245.625.468.981.445.994" transform="translate(-30.745 -250.958)" fill="#e0e0e0"/>
        <rect id="Rectangle_2287" data-name="Rectangle 2287" width="11.967" height="6.15" transform="translate(33.442 135.387)" fill="#ebebeb"/>
        <path id="Path_5698" data-name="Path 5698" d="M20.868,422.206c0,.054,0,.108.007.163a3.536,3.536,0,0,0,3.56,3.3H60.076v-.445H51.615a3.075,3.075,0,1,1,0-6.15h8.461v-.653l-35.652.12a3.555,3.555,0,0,0-3.556,3.666" transform="translate(-14.109 -283.686)" fill="#e0e0e0"/>
        <path id="Path_5699" data-name="Path 5699" d="M117.282,430.117c0,.036-2.461.065-5.5.065s-5.5-.029-5.5-.065,2.46-.065,5.5-.065,5.5.029,5.5.065" transform="translate(-71.873 -291.573)" fill="#e0e0e0"/>
        <path id="Path_5700" data-name="Path 5700" d="M117.981,434.422c0,.036-2.328.065-5.2.065s-5.2-.029-5.2-.065,2.328-.065,5.2-.065,5.2.029,5.2.065" transform="translate(-72.745 -294.492)" fill="#e0e0e0"/>
        <path id="Path_5701" data-name="Path 5701" d="M120.708,438.358c0,.036-2.093.065-4.675.065s-4.676-.029-4.676-.065,2.093-.065,4.676-.065,4.675.029,4.675.065" transform="translate(-75.298 -297.16)" fill="#e0e0e0"/>
        <path id="Path_5702" data-name="Path 5702" d="M117.752,426.251c0,.036-2.41.065-5.383.065s-5.383-.029-5.383-.065,2.41-.065,5.383-.065,5.383.029,5.383.065" transform="translate(-72.343 -288.952)" fill="#e0e0e0"/>
        <path id="Path_5703" data-name="Path 5703" d="M119.688,422.383c0,.036-2.145.065-4.791.065s-4.792-.029-4.792-.065,2.145-.065,4.792-.065,4.791.029,4.791.065" transform="translate(-74.452 -286.329)" fill="#e0e0e0"/>
        <path id="Path_5704" data-name="Path 5704" d="M30.656,419.111a7.884,7.884,0,0,0-.757.9,4.533,4.533,0,0,0,.062,5.27,7.93,7.93,0,0,0,.778.877,1.25,1.25,0,0,1-.257-.189,4.073,4.073,0,0,1-.6-.634,4.466,4.466,0,0,1-.064-5.377,4.038,4.038,0,0,1,.58-.648,1.243,1.243,0,0,1,.253-.195" transform="translate(-19.579 -284.155)" fill="#f5f5f5"/>
        <path id="Path_5705" data-name="Path 5705" d="M26.934,418.7a7.875,7.875,0,0,0-.757.9,4.533,4.533,0,0,0,.062,5.27,7.922,7.922,0,0,0,.778.877,1.248,1.248,0,0,1-.257-.189,4.076,4.076,0,0,1-.6-.634,4.466,4.466,0,0,1-.064-5.377,4.053,4.053,0,0,1,.58-.648,1.242,1.242,0,0,1,.253-.195" transform="translate(-17.062 -283.878)" fill="#f5f5f5"/>
        <path id="Path_5706" data-name="Path 5706" d="M101.722,419.111a7.884,7.884,0,0,0-.757.9,4.533,4.533,0,0,0,.062,5.27,7.931,7.931,0,0,0,.778.877,1.251,1.251,0,0,1-.257-.189,4.073,4.073,0,0,1-.6-.634,4.466,4.466,0,0,1-.064-5.377,4.039,4.039,0,0,1,.58-.648,1.244,1.244,0,0,1,.253-.195" transform="translate(-67.633 -284.155)" fill="#f5f5f5"/>
        <path id="Path_5707" data-name="Path 5707" d="M98,418.7a7.875,7.875,0,0,0-.757.9,4.533,4.533,0,0,0,.062,5.27,7.923,7.923,0,0,0,.778.877,1.248,1.248,0,0,1-.257-.189,4.076,4.076,0,0,1-.6-.634,4.466,4.466,0,0,1-.064-5.377,4.038,4.038,0,0,1,.58-.648A1.242,1.242,0,0,1,98,418.7" transform="translate(-65.117 -283.878)" fill="#f5f5f5"/>
        <path id="Path_5708" data-name="Path 5708" d="M42.824,425.316q-.017-1.25-.034-2.5a1.781,1.781,0,0,0-.089-.644.61.61,0,0,0-.477-.4.958.958,0,0,0-1.026.483,2.361,2.361,0,0,0-.247,1.226,17.581,17.581,0,0,0,.1,1.975,2.26,2.26,0,0,0,.234.9.761.761,0,0,0,1.439-.121,2.5,2.5,0,0,0,.1-.922" transform="translate(-27.69 -285.933)" fill="#f5f5f5"/>
        <path id="Path_5709" data-name="Path 5709" d="M65.449,430.491c0,.036-2.577.065-5.754.065s-5.755-.029-5.755-.065,2.576-.065,5.755-.065,5.754.029,5.754.065" transform="translate(-36.474 -291.826)" fill="#f5f5f5"/>
        <path id="Path_5710" data-name="Path 5710" d="M39.224,406.074l-.066-5.83h3.191l.11,5.83Z" transform="translate(-26.478 -271.363)" fill="#f5f5f5"/>
        <path id="Path_5711" data-name="Path 5711" d="M42.238,403.328a8.524,8.524,0,0,1-1.483.065,8.526,8.526,0,0,1-1.483-.065,8.535,8.535,0,0,1,1.483-.065,8.533,8.533,0,0,1,1.483.065" transform="translate(-26.555 -273.41)" fill="#e0e0e0"/>
        <path id="Path_5712" data-name="Path 5712" d="M42.238,406.123a8.527,8.527,0,0,1-1.483.065,8.53,8.53,0,0,1-1.483-.065,8.526,8.526,0,0,1,1.483-.065,8.524,8.524,0,0,1,1.483.065" transform="translate(-26.555 -275.305)" fill="#e0e0e0"/>
        <path id="Path_5713" data-name="Path 5713" d="M42.238,408.917a8.524,8.524,0,0,1-1.483.065,8.526,8.526,0,0,1-1.483-.065,8.53,8.53,0,0,1,1.483-.065,8.527,8.527,0,0,1,1.483.065" transform="translate(-26.555 -277.199)" fill="#e0e0e0"/>
        <path id="Path_5714" data-name="Path 5714" d="M42.238,411.711a8.526,8.526,0,0,1-1.483.065,8.528,8.528,0,0,1-1.483-.065,8.528,8.528,0,0,1,1.483-.065,8.526,8.526,0,0,1,1.483.065" transform="translate(-26.555 -279.094)" fill="#e0e0e0"/>
        <path id="Path_5715" data-name="Path 5715" d="M42.238,414.505a8.524,8.524,0,0,1-1.483.065,8.526,8.526,0,0,1-1.483-.065,8.532,8.532,0,0,1,1.483-.065,8.529,8.529,0,0,1,1.483.065" transform="translate(-26.555 -280.988)" fill="#e0e0e0"/>
        <path id="Path_5716" data-name="Path 5716" d="M38.635,399.765H74a16.432,16.432,0,0,1,0,6.3H38.786v-.429h2.152a1.013,1.013,0,0,0,1.016-1.01V401.14a1.013,1.013,0,0,0-1.016-1.01h-2.3Z" transform="translate(-26.125 -271.038)" fill="#ebebeb"/>
        <path id="Path_5717" data-name="Path 5717" d="M62.685,406.977h.59a.139.139,0,0,1,.064.016.12.12,0,0,1,.063.11.127.127,0,0,1,0,.038q-.017.075-.04.15a1.671,1.671,0,0,1-.369.664.7.7,0,0,1-.5.259.546.546,0,0,1-.071,0,.575.575,0,0,1-.4-.289,1.312,1.312,0,0,1-.176-.707,1.877,1.877,0,0,1,.07-.5,1.682,1.682,0,0,1,.35-.68.714.714,0,0,1,.532-.281.5.5,0,0,1,.223.051.721.721,0,0,1,.345.429.13.13,0,0,1,.014.058.124.124,0,0,1-.017.063.121.121,0,0,1-.109.063.137.137,0,0,1-.04-.006.12.12,0,0,1-.081-.079l-.006-.011a.635.635,0,0,0-.071-.139.337.337,0,0,0-.283-.167.332.332,0,0,0-.195.071,1.037,1.037,0,0,0-.322.46,1.718,1.718,0,0,0-.14.662,1.182,1.182,0,0,0,.1.52.343.343,0,0,0,.308.23.422.422,0,0,0,.285-.171,1.551,1.551,0,0,0,.3-.545c-.272,0-.413,0-.423,0q-.138-.022-.142-.142a.125.125,0,0,1,.013-.042.133.133,0,0,1,.133-.071" transform="translate(-41.813 -275.095)" fill="#fafafa"/>
        <path id="Path_5718" data-name="Path 5718" d="M68.012,405.871a.354.354,0,0,1,.016.042q.037.129.416,2.179a.091.091,0,0,1,.006.032.131.131,0,0,1-.017.064.117.117,0,0,1-.106.064h-.02a.116.116,0,0,1-.1-.087l-.141-.724h-.727l-.349.727a.164.164,0,0,1-.012.024.141.141,0,0,1-.109.061.127.127,0,0,1-.069-.02.122.122,0,0,1-.058-.106.093.093,0,0,1,.008-.038c.022-.051.058-.13.108-.239q.763-1.656.912-1.954a.138.138,0,0,1,.123-.088.134.134,0,0,1,.116.063m-.158.487-.393.822h.555Z" transform="translate(-45.132 -275.135)" fill="#fafafa"/>
        <path id="Path_5719" data-name="Path 5719" d="M74.256,408.247H73.19a.122.122,0,0,1-.068-.021.192.192,0,0,1-.06-.132v0q0-.065.294-2.17a.354.354,0,0,1,.006-.046.116.116,0,0,1,.114-.077.127.127,0,0,1,.059.014.118.118,0,0,1,.067.112q-.014.143-.073.595-.183,1.39-.191,1.467h.906a.189.189,0,0,1,.068.013.119.119,0,0,1,.081.118.152.152,0,0,1-.006.041.15.15,0,0,1-.132.088" transform="translate(-49.403 -275.129)" fill="#fafafa"/>
        <path id="Path_5720" data-name="Path 5720" d="M78.605,405.871a.42.42,0,0,1,.016.042q.037.129.416,2.179a.091.091,0,0,1,.006.032.128.128,0,0,1-.017.064.116.116,0,0,1-.105.064H78.9a.116.116,0,0,1-.1-.087l-.141-.724h-.727l-.349.727a.161.161,0,0,1-.011.024.141.141,0,0,1-.109.061.127.127,0,0,1-.069-.02.122.122,0,0,1-.058-.106.093.093,0,0,1,.008-.038c.022-.051.058-.13.108-.239q.763-1.656.912-1.954a.138.138,0,0,1,.123-.088.134.134,0,0,1,.116.063m-.158.487-.393.822h.555Z" transform="translate(-52.295 -275.135)" fill="#fafafa"/>
        <path id="Path_5721" data-name="Path 5721" d="M84.362,407.122q.124.344.193.531.165.453.165.478a.112.112,0,0,1-.02.064.121.121,0,0,1-.107.058.116.116,0,0,1-.106-.085c-.008-.023-.015-.041-.02-.054q-.087-.2-.285-.747l-.6.82a.147.147,0,0,1-.113.066.135.135,0,0,1-.066-.017.116.116,0,0,1-.06-.106.166.166,0,0,1,0-.027.315.315,0,0,1,.063-.1q.3-.389.67-.928l-.073-.2q-.34-.907-.34-.937a.137.137,0,0,1,.016-.065.111.111,0,0,1,.1-.063.127.127,0,0,1,.119.07l.356.954.711-.962a.142.142,0,0,1,.113-.06.118.118,0,0,1,.12.127.163.163,0,0,1-.013.058Z" transform="translate(-56.354 -275.135)" fill="#fafafa"/>
        <path id="Path_5722" data-name="Path 5722" d="M90.822,405.833a.128.128,0,0,1,.059.014.125.125,0,0,1,.068.109q-.262,2.056-.289,2.222a1.348,1.348,0,0,1-.228.579.825.825,0,0,1-1.049.256.755.755,0,0,1-.376-.328.137.137,0,0,1-.014-.061.124.124,0,0,1,.017-.063.121.121,0,0,1,.109-.063.123.123,0,0,1,.1.052.687.687,0,0,0,.546.309.54.54,0,0,0,.423-.214,1.165,1.165,0,0,0,.235-.666.631.631,0,0,1-.157.166.64.64,0,0,1-.382.125.548.548,0,0,1-.072,0,.571.571,0,0,1-.4-.289,1.3,1.3,0,0,1-.178-.706q0-.193.018-.4.03-.322.144-.914a.14.14,0,0,1,.011-.036.117.117,0,0,1,.114-.087.119.119,0,0,1,.062.017.111.111,0,0,1,.063.1,4.648,4.648,0,0,1-.059.483,6.628,6.628,0,0,0-.084.739,1.474,1.474,0,0,0,.1.575c.073.172.178.259.316.259a.207.207,0,0,0,.043-.005.58.58,0,0,0,.319-.253,1.576,1.576,0,0,0,.264-.584l.162-1.208a.155.155,0,0,1,.016-.053.116.116,0,0,1,.111-.069" transform="translate(-60.176 -275.152)" fill="#fafafa"/>
        <path id="Path_5723" data-name="Path 5723" d="M143.619,405.976c-.036,0-.065-1.447-.065-3.232s.029-3.233.065-3.233.065,1.447.065,3.233-.029,3.232-.065,3.232" transform="translate(-97.07 -270.866)" fill="#f5f5f5"/>
        <path id="Path_5724" data-name="Path 5724" d="M54.241,405.976c-.036,0-.065-1.447-.065-3.232s.029-3.233.065-3.233.065,1.447.065,3.233-.029,3.232-.065,3.232" transform="translate(-36.633 -270.866)" fill="#e0e0e0"/>
        <path id="Path_5725" data-name="Path 5725" d="M145.536,405.976c-.036,0-.065-1.447-.065-3.232s.029-3.233.065-3.233.065,1.447.065,3.233-.029,3.232-.065,3.232" transform="translate(-98.366 -270.866)" fill="#f5f5f5"/>
        <path id="Path_5726" data-name="Path 5726" d="M52.45,405.976c-.036,0-.065-1.447-.065-3.232s.029-3.233.065-3.233.065,1.447.065,3.233-.029,3.232-.065,3.232" transform="translate(-35.422 -270.866)" fill="#e0e0e0"/>
        <path id="Path_5727" data-name="Path 5727" d="M109.133,402.794l-.006-.011,3.738,3,.033.027-.041.011-.5.13-3.156.823-.006,0-.006,0-2.86-1.206-.81-.345-.214-.093-.054-.024-.018-.009.019.006.056.022.216.087.814.335,2.867,1.192h-.013l3.155-.828.5-.13-.008.037-3.73-3.009-.005,0V402.8" transform="translate(-71.159 -273.085)" fill="#e0e0e0"/>
        <path id="Path_5728" data-name="Path 5728" d="M127.184,410.647l.2.191.274-.059-.119.251.141.241-.278-.035-.187.207-.052-.273-.256-.112.245-.134Z" transform="translate(-85.815 -278.416)" fill="#e0e0e0"/>
        <path id="Path_5729" data-name="Path 5729" d="M116.347,414.317l.139.115.174-.049-.067.167.1.15-.181-.012-.112.141-.044-.175-.17-.062.153-.1Z" transform="translate(-78.564 -280.905)" fill="#e0e0e0"/>
        <path id="Path_5730" data-name="Path 5730" d="M104.451,408.962l.222.014.137-.174.055.214.209.076-.187.118-.008.221-.171-.141-.214.061.082-.205Z" transform="translate(-70.629 -277.165)" fill="#e0e0e0"/>
        <path id="Path_5731" data-name="Path 5731" d="M132.931,402.628l.222.014.137-.174.055.214.209.076-.187.118-.008.221-.171-.141-.214.061.082-.205Z" transform="translate(-89.887 -272.871)" fill="#e0e0e0"/>
        <path id="Path_5732" data-name="Path 5732" d="M116.713,402.3l.142.009.088-.111.035.137.133.049-.12.076-.005.141-.109-.09-.136.039.052-.131Z" transform="translate(-78.92 -272.688)" fill="#e0e0e0"/>
        <path id="Path_5733" data-name="Path 5733" d="M122.619,402.955c0,.014-1.21-.025-2.7-.089s-2.7-.127-2.7-.141,1.209.025,2.7.089,2.7.127,2.7.141" transform="translate(-79.263 -273.043)" fill="#e0e0e0"/>
        <path id="Path_5734" data-name="Path 5734" d="M62.355,393.343H26.485a2.979,2.979,0,0,1,0-2.969h35.87a3.424,3.424,0,0,1,0,2.969" transform="translate(-17.641 -264.671)" fill="#e0e0e0"/>
        <rect id="Rectangle_2288" data-name="Rectangle 2288" width="19.433" height="1.081" transform="translate(16.272 126.551)" fill="#ebebeb"/>
        <path id="Path_5735" data-name="Path 5735" d="M30.269,393.517a1.043,1.043,0,0,1-.283-.359,2.61,2.61,0,0,1-.19-2.148,1.034,1.034,0,0,1,.216-.4,3.37,3.37,0,0,1-.128.43,2.985,2.985,0,0,0,.184,2.078,3.441,3.441,0,0,1,.2.4" transform="translate(-20.048 -264.829)" fill="#e0e0e0"/>
        <path id="Path_5736" data-name="Path 5736" d="M32.666,393.517a1.043,1.043,0,0,1-.283-.359,2.608,2.608,0,0,1-.19-2.148,1.032,1.032,0,0,1,.216-.4,3.369,3.369,0,0,1-.128.43,2.985,2.985,0,0,0,.184,2.078,3.379,3.379,0,0,1,.2.4" transform="translate(-21.669 -264.829)" fill="#e0e0e0"/>
        <path id="Path_5737" data-name="Path 5737" d="M133.6,393.31a4.452,4.452,0,0,0,.017-2.906,3.005,3.005,0,0,1-.017,2.906" transform="translate(-90.335 -264.691)" fill="#f5f5f5"/>
        <path id="Path_5738" data-name="Path 5738" d="M131.522,393.421c-.039-.009.112-.636.108-1.422s-.151-1.412-.112-1.422a4.326,4.326,0,0,1,0,2.843" transform="translate(-88.927 -264.809)" fill="#f5f5f5"/>
      </g>
    </g>
    <g id="Group_2652" data-name="Group 2652">
      <g id="Group_2651" data-name="Group 2651" clip-path="url(#clip-path)">
        <path id="Path_5739" data-name="Path 5739" d="M338.879,339.18s-7.865-9-10.832-18-1.558-7.968-1.558-7.968,4.007,8.744,7.048,12.967,8.458,10.421,8.458,10.421Z" transform="translate(-220.541 -212.33)" fill="#455a64"/>
        <path id="Path_5740" data-name="Path 5740" d="M368.5,317.148a.458.458,0,0,0-.853.29,117.557,117.557,0,0,1,1.475,15.394c-.053,6.251,0,8.668,0,8.668H372.4s-.581-12.923-1.321-16.864a26.943,26.943,0,0,0-2.577-7.488" transform="translate(-248.594 -214.866)" fill="#455a64"/>
        <path id="Path_5741" data-name="Path 5741" d="M375.8,338.1a34.32,34.32,0,0,0,2.694-9.719c.27-2.3-.211-5.411-.926-9.561a25.577,25.577,0,0,1-.414-4.6.782.782,0,0,1,1.466-.364,20.61,20.61,0,0,1,1.829,4.6c.792,4.1,1.691,6.146,1,10.034a60,60,0,0,1-3.223,9.877Z" transform="translate(-254.114 -212.519)" fill="#455a64"/>
        <path id="Path_5742" data-name="Path 5742" d="M384.909,327.873s8.635-18.454,9.233-21.191,2.634-9.046,2.873-8.689.6,3.69-.958,7.5-8.2,22.944-8.2,22.944h-2.949" transform="translate(-260.271 -202.027)" fill="#455a64"/>
        <path id="Path_5743" data-name="Path 5743" d="M341.505,337.863a1.7,1.7,0,0,1-.242-.165c-.154-.116-.386-.278-.669-.508a30.546,30.546,0,0,1-2.321-2.037,38.762,38.762,0,0,1-6.265-8,52.255,52.255,0,0,1-4.276-9.212c-.434-1.226-.751-2.229-.957-2.926-.106-.348-.178-.62-.229-.805a.146.146,0,1,1,.036-.01l.262.794c.226.69.562,1.685,1.011,2.9a55.563,55.563,0,0,0,4.312,9.162,40.443,40.443,0,0,0,6.2,8c.924.914,1.715,1.609,2.274,2.074.276.238.5.409.646.534a1.757,1.757,0,0,1,.219.195" transform="translate(-220.761 -212.843)" fill="#263238"/>
        <path id="Path_5744" data-name="Path 5744" d="M371.173,331.923a3.049,3.049,0,0,1-.077-.542c-.041-.382-.095-.88-.16-1.479-.137-1.248-.35-2.97-.655-4.861s-.646-3.593-.91-4.821l-.315-1.454a3.094,3.094,0,0,1-.1-.538,3.108,3.108,0,0,1,.166.521c.1.338.225.831.373,1.443.3,1.223.658,2.925.965,4.821s.5,3.624.6,4.878c.052.627.086,1.135.1,1.486a3.183,3.183,0,0,1,.006.547" transform="translate(-249.484 -215.756)" fill="#263238"/>
        <path id="Path_5745" data-name="Path 5745" d="M380.207,314.26a1.344,1.344,0,0,1,.1.234l.259.686c.114.3.245.664.37,1.1s.295.922.42,1.478l.214.868c.073.3.124.621.19.95.141.655.228,1.366.333,2.111a31.358,31.358,0,0,1-.351,9.755c-.158.736-.3,1.439-.484,2.082-.09.323-.164.638-.258.934l-.276.85c-.164.546-.366,1.021-.525,1.444s-.313.781-.449,1.069l-.307.665a.128.128,0,1,1-.034-.015l.275-.678c.125-.292.272-.651.418-1.078s.341-.9.5-1.447l.263-.85c.09-.3.161-.611.247-.933.18-.642.312-1.342.465-2.076a32.4,32.4,0,0,0,.35-9.7c-.1-.742-.181-1.45-.314-2.1-.062-.327-.11-.646-.179-.947l-.2-.867c-.116-.555-.273-1.044-.392-1.479s-.236-.8-.34-1.105l-.226-.7a1.346,1.346,0,0,1-.067-.247" transform="translate(-256.495 -213.066)" fill="#263238"/>
        <path id="Path_5746" data-name="Path 5746" d="M399.864,299.175a.281.281,0,0,1-.007.083l-.038.24c-.038.21-.086.522-.17.918-.167.794-.445,1.936-.877,3.322s-1.02,3.012-1.719,4.8-1.506,3.733-2.273,5.8-1.378,4.088-1.942,5.92-1.088,3.479-1.6,4.838a30.894,30.894,0,0,1-1.363,3.156c-.177.365-.336.638-.439.826l-.121.211c-.028.047-.044.071-.047.069a.283.283,0,0,1,.03-.078l.1-.219c.092-.193.24-.47.407-.84.348-.731.816-1.807,1.306-3.169s1.011-3.006,1.56-4.842,1.151-3.86,1.931-5.934,1.583-4.022,2.288-5.8,1.309-3.4,1.753-4.775.743-2.511.931-3.3c.1-.393.154-.7.2-.91l.056-.236a.279.279,0,0,1,.025-.08" transform="translate(-263.219 -202.839)" fill="#263238"/>
        <path id="Path_5747" data-name="Path 5747" d="M337.13,286.067a.743.743,0,0,0-1.224.754,21.08,21.08,0,0,0,1.085,2.775c1.187,2.508,4.674,11.51,6.307,16.453s3.932,14.166,3.932,14.166l3.486-.562s-3.189-15.153-6.305-20.613c-2.5-4.387-5.008-10.727-7.281-12.973" transform="translate(-227.112 -193.807)" fill="#455a64"/>
        <path id="Path_5748" data-name="Path 5748" d="M361.75,358.172a2.144,2.144,0,0,1,.18.415c.1.272.244.669.4,1.164.321.989.714,2.37,1.11,3.9s.723,2.931.953,3.944l.262,1.2a2.126,2.126,0,0,1,.072.446,2.119,2.119,0,0,1-.142-.43l-.319-1.187-1-3.929c-.4-1.532-.767-2.916-1.056-3.912l-.345-1.179a2.15,2.15,0,0,1-.111-.438" transform="translate(-244.61 -242.838)" fill="#263238"/>
        <path id="Path_5749" data-name="Path 5749" d="M349.822,320.262a.362.362,0,0,1-.02-.092l-.04-.273c-.037-.24-.069-.6-.143-1.049-.128-.911-.356-2.223-.731-3.823a54.513,54.513,0,0,0-1.631-5.538c-.715-2.054-1.612-4.273-2.628-6.569-2.051-4.587-4.1-8.656-5.446-11.665-.68-1.5-1.207-2.726-1.554-3.58-.177-.425-.3-.76-.392-.986l-.1-.258a.372.372,0,0,1-.027-.09.357.357,0,0,1,.045.083l.114.251.424.972c.367.845.912,2.061,1.607,3.554,1.375,2.992,3.441,7.051,5.5,11.645,1.018,2.3,1.912,4.526,2.62,6.588a51.853,51.853,0,0,1,1.6,5.564,38.563,38.563,0,0,1,.675,3.843c.063.457.084.814.108,1.055.009.112.016.2.021.275a.348.348,0,0,1,0,.094" transform="translate(-227.952 -194.135)" fill="#263238"/>
        <path id="Path_5750" data-name="Path 5750" d="M373.744,360.151a3.677,3.677,0,0,1-.118-.582l-.271-1.594c-.24-1.343-.607-3.193-1.134-5.206s-1.11-3.808-1.563-5.1l-.545-1.522a3.7,3.7,0,0,1-.186-.565,3.626,3.626,0,0,1,.252.539c.15.352.36.864.6,1.5a50.156,50.156,0,0,1,1.618,5.094,52.614,52.614,0,0,1,1.084,5.231c.1.676.175,1.224.214,1.6a3.661,3.661,0,0,1,.046.592" transform="translate(-250.14 -234.306)" fill="#263238"/>
        <rect id="Rectangle_2290" data-name="Rectangle 2290" width="13.606" height="16.484" transform="translate(117.152 125.348)" fill="#ff725e"/>
        <g id="Group_2650" data-name="Group 2650" transform="translate(117.153 125.348)" opacity="0.3">
          <g id="Group_2649" data-name="Group 2649">
            <g id="Group_2648" data-name="Group 2648" clip-path="url(#clip-path-4)">
              <rect id="Rectangle_2291" data-name="Rectangle 2291" width="13.606" height="16.484" transform="translate(0 0)"/>
            </g>
          </g>
        </g>
        <rect id="Rectangle_2293" data-name="Rectangle 2293" width="12.071" height="16.484" transform="translate(114.347 125.348)" fill="#ff725e"/>
      </g>
    </g>
    <g id="Group_2663" data-name="Group 2663">
      <g id="Group_2662" data-name="Group 2662" clip-path="url(#clip-path)">
        <path id="Path_5751" data-name="Path 5751" d="M123.5,224.482l.009,0c0-.014-.007-.009-.009,0" transform="translate(-83.511 -152.189)" fill="#ff725e"/>
        <path id="Path_5752" data-name="Path 5752" d="M158.723,255.627c-.106-2.313-3.6-33.436-4.123-37.432a9.479,9.479,0,0,0-6-7.983l-17.547-6.022H113.686L94.87,210.729l-.009.318a2.969,2.969,0,0,1,0-.313c-.187.1-4.82,1.413-5.929,5.951-.606,2.48-7.676,37.653-7.78,38.687s.831,7.337,5.819,8.164c1.869.31,5.912.025,10.237-.453L93.83,280.33h54.542l-1.928-12.323c4.338-1.68,8.878-3.558,9.635-4.342,1.48-1.531,2.749-5.725,2.643-8.038m-61.7-8.862h0Z" transform="translate(-54.869 -138.44)" fill="#ff725e"/>
        <g id="Group_2655" data-name="Group 2655" transform="translate(49.522 108.088)" opacity="0.3">
          <g id="Group_2654" data-name="Group 2654">
            <g id="Group_2653" data-name="Group 2653" clip-path="url(#clip-path-6)">
              <path id="Path_5753" data-name="Path 5753" d="M159.826,341.112a9.752,9.752,0,0,0-.8-3.216,3.941,3.941,0,0,0-2.425-2.145,2.511,2.511,0,0,0-2.854,1.174c-1.968,5.492-.178,8.585,3.575,11.553a2.338,2.338,0,0,0,2.058.622c.716-.214.863-.736.9-1.48a39.954,39.954,0,0,0-.446-6.508" transform="translate(-152.934 -335.67)"/>
            </g>
          </g>
        </g>
        <path id="Path_5754" data-name="Path 5754" d="M247.267,272.873" transform="translate(-167.199 -185.006)" fill="#ebebeb"/>
        <path id="Path_5755" data-name="Path 5755" d="M247.267,272.873" transform="translate(-167.199 -185.006)" fill="#ebebeb"/>
        <path id="Path_5756" data-name="Path 5756" d="M130.262,333.183a1.708,1.708,0,0,1-.357.058l-.988.1c-.842.082-2.02.187-3.364.3l.04-.014c-.307.212-.624.432-.944.664a17.25,17.25,0,0,0-3.095,2.728,8.968,8.968,0,0,0-.735,1.01,2.788,2.788,0,0,1-.242.392,2.133,2.133,0,0,1,.185-.424,7.222,7.222,0,0,1,.7-1.053,15.673,15.673,0,0,1,3.089-2.788c.321-.233.64-.453.949-.664l.018-.013.022,0c1.345-.1,2.525-.188,3.368-.242l.992-.055a1.717,1.717,0,0,1,.361,0" transform="translate(-81.534 -225.892)" fill="#263238"/>
        <path id="Path_5757" data-name="Path 5757" d="M115.818,351.921a.434.434,0,0,1,.027.1l.062.288c.047.255.114.631.171,1.12a36.221,36.221,0,0,1,.226,4.158q0,.659-.011,1.38a2.026,2.026,0,0,1-.488,1.424,2.208,2.208,0,0,1-1.448.722l-1.681.291c-2.3.4-4.822.887-7.485,1.313s-5.218.731-7.547.934a39.588,39.588,0,0,1-6.206.238,8.884,8.884,0,0,1-1.256-.173,3.558,3.558,0,0,1-1.05-.427,8.227,8.227,0,0,1-1.41-1.122c-.355-.343-.616-.623-.793-.813l-.2-.219a.461.461,0,0,1-.063-.079.441.441,0,0,1,.076.067l.21.207c.184.182.453.454.814.789a8.419,8.419,0,0,0,1.412,1.089,3.5,3.5,0,0,0,1.026.4,8.867,8.867,0,0,0,1.24.159,40.767,40.767,0,0,0,6.183-.274c2.325-.211,4.874-.516,7.534-.946s5.182-.905,7.484-1.3l1.683-.284a2.067,2.067,0,0,0,1.367-.668,1.893,1.893,0,0,0,.463-1.336q.02-.718.022-1.377a39.963,39.963,0,0,0-.172-4.151c-.048-.488-.1-.866-.14-1.121l-.045-.291a.446.446,0,0,1-.01-.1" transform="translate(-58.605 -238.6)" fill="#263238"/>
        <path id="Path_5758" data-name="Path 5758" d="M137.936,270.9c.046,0-.368,4.584-.926,10.227s-1.048,10.216-1.094,10.211.368-4.583.926-10.228,1.048-10.215,1.094-10.211" transform="translate(-91.902 -183.67)" fill="#263238"/>
        <path id="Path_5759" data-name="Path 5759" d="M276.185,258.524a.274.274,0,0,1,0,.079c0,.061,0,.136,0,.228q-.01.322-.028.878c-.026.762-.077,1.865-.15,3.227-.144,2.724-.406,6.483-.728,10.632s-.6,7.907-.777,10.627c-.085,1.35-.154,2.447-.2,3.223q-.037.554-.059.876l-.019.228a.284.284,0,0,1-.012.078.273.273,0,0,1,0-.078c0-.061,0-.137,0-.228q.01-.322.027-.878c.026-.762.077-1.865.15-3.227.145-2.724.406-6.483.729-10.633s.6-7.9.777-10.626l.2-3.223c.025-.369.045-.662.059-.876.008-.091.014-.166.02-.228a.268.268,0,0,1,.012-.077" transform="translate(-185.414 -175.278)" fill="#263238"/>
        <path id="Path_5760" data-name="Path 5760" d="M294.429,352.812a12.874,12.874,0,0,0-1.007-1.423,7.893,7.893,0,0,0-3.437-2.326,14.1,14.1,0,0,0-2.259-.524,4.987,4.987,0,0,0-3.069.5,3.19,3.19,0,0,1-.423.209s.03-.031.1-.077.162-.116.3-.189a4.762,4.762,0,0,1,1.2-.494,5.252,5.252,0,0,1,1.921-.1,13.28,13.28,0,0,1,2.294.519,7.672,7.672,0,0,1,3.474,2.409,6.9,6.9,0,0,1,.72,1.07,2.211,2.211,0,0,1,.2.43" transform="translate(-192.195 -236.173)" fill="#263238"/>
        <path id="Path_5761" data-name="Path 5761" d="M261.61,382.458a1.01,1.01,0,0,1-.189.1l-.556.248c-.484.212-1.184.52-2.056.887a20.453,20.453,0,0,1-3.142,1.1,4.758,4.758,0,0,1-1.98.056,3.838,3.838,0,0,1-1.853-1.033,5.222,5.222,0,0,1-1.148-1.779,12.018,12.018,0,0,1-.611-1.865,27.3,27.3,0,0,1-.583-3.259c-.114-.935-.179-1.694-.223-2.218-.018-.248-.034-.449-.045-.6a.983.983,0,0,1,0-.212,1,1,0,0,1,.038.208c.02.155.045.354.077.6.064.522.146,1.279.276,2.209a29.268,29.268,0,0,0,.615,3.236,12.11,12.11,0,0,0,.612,1.838,5.105,5.105,0,0,0,1.112,1.722,3.694,3.694,0,0,0,1.772.994,4.64,4.64,0,0,0,1.911-.047,21.584,21.584,0,0,0,3.13-1.058l2.076-.837.568-.219a.989.989,0,0,1,.2-.066" transform="translate(-168.517 -253.485)" fill="#263238"/>
        <g id="Group_2658" data-name="Group 2658" transform="translate(41.746 121.639)" opacity="0.3">
          <g id="Group_2657" data-name="Group 2657">
            <g id="Group_2656" data-name="Group 2656" clip-path="url(#clip-path-7)">
              <path id="Path_5762" data-name="Path 5762" d="M144.423,377.754a3.513,3.513,0,0,1-2.33.947c-4.331.731-8.241,1.428-12.615,1.9l-.557,2.848A65.288,65.288,0,0,0,142.09,380.2a5.25,5.25,0,0,0,1.595-.859,1.971,1.971,0,0,0,.738-1.586" transform="translate(-128.921 -377.754)"/>
            </g>
          </g>
        </g>
        <g id="Group_2661" data-name="Group 2661" transform="translate(82.338 121.329)" opacity="0.3">
          <g id="Group_2660" data-name="Group 2660">
            <g id="Group_2659" data-name="Group 2659" clip-path="url(#clip-path-8)">
              <path id="Path_5763" data-name="Path 5763" d="M254.279,376.79a16.172,16.172,0,0,0,2,6.73c.27.462.678.969,1.212.91a1.4,1.4,0,0,0,.92-.769,11.472,11.472,0,0,0,1.859-4.185l-4.135-1.639Z" transform="translate(-254.279 -376.79)"/>
            </g>
          </g>
        </g>
        <path id="Path_5764" data-name="Path 5764" d="M196.891,375.292c.029.037-3.116,2.492-7.022,5.483s-7.1,5.387-7.126,5.351,3.115-2.491,7.023-5.484,7.1-5.387,7.125-5.35" transform="translate(-123.568 -254.446)" fill="#263238"/>
        <path id="Path_5765" data-name="Path 5765" d="M270.354,357.643a3.24,3.24,0,0,1,.045.536,5.768,5.768,0,0,1-.007.631c0,.247-.032.526-.067.833a21.454,21.454,0,0,1-1.17,4.686,25.367,25.367,0,0,1-2.055,4.377,13.083,13.083,0,0,1-.821,1.217,3.271,3.271,0,0,1-.349.41,3.328,3.328,0,0,1,.3-.449c.194-.285.468-.7.772-1.238a28.727,28.727,0,0,0,2-4.373,23.8,23.8,0,0,0,1.211-4.645c.042-.3.08-.58.092-.824s.041-.453.035-.625a3.3,3.3,0,0,1,.02-.536" transform="translate(-179.818 -242.48)" fill="#263238"/>
        <path id="Path_5766" data-name="Path 5766" d="M168.1,309.67s-4.806-7.635-8.578-6.135c0,0-1.918-1.563-3.144-.563s-.786,3.032-.786,3.032-2.326-1.875-3.363-.906-.283,2.626,0,3.439a14.857,14.857,0,0,1,.44,2.532s-1.415-.719-2.075.438,1.854,5.033,2.232,5.564,2.8,2.907,4.464,2.282a7.048,7.048,0,0,0,2.829-2.282Z" transform="translate(-101.755 -205.187)" fill="#ffbe9d"/>
        <path id="Path_5767" data-name="Path 5767" d="M160.8,314a3.017,3.017,0,0,1,.435.27l1.15.787,1.693,1.185a2.535,2.535,0,0,1,.461.407,1.016,1.016,0,0,1,.256.61,1.245,1.245,0,0,1-.733,1.109,2.119,2.119,0,0,1-1.336.139,4.558,4.558,0,0,1-1.162-.433c-.7-.356-1.3-.707-1.805-1.017s-.9-.578-1.164-.769a2.727,2.727,0,0,1-.4-.314,3.36,3.36,0,0,1,.441.26c.279.174.682.426,1.189.721s1.12.635,1.813.98a4.5,4.5,0,0,0,1.123.41,1.97,1.97,0,0,0,1.229-.127,1.088,1.088,0,0,0,.643-.952,1.288,1.288,0,0,0-.644-.9l-1.671-1.214-1.119-.83a2.97,2.97,0,0,1-.4-.323" transform="translate(-106.968 -212.892)" fill="#eb996e"/>
        <path id="Path_5768" data-name="Path 5768" d="M166.444,307.139a.67.67,0,0,1,.143.095l.392.294c.339.256.828.63,1.452,1.063a9.908,9.908,0,0,0,2.322,1.27,5.791,5.791,0,0,0,1.517.336,3.294,3.294,0,0,0,1.619-.218,1.3,1.3,0,0,0,.58-.542.954.954,0,0,0,.066-.744,3.747,3.747,0,0,0-.865-1.256,17.717,17.717,0,0,0-1.987-1.764c-.6-.465-1.1-.82-1.45-1.064l-.4-.28a.631.631,0,0,1-.135-.106.666.666,0,0,1,.153.078c.1.055.239.141.42.253.361.227.875.569,1.487,1.024a16.586,16.586,0,0,1,2.028,1.752c.173.185.347.379.51.59a2.364,2.364,0,0,1,.4.725,1.12,1.12,0,0,1-.076.869,1.465,1.465,0,0,1-.653.614,3.418,3.418,0,0,1-1.707.232,5.868,5.868,0,0,1-1.558-.354,9.651,9.651,0,0,1-2.338-1.319c-.618-.448-1.1-.837-1.423-1.108l-.372-.319a.654.654,0,0,1-.122-.121" transform="translate(-112.547 -206.261)" fill="#eb996e"/>
        <path id="Path_5769" data-name="Path 5769" d="M155.142,328.783l3.38,1.614c.384.184.828.459.812.883a.869.869,0,0,1-.246.519,2.757,2.757,0,0,1-2.246.807,8.175,8.175,0,0,1-2.379-.636" transform="translate(-104.446 -222.913)" fill="#ffbe9d"/>
        <path id="Path_5770" data-name="Path 5770" d="M154.463,331.966c.011-.033.561.2,1.479.432a4.172,4.172,0,0,0,1.635.091,2.75,2.75,0,0,0,.9-.311,1.8,1.8,0,0,0,.714-.692.508.508,0,0,0,0-.448.962.962,0,0,0-.323-.348,7.272,7.272,0,0,0-.863-.453l-1.5-.738-1.008-.511a1.951,1.951,0,0,1-.359-.208,1.964,1.964,0,0,1,.388.149l1.031.463,1.52.706a6.934,6.934,0,0,1,.891.459,1.117,1.117,0,0,1,.379.411.677.677,0,0,1,0,.589,2.359,2.359,0,0,1-1.747,1.085,4.134,4.134,0,0,1-1.689-.128,9.039,9.039,0,0,1-1.073-.371,1.9,1.9,0,0,1-.377-.176" transform="translate(-104.446 -222.91)" fill="#eb996e"/>
        <path id="Path_5771" data-name="Path 5771" d="M159.286,346.057l-5.094,3.821a8.4,8.4,0,0,1-.829-7.571h1.226l-.279,1.361,2.321.482Z" transform="translate(-103.322 -232.082)" fill="#ffbe9d"/>
        <path id="Path_5772" data-name="Path 5772" d="M154.207,342.024l1.871,2.423a3.9,3.9,0,0,0,.727.782,1.326,1.326,0,0,0,1,.282" transform="translate(-104.273 -231.89)" fill="#ffbe9d"/>
        <path id="Path_5773" data-name="Path 5773" d="M157.806,345.511a.909.909,0,0,1-.767-.069,2.089,2.089,0,0,1-.674-.516c-.215-.235-.416-.51-.638-.793-.439-.569-.829-1.089-1.1-1.471a3.45,3.45,0,0,1-.418-.639,3.45,3.45,0,0,1,.513.567c.3.363.7.872,1.144,1.441.221.283.421.562.62.792a2.143,2.143,0,0,0,.61.512,1.692,1.692,0,0,0,.715.176" transform="translate(-104.27 -231.89)" fill="#eb996e"/>
        <path id="Path_5774" data-name="Path 5774" d="M158.455,329.384l6.236-5.931a3.172,3.172,0,0,1,2.279-.871l32,.93a.667.667,0,0,1,.378,1.2l-8.986,6.563a.855.855,0,0,1-.541.164l-31.09-1.342a.416.416,0,0,1-.271-.717" transform="translate(-107.057 -218.708)" fill="#e0e0e0"/>
        <path id="Path_5775" data-name="Path 5775" d="M200.443,325.862a.549.549,0,0,1-.113.005H200l-1.266-.02-4.655-.1-15.356-.409-8.455-.245-1.9-.057a6.965,6.965,0,0,0-.9,0,2.264,2.264,0,0,0-.809.259,3.053,3.053,0,0,0-.655.51l-.6.554-1.135,1.04-3.431,3.13-.939.845-.247.217a.582.582,0,0,1-.088.07.551.551,0,0,1,.076-.082l.235-.229.917-.868,3.395-3.169,1.127-1.048.6-.557a3.159,3.159,0,0,1,.68-.533,2.4,2.4,0,0,1,.858-.28,7.014,7.014,0,0,1,.92,0l1.9.05,8.455.232,15.355.458,4.654.158,1.265.052.329.018a.562.562,0,0,1,.112.012" transform="translate(-107.896 -220.259)" fill="#263238"/>
        <path id="Path_5776" data-name="Path 5776" d="M290.21,275.987c.041.022-1.553,3.084-3.56,6.837s-3.668,6.781-3.71,6.76,1.553-3.083,3.561-6.838,3.668-6.781,3.709-6.759" transform="translate(-191.321 -187.117)" fill="#fff"/>
        <path id="Path_5777" data-name="Path 5777" d="M262.888,274.026c.045.011-.594,2.747-1.428,6.11s-1.547,6.081-1.592,6.07.594-2.746,1.429-6.11,1.547-6.081,1.592-6.07" transform="translate(-175.718 -185.788)" fill="#fff"/>
        <path id="Path_5778" data-name="Path 5778" d="M118.008,289.565c.035-.031,1.993,2.139,4.373,4.846s4.281,4.926,4.246,4.956-1.992-2.139-4.373-4.846-4.281-4.925-4.246-4.956" transform="translate(-79.795 -196.323)" fill="#fff"/>
        <path id="Path_5779" data-name="Path 5779" d="M141.871,256.126c.045-.013,1.068,3.348,2.285,7.506s2.168,7.541,2.123,7.554-1.068-3.348-2.285-7.507-2.168-7.54-2.123-7.553" transform="translate(-95.93 -173.652)" fill="#fff"/>
        <path id="Path_5780" data-name="Path 5780" d="M239.091,244.686a1.161,1.161,0,0,1,.015.228c0,.166.006.383.009.654,0,.587,0,1.4,0,2.4-.014,2.048-.034,4.844-.055,7.934-.041,3.091-.078,5.888-.1,7.935-.021,1-.039,1.818-.051,2.4-.009.271-.017.488-.022.654a.115.115,0,1,1-.034,0c0-.166-.005-.383-.009-.654,0-.587,0-1.4,0-2.4.014-2.048.034-4.845.055-7.936.041-3.09.078-5.886.1-7.934.021-1,.039-1.817.051-2.4.009-.27.017-.488.022-.654a1.163,1.163,0,0,1,.019-.228" transform="translate(-161.5 -165.896)" fill="#fff"/>
        <path id="Path_5781" data-name="Path 5781" d="M188.082,88.1c-1.208-1.287-2.672-2.5-3.094-4.212-.388-1.572.169-3.373-.667-4.761-1.03-1.709-3.6-1.851-4.836-3.417-.6-.758-.809-1.764-1.4-2.527-1.01-1.3-2.888-1.594-4.525-1.367s-3.2.865-4.844,1.033c-2.256.23-4.613-.428-6.763.288-2.372.79-3.768,2.945-5.259,5.036l-1.954,2.432a8.9,8.9,0,0,1-1.318,1.136,16.138,16.138,0,0,0-2.514,1.713,3.967,3.967,0,0,0,.45,5.725,4.256,4.256,0,0,0-2.747,4.267,12.165,12.165,0,0,0,.87,2.863,4.232,4.232,0,0,1,.177,2.93,1.884,1.884,0,0,1-2.42,1.134,4.487,4.487,0,0,0,2.553,2.9,2.7,2.7,0,0,1-1.784.859c1.976,4.222,7.039,6.308,11.72,6.177s9.1-2.046,13.385-3.928L185.6,102.7c1.1-.289,1.513-1.642,1.459-2.77a8.96,8.96,0,0,1-.013-3.361c.506-1.464,2.171-2.288,2.7-3.744.606-1.654-.463-3.441-1.672-4.727" transform="translate(-99.561 -48.644)" fill="#263238"/>
        <path id="Path_5782" data-name="Path 5782" d="M176.533,117.672a51.444,51.444,0,0,1-2.517-8.556,17.945,17.945,0,0,1,.447-8.822c.145-.427,1.407-3.3,1.86-3.272.323.022-.427,2.692-.256,2.965a15.233,15.233,0,0,1,2,8.867,40.094,40.094,0,0,1-1.532,8.817" transform="translate(-117.438 -65.781)" fill="#263238"/>
        <path id="Path_5783" data-name="Path 5783" d="M192.159,81.911l-.695-.016c-7.5.258-11.469,6.735-11,14.183l.214,25.683a8.785,8.785,0,0,0,17.564.175c.039-1.35.07-2.294.075-2.294s7.226-.943,7.486-8.1c.126-3.457-.2-10.6-.566-17.053a13.381,13.381,0,0,0-13.076-12.578" transform="translate(-122.001 -55.524)" fill="#ffbe9d"/>
        <path id="Path_5784" data-name="Path 5784" d="M216.239,192.848a17.465,17.465,0,0,1-9.306-2.977s2.045,5.327,9.243,4.852Z" transform="translate(-139.926 -128.731)" fill="#eb996e"/>
        <path id="Path_5785" data-name="Path 5785" d="M242.96,139.532a1.025,1.025,0,0,1-1.016,1.008.981.981,0,0,1-1.037-.947,1.025,1.025,0,0,1,1.015-1.009.982.982,0,0,1,1.039.947" transform="translate(-162.898 -93.959)" fill="#263238"/>
        <path id="Path_5786" data-name="Path 5786" d="M243.591,127.756c-.13.13-.9-.461-2-.485-1.1-.039-1.93.508-2.046.37-.058-.061.078-.3.437-.546a2.833,2.833,0,0,1,1.643-.461,2.721,2.721,0,0,1,1.589.552c.334.268.444.512.379.57" transform="translate(-161.967 -85.856)" fill="#263238"/>
        <path id="Path_5787" data-name="Path 5787" d="M212.039,139.532a1.025,1.025,0,0,1-1.016,1.008.981.981,0,0,1-1.038-.947A1.026,1.026,0,0,1,211,138.585a.982.982,0,0,1,1.038.947" transform="translate(-141.99 -93.959)" fill="#263238"/>
        <path id="Path_5788" data-name="Path 5788" d="M210.1,128.342c-.131.13-.9-.461-2-.485-1.1-.039-1.93.508-2.047.37-.057-.061.077-.3.438-.546a2.833,2.833,0,0,1,1.642-.461,2.723,2.723,0,0,1,1.59.552c.333.268.443.512.379.57" transform="translate(-139.318 -86.254)" fill="#263238"/>
        <path id="Path_5789" data-name="Path 5789" d="M229.581,137.923a7.384,7.384,0,0,1,1.8-.28c.283-.022.552-.072.6-.262a1.426,1.426,0,0,0-.169-.838l-.784-2.158a36.629,36.629,0,0,1-1.742-5.639,36.705,36.705,0,0,1,2.194,5.486c.261.758.511,1.48.749,2.171a1.619,1.619,0,0,1,.12,1.106.708.708,0,0,1-.474.4,1.911,1.911,0,0,1-.482.055,7.229,7.229,0,0,1-1.821-.041" transform="translate(-155.038 -87.289)" fill="#263238"/>
        <path id="Path_5790" data-name="Path 5790" d="M219.691,159.37c.18-.006.154,1.188,1.162,2.06s2.288.771,2.294.938c.015.075-.291.225-.831.227a3,3,0,0,1-1.917-.715,2.585,2.585,0,0,1-.9-1.725c-.034-.5.107-.793.189-.784" transform="translate(-148.421 -108.052)" fill="#263238"/>
        <path id="Path_5791" data-name="Path 5791" d="M208.153,114.994c-.116.3-1.217.129-2.519.253-1.3.1-2.36.452-2.525.18-.074-.13.116-.407.545-.687a4.424,4.424,0,0,1,3.843-.33c.472.2.706.443.656.583" transform="translate(-137.33 -77.372)" fill="#263238"/>
        <path id="Path_5792" data-name="Path 5792" d="M243.075,116.234c-.2.245-.956-.032-1.872-.066-.915-.066-1.7.128-1.869-.138-.075-.128.053-.376.4-.6a2.725,2.725,0,0,1,3.014.164c.318.264.418.524.329.644" transform="translate(-161.821 -78.002)" fill="#263238"/>
        <path id="Path_5793" data-name="Path 5793" d="M171.791,141.886c-.121-.056-4.911-1.572-4.871,3.326s4.976,3.847,4.984,3.707-.113-7.032-.113-7.032" transform="translate(-112.869 -96.019)" fill="#ffbe9d"/>
        <path id="Path_5794" data-name="Path 5794" d="M172.995,150.415c-.022-.015-.085.06-.23.128a.861.861,0,0,1-.641.018,2.108,2.108,0,0,1-1-1.886,2.8,2.8,0,0,1,.23-1.223.989.989,0,0,1,.64-.66.438.438,0,0,1,.508.23c.067.136.037.234.063.242s.1-.083.063-.285a.542.542,0,0,0-.2-.305.651.651,0,0,0-.475-.121,1.205,1.205,0,0,0-.89.767,2.882,2.882,0,0,0-.286,1.368,2.214,2.214,0,0,0,1.269,2.1.923.923,0,0,0,.784-.136c.152-.122.176-.232.159-.241" transform="translate(-115.48 -99.359)" fill="#eb996e"/>
        <path id="Path_5795" data-name="Path 5795" d="M197.8,84.645c.789-.451-1.646-2.977-3.62-3.827-2.983-1.286-7.517-2.032-10.233-1.216-3.27.982-5.972,2.654-7.571,5.656a19.169,19.169,0,0,0-2.006,9.87,5.823,5.823,0,0,0,.745,2.98c.706,1.071,2.038,1.73,2.005,3.225a2.043,2.043,0,0,0,.537,1.486c.917.938,2,.024,2.5-.883,1.05-1.936,1.131-4.228,1.189-6.427a14.241,14.241,0,0,0-.391-4.652c-.255-.812-.655-1.577-.864-2.4A2.929,2.929,0,0,1,180.394,86a3.064,3.064,0,0,1,.393-.409,5.157,5.157,0,0,1,5.078-1.05c2.789.929,7.55,2.306,8.771,1.349a7.558,7.558,0,0,0,2.167-2.261Z" transform="translate(-117.891 -53.738)" fill="#263238"/>
        <path id="Path_5796" data-name="Path 5796" d="M190.441,76.818a10.875,10.875,0,0,1,8.327.313,5.612,5.612,0,0,1,3.024,3.2,3.2,3.2,0,0,1-1.55,3.829l-.1.062c-2.089.739-3.459.482-5.566-.2-1.773-.577-3.359-1.632-5.134-2.2a10.061,10.061,0,0,0-5.86-.071,16.335,16.335,0,0,1,6.856-4.931" transform="translate(-124.138 -51.624)" fill="#263238"/>
        <path id="Path_5797" data-name="Path 5797" d="M167.082,103.553a2.1,2.1,0,0,1-.245-.284,3.926,3.926,0,0,1-.522-.942,4.146,4.146,0,0,1-.285-1.676,4.1,4.1,0,0,1,.715-2.13,4.247,4.247,0,0,1,.906-.964,4.682,4.682,0,0,1,1.264-.681,10.856,10.856,0,0,0,2.862-1.2,2.382,2.382,0,0,0,.91-1.326,5.483,5.483,0,0,0,.1-1.726,9.693,9.693,0,0,1,.269-3.7,5.67,5.67,0,0,1,2.293-2.9,8.581,8.581,0,0,1,3.214-1.328,8.181,8.181,0,0,1,3.15,0,6.849,6.849,0,0,1,2.526,1.065,6.641,6.641,0,0,1,2.459,3.05,5.5,5.5,0,0,1,.294,1.034l.039.277a.4.4,0,0,1,.007.095,7.487,7.487,0,0,0-.4-1.381,6.68,6.68,0,0,0-2.466-2.976,6.767,6.767,0,0,0-2.487-1.027,8.087,8.087,0,0,0-3.093.011,8.464,8.464,0,0,0-3.15,1.312,5.518,5.518,0,0,0-2.226,2.82,9.58,9.58,0,0,0-.264,3.642,5.621,5.621,0,0,1-.106,1.777,2.539,2.539,0,0,1-.971,1.408,10.841,10.841,0,0,1-2.907,1.2,4.217,4.217,0,0,0-2.122,1.582,4.021,4.021,0,0,0-.72,2.068,4.147,4.147,0,0,0,.252,1.649,4.831,4.831,0,0,0,.705,1.249" transform="translate(-112.266 -57.319)" fill="#455a64"/>
        <path id="Path_5798" data-name="Path 5798" d="M162.139,100.625a2.719,2.719,0,0,1-.379-.218,4.993,4.993,0,0,1-.948-.817A5.211,5.211,0,0,1,159.8,97.9a4.951,4.951,0,0,1-.2-2.6,5.087,5.087,0,0,1,1.5-2.775,27.719,27.719,0,0,1,2.948-2.145,6.046,6.046,0,0,0,1.382-1.354,6.63,6.63,0,0,0,.878-1.815,37.936,37.936,0,0,1,1.264-4.121,7.8,7.8,0,0,1,2.852-3.226,8.042,8.042,0,0,1,3.823-1.265,8.787,8.787,0,0,1,3.614.53,8.941,8.941,0,0,1,2.74,1.616,9.589,9.589,0,0,1,2.621,3.738,7.318,7.318,0,0,1,.461,1.616.54.54,0,0,1-.034-.106l-.083-.313a10.806,10.806,0,0,0-.405-1.173,9.694,9.694,0,0,0-2.638-3.672,8.871,8.871,0,0,0-2.71-1.575,8.674,8.674,0,0,0-3.556-.506A7.907,7.907,0,0,0,170.5,80a7.652,7.652,0,0,0-2.789,3.159,38.716,38.716,0,0,0-1.261,4.1,6.761,6.761,0,0,1-.9,1.857,6.188,6.188,0,0,1-1.42,1.385,28.208,28.208,0,0,0-2.944,2.121,4.977,4.977,0,0,0-1.475,2.7,4.881,4.881,0,0,0,.174,2.545,5.233,5.233,0,0,0,.977,1.682,5.346,5.346,0,0,0,.918.832c.232.166.364.237.359.245" transform="translate(-107.856 -53.274)" fill="#455a64"/>
        <path id="Path_5799" data-name="Path 5799" d="M212.756,333.048s-13.376-3.1-15.418-3.247c-1.917-.142-2.418,1.052-2.418,1.052s-2.867-.358-3.5,1.307a1.034,1.034,0,0,0,.671,1.465c1.176.495,7.554,1.889,8.866,3.1s12.3,7.422,12.3,7.422l4.433,1.8s1.99-5.173,2.081-6.657a3.924,3.924,0,0,0-.452-2.294s2.759-2.789,3.076-3.913a53.45,53.45,0,0,1,2.307-4.993,2.389,2.389,0,0,0-3.716.335,27.191,27.191,0,0,1-3.386,3.624,6.62,6.62,0,0,1-4.846,1" transform="translate(-129.363 -221.935)" fill="#ffbe9d"/>
        <path id="Path_5800" data-name="Path 5800" d="M215.836,344.323a.516.516,0,0,1-.142-.055l-.392-.186-1.44-.687c-1.222-.568-2.927-1.315-4.859-2.019-.965-.353-1.894-.663-2.745-.928s-1.632-.458-2.26-.732a3,3,0,0,1-1.3-.937,1.659,1.659,0,0,1-.208-.385.505.505,0,0,1-.042-.146,4.1,4.1,0,0,0,.3.492,3.069,3.069,0,0,0,1.29.867c.618.253,1.405.428,2.259.693s1.789.564,2.758.918a49.794,49.794,0,0,1,4.852,2.069c.6.3,1.088.554,1.419.736l.378.215a.527.527,0,0,1,.126.085" transform="translate(-136.895 -229.33)" fill="#eb996e"/>
        <path id="Path_5801" data-name="Path 5801" d="M264.973,343.283a3.881,3.881,0,0,1-2.708,1.425c-.01-.051.675-.185,1.423-.584s1.249-.879,1.285-.842" transform="translate(-177.341 -232.742)" fill="#eb996e"/>
      </g>
    </g>
    <g id="Group_2665" data-name="Group 2665">
      <g id="Group_2664" data-name="Group 2664" clip-path="url(#clip-path)">
        <path id="Path_5802" data-name="Path 5802" d="M146.909,440.549c0,.046-28.851.084-64.432.084s-64.439-.037-64.439-.084,28.845-.084,64.439-.084,64.432.037,64.432.084" transform="translate(-12.197 -298.633)" fill="#263238"/>
      </g>
    </g>
    <path id="Path_5803" data-name="Path 5803" d="M.26,113.547v17.439H38.59l2.613,2.6v-2.6H42.88V113.547Z" transform="translate(-0.176 -76.984)" fill="#fff"/>
    <g id="Group_2673" data-name="Group 2673">
      <g id="Group_2672" data-name="Group 2672" clip-path="url(#clip-path)">
        <path id="Path_5804" data-name="Path 5804" d="M42.7,113.38s0,.1.006.3,0,.5.006.887c0,.788.008,1.944.015,3.439.007,3.008.018,7.372.032,12.816v.058H42.7l-1.677,0,.061-.061c0,.8,0,1.688,0,2.6v.154l-.109-.109-2.615-2.6.048.02-36.48.016H0v-.084c0-6.119,0-12,0-17.439v-.08h.08l30.641.038,8.826.022,2.349.01.6,0c.135,0,.2,0,.2,0s-.073,0-.211,0l-.612,0-2.365.01-8.845.022-30.587.038.08-.08c0,5.437,0,11.32,0,17.439l-.084-.084h1.85l36.48.016h.028l.02.02,2.61,2.6-.109.045c0-.91,0-1.8,0-2.6v-.061h.061l1.677,0-.058.058c.013-5.429.024-9.782.031-12.781.006-1.5.011-2.661.015-3.452q0-.588.006-.9c0-.2.006-.309.006-.309" transform="translate(0 -76.817)" fill="#263238"/>
        <path id="Path_5805" data-name="Path 5805" d="M75.52,130.5H55.98a.694.694,0,0,1-.7-.692v-.074a.694.694,0,0,1,.7-.692H75.52a.694.694,0,0,1,.7.692v.074a.694.694,0,0,1-.7.692" transform="translate(-37.382 -87.491)" fill="#e0e0e0"/>
        <path id="Path_5806" data-name="Path 5806" d="M75.52,140.6H55.98a.694.694,0,0,1-.7-.692v-.074a.694.694,0,0,1,.7-.692H75.52a.694.694,0,0,1,.7.692v.074a.694.694,0,0,1-.7.692" transform="translate(-37.382 -94.337)" fill="#e0e0e0"/>
        <path id="Path_5807" data-name="Path 5807" d="M75.52,150.7H55.98a.694.694,0,0,1-.7-.692v-.074a.694.694,0,0,1,.7-.692H75.52a.694.694,0,0,1,.7.692v.074a.694.694,0,0,1-.7.692" transform="translate(-37.382 -101.184)" fill="#e0e0e0"/>
        <path id="Path_5808" data-name="Path 5808" d="M20.482,135.478H12.6a1.444,1.444,0,0,1-1.448-1.44V126.2a1.444,1.444,0,0,1,1.448-1.441h7.886a1.445,1.445,0,0,1,1.448,1.441v7.842a1.445,1.445,0,0,1-1.448,1.44" transform="translate(-7.538 -84.583)" fill="#455a64"/>
        <path id="Path_5809" data-name="Path 5809" d="M13.92,142.181l-.248-.207,2.18-2.576a.8.8,0,0,1,1.086-.19l1.285.852,1.513-1.9a.8.8,0,0,1,1.213-.046l1.865,2.006-.238.219-1.865-2.006a.469.469,0,0,0-.367-.151.475.475,0,0,0-.354.179l-1.7,2.135-1.533-1.017a.475.475,0,0,0-.65.119Z" transform="translate(-9.245 -93.466)" fill="#fff"/>
        <path id="Path_5810" data-name="Path 5810" d="M23.771,131.383a.964.964,0,1,1-.964-.959.961.961,0,0,1,.964.959" transform="translate(-14.77 -88.427)" fill="#fff"/>
        <path id="Path_5811" data-name="Path 5811" d="M287.972,211.712H249.227v16.416h4l.422,3.616,2.984-3.616h31.342Z" transform="translate(-168.524 -143.54)" fill="#fff"/>
        <path id="Path_5812" data-name="Path 5812" d="M287.8,211.545s0,.093.006.28,0,.471.006.836c0,.743.008,1.833.015,3.24.007,2.834.018,6.942.032,12.059v.059H287.8l-31.342.024.064-.03-2.984,3.617-.126.152-.023-.2-.423-3.616.084.074h-4.081v-.084c0-5.765,0-11.3,0-16.415v-.079h.08l27.877.038,8.011.022,2.129.01.546,0c.122,0,.182,0,.182,0s-.066,0-.192,0l-.555,0-2.145.01-8.029.022-27.824.038.079-.079c0,5.116,0,10.65,0,16.415l-.084-.084h4.072l.008.074.422,3.616-.148-.043,2.985-3.616.025-.03h.039l31.342.024-.059.058c.013-5.1.024-9.2.032-12.024.006-1.413.011-2.507.015-3.253q0-.554.006-.847c0-.191.006-.292.006-.292" transform="translate(-168.348 -143.373)" fill="#263238"/>
        <path id="Path_5813" data-name="Path 5813" d="M320.875,224.545H305.488a.773.773,0,1,1,0-1.545h15.387a.773.773,0,1,1,0,1.545" transform="translate(-206.042 -151.193)" fill="#e0e0e0"/>
        <path id="Path_5814" data-name="Path 5814" d="M320.875,235.25H305.488a.773.773,0,1,1,0-1.545h15.387a.773.773,0,1,1,0,1.545" transform="translate(-206.042 -158.451)" fill="#e0e0e0"/>
        <path id="Path_5815" data-name="Path 5815" d="M320.875,245.954H305.488a.773.773,0,1,1,0-1.545h15.387a.773.773,0,1,1,0,1.545" transform="translate(-206.042 -165.708)" fill="#e0e0e0"/>
        <path id="Path_5816" data-name="Path 5816" d="M267.905,229.821h-8.534a1.445,1.445,0,0,1-1.448-1.44v-8.486a1.444,1.444,0,0,1,1.448-1.44h8.534a1.444,1.444,0,0,1,1.448,1.44v8.486a1.445,1.445,0,0,1-1.448,1.44" transform="translate(-174.405 -148.111)" fill="#ebebeb"/>
        <path id="Path_5817" data-name="Path 5817" d="M260.869,236.94l-.248-.208,2.311-2.73a.834.834,0,0,1,1.139-.2l1.369.908,1.609-2.023a.84.84,0,0,1,.625-.315.851.851,0,0,1,.647.266l1.978,2.127-.238.219-1.978-2.127a.509.509,0,0,0-.4-.164.515.515,0,0,0-.383.194l-1.795,2.256-1.618-1.073a.513.513,0,0,0-.7.128Z" transform="translate(-176.229 -157.547)" fill="#fff"/>
        <path id="Path_5818" data-name="Path 5818" d="M271.306,225.479a1.022,1.022,0,1,1-1.022-1.016,1.019,1.019,0,0,1,1.022,1.016" transform="translate(-182.072 -152.185)" fill="#fff"/>
        <path id="Path_5819" data-name="Path 5819" d="M54.067,200.824H23.222a2.025,2.025,0,0,0-2.031,2.019v17.846a1.776,1.776,0,0,0,1.781,1.771H48.11l3.953,3.931V222.46h1.465a2.142,2.142,0,0,0,2.148-2.136v-17.9a1.6,1.6,0,0,0-1.609-1.6" transform="translate(-14.329 -136.158)" fill="#fff"/>
        <path id="Path_5820" data-name="Path 5820" d="M55.495,205.027H21.372a.181.181,0,0,1-.181-.18v-1.874a2.155,2.155,0,0,1,2.161-2.149H54.1a1.567,1.567,0,0,1,1.571,1.562v2.461a.181.181,0,0,1-.181.18" transform="translate(-14.329 -136.157)" fill="#e0e0e0"/>
        <path id="Path_5821" data-name="Path 5821" d="M40.937,234.848H33.511a1.444,1.444,0,0,1-1.448-1.44v-7.385a1.445,1.445,0,0,1,1.448-1.441h7.426a1.445,1.445,0,0,1,1.448,1.441v7.385a1.444,1.444,0,0,1-1.448,1.44" transform="translate(-21.681 -152.266)" fill="#ff725e"/>
        <g id="Group_2668" data-name="Group 2668" transform="translate(11.283 76.437)" opacity="0.3">
          <g id="Group_2667" data-name="Group 2667">
            <g id="Group_2666" data-name="Group 2666" clip-path="url(#clip-path-11)">
              <path id="Path_5822" data-name="Path 5822" d="M43.365,239.565a2.526,2.526,0,0,1-.343-.321l-.89-.917-.608-.639a.541.541,0,0,0-.792.021l-1.438,1.815-.111.14-.048.061-.065-.043-1.115-.743-.26-.172a.531.531,0,0,0-.255-.072.539.539,0,0,0-.445.219l0,0,0,0-1.534,1.765-.442.49a.9.9,0,0,1-.169.164.9.9,0,0,1,.133-.194l.41-.517,1.487-1.8,0,0a.689.689,0,0,1,.9-.2c.1.06.178.116.27.175l1.118.738-.113.018.111-.14,1.453-1.813a.685.685,0,0,1,1.011-.014l.594.653.851.954a2.517,2.517,0,0,1,.295.365" transform="translate(-34.845 -237.377)"/>
            </g>
          </g>
        </g>
        <g id="Group_2671" data-name="Group 2671" transform="translate(13.698 74.065)" opacity="0.3">
          <g id="Group_2670" data-name="Group 2670">
            <g id="Group_2669" data-name="Group 2669" clip-path="url(#clip-path-12)">
              <path id="Path_5823" data-name="Path 5823" d="M44.149,230.928a.923.923,0,1,1-.923-.918.92.92,0,0,1,.923.918" transform="translate(-42.303 -230.01)"/>
            </g>
          </g>
        </g>
        <path id="Path_5824" data-name="Path 5824" d="M53.891,200.667a1.34,1.34,0,0,1,.456.055,1.617,1.617,0,0,1,1.009.837,1.9,1.9,0,0,1,.171.962q0,.54,0,1.177c0,.85.006,1.827.009,2.922,0,2.193.01,4.861.017,7.931,0,1.536,0,3.172.007,4.9a3.692,3.692,0,0,1-.132,1.32,2.385,2.385,0,0,1-2.121,1.592c-.475.014-.943,0-1.423.008l.07-.069c0,1.229,0,2.562,0,3.931v.176l-.125-.125-3.956-3.928.055.023-22.538.007H23.177a3.9,3.9,0,0,1-.749-.036,1.866,1.866,0,0,1-1.22-.848,1.845,1.845,0,0,1-.257-.707,6.223,6.223,0,0,1-.021-.732q0-2.877,0-5.666c0-3.715,0-7.3,0-10.711q0-.32,0-.638a5.137,5.137,0,0,1,.021-.643,2.074,2.074,0,0,1,.555-1.156,2.124,2.124,0,0,1,1.111-.616,3.145,3.145,0,0,1,.629-.041h.612l4.731,0,8.491.01,12.3.027,3.343.015.869.008c.2,0,.3.009.3.009s-.1.006-.3.009l-.869.008-3.343.015-12.3.027-8.491.01-4.731,0a8.661,8.661,0,0,0-1.211.04,1.969,1.969,0,0,0-1.03.574,1.918,1.918,0,0,0-.514,1.073,4.976,4.976,0,0,0-.019.623q0,.318,0,.638c0,3.413,0,7,0,10.711q0,2.786,0,5.666a6.194,6.194,0,0,0,.019.708,1.671,1.671,0,0,0,.233.643,1.7,1.7,0,0,0,1.11.771,3.808,3.808,0,0,0,.716.033H25.4l22.538.007h.032l.023.023,3.95,3.934-.125.052c0-1.369,0-2.7,0-3.931v-.069h.07c.477,0,.956.007,1.416,0a2.252,2.252,0,0,0,2.005-1.5,3.577,3.577,0,0,0,.129-1.277c0-1.729,0-3.365.007-4.9.006-3.07.012-5.738.017-7.931,0-1.1.006-2.072.009-2.922q0-.637,0-1.177a1.857,1.857,0,0,0-.156-.944,1.606,1.606,0,0,0-.977-.835,2.322,2.322,0,0,0-.449-.075" transform="translate(-14.153 -136)" fill="#263238"/>
        <path id="Path_5825" data-name="Path 5825" d="M27.343,205.6a.726.726,0,1,1-.726-.722.724.724,0,0,1,.726.722" transform="translate(-17.507 -138.909)" fill="#fff"/>
        <path id="Path_5826" data-name="Path 5826" d="M34.09,205.6a.726.726,0,1,1-.726-.722.724.724,0,0,1,.726.722" transform="translate(-22.069 -138.909)" fill="#fff"/>
        <path id="Path_5827" data-name="Path 5827" d="M40.836,205.6a.726.726,0,1,1-.726-.722.724.724,0,0,1,.726.722" transform="translate(-26.63 -138.909)" fill="#fff"/>
        <path id="Path_5828" data-name="Path 5828" d="M87.152,230.64c0,.046-2.819.084-6.3.084s-6.3-.037-6.3-.084,2.818-.084,6.3-.084,6.3.037,6.3.084" transform="translate(-50.417 -156.316)" fill="#263238"/>
        <path id="Path_5829" data-name="Path 5829" d="M87.152,238.009c0,.046-2.819.084-6.3.084s-6.3-.037-6.3-.084,2.818-.084,6.3-.084,6.3.037,6.3.084" transform="translate(-50.417 -161.312)" fill="#263238"/>
        <path id="Path_5830" data-name="Path 5830" d="M87.152,245.378c0,.046-2.819.084-6.3.084s-6.3-.037-6.3-.084,2.818-.084,6.3-.084,6.3.037,6.3.084" transform="translate(-50.417 -166.308)" fill="#263238"/>
        <path id="Path_5831" data-name="Path 5831" d="M289.675,137.737h33.044v16.6H295.481l-3.033,3.017V154.34h-2.773Z" transform="translate(-195.875 -93.385)" fill="#fff"/>
        <path id="Path_5832" data-name="Path 5832" d="M289.545,137.572s0,.1.006.3,0,.486.007.862c0,.76.009,1.872.015,3.3.008,2.866.019,7.008.033,12.14l-.062-.061,2.773,0h.065v.065c0,.939,0,1.963,0,3.017l-.118-.049,3.03-3.02.022-.021h.03l25.09-.011h2.147l-.084.084c0-5.856,0-11.454.006-16.6l.078.078-23.758-.038L292,137.591l-1.822-.01-.472,0c-.106,0-.163,0-.163,0s.05,0,.154,0l.463,0,1.806-.01,6.811-.021,23.81-.038h.079v.078c0,5.149,0,10.747.005,16.6v.084h-2.231l-25.09-.011.052-.022-3.037,3.014-.118.118v-.166c0-1.053,0-2.078,0-3.017l.066.065-2.773,0h-.062v-.062c.014-5.147.025-9.3.033-12.177.006-1.426.012-2.534.015-3.29q0-.556.007-.851c0-.191.007-.285.007-.285" transform="translate(-195.745 -93.22)" fill="#263238"/>
        <path id="Path_5833" data-name="Path 5833" d="M328.464,153.288c0,.046-4.939.084-11.031.084s-11.032-.037-11.032-.084,4.938-.084,11.032-.084,11.031.037,11.031.084" transform="translate(-207.185 -103.871)" fill="#263238"/>
        <path id="Path_5834" data-name="Path 5834" d="M328.464,160.657c0,.046-4.939.084-11.031.084s-11.032-.037-11.032-.084,4.938-.084,11.032-.084,11.031.037,11.031.084" transform="translate(-207.185 -108.868)" fill="#263238"/>
        <path id="Path_5835" data-name="Path 5835" d="M328.464,168.026c0,.046-4.939.084-11.031.084s-11.032-.037-11.032-.084,4.938-.084,11.032-.084,11.031.037,11.031.084" transform="translate(-207.185 -113.864)" fill="#263238"/>
        <path id="Path_5836" data-name="Path 5836" d="M87.726,40.524H64.3v16.6H81.92l3.033,3.017V57.127h2.773Z" transform="translate(-43.481 -27.475)" fill="#fff"/>
        <path id="Path_5837" data-name="Path 5837" d="M87.551,40.366s0,.1.007.29,0,.489.008.864c0,.768.01,1.888.017,3.322.008,2.893.02,7.05.035,12.126v.067h-.067l-2.773,0,.071-.071c0,.944,0,1.967,0,3.017v.179l-.128-.127-3.036-3.014.056.023-15.469.006H64.044v-.084c0-5.98.006-11.62.009-16.6v-.075h.075l16.959.038,4.778.02,1.258.009.322,0c.071,0,.106,0,.106,0s-.04,0-.115,0l-.329,0-1.273.009-4.8.02-16.91.038.075-.075c0,4.983.006,10.623.009,16.6l-.084-.084h2.147l15.469.006h.033l.023.023,3.031,3.019-.127.052c0-1.05,0-2.073,0-3.017V56.9h.071l2.773,0-.067.067c.015-5.059.027-9.2.035-12.085.007-1.441.013-2.566.017-3.338,0-.381.006-.673.008-.876s.007-.3.007-.3" transform="translate(-43.306 -27.317)" fill="#263238"/>
        <path id="Path_5838" data-name="Path 5838" d="M81.03,56.076c0-.046,2.819-.084,6.3-.084s6.3.037,6.3.084-2.818.084-6.3.084-6.3-.037-6.3-.084" transform="translate(-54.792 -37.962)" fill="#263238"/>
        <path id="Path_5839" data-name="Path 5839" d="M81.03,63.444c0-.046,2.819-.084,6.3-.084s6.3.037,6.3.084-2.818.084-6.3.084-6.3-.037-6.3-.084" transform="translate(-54.792 -42.958)" fill="#263238"/>
        <path id="Path_5840" data-name="Path 5840" d="M81.03,70.813c0-.046,2.819-.084,6.3-.084s6.3.037,6.3.084-2.818.084-6.3.084-6.3-.037-6.3-.084" transform="translate(-54.792 -47.954)" fill="#263238"/>
        <path id="Path_5841" data-name="Path 5841" d="M184.607.435h-16.18v16.09h1.547v2.4l2.41-2.4h12.222Z" transform="translate(-113.888 -0.295)" fill="#fff"/>
        <path id="Path_5842" data-name="Path 5842" d="M184.431.284s.005.095.008.286,0,.483.008.85c0,.756.011,1.855.019,3.251.009,2.823.021,6.852.037,11.7v.071h-.072l-12.222.012.059-.024-2.41,2.4-.143.143v-.2c0-.711,0-1.472,0-2.239v-.158l.085.084h-1.632v-.084c0-5.908.009-11.409.013-16.09V.213h.072L180.015.25l3.272.019.856.008c.193,0,.288.008.288.008s-.106.005-.3.008l-.87.008-3.288.019L168.251.356l.072-.071c0,4.681.008,10.182.013,16.09l-.084-.084h1.632v2.481l-.144-.059,2.411-2.4.024-.024h.035l12.222.012-.072.071c.015-4.832.028-8.845.037-11.657.008-1.4.014-2.507.019-3.268,0-.373.006-.662.008-.864s.008-.3.008-.3" transform="translate(-113.713 -0.144)" fill="#263238"/>
        <path id="Path_5843" data-name="Path 5843" d="M185.553,15.535a2.432,2.432,0,0,0,1.458-2.251,2.3,2.3,0,1,0-4.589-.021,2.429,2.429,0,0,0,1.462,2.272c-3.531.529-3.371,4.346-3.371,4.346l8.35.038s.19-3.858-3.31-4.384" transform="translate(-122.06 -7.349)" fill="#455a64"/>
        <path id="Path_5844" data-name="Path 5844" d="M326.092,66.97h16.18V83.06h-1.548v2.4l-2.41-2.4H326.092Z" transform="translate(-220.5 -45.405)" fill="#fff"/>
        <path id="Path_5845" data-name="Path 5845" d="M325.942,66.819s.005.105.008.3,0,.491.008.864c0,.76.011,1.864.019,3.268.009,2.812.021,6.825.037,11.657l-.072-.071,12.223-.012h.034l.024.024,2.411,2.4-.143.059c0-.711,0-1.472,0-2.239v-.241h1.632l-.084.084c0-5.908.009-11.409.013-16.09l.072.071L330.4,66.854l-3.288-.019-.87-.008c-.2,0-.3-.008-.3-.008s.1-.005.288-.008l.856-.008,3.272-.019,11.764-.036h.072v.071c0,4.681.008,10.182.012,16.09v.084h-1.632l.085-.084v.158c0,.767,0,1.528,0,2.239v.2l-.143-.143-2.41-2.4.059.024-12.223-.012h-.072v-.071c.015-4.85.028-8.879.037-11.7.008-1.4.015-2.495.019-3.251,0-.367.006-.651.008-.85s.008-.286.008-.286" transform="translate(-220.35 -45.255)" fill="#263238"/>
        <path id="Path_5846" data-name="Path 5846" d="M346.794,80.7A3.937,3.937,0,0,0,338.984,80a3.878,3.878,0,0,0,.482,2.671h0l.011.015c.151.253.34.434.531.7l2.285,3.01a.713.713,0,0,0,1.134,0l2.247-2.96a8.439,8.439,0,0,0,.572-.753l.008-.011h0a3.87,3.87,0,0,0,.543-1.977m-3.935,1.7a1.722,1.722,0,1,1,1.732-1.722,1.727,1.727,0,0,1-1.732,1.722" transform="translate(-229.176 -52.057)" fill="#ff725e"/>
        <path id="Path_5847" data-name="Path 5847" d="M182.531,238.5H165.694a1.527,1.527,0,0,0-1.532,1.523v15.441a1.528,1.528,0,0,0,1.532,1.523h13.822l2.77,2.754v-2.754h.246a1.527,1.527,0,0,0,1.532-1.523V240.027a1.527,1.527,0,0,0-1.532-1.523" transform="translate(-111.004 -161.704)" fill="#fff"/>
        <path id="Path_5848" data-name="Path 5848" d="M182.355,238.358a1.206,1.206,0,0,1,.378.037,1.531,1.531,0,0,1,1.176,1.373c.013.3.007.619.011.969,0,.7.006,1.5.01,2.394,0,1.795.011,3.97.017,6.462,0,1.247,0,2.573.007,3.97q0,.524,0,1.061,0,.269,0,.54a2,2,0,0,1-.052.56,1.6,1.6,0,0,1-.663.928,1.572,1.572,0,0,1-.545.23,2.723,2.723,0,0,1-.587.038l.074-.074c0,.861,0,1.8,0,2.754v.185l-.132-.131-2.772-2.752.057.024-11.862,0-2.017,0a1.606,1.606,0,0,1-1.512-1.227,1.94,1.94,0,0,1-.046-.506v-.488q0-.487,0-.97,0-.967,0-1.917c0-2.534,0-4.978,0-7.306q0-1.746,0-3.4,0-.413,0-.821v-.406a1.655,1.655,0,0,1,.057-.417,1.6,1.6,0,0,1,1.118-1.12,2.848,2.848,0,0,1,.787-.058h.76l1.479,0,2.779.005,8.386.027,2.28.015.593.008c.134,0,.2.009.2.009s-.068.006-.2.009l-.593.008-2.28.015-8.386.027-2.779.005-1.479,0h-.76a2.732,2.732,0,0,0-.75.056,1.453,1.453,0,0,0-1.016,1.023,2.98,2.98,0,0,0-.051.785q0,.408,0,.821,0,1.654,0,3.4c0,2.328,0,4.772,0,7.306q0,.95,0,1.917,0,.483,0,.97a4.965,4.965,0,0,0,.042.954,1.437,1.437,0,0,0,1.355,1.1l2.011,0,11.862,0h.033l.024.023,2.767,2.756-.131.054c0-.957,0-1.893,0-2.754v-.073h.074a2.6,2.6,0,0,0,.556-.033,1.433,1.433,0,0,0,.5-.208,1.457,1.457,0,0,0,.606-.843,1.836,1.836,0,0,0,.05-.525q0-.271,0-.54,0-.537,0-1.061c0-1.4,0-2.723.007-3.97.007-2.492.013-4.667.017-6.462,0-.9.007-1.7.01-2.394,0-.347.009-.673,0-.964a1.494,1.494,0,0,0-.254-.739,1.531,1.531,0,0,0-.871-.615,2.733,2.733,0,0,0-.372-.059" transform="translate(-110.828 -161.559)" fill="#263238"/>
        <path id="Path_5849" data-name="Path 5849" d="M185.432,261.351h-8.582a2.478,2.478,0,0,1-2.485-2.471v-6.4a2.478,2.478,0,0,1,2.485-2.47h8.582a2.478,2.478,0,0,1,2.485,2.47v6.4a2.478,2.478,0,0,1-2.485,2.471" transform="translate(-117.904 -169.505)" fill="#455a64"/>
        <path id="Path_5850" data-name="Path 5850" d="M190.883,264.713a.528.528,0,0,1-.793-.455v-4.077a.528.528,0,0,1,.793-.455l1.775,1.019,1.775,1.02a.524.524,0,0,1,0,.91l-1.775,1.019Z" transform="translate(-128.537 -176.045)" fill="#fff"/>
      </g>
    </g>
    <g id="Group_2675" data-name="Group 2675">
      <g id="Group_2674" data-name="Group 2674" clip-path="url(#clip-path)">
        <path id="Path_5851" data-name="Path 5851" d="M273.253,11.685A11.535,11.535,0,1,1,261.718.214a11.5,11.5,0,0,1,11.535,11.471" transform="translate(-169.171 -0.145)" fill="#fff"/>
        <path id="Path_5852" data-name="Path 5852" d="M273.077,11.54s-.009-.063-.018-.186-.02-.309-.036-.544q-.011-.18-.024-.4c-.016-.147-.048-.306-.074-.479a8.375,8.375,0,0,0-.241-1.183,10.92,10.92,0,0,0-1.278-3.041A11.522,11.522,0,0,0,263.658.341a10.727,10.727,0,0,0-1.45-.166c-.247-.008-.5-.032-.747-.028L260.7.185c-.127.009-.256.008-.383.025l-.382.059c-.255.042-.514.072-.771.125a12.207,12.207,0,0,0-1.528.446,11.966,11.966,0,0,0-1.494.653c-.242.13-.474.282-.713.424a5.852,5.852,0,0,0-.691.474,12.846,12.846,0,0,0-1.3,1.1,12.913,12.913,0,0,0-1.122,1.32,11.014,11.014,0,0,0-1.637,3.137,12.1,12.1,0,0,0-.591,3.593,12.113,12.113,0,0,0,.59,3.594l.311.844.389.8a2.83,2.83,0,0,0,.213.389l.23.377.231.375.264.35a12.879,12.879,0,0,0,1.122,1.321,12.885,12.885,0,0,0,1.3,1.1,5.882,5.882,0,0,0,.691.474c.24.141.471.293.713.424a12.018,12.018,0,0,0,1.494.653,12.151,12.151,0,0,0,1.528.446c.256.053.516.082.771.125l.382.059c.127.017.256.016.383.025l.759.039c.251,0,.5-.02.747-.028a10.727,10.727,0,0,0,1.45-.166,11.524,11.524,0,0,0,7.748-5.366,10.907,10.907,0,0,0,1.278-3.041,8.332,8.332,0,0,0,.241-1.183c.026-.173.058-.332.074-.479s.017-.28.024-.4c.016-.235.028-.415.036-.544s.018-.186.018-.186,0,.063,0,.186-.011.311-.019.546c-.005.121-.01.255-.017.4s-.042.308-.066.482a8.126,8.126,0,0,1-.227,1.192,10.845,10.845,0,0,1-1.261,3.073,11.593,11.593,0,0,1-7.8,5.454,10.819,10.819,0,0,1-1.467.173c-.25.009-.5.034-.757.031l-.768-.038c-.129-.008-.259-.007-.388-.024l-.387-.058c-.259-.042-.522-.071-.781-.125a12.315,12.315,0,0,1-1.55-.449,12.158,12.158,0,0,1-1.516-.66c-.245-.132-.481-.286-.724-.429a5.97,5.97,0,0,1-.7-.479,13,13,0,0,1-1.319-1.112,13.018,13.018,0,0,1-1.14-1.338l-.267-.355-.234-.38-.234-.383a2.863,2.863,0,0,1-.217-.394l-.4-.815-.316-.856a12.252,12.252,0,0,1-.6-3.646,12.255,12.255,0,0,1,.6-3.645,11.145,11.145,0,0,1,1.663-3.182,13.022,13.022,0,0,1,1.14-1.338,13.043,13.043,0,0,1,1.319-1.112,5.951,5.951,0,0,1,.7-.479c.243-.143.478-.3.724-.428a12.057,12.057,0,0,1,1.516-.659,12.275,12.275,0,0,1,1.549-.449c.26-.053.523-.083.781-.125L260.3.062c.129-.017.259-.016.388-.024L261.46,0c.254,0,.506.022.756.031A10.767,10.767,0,0,1,263.684.2a11.591,11.591,0,0,1,7.8,5.454,10.836,10.836,0,0,1,1.261,3.073,8.126,8.126,0,0,1,.227,1.192c.024.174.053.334.066.482s.011.282.017.4c.008.236.015.417.019.546s0,.186,0,.186" transform="translate(-168.995 0)" fill="#263238"/>
        <path id="Path_5853" data-name="Path 5853" d="M279.3,27.505a1.983,1.983,0,0,0,1.042-.28q.216-.2.216-1.1V22.463a2.317,2.317,0,0,0-.07-.691.466.466,0,0,0-.486-.315.913.913,0,0,0-.166.015q-.081.015-.467.123v-.238l.332-.107q1.35-.438,1.883-.66a1.014,1.014,0,0,1,.277-.092.415.415,0,0,1,.016.115v5.51a1.793,1.793,0,0,0,.212,1.1,1.588,1.588,0,0,0,.961.284v.215H279.3Zm1.227-10.261a.768.768,0,0,1,.571-.237.8.8,0,0,1,.8.8.763.763,0,0,1-.235.562.812.812,0,0,1-1.139,0,.769.769,0,0,1-.232-.562.781.781,0,0,1,.232-.565" transform="translate(-188.859 -11.531)" fill="#263238"/>
        <path id="Path_5854" data-name="Path 5854" d="M254.249,71.432a1.814,1.814,0,1,1-1.814-1.8,1.809,1.809,0,0,1,1.814,1.8" transform="translate(-169.466 -47.207)" fill="#fff"/>
        <path id="Path_5855" data-name="Path 5855" d="M254.072,71.282c-.017,0-.013-.161-.089-.432a1.8,1.8,0,0,0-.664-.954,1.766,1.766,0,0,0-1.653-.235,1.725,1.725,0,0,0,0,3.244,1.768,1.768,0,0,0,1.653-.235,1.8,1.8,0,0,0,.664-.954c.076-.272.071-.433.088-.432s.009.04.011.116a1.37,1.37,0,0,1-.036.333,1.8,1.8,0,0,1-.655,1.033,1.876,1.876,0,1,1,0-2.962,1.793,1.793,0,0,1,.656,1.033,1.37,1.37,0,0,1,.036.333c0,.076-.005.116-.011.116" transform="translate(-169.29 -47.057)" fill="#263238"/>
      </g>
    </g>
  </g>
</svg>
