<svg xmlns="http://www.w3.org/2000/svg" xmlns:xlink="http://www.w3.org/1999/xlink" width="405.67" height="382.5" viewBox="0 0 405.67 382.5">
  <defs>
    <clipPath id="clip-path">
      <rect id="Rectangle_2631" data-name="Rectangle 2631" width="405.67" height="382.5" fill="none"/>
    </clipPath>
  </defs>
  <g id="Group_2880" data-name="Group 2880" transform="translate(0 0.004)">
    <rect id="Rectangle_2614" data-name="Rectangle 2614" width="250.703" height="249.738" transform="translate(76.637 76.455)" fill="#aae0ff"/>
    <g id="Group_2879" data-name="Group 2879" transform="translate(0 -0.004)">
      <g id="Group_2878" data-name="Group 2878" transform="translate(0 0)" clip-path="url(#clip-path)">
        <path id="Path_6129" data-name="Path 6129" d="M2.215,2093.312H403.455a2.215,2.215,0,0,0,0-4.43H2.215a2.215,2.215,0,0,0,0,4.43" transform="translate(0 -1710.812)" fill="#2d5b98"/>
        <path id="Path_6130" data-name="Path 6130" d="M508.165,1752.125h0a22.42,22.42,0,0,1-22.42-22.42V1699.14h44.841V1729.7a22.42,22.42,0,0,1-22.42,22.42" transform="translate(-397.829 -1391.61)" fill="#5896fa"/>
        <rect id="Rectangle_2615" data-name="Rectangle 2615" width="2.485" height="47.441" transform="translate(85.431 330.628)" fill="#0e0e0e"/>
        <rect id="Rectangle_2616" data-name="Rectangle 2616" width="2.485" height="47.441" transform="translate(132.756 330.628)" fill="#0e0e0e"/>
        <rect id="Rectangle_2617" data-name="Rectangle 2617" width="2.485" height="47.441" transform="translate(113.74 330.628)" fill="#0e0e0e"/>
        <rect id="Rectangle_2618" data-name="Rectangle 2618" width="47.441" height="2.485" transform="translate(85.431 360.515)" fill="#0e0e0e"/>
        <path id="Path_6131" data-name="Path 6131" d="M650.6,1409.63c2.706,3.9-2.741,7.256-3.589,12.658s5.34,8.442-1.223,15.516c-4.042,4.357-7.454-1.43-10.74,5.246s-.7,7.8-4.39,10.2c-6.438,4.189-16.288-5.069-12.975-11.737s10.013-6.073,6.913-11.56-4.253-7.851,1.093-10.671c6.617-3.49,12.448-.285,12.98-5.39s8.351-9.422,11.931-4.267" transform="translate(-505.342 -1152.596)" fill="#ffca59"/>
        <path id="Path_6132" data-name="Path 6132" d="M641.229,1492.749l-1.114-.22c5.217-26.368,22.512-44.833,22.686-45.016l.823.781c-.172.181-17.245,18.419-22.4,44.454" transform="translate(-524.26 -1185.525)" fill="#0e0e0e"/>
        <path id="Path_6133" data-name="Path 6133" d="M320.747,1348.037c-2.8,5.7,5.086,9.051,7.295,16.03s-5.924,9.444,4.183,17.485c6.225,4.953,7.528,1.856,9.817,12.935,2.015,9.754,9.426.473,14.968,6.2,7.151,7.386,18.325-8.826,12.6-16.985s-12.405-6.049-9.406-13.934-.578-13.825-8.22-16.482c-9.458-3.288-12.86,4.65-14.591-2s-12.946-10.789-16.646-3.247" transform="translate(-262.209 -1100.744)" fill="#ed5a24"/>
        <path id="Path_6134" data-name="Path 6134" d="M411.439,1450.6c-12.059-33.436-38.313-54.119-38.577-54.324l.933-1.2c.267.208,26.867,21.163,39.074,55.008Z" transform="translate(-305.377 -1142.579)" fill="#0e0e0e"/>
        <circle id="Ellipse_142" data-name="Ellipse 142" cx="95.89" cy="95.89" r="95.89" transform="translate(43.03 23.68)" fill="none" stroke="#2e77e6" stroke-width="8.731" stroke-dasharray="13.096 13.096"/>
        <path id="Path_6135" data-name="Path 6135" d="M605.03,539.058a16.893,16.893,0,0,0-32.3-8.856,11.8,11.8,0,0,0-19.651,8.813h-2.2a11.436,11.436,0,0,0-11.4,11.4h0a11.436,11.436,0,0,0,11.4,11.4h53.315a11.436,11.436,0,0,0,11.4-11.4h0a11.432,11.432,0,0,0-10.561-11.36" transform="translate(-441.832 -425.782)" fill="#fff"/>
        <path id="Path_6136" data-name="Path 6136" d="M616.94,1000.827H545.559a4.35,4.35,0,0,1-4.35-4.35V936.592a4.35,4.35,0,0,1,4.35-4.35H616.94a4.35,4.35,0,0,1,4.35,4.35v59.885a4.35,4.35,0,0,1-4.35,4.35" transform="translate(-443.255 -763.514)" fill="#5896fa"/>
        <path id="Path_6137" data-name="Path 6137" d="M664.938,1135.052H616.662a2.872,2.872,0,1,1,0-5.744h48.276a2.872,2.872,0,1,1,0,5.744" transform="translate(-502.699 -924.913)" fill="#fff"/>
        <path id="Path_6138" data-name="Path 6138" d="M664.938,1186.166H616.662a2.872,2.872,0,1,1,0-5.744h48.276a2.872,2.872,0,1,1,0,5.744" transform="translate(-502.699 -966.775)" fill="#fff"/>
        <path id="Path_6139" data-name="Path 6139" d="M670.314,1193.122a1.011,1.011,0,1,1-1.011-1.011,1.011,1.011,0,0,1,1.011,1.011" transform="translate(-547.337 -976.349)" fill="#80b2ff"/>
        <path id="Path_6140" data-name="Path 6140" d="M689.47,1193.122a1.011,1.011,0,1,1-1.011-1.011,1.011,1.011,0,0,1,1.011,1.011" transform="translate(-563.026 -976.349)" fill="#80b2ff"/>
        <path id="Path_6141" data-name="Path 6141" d="M708.627,1193.122a1.011,1.011,0,1,1-1.011-1.011,1.011,1.011,0,0,1,1.011,1.011" transform="translate(-578.716 -976.349)" fill="#80b2ff"/>
        <path id="Path_6142" data-name="Path 6142" d="M727.783,1193.122a1.011,1.011,0,1,1-1.011-1.011,1.011,1.011,0,0,1,1.011,1.011" transform="translate(-594.405 -976.349)" fill="#80b2ff"/>
        <path id="Path_6143" data-name="Path 6143" d="M746.939,1193.122a1.011,1.011,0,1,1-1.011-1.011,1.011,1.011,0,0,1,1.011,1.011" transform="translate(-610.094 -976.349)" fill="#80b2ff"/>
        <path id="Path_6144" data-name="Path 6144" d="M766.1,1193.122a1.011,1.011,0,1,1-1.011-1.011,1.011,1.011,0,0,1,1.011,1.011" transform="translate(-625.783 -976.349)" fill="#80b2ff"/>
        <path id="Path_6145" data-name="Path 6145" d="M785.252,1193.122a1.011,1.011,0,1,1-1.011-1.011,1.011,1.011,0,0,1,1.011,1.011" transform="translate(-641.472 -976.349)" fill="#80b2ff"/>
        <path id="Path_6146" data-name="Path 6146" d="M804.408,1193.122a1.011,1.011,0,1,1-1.011-1.011,1.011,1.011,0,0,1,1.011,1.011" transform="translate(-657.161 -976.349)" fill="#80b2ff"/>
        <path id="Path_6147" data-name="Path 6147" d="M823.564,1193.122a1.011,1.011,0,1,1-1.011-1.011,1.011,1.011,0,0,1,1.011,1.011" transform="translate(-672.85 -976.349)" fill="#80b2ff"/>
        <path id="Path_6148" data-name="Path 6148" d="M724,973.367a11.1,11.1,0,1,1-11.1-11.1,11.1,11.1,0,0,1,11.1,11.1" transform="translate(-574.781 -788.107)" fill="#fff"/>
        <path id="Path_6149" data-name="Path 6149" d="M747.363,989.435a3.505,3.505,0,0,0,2.723-1.333,3.417,3.417,0,0,0,.75-2.167,3.487,3.487,0,1,0-6.973,0,3.412,3.412,0,0,0,.75,2.167,3.517,3.517,0,0,0,2.75,1.333" transform="translate(-609.23 -804.621)" fill="#005cea"/>
        <path id="Path_6150" data-name="Path 6150" d="M741.366,1031.736c0,2.209-12.336,2.209-12.336,0l0-2.574c.487-3.519,11.33-3.667,12.335,0Z" transform="translate(-597.082 -840.684)" fill="#005cea"/>
        <path id="Path_6151" data-name="Path 6151" d="M631.885,1187.554v-.154a1.13,1.13,0,0,0-2.26,0v.154h-.172v2.037c0,.352,2.611.352,2.611,0v-2.037Zm-1.857-.154a.731.731,0,1,1,1.462,0v.154h-1.462Zm.92,1.18v.588a.187.187,0,0,1-.2.181.174.174,0,0,1-.181-.181v-.588a.344.344,0,0,1-.181-.3.362.362,0,1,1,.724,0,.363.363,0,0,1-.166.3" transform="translate(-515.528 -971.565)" fill="#5896fa"/>
        <path id="Path_6152" data-name="Path 6152" d="M633.318,1137.34a.739.739,0,0,0,.574-.281.72.72,0,0,0,.158-.457.736.736,0,1,0-1.471,0,.72.72,0,0,0,.158.457.742.742,0,0,0,.58.281" transform="translate(-518.088 -930.281)" fill="#5896fa"/>
        <path id="Path_6153" data-name="Path 6153" d="M631.992,1146.267c0,.466-2.617.466-2.617,0l.014-.543c.1-.743,2.391-.774,2.6,0Z" transform="translate(-515.464 -937.892)" fill="#5896fa"/>
        <path id="Path_6154" data-name="Path 6154" d="M678.4,1142.206H667.823a.843.843,0,1,1,0-1.686H678.4a.843.843,0,0,1,0,1.686" transform="translate(-546.263 -934.095)" fill="#80b2ff"/>
        <path id="Path_6155" data-name="Path 6155" d="M755.5,1142.206H744.916a.843.843,0,1,1,0-1.686H755.5a.843.843,0,0,1,0,1.686" transform="translate(-609.402 -934.095)" fill="#80b2ff"/>
        <path id="Path_6156" data-name="Path 6156" d="M728.057,1239.412H718.47a2.461,2.461,0,1,1,0-4.922h9.587a2.461,2.461,0,1,1,0,4.922" transform="translate(-586.418 -1011.058)" fill="#1251b3"/>
        <path id="Path_6157" data-name="Path 6157" d="M89.265,707.57h0c0-.079,0-.114,0-.122,0,.015,0,.122,0,.122" transform="translate(-73.109 -579.406)" fill="#d9ffff"/>
        <path id="Path_6158" data-name="Path 6158" d="M89.265,707.57h0c0-.079,0-.114,0-.122,0,.015,0,.122,0,.122" transform="translate(-73.109 -579.406)" fill="#d9ffff"/>
        <path id="Path_6159" data-name="Path 6159" d="M350,708.736s0-.107,0-.122c0,.008,0,.043,0,.122" transform="translate(-286.653 -580.361)" fill="#d9ffff"/>
        <path id="Path_6160" data-name="Path 6160" d="M350,708.736s0-.107,0-.122c0,.008,0,.043,0,.122" transform="translate(-286.653 -580.361)" fill="#d9ffff"/>
        <path id="Path_6161" data-name="Path 6161" d="M112.675,637.68c-5.5,5.891-14.274,10.718-23.664,12.775,0,.627-.019,4.1-.09,20.117-.1,21.364,20.236,31.8,23.393,33.406,3.058-1.408,23.647-11.831,23.742-33.195.071-16.015.087-19.49.09-20.116-9.371-2.141-18.024-7.047-23.47-12.986" transform="translate(-72.826 -522.265)" fill="#fff"/>
        <path id="Path_6162" data-name="Path 6162" d="M124.234,659.014a49.94,49.94,0,0,1-21.05,10.939l-.081,18.1c-.037,8.282,3.253,15.775,9.78,22.271a46.793,46.793,0,0,0,11.085,8.105l.313-.162V659.056l-.047-.042" transform="translate(-84.443 -539.738)" fill="#296acc"/>
        <path id="Path_6163" data-name="Path 6163" d="M220.115,659.247v59.212a46.8,46.8,0,0,0,10.844-7.844c6.584-6.437,9.941-13.9,9.978-22.182l.081-18.1a49.962,49.962,0,0,1-20.9-11.084" transform="translate(-180.276 -539.928)" fill="#2e77e6"/>
        <path id="Path_6164" data-name="Path 6164" d="M167.447,803.395v14.023c0,1.561,19.065,1.561,19.065,0V803.395Zm10.5,7.447v3.974a.964.964,0,1,1-1.929,0v-3.983a2.345,2.345,0,1,1,1.929.009" transform="translate(-137.141 -657.987)" fill="#fff"/>
        <path id="Path_6165" data-name="Path 6165" d="M192.4,758.018h-1.93v-.944a5.933,5.933,0,1,0-11.866,0v.944h-1.93v-.944a7.863,7.863,0,1,1,15.726,0Z" transform="translate(-144.697 -613.609)" fill="#fff"/>
        <rect id="Rectangle_2619" data-name="Rectangle 2619" width="34.438" height="42.987" transform="translate(146.523)" fill="#296acc"/>
        <rect id="Rectangle_2620" data-name="Rectangle 2620" width="34.438" height="42.987" transform="translate(150.989 4.439)" fill="#fff"/>
        <rect id="Rectangle_2621" data-name="Rectangle 2621" width="34.438" height="42.987" transform="translate(150.989 4.439)" fill="none" stroke="#5896fa" stroke-width="6.341"/>
        <rect id="Rectangle_2622" data-name="Rectangle 2622" width="34.438" height="42.987" transform="translate(156.661 8.797)" fill="#fff"/>
        <rect id="Rectangle_2623" data-name="Rectangle 2623" width="34.438" height="42.987" transform="translate(156.661 8.797)" fill="none" stroke="#5896fa" stroke-width="6.341"/>
        <rect id="Rectangle_2624" data-name="Rectangle 2624" width="34.438" height="42.987" transform="translate(160.788 13.236)" fill="#5896fa"/>
        <rect id="Rectangle_2625" data-name="Rectangle 2625" width="17.814" height="2.796" transform="translate(172.054 20.294)" fill="#005cea"/>
        <rect id="Rectangle_2626" data-name="Rectangle 2626" width="23.082" height="2.796" transform="translate(166.786 26.862)" fill="#005cea"/>
        <rect id="Rectangle_2627" data-name="Rectangle 2627" width="23.082" height="2.796" transform="translate(166.786 33.431)" fill="#005cea"/>
        <rect id="Rectangle_2628" data-name="Rectangle 2628" width="23.082" height="2.796" transform="translate(166.786 39.999)" fill="#005cea"/>
        <rect id="Rectangle_2629" data-name="Rectangle 2629" width="23.082" height="2.796" transform="translate(166.786 46.568)" fill="#005cea"/>
        <path id="Path_6166" data-name="Path 6166" d="M349.247,203.473a12.163,12.163,0,1,1-12.164-12.163,12.164,12.164,0,0,1,12.164,12.163" transform="translate(-266.112 -156.684)" fill="#fff"/>
        <path id="Path_6167" data-name="Path 6167" d="M297.523,156.249a22.317,22.317,0,0,0,2.981-8.294l.906.133,1.789.263.023,0a24.985,24.985,0,0,0-.47-9.718l-2.662.659a22.327,22.327,0,0,0-3.765-7.968l2.206-1.64a24.882,24.882,0,0,0-7.2-6.547l-1.421,2.357a22.282,22.282,0,0,0-8.294-2.981l.4-2.718a25.147,25.147,0,0,0-9.718.47l.659,2.662a22.325,22.325,0,0,0-7.968,3.765l-1.64-2.206a24.881,24.881,0,0,0-6.547,7.2l2.357,1.421a22.28,22.28,0,0,0-2.981,8.294l-1.923-.283-.786-.109-.009-.005a25.151,25.151,0,0,0,.47,9.718l2.662-.659a22.373,22.373,0,0,0,3.774,7.973l-2.206,1.64a24.83,24.83,0,0,0,7.194,6.542l1.421-2.357a22.334,22.334,0,0,0,8.3,2.987l-.312,2.112-.085.606a25.1,25.1,0,0,0,9.709-.475l-.659-2.662a22.565,22.565,0,0,0,7.982-3.769l1.64,2.206a25.016,25.016,0,0,0,6.533-7.2ZM272.056,155.1a12.161,12.161,0,1,1,16.692-4.141,12.159,12.159,0,0,1-16.692,4.141" transform="translate(-207.361 -97.893)" fill="#005cea"/>
        <path id="Path_6168" data-name="Path 6168" d="M143.343,284.175a11.75,11.75,0,0,0-3.271-3.292l.268-.4.529-.792.006-.01a13.153,13.153,0,0,0-4.728-1.972l-.288,1.415a11.755,11.755,0,0,0-4.64-.01l-.281-1.42a13.1,13.1,0,0,0-4.741,1.946l.8,1.208a11.728,11.728,0,0,0-3.292,3.271l-1.2-.8a13.24,13.24,0,0,0-1.972,4.728l1.415.288a11.753,11.753,0,0,0-.01,4.64l-1.42.281a13.1,13.1,0,0,0,1.946,4.741l1.208-.8a11.731,11.731,0,0,0,3.271,3.292l-.569.85-.229.349,0,0a13.24,13.24,0,0,0,4.728,1.972l.288-1.415a11.782,11.782,0,0,0,4.644.007l.281,1.42a13.075,13.075,0,0,0,4.737-1.943l-.8-1.208a11.76,11.76,0,0,0,3.3-3.274l.934.626.269.178a13.219,13.219,0,0,0,1.968-4.725l-1.415-.288a11.88,11.88,0,0,0,.011-4.648l1.42-.281a13.169,13.169,0,0,0-1.948-4.734Zm-6.3,11.851a6.4,6.4,0,1,1,1.8-8.873,6.4,6.4,0,0,1-1.8,8.873" transform="translate(-98.703 -227.432)" fill="#1251b3"/>
        <path id="Path_6169" data-name="Path 6169" d="M1206.857,363.95h-29.57a1.127,1.127,0,0,1-1.127-1.127V346.045a1.127,1.127,0,0,1,1.127-1.127h29.57a1.127,1.127,0,0,1,1.127,1.127v16.778a1.127,1.127,0,0,1-1.127,1.127" transform="translate(-963.286 -282.49)" fill="#005cea"/>
        <rect id="Rectangle_2630" data-name="Rectangle 2630" width="31.825" height="3.284" transform="translate(212.874 66.022)" fill="#5896fa"/>
        <path id="Path_6170" data-name="Path 6170" d="M1192.825,429.9h-4.679a.539.539,0,1,0,0,1.077h4.679a.539.539,0,1,0,0-1.077" transform="translate(-972.661 -352.09)" fill="#d1f5ff"/>
        <path id="Path_6171" data-name="Path 6171" d="M1232.583,429.9H1227.9a.539.539,0,1,0,0,1.077h4.679a.539.539,0,1,0,0-1.077" transform="translate(-1005.223 -352.09)" fill="#d1f5ff"/>
        <path id="Path_6172" data-name="Path 6172" d="M1272.34,429.9h-4.679a.539.539,0,1,0,0,1.077h4.679a.539.539,0,1,0,0-1.077" transform="translate(-1037.784 -352.09)" fill="#d1f5ff"/>
        <path id="Path_6173" data-name="Path 6173" d="M1312.1,429.9h-4.679a.539.539,0,1,0,0,1.077h4.679a.539.539,0,1,0,0-1.077" transform="translate(-1070.346 -352.09)" fill="#d1f5ff"/>
        <path id="Path_6174" data-name="Path 6174" d="M1186.7,350.254h0a.594.594,0,0,0-.594.594v.209a.594.594,0,0,0,1.189,0v-.209a.594.594,0,0,0-.594-.594" transform="translate(-971.433 -286.86)" fill="#d1f5ff"/>
        <path id="Path_6175" data-name="Path 6175" d="M1196.468,350.953h0a.7.7,0,0,0,.7.7h2.477a.7.7,0,1,0,0-1.4h-2.477a.7.7,0,0,0-.7.7" transform="translate(-979.918 -286.86)" fill="#d1f5ff"/>
        <path id="Path_6176" data-name="Path 6176" d="M1190.471,392.683h3.2a.928.928,0,0,1,.928.928v2.758a.928.928,0,0,1-.928.928h-3.2a.928.928,0,0,1-.928-.928v-2.758a.928.928,0,0,1,.928-.928" transform="translate(-974.246 -321.61)" fill="#5896fa"/>
        <path id="Path_6177" data-name="Path 6177" d="M1178.774,700.005v-2.174a1.787,1.787,0,0,0-1.787-1.787h-19.029a1.788,1.788,0,0,0-1.788,1.787v38.43h49.221V700.005Z" transform="translate(-946.914 -570.065)" fill="#1251b3"/>
        <path id="Path_6178" data-name="Path 6178" d="M1207.439,725.229h-48.266l-3,34.935h48.981Z" transform="translate(-946.914 -593.968)" fill="#fff"/>
        <path id="Path_6179" data-name="Path 6179" d="M1205.392,754.189h-49.221l5.223-34.5a2.064,2.064,0,0,1,2.041-1.755h45.046a2.064,2.064,0,0,1,2.041,2.373Z" transform="translate(-946.914 -587.993)" fill="#3383ff"/>
        <path id="Path_6180" data-name="Path 6180" d="M1416.841,674.195a11.278,11.278,0,1,1-11.278-11.278,11.278,11.278,0,0,1,11.278,11.278" transform="translate(-1141.932 -542.934)" fill="#005cea"/>
        <path id="Path_6181" data-name="Path 6181" d="M1403.688,684.019a11.69,11.69,0,1,1,11.692-11.691,11.705,11.705,0,0,1-11.692,11.691m0-22.556a10.866,10.866,0,1,0,10.865,10.865,10.876,10.876,0,0,0-10.865-10.865" transform="translate(-1140.057 -541.069)" fill="#fff"/>
        <path id="Path_6182" data-name="Path 6182" d="M1426.6,713.954v7.986c0,.889,10.857.889,10.857,0v-7.986Zm5.978,4.241v2.263a.549.549,0,1,1-1.1,0V718.19a1.336,1.336,0,1,1,1.1.005" transform="translate(-1168.401 -584.734)" fill="#fff"/>
        <path id="Path_6183" data-name="Path 6183" d="M1440.815,688.112h-1.1v-.538a3.379,3.379,0,1,0-6.758,0v.538h-1.1v-.538a4.478,4.478,0,1,1,8.956,0Z" transform="translate(-1172.705 -559.461)" fill="#fff"/>
        <path id="Path_6184" data-name="Path 6184" d="M1225,184.21a4.318,4.318,0,1,1-4.318-4.318A4.317,4.317,0,0,1,1225,184.21" transform="translate(-996.216 -147.332)" fill="#aae0ff"/>
        <path id="Path_6185" data-name="Path 6185" d="M598.571,273.228a4.318,4.318,0,1,1-4.318-4.318,4.317,4.317,0,0,1,4.318,4.318" transform="translate(-483.163 -220.239)" fill="#aae0ff"/>
        <path id="Path_6186" data-name="Path 6186" d="M1399.543,600.166a2.259,2.259,0,1,1-2.259-2.259,2.259,2.259,0,0,1,2.259,2.259" transform="translate(-1142.539 -489.69)" fill="#fff"/>
        <path id="Path_6187" data-name="Path 6187" d="M93.437,623.569a2.259,2.259,0,1,1-2.259-2.259,2.259,2.259,0,0,1,2.259,2.259" transform="translate(-72.825 -508.858)" fill="#aae0ff"/>
        <path id="Path_6188" data-name="Path 6188" d="M281.418,1069.053a4.318,4.318,0,1,1-4.318-4.318,4.318,4.318,0,0,1,4.318,4.318" transform="translate(-223.412 -872.027)" fill="#aae0ff"/>
        <path id="Path_6189" data-name="Path 6189" d="M676.068,12.93h0a.748.748,0,0,1-.748-.748V4.173a.748.748,0,0,1,1.5,0v8.009a.748.748,0,0,1-.748.748" transform="translate(-553.093 -2.804)" fill="#aae0ff"/>
        <path id="Path_6190" data-name="Path 6190" d="M653.194,26.3h0a.748.748,0,0,1,.748-.748h8.009a.748.748,0,0,1,0,1.5h-8.009a.748.748,0,0,1-.748-.748" transform="translate(-534.972 -20.926)" fill="#aae0ff"/>
        <path id="Path_6191" data-name="Path 6191" d="M1146.516,581.154h0a.748.748,0,0,1-.748-.748V572.4a.748.748,0,0,1,1.5,0v8.009a.748.748,0,0,1-.748.748" transform="translate(-938.394 -468.184)" fill="#fff"/>
        <path id="Path_6192" data-name="Path 6192" d="M1123.641,594.523h0a.748.748,0,0,1,.748-.748h8.01a.748.748,0,1,1,0,1.5h-8.01a.748.748,0,0,1-.748-.748" transform="translate(-920.272 -486.306)" fill="#fff"/>
        <path id="Path_6193" data-name="Path 6193" d="M1101.524,1164.012h0a.748.748,0,0,1-.748-.748v-8.009a.748.748,0,1,1,1.5,0v8.009a.748.748,0,0,1-.748.748" transform="translate(-901.545 -945.551)" fill="#fff"/>
        <path id="Path_6194" data-name="Path 6194" d="M1078.649,1177.381h0a.748.748,0,0,1,.748-.748h8.009a.748.748,0,0,1,0,1.5H1079.4a.748.748,0,0,1-.748-.748" transform="translate(-883.423 -963.672)" fill="#fff"/>
        <path id="Path_6195" data-name="Path 6195" d="M728.151,865.879a2.395,2.395,0,1,1-2.395-2.395A2.395,2.395,0,0,1,728.151,865.879Z" transform="translate(-592.439 -707.2)" fill="none" stroke="#fff" stroke-width="4.226"/>
        <path id="Path_6196" data-name="Path 6196" d="M1014.988,1996.54h-9.371l-.969-20.375h11.31Z" transform="translate(-822.816 -1618.496)" fill="#0e0e0e"/>
        <path id="Path_6197" data-name="Path 6197" d="M1914.861,1996.54h-9.371l-.969-20.375h11.31Z" transform="translate(-1559.819 -1618.496)" fill="#0e0e0e"/>
        <path id="Path_6198" data-name="Path 6198" d="M1156.807,1330.529q-1.549,4.807-3.391,9.866H997.845s-20.078-81.719,0-96.664a13.289,13.289,0,0,1,1.848-1.126c27.04-13.895,135.454-17.156,157.464.718.169.133.324.27.474.408,8.111,7.446,15.162,37.163-.824,86.8" transform="translate(-809.935 -1008.225)" fill="#ea7b00"/>
        <path id="Path_6199" data-name="Path 6199" d="M1097.039,1576.1H1038.42l5.716-57.275c10.222,4.436,37.435,27.854,52.9,57.275" transform="translate(-850.475 -1243.932)" fill="#982c20"/>
        <path id="Path_6200" data-name="Path 6200" d="M1645.477,1563.48q-1.549,4.807-3.391,9.866h-56.5c9.717-18.022,33.28-45.319,56.161-57.884Z" transform="translate(-1298.606 -1241.176)" fill="#982c20"/>
        <path id="Path_6201" data-name="Path 6201" d="M1098.778,1514.4h-21.569a7.228,7.228,0,0,0-7.165,6.28l-6.879,52.013H937.109l-6.879-52.013a7.228,7.228,0,0,0-7.165-6.28H901.5a7.227,7.227,0,0,0-7.115,8.5l11.974,86.619h187.563l11.975-86.619a7.228,7.228,0,0,0-7.115-8.5" transform="translate(-732.412 -1240.306)" fill="#ea7b00"/>
        <path id="Path_6202" data-name="Path 6202" d="M1232.53,1669.12c10.15,3.4,8.171,24.888,0,28.193H1109.4c-9.2-2.373-9.973-30.8,3.289-28.662,81.164,15.26,85.1-9.085,119.843.47" transform="translate(-903.034 -1365.144)" fill="#f2b066"/>
        <path id="Path_6203" data-name="Path 6203" d="M1301.96,1257.733a114.118,114.118,0,0,0,.858,15.347h57.736l3.419-56.375c-3.43-20.592-12.819-25.582-27.679-25.582-13.3,0-22.157,10.849-27.54,25.372-4.653,12.547-6.711,27.834-6.794,41.239" transform="translate(-1066.314 -975.54)" fill="#007880"/>
        <path id="Path_6204" data-name="Path 6204" d="M1301.975,1373.631l20.894-1.257c-11.6-3.8-12.522-21.6-.731-32.677l-13.369-8.393c-4.653,12.547-6.711,28.922-6.794,42.327" transform="translate(-1066.329 -1090.349)" fill="#005459"/>
        <path id="Path_6205" data-name="Path 6205" d="M1280,1586.159h79.325v-26.995h-71.455Z" transform="translate(-1048.334 -1276.969)" fill="#0e0e0e"/>
        <path id="Path_6206" data-name="Path 6206" d="M1602.68,1576.819l-21.307,77.42h-16.614c5.26-32.945,4.082-54.362,9.03-81.719,4.34-22.456,34.057-16.513,28.892,4.3" transform="translate(-1281.552 -1276.195)" fill="#0e0e0e"/>
        <path id="Path_6207" data-name="Path 6207" d="M1623.569,2041.025c0-.051,0-.1,0-.153a10.392,10.392,0,0,1,20.784,0c0,.052,0,.1,0,.153Z" transform="translate(-1329.714 -1662.981)" fill="#b15626"/>
        <path id="Path_6208" data-name="Path 6208" d="M1587.8,2011.452l-3.777-1.155c-2.493-4.905-13.127-4.3-11.646,1.672-4.173.622-6.367-1.457-6.367-1.457l-1.248,11.291h22.53Z" transform="translate(-1281.552 -1643.758)" fill="#b15626"/>
        <path id="Path_6209" data-name="Path 6209" d="M1254.641,1576.819l21.307,77.42h16.614c-5.26-32.945-4.082-54.362-9.03-81.719-4.339-22.456-34.057-16.513-28.892,4.3" transform="translate(-1027.07 -1276.195)" fill="#0e0e0e"/>
        <path id="Path_6210" data-name="Path 6210" d="M1314.02,2041.025c0-.051,0-.1,0-.153a10.392,10.392,0,0,0-20.784,0c0,.052,0,.1,0,.153Z" transform="translate(-1059.175 -1662.981)" fill="#b15626"/>
        <path id="Path_6211" data-name="Path 6211" d="M1339.589,2011.452l3.777-1.155c2.493-4.905,13.127-4.3,11.646,1.672,4.173.622,6.368-1.457,6.368-1.457l1.247,11.291H1340.1Z" transform="translate(-1097.135 -1643.758)" fill="#b15626"/>
        <path id="Path_6212" data-name="Path 6212" d="M1278.907,1201.129c7.792,4.73,8.9,18.773,4.908,24.368l-22.235,16.564,22.638,11.657-3.678,12.041s-23.629-1.923-35.2-13.787c-11.105-11.391,15.969-44.853,33.562-50.843" transform="translate(-1017.824 -983.735)" fill="#007880"/>
        <path id="Path_6213" data-name="Path 6213" d="M1499.7,1224.118c-6.665-8.37-2.062-21.3,6.435-20.922,27.669,9.74,36.21,36.786,27.444,48.927-7.51,10.4-40.544,14.407-40.544,14.407v-11.388l22.953-4.959s-11.835-18.337-16.288-26.065" transform="translate(-1222.806 -985.421)" fill="#007880"/>
        <path id="Path_6214" data-name="Path 6214" d="M1395.666,1492.028a8.768,8.768,0,0,1,7.542-9.625c10.024-1.82,13.653,3.68,14.6,7.612a1.665,1.665,0,0,1-1.546,2.013,1.694,1.694,0,0,1-1.614-1.362,3.878,3.878,0,0,0-1.749-2.707c1.036,2.031.6,4.069-2.219,4.069Z" transform="translate(-1143.021 -1213.807)" fill="#f7a594"/>
        <path id="Path_6215" data-name="Path 6215" d="M1406.915,1358.147l7.889-39.557h1.673c-.534,2.724-8.3,42.305-8.538,43.542H1384.3l-2.582-3.984Z" transform="translate(-1131.635 -1079.936)" fill="#99c1ff"/>
        <path id="Path_6216" data-name="Path 6216" d="M1535.149,1318.59h58.7l-8.683,43.542h-58.559Z" transform="translate(-1250.309 -1079.936)" fill="#fff"/>
        <path id="Path_6217" data-name="Path 6217" d="M1479.216,1138.1c0,4.5,13.493,7.486,17.9,2.755a4.987,4.987,0,0,0,1.3-2.67l2.542-11.4-16.115-6.077-.481,1.49Z" transform="translate(-1211.491 -917.87)" fill="#f7a594"/>
        <path id="Path_6218" data-name="Path 6218" d="M1524.709,1147.106l2.542-11.4L1512,1131.6c-3.947,11.745,10.136,21.129,12.7,15.505" transform="translate(-1237.777 -926.791)" fill="#f4856d"/>
        <path id="Path_6219" data-name="Path 6219" d="M1503.5,1010.331c-.848,11.205,8.006,21.073,15.436,21.574s17.66-7.8,18.509-19-6.063-20.864-15.437-21.573-17.66,7.8-18.508,19" transform="translate(-1231.333 -811.872)" fill="#f7a594"/>
        <path id="Path_6220" data-name="Path 6220" d="M1514.743,983.631c10.274-6.506,15.93-.387,21.045,6.1,3.59,4.554,6.133,7.827,10.6,8.512-8.595,10.841-25.784,3.689-31.2-7.174-.533,6.184-7.822,11.306-12.869,10.715-1.635-6.881,3.131-20.792,12.423-18.155" transform="translate(-1230.154 -803.327)" fill="#0e0e0e"/>
        <path id="Path_6221" data-name="Path 6221" d="M1489.879,1077.094a4.472,4.472,0,1,0,4.472-4.472,4.472,4.472,0,0,0-4.472,4.472" transform="translate(-1220.224 -878.486)" fill="#f7a594"/>
      </g>
    </g>
  </g>
</svg>
