<svg id="Group_2005" data-name="Group 2005" xmlns="http://www.w3.org/2000/svg" xmlns:xlink="http://www.w3.org/1999/xlink" width="364" height="226.68" viewBox="0 0 364 226.68">
  <defs>
    <clipPath id="clip-path">
      <rect id="Rectangle_1935" data-name="Rectangle 1935" width="364" height="226.68" fill="none"/>
    </clipPath>
    <clipPath id="clip-path-5">
      <rect id="Rectangle_1921" data-name="Rectangle 1921" width="16.744" height="22.812" fill="none"/>
    </clipPath>
    <clipPath id="clip-path-6">
      <rect id="Rectangle_1922" data-name="Rectangle 1922" width="16.745" height="22.812" fill="none"/>
    </clipPath>
    <clipPath id="clip-path-12">
      <rect id="Rectangle_1928" data-name="Rectangle 1928" width="25.042" height="24.672" fill="none"/>
    </clipPath>
    <clipPath id="clip-path-14">
      <rect id="Rectangle_1931" data-name="Rectangle 1931" width="49.793" height="45.427" fill="none"/>
    </clipPath>
    <clipPath id="clip-path-15">
      <rect id="Rectangle_1932" data-name="Rectangle 1932" width="51.038" height="38.955" fill="none"/>
    </clipPath>
  </defs>
  <g id="Group_2004" data-name="Group 2004" clip-path="url(#clip-path)">
    <rect id="Rectangle_1903" data-name="Rectangle 1903" width="36.816" height="38.378" transform="translate(14.201 1.782)" fill="#e0e0e0"/>
    <rect id="Rectangle_1904" data-name="Rectangle 1904" width="36.816" height="38.378" transform="translate(11.708 1.782)" fill="#f5f5f5"/>
    <path id="Path_4514" data-name="Path 4514" d="M58.7,41.709H21.858V3.308H58.7ZM21.88,41.686H58.674V3.332H21.88Z" transform="translate(-10.161 -1.538)" fill="#e0e0e0"/>
    <rect id="Rectangle_1905" data-name="Rectangle 1905" width="26.918" height="28.06" transform="translate(16.657 6.941)" fill="#fff"/>
    <g id="Group_1966" data-name="Group 1966">
      <g id="Group_1965" data-name="Group 1965" clip-path="url(#clip-path)">
        <path id="Path_4515" data-name="Path 4515" d="M26.859,65.752a4.4,4.4,0,0,1-.664.772c-.43.454-1.034,1.068-1.711,1.735s-1.3,1.261-1.758,1.683a4.278,4.278,0,0,1-.778.648,4.314,4.314,0,0,1,.661-.769c.43-.454,1.035-1.069,1.715-1.738s1.3-1.265,1.762-1.686a4.193,4.193,0,0,1,.774-.645" transform="translate(-10.202 -30.565)" fill="#e0e0e0"/>
        <path id="Path_4516" data-name="Path 4516" d="M81.426,65.624a4.375,4.375,0,0,1,.772.664c.454.43,1.068,1.034,1.735,1.711s1.261,1.3,1.683,1.758a4.278,4.278,0,0,1,.648.778,4.314,4.314,0,0,1-.769-.661c-.454-.43-1.069-1.035-1.738-1.715s-1.265-1.3-1.686-1.762a4.221,4.221,0,0,1-.645-.774" transform="translate(-37.852 -30.506)" fill="#e0e0e0"/>
        <path id="Path_4517" data-name="Path 4517" d="M81.29,8.907a4.4,4.4,0,0,1,.664-.772c.43-.454,1.034-1.068,1.711-1.735s1.3-1.261,1.758-1.683a4.277,4.277,0,0,1,.778-.648,4.315,4.315,0,0,1-.661.769c-.43.454-1.035,1.069-1.715,1.738s-1.3,1.265-1.762,1.686a4.173,4.173,0,0,1-.774.645" transform="translate(-37.788 -1.891)" fill="#e0e0e0"/>
        <path id="Path_4518" data-name="Path 4518" d="M26.785,8.971a4.365,4.365,0,0,1-.773-.664c-.454-.43-1.068-1.034-1.735-1.711S23.017,5.3,22.6,4.837a4.33,4.33,0,0,1-.649-.778,4.223,4.223,0,0,1,.769.66c.454.43,1.069,1.035,1.738,1.715s1.265,1.3,1.686,1.762a4.242,4.242,0,0,1,.645.774" transform="translate(-10.202 -1.887)" fill="#e0e0e0"/>
        <path id="Path_4519" data-name="Path 4519" d="M57.868,40.927a1.3,1.3,0,0,1-.006-.136c0-.1,0-.224-.006-.391q0-.528-.012-1.515c-.006-1.329-.016-3.263-.027-5.719-.013-4.914-.031-11.915-.053-20.3l.1.1-26.842.016h0l.119-.119c-.006,10.3-.012,19.934-.017,28.06l-.1-.1,19.437.052,5.46.027,1.444.012.373.005a1.163,1.163,0,0,1,.13.006.838.838,0,0,1-.119.006l-.362.006-1.425.012-5.436.027-19.5.052h-.1v-.1c0-8.125-.011-17.761-.017-28.06v-.119h.122l26.842.015h.1v.1c-.022,8.41-.04,15.434-.052,20.365-.012,2.445-.021,4.372-.027,5.695-.005.649-.01,1.148-.012,1.495,0,.162,0,.287-.006.38a.927.927,0,0,1-.006.125" transform="translate(-14.366 -5.926)" fill="#e0e0e0"/>
        <rect id="Rectangle_1906" data-name="Rectangle 1906" width="8.982" height="8.982" transform="translate(25.625 16.479)" fill="#e0e0e0"/>
        <rect id="Rectangle_1907" data-name="Rectangle 1907" width="41.454" height="60.086" transform="translate(319.23 0.625)" fill="#e0e0e0"/>
        <rect id="Rectangle_1908" data-name="Rectangle 1908" width="41.454" height="60.086" transform="translate(317.153 0.625)" fill="#f5f5f5"/>
        <rect id="Rectangle_1909" data-name="Rectangle 1909" width="31.153" height="47.07" transform="translate(322.304 7.133)" fill="#fff"/>
        <path id="Path_4520" data-name="Path 4520" d="M633.342,60.3s0-.08-.006-.23,0-.377-.006-.667c0-.592-.007-1.458-.012-2.582-.006-2.256-.016-5.543-.028-9.7-.012-8.3-.03-20.054-.051-33.895l.1.1-31.15.009h0l.113-.112c-.009,17.757-.017,34.129-.023,47.07l-.09-.09,22.676.047,6.265.023,1.644.01c.372,0,.569.01.569.01s-.184.006-.55.01l-1.628.01-6.245.023-22.731.047h-.09V60.3c-.006-12.942-.014-29.314-.022-47.07v-.113h.116l31.15.009h.1v.1c-.021,13.869-.038,25.646-.051,33.962-.012,4.143-.021,7.423-.028,9.673-.005,1.115-.01,1.975-.012,2.561,0,.285,0,.5-.006.656s-.005.218-.005.218" transform="translate(-279.885 -6.098)" fill="#e0e0e0"/>
        <path id="Path_4521" data-name="Path 4521" d="M665.439,1.167a7.218,7.218,0,0,1-.739,1.073c-.482.644-1.165,1.52-1.945,2.467s-1.51,1.786-2.049,2.382a7.147,7.147,0,0,1-.912.931,7.8,7.8,0,0,1,.792-1.035l2-2.421,1.994-2.422a7.754,7.754,0,0,1,.864-.975" transform="translate(-306.715 -0.542)" fill="#e0e0e0"/>
        <path id="Path_4522" data-name="Path 4522" d="M660.8,101.005a38.545,38.545,0,0,0,5.434,6.8" transform="translate(-307.183 -46.954)" fill="#fff"/>
        <path id="Path_4523" data-name="Path 4523" d="M666.231,107.8a6.2,6.2,0,0,1-.947-.862,30.383,30.383,0,0,1-3.854-4.82A6.187,6.187,0,0,1,660.8,101a8.543,8.543,0,0,1,.764,1.024c.457.642,1.1,1.519,1.849,2.457s1.464,1.756,1.99,2.343a8.564,8.564,0,0,1,.831.971" transform="translate(-307.182 -46.953)" fill="#e0e0e0"/>
        <path id="Path_4524" data-name="Path 4524" d="M592.651,107.541l5.43-6.7" transform="translate(-275.504 -46.878)" fill="#fff"/>
        <path id="Path_4525" data-name="Path 4525" d="M598.08,100.841a41.409,41.409,0,0,1-2.627,3.421,41.181,41.181,0,0,1-2.8,3.279,41.437,41.437,0,0,1,2.627-3.421,41.448,41.448,0,0,1,2.8-3.279" transform="translate(-275.502 -46.877)" fill="#e0e0e0"/>
        <path id="Path_4526" data-name="Path 4526" d="M592.661,1.167a37.483,37.483,0,0,1,2.636,3.15,37.583,37.583,0,0,1,2.459,3.291,37.609,37.609,0,0,1-2.636-3.151,37.642,37.642,0,0,1-2.458-3.291" transform="translate(-275.507 -0.542)" fill="#e0e0e0"/>
        <rect id="Rectangle_1910" data-name="Rectangle 1910" width="10.431" height="29.618" transform="translate(333.32 16.69)" fill="#e0e0e0"/>
        <path id="Path_4527" data-name="Path 4527" d="M15.361,203.035A17.89,17.89,0,0,0,7.708,200.4a5.1,5.1,0,0,0-3.62.666.745.745,0,0,0-.373.661.808.808,0,0,0,.354.452,10.943,10.943,0,0,0,11.292.855" transform="translate(-1.724 -93.133)" fill="#e0e0e0"/>
        <path id="Path_4528" data-name="Path 4528" d="M18.051,194.545a37.36,37.36,0,0,1-4.943-4.349,12.506,12.506,0,0,1-3.1-5.732,2.313,2.313,0,0,1,.245-1.918c3.94,3.078,7.035,7.057,7.8,12" transform="translate(-4.61 -84.86)" fill="#e0e0e0"/>
        <path id="Path_4529" data-name="Path 4529" d="M25.189,195.027a17.882,17.882,0,0,1,.092-6.49,8.775,8.775,0,0,1,3.457-5.355,7.659,7.659,0,0,1-.092,5.088,24.724,24.724,0,0,1-3.428,7.217" transform="translate(-11.593 -85.155)" fill="#e0e0e0"/>
        <path id="Path_4530" data-name="Path 4530" d="M24.243,218.251a11.307,11.307,0,0,0-6.137,3.106,11.614,11.614,0,0,0-3.511,6.027c2.3-.142,4.251-1.764,5.667-3.583s2.4-3.814,3.95-5.515" transform="translate(-6.785 -101.458)" fill="#e0e0e0"/>
        <path id="Path_4531" data-name="Path 4531" d="M33.276,207.881a15.139,15.139,0,0,1,1.748-14.319,18.227,18.227,0,0,1-1.748,14.319" transform="translate(-14.979 -89.98)" fill="#e0e0e0"/>
        <path id="Path_4532" data-name="Path 4532" d="M34.5,231.658a10.946,10.946,0,0,0-10.466,6.025c-.13.26-.245.589-.071.821a.779.779,0,0,0,.694.2,9.106,9.106,0,0,0,5.4-2.788,51.623,51.623,0,0,1,4.49-4.268" transform="translate(-11.099 -107.68)" fill="#e0e0e0"/>
        <path id="Path_4533" data-name="Path 4533" d="M42.665,218.459a19.5,19.5,0,0,1-.195-10.889,5.31,5.31,0,0,1,2.324-3.535.456.456,0,0,1,.355-.063.47.47,0,0,1,.225.261,6.556,6.556,0,0,1,.548,3.124,19.636,19.636,0,0,1-.49,3.162c-.408,1.933-.626,4.01-1.685,5.677a11.422,11.422,0,0,0-.674,1.247c-.2.423-.2.573-.386.91" transform="translate(-19.426 -94.812)" fill="#e0e0e0"/>
        <path id="Path_4534" data-name="Path 4534" d="M68.345,224.4a14.041,14.041,0,0,1,2.461-11.544c.177-.23.411-.476.7-.449.442.041.557.63.537,1.073a20.857,20.857,0,0,1-3.7,10.921" transform="translate(-31.597 -98.739)" fill="#e0e0e0"/>
        <path id="Path_4535" data-name="Path 4535" d="M70.947,232.907a16.792,16.792,0,0,0,13.779-2.8,11.16,11.16,0,0,0-7.459-.916,10.641,10.641,0,0,0-6.32,3.718" transform="translate(-32.981 -106.415)" fill="#e0e0e0"/>
        <path id="Path_4536" data-name="Path 4536" d="M72.867,225.355a15.925,15.925,0,0,1,12.506-7.231,7.7,7.7,0,0,1-4.09,4.522,22.715,22.715,0,0,1-6,1.755,4.232,4.232,0,0,0-2.412.954" transform="translate(-33.873 -101.399)" fill="#e0e0e0"/>
        <path id="Path_4537" data-name="Path 4537" d="M67.591,196a36.325,36.325,0,0,0,1.6-7.324,12.194,12.194,0,0,0-1.459-7.245,15.946,15.946,0,0,0-.214,14.819" transform="translate(-30.586 -84.339)" fill="#e0e0e0"/>
        <path id="Path_4538" data-name="Path 4538" d="M84.376,192.419c2.83-5.143,8.6-9.251,14.445-9.827-2.253,5.611-8.4,9.948-14.445,9.827" transform="translate(-39.224 -84.881)" fill="#e0e0e0"/>
        <path id="Path_4539" data-name="Path 4539" d="M81.049,202.107c4.22.643,7.816,3.338,11.76,4.972a5.267,5.267,0,0,0,2.659.509,2.081,2.081,0,0,0,1.3-3.682,5.692,5.692,0,0,0-1.931-1.171,21.464,21.464,0,0,0-13.427-.748" transform="translate(-37.677 -93.561)" fill="#e0e0e0"/>
        <path id="Path_4540" data-name="Path 4540" d="M76.486,208.194a4.983,4.983,0,0,1,2.038,1.413,21.993,21.993,0,0,0,8.918,4.581c.34.085.787.118.956-.189.147-.269-.04-.594-.231-.834a12.271,12.271,0,0,0-5.385-3.655c-2.058-.767-3.841-1.691-6.3-1.492" transform="translate(-35.556 -96.688)" fill="#e0e0e0"/>
        <path id="Path_4541" data-name="Path 4541" d="M71.336,174.567a16.877,16.877,0,0,0,12.939,4.4.887.887,0,0,0,.589-.211c.326-.354-.065-.9-.444-1.2a14.906,14.906,0,0,0-13.083-2.994" transform="translate(-33.162 -80.938)" fill="#e0e0e0"/>
        <path id="Path_4542" data-name="Path 4542" d="M77.442,169.677a18.035,18.035,0,0,1,16.146-2.664,12.815,12.815,0,0,1-7.694,3.377,24.337,24.337,0,0,1-8.452-.713" transform="translate(-36 -77.244)" fill="#e0e0e0"/>
        <path id="Path_4543" data-name="Path 4543" d="M73.12,147.458c-.374-3.8-.131-6.794-.395-10.609-.021-.3-.086-.672-.371-.781-.4-.153-.728.335-.858.74a12.161,12.161,0,0,0,1.619,10.567" transform="translate(-32.977 -63.24)" fill="#e0e0e0"/>
        <path id="Path_4544" data-name="Path 4544" d="M74.5,147.792a22.315,22.315,0,0,0,6.289-6.112c1.243-1.7,2.29-3.736,2.007-5.823a6.02,6.02,0,0,0-4.537,2.253,12.665,12.665,0,0,0-2.313,4.654c-.5,1.671-.856,3.387-1.447,5.029" transform="translate(-34.634 -63.155)" fill="#e0e0e0"/>
        <path id="Path_4545" data-name="Path 4545" d="M85.982,146.692a50.713,50.713,0,0,0,15.479-9.127,7.905,7.905,0,0,0-5.814.447,18.334,18.334,0,0,0-9.745,8.639" transform="translate(-39.932 -63.771)" fill="#e0e0e0"/>
        <path id="Path_4546" data-name="Path 4546" d="M77.751,158.154a31.456,31.456,0,0,0,8.595.042,36.462,36.462,0,0,0,8.024-2.666.942.942,0,0,0,.545-.414.627.627,0,0,0-.2-.687,1.659,1.659,0,0,0-.684-.321,14.855,14.855,0,0,0-8.671.519,40.22,40.22,0,0,0-7.613,3.527" transform="translate(-36.144 -71.439)" fill="#e0e0e0"/>
        <path id="Path_4547" data-name="Path 4547" d="M46.018,164.275a15.2,15.2,0,0,1-.139-12.583,9.614,9.614,0,0,1,1.113,6.257c-.217,2.15-.871,4.362-.913,6.522" transform="translate(-20.727 -70.517)" fill="#e0e0e0"/>
        <path id="Path_4548" data-name="Path 4548" d="M21.38,167.863a17.55,17.55,0,0,0-13.041,5.555,12.184,12.184,0,0,0,7.141-1.324A36.318,36.318,0,0,0,21.6,168" transform="translate(-3.877 -78.033)" fill="#e0e0e0"/>
        <path id="Path_4549" data-name="Path 4549" d="M12.268,164.395c-2.381-.193-4.672-.488-6.962.214A8.351,8.351,0,0,0,0,169.108a12.584,12.584,0,0,0,6.527-1.232,37.564,37.564,0,0,0,5.741-3.48" transform="translate(0 -76.315)" fill="#e0e0e0"/>
        <path id="Path_4550" data-name="Path 4550" d="M25.284,161.568a21.978,21.978,0,0,0-6.836-3.414c-2.494-.581-5.385-.152-7.124,1.728,2.019,1.185,4.468,1.325,6.81,1.323s5.211-.028,7.417.753" transform="translate(-5.265 -73.409)" fill="#e0e0e0"/>
        <path id="Path_4551" data-name="Path 4551" d="M33.825,151.949c-3.662-3.6-5.05-10.056-3.577-14.972a22.812,22.812,0,0,1,3.577,14.972" transform="translate(-13.792 -63.676)" fill="#e0e0e0"/>
        <path id="Path_4552" data-name="Path 4552" d="M56.252,135.651c.691-1.605,1.176-3.291,1.8-4.925a14.154,14.154,0,0,1,2.561-4.541,6.741,6.741,0,0,1,4.535-2.35,18.265,18.265,0,0,1-8.8,11.841" transform="translate(-26.15 -57.567)" fill="#e0e0e0"/>
        <path id="Path_4553" data-name="Path 4553" d="M44.618,144.277c-1.143-1.573-2.463-3.708-4.014-4.883a6.711,6.711,0,0,0-5.459-1.434,12.718,12.718,0,0,0,9.473,6.317" transform="translate(-16.338 -64.069)" fill="#e0e0e0"/>
        <path id="Path_4554" data-name="Path 4554" d="M51.844,135.91a27.149,27.149,0,0,1-1.807-5.851,9.124,9.124,0,0,1,.916-5.949c2.01,3.8,2.657,7.879.993,11.842" transform="translate(-23.199 -57.695)" fill="#e0e0e0"/>
        <path id="Path_4555" data-name="Path 4555" d="M56.287,117.115c1.139-3.767,4.588-6.54,8.312-7.813a3.1,3.1,0,0,1,1.457-.219,1.265,1.265,0,0,1,1.074.9c.136.641-.393,1.215-.891,1.641a28.3,28.3,0,0,1-9.952,5.494" transform="translate(-26.166 -50.699)" fill="#e0e0e0"/>
        <path id="Path_4556" data-name="Path 4556" d="M56.312,107.355a26.99,26.99,0,0,1,1.086-7.194,9.093,9.093,0,0,1,4.527-5.467c.377,2.453-.705,4.894-2.01,7s-2.878,4.1-3.662,6.458" transform="translate(-26.15 -44.02)" fill="#e0e0e0"/>
        <path id="Path_4557" data-name="Path 4557" d="M50.116,110.006c-.941-2.745-1.038-6.232-2.682-8.624-1.149-1.672-2.989-2.811-3.98-4.582a6.969,6.969,0,0,0,.232,5.2,15.051,15.051,0,0,0,3.041,4.354c1.216,1.3,2.258,2.276,3.389,3.651" transform="translate(-20.014 -45)" fill="#e0e0e0"/>
        <path id="Path_4558" data-name="Path 4558" d="M56.164,201.494c-.073,0-.136-18.313-.142-40.9s.05-40.9.123-40.9.137,18.31.142,40.9-.05,40.9-.123,40.9" transform="translate(-26.042 -55.64)" fill="#e0e0e0"/>
        <path id="Path_4559" data-name="Path 4559" d="M72.27,170.039a3.9,3.9,0,0,1-.689.258l-1.895.639c-1.6.544-3.792,1.332-6.175,2.309-2.359,1.012-4.583,1.833-5.85,2.931a4.3,4.3,0,0,0-1.175,1.555c-.182.43-.215.694-.239.689a.534.534,0,0,1,.008-.192,2.9,2.9,0,0,1,.134-.534,4.137,4.137,0,0,1,1.147-1.657,10.285,10.285,0,0,1,2.538-1.577c1.016-.474,2.141-.968,3.336-1.459,2.389-.979,4.6-1.742,6.217-2.242.808-.252,1.466-.437,1.923-.56a3.879,3.879,0,0,1,.718-.16" transform="translate(-26.145 -79.044)" fill="#e0e0e0"/>
        <path id="Path_4560" data-name="Path 4560" d="M78.61,145.963a1.131,1.131,0,0,1-.193.206l-.588.552-2.194,1.993-7.3,6.5c-2.851,2.537-5.314,4.962-7.021,6.787-.855.911-1.528,1.666-1.987,2.193l-.531.606a1.148,1.148,0,0,1-.2.2,1.157,1.157,0,0,1,.157-.234c.111-.147.272-.367.493-.638.436-.549,1.089-1.324,1.929-2.255a92.571,92.571,0,0,1,6.982-6.858c2.86-2.531,5.463-4.8,7.354-6.444l2.25-1.93.62-.515a1.127,1.127,0,0,1,.229-.166" transform="translate(-27.24 -67.853)" fill="#e0e0e0"/>
        <path id="Path_4561" data-name="Path 4561" d="M71.037,162.567c-.075-.033.521-1.408,1.114-3.147s.88-3.206.956-3.194a10.738,10.738,0,0,1-.706,3.278,21.212,21.212,0,0,1-.887,2.2,3.435,3.435,0,0,1-.478.861" transform="translate(-33.02 -72.625)" fill="#e0e0e0"/>
        <path id="Path_4562" data-name="Path 4562" d="M47.1,177.171a3.286,3.286,0,0,1-.439-.51l-1.125-1.443c-.946-1.222-2.252-2.908-3.717-4.754s-2.812-3.5-3.787-4.7l-1.149-1.423a3.274,3.274,0,0,1-.4-.544,3.274,3.274,0,0,1,.475.477c.293.318.709.786,1.215,1.37,1.013,1.168,2.383,2.807,3.851,4.655s2.751,3.554,3.659,4.806c.454.626.816,1.136,1.058,1.494a3.315,3.315,0,0,1,.356.571" transform="translate(-16.959 -76.144)" fill="#e0e0e0"/>
        <path id="Path_4563" data-name="Path 4563" d="M48.179,175.561a6.449,6.449,0,0,1-1.47-2.752,7.865,7.865,0,0,1-.333-2.775l.117.01c-.052.212-.09.324-.111.321s-.022-.121,0-.34l.117.01a12.663,12.663,0,0,0,.469,2.7,20.59,20.59,0,0,0,1.216,2.828" transform="translate(-21.55 -79.038)" fill="#e0e0e0"/>
        <path id="Path_4564" data-name="Path 4564" d="M34.409,168.744a4.745,4.745,0,0,0-1.026-.6,6.862,6.862,0,0,0-2.85-.227,17.605,17.605,0,0,0-2.87.463,8.632,8.632,0,0,1-1.181.283,4.123,4.123,0,0,1,1.131-.463,13.107,13.107,0,0,1,2.9-.547,6.211,6.211,0,0,1,2.939.317,1.82,1.82,0,0,1,.956.77" transform="translate(-12.311 -77.92)" fill="#e0e0e0"/>
        <path id="Path_4565" data-name="Path 4565" d="M29.613,165.678c-.02.041-.6-.24-1.573-.573a15.827,15.827,0,0,0-7.924-.6c-1.014.181-1.627.371-1.641.328a1.49,1.49,0,0,1,.417-.178,9.8,9.8,0,0,1,1.187-.333,13.99,13.99,0,0,1,8.025.612,9.823,9.823,0,0,1,1.123.509,1.526,1.526,0,0,1,.385.239" transform="translate(-8.588 -76.236)" fill="#e0e0e0"/>
        <path id="Path_4566" data-name="Path 4566" d="M54.475,149.249a32.547,32.547,0,0,1-1.147-3.984,32.629,32.629,0,0,1-.89-4.049,32.516,32.516,0,0,1,1.147,3.984,32.684,32.684,0,0,1,.89,4.048" transform="translate(-24.373 -65.647)" fill="#e0e0e0"/>
        <path id="Path_4567" data-name="Path 4567" d="M53.659,152.475a19.158,19.158,0,0,0-1.271-2.385,10.479,10.479,0,0,0-1.871-1.931,1.74,1.74,0,0,1,.722.372,5.817,5.817,0,0,1,1.366,1.406,5.285,5.285,0,0,1,1.054,2.537" transform="translate(-23.483 -68.872)" fill="#e0e0e0"/>
        <path id="Path_4568" data-name="Path 4568" d="M41.713,231.091c-.028,0-.082-.44-.289-1.218A17.336,17.336,0,0,0,40.2,226.7a43.863,43.863,0,0,0-6.493-9.148c-1.45-1.656-2.856-3.219-4.05-4.715a33.082,33.082,0,0,1-2.9-4.177,20.049,20.049,0,0,1-1.462-3.1c-.134-.382-.233-.68-.287-.887a1.528,1.528,0,0,1-.075-.316c.024-.008.157.419.459,1.165a22.682,22.682,0,0,0,1.527,3.042,35.1,35.1,0,0,0,2.925,4.118c1.2,1.48,2.607,3.034,4.059,4.693a41.58,41.58,0,0,1,6.462,9.241,15.827,15.827,0,0,1,1.155,3.227,8.914,8.914,0,0,1,.162.918,1.5,1.5,0,0,1,.027.324" transform="translate(-11.591 -95)" fill="#e0e0e0"/>
        <path id="Path_4569" data-name="Path 4569" d="M70.747,223.786a6.741,6.741,0,0,1-.758.425,16.533,16.533,0,0,0-1.966,1.3,22.6,22.6,0,0,0-2.582,2.355c-.906.957-1.839,2.069-2.792,3.26-1.9,2.39-3.686,4.5-4.753,6.193-.542.837-.935,1.543-1.193,2.038a6.505,6.505,0,0,1-.417.763.726.726,0,0,1,.07-.215c.056-.136.133-.341.255-.593a19.282,19.282,0,0,1,1.128-2.093,68.1,68.1,0,0,1,4.7-6.258c.955-1.194,1.9-2.307,2.823-3.263a21.046,21.046,0,0,1,2.646-2.336,13.841,13.841,0,0,1,2.03-1.24c.252-.126.456-.2.592-.262a.716.716,0,0,1,.214-.072" transform="translate(-26.164 -104.03)" fill="#e0e0e0"/>
        <path id="Path_4570" data-name="Path 4570" d="M75.157,233.673a11.05,11.05,0,0,1-1.6.233,21.094,21.094,0,0,0-3.8.748,11.43,11.43,0,0,0-3.4,1.785c-.784.606-1.154,1.107-1.19,1.078a1.214,1.214,0,0,1,.238-.369,6.022,6.022,0,0,1,.834-.855,10.3,10.3,0,0,1,3.439-1.892,17.181,17.181,0,0,1,3.862-.682,8.875,8.875,0,0,1,1.621-.047" transform="translate(-30.292 -108.618)" fill="#e0e0e0"/>
        <path id="Path_4571" data-name="Path 4571" d="M66.033,235.07c-.083-.048.638-1.15,1.2-2.633.525-1.5.649-2.809.743-2.794a2.556,2.556,0,0,1-.027.859,9.243,9.243,0,0,1-.468,2.025,9.794,9.794,0,0,1-.929,1.857,2.578,2.578,0,0,1-.518.686" transform="translate(-30.694 -106.753)" fill="#e0e0e0"/>
        <path id="Path_4572" data-name="Path 4572" d="M75.436,197.2a1.218,1.218,0,0,1-.256.136l-.753.342c-.33.141-.73.321-1.181.559s-.981.474-1.53.8l-.874.5c-.3.174-.6.382-.922.581-.644.391-1.29.872-1.978,1.364a33.952,33.952,0,0,0-7.62,7.885c-.468.705-.927,1.367-1.3,2.024-.188.325-.385.632-.549.941l-.467.89c-.311.561-.534,1.1-.751,1.558s-.388.865-.518,1.2l-.316.764a1.2,1.2,0,0,1-.128.261,1.179,1.179,0,0,1,.078-.279l.27-.783c.116-.341.268-.755.478-1.221s.418-1.012.72-1.582l.454-.9c.16-.313.353-.625.539-.955.363-.666.818-1.337,1.284-2.052a32.692,32.692,0,0,1,7.675-7.942c.7-.49,1.353-.968,2.007-1.353.324-.2.628-.4.935-.572l.888-.485c.559-.322,1.1-.552,1.557-.774s.867-.392,1.2-.52l.774-.3a1.181,1.181,0,0,1,.276-.087" transform="translate(-26.17 -91.671)" fill="#e0e0e0"/>
        <path id="Path_4573" data-name="Path 4573" d="M70.673,209.872a1.841,1.841,0,0,1,.629-.937,3.973,3.973,0,0,1,2.536-.973,6.934,6.934,0,0,1,2.668.522,3.789,3.789,0,0,1,1.009.49,6.23,6.23,0,0,1-1.07-.314,8.057,8.057,0,0,0-2.6-.433,4.128,4.128,0,0,0-2.422.85,7.432,7.432,0,0,0-.751.8" transform="translate(-32.852 -96.673)" fill="#e0e0e0"/>
        <path id="Path_4574" data-name="Path 4574" d="M67.474,210.671a6.772,6.772,0,0,0,.559-4.788,1.552,1.552,0,0,1,.3.682,4.84,4.84,0,0,1-.41,3.51c-.223.405-.421.614-.446.6" transform="translate(-31.364 -95.708)" fill="#e0e0e0"/>
        <path id="Path_4575" data-name="Path 4575" d="M32.651,259.215c.394,7,2.5,14.116,5.747,21.313H52.5a61.294,61.294,0,0,0,5.406-21.313Z" transform="translate(-15.178 -120.5)" fill="#e0e0e0"/>
        <path id="Path_4576" data-name="Path 4576" d="M57.56,280.263c0,.073-4.644.132-10.372.132s-10.374-.059-10.374-.132,4.644-.132,10.374-.132,10.372.059,10.372.132" transform="translate(-17.113 -130.223)" fill="#fafafa"/>
        <path id="Path_4577" data-name="Path 4577" d="M58.1,285c0,.073-4.354.132-9.724.132s-9.725-.059-9.725-.132,4.353-.132,9.725-.132,9.724.059,9.724.132" transform="translate(-17.967 -132.426)" fill="#fafafa"/>
        <path id="Path_4578" data-name="Path 4578" d="M43.7,267.8a40.168,40.168,0,0,1,0,6.5,39.844,39.844,0,0,1,0-6.5" transform="translate(-20.254 -124.492)" fill="#fafafa"/>
        <path id="Path_4579" data-name="Path 4579" d="M57.825,267.8a42.9,42.9,0,0,1,0,6.73,42.9,42.9,0,0,1,0-6.73" transform="translate(-26.82 -124.492)" fill="#fafafa"/>
        <path id="Path_4580" data-name="Path 4580" d="M71.085,267.7a44.624,44.624,0,0,1,0,6.864,44.626,44.626,0,0,1,0-6.864" transform="translate(-32.984 -124.442)" fill="#fafafa"/>
        <path id="Path_4581" data-name="Path 4581" d="M57.879,267.687c0,.073-5.448.132-12.166.132s-12.167-.059-12.167-.132,5.447-.132,12.167-.132,12.166.059,12.166.132" transform="translate(-15.594 -124.377)" fill="#fafafa"/>
        <rect id="Rectangle_1911" data-name="Rectangle 1911" width="35.793" height="37.311" transform="translate(323.486 74.524)" fill="#e0e0e0"/>
        <rect id="Rectangle_1912" data-name="Rectangle 1912" width="35.792" height="37.311" transform="translate(321.062 74.524)" fill="#f5f5f5"/>
        <path id="Path_4582" data-name="Path 4582" d="M635.76,176.575H599.945V139.242H635.76Zm-35.793-.022h35.771V139.264H599.967Z" transform="translate(-278.894 -64.729)" fill="#e0e0e0"/>
        <rect id="Rectangle_1913" data-name="Rectangle 1913" width="26.17" height="27.28" transform="translate(325.873 79.54)" fill="#fff"/>
        <path id="Path_4583" data-name="Path 4583" d="M604.807,199.951a4.291,4.291,0,0,1-.646.751c-.418.441-1.005,1.038-1.663,1.686s-1.263,1.227-1.71,1.637a4.163,4.163,0,0,1-.757.63,4.186,4.186,0,0,1,.643-.748c.418-.441,1.007-1.039,1.667-1.689s1.267-1.23,1.713-1.64a4.083,4.083,0,0,1,.753-.627" transform="translate(-278.934 -92.949)" fill="#e0e0e0"/>
        <path id="Path_4584" data-name="Path 4584" d="M657.858,199.826a4.284,4.284,0,0,1,.751.646c.441.418,1.038,1,1.687,1.663s1.226,1.263,1.636,1.71a4.192,4.192,0,0,1,.63.756,4.127,4.127,0,0,1-.748-.642c-.441-.418-1.04-1.007-1.69-1.667s-1.229-1.267-1.639-1.713a4.1,4.1,0,0,1-.627-.753" transform="translate(-305.815 -92.892)" fill="#e0e0e0"/>
        <path id="Path_4585" data-name="Path 4585" d="M657.725,144.685a4.249,4.249,0,0,1,.646-.751c.418-.441,1-1.038,1.663-1.686s1.264-1.227,1.71-1.637a4.165,4.165,0,0,1,.757-.63,4.168,4.168,0,0,1-.643.748c-.418.441-1.007,1.04-1.667,1.69s-1.267,1.229-1.713,1.64a4.083,4.083,0,0,1-.753.627" transform="translate(-305.754 -65.072)" fill="#e0e0e0"/>
        <path id="Path_4586" data-name="Path 4586" d="M604.736,144.748a4.26,4.26,0,0,1-.751-.646c-.441-.418-1.038-1-1.686-1.663s-1.227-1.263-1.636-1.71a4.143,4.143,0,0,1-.63-.756,4.148,4.148,0,0,1,.747.642c.442.418,1.04,1.007,1.69,1.667s1.229,1.267,1.64,1.713a4.08,4.08,0,0,1,.627.753" transform="translate(-278.934 -65.068)" fill="#e0e0e0"/>
        <path id="Path_4587" data-name="Path 4587" d="M634.954,175.815a1.175,1.175,0,0,1-.005-.133c0-.093,0-.218-.006-.38,0-.342-.007-.834-.012-1.473-.006-1.292-.015-3.172-.027-5.56-.012-4.778-.03-11.584-.051-19.734l.1.1-26.1.015h0l.116-.116c-.006,10.013-.012,19.38-.016,27.28l-.1-.1,18.9.051,5.308.026,1.4.011.363.006a1.044,1.044,0,0,1,.126.005.9.9,0,0,1-.115.006l-.353.005-1.385.011-5.285.026-18.96.051h-.1v-.1c0-7.9-.011-17.267-.017-27.28v-.116h.119l26.1.015h.1v.1c-.021,8.176-.039,15.005-.051,19.8-.012,2.378-.02,4.25-.027,5.537,0,.63-.009,1.116-.012,1.453,0,.157,0,.279-.005.37a.883.883,0,0,1-.006.121" transform="translate(-282.983 -68.995)" fill="#e0e0e0"/>
        <rect id="Rectangle_1914" data-name="Rectangle 1914" width="8.732" height="8.732" transform="translate(334.592 88.813)" fill="#e0e0e0"/>
        <path id="Path_4588" data-name="Path 4588" d="M433.427,382.4v16.927h52.057V382.4Z" transform="translate(-201.486 -177.765)" fill="#f5f5f5"/>
        <path id="Path_4589" data-name="Path 4589" d="M429.346,373.557v4.733h56.061v-4.733H429.346Z" transform="translate(-199.588 -173.654)" fill="#e0e0e0"/>
        <path id="Path_4590" data-name="Path 4590" d="M480.777,395.216h26.21V378.289h1.821v-4.733H479.685v4.295Z" transform="translate(-222.99 -173.654)" fill="#e0e0e0"/>
        <rect id="Rectangle_1915" data-name="Rectangle 1915" width="10.557" height="2.548" transform="translate(239.222 207.365)" fill="#e0e0e0"/>
        <rect id="Rectangle_1916" data-name="Rectangle 1916" width="13.556" height="5.381" transform="translate(237.863 213.098)" fill="#fff"/>
        <path id="Path_4591" data-name="Path 4591" d="M448.393,341.966v16.927H500.45V341.966Z" transform="translate(-208.443 -158.969)" fill="#f5f5f5"/>
        <path id="Path_4592" data-name="Path 4592" d="M444.312,333.123v4.733h56.061v-4.733H444.312Z" transform="translate(-206.546 -154.858)" fill="#ebebeb"/>
        <path id="Path_4593" data-name="Path 4593" d="M495.743,354.783h26.21V337.855h1.82v-4.733H494.651v4.295Z" transform="translate(-229.947 -154.857)" fill="#ebebeb"/>
        <rect id="Rectangle_1917" data-name="Rectangle 1917" width="10.557" height="2.548" transform="translate(247.231 185.727)" fill="#e0e0e0"/>
        <rect id="Rectangle_1918" data-name="Rectangle 1918" width="13.556" height="5.381" transform="translate(245.872 191.461)" fill="#fff"/>
      </g>
    </g>
    <g id="Group_1968" data-name="Group 1968">
      <g id="Group_1967" data-name="Group 1967" clip-path="url(#clip-path)">
        <path id="Path_4594" data-name="Path 4594" d="M361.1,300.137c0,.077-79.412.139-177.348.139-97.97,0-177.365-.062-177.365-.139S85.783,300,183.753,300c97.936,0,177.348.062,177.348.139" transform="translate(-2.97 -139.459)" fill="#263238"/>
        <path id="Path_4595" data-name="Path 4595" d="M360.1,414.246c0,.077-76,.139-169.734.139-93.764,0-169.75-.062-169.75-.139s75.986-.139,169.75-.139c93.732,0,169.734.062,169.734.139" transform="translate(-9.585 -192.504)" fill="#263238"/>
      </g>
    </g>
    <g id="Group_1988" data-name="Group 1988">
      <g id="Group_1987" data-name="Group 1987" clip-path="url(#clip-path)">
        <path id="Path_4596" data-name="Path 4596" d="M359.343,157.2H137.606a7.8,7.8,0,0,1-7.8-7.8V8.055a7.8,7.8,0,0,1,7.8-7.8H359.343a7.8,7.8,0,0,1,7.8,7.8V149.407a7.8,7.8,0,0,1-7.8,7.8" transform="translate(-60.345 -0.121)" fill="#e0e0e0"/>
        <path id="Path_4597" data-name="Path 4597" d="M359.222,157.081s.169-.013.5-.033a3.794,3.794,0,0,0,.621-.069,5.494,5.494,0,0,0,.85-.176,7.35,7.35,0,0,0,2.238-.991,7.66,7.66,0,0,0,2.361-2.4,7.883,7.883,0,0,0,.85-1.85,8.525,8.525,0,0,0,.334-2.235q0-2.39,0-5.223c0-3.775-.008-8.13-.013-13.034-.011-19.614-.026-47.994-.044-83.061q0-13.151-.009-27.523,0-3.589,0-7.249,0-1.83,0-3.678a13.174,13.174,0,0,0-.282-3.658A7.729,7.729,0,0,0,360.857.431c-.306-.061-.617-.107-.927-.142-.622-.044-1.262-.036-1.9-.035h-3.849L288.348.267,137.5.278A7.684,7.684,0,0,0,130.15,5.75a8.306,8.306,0,0,0-.321,2.42v7.451q0,9.911,0,19.686,0,19.547,0,38.488c0,25.234-.005,49.573-.008,72.759q0,1.087,0,2.17a10.293,10.293,0,0,0,.161,2.127,7.719,7.719,0,0,0,1.944,3.7,7.4,7.4,0,0,0,1.64,1.313,6.789,6.789,0,0,0,1.926.817,16.138,16.138,0,0,0,4.193.272l16.712,0,31.957.007,57.36.017,83.056.044,22.581.026,5.873.014c1.323,0,2,.014,2,.014s-.678.01-2,.014l-5.873.013-22.581.026-83.056.044-57.36.017-31.957.007-16.712,0H137.56a8.225,8.225,0,0,1-2.137-.28,8.664,8.664,0,0,1-1.027-.345,8.781,8.781,0,0,1-.964-.5,7.656,7.656,0,0,1-1.694-1.355,7.931,7.931,0,0,1-1.269-1.769,8.475,8.475,0,0,1-.741-2.056,10.563,10.563,0,0,1-.166-2.179q0-1.084,0-2.17c0-23.186-.005-47.526-.008-72.759q0-18.924,0-38.488,0-9.773,0-19.686V8.17a8.582,8.582,0,0,1,.332-2.5A7.963,7.963,0,0,1,137.5,0L288.348.01l65.831.013h3.849c.638,0,1.274-.01,1.922.037.319.036.64.084.955.147a7.954,7.954,0,0,1,5.935,5.632l.118.458c.032.154.05.311.075.466a6.491,6.491,0,0,1,.084.938c.023.625.006,1.238.011,1.855q0,1.848,0,3.678,0,3.66,0,7.249,0,14.356-.009,27.523c-.019,35.067-.034,63.447-.044,83.061-.005,4.9-.01,9.258-.013,13.034q0,2.831-.009,5.223a8.578,8.578,0,0,1-.345,2.253,7.9,7.9,0,0,1-.863,1.862,7.677,7.677,0,0,1-2.385,2.409,7.318,7.318,0,0,1-2.254.983,5.474,5.474,0,0,1-.855.17,3.714,3.714,0,0,1-.623.062c-.335.014-.5.018-.5.018" transform="translate(-60.224 0)" fill="#263238"/>
        <path id="Path_4598" data-name="Path 4598" d="M360.08,288.329H122a9.524,9.524,0,0,1-9.524-9.524V274.6H369.6V278.8a9.524,9.524,0,0,1-9.524,9.524" transform="translate(-52.287 -127.651)" fill="#e0e0e0"/>
        <path id="Path_4599" data-name="Path 4599" d="M359.954,288.208s.1-.01.309-.022a8.274,8.274,0,0,0,.917-.079l.679-.107.81-.21c.292-.083.6-.213.927-.331.319-.149.666-.3,1.014-.5a9.975,9.975,0,0,0,2.131-1.645,9.379,9.379,0,0,0,1.836-2.694,9.487,9.487,0,0,0,.846-3.721c.02-1.379,0-2.855,0-4.422l.051.051-247.59.088h-9.537l.14-.139q0,1.676,0,3.347a11.172,11.172,0,0,0,.325,3.272,9.333,9.333,0,0,0,3.662,5.258,9.764,9.764,0,0,0,6.152,1.716h6.546l25.663,0,48.42.009,81.721.03,54.9.044,14.891.026,3.868.013c.871,0,1.317.014,1.317.014s-.446.009-1.317.014l-3.868.013-14.891.026-54.9.044-81.721.03-48.42.009-25.663,0h-6.546a10.045,10.045,0,0,1-6.312-1.766,9.612,9.612,0,0,1-3.772-5.413,11.479,11.479,0,0,1-.334-3.343v-3.487h9.676l247.59.088h.051v.051c-.007,1.567.006,3.041-.017,4.424a9.56,9.56,0,0,1-.865,3.751,9.438,9.438,0,0,1-1.86,2.708A10.011,10.011,0,0,1,364.635,287c-.352.2-.7.351-1.022.5-.335.116-.641.244-.934.326l-.814.2-.682.1a7.646,7.646,0,0,1-.919.065c-.206.009-.309.009-.309.009" transform="translate(-52.161 -127.53)" fill="#263238"/>
        <path id="Path_4600" data-name="Path 4600" d="M307.837,274.6l3.19,5.075h44.9l2.963-5.075Z" transform="translate(-143.103 -127.651)" fill="#263238"/>
        <path id="Path_4601" data-name="Path 4601" d="M360.956,147.922H154.871a4.537,4.537,0,0,1-4.537-4.537V24.834a4.537,4.537,0,0,1,4.537-4.537H360.956a4.537,4.537,0,0,1,4.537,4.537V143.385a4.537,4.537,0,0,1-4.537,4.537" transform="translate(-69.885 -9.435)" fill="#455a64"/>
        <path id="Path_4602" data-name="Path 4602" d="M360.736,147.8a4.842,4.842,0,0,0,1.7-.342,4.544,4.544,0,0,0,1.737-1.226,4.593,4.593,0,0,0,1.147-2.675c.031-4.508-.007-11.169-.006-19.74-.011-17.147-.026-41.955-.044-72.609q0-11.5-.009-24.059,0-.784,0-1.573a8.474,8.474,0,0,0-.074-1.557,4.522,4.522,0,0,0-4.39-3.73l-3.244,0-13.283,0-57.547.013-131.863.011a4.514,4.514,0,0,0-3.647,1.853,4.368,4.368,0,0,0-.8,1.938,17.951,17.951,0,0,0-.06,2.157v8.692q0,8.664,0,17.209,0,17.087,0,33.645t0,32.472q0,7.958,0,15.744,0,3.892,0,7.74c.011.636-.026,1.294.029,1.905a4.47,4.47,0,0,0,.58,1.754,4.528,4.528,0,0,0,2.9,2.136,8.193,8.193,0,0,0,1.86.115h13.111l14.609,0,27.936.007,50.143.017,72.6.044,19.74.026,5.134.013c1.156,0,1.749.014,1.749.014s-.592.01-1.749.014l-5.134.013-19.74.026-72.6.044-50.143.017-27.936.007-14.609,0H155.71a8.4,8.4,0,0,1-1.917-.12,4.786,4.786,0,0,1-3.066-2.257,4.728,4.728,0,0,1-.614-1.854c-.058-.664-.02-1.289-.032-1.934q0-3.847,0-7.74,0-7.784,0-15.744,0-15.915,0-32.472t0-33.645q0-8.544,0-17.209V26.262a17.91,17.91,0,0,1,.064-2.2A4.635,4.635,0,0,1,150.989,22a4.792,4.792,0,0,1,3.872-1.968l131.863.011,57.547.013,13.283,0,3.247,0a4.739,4.739,0,0,1,4.6,3.913,8.68,8.68,0,0,1,.077,1.595q0,.788,0,1.573,0,12.549-.009,24.059c-.019,30.654-.034,55.462-.044,72.609-.017,8.573,0,15.227-.046,19.744a4.63,4.63,0,0,1-1.171,2.7,4.556,4.556,0,0,1-1.758,1.224,4.628,4.628,0,0,1-1.272.3c-.293.012-.441.015-.441.015" transform="translate(-69.762 -9.314)" fill="#263238"/>
        <path id="Path_4603" data-name="Path 4603" d="M294.971,74.663v1.225h-5.107v-6.6h4.985v1.225h-3.468v1.433h3.063v1.187h-3.063v1.527Z" transform="translate(-134.748 -32.211)" fill="#fff"/>
        <path id="Path_4604" data-name="Path 4604" d="M306.669,74.247v2.9H305.2V74.473c0-.819-.377-1.2-1.027-1.2-.706,0-1.215.433-1.215,1.366v2.507h-1.47V72.079h1.4v.593A2.219,2.219,0,0,1,304.567,72a1.987,1.987,0,0,1,2.1,2.243" transform="translate(-140.151 -33.472)" fill="#fff"/>
        <path id="Path_4605" data-name="Path 4605" d="M316.4,75.995a2.1,2.1,0,0,1-1.2.321A1.671,1.671,0,0,1,313.31,74.5V72.414h-.782V71.284h.782V70.049h1.469v1.235h1.263v1.131H314.78v2.063a.592.592,0,0,0,.631.669,1,1,0,0,0,.594-.188Z" transform="translate(-145.284 -32.563)" fill="#fff"/>
        <path id="Path_4606" data-name="Path 4606" d="M325.626,75.029h-3.835a1.352,1.352,0,0,0,1.451,1.017,1.716,1.716,0,0,0,1.272-.49l.782.848a2.658,2.658,0,0,1-2.092.82,2.631,2.631,0,0,1-2.892-2.61,2.581,2.581,0,0,1,2.7-2.61,2.509,2.509,0,0,1,2.638,2.629c0,.113-.019.273-.028.4m-3.854-.858h2.5a1.266,1.266,0,0,0-2.5,0" transform="translate(-148.902 -33.472)" fill="#fff"/>
        <path id="Path_4607" data-name="Path 4607" d="M335.275,72v1.357c-.122-.01-.217-.019-.33-.019a1.246,1.246,0,0,0-1.347,1.414v2.393h-1.47V72.079h1.4v.669A2.046,2.046,0,0,1,335.275,72" transform="translate(-154.395 -33.472)" fill="#fff"/>
        <path id="Path_4608" data-name="Path 4608" d="M347.267,73.551v2.337H345.74V73.532l-2.553-4.24h1.62l1.762,2.93,1.762-2.93h1.5Z" transform="translate(-159.536 -32.211)" fill="#fff"/>
        <path id="Path_4609" data-name="Path 4609" d="M354.844,74.614a2.79,2.79,0,1,1,2.789,2.61,2.609,2.609,0,0,1-2.789-2.61m4.08,0a1.3,1.3,0,1,0-1.291,1.4,1.28,1.28,0,0,0,1.291-1.4" transform="translate(-164.955 -33.472)" fill="#fff"/>
        <path id="Path_4610" data-name="Path 4610" d="M372.166,72.144v5.07h-1.394v-.6a2.054,2.054,0,0,1-1.574.678,2.021,2.021,0,0,1-2.167-2.28V72.144h1.47v2.648c0,.848.377,1.225,1.027,1.225.679,0,1.169-.433,1.169-1.366V72.144Z" transform="translate(-170.62 -33.537)" fill="#fff"/>
        <path id="Path_4611" data-name="Path 4611" d="M382.329,72v1.357c-.122-.01-.217-.019-.33-.019a1.246,1.246,0,0,0-1.348,1.414v2.393h-1.47V72.079h1.4v.669A2.047,2.047,0,0,1,382.329,72" transform="translate(-176.268 -33.472)" fill="#fff"/>
        <path id="Path_4612" data-name="Path 4612" d="M391.173,72.492a3.615,3.615,0,1,1,3.609,3.411,3.413,3.413,0,0,1-3.609-3.411m5.673,0a2.064,2.064,0,1,0-2.063,2.111,2.012,2.012,0,0,0,2.063-2.111" transform="translate(-181.843 -32.113)" fill="#fff"/>
        <path id="Path_4613" data-name="Path 4613" d="M407.356,70.536h-2.111V69.292h5.748v1.244h-2.111v5.352h-1.527Z" transform="translate(-188.385 -32.212)" fill="#fff"/>
        <path id="Path_4614" data-name="Path 4614" d="M423.239,71.685c0,1.47-1.1,2.384-2.865,2.384h-1.328v1.819h-1.527v-6.6h2.855c1.762,0,2.865.914,2.865,2.394m-1.546,0c0-.726-.471-1.149-1.4-1.149h-1.244v2.29h1.244c.933,0,1.4-.424,1.4-1.14" transform="translate(-194.091 -32.211)" fill="#fff"/>
        <g id="Group_1971" data-name="Group 1971" transform="translate(130.494 57.284)" opacity="0.2">
          <g id="Group_1970" data-name="Group 1970">
            <g id="Group_1969" data-name="Group 1969" clip-path="url(#clip-path-5)">
              <path id="Path_4615" data-name="Path 4615" d="M257.669,129.859H246.784a2.93,2.93,0,0,1-2.93-2.93V109.977a2.93,2.93,0,0,1,2.93-2.93h10.885a2.93,2.93,0,0,1,2.93,2.93v16.952a2.93,2.93,0,0,1-2.93,2.93" transform="translate(-243.854 -107.047)" fill="#fff"/>
            </g>
          </g>
        </g>
        <g id="Group_1974" data-name="Group 1974" transform="translate(151.563 57.284)" opacity="0.2">
          <g id="Group_1973" data-name="Group 1973">
            <g id="Group_1972" data-name="Group 1972" clip-path="url(#clip-path-6)">
              <path id="Path_4616" data-name="Path 4616" d="M297.04,129.859H286.155a2.93,2.93,0,0,1-2.929-2.93V109.977a2.93,2.93,0,0,1,2.929-2.93H297.04a2.93,2.93,0,0,1,2.93,2.93v16.952a2.93,2.93,0,0,1-2.93,2.93" transform="translate(-283.225 -107.047)" fill="#fff"/>
            </g>
          </g>
        </g>
        <g id="Group_1977" data-name="Group 1977" transform="translate(172.633 57.284)" opacity="0.2">
          <g id="Group_1976" data-name="Group 1976">
            <g id="Group_1975" data-name="Group 1975" clip-path="url(#clip-path-5)">
              <path id="Path_4617" data-name="Path 4617" d="M336.412,129.859H325.527a2.93,2.93,0,0,1-2.93-2.93V109.977a2.93,2.93,0,0,1,2.93-2.93h10.885a2.93,2.93,0,0,1,2.93,2.93v16.952a2.93,2.93,0,0,1-2.93,2.93" transform="translate(-322.597 -107.047)" fill="#fff"/>
            </g>
          </g>
        </g>
        <g id="Group_1980" data-name="Group 1980" transform="translate(193.701 57.284)" opacity="0.2">
          <g id="Group_1979" data-name="Group 1979">
            <g id="Group_1978" data-name="Group 1978" clip-path="url(#clip-path-6)">
              <path id="Path_4618" data-name="Path 4618" d="M375.783,129.859H364.9a2.93,2.93,0,0,1-2.93-2.93V109.977a2.93,2.93,0,0,1,2.93-2.93h10.885a2.93,2.93,0,0,1,2.93,2.93v16.952a2.93,2.93,0,0,1-2.93,2.93" transform="translate(-361.968 -107.047)" fill="#fff"/>
            </g>
          </g>
        </g>
        <g id="Group_1983" data-name="Group 1983" transform="translate(214.771 57.284)" opacity="0.2">
          <g id="Group_1982" data-name="Group 1982">
            <g id="Group_1981" data-name="Group 1981" clip-path="url(#clip-path-5)">
              <path id="Path_4619" data-name="Path 4619" d="M415.155,129.859H404.27a2.93,2.93,0,0,1-2.93-2.93V109.977a2.93,2.93,0,0,1,2.93-2.93h10.885a2.93,2.93,0,0,1,2.93,2.93v16.952a2.93,2.93,0,0,1-2.93,2.93" transform="translate(-401.34 -107.047)" fill="#fff"/>
            </g>
          </g>
        </g>
        <g id="Group_1986" data-name="Group 1986" transform="translate(235.839 57.284)" opacity="0.2">
          <g id="Group_1985" data-name="Group 1985">
            <g id="Group_1984" data-name="Group 1984" clip-path="url(#clip-path-6)">
              <path id="Path_4620" data-name="Path 4620" d="M454.526,129.859H443.641a2.93,2.93,0,0,1-2.93-2.93V109.977a2.93,2.93,0,0,1,2.93-2.93h10.885a2.93,2.93,0,0,1,2.93,2.93v16.952a2.93,2.93,0,0,1-2.93,2.93" transform="translate(-440.711 -107.047)" fill="#fff"/>
            </g>
          </g>
        </g>
        <path id="Path_4621" data-name="Path 4621" d="M257.987,125.376l2,1.085-.9,1.509-2.023-1.2L257.1,129h-1.729l.018-2.244-2.023,1.214-.883-1.509,2-1.085-2-1.1.883-1.508,2.023,1.214-.018-2.244H257.1l-.037,2.244,2.023-1.214.9,1.508Z" transform="translate(-117.373 -56.59)" fill="#263238"/>
        <path id="Path_4622" data-name="Path 4622" d="M354.414,191.21H315.662a6.974,6.974,0,0,1-6.974-6.974v-1.417a6.974,6.974,0,0,1,6.974-6.974h38.752a6.974,6.974,0,0,1,6.974,6.974v1.417a6.974,6.974,0,0,1-6.974,6.974" transform="translate(-143.499 -81.744)" fill="#ff725e"/>
        <path id="Path_4623" data-name="Path 4623" d="M330.408,187.579a2.386,2.386,0,0,1,4.134-1.473l-.644.595a1.394,1.394,0,0,0-1.089-.508,1.387,1.387,0,1,0,0,2.773,1.381,1.381,0,0,0,1.089-.514l.644.594a2.381,2.381,0,0,1-4.134-1.467" transform="translate(-153.596 -86.157)" fill="#fff"/>
        <path id="Path_4624" data-name="Path 4624" d="M338.583,188.973a1.833,1.833,0,1,1,1.832,1.715,1.714,1.714,0,0,1-1.832-1.715m2.68,0a.854.854,0,1,0-.848.923.84.84,0,0,0,.848-.923" transform="translate(-157.396 -87.05)" fill="#fff"/>
        <path id="Path_4625" data-name="Path 4625" d="M350.025,188.732v1.907h-.966V188.88c0-.538-.247-.786-.674-.786-.465,0-.8.285-.8.9v1.647h-.965v-3.33h.922v.39a1.459,1.459,0,0,1,1.1-.439,1.305,1.305,0,0,1,1.38,1.473" transform="translate(-161.132 -87.05)" fill="#fff"/>
        <path id="Path_4626" data-name="Path 4626" d="M356.415,189.88a1.382,1.382,0,0,1-.787.211,1.1,1.1,0,0,1-1.244-1.195v-1.368h-.514v-.743h.514v-.811h.965v.811h.83v.743h-.83v1.355a.389.389,0,0,0,.415.439.652.652,0,0,0,.39-.124Z" transform="translate(-164.502 -86.454)" fill="#fff"/>
        <path id="Path_4627" data-name="Path 4627" d="M359.421,185.009a.552.552,0,0,1,.6-.538.542.542,0,0,1,.6.52.6.6,0,0,1-1.2.018m.118,1h.965v3.33h-.965Z" transform="translate(-167.083 -85.754)" fill="#fff"/>
        <path id="Path_4628" data-name="Path 4628" d="M366.526,188.732v1.907h-.966V188.88c0-.538-.248-.786-.674-.786-.465,0-.8.285-.8.9v1.647h-.965v-3.33h.922v.39a1.461,1.461,0,0,1,1.1-.439,1.305,1.305,0,0,1,1.38,1.473" transform="translate(-168.803 -87.05)" fill="#fff"/>
        <path id="Path_4629" data-name="Path 4629" d="M374.45,187.351v3.33h-.916v-.4a1.347,1.347,0,0,1-1.034.446,1.327,1.327,0,0,1-1.423-1.5v-1.882h.966v1.739c0,.557.248.8.675.8.446,0,.767-.285.767-.9v-1.647Z" transform="translate(-172.501 -87.093)" fill="#fff"/>
        <path id="Path_4630" data-name="Path 4630" d="M382.084,189.245h-2.519a.889.889,0,0,0,.954.669,1.126,1.126,0,0,0,.835-.322l.514.557a1.944,1.944,0,0,1-3.274-1.176,1.7,1.7,0,0,1,1.776-1.714,1.648,1.648,0,0,1,1.733,1.726c0,.075-.012.18-.019.26m-2.531-.563h1.64a.831.831,0,0,0-1.64,0" transform="translate(-175.995 -87.05)" fill="#fff"/>
        <path id="Path_4631" data-name="Path 4631" d="M356.287,8.315a2.365,2.365,0,1,1-2.365-2.365,2.365,2.365,0,0,1,2.365,2.365" transform="translate(-163.427 -2.766)" fill="#263238"/>
        <path id="Path_4632" data-name="Path 4632" d="M522.6,32.313V30.045a.467.467,0,0,1,.441-.49h3.413a.467.467,0,0,1,.441.49v2.268a.467.467,0,0,1-.441.49h-3.413a.468.468,0,0,1-.441-.49" transform="translate(-242.941 -13.739)" fill="#263238"/>
        <path id="Path_4633" data-name="Path 4633" d="M528.31,32.787H521.58a.6.6,0,0,1-.6-.6V28.474a.6.6,0,0,1,.6-.6h6.637a.548.548,0,0,1,.547.547V29.1a.09.09,0,0,0,.09.09h.727a.358.358,0,0,1,.358.357v1.2a.444.444,0,0,1-.444.443h-.548a.09.09,0,0,0-.09.09v.95a.548.548,0,0,1-.547.547m-6.729-4.645a.333.333,0,0,0-.333.333v3.712a.334.334,0,0,0,.333.333h6.729a.28.28,0,0,0,.28-.28v-.95a.358.358,0,0,1,.357-.357h.548a.176.176,0,0,0,.176-.176v-1.2a.09.09,0,0,0-.09-.09h-.727a.358.358,0,0,1-.357-.358v-.684a.28.28,0,0,0-.28-.279Z" transform="translate(-242.186 -12.958)" fill="#263238"/>
      </g>
    </g>
    <g id="Group_1993" data-name="Group 1993">
      <g id="Group_1992" data-name="Group 1992" clip-path="url(#clip-path)">
        <path id="Path_4634" data-name="Path 4634" d="M115.931,149.193a4.5,4.5,0,0,0-4.064-3.061,2.9,2.9,0,0,0-1.719-3.4,5.015,5.015,0,0,0-4.059.293,13.6,13.6,0,0,1-2.69,1.233c-1.267.286-2.578-.111-3.877-.155a7.254,7.254,0,0,0-6.514,3.79c-.432.822-.7,1.725-1.177,2.522-.382.638-.888,1.194-1.265,1.834a5.482,5.482,0,0,0,.438,6.052l18.26-4.2a4.375,4.375,0,0,0,6.666-4.91" transform="translate(-41.772 -66.207)" fill="#263238"/>
        <path id="Path_4635" data-name="Path 4635" d="M200.947,279.08l-17.589-1.743-1.018,9.136,19.862-.69Z" transform="translate(-84.764 -128.925)" fill="#ffc09d"/>
        <path id="Path_4636" data-name="Path 4636" d="M229.959,281.952a.975.975,0,0,1-1.015.394,1.119,1.119,0,0,1-.234-.087c-.524-.264-.294-1.381-.294-1.381l-2.577-.85a28.686,28.686,0,0,0-5.247,2.952c-1.456,1.277-4.39-.407-4.39-.407l-.191-5.809,5.565-3.634s-.34.215.126-.555,1.947-.217,1.947-.217c.3-.369,1.325-.357,1.325-.357l4.193,1.167a2.965,2.965,0,0,1,1.928,1.683l1.354,3.144s.628,2.209.4,2.663a.865.865,0,0,1-1.084.4s-.424,1.32-.787,1.311a2.964,2.964,0,0,1-1.017-.421" transform="translate(-100.416 -126.444)" fill="#ffc09d"/>
        <path id="Path_4637" data-name="Path 4637" d="M221.923,282.111a1.562,1.562,0,0,0,.284-.154l.806-.461a30.123,30.123,0,0,1,3.112-1.49l-.062,0,2.571.867-.073-.126a2.909,2.909,0,0,0-.053.654,1.216,1.216,0,0,0,.2.683.666.666,0,0,0,.325.216.938.938,0,0,0,.369.081,1.1,1.1,0,0,0,.715-.26,1.171,1.171,0,0,0,.14-.138l.031-.039.015-.02.007-.01h0l-.164.032,0,0,.005,0,.078.048c.1.062.212.12.323.174a2.907,2.907,0,0,0,.348.148,1.383,1.383,0,0,0,.193.052.45.45,0,0,0,.252-.009.8.8,0,0,0,.315-.309,3.04,3.04,0,0,0,.189-.343,6.385,6.385,0,0,0,.288-.721l-.171.082a1.017,1.017,0,0,0,1.039-.18.825.825,0,0,0,.265-.5,2.383,2.383,0,0,0-.013-.527,14.438,14.438,0,0,0-.428-2.017l0-.008,0-.009-.721-1.678-.458-1.063a5.314,5.314,0,0,0-.522-1.042,2.883,2.883,0,0,0-.858-.789,3.752,3.752,0,0,0-1.054-.4l-3.954-1.089-.017,0h-.014a3.751,3.751,0,0,0-.736.074,1.214,1.214,0,0,0-.681.332l.156-.023a1.5,1.5,0,0,0-1.384-.14,1.746,1.746,0,0,0-.849.974l.041-.051-3.833,2.487-1.035.69a2.407,2.407,0,0,0-.35.258,2.4,2.4,0,0,0,.382-.208L218,275.52l3.881-2.41.026-.017.015-.034a1.545,1.545,0,0,1,.747-.844,1.273,1.273,0,0,1,1.164.133l.087.053.069-.076a1.025,1.025,0,0,1,.549-.245,3.566,3.566,0,0,1,.684-.064l-.031,0,3.948,1.111a3.5,3.5,0,0,1,.986.373,2.612,2.612,0,0,1,.775.715,5.048,5.048,0,0,1,.492.991l.458,1.063.723,1.677-.006-.017a14.27,14.27,0,0,1,.424,1.971,2.185,2.185,0,0,1,.015.465.559.559,0,0,1-.183.342.756.756,0,0,1-.762.128l-.13-.043-.042.125a6.279,6.279,0,0,1-.272.691,1.306,1.306,0,0,1-.367.528.258.258,0,0,1-.11,0,1.108,1.108,0,0,1-.159-.043,2.772,2.772,0,0,1-.319-.133c-.1-.051-.207-.105-.307-.164l-.073-.044,0,0h0l-.166.032h0l-.006.008-.012.016-.024.03a.926.926,0,0,1-.11.11.855.855,0,0,1-.555.209.714.714,0,0,1-.288-.063.435.435,0,0,1-.226-.14,1.675,1.675,0,0,1-.115-1.15l.015-.1-.088-.028-2.583-.832-.033-.011-.03.013a25.854,25.854,0,0,0-3.094,1.573c-.347.211-.609.382-.783.5a1.537,1.537,0,0,0-.257.2" transform="translate(-100.669 -126.337)" fill="#ff9b6c"/>
        <path id="Path_4638" data-name="Path 4638" d="M231.192,275.69a5.179,5.179,0,0,0,1.306.626,13.87,13.87,0,0,0,3.482.812l-.126-.118c.039.222.081.455.136.69a10.673,10.673,0,0,0,1.638,3.7,8.978,8.978,0,0,0,.772.956c.2.209.322.314.336.3.035-.031-.392-.507-.94-1.369a11.894,11.894,0,0,1-1.528-3.653c-.054-.229-.1-.456-.134-.672l-.019-.108-.107-.01a16.7,16.7,0,0,1-3.448-.71c-.849-.27-1.351-.484-1.368-.447" transform="translate(-107.473 -128.157)" fill="#ff9b6c"/>
        <path id="Path_4639" data-name="Path 4639" d="M238.014,281.542a6.9,6.9,0,0,0,2.271,4.679c.065-.057-.715-.945-1.337-2.242s-.848-2.454-.934-2.437" transform="translate(-110.635 -130.879)" fill="#ff9b6c"/>
        <path id="Path_4640" data-name="Path 4640" d="M215.3,283.656c0,.007.037.041.123.1a3.119,3.119,0,0,0,.4.23,4.64,4.64,0,0,0,1.651.46,4.706,4.706,0,0,0,2.56-.494,4.908,4.908,0,0,0,2.253-2.4l-.172.076a10.983,10.983,0,0,0,4.233.644,3.524,3.524,0,0,0,1.146-.186.869.869,0,0,0,.485-.4.8.8,0,0,0-.393-1.077l-.474-.2c-1.248-.519-2.394-.931-3.366-1.245s-1.769-.534-2.322-.673a4.9,4.9,0,0,0-.869-.18,5.723,5.723,0,0,0,.839.287c.543.171,1.328.42,2.288.757s2.093.766,3.328,1.3l.467.2a.528.528,0,0,1,.274.3.52.52,0,0,1-.019.409.589.589,0,0,1-.343.267,3.3,3.3,0,0,1-1.054.162,11,11,0,0,1-4.129-.619l-.122-.043-.05.118a4.73,4.73,0,0,1-2.11,2.3,4.629,4.629,0,0,1-2.438.529,5,5,0,0,1-1.625-.371c-.362-.151-.547-.263-.558-.245" transform="translate(-100.085 -129.376)" fill="#ff9b6c"/>
        <path id="Path_4641" data-name="Path 4641" d="M103.406,196.809a7.985,7.985,0,0,1-7.8-7.991l-.332-26.493c-.309-7.114,3.457-13.229,10.381-13.351l.641.027a12.558,12.558,0,0,1,11.86,12.219c.235,6.168.486,12.128.314,15.425-.356,6.824-7.106,7.5-7.106,7.5s-.018,2.547-.015,4.552a7.986,7.986,0,0,1-7.94,8.113" transform="translate(-44.28 -69.253)" fill="#ffc09d"/>
        <path id="Path_4642" data-name="Path 4642" d="M117.936,212.175a15.734,15.734,0,0,1-8.538-3s1.873,5.221,8.521,4.888Z" transform="translate(-50.855 -97.241)" fill="#ff9b6c"/>
        <path id="Path_4643" data-name="Path 4643" d="M131.822,182.4a.961.961,0,0,1-.954.945.919.919,0,0,1-.942-.921.962.962,0,0,1,.953-.946.92.92,0,0,1,.943.921" transform="translate(-60.399 -84.363)" fill="#263238"/>
        <path id="Path_4644" data-name="Path 4644" d="M131.928,176.421c-.123.122-.819-.455-1.839-.5s-1.789.452-1.894.319c-.052-.059.077-.284.413-.514a2.548,2.548,0,0,1,1.523-.413,2.463,2.463,0,0,1,1.458.553c.3.261.4.5.34.55" transform="translate(-59.588 -81.498)" fill="#263238"/>
        <path id="Path_4645" data-name="Path 4645" d="M114.518,182.4a.961.961,0,0,1-.954.945.919.919,0,0,1-.942-.92.963.963,0,0,1,.953-.946.92.92,0,0,1,.943.921" transform="translate(-52.355 -84.363)" fill="#263238"/>
        <path id="Path_4646" data-name="Path 4646" d="M113.224,176.081c-.123.122-.82-.455-1.84-.5s-1.788.453-1.894.319c-.052-.059.075-.284.413-.514a2.547,2.547,0,0,1,1.523-.413,2.458,2.458,0,0,1,1.457.553c.3.261.4.495.341.55" transform="translate(-50.893 -81.34)" fill="#263238"/>
        <path id="Path_4647" data-name="Path 4647" d="M122.6,184.786a6.586,6.586,0,0,1,1.669-.237c.262-.017.511-.059.562-.24a1.4,1.4,0,0,0-.142-.8L124,181.435a35.934,35.934,0,0,1-1.516-5.41,35.783,35.783,0,0,1,1.936,5.272q.344,1.091.656,2.084a1.6,1.6,0,0,1,.093,1.057.66.66,0,0,1-.444.374,1.747,1.747,0,0,1-.445.044,6.477,6.477,0,0,1-1.679-.069" transform="translate(-56.932 -81.828)" fill="#263238"/>
        <path id="Path_4648" data-name="Path 4648" d="M113.287,169.881c-.149.262-1.128-.062-2.332-.14-1.2-.1-2.216.071-2.327-.21-.048-.134.165-.367.6-.565a3.96,3.96,0,0,1,3.55.266c.4.262.578.523.512.649" transform="translate(-50.494 -78.408)" fill="#263238"/>
        <path id="Path_4649" data-name="Path 4649" d="M131.936,170.626c-.218.233-1.043-.037-2.042-.076-1-.069-1.849.11-2.038-.145-.082-.124.057-.359.432-.574a3.141,3.141,0,0,1,1.671-.346,3.106,3.106,0,0,1,1.617.523c.347.255.456.5.36.617" transform="translate(-59.425 -78.786)" fill="#263238"/>
        <path id="Path_4650" data-name="Path 4650" d="M91.97,183.17c-.111-.055-4.505-1.581-4.548,3.092s4.529,3.753,4.538,3.62.01-6.712.01-6.712" transform="translate(-40.639 -85.019)" fill="#ffc09d"/>
        <path id="Path_4651" data-name="Path 4651" d="M91.589,189.4c-.02-.015-.08.056-.214.118a.769.769,0,0,1-.592.007,2.03,2.03,0,0,1-.89-1.816,2.745,2.745,0,0,1,.232-1.163.928.928,0,0,1,.6-.62.4.4,0,0,1,.465.228c.06.131.03.224.054.233s.1-.078.064-.271a.524.524,0,0,0-.176-.295.586.586,0,0,0-.437-.123,1.12,1.12,0,0,0-.834.717,2.834,2.834,0,0,0-.286,1.3,2.121,2.121,0,0,0,1.137,2.029.828.828,0,0,0,.725-.117c.142-.114.166-.218.151-.227" transform="translate(-41.641 -86.325)" fill="#ff9b6c"/>
        <path id="Path_4652" data-name="Path 4652" d="M97.276,155.022a3.342,3.342,0,0,1,2.27-2.592,4.634,4.634,0,0,1,3.071.039c2.558.933,6.928,2.326,8.07,1.433a7.135,7.135,0,0,0,2.036-2.122l.9.981c.736-.417-1.47-2.868-3.277-3.712-2.731-1.276-6.9-2.063-9.421-1.33a10.974,10.974,0,0,0-7.077,5.271,18.815,18.815,0,0,0-2.012,9.385c.026.989-.154,3.824.8,4.042a1.746,1.746,0,0,1,1.634,1.924,1.992,1.992,0,0,0,.471,1.427c.831.911,1.848.056,2.317-.8a13.855,13.855,0,0,0,1.2-6.113,14.05,14.05,0,0,0-.285-4.445,13.938,13.938,0,0,1-.733-2.872,2.454,2.454,0,0,1,.029-.516" transform="translate(-42.689 -68.539)" fill="#263238"/>
        <path id="Path_4653" data-name="Path 4653" d="M120.019,195.516c.028.071-.182.247-.6.339a2.428,2.428,0,0,1-1.645-.258,2.5,2.5,0,0,1-1.112-1.236c-.157-.4-.134-.671-.06-.689.158-.053.5.886,1.456,1.406s1.921.28,1.966.438" transform="translate(-54.176 -90.03)" fill="#263238"/>
        <path id="Path_4654" data-name="Path 4654" d="M78.91,279.39l-21.736-4.78-13.95-34.619s-18.669,4.141-21.75,14.571c-2.664,9.019-8.165,48.872,4.338,73.442a18.884,18.884,0,0,0,16.856,10.24h95.105a23.579,23.579,0,0,0,23.435-20.955,103.6,103.6,0,0,0,.835-12.354l-15.27-11.723Z" transform="translate(-8.343 -111.564)" fill="#455a64"/>
        <g id="Group_1991" data-name="Group 1991" transform="translate(128.707 176.933)" opacity="0.3">
          <g id="Group_1990" data-name="Group 1990">
            <g id="Group_1989" data-name="Group 1989" clip-path="url(#clip-path-12)">
              <path id="Path_4655" data-name="Path 4655" d="M240.513,333.571c6.691,8.744,14.839,16.6,24.58,21.734l.461-11.87-17.988-12.8Z" transform="translate(-240.513 -330.633)"/>
            </g>
          </g>
        </g>
        <path id="Path_4656" data-name="Path 4656" d="M105.4,225.455c0,.629,4.944,2.667,7.179,1.773,3.4-1.358,2.981-4.027,2.981-4.027l1.885,1.992,18.93,28.841,14.07,9.287-22.522,7.132-23.605-27.122Z" transform="translate(-48.493 -103.759)" fill="#f5f5f5"/>
        <path id="Path_4657" data-name="Path 4657" d="M84.685,209.321l-.5.928-2.245,4.192L72.59,220.4l19.227,22.852L100.595,264l21.03,6.584s-10.006-15.389-13.115-23.253-3.428-7.5-6.263-13.26a130.274,130.274,0,0,1-5.139-12.5Z" transform="translate(-33.745 -97.306)" fill="#ff725e"/>
        <path id="Path_4658" data-name="Path 4658" d="M154.246,254.908l4.124,3.849,1.167,2.378L144.2,254l-11.071-15.5s-3.946-8.751-5.3-11.885c-1.426-3.3-2.491-5.164-2.491-5.164l-.016-2.6,5.6,5.04,4.665,1.39,7.79,12.314Z" transform="translate(-58.258 -101.734)" fill="#ff725e"/>
        <path id="Path_4659" data-name="Path 4659" d="M157.612,245.756s-1.861-3.973-3.381-7.274c-3.425-7.439-11.5-8.146-11.5-8.146l8.924,24.755,10.937,7.754s3.11,1.086,3.5,0c0,0,2.278-8.207,2.209-8.24s-7.782-2.337-7.782-2.337l-3.106-6.935" transform="translate(-66.351 -107.075)" fill="#ff725e"/>
        <path id="Path_4660" data-name="Path 4660" d="M192.044,244.311l-10.623,17.7,11.124-.33,9.81-16.4a.945.945,0,0,0-.811-1.43h-8.69a.945.945,0,0,0-.81.459" transform="translate(-84.337 -113.359)" fill="#263238"/>
        <path id="Path_4661" data-name="Path 4661" d="M124.922,270.7l26.588-3.165,4.472-7.826,3.5-1.924a1.745,1.745,0,0,1,1.869.119l.329.24,2.6-.326a2.061,2.061,0,0,1,1.277.254l1.841,1.047a.882.882,0,0,1-.6,1.629l-1.79-.329-2.737.892s1.766.188,1.99,1.529-.671,1.368-.671,1.368a1.716,1.716,0,0,1,.559,2.656s1.549,1.031-.186,2.991c-1.175,1.327-9.643,5.647-9.643,5.647L124.922,286.43Z" transform="translate(-58.072 -119.737)" fill="#ffc09d"/>
        <path id="Path_4662" data-name="Path 4662" d="M191.3,274.993c0-.011.2,0,.433.242a1.405,1.405,0,0,1,.283,1.313,3.858,3.858,0,0,1-1.144,1.635A13.885,13.885,0,0,1,189,279.724a24.948,24.948,0,0,1-3.835,2.117,10.553,10.553,0,0,1-1.679.68,12.841,12.841,0,0,1,1.594-.857,32.639,32.639,0,0,0,3.762-2.168,15.325,15.325,0,0,0,1.848-1.5,3.848,3.848,0,0,0,1.133-1.506,1.326,1.326,0,0,0-.176-1.188c-.183-.238-.362-.287-.35-.312" transform="translate(-85.297 -127.834)" fill="#ff9b6c"/>
        <path id="Path_4663" data-name="Path 4663" d="M191.048,258.756a7.231,7.231,0,0,1-2.728.739,7.234,7.234,0,0,1,2.728-.739" transform="translate(-87.543 -120.276)" fill="#ff9b6c"/>
        <path id="Path_4664" data-name="Path 4664" d="M196.533,262.885a14.311,14.311,0,0,1-3.78,1.257,14.314,14.314,0,0,1,3.78-1.257" transform="translate(-89.604 -122.2)" fill="#ff9b6c"/>
        <path id="Path_4665" data-name="Path 4665" d="M193.543,268.631c-.079-.009-.116-.241-.207-.5s-.2-.467-.142-.522.3.107.406.432.017.6-.057.59" transform="translate(-89.802 -124.398)" fill="#ff9b6c"/>
        <path id="Path_4666" data-name="Path 4666" d="M195.2,273.827c-.078-.018-.049-.4-.161-.835s-.306-.763-.244-.814.391.235.515.748-.04.925-.11.9" transform="translate(-90.548 -126.523)" fill="#ff9b6c"/>
        <path id="Path_4667" data-name="Path 4667" d="M67.545,229.142c-.884.538-8.4,5.669-7.306,14.081s17.739,27.431,21.213,27.8L94.8,273.215V257.487l-6.4-.365-8.412-16.459Z" transform="translate(-27.952 -106.52)" fill="#ff725e"/>
        <path id="Path_4668" data-name="Path 4668" d="M109.914,268.216a2.065,2.065,0,0,1-.478.047l-1.348.052-4.782.1-.067,0-.042-.056-3.382-4.544c-2.016-2.726-3.827-5.2-5.126-7.006l-1.525-2.143a5.968,5.968,0,0,1-.527-.81,5.932,5.932,0,0,1,.621.741l1.6,2.086c1.343,1.77,3.181,4.228,5.2,6.954l3.354,4.565-.109-.054,4.783,0,1.349.023a2.074,2.074,0,0,1,.479.036" transform="translate(-43.064 -118.012)" fill="#263238"/>
        <path id="Path_4669" data-name="Path 4669" d="M105.337,228.287a2.525,2.525,0,0,1-.261-.476l-.66-1.379.142.014a17.034,17.034,0,0,0-1.288,2.22,19.866,19.866,0,0,1-1.673,2.946l-.108.149-.116-.143c-.864-1.065-1.853-2.2-2.917-3.361-2.331-2.535-4.557-4.725-6.146-6.331l-1.876-1.91a6.138,6.138,0,0,1-.658-.731,6.14,6.14,0,0,1,.74.648l1.943,1.841c1.627,1.567,3.879,3.735,6.218,6.279,1.068,1.163,2.056,2.31,2.914,3.388l-.223.006a20.793,20.793,0,0,0,1.693-2.89,15.559,15.559,0,0,1,1.363-2.21l.088-.117.055.131.589,1.411a2.518,2.518,0,0,1,.181.512" transform="translate(-41.734 -101.939)" fill="#263238"/>
        <path id="Path_4670" data-name="Path 4670" d="M133.293,227.806a2.766,2.766,0,0,1,.4.791,21.223,21.223,0,0,1,.7,2.213l.181.649-.414-.535a17.939,17.939,0,0,0-1.963-2.068c-.618-.57-1.225-1.095-1.776-1.574l.227-.087a24.253,24.253,0,0,0-.084,2.641,2.962,2.962,0,0,1-.129,1.032c-.034,0-.005-.383-.039-1.031a16.785,16.785,0,0,1-.023-2.679l.027-.254.2.166c.561.468,1.177.988,1.8,1.564a15.588,15.588,0,0,1,1.97,2.13l-.233.114c-.232-.929-.418-1.7-.59-2.229a5.514,5.514,0,0,1-.256-.844" transform="translate(-60.583 -105.48)" fill="#263238"/>
        <path id="Path_4671" data-name="Path 4671" d="M162.426,260.37a4.713,4.713,0,0,1-.633-.585l-1.646-1.672c-.688-.722-1.511-1.533-2.408-2.533-.412-.526-.774-1.1-1.2-1.669a11.18,11.18,0,0,1-1.111-1.936c-.638-1.384-1.117-2.747-1.552-3.984s-.811-2.353-1.164-3.276-.666-1.658-.915-2.15a6.489,6.489,0,0,1-.382-.771c.009-.005.057.055.14.174a5.8,5.8,0,0,1,.345.541,18.2,18.2,0,0,1,1.009,2.127c.38.918.782,2.03,1.227,3.261s.934,2.585,1.564,3.949a11.2,11.2,0,0,0,1.076,1.888c.431.572.8,1.164,1.187,1.674.84.958,1.682,1.824,2.341,2.554l1.578,1.74a4.746,4.746,0,0,1,.549.666" transform="translate(-70.385 -112.403)" fill="#263238"/>
        <path id="Path_4672" data-name="Path 4672" d="M174.12,291.87l50.474-1.419a5.583,5.583,0,0,1,2.331.433,14.733,14.733,0,0,1,7.4,7.6c3.284,6.978,18.585,36.374,18.585,36.374l-15.476,7.931-18.98-35.209-58.5-4.968.676-4.676Z" transform="translate(-74.358 -135.02)" fill="#263238"/>
        <path id="Path_4673" data-name="Path 4673" d="M296.149,371.218l8.067,13.842.537,3.5a3.921,3.921,0,0,0,4.471,3.281l24.547-3.767a1.917,1.917,0,0,0,1.516-2.625,1.671,1.671,0,0,0-1.17-.951c-2.053-.523-17.893-6.338-17.893-6.338l-6.607-13.23Z" transform="translate(-137.67 -169.643)" fill="#e0e0e0"/>
        <path id="Path_4674" data-name="Path 4674" d="M305.823,378.656a29.613,29.613,0,0,1-3.4-4.613,29.514,29.514,0,0,1,3.4,4.613" transform="translate(-140.585 -173.879)" fill="#263238"/>
        <path id="Path_4675" data-name="Path 4675" d="M315.266,374.741a14.386,14.386,0,0,1-2.887-4.956c.074-.033.638,1.12,1.435,2.483s1.517,2.425,1.452,2.473" transform="translate(-145.212 -171.9)" fill="#263238"/>
        <path id="Path_4676" data-name="Path 4676" d="M318.314,409.828c-.052.014-.183-.479-.55-1.2a7.122,7.122,0,0,0-4.779-3.751c-.787-.186-1.3-.2-1.3-.249a3.081,3.081,0,0,1,1.342.024,6.566,6.566,0,0,1,4.941,3.879,3.084,3.084,0,0,1,.341,1.3" transform="translate(-144.894 -188.074)" fill="#263238"/>
        <path id="Path_4677" data-name="Path 4677" d="M354.533,404.719a2.08,2.08,0,0,1-.391-.918,4.249,4.249,0,0,1,.119-2.41,5.889,5.889,0,0,1,1.278-2.042c.425-.445.734-.667.761-.638s-.216.317-.586.788a7.238,7.238,0,0,0-1.145,2,4.72,4.72,0,0,0-.2,2.259,5.6,5.6,0,0,1,.164.962" transform="translate(-164.573 -185.346)" fill="#263238"/>
        <path id="Path_4678" data-name="Path 4678" d="M146.958,301.607s52.089-5.22,54.619-5.011c4.672.385,13.286,7.752,28.572,18.015a140.646,140.646,0,0,1,21.932,18.435L247.2,344.2s-34.258-12.486-39.629-16.975c-4.464-3.73-12.605-9.043-12.605-9.043l-20.093.2L159.939,319.7a21.954,21.954,0,0,1-19.361-8.523l-5.8-7.571Z" transform="translate(-62.655 -137.875)" fill="#263238"/>
        <path id="Path_4679" data-name="Path 4679" d="M220.045,317.6s.085.049.242.157l.7.483,2.7,1.9c2.347,1.676,5.8,4.082,10.021,7.281.265.2.518.428.8.6l.862.538c.619.31,1.24.649,1.9.958l2.016.936,2.119.936c2.891,1.251,6.019,2.56,9.358,3.915,6.675,2.713,14.169,5.663,22.257,8.77l-.18.08,4.429-11.22.032.159-6.079-6.2.009.008c-1.426-1.237-2.957-2.552-4.523-3.85a318.635,318.635,0,0,0-29.194-21.418l-.008,0-.009-.007a28.487,28.487,0,0,0-4.422-3.11,21.727,21.727,0,0,0-4.726-2.052c-.4-.11-.811-.2-1.213-.3l-1.217-.187-1.212-.064-1.209,0-4.672-.006-15.729-.032-10.208-.039-2.705-.021-.7-.011c-.156,0-.235-.012-.235-.012s.08-.008.235-.011l.7-.011,2.705-.021L203.1,295.7l15.729-.032,4.672-.006h1.209l1.237.063,1.239.187c.408.1.822.187,1.233.3a21.926,21.926,0,0,1,4.786,2.066,28.653,28.653,0,0,1,4.473,3.135l-.016-.013A314.5,314.5,0,0,1,266.9,322.814c1.568,1.3,3.1,2.617,4.528,3.856l0,0,0,0,6.075,6.2.068.07-.036.091-4.438,11.216-.051.13-.128-.05c-8.086-3.117-15.576-6.081-22.247-8.811-3.336-1.364-6.462-2.683-9.351-3.945l-2.118-.944-2.016-.947c-.657-.311-1.282-.656-1.9-.97l-.881-.555c-.292-.181-.537-.409-.8-.607-4.205-3.215-7.641-5.646-9.97-7.345l-2.677-1.936-.687-.5c-.154-.114-.229-.177-.229-.177" transform="translate(-87.98 -137.445)" fill="#455a64"/>
        <path id="Path_4680" data-name="Path 4680" d="M324.176,366.779l14.434,5.679,2.4,2.6a3.921,3.921,0,0,0,5.542.216l18.23-16.864a1.917,1.917,0,0,0-.214-3.023,1.671,1.671,0,0,0-1.5-.133c-1.994.715-18.375,4.766-18.375,4.766l-10.973-8.752Z" transform="translate(-150.699 -163.291)" fill="#e0e0e0"/>
        <path id="Path_4681" data-name="Path 4681" d="M324.176,366.644s.048-.09.155-.271l.483-.8,1.878-3.1,6.941-11.391.062-.1.093.074,10.987,8.734-.11-.025,9.769-2.462,5.166-1.342c.872-.234,1.753-.467,2.63-.724.222-.061.437-.131.653-.2a2.72,2.72,0,0,1,.706-.166,1.816,1.816,0,0,1,1.368.51,2.064,2.064,0,0,1,.194,2.69,3.322,3.322,0,0,1-.488.51l-.5.46-.99.916-3.886,3.592-7.347,6.786-3.422,3.157L346.882,375a5.607,5.607,0,0,1-.865.695,4.039,4.039,0,0,1-4.908-.528c-.916-.958-1.751-1.891-2.571-2.775l.036.025L328,368.2l-2.85-1.147-.734-.3c-.164-.068-.241-.1-.241-.1s.1.031.268.1l.759.288,2.891,1.111,10.552,4.093.021.008.016.017c.821.875,1.673,1.816,2.576,2.753a3.812,3.812,0,0,0,4.636.483,5.381,5.381,0,0,0,.827-.67l1.635-1.517,3.413-3.166,7.336-6.8,3.883-3.6.989-.916a10.173,10.173,0,0,0,.949-.93,1.787,1.787,0,0,0-.159-2.325,1.542,1.542,0,0,0-1.159-.435,2.434,2.434,0,0,0-.634.152c-.222.072-.444.143-.665.2-.883.258-1.764.491-2.638.725l-5.17,1.338-9.775,2.446-.062.016-.049-.04-10.958-8.77.155-.027-7,11.269-1.937,3.1-.512.812c-.117.184-.185.28-.185.28" transform="translate(-150.699 -163.156)" fill="#263238"/>
        <path id="Path_4682" data-name="Path 4682" d="M361.124,391.819c-.035.041-.42-.3-1.128-.686a7.123,7.123,0,0,0-6.059-.432c-.756.286-1.184.563-1.213.519a3.083,3.083,0,0,1,1.124-.732,6.566,6.566,0,0,1,6.266.447,3.086,3.086,0,0,1,1.009.884" transform="translate(-163.969 -181.25)" fill="#263238"/>
        <path id="Path_4683" data-name="Path 4683" d="M389.578,367.312a2.083,2.083,0,0,1-.837-.542,4.248,4.248,0,0,1-1.251-2.063,5.884,5.884,0,0,1-.085-2.407,2.461,2.461,0,0,1,.273-.955,3.937,3.937,0,0,1-.044.981,7.243,7.243,0,0,0,.171,2.3,4.718,4.718,0,0,0,1.1,1.984c.4.434.706.661.675.705" transform="translate(-180.052 -167.977)" fill="#263238"/>
        <path id="Path_4684" data-name="Path 4684" d="M138.941,312.738c-1.117-5.3-3.4-10.726-7.923-13.711-3.43-2.265-7.674-2.825-11.754-3.327L33.914,285.2c-.764,13.451,4.992,30.191,10.865,42.317a11.771,11.771,0,0,0,3.713,4.957c2.128,1.4,4.855,1.39,7.4,1.324,28.709-.731,57.434-1.952,85.98-5.1-1.606-5.174-1.816-10.669-2.933-15.97" transform="translate(-15.733 -132.582)" fill="#455a64"/>
        <path id="Path_4685" data-name="Path 4685" d="M70.633,289.271a6.362,6.362,0,0,1-1.006-.065l-2.727-.294c-2.3-.265-5.476-.658-8.977-1.142s-6.666-.968-8.949-1.367c-1.141-.2-2.063-.371-2.7-.51a6.333,6.333,0,0,1-.978-.24,6.445,6.445,0,0,1,1,.125l2.71.415c2.289.345,5.455.8,8.955,1.279l8.964,1.229,2.714.389a6.5,6.5,0,0,1,.992.181" transform="translate(-21.058 -132.788)" fill="#263238"/>
        <path id="Path_4686" data-name="Path 4686" d="M85.413,362.612a.852.852,0,0,1-.089-.164l-.233-.493-.869-1.909-.622-1.383c-.216-.511-.426-1.075-.665-1.677-.462-1.209-1.04-2.567-1.529-4.122l-.813-2.425c-.279-.844-.506-1.743-.775-2.662-.56-1.834-1-3.835-1.489-5.934A97.583,97.583,0,0,1,76.4,313.957c.2-2.146.354-4.189.657-6.083.14-.948.241-1.869.4-2.744l.471-2.514c.27-1.608.656-3.033.946-4.293.154-.629.284-1.217.428-1.752l.425-1.455.6-2.01.163-.521a.872.872,0,0,1,.065-.174.846.846,0,0,1-.036.183c-.034.135-.079.309-.134.529l-.544,2.024-.4,1.46c-.135.536-.257,1.125-.4,1.755-.275,1.262-.645,2.687-.9,4.294q-.216,1.2-.451,2.512c-.153.874-.248,1.793-.383,2.739-.292,1.891-.437,3.929-.628,6.069a99.62,99.62,0,0,0,1.926,27.81c.484,2.093.909,4.092,1.458,5.924.264.919.484,1.816.757,2.661s.54,1.652.793,2.425c.475,1.556,1.038,2.917,1.484,4.129.231.6.432,1.17.641,1.683l.6,1.391.817,1.93.205.505a.857.857,0,0,1,.061.177" transform="translate(-35.399 -135.932)" fill="#263238"/>
        <path id="Path_4687" data-name="Path 4687" d="M85.951,372.609a18.891,18.891,0,0,1-3.36-.005,18.822,18.822,0,0,1-3.345-.307,18.865,18.865,0,0,1,3.36.006,18.865,18.865,0,0,1,3.345.306" transform="translate(-36.839 -173.04)" fill="#263238"/>
        <path id="Path_4688" data-name="Path 4688" d="M84.628,377.907a13.85,13.85,0,0,1-6.549-2.651c.048-.077,1.407.745,3.216,1.471s3.353,1.091,3.333,1.179" transform="translate(-36.296 -174.442)" fill="#263238"/>
        <path id="Path_4689" data-name="Path 4689" d="M72.415,330.141a5.855,5.855,0,0,1-4.533.436c.016-.089,1.035.067,2.282-.059s2.219-.461,2.251-.377" transform="translate(-31.556 -153.465)" fill="#263238"/>
        <path id="Path_4690" data-name="Path 4690" d="M75.732,326.134a4.54,4.54,0,0,1-4.374-1.853,12.979,12.979,0,0,0,2.043,1.267,12.978,12.978,0,0,0,2.332.586" transform="translate(-33.17 -150.746)" fill="#263238"/>
        <path id="Path_4691" data-name="Path 4691" d="M120.792,154.295a3.731,3.731,0,0,0-2.555-2.274,6.4,6.4,0,0,0-3.509.132L103.64,154.69a19.039,19.039,0,0,0,6.8,2.278c2.767.294,4.715.32,6.366-.63a2.076,2.076,0,0,0,2.913,1.059,2.658,2.658,0,0,0,1.071-3.1" transform="translate(-48.179 -70.582)" fill="#263238"/>
        <path id="Path_4692" data-name="Path 4692" d="M337.1,371.682a22.28,22.28,0,0,1-6.442-2.42c.034-.073,1.449.535,3.225,1.2s3.239,1.144,3.217,1.221" transform="translate(-153.711 -171.655)" fill="#263238"/>
        <path id="Path_4693" data-name="Path 4693" d="M342.343,362.556a209.621,209.621,0,0,1-5.667-2.724,19.468,19.468,0,0,1,5.667,2.724" transform="translate(-156.509 -167.271)" fill="#263238"/>
        <path id="Path_4694" data-name="Path 4694" d="M181.152,273.348l22.356.273,26.989-5.348a2.109,2.109,0,0,0,1.675-1.754l3.668-24.3a1.789,1.789,0,0,0-2.057-2.034L206.2,244.67a1.789,1.789,0,0,0-1.488,1.545l-3.078,24.716-20.441-.1a1.258,1.258,0,0,0-.036,2.515" transform="translate(-83.641 -111.641)" fill="#e0e0e0"/>
        <path id="Path_4695" data-name="Path 4695" d="M181.127,273.228a.934.934,0,0,1-.424-.07,1.271,1.271,0,0,1-.806-.928,1.292,1.292,0,0,1,1.075-1.544c.821-.032,1.748-.009,2.8-.015l17.83.041-.1.088c.879-7.114,1.921-15.541,3.075-24.876a1.924,1.924,0,0,1,1.178-1.394,4.635,4.635,0,0,1,.9-.192l.888-.145,3.6-.588,7.423-1.211,7.686-1.252,3.929-.639,1.984-.323,1-.162a4.9,4.9,0,0,1,1.038-.112,1.942,1.942,0,0,1,1.683,1.345,2.232,2.232,0,0,1,.032,1.106l-.157,1.04-.623,4.123q-.619,4.092-1.218,8.053t-1.175,7.759q-.144.95-.286,1.888-.071.47-.142.936a2.755,2.755,0,0,1-.258.943,2.234,2.234,0,0,1-1.516,1.171l-1.81.359L203.5,273.6l-.01,0h-.01l-16.385-.244-4.43-.08-1.149-.027c-.258-.008-.391-.019-.391-.019s.133-.008.391-.009h1.149l4.43.029,16.386.157-.02,0,25.219-5.029,1.8-.361a1.975,1.975,0,0,0,1.339-1.037,2.5,2.5,0,0,0,.232-.864q.07-.467.141-.936l.284-1.889q.571-3.8,1.168-7.761t1.214-8.054l.621-4.123.157-1.04a1.942,1.942,0,0,0-.022-.98,1.663,1.663,0,0,0-1.439-1.151,4.748,4.748,0,0,0-.971.11l-1,.162-1.984.323-3.93.638-7.686,1.248-7.424,1.2-3.6.584-.888.144a4.5,4.5,0,0,0-.847.176,1.663,1.663,0,0,0-1.02,1.2L201.7,270.824l-.011.088H201.6l-17.829-.131c-1.049,0-1.994-.033-2.791-.012a1.219,1.219,0,0,0-.877.578,1.232,1.232,0,0,0,.606,1.784,1.675,1.675,0,0,0,.414.1" transform="translate(-83.615 -111.522)" fill="#263238"/>
        <path id="Path_4696" data-name="Path 4696" d="M227.575,250.036c.077.01-.664,6.463-1.654,14.413s-1.854,14.39-1.93,14.38.664-6.462,1.654-14.414,1.854-14.389,1.93-14.379" transform="translate(-104.124 -116.233)" fill="#263238"/>
        <path id="Path_4697" data-name="Path 4697" d="M252.869,267.527a1.937,1.937,0,1,0,2.723-1.3,2.16,2.16,0,0,0-2.723,1.3" transform="translate(-117.42 -123.687)" fill="#fff"/>
      </g>
    </g>
    <g id="Group_2001" data-name="Group 2001">
      <g id="Group_2000" data-name="Group 2000" clip-path="url(#clip-path)">
        <path id="Path_4698" data-name="Path 4698" d="M615.04,249.922a1.135,1.135,0,0,1-.056.2c-.048.144-.11.336-.19.581-.172.509-.422,1.262-.766,2.224-.676,1.927-1.692,4.7-3.038,8.1a185.458,185.458,0,0,1-12.383,25.69,57.22,57.22,0,0,0-3.542,7.293,32.939,32.939,0,0,0-1.891,7.287,52.069,52.069,0,0,0-.023,12.764c.392,3.627.915,6.537,1.252,8.549.172.994.307,1.771.4,2.316l.1.6a1.118,1.118,0,0,1,.024.208,1.218,1.218,0,0,1-.052-.2c-.031-.148-.073-.346-.126-.6l-.453-2.308c-.37-2.008-.923-4.915-1.342-8.547a51.491,51.491,0,0,1-.035-12.821,32.986,32.986,0,0,1,1.891-7.349,56.932,56.932,0,0,1,3.553-7.33,193.376,193.376,0,0,0,12.444-25.628c1.369-3.384,2.411-6.148,3.119-8.063l.814-2.206.216-.572a1.16,1.16,0,0,1,.083-.192" transform="translate(-275.447 -116.18)" fill="#263238"/>
        <path id="Path_4699" data-name="Path 4699" d="M610.459,309.89a1.682,1.682,0,0,1-.172.311l-.539.862c-.471.747-1.171,1.816-2.041,3.133-1.733,2.638-4.207,6.231-6.691,10.349-1.235,2.065-2.328,4.078-3.252,5.945s-1.657,3.6-2.242,5.058-1.008,2.668-1.279,3.507l-.331.961a1.728,1.728,0,0,1-.133.33,1.657,1.657,0,0,1,.08-.346l.281-.977c.24-.851.65-2.062,1.2-3.545s1.277-3.221,2.2-5.1,2.006-3.905,3.243-5.976c2.492-4.13,4.993-7.707,6.767-10.316L609.658,311l.583-.833a1.686,1.686,0,0,1,.219-.28" transform="translate(-276.027 -144.057)" fill="#263238"/>
        <path id="Path_4700" data-name="Path 4700" d="M615.981,247c.131-1.307-1.279-2.609-2.511-3.066a6.921,6.921,0,0,0-3.887-.025,19.9,19.9,0,0,0-14.913,15.57,96.056,96.056,0,0,1,10.581-4.474l-.611.173a12.347,12.347,0,0,0,8.344-6.095,6.559,6.559,0,0,1,1.117-1.712,1.649,1.649,0,0,1,1.879-.372" transform="translate(-276.442 -113.263)" fill="#455a64"/>
        <path id="Path_4701" data-name="Path 4701" d="M634.509,247.416a16.039,16.039,0,0,1,11.712-2.629,13.993,13.993,0,0,1,9.73,6.86,12.423,12.423,0,0,1,.062,11.794c-1.894-3.934-3.92-8.031-7.446-10.607a6.6,6.6,0,0,1-2.224-2.065c-.539-1.056-.318-2.361-.78-3.454-.568-1.346-2.132-1.737-3.591-1.813s-5.687,1.266-7.464,1.914" transform="translate(-294.962 -113.687)" fill="#455a64"/>
        <path id="Path_4702" data-name="Path 4702" d="M634.338,249.51c3.5-1.038,7.462.674,9.846,3.3a17.246,17.246,0,0,1,4,9.664,49.143,49.143,0,0,1-.277,10.607,44.123,44.123,0,0,1-6.03-13.371,30.861,30.861,0,0,0-1.986-6.347,7.856,7.856,0,0,0-5.557-3.85" transform="translate(-294.883 -115.846)" fill="#455a64"/>
        <path id="Path_4703" data-name="Path 4703" d="M632.57,236.489a8.927,8.927,0,0,0,4.735-7.283,9.245,9.245,0,0,0-3.392-8.18,9.906,9.906,0,0,0-2.61,10.351c.591,1.685,1.669,3.373,1.267,5.113" transform="translate(-293.231 -102.748)" fill="#455a64"/>
        <path id="Path_4704" data-name="Path 4704" d="M570.65,324.222a2.765,2.765,0,0,1-.176-.421c-.111-.277-.249-.7-.463-1.219-.408-1.056-1.046-2.566-1.915-4.394a113.2,113.2,0,0,0-7.9-13.689,110.291,110.291,0,0,0-9.6-12.559,30.418,30.418,0,0,0-3.434-3.328,9.61,9.61,0,0,0-1.065-.74,2.755,2.755,0,0,1-.4-.222,2.736,2.736,0,0,1,.423.172,7.962,7.962,0,0,1,1.105.7,27.754,27.754,0,0,1,3.513,3.28,102.127,102.127,0,0,1,9.684,12.538,104.694,104.694,0,0,1,7.846,13.76c.848,1.844,1.46,3.369,1.838,4.439.2.531.321.956.415,1.239a2.73,2.73,0,0,1,.123.439" transform="translate(-253.679 -133.718)" fill="#263238"/>
        <path id="Path_4705" data-name="Path 4705" d="M591.934,396.495H572.81l-2.982-22.14h25.665Z" transform="translate(-264.894 -174.025)" fill="#ff725e"/>
        <path id="Path_4706" data-name="Path 4706" d="M634.678,319.036a12.028,12.028,0,0,0-11.453-6.481,3.5,3.5,0,0,1,1.895,2.526,21.111,21.111,0,0,1,.293,3.264c.411,5.236,3.781,9.7,7.016,13.842a67.32,67.32,0,0,0,7.279,8.324c-.327-7.449-.8-15.339-5.031-21.475" transform="translate(-289.716 -145.28)" fill="#455a64"/>
        <path id="Path_4707" data-name="Path 4707" d="M623.225,309.919a17.093,17.093,0,0,1,10.283-3.19,42.51,42.51,0,0,1,10.8,1.646,19.088,19.088,0,0,1,6.1,2.365,6.975,6.975,0,0,1,3.3,5.4c-3-3.3-7.841-3.937-12.126-5.182-2.9-.843-5.705-2.049-8.666-2.666a15.342,15.342,0,0,0-9.7,1.628" transform="translate(-289.716 -142.587)" fill="#455a64"/>
        <path id="Path_4708" data-name="Path 4708" d="M623.562,302.5c-1.27-1.33-.569-4.445.537-5.915a9.523,9.523,0,0,1,4.593-2.91,32.076,32.076,0,0,1,7.059-1.641,7.2,7.2,0,0,1-2.233,3.922,21.469,21.469,0,0,1-3.715,2.683l-6.241,3.861" transform="translate(-289.557 -135.754)" fill="#455a64"/>
        <path id="Path_4709" data-name="Path 4709" d="M593.968,307.429c-3.626,1.589-6.435,4.556-9.139,7.446a40.373,40.373,0,0,0,11.4-4.723,15.12,15.12,0,0,1,4.4-2.168,5.827,5.827,0,0,1,4.745,1.465c-2.269-3.342-7.783-3.609-11.408-2.02" transform="translate(-271.867 -142.476)" fill="#455a64"/>
        <path id="Path_4710" data-name="Path 4710" d="M598.717,333.944c2.026-4.654,1.172-10.3,3.746-14.673,1.97-3.349,5.612-5.338,9.233-6.751a10.983,10.983,0,0,1-.624,7.773,24.768,24.768,0,0,1-4.539,6.516c-2.465,2.725-5.145,5.245-7.823,7.762" transform="translate(-278.32 -145.28)" fill="#455a64"/>
        <rect id="Rectangle_1930" data-name="Rectangle 1930" width="28.602" height="4.983" transform="translate(303.177 200.33)" fill="#ff725e"/>
        <path id="Path_4711" data-name="Path 4711" d="M594.193,383.842c0,.077-6.19.139-13.824.139s-13.825-.062-13.825-.139,6.188-.139,13.825-.139,13.824.062,13.824.139" transform="translate(-263.368 -178.371)" fill="#263238"/>
        <path id="Path_4712" data-name="Path 4712" d="M615.3,242.717a31.551,31.551,0,0,0-3.325-5,10.6,10.6,0,0,0-4.887-3.365c-2.577-.756-5.345-.156-7.92.61a62.944,62.944,0,0,0-8.792,3.349,17.4,17.4,0,0,0,11.688.207,13.169,13.169,0,0,1,5.944-.348c2.515.286,5.663,2.613,7.292,4.549" transform="translate(-274.447 -108.78)" fill="#455a64"/>
        <path id="Path_4713" data-name="Path 4713" d="M504.39,297.942c-4.509,5.737-6.007,13.4-5.5,20.676a49.557,49.557,0,0,1,15.993-24.833c2.939-2.444,6.7-4.378,10.34-4.378-7.5-.668-16.18,2.618-20.83,8.535" transform="translate(-231.872 -134.496)" fill="#455a64"/>
        <path id="Path_4714" data-name="Path 4714" d="M516.261,283.877a14.4,14.4,0,0,0-6.889,2.884c-3.182,2.184-6.166,4.939-7.553,8.54a26.449,26.449,0,0,1,23.189-9.155c-2.739-1.363-5.7-2.494-8.747-2.27" transform="translate(-233.278 -131.952)" fill="#455a64"/>
        <path id="Path_4715" data-name="Path 4715" d="M539.8,266.215a5.385,5.385,0,0,0-2.495,4.441,5.477,5.477,0,0,0,1.445,3.271,21.847,21.847,0,0,0,3.046,2.911c.923-4.088,2.034-8.36,2.956-12.448a13.146,13.146,0,0,0-4.953,1.826" transform="translate(-249.774 -122.906)" fill="#455a64"/>
        <path id="Path_4716" data-name="Path 4716" d="M553.037,264.47a12.193,12.193,0,0,0-4.677,5.087c-.956,2.132-1.356,4.822-.149,6.822a174.022,174.022,0,0,1,11.152-14.9,36.38,36.38,0,0,0-6.326,2.991" transform="translate(-254.497 -121.553)" fill="#455a64"/>
        <path id="Path_4717" data-name="Path 4717" d="M561.012,280.158a14.016,14.016,0,0,0-11.939,5.231,11.638,11.638,0,0,1,6.411-1.213,153.844,153.844,0,0,1,16.477,3.055,14.017,14.017,0,0,0-10.949-7.073" transform="translate(-255.246 -130.217)" fill="#455a64"/>
        <path id="Path_4718" data-name="Path 4718" d="M541.077,289.321c-4.246.233-7.962,3.5-9.443,7.487a17.365,17.365,0,0,0,.628,12.448,39.28,39.28,0,0,0,7,10.592,93.7,93.7,0,0,0,3.409-14.566,36.593,36.593,0,0,0-1.6-15.961" transform="translate(-246.729 -134.496)" fill="#455a64"/>
        <g id="Group_1996" data-name="Group 1996" transform="translate(266.921 139.926)" opacity="0.3">
          <g id="Group_1995" data-name="Group 1995">
            <g id="Group_1994" data-name="Group 1994" clip-path="url(#clip-path-14)">
              <path id="Path_4719" data-name="Path 4719" d="M504.39,297.942c-4.509,5.737-6.007,13.4-5.5,20.676a49.557,49.557,0,0,1,15.993-24.833c2.939-2.444,6.7-4.378,10.34-4.378-7.5-.668-16.18,2.618-20.83,8.535" transform="translate(-498.794 -274.422)"/>
              <path id="Path_4720" data-name="Path 4720" d="M516.261,283.877a14.4,14.4,0,0,0-6.889,2.884c-3.182,2.184-6.166,4.939-7.553,8.54a26.449,26.449,0,0,1,23.189-9.155c-2.739-1.363-5.7-2.494-8.747-2.27" transform="translate(-500.2 -271.878)"/>
              <path id="Path_4721" data-name="Path 4721" d="M539.8,266.215a5.385,5.385,0,0,0-2.495,4.441,5.477,5.477,0,0,0,1.445,3.271,21.847,21.847,0,0,0,3.046,2.911c.923-4.088,2.034-8.36,2.956-12.448a13.146,13.146,0,0,0-4.953,1.826" transform="translate(-516.695 -262.832)"/>
              <path id="Path_4722" data-name="Path 4722" d="M553.037,264.47a12.193,12.193,0,0,0-4.677,5.087c-.956,2.132-1.356,4.822-.149,6.822a174.022,174.022,0,0,1,11.152-14.9,36.38,36.38,0,0,0-6.326,2.991" transform="translate(-521.418 -261.479)"/>
              <path id="Path_4723" data-name="Path 4723" d="M561.012,280.158a14.016,14.016,0,0,0-11.939,5.231,11.638,11.638,0,0,1,6.411-1.213,153.844,153.844,0,0,1,16.477,3.055,14.017,14.017,0,0,0-10.949-7.073" transform="translate(-522.167 -270.143)"/>
              <path id="Path_4724" data-name="Path 4724" d="M541.077,289.321c-4.246.233-7.962,3.5-9.443,7.487a17.365,17.365,0,0,0,.628,12.448,39.28,39.28,0,0,0,7,10.592,93.7,93.7,0,0,0,3.409-14.566,36.593,36.593,0,0,0-1.6-15.961" transform="translate(-513.65 -274.422)"/>
            </g>
          </g>
        </g>
        <g id="Group_1999" data-name="Group 1999" transform="translate(312.962 156.275)" opacity="0.2">
          <g id="Group_1998" data-name="Group 1998">
            <g id="Group_1997" data-name="Group 1997" clip-path="url(#clip-path-15)">
              <path id="Path_4725" data-name="Path 4725" d="M634.678,319.036a12.028,12.028,0,0,0-11.453-6.481,3.5,3.5,0,0,1,1.895,2.526,21.111,21.111,0,0,1,.293,3.264c.411,5.236,3.781,9.7,7.016,13.842a67.32,67.32,0,0,0,7.279,8.324c-.327-7.449-.8-15.339-5.031-21.475" transform="translate(-602.678 -301.555)"/>
              <path id="Path_4726" data-name="Path 4726" d="M623.225,309.919a17.093,17.093,0,0,1,10.283-3.19,42.51,42.51,0,0,1,10.8,1.646,19.088,19.088,0,0,1,6.1,2.365,6.975,6.975,0,0,1,3.3,5.4c-3-3.3-7.841-3.937-12.126-5.182-2.9-.843-5.705-2.049-8.666-2.666a15.342,15.342,0,0,0-9.7,1.628" transform="translate(-602.678 -298.862)"/>
              <path id="Path_4727" data-name="Path 4727" d="M623.562,302.5c-1.27-1.33-.569-4.445.537-5.915a9.523,9.523,0,0,1,4.593-2.91,32.076,32.076,0,0,1,7.059-1.641,7.2,7.2,0,0,1-2.233,3.922,21.469,21.469,0,0,1-3.715,2.683l-6.241,3.861" transform="translate(-602.519 -292.029)"/>
              <path id="Path_4728" data-name="Path 4728" d="M593.968,307.429c-3.626,1.589-6.435,4.556-9.139,7.446a40.373,40.373,0,0,0,11.4-4.723,15.12,15.12,0,0,1,4.4-2.168,5.827,5.827,0,0,1,4.745,1.465c-2.269-3.342-7.783-3.609-11.408-2.02" transform="translate(-584.829 -298.751)"/>
              <path id="Path_4729" data-name="Path 4729" d="M598.717,333.944c2.026-4.654,1.172-10.3,3.746-14.673,1.97-3.349,5.612-5.338,9.233-6.751a10.983,10.983,0,0,1-.624,7.773,24.768,24.768,0,0,1-4.539,6.516c-2.465,2.725-5.145,5.245-7.823,7.762" transform="translate(-591.281 -301.555)"/>
            </g>
          </g>
        </g>
      </g>
    </g>
    <g id="Group_2003" data-name="Group 2003">
      <g id="Group_2002" data-name="Group 2002" clip-path="url(#clip-path)">
        <path id="Path_4730" data-name="Path 4730" d="M225.049,171.723H173.571a2.678,2.678,0,0,0-2.678,2.678v23.452a2.678,2.678,0,0,0,2.678,2.678h21.6l4.587,5.882,3.823-5.882h21.473a2.678,2.678,0,0,0,2.678-2.678V174.4a2.678,2.678,0,0,0-2.678-2.678" transform="translate(-79.442 -79.828)" fill="#fff"/>
        <path id="Path_4731" data-name="Path 4731" d="M224.928,171.612s.086,0,.254,0a2.605,2.605,0,0,1,.733.165,2.643,2.643,0,0,1,1.015.689,2.7,2.7,0,0,1,.7,1.526c.047,2.553.035,6.267.053,10.972,0,2.352.01,4.948.016,7.766q0,2.114.007,4.39a6.339,6.339,0,0,1-.052,1.164,2.789,2.789,0,0,1-2.6,2.234l-21.6.027.108-.058-3.819,5.884-.1.156-.115-.147-4.589-5.88.107.052-18.559,0h-2.23c-.375-.007-.728.016-1.124-.019a2.8,2.8,0,0,1-1.1-.364,2.831,2.831,0,0,1-1.332-1.814,4.926,4.926,0,0,1-.07-1.121V196.15q0-4.355,0-8.577t0-8.279q0-2.028,0-4.013,0-.5,0-.989a2.815,2.815,0,0,1,1.523-2.495,2.723,2.723,0,0,1,.963-.293c.341-.032.652-.015.973-.019H176l3.725,0,7.122.007,12.783.017,18.509.044,5.032.026,1.309.014c.295,0,.446.014.446.014s-.151.01-.446.014l-1.309.014-5.032.026-18.509.044-12.783.017-7.122.007-3.725,0h-1.9c-.316,0-.647-.01-.945.019a2.484,2.484,0,0,0-.874.267,2.562,2.562,0,0,0-1.381,2.267q0,.494,0,.989,0,1.984,0,4.013,0,4.058,0,8.279t0,8.577v1.091a4.7,4.7,0,0,0,.064,1.06,2.55,2.55,0,0,0,1.2,1.634,2.521,2.521,0,0,0,.987.328c.34.032.728.011,1.093.017h2.23l18.559,0h.066l.041.052,4.584,5.884-.216.009,3.827-5.88.038-.059h.07l21.587.015a2.579,2.579,0,0,0,2.41-2.059,6.19,6.19,0,0,0,.052-1.124q0-2.275.007-4.39c.006-2.817.011-5.414.016-7.766,0-4.7.04-8.428.02-10.963a2.668,2.668,0,0,0-1.649-2.184,3.079,3.079,0,0,0-.971-.207" transform="translate(-79.322 -79.717)" fill="#263238"/>
        <path id="Path_4732" data-name="Path 4732" d="M193.419,186.329H188.3a.687.687,0,0,1-.688-.688v-3.654a.687.687,0,0,1,.688-.688h5.12a.687.687,0,0,1,.688.688v3.654a.687.687,0,0,1-.688.688" transform="translate(-87.214 -84.28)" fill="#ff725e"/>
        <path id="Path_4733" data-name="Path 4733" d="M187.794,181.449l2.472,2.639a1.006,1.006,0,0,0,.531.367.779.779,0,0,0,.725-.277c.445-.461.878-.935,1.317-1.4l1.245-1.326c.059-.063-.035-.157-.094-.095l-2.361,2.515a2.2,2.2,0,0,1-.376.373c-.352.224-.656,0-.891-.249l-1.335-1.424-1.137-1.214c-.059-.063-.154.032-.095.095" transform="translate(-87.29 -84.296)" fill="#fff"/>
        <path id="Path_4734" data-name="Path 4734" d="M187.664,188.3l1.984-2.256.281-.319c.057-.065-.037-.159-.095-.095l-1.984,2.256-.281.319c-.057.065.038.159.095.095" transform="translate(-87.186 -86.284)" fill="#fff"/>
        <path id="Path_4735" data-name="Path 4735" d="M197.619,188.06l-1.858-2.161-.269-.312c-.056-.066-.15.029-.094.094l1.858,2.161.268.313c.056.065.15-.029.095-.095" transform="translate(-90.826 -86.263)" fill="#fff"/>
        <path id="Path_4736" data-name="Path 4736" d="M206.512,186.787l0-1.667-.818,1.373h-.29l-.813-1.337v1.631h-.6V184.01h.532l1.04,1.726,1.024-1.726h.528l.009,2.778Z" transform="translate(-94.825 -85.54)" fill="#263238"/>
        <path id="Path_4737" data-name="Path 4737" d="M212.922,186.425h-1.615a.57.57,0,0,0,.611.429.722.722,0,0,0,.536-.207l.329.357a1.246,1.246,0,0,1-2.1-.753,1.087,1.087,0,0,1,1.139-1.1,1.057,1.057,0,0,1,1.111,1.107c0,.048-.008.115-.012.167m-1.623-.361h1.052a.533.533,0,0,0-1.052,0" transform="translate(-97.94 -86.07)" fill="#263238"/>
        <path id="Path_4738" data-name="Path 4738" d="M215.271,187.12l.206-.445a1.463,1.463,0,0,0,.742.207c.286,0,.393-.075.393-.195,0-.349-1.29.008-1.29-.845,0-.405.365-.69.988-.69a1.758,1.758,0,0,1,.821.186l-.207.44a1.228,1.228,0,0,0-.615-.158c-.278,0-.4.087-.4.2,0,.365,1.29.012,1.29.854,0,.4-.369.679-1.008.679a1.831,1.831,0,0,1-.924-.23" transform="translate(-100.072 -86.071)" fill="#263238"/>
        <path id="Path_4739" data-name="Path 4739" d="M219.207,187.12l.206-.445a1.463,1.463,0,0,0,.742.207c.286,0,.393-.075.393-.195,0-.349-1.29.008-1.29-.845,0-.405.365-.69.988-.69a1.758,1.758,0,0,1,.821.186l-.207.44a1.228,1.228,0,0,0-.615-.158c-.278,0-.4.087-.4.2,0,.365,1.29.012,1.29.854,0,.4-.369.679-1.008.679a1.832,1.832,0,0,1-.925-.23" transform="translate(-101.902 -86.071)" fill="#263238"/>
        <path id="Path_4740" data-name="Path 4740" d="M225.3,186.1v1.219h-.58v-.266a.7.7,0,0,1-.651.3c-.5,0-.8-.278-.8-.647s.265-.639.917-.639h.492c0-.266-.158-.421-.492-.421a1.028,1.028,0,0,0-.615.2l-.222-.432a1.64,1.64,0,0,1,.92-.258c.651,0,1.028.3,1.028.948m-.619.544v-.218h-.425c-.289,0-.38.107-.38.25s.131.258.349.258a.456.456,0,0,0,.456-.29" transform="translate(-103.79 -86.071)" fill="#263238"/>
        <path id="Path_4741" data-name="Path 4741" d="M230.21,185.183v1.778a1.045,1.045,0,0,1-1.2,1.159,1.758,1.758,0,0,1-1.048-.294l.246-.444a1.28,1.28,0,0,0,.755.242c.436,0,.627-.2.627-.583v-.091a.88.88,0,0,1-.675.265,1.032,1.032,0,1,1,0-2.063.856.856,0,0,1,.706.306v-.274Zm-.611,1a.563.563,0,1,0-.56.524.519.519,0,0,0,.56-.524" transform="translate(-105.919 -86.07)" fill="#263238"/>
        <path id="Path_4742" data-name="Path 4742" d="M235.275,186.425H233.66a.57.57,0,0,0,.611.429.722.722,0,0,0,.536-.207l.33.357a1.246,1.246,0,0,1-2.1-.753,1.087,1.087,0,0,1,1.139-1.1,1.057,1.057,0,0,1,1.111,1.107c0,.048-.007.115-.012.167m-1.623-.361H234.7a.533.533,0,0,0-1.052,0" transform="translate(-108.331 -86.07)" fill="#263238"/>
        <path id="Path_4743" data-name="Path 4743" d="M237.624,187.12l.207-.445a1.458,1.458,0,0,0,.742.207c.285,0,.392-.075.392-.195,0-.349-1.29.008-1.29-.845,0-.405.365-.69.988-.69a1.758,1.758,0,0,1,.821.186l-.207.44a1.228,1.228,0,0,0-.615-.158c-.278,0-.4.087-.4.2,0,.365,1.29.012,1.29.854,0,.4-.369.679-1.008.679a1.831,1.831,0,0,1-.925-.23" transform="translate(-110.463 -86.071)" fill="#263238"/>
        <path id="Path_4744" data-name="Path 4744" d="M243.8,185.357a1.522,1.522,0,1,1,1.52,1.436,1.437,1.437,0,0,1-1.52-1.436m2.389,0a.869.869,0,1,0-.869.889.847.847,0,0,0,.869-.889" transform="translate(-113.334 -85.498)" fill="#263238"/>
        <path id="Path_4745" data-name="Path 4745" d="M250.609,184.534h-.889v-.524h2.42v.524h-.889v2.254h-.643Z" transform="translate(-116.087 -85.54)" fill="#263238"/>
        <path id="Path_4746" data-name="Path 4746" d="M257.295,185.018c0,.619-.464,1-1.207,1h-.559v.766h-.643V184.01h1.2c.742,0,1.207.385,1.207,1.008m-.651,0c0-.306-.2-.484-.591-.484h-.524v.964h.524c.393,0,.591-.179.591-.481" transform="translate(-118.488 -85.54)" fill="#263238"/>
        <path id="Path_4747" data-name="Path 4747" d="M186.922,200.812c0-2.622,1.452-4.109,3.4-4.109s3.406,1.487,3.406,4.109-1.442,4.109-3.406,4.109-3.4-1.488-3.4-4.109m4.96,0c0-1.8-.635-2.554-1.555-2.554s-1.543.749-1.543,2.554.636,2.554,1.543,2.554,1.555-.749,1.555-2.554" transform="translate(-86.894 -91.441)" fill="#263238"/>
        <path id="Path_4748" data-name="Path 4748" d="M207.937,202.48c0,1.5-1.339,2.44-3.359,2.44s-3.337-.942-3.337-2.44a2.022,2.022,0,0,1,1.2-1.873,1.834,1.834,0,0,1-.919-1.634c0-1.4,1.248-2.271,3.053-2.271,1.827,0,3.076.874,3.076,2.271a1.844,1.844,0,0,1-.931,1.634,2.014,2.014,0,0,1,1.214,1.873m-1.861-.057c0-.7-.579-1.135-1.5-1.135s-1.476.431-1.476,1.135.568,1.146,1.476,1.146,1.5-.443,1.5-1.146m-2.724-3.371c0,.6.477.976,1.226.976s1.248-.375,1.248-.976c0-.624-.5-1-1.248-1s-1.226.375-1.226,1" transform="translate(-93.55 -91.44)" fill="#263238"/>
        <path id="Path_4749" data-name="Path 4749" d="M221.94,202.48c0,1.5-1.339,2.44-3.36,2.44s-3.337-.942-3.337-2.44a2.021,2.021,0,0,1,1.2-1.873,1.834,1.834,0,0,1-.92-1.634c0-1.4,1.249-2.271,3.053-2.271,1.827,0,3.076.874,3.076,2.271a1.845,1.845,0,0,1-.931,1.634,2.014,2.014,0,0,1,1.214,1.873m-1.861-.057c0-.7-.579-1.135-1.5-1.135s-1.476.431-1.476,1.135.568,1.146,1.476,1.146,1.5-.443,1.5-1.146m-2.724-3.371c0,.6.476.976,1.225.976s1.249-.375,1.249-.976c0-.624-.5-1-1.249-1s-1.225.375-1.225,1" transform="translate(-100.059 -91.44)" fill="#263238"/>
        <path id="Path_4750" data-name="Path 4750" d="M232.079,196.957V204.9H230.24v-6.47h-1.589v-1.475Z" transform="translate(-106.292 -91.559)" fill="#263238"/>
        <path id="Path_4751" data-name="Path 4751" d="M243.208,203.286v1.5h-6v-1.192l3.065-2.9c.7-.669.828-1.078.828-1.464,0-.624-.431-.988-1.271-.988a1.943,1.943,0,0,0-1.646.795l-1.339-.863A3.691,3.691,0,0,1,240,196.7c1.771,0,2.951.908,2.951,2.349a3.171,3.171,0,0,1-1.328,2.509l-1.827,1.725Z" transform="translate(-110.099 -91.441)" fill="#263238"/>
        <path id="Path_4752" data-name="Path 4752" d="M255.637,202.473c0,1.339-1.033,2.565-3.292,2.565a5.46,5.46,0,0,1-3.03-.851l.715-1.407a3.859,3.859,0,0,0,2.27.715c.919,0,1.487-.375,1.487-1.022,0-.6-.443-.976-1.487-.976h-.84v-1.215l1.634-1.85h-3.382v-1.475h5.561v1.192l-1.793,2.043a2.257,2.257,0,0,1,2.157,2.282" transform="translate(-115.898 -91.559)" fill="#263238"/>
      </g>
    </g>
  </g>
</svg>
