<svg id="Group_2763" data-name="Group 2763" xmlns="http://www.w3.org/2000/svg" xmlns:xlink="http://www.w3.org/1999/xlink" width="405.572" height="278.732" viewBox="0 0 405.572 278.732">
  <defs>
    <clipPath id="clip-path">
      <rect id="Rectangle_2352" data-name="Rectangle 2352" width="405.572" height="278.732" fill="none"/>
    </clipPath>
    <clipPath id="clip-path-6">
      <rect id="Rectangle_2311" data-name="Rectangle 2311" width="19.335" height="14.287" fill="none"/>
    </clipPath>
    <clipPath id="clip-path-7">
      <rect id="Rectangle_2312" data-name="Rectangle 2312" width="25.119" height="25.12" fill="none"/>
    </clipPath>
    <clipPath id="clip-path-8">
      <rect id="Rectangle_2313" data-name="Rectangle 2313" width="24.782" height="24.782" fill="none"/>
    </clipPath>
    <clipPath id="clip-path-9">
      <rect id="Rectangle_2314" data-name="Rectangle 2314" width="9.785" height="15.029" fill="none"/>
    </clipPath>
    <clipPath id="clip-path-10">
      <rect id="Rectangle_2315" data-name="Rectangle 2315" width="8.492" height="12.516" fill="none"/>
    </clipPath>
    <clipPath id="clip-path-11">
      <rect id="Rectangle_2316" data-name="Rectangle 2316" width="15.464" height="15.464" fill="none"/>
    </clipPath>
    <clipPath id="clip-path-12">
      <rect id="Rectangle_2317" data-name="Rectangle 2317" width="15.257" height="15.257" fill="none"/>
    </clipPath>
    <clipPath id="clip-path-13">
      <rect id="Rectangle_2318" data-name="Rectangle 2318" width="5.99" height="9.139" fill="none"/>
    </clipPath>
    <clipPath id="clip-path-14">
      <rect id="Rectangle_2319" data-name="Rectangle 2319" width="5.757" height="8.484" fill="none"/>
    </clipPath>
    <clipPath id="clip-path-15">
      <rect id="Rectangle_2320" data-name="Rectangle 2320" width="10.483" height="10.484" fill="none"/>
    </clipPath>
    <clipPath id="clip-path-16">
      <rect id="Rectangle_2321" data-name="Rectangle 2321" width="10.343" height="10.343" fill="none"/>
    </clipPath>
    <clipPath id="clip-path-17">
      <rect id="Rectangle_2322" data-name="Rectangle 2322" width="4.061" height="6.195" fill="none"/>
    </clipPath>
    <clipPath id="clip-path-19">
      <rect id="Rectangle_2326" data-name="Rectangle 2326" width="12.304" height="85.471" fill="none"/>
    </clipPath>
    <clipPath id="clip-path-20">
      <rect id="Rectangle_2329" data-name="Rectangle 2329" width="12.304" height="115.603" fill="none"/>
    </clipPath>
    <clipPath id="clip-path-21">
      <rect id="Rectangle_2332" data-name="Rectangle 2332" width="12.304" height="60.589" fill="none"/>
    </clipPath>
    <clipPath id="clip-path-22">
      <rect id="Rectangle_2335" data-name="Rectangle 2335" width="12.304" height="33.061" fill="none"/>
    </clipPath>
    <clipPath id="clip-path-23">
      <rect id="Rectangle_2338" data-name="Rectangle 2338" width="12.305" height="21.621" fill="none"/>
    </clipPath>
    <clipPath id="clip-path-24">
      <rect id="Rectangle_2341" data-name="Rectangle 2341" width="12.305" height="153.585" fill="none"/>
    </clipPath>
    <clipPath id="clip-path-25">
      <rect id="Rectangle_2344" data-name="Rectangle 2344" width="12.305" height="185.382" fill="none"/>
    </clipPath>
    <clipPath id="clip-path-27">
      <rect id="Rectangle_2346" data-name="Rectangle 2346" width="50.46" height="50.46" fill="none"/>
    </clipPath>
    <clipPath id="clip-path-28">
      <rect id="Rectangle_2347" data-name="Rectangle 2347" width="19.291" height="17.674" fill="none"/>
    </clipPath>
    <clipPath id="clip-path-31">
      <rect id="Rectangle_2350" data-name="Rectangle 2350" width="32.876" height="2.444" fill="none"/>
    </clipPath>
  </defs>
  <g id="Group_2762" data-name="Group 2762" clip-path="url(#clip-path)">
    <g id="Group_2681" data-name="Group 2681">
      <g id="Group_2680" data-name="Group 2680" clip-path="url(#clip-path)">
        <path id="Path_5857" data-name="Path 5857" d="M343.482,214.036c-13.279-9.3-14.559-10.491-21.275-22.937l-6.38,13.026c27.319,7.7,50.887,33.507,71.445,53.075,21.05,20.035,59.953,49.538,65.657,77.342,7.564-19.148,19.256-16.68,32.893-32.1-45.33-12.533-109.312-65.283-142.34-88.4" transform="translate(-125.473 -75.921)" fill="#ebebeb"/>
        <path id="Path_5858" data-name="Path 5858" d="M466.935,421.932c3.259-8.946,14.515-13.149,23.2-9.238q-.093-2.029-.187-4.058a22.759,22.759,0,0,1,26.139-19.4c.513-6.7,7.5-12.14,14.121-11a12.766,12.766,0,0,1,18.405-14.185,20,20,0,0,1,29.765,22.786c10.411,7.961,14.17,23.491,8.553,35.332" transform="translate(-185.506 -143.457)" fill="#ebebeb"/>
        <path id="Path_5859" data-name="Path 5859" d="M302.262,198.083l18.286-12.441c6.559-.862,10.059,5.62,9.786,10.285a7.45,7.45,0,0,1,10.071,9.993,6.665,6.665,0,1,1-2.148,13.069c-2.375-.673-4.31-2.639-6.763-2.918-2.3-.262-4.455,1.016-6.662,1.721-5.479,1.748-11.746-.218-15.88-4.217s-6.277-9.754-6.691-15.49" transform="translate(-120.084 -73.722)" fill="#ebebeb"/>
        <path id="Path_5860" data-name="Path 5860" d="M316.162,193.382a16.725,16.725,0,0,1,5.872,2.97,1.5,1.5,0,0,1-.984,2.675h-.038a62.188,62.188,0,0,1,6.342,5.069,1.85,1.85,0,0,1-1.318,3.219,28.313,28.313,0,0,1-18.332-7.773Z" transform="translate(-122.246 -76.828)" fill="#e0e0e0"/>
        <path id="Path_5861" data-name="Path 5861" d="M267.636,195.921c0,.021,0,.07,0,.145A27.853,27.853,0,0,0,278.831,217.4l4.246,3.167.434-12.8Z" transform="translate(-106.328 -77.836)" fill="#e0e0e0"/>
        <path id="Path_5862" data-name="Path 5862" d="M297.445,155.372l.138-.037a27.475,27.475,0,0,1,23.315,4.591l4.187,3.124L313.1,167.056Z" transform="translate(-118.17 -61.365)" fill="#e0e0e0"/>
        <path id="Path_5863" data-name="Path 5863" d="M213.3,123.658c1.422-1.906,8.964-1.733,19.623,1.153a61.194,61.194,0,0,1,17.7,7.955L286.042,159.2l-6.965,9.334-4.036,5.41-6.965,9.334L235.93,159.289a61.4,61.4,0,0,1-8.7-7.867,73.55,73.55,0,0,1-7.242-9.281c-5.987-9.227-8.114-16.577-6.691-18.483" transform="translate(-84.57 -48.629)" fill="#f5f5f5"/>
        <line id="Line_204" data-name="Line 204" x1="17.925" y2="23.731" transform="translate(177.934 106.38)" fill="#f5f5f5"/>
        <path id="Path_5864" data-name="Path 5864" d="M295.22,200.232c.035.027,4.076-5.265,9.025-11.817s8.935-11.887,8.9-11.914-4.075,5.264-9.026,11.819-8.934,11.887-8.9,11.913" transform="translate(-117.286 -70.121)" fill="#e0e0e0"/>
        <line id="Line_205" data-name="Line 205" x1="17.925" y2="23.731" transform="translate(179.087 107.075)" fill="#f5f5f5"/>
        <path id="Path_5865" data-name="Path 5865" d="M297.134,201.385c.035.026,4.076-5.265,9.025-11.817s8.935-11.887,8.9-11.914-4.076,5.264-9.026,11.819-8.934,11.886-8.9,11.913" transform="translate(-118.047 -70.579)" fill="#e0e0e0"/>
        <line id="Line_206" data-name="Line 206" x1="17.925" y2="23.731" transform="translate(180.206 107.939)" fill="#f5f5f5"/>
        <path id="Path_5866" data-name="Path 5866" d="M298.99,202.819c.035.026,4.076-5.265,9.025-11.817s8.935-11.887,8.9-11.914-4.075,5.264-9.026,11.819-8.933,11.886-8.9,11.913" transform="translate(-118.784 -71.149)" fill="#e0e0e0"/>
        <line id="Line_207" data-name="Line 207" x1="17.925" y2="23.731" transform="translate(181.325 108.804)" fill="#f5f5f5"/>
        <path id="Path_5867" data-name="Path 5867" d="M300.846,204.253c.035.027,4.076-5.265,9.025-11.817s8.935-11.887,8.9-11.914-4.075,5.265-9.026,11.819-8.933,11.886-8.9,11.913" transform="translate(-119.521 -71.718)" fill="#e0e0e0"/>
        <line id="Line_208" data-name="Line 208" x1="17.925" y2="23.731" transform="translate(182.444 109.668)" fill="#f5f5f5"/>
        <path id="Path_5868" data-name="Path 5868" d="M302.7,205.687c.034.026,4.076-5.265,9.025-11.817s8.935-11.887,8.9-11.914-4.075,5.264-9.026,11.819-8.933,11.886-8.9,11.913" transform="translate(-120.259 -72.288)" fill="#e0e0e0"/>
        <path id="Path_5869" data-name="Path 5869" d="M282.526,176.058a1.038,1.038,0,0,0,.145.149c.1.1.259.221.459.388.405.327,1,.787,1.742,1.349,1.482,1.124,3.546,2.653,5.837,4.327s4.375,3.179,5.887,4.261l1.8,1.273.494.34a.982.982,0,0,0,.178.109,1.072,1.072,0,0,0-.16-.135l-.476-.363-1.768-1.314-5.86-4.3-5.863-4.29-1.77-1.308c-.2-.159-.375-.273-.475-.362a1.118,1.118,0,0,0-.168-.127" transform="translate(-112.243 -69.945)" fill="#e0e0e0"/>
        <path id="Path_5870" data-name="Path 5870" d="M267.636,180.194c.035.026,4.055-5.294,8.979-11.882s8.888-11.952,8.853-11.978-4.054,5.294-8.979,11.883-8.888,11.951-8.853,11.977" transform="translate(-106.327 -62.109)" fill="#e0e0e0"/>
        <path id="Path_5871" data-name="Path 5871" d="M299.062,193.678c0-.008-.085,0-.215.069a.951.951,0,0,0-.4.466.9.9,0,0,0,.1.907.968.968,0,0,0,1.758-.48.9.9,0,0,0-.372-.834.948.948,0,0,0-.585-.2.381.381,0,0,0-.22.05,1.776,1.776,0,0,0,.217.011.964.964,0,0,1,.519.222.8.8,0,0,1,.3.728.829.829,0,0,1-1.5.41.8.8,0,0,1-.115-.778.972.972,0,0,1,.334-.454c.111-.081.186-.108.181-.121" transform="translate(-118.536 -76.918)" fill="#e0e0e0"/>
        <path id="Path_5872" data-name="Path 5872" d="M287.545,185.412c0-.008-.085,0-.215.069a.948.948,0,0,0-.4.466.9.9,0,0,0,.1.907.968.968,0,0,0,1.758-.48.9.9,0,0,0-.371-.834.95.95,0,0,0-.585-.2c-.148.005-.222.042-.22.05a1.942,1.942,0,0,0,.218.011.968.968,0,0,1,.519.222.8.8,0,0,1,.3.728.83.83,0,0,1-1.5.41.8.8,0,0,1-.116-.778.976.976,0,0,1,.334-.454c.111-.081.186-.108.182-.121" transform="translate(-113.961 -73.634)" fill="#e0e0e0"/>
        <path id="Path_5873" data-name="Path 5873" d="M341.857,222.4a1.607,1.607,0,1,1-.109.046" transform="translate(-135.407 -88.32)" fill="#e0e0e0"/>
        <path id="Path_5874" data-name="Path 5874" d="M240.461,151.736a8.111,8.111,0,1,0,4.909-10.367,8.111,8.111,0,0,0-4.909,10.367" transform="translate(-95.343 -55.975)" fill="#fff"/>
        <path id="Path_5875" data-name="Path 5875" d="M240.412,151.635a15.67,15.67,0,0,1-.359-1.957,8.086,8.086,0,0,1,1.312-5.124,7.961,7.961,0,0,1,6.724-3.589,7.968,7.968,0,0,1,4.4,1.372,7.91,7.91,0,0,1,3.158,8.836,7.967,7.967,0,0,1-2.538,3.852,7.961,7.961,0,0,1-7.476,1.484,8.082,8.082,0,0,1-4.261-3.134,15.822,15.822,0,0,1-.962-1.741,2.843,2.843,0,0,0,.166.492,3.678,3.678,0,0,0,.256.576,5.647,5.647,0,0,0,.427.749,8.172,8.172,0,0,0,8.084,3.6,8.262,8.262,0,0,0,3.975-1.782,8.264,8.264,0,0,0,2.661-4,8.226,8.226,0,0,0-3.3-9.222,8.262,8.262,0,0,0-4.594-1.41,8.267,8.267,0,0,0-4.2,1.14,8.155,8.155,0,0,0-2.732,2.637,8.073,8.073,0,0,0-1.239,5.273,5.619,5.619,0,0,0,.145.85,3.647,3.647,0,0,0,.168.608,2.829,2.829,0,0,0,.183.486" transform="translate(-95.294 -55.874)" fill="#e0e0e0"/>
        <path id="Path_5876" data-name="Path 5876" d="M213.3,123.658c1.422-1.906,8.964-1.733,19.623,1.153l-12.932,17.33c-5.987-9.227-8.114-16.577-6.691-18.483" transform="translate(-84.57 -48.629)" fill="#e0e0e0"/>
        <path id="Path_5877" data-name="Path 5877" d="M213.275,123.624s-.076.119-.213.363a3.768,3.768,0,0,0-.239,1.211,14.538,14.538,0,0,0,.876,4.675,59.659,59.659,0,0,0,8.406,15.51,72.94,72.94,0,0,0,8.127,9.279,62.646,62.646,0,0,0,5.279,4.474l5.888,4.406,26.552,19.838.139.1.1-.139,8.984-12.036,8.982-12.042.1-.139-.139-.1-26.582-19.81-5.9-4.392-2.818-2.1c-.948-.674-1.92-1.257-2.884-1.817a65.211,65.211,0,0,0-11.236-5.085,78.847,78.847,0,0,0-9.782-2.543,50.425,50.425,0,0,0-7.522-.947,14.9,14.9,0,0,0-4.738.421,6.239,6.239,0,0,0-.664.278,3.775,3.775,0,0,0-.436.284c-.2.2-.288.307-.288.307s.11-.093.309-.281a4.241,4.241,0,0,1,.438-.266,6.584,6.584,0,0,1,.661-.26,15.228,15.228,0,0,1,4.713-.357,51.482,51.482,0,0,1,7.493,1,80.049,80.049,0,0,1,9.742,2.583,65.424,65.424,0,0,1,11.174,5.1c.957.559,1.928,1.146,2.855,1.809l2.812,2.1,5.889,4.4L285.917,159.3l-.036-.243L276.9,171.1l-8.98,12.038.244-.036L241.583,163.3l-5.9-4.393a62.485,62.485,0,0,1-5.267-4.44,73.163,73.163,0,0,1-8.13-9.218,60.49,60.49,0,0,1-8.472-15.412,14.857,14.857,0,0,1-.93-4.634,3.941,3.941,0,0,1,.2-1.2c.125-.244.183-.376.183-.376" transform="translate(-84.549 -48.595)" fill="#e0e0e0"/>
        <path id="Path_5878" data-name="Path 5878" d="M253.229,157.138a6.789,6.789,0,0,0-.136-1.632c-.139-1-.385-2.372-.685-3.88-.292-1.438-.557-2.74-.785-3.855a8.488,8.488,0,0,0-.382-1.589,6.79,6.79,0,0,0,.136,1.632c.139,1,.385,2.372.685,3.881.293,1.437.558,2.739.785,3.854a8.49,8.49,0,0,0,.382,1.589" transform="translate(-99.807 -58.076)" fill="#e0e0e0"/>
        <path id="Path_5879" data-name="Path 5879" d="M256.155,156.546a18.245,18.245,0,0,0-.4-3.555,18.154,18.154,0,0,0-.752-3.5,18.39,18.39,0,0,0,.4,3.555,18.367,18.367,0,0,0,.752,3.5" transform="translate(-101.297 -59.391)" fill="#e0e0e0"/>
        <path id="Path_5880" data-name="Path 5880" d="M573.342,314.478l-17.124-8.339a2.383,2.383,0,0,1-1.1-3.186l11.542-23.7a2.383,2.383,0,0,1,3.187-1.1l10.86,5.288,4.188,12.758-8.367,17.18a2.383,2.383,0,0,1-3.185,1.1" transform="translate(-220.444 -110.41)" fill="#ebebeb"/>
        <path id="Path_5881" data-name="Path 5881" d="M595.443,287.085l-3.248,6.671a2.216,2.216,0,0,0,1.022,2.963l6.413,3.124Z" transform="translate(-235.181 -114.054)" fill="#e0e0e0"/>
        <path id="Path_5882" data-name="Path 5882" d="M584.958,293.994a56.334,56.334,0,0,1-7.922-3.858,56.352,56.352,0,0,1,7.922,3.858" transform="translate(-229.247 -115.264)" fill="#fff"/>
        <path id="Path_5883" data-name="Path 5883" d="M587.027,302.744c-.042.086-2.994-1.266-6.595-3.02s-6.486-3.244-6.444-3.33,2.994,1.266,6.595,3.02,6.485,3.244,6.444,3.33" transform="translate(-228.036 -117.751)" fill="#fff"/>
        <path id="Path_5884" data-name="Path 5884" d="M585.657,308.541c-.042.086-3.258-1.394-7.183-3.305s-7.072-3.53-7.031-3.616,3.257,1.394,7.183,3.306,7.072,3.53,7.031,3.616" transform="translate(-227.025 -119.827)" fill="#fff"/>
        <path id="Path_5885" data-name="Path 5885" d="M583.256,313.472c-.042.086-3.258-1.394-7.181-3.305s-7.073-3.53-7.031-3.616,3.256,1.393,7.182,3.305,7.072,3.53,7.031,3.616" transform="translate(-226.072 -121.786)" fill="#fff"/>
        <path id="Path_5886" data-name="Path 5886" d="M580.855,318.4c-.042.086-3.258-1.394-7.182-3.305s-7.073-3.53-7.031-3.616,3.257,1.394,7.183,3.306,7.072,3.53,7.031,3.616" transform="translate(-225.118 -123.745)" fill="#fff"/>
        <path id="Path_5887" data-name="Path 5887" d="M578.454,323.332c-.042.086-3.258-1.394-7.182-3.305s-7.073-3.53-7.031-3.616,3.256,1.393,7.182,3.305,7.072,3.53,7.031,3.616" transform="translate(-224.164 -125.704)" fill="#fff"/>
        <path id="Path_5888" data-name="Path 5888" d="M168.15,182.629a20.741,20.741,0,1,1-19.244-22.092,20.718,20.718,0,0,1,19.244,22.092" transform="translate(-50.343 -63.758)" fill="#f5f5f5"/>
        <path id="Path_5889" data-name="Path 5889" d="M166.479,185.53a15.806,15.806,0,1,1-14.665-16.836,15.788,15.788,0,0,1,14.665,16.836" transform="translate(-53.596 -67.004)" fill="#ebebeb"/>
        <path id="Path_5890" data-name="Path 5890" d="M166.458,184.64a9.344,9.344,0,0,1-.284-1.925,16.78,16.78,0,0,0-1.48-4.96,16.139,16.139,0,0,0-1.887-3.011,15.84,15.84,0,0,0-2.921-2.821,15.489,15.489,0,0,0-3.936-2.122,15.369,15.369,0,0,0-2.281-.638,15.461,15.461,0,0,0-4.86-.188,15.38,15.38,0,0,0-2.324.46,15.483,15.483,0,0,0-4.088,1.813,15.8,15.8,0,0,0-3.129,2.587,16.179,16.179,0,0,0-2.113,2.857,16.777,16.777,0,0,0-1.856,4.831,9.3,9.3,0,0,1-.431,1.9,4.625,4.625,0,0,1-.034-1.972,14.621,14.621,0,0,1,1.569-5.165,15.837,15.837,0,0,1,5.388-5.971,15.257,15.257,0,0,1,2.06-1.15,15.491,15.491,0,0,1,2.308-.866,16.155,16.155,0,0,1,2.5-.515,16.2,16.2,0,0,1,5.242.2,16.109,16.109,0,0,1,2.457.706,16.143,16.143,0,0,1,4.2,2.347,15.821,15.821,0,0,1,4.913,6.368,14.635,14.635,0,0,1,1.169,5.27,4.647,4.647,0,0,1-.186,1.965" transform="translate(-53.543 -66.608)" fill="#e0e0e0"/>
        <path id="Path_5891" data-name="Path 5891" d="M157.421,197.145l-.152,2.749-2.454-.137.149-2.675a11.653,11.653,0,0,1-6-2.3l1.515-2.92a9.932,9.932,0,0,0,4.665,2.008l.228-4.1c-2.687-.814-5.681-1.891-5.485-5.4.145-2.6,2.158-4.73,6.061-4.956l.151-2.725,2.455.136L158.4,179.5a11.115,11.115,0,0,1,4.9,1.774l-1.395,2.951a10.085,10.085,0,0,0-3.684-1.486l-.232,4.173c2.689.789,5.633,1.864,5.441,5.324-.142,2.553-2.131,4.658-6.01,4.91M155.57,186.16l.193-3.485c-1.317.222-1.871.905-1.917,1.715-.048.859.663,1.366,1.724,1.77m3.893,6.15c.048-.859-.638-1.365-1.673-1.792L157.6,193.9c1.243-.2,1.818-.809,1.862-1.595" transform="translate(-59.18 -70.195)" fill="#e0e0e0"/>
        <path id="Path_5892" data-name="Path 5892" d="M620.571,82.175a15.847,15.847,0,1,1-14.7-16.88,15.83,15.83,0,0,1,14.7,16.88" transform="translate(-233.967 -25.925)" fill="#f5f5f5"/>
        <path id="Path_5893" data-name="Path 5893" d="M619.3,84.391A12.077,12.077,0,1,1,608.09,71.527,12.063,12.063,0,0,1,619.3,84.391" transform="translate(-236.452 -28.405)" fill="#ebebeb"/>
        <path id="Path_5894" data-name="Path 5894" d="M619.278,83.711a7.121,7.121,0,0,1-.217-1.471,12.824,12.824,0,0,0-1.131-3.79,12.364,12.364,0,0,0-1.442-2.3,12.1,12.1,0,0,0-2.232-2.155,11.831,11.831,0,0,0-3.007-1.621,11.739,11.739,0,0,0-1.742-.488,11.806,11.806,0,0,0-3.714-.143,11.753,11.753,0,0,0-1.775.351,11.315,11.315,0,0,0-1.644.594,11.173,11.173,0,0,0-1.479.791,12.052,12.052,0,0,0-2.391,1.977,12.409,12.409,0,0,0-1.615,2.183,12.84,12.84,0,0,0-1.418,3.691,7.078,7.078,0,0,1-.329,1.45,3.549,3.549,0,0,1-.026-1.507,11.18,11.18,0,0,1,1.2-3.946,12.09,12.09,0,0,1,4.117-4.562,11.655,11.655,0,0,1,1.574-.879,11.849,11.849,0,0,1,1.763-.662,12.39,12.39,0,0,1,1.914-.394,12.392,12.392,0,0,1,4.006.155,12.4,12.4,0,0,1,1.877.54,12.292,12.292,0,0,1,3.209,1.793,12.1,12.1,0,0,1,3.754,4.866,11.183,11.183,0,0,1,.893,4.027,3.538,3.538,0,0,1-.142,1.5" transform="translate(-236.411 -28.102)" fill="#e0e0e0"/>
        <path id="Path_5895" data-name="Path 5895" d="M612.373,93.265l-.116,2.1-1.875-.1.113-2.044a8.9,8.9,0,0,1-4.586-1.76l1.158-2.231a7.6,7.6,0,0,0,3.564,1.534l.174-3.132c-2.054-.621-4.34-1.445-4.191-4.127.111-1.988,1.65-3.614,4.631-3.787l.116-2.082,1.876.1-.114,2.044a8.49,8.49,0,0,1,3.743,1.355L615.8,83.392a7.7,7.7,0,0,0-2.815-1.136l-.177,3.189c2.054.6,4.3,1.424,4.157,4.068-.109,1.95-1.628,3.559-4.592,3.751m-1.414-8.393.148-2.663c-1.007.17-1.43.692-1.465,1.311-.036.656.507,1.045,1.318,1.352m2.974,4.7c.036-.657-.488-1.043-1.278-1.369l-.144,2.588c.949-.154,1.389-.618,1.422-1.219" transform="translate(-240.718 -30.842)" fill="#e0e0e0"/>
        <path id="Path_5896" data-name="Path 5896" d="M326.077,278.98a11.458,11.458,0,1,1-12.983-9.665,11.445,11.445,0,0,1,12.983,9.665" transform="translate(-120.488 -106.947)" fill="#f5f5f5"/>
        <path id="Path_5897" data-name="Path 5897" d="M325.176,281.165a8.732,8.732,0,1,1-9.894-7.365,8.722,8.722,0,0,1,9.894,7.365" transform="translate(-122.285 -108.74)" fill="#ebebeb"/>
        <path id="Path_5898" data-name="Path 5898" d="M325.03,280.676a5.185,5.185,0,0,1-.379-1.006,9.279,9.279,0,0,0-1.382-2.5,8.912,8.912,0,0,0-1.372-1.4,8.724,8.724,0,0,0-1.908-1.18,8.569,8.569,0,0,0-2.374-.684,8.5,8.5,0,0,0-1.306-.076,8.5,8.5,0,0,0-2.645.47,8.429,8.429,0,0,0-1.2.521,8.562,8.562,0,0,0-1.994,1.459,8.73,8.73,0,0,0-1.384,1.764,8.959,8.959,0,0,0-.805,1.791,9.269,9.269,0,0,0-.435,2.826,5.145,5.145,0,0,1-.01,1.075,2.558,2.558,0,0,1-.25-1.061,8.059,8.059,0,0,1,.241-2.972,8.732,8.732,0,0,1,2.207-3.856,8.453,8.453,0,0,1,.976-.863,8.54,8.54,0,0,1,1.144-.738,8.842,8.842,0,0,1,1.292-.572,8.971,8.971,0,0,1,2.854-.507,8.974,8.974,0,0,1,1.409.093,8.938,8.938,0,0,1,2.543.773,8.946,8.946,0,0,1,2.006,1.315,8.857,8.857,0,0,1,1.394,1.547,8.079,8.079,0,0,1,1.25,2.707,2.563,2.563,0,0,1,.13,1.082" transform="translate(-122.181 -108.521)" fill="#e0e0e0"/>
        <path id="Path_5899" data-name="Path 5899" d="M321.46,289.161l.241,1.5-1.341.215-.234-1.462a6.437,6.437,0,0,1-3.511-.538l.476-1.754a5.5,5.5,0,0,0,2.754.536l-.359-2.24c-1.547-.124-3.288-.353-3.6-2.271-.227-1.422.61-2.807,2.69-3.387l-.239-1.489,1.341-.215.234,1.462a6.138,6.138,0,0,1,2.853.382l-.406,1.757a5.56,5.56,0,0,0-2.164-.369l.365,2.28c1.544.11,3.26.345,3.563,2.235.223,1.395-.6,2.765-2.668,3.357m-2.289-5.712-.306-1.9c-.685.275-.9.709-.833,1.152.075.469.518.659,1.139.753m2.824,2.862c-.075-.47-.505-.662-1.114-.771l.3,1.85c.647-.254.886-.65.817-1.079" transform="translate(-125.484 -110.468)" fill="#e0e0e0"/>
        <path id="Path_5900" data-name="Path 5900" d="M9.734,342.152v12.589a.626.626,0,0,1-.626.626H8.049a.626.626,0,0,0-.626.626v.251a.626.626,0,0,0,.626.626H9.108a.626.626,0,0,1,.626.626v8.011a.626.626,0,0,0,.626.626H52.305a.626.626,0,0,0,.626-.626V358.33a.626.626,0,0,0-.626-.626H50.357a.626.626,0,0,1-.626-.626v-.584a.626.626,0,0,1,.626-.626h1.948a.626.626,0,0,0,.626-.626v-1.5a.626.626,0,0,1,.626-.626h.17a.626.626,0,1,0,0-1.252H53.29a.626.626,0,0,1-.626-.626v-9.084a.626.626,0,0,0-.626-.626H10.359a.626.626,0,0,0-.626.626" transform="translate(-2.949 -135.683)" fill="#f5f5f5"/>
        <path id="Path_5901" data-name="Path 5901" d="M63.9,342.192v23.163a.626.626,0,0,0,.626.626h10.22a.626.626,0,0,0,.626-.626v-7.177a.626.626,0,0,0-.626-.626H72.793a.626.626,0,0,1-.626-.626v-.418a.626.626,0,0,1,.637-.626l1.926.034a.626.626,0,0,0,.637-.626V353.8a.626.626,0,0,1,.626-.626h.184a.625.625,0,0,0,.626-.638l0-.186a.625.625,0,0,0-.61-.614l-.48-.012a.626.626,0,0,1-.611-.626v-8.943a.626.626,0,0,0-.628-.626l-9.953.036a.626.626,0,0,0-.624.626" transform="translate(-25.385 -135.684)" fill="#e0e0e0"/>
        <path id="Path_5902" data-name="Path 5902" d="M42.237,366.552c0,.085-7.817.154-17.456.154s-17.459-.069-17.459-.154,7.815-.154,17.459-.154,17.456.069,17.456.154" transform="translate(-2.909 -145.564)" fill="#e0e0e0"/>
        <path id="Path_5903" data-name="Path 5903" d="M42.237,364.22c0,.085-7.817.154-17.456.154s-17.459-.069-17.459-.154,7.815-.153,17.459-.153,17.456.069,17.456.153" transform="translate(-2.909 -144.638)" fill="#e0e0e0"/>
        <path id="Path_5904" data-name="Path 5904" d="M45.957,357.942c0,.085-7.817.153-17.456.153s-17.459-.068-17.459-.153,7.815-.153,17.459-.153,17.456.069,17.456.153" transform="translate(-4.387 -142.144)" fill="#e0e0e0"/>
        <path id="Path_5905" data-name="Path 5905" d="M46.315,375.049c0,.085-7.817.154-17.456.154s-17.459-.069-17.459-.154,7.815-.153,17.459-.153,17.456.069,17.456.153" transform="translate(-4.529 -148.94)" fill="#e0e0e0"/>
        <path id="Path_5906" data-name="Path 5906" d="M15.141,381.844v12.589a.626.626,0,0,1-.626.626h-1.06a.626.626,0,0,0-.626.626v.251a.626.626,0,0,0,.626.626h1.06a.626.626,0,0,1,.626.626V405.2a.626.626,0,0,0,.626.626H57.712a.626.626,0,0,0,.626-.626v-7.177a.626.626,0,0,0-.626-.626H55.764a.626.626,0,0,1-.626-.626v-.584a.626.626,0,0,1,.626-.626h1.948a.626.626,0,0,0,.626-.626v-1.5a.626.626,0,0,1,.626-.626h.17a.626.626,0,1,0,0-1.252H58.7a.626.626,0,0,1-.626-.626v-9.084a.626.626,0,0,0-.626-.626H15.767a.626.626,0,0,0-.626.626" transform="translate(-5.097 -151.452)" fill="#f5f5f5"/>
        <path id="Path_5907" data-name="Path 5907" d="M69.3,381.884v23.163a.626.626,0,0,0,.626.626h10.22a.626.626,0,0,0,.626-.626V397.87a.626.626,0,0,0-.626-.626H78.2a.626.626,0,0,1-.626-.626V396.2a.626.626,0,0,1,.637-.626l1.926.034a.626.626,0,0,0,.637-.626v-1.49a.626.626,0,0,1,.626-.626h.184a.625.625,0,0,0,.626-.638l0-.186a.625.625,0,0,0-.61-.614l-.48-.012a.626.626,0,0,1-.611-.626v-8.943a.626.626,0,0,0-.628-.626l-9.953.036a.627.627,0,0,0-.624.626" transform="translate(-27.533 -151.453)" fill="#e0e0e0"/>
        <path id="Path_5908" data-name="Path 5908" d="M47.644,406.244c0,.085-7.817.154-17.456.154s-17.459-.069-17.459-.154,7.815-.154,17.459-.154,17.456.069,17.456.154" transform="translate(-5.057 -161.333)" fill="#e0e0e0"/>
        <path id="Path_5909" data-name="Path 5909" d="M47.644,403.911c0,.085-7.817.154-17.456.154s-17.459-.069-17.459-.154,7.815-.153,17.459-.153,17.456.069,17.456.153" transform="translate(-5.057 -160.407)" fill="#e0e0e0"/>
        <path id="Path_5910" data-name="Path 5910" d="M51.364,397.634c0,.085-7.817.153-17.457.153s-17.458-.068-17.458-.153,7.815-.153,17.458-.153,17.457.068,17.457.153" transform="translate(-6.535 -157.913)" fill="#e0e0e0"/>
        <path id="Path_5911" data-name="Path 5911" d="M51.722,414.741c0,.085-7.817.154-17.457.154s-17.458-.069-17.458-.154,7.815-.153,17.458-.153,17.457.069,17.457.153" transform="translate(-6.677 -164.709)" fill="#e0e0e0"/>
        <path id="Path_5912" data-name="Path 5912" d="M8.859,421v12.589a.626.626,0,0,1-.626.626H7.174a.626.626,0,0,0-.626.626v.251a.626.626,0,0,0,.626.626h1.06a.626.626,0,0,1,.626.626v8.011a.626.626,0,0,0,.626.626H51.43a.626.626,0,0,0,.626-.626v-7.177a.626.626,0,0,0-.626-.626H49.482a.626.626,0,0,1-.626-.626v-.584a.626.626,0,0,1,.626-.626H51.43a.626.626,0,0,0,.626-.626v-1.5a.626.626,0,0,1,.626-.626h.17a.626.626,0,1,0,0-1.252h-.437a.626.626,0,0,1-.626-.626V421a.626.626,0,0,0-.626-.626H9.485a.626.626,0,0,0-.626.626" transform="translate(-2.601 -167.008)" fill="#f5f5f5"/>
        <path id="Path_5913" data-name="Path 5913" d="M63.021,421.04V444.2a.626.626,0,0,0,.626.626h10.22a.626.626,0,0,0,.626-.626v-7.178a.626.626,0,0,0-.626-.626H71.918a.626.626,0,0,1-.626-.626v-.418a.626.626,0,0,1,.637-.626l1.926.034a.626.626,0,0,0,.637-.626v-1.49a.625.625,0,0,1,.626-.626H75.3a.625.625,0,0,0,.626-.638l0-.186a.625.625,0,0,0-.61-.614l-.48-.012a.626.626,0,0,1-.611-.626V421a.626.626,0,0,0-.628-.626l-9.953.036a.626.626,0,0,0-.624.626" transform="translate(-25.037 -167.01)" fill="#e0e0e0"/>
        <path id="Path_5914" data-name="Path 5914" d="M41.362,445.4c0,.085-7.817.154-17.456.154s-17.459-.069-17.459-.154,7.815-.154,17.459-.154,17.456.069,17.456.154" transform="translate(-2.561 -176.89)" fill="#e0e0e0"/>
        <path id="Path_5915" data-name="Path 5915" d="M41.362,443.068c0,.085-7.817.154-17.456.154s-17.459-.069-17.459-.154,7.815-.153,17.459-.153,17.456.069,17.456.153" transform="translate(-2.561 -175.963)" fill="#e0e0e0"/>
        <path id="Path_5916" data-name="Path 5916" d="M45.082,436.79c0,.085-7.817.153-17.456.153s-17.459-.068-17.459-.153,7.815-.153,17.459-.153,17.456.069,17.456.153" transform="translate(-4.039 -173.469)" fill="#e0e0e0"/>
        <path id="Path_5917" data-name="Path 5917" d="M45.44,453.9c0,.085-7.817.154-17.457.154s-17.458-.069-17.458-.154,7.815-.153,17.458-.153,17.457.069,17.457.153" transform="translate(-4.181 -180.266)" fill="#e0e0e0"/>
        <path id="Path_5918" data-name="Path 5918" d="M16.117,223.972v12.589a.626.626,0,0,1-.626.626h-1.06a.626.626,0,0,0-.626.626v.251a.626.626,0,0,0,.626.626h1.06a.626.626,0,0,1,.626.626v8.012a.626.626,0,0,0,.626.626H58.688a.626.626,0,0,0,.626-.626v-7.178a.626.626,0,0,0-.626-.626H56.74a.626.626,0,0,1-.626-.626v-.584a.626.626,0,0,1,.626-.626h1.949a.626.626,0,0,0,.626-.626v-1.5a.626.626,0,0,1,.626-.626h.17a.626.626,0,1,0,0-1.252h-.437a.626.626,0,0,1-.626-.626v-9.084a.626.626,0,0,0-.626-.626H16.742a.625.625,0,0,0-.626.626" transform="translate(-5.485 -88.732)" fill="#f5f5f5"/>
        <path id="Path_5919" data-name="Path 5919" d="M70.279,224.011v23.163a.626.626,0,0,0,.626.626h10.22a.626.626,0,0,0,.626-.626V240a.626.626,0,0,0-.626-.626H79.176a.626.626,0,0,1-.626-.626v-.419a.626.626,0,0,1,.637-.626l1.926.034a.626.626,0,0,0,.637-.626v-1.49a.626.626,0,0,1,.627-.626h.184a.626.626,0,0,0,.627-.638l0-.186a.625.625,0,0,0-.61-.614l-.48-.012a.626.626,0,0,1-.611-.626v-8.943a.626.626,0,0,0-.628-.626l-9.953.036a.627.627,0,0,0-.624.626" transform="translate(-27.921 -88.733)" fill="#e0e0e0"/>
        <path id="Path_5920" data-name="Path 5920" d="M48.62,248.372c0,.085-7.817.154-17.456.154s-17.459-.069-17.459-.154,7.815-.154,17.459-.154,17.456.069,17.456.154" transform="translate(-5.445 -98.613)" fill="#e0e0e0"/>
        <path id="Path_5921" data-name="Path 5921" d="M48.62,246.039c0,.085-7.817.154-17.456.154s-17.459-.069-17.459-.154,7.815-.153,17.459-.153,17.456.069,17.456.153" transform="translate(-5.445 -97.687)" fill="#e0e0e0"/>
        <path id="Path_5922" data-name="Path 5922" d="M52.34,239.761c0,.085-7.817.154-17.457.154s-17.458-.069-17.458-.154,7.815-.154,17.458-.154,17.457.069,17.457.154" transform="translate(-6.923 -95.192)" fill="#e0e0e0"/>
        <path id="Path_5923" data-name="Path 5923" d="M52.7,256.869c0,.085-7.817.154-17.456.154s-17.459-.069-17.459-.154,7.815-.153,17.459-.153,17.456.069,17.456.153" transform="translate(-7.065 -101.989)" fill="#e0e0e0"/>
        <path id="Path_5924" data-name="Path 5924" d="M21.524,263.663v12.589a.626.626,0,0,1-.626.626H19.839a.626.626,0,0,0-.626.626v.251a.626.626,0,0,0,.626.626H20.9a.626.626,0,0,1,.626.626v8.012a.626.626,0,0,0,.626.626H64.1a.626.626,0,0,0,.626-.626v-7.177a.626.626,0,0,0-.626-.626H62.147a.626.626,0,0,1-.626-.626V278a.626.626,0,0,1,.626-.626H64.1a.626.626,0,0,0,.626-.626v-1.5a.626.626,0,0,1,.626-.626h.17a.626.626,0,1,0,0-1.252H65.08a.626.626,0,0,1-.626-.626v-9.084a.626.626,0,0,0-.626-.626H22.149a.626.626,0,0,0-.626.626" transform="translate(-7.633 -104.5)" fill="#f5f5f5"/>
        <path id="Path_5925" data-name="Path 5925" d="M75.686,263.7v23.163a.626.626,0,0,0,.626.626h10.22a.626.626,0,0,0,.626-.626v-7.177a.626.626,0,0,0-.626-.626H84.583a.626.626,0,0,1-.626-.626v-.419a.625.625,0,0,1,.637-.626l1.926.034a.626.626,0,0,0,.637-.626v-1.49a.626.626,0,0,1,.627-.626h.184a.627.627,0,0,0,.627-.638l0-.186a.625.625,0,0,0-.61-.614l-.48-.012a.626.626,0,0,1-.611-.626v-8.943a.626.626,0,0,0-.628-.626l-9.953.036a.626.626,0,0,0-.624.626" transform="translate(-30.069 -104.502)" fill="#e0e0e0"/>
        <path id="Path_5926" data-name="Path 5926" d="M54.027,288.063c0,.085-7.817.154-17.456.154s-17.459-.069-17.459-.154,7.815-.153,17.459-.153,17.456.068,17.456.153" transform="translate(-7.593 -114.382)" fill="#e0e0e0"/>
        <path id="Path_5927" data-name="Path 5927" d="M54.027,285.731c0,.085-7.817.154-17.456.154s-17.459-.069-17.459-.154,7.815-.153,17.459-.153,17.456.069,17.456.153" transform="translate(-7.593 -113.456)" fill="#e0e0e0"/>
        <path id="Path_5928" data-name="Path 5928" d="M57.747,279.453c0,.085-7.817.154-17.457.154s-17.458-.069-17.458-.154,7.815-.153,17.458-.153,17.457.069,17.457.153" transform="translate(-9.071 -110.961)" fill="#e0e0e0"/>
        <path id="Path_5929" data-name="Path 5929" d="M58.105,296.56c0,.086-7.817.154-17.457.154s-17.458-.068-17.458-.154,7.815-.152,17.458-.152,17.457.068,17.457.152" transform="translate(-9.213 -117.758)" fill="#e0e0e0"/>
        <path id="Path_5930" data-name="Path 5930" d="M15.242,302.82v12.589a.626.626,0,0,1-.626.626h-1.06a.626.626,0,0,0-.626.626v.251a.626.626,0,0,0,.626.626h1.06a.626.626,0,0,1,.626.626v8.012a.626.626,0,0,0,.626.626H57.813a.626.626,0,0,0,.626-.626V319a.626.626,0,0,0-.626-.626H55.865a.626.626,0,0,1-.626-.626v-.584a.626.626,0,0,1,.626-.626h1.948a.626.626,0,0,0,.626-.626v-1.5a.626.626,0,0,1,.626-.626h.17a.626.626,0,1,0,0-1.252H58.8a.626.626,0,0,1-.626-.626V302.82a.626.626,0,0,0-.626-.626H15.868a.626.626,0,0,0-.626.626" transform="translate(-5.137 -120.057)" fill="#f5f5f5"/>
        <path id="Path_5931" data-name="Path 5931" d="M69.4,302.859v23.163a.626.626,0,0,0,.626.626h10.22a.626.626,0,0,0,.626-.626v-7.177a.626.626,0,0,0-.626-.626H78.3a.626.626,0,0,1-.626-.626v-.419a.626.626,0,0,1,.637-.626l1.926.034a.626.626,0,0,0,.637-.626v-1.49a.626.626,0,0,1,.626-.626h.184a.625.625,0,0,0,.626-.638l0-.186a.625.625,0,0,0-.61-.614l-.48-.012a.626.626,0,0,1-.611-.626v-8.943a.626.626,0,0,0-.628-.626l-9.953.036a.626.626,0,0,0-.624.626" transform="translate(-27.573 -120.058)" fill="#e0e0e0"/>
        <path id="Path_5932" data-name="Path 5932" d="M47.745,327.22c0,.085-7.817.154-17.456.154s-17.459-.069-17.459-.154,7.815-.153,17.459-.153,17.456.068,17.456.153" transform="translate(-5.097 -129.939)" fill="#e0e0e0"/>
        <path id="Path_5933" data-name="Path 5933" d="M47.745,324.887c0,.085-7.817.153-17.456.153s-17.459-.068-17.459-.153,7.815-.153,17.459-.153,17.456.068,17.456.153" transform="translate(-5.097 -129.012)" fill="#e0e0e0"/>
        <path id="Path_5934" data-name="Path 5934" d="M51.465,318.609c0,.085-7.817.154-17.456.154s-17.459-.069-17.459-.154,7.815-.153,17.459-.153,17.456.069,17.456.153" transform="translate(-6.575 -126.518)" fill="#e0e0e0"/>
        <path id="Path_5935" data-name="Path 5935" d="M51.823,335.717c0,.085-7.817.154-17.457.154s-17.458-.069-17.458-.154,7.815-.153,17.458-.153,17.457.069,17.457.153" transform="translate(-6.717 -133.314)" fill="#e0e0e0"/>
        <rect id="Rectangle_2305" data-name="Rectangle 2305" width="10.384" height="32.431" transform="translate(206.86 26.519)" fill="#f5f5f5"/>
        <rect id="Rectangle_2306" data-name="Rectangle 2306" width="10.384" height="25.023" transform="translate(222.364 33.927)" fill="#f5f5f5"/>
        <rect id="Rectangle_2307" data-name="Rectangle 2307" width="10.384" height="14.86" transform="translate(236.718 44.09)" fill="#f5f5f5"/>
      </g>
    </g>
    <g id="Group_2683" data-name="Group 2683">
      <g id="Group_2682" data-name="Group 2682" clip-path="url(#clip-path)">
        <path id="Path_5936" data-name="Path 5936" d="M405.572,461.868c0,.087-90.8.157-202.776.157-112.018,0-202.8-.07-202.8-.157s90.778-.157,202.8-.157c111.979,0,202.776.07,202.776.157" transform="translate(0 -183.43)" fill="#263238"/>
      </g>
    </g>
    <g id="Group_2685" data-name="Group 2685">
      <g id="Group_2684" data-name="Group 2684" clip-path="url(#clip-path)">
        <path id="Path_5937" data-name="Path 5937" d="M559.683,194.506a22.307,22.307,0,1,1,22.662,22.047,22.388,22.388,0,0,1-22.662-22.047m32.969-.532a10.666,10.666,0,1,0-10.494,10.886,10.7,10.7,0,0,0,10.494-10.886" transform="translate(-222.352 -68.228)" fill="#455a64"/>
        <path id="Path_5938" data-name="Path 5938" d="M559.683,194.508a22.387,22.387,0,0,1,21.945-22.767l.187,11.693a10.715,10.715,0,0,0,.342,21.427l.187,11.693a22.38,22.38,0,0,1-22.662-22.047" transform="translate(-222.352 -68.23)" fill="#ff725e"/>
        <path id="Path_5939" data-name="Path 5939" d="M592.774,168.755a25.487,25.487,0,0,1,26.1,25.389l-13.617.22c-.11-6.911-5.37-11.263-12.249-11.151Z" transform="translate(-235.5 -67.042)" fill="#263238"/>
      </g>
    </g>
    <g id="Group_2723" data-name="Group 2723">
      <g id="Group_2722" data-name="Group 2722" clip-path="url(#clip-path)">
        <path id="Path_5940" data-name="Path 5940" d="M253.972,61.993a16.518,16.518,0,1,1-13.11-19.335,16.519,16.519,0,0,1,13.11,19.335" transform="translate(-87.89 -16.829)" fill="#ff725e"/>
        <g id="Group_2688" data-name="Group 2688" transform="translate(133.636 25.53)" opacity="0.1">
          <g id="Group_2687" data-name="Group 2687">
            <g id="Group_2686" data-name="Group 2686" clip-path="url(#clip-path-6)">
              <path id="Path_5941" data-name="Path 5941" d="M241.059,42.658a16.517,16.517,0,0,0-19.335,13.111s11.3,2.7,14.924-1.368,4.41-11.743,4.41-11.743" transform="translate(-221.723 -42.359)" fill="#fff"/>
            </g>
          </g>
        </g>
        <path id="Path_5942" data-name="Path 5942" d="M252.348,63.35a12.557,12.557,0,1,1-9.967-14.7,12.557,12.557,0,0,1,9.967,14.7" transform="translate(-90.365 -19.238)" fill="#ff725e"/>
        <g id="Group_2691" data-name="Group 2691" transform="translate(137.091 29.186)" opacity="0.2">
          <g id="Group_2690" data-name="Group 2690">
            <g id="Group_2689" data-name="Group 2689" clip-path="url(#clip-path-7)">
              <path id="Path_5943" data-name="Path 5943" d="M252.348,63.35a12.557,12.557,0,1,1-9.967-14.7,12.557,12.557,0,0,1,9.967,14.7" transform="translate(-227.456 -48.424)"/>
            </g>
          </g>
        </g>
        <path id="Path_5944" data-name="Path 5944" d="M252.983,64.446a12.389,12.389,0,1,1-9.833-14.5,12.388,12.388,0,0,1,9.833,14.5" transform="translate(-90.75 -19.753)" fill="#ff725e"/>
        <g id="Group_2694" data-name="Group 2694" transform="translate(137.675 29.967)" opacity="0.2">
          <g id="Group_2693" data-name="Group 2693">
            <g id="Group_2692" data-name="Group 2692" clip-path="url(#clip-path-8)">
              <path id="Path_5945" data-name="Path 5945" d="M252.983,64.446a12.389,12.389,0,1,1-9.833-14.5,12.388,12.388,0,0,1,9.833,14.5" transform="translate(-228.425 -49.72)" fill="#fff"/>
            </g>
          </g>
        </g>
        <path id="Path_5946" data-name="Path 5946" d="M246.166,64.053l.6-3.113.015,0a6.5,6.5,0,0,1,1.572.749,5.263,5.263,0,0,1,.681.638l.06-.089.7-1.029.16-.236-.443-.689-.29.069a5.927,5.927,0,0,0-2.13-1.084l.328-1.712-.451-.532-.083.43-.732-.14-.334,1.743c-2.451-.23-3.855.923-4.157,2.5-.411,2.144,1.318,3.051,2.95,3.8l-.592,3.085a6.04,6.04,0,0,1-2.86-1.764l-.993,1.425a6.877,6.877,0,0,0,3.533,2l-.248,1.293-.6-.1.524.524,1.265.243.331-1.727c2.469.218,3.886-.917,4.188-2.49.411-2.144-1.351-3.042-2.983-3.786m-1.2-.567c-.844-.434-1.442-.9-1.3-1.641.13-.679.7-1.145,1.827-1.1Zm1.8-2.549h0Zm-1.48,7.711.524-2.73c.875.439,1.486.925,1.34,1.68-.127.663-.706,1.1-1.864,1.049" transform="translate(-95.412 -22.656)" fill="#ff725e"/>
        <g id="Group_2697" data-name="Group 2697" transform="translate(144.749 34.372)" opacity="0.3">
          <g id="Group_2696" data-name="Group 2696">
            <g id="Group_2695" data-name="Group 2695" clip-path="url(#clip-path-9)">
              <path id="Path_5947" data-name="Path 5947" d="M246.166,64.053l.6-3.113.015,0a6.5,6.5,0,0,1,1.572.749,5.263,5.263,0,0,1,.681.638l.06-.089.7-1.029.16-.236-.443-.689-.29.069a5.927,5.927,0,0,0-2.13-1.084l.328-1.712-.451-.532-.083.43-.732-.14-.334,1.743c-2.451-.23-3.855.923-4.157,2.5-.411,2.144,1.318,3.051,2.95,3.8l-.592,3.085a6.04,6.04,0,0,1-2.86-1.764l-.993,1.425a6.877,6.877,0,0,0,3.533,2l-.248,1.293-.6-.1.524.524,1.265.243.331-1.727c2.469.218,3.886-.917,4.188-2.49.411-2.144-1.351-3.042-2.983-3.786m-1.2-.567c-.844-.434-1.442-.9-1.3-1.641.13-.679.7-1.145,1.827-1.1Zm1.8-2.549h0Zm-1.48,7.711.524-2.73c.875.439,1.486.925,1.34,1.68-.127.663-.706,1.1-1.864,1.049" transform="translate(-240.161 -57.028)"/>
            </g>
          </g>
        </g>
        <path id="Path_5948" data-name="Path 5948" d="M244.227,69.651l-.331,1.728-1.264-.243.328-1.712a6.877,6.877,0,0,1-3.534-2.005l.993-1.425a6.024,6.024,0,0,0,2.86,1.764l.592-3.085c-1.632-.744-3.361-1.652-2.95-3.8.3-1.574,1.707-2.727,4.158-2.5l.335-1.743,1.264.242-.328,1.712a6.737,6.737,0,0,1,2.952,1.542l-.932,1.436a6.5,6.5,0,0,0-2.339-1.312l-.6,3.116c1.633.745,3.4,1.643,2.984,3.787-.3,1.574-1.719,2.709-4.188,2.491m0-6.844.527-2.746c-1.128-.04-1.7.426-1.827,1.105-.142.74.456,1.207,1.3,1.641m2.185,4.114c.145-.756-.466-1.24-1.341-1.68l-.524,2.73c1.159.046,1.738-.386,1.865-1.05" transform="translate(-95.12 -22.501)" fill="#ff725e"/>
        <path id="Path_5949" data-name="Path 5949" d="M222.8,68.764a.658.658,0,0,1-.051-.14c-.033-.106-.074-.242-.125-.409a6.45,6.45,0,0,1-.171-.655c-.056-.257-.133-.548-.179-.878-.027-.165-.055-.336-.084-.515s-.04-.368-.063-.562c-.05-.388-.061-.806-.081-1.245a16.394,16.394,0,0,1,.85-5.628c.149-.413.283-.809.446-1.166.078-.178.146-.355.225-.518l.233-.467c.14-.3.3-.556.43-.786s.252-.421.357-.574l.24-.353a.662.662,0,0,1,.091-.119.767.767,0,0,1-.07.132l-.22.365c-.1.157-.216.35-.338.583s-.277.489-.412.79l-.224.468c-.077.163-.142.339-.218.518-.157.356-.287.75-.432,1.161a16.928,16.928,0,0,0-.845,5.591c.017.436.025.851.07,1.237.019.193.03.381.055.559l.076.513c.04.328.11.62.16.878s.1.478.15.656.076.307.1.414a.661.661,0,0,1,.028.147" transform="translate(-88.213 -21.752)" fill="#fff"/>
        <path id="Path_5950" data-name="Path 5950" d="M242.941,64.189a1.042,1.042,0,0,1-.29-.424,1.942,1.942,0,0,1,.525-2.291,1.044,1.044,0,0,1,.445-.256c.01.019-.165.107-.388.321a2.013,2.013,0,0,0-.5,2.193c.107.289.227.445.21.457" transform="translate(-96.334 -24.32)" fill="#fff"/>
        <path id="Path_5951" data-name="Path 5951" d="M249.307,58.519A2.191,2.191,0,0,1,249.5,57.5a2.192,2.192,0,0,1-.195,1.014" transform="translate(-99.039 -22.846)" fill="#fff"/>
        <path id="Path_5952" data-name="Path 5952" d="M247.623,48.2a2.544,2.544,0,0,1-.394-.092c-.125-.035-.278-.075-.458-.112s-.383-.091-.612-.125-.477-.084-.748-.112-.56-.055-.864-.078a12.932,12.932,0,0,0-3.942.391c-.294.082-.576.154-.832.246s-.5.172-.712.257-.406.17-.575.242-.312.141-.428.2a2.615,2.615,0,0,1-.368.168,2.418,2.418,0,0,1,.345-.21c.113-.066.253-.142.421-.219s.354-.177.572-.261.451-.187.712-.273.54-.173.836-.259a12.3,12.3,0,0,1,3.978-.394c.307.026.6.046.871.09s.523.081.751.128.433.1.612.143.332.091.455.133a2.552,2.552,0,0,1,.38.137" transform="translate(-94.43 -18.889)" fill="#fff"/>
        <path id="Path_5953" data-name="Path 5953" d="M242.213,94.477a1.447,1.447,0,0,1-.3.023c-.2.008-.48,0-.831-.016a11.939,11.939,0,0,1-5.217-1.569c-.3-.177-.543-.33-.7-.446a1.458,1.458,0,0,1-.241-.187,1.465,1.465,0,0,1,.267.146c.166.1.411.244.718.41a13.347,13.347,0,0,0,5.18,1.559c.347.031.63.049.825.054a1.477,1.477,0,0,1,.3.025" transform="translate(-93.329 -36.662)" fill="#fff"/>
        <path id="Path_5954" data-name="Path 5954" d="M241.886,210.474a10.169,10.169,0,1,1-12.516-7.083,10.169,10.169,0,0,1,12.516,7.083" transform="translate(-88.164 -80.656)" fill="#ff725e"/>
        <g id="Group_2700" data-name="Group 2700" transform="translate(133.752 122.736)" opacity="0.1">
          <g id="Group_2699" data-name="Group 2699">
            <g id="Group_2698" data-name="Group 2698" clip-path="url(#clip-path-10)">
              <path id="Path_5955" data-name="Path 5955" d="M229.37,203.638a10.169,10.169,0,0,0-7.083,12.516s6.972-1.6,7.859-4.833-.776-7.683-.776-7.683" transform="translate(-221.916 -203.638)" fill="#fff"/>
            </g>
          </g>
        </g>
        <path id="Path_5956" data-name="Path 5956" d="M240.816,212.547a7.73,7.73,0,1,1-9.514-5.384,7.729,7.729,0,0,1,9.514,5.384" transform="translate(-89.641 -82.19)" fill="#ff725e"/>
        <g id="Group_2703" data-name="Group 2703" transform="translate(135.993 124.69)" opacity="0.2">
          <g id="Group_2702" data-name="Group 2702">
            <g id="Group_2701" data-name="Group 2701" clip-path="url(#clip-path-11)">
              <path id="Path_5957" data-name="Path 5957" d="M240.816,212.547a7.73,7.73,0,1,1-9.514-5.384,7.729,7.729,0,0,1,9.514,5.384" transform="translate(-225.634 -206.881)"/>
            </g>
          </g>
        </g>
        <path id="Path_5958" data-name="Path 5958" d="M241.442,213.016a7.627,7.627,0,1,1-9.387-5.312,7.627,7.627,0,0,1,9.387,5.312" transform="translate(-89.971 -82.407)" fill="#ff725e"/>
        <g id="Group_2706" data-name="Group 2706" transform="translate(136.493 125.018)" opacity="0.2">
          <g id="Group_2705" data-name="Group 2705">
            <g id="Group_2704" data-name="Group 2704" clip-path="url(#clip-path-12)">
              <path id="Path_5959" data-name="Path 5959" d="M241.442,213.016a7.627,7.627,0,1,1-9.387-5.312,7.627,7.627,0,0,1,9.387,5.312" transform="translate(-226.464 -207.425)" fill="#fff"/>
            </g>
          </g>
        </g>
        <path id="Path_5960" data-name="Path 5960" d="M237.178,216.192l-.521-1.88.009,0a3.989,3.989,0,0,1,1.072-.017,3.291,3.291,0,0,1,.55.166l.008-.065.1-.758.023-.174-.433-.259-.141.117a3.662,3.662,0,0,0-1.471-.016l-.286-1.034-.394-.171.072.26-.442.122.292,1.053c-1.414.542-1.874,1.563-1.61,2.513.359,1.3,1.561,1.323,2.665,1.288l.517,1.863a3.712,3.712,0,0,1-2.059-.191l-.159,1.057a4.238,4.238,0,0,0,2.5.14l.216.781-.362.107.432.146.764-.212-.289-1.043c1.421-.555,1.893-1.568,1.629-2.519-.359-1.295-1.577-1.309-2.68-1.273m-.818.016c-.584-.009-1.041-.1-1.166-.55-.113-.41.073-.823.706-1.109Zm.3-1.9Zm1.292,4.658-.457-1.649c.6,0,1.072.1,1.2.561.111.4-.09.8-.741,1.089" transform="translate(-92.939 -84.264)" fill="#ff725e"/>
        <g id="Group_2709" data-name="Group 2709" transform="translate(140.998 127.837)" opacity="0.3">
          <g id="Group_2708" data-name="Group 2708">
            <g id="Group_2707" data-name="Group 2707" clip-path="url(#clip-path-13)">
              <path id="Path_5961" data-name="Path 5961" d="M237.178,216.192l-.521-1.88.009,0a3.989,3.989,0,0,1,1.072-.017,3.291,3.291,0,0,1,.55.166l.008-.065.1-.758.023-.174-.433-.259-.141.117a3.662,3.662,0,0,0-1.471-.016l-.286-1.034-.394-.171.072.26-.442.122.292,1.053c-1.414.542-1.874,1.563-1.61,2.513.359,1.3,1.561,1.323,2.665,1.288l.517,1.863a3.712,3.712,0,0,1-2.059-.191l-.159,1.057a4.238,4.238,0,0,0,2.5.14l.216.781-.362.107.432.146.764-.212-.289-1.043c1.421-.555,1.893-1.568,1.629-2.519-.359-1.295-1.577-1.309-2.68-1.273m-.818.016c-.584-.009-1.041-.1-1.166-.55-.113-.41.073-.823.706-1.109Zm.3-1.9Zm1.292,4.658-.457-1.649c.6,0,1.072.1,1.2.561.111.4-.09.8-.741,1.089" transform="translate(-233.937 -212.101)"/>
            </g>
          </g>
        </g>
        <path id="Path_5962" data-name="Path 5962" d="M237.587,219.818l.289,1.044-.764.212-.287-1.034a4.234,4.234,0,0,1-2.5-.14l.159-1.057a3.712,3.712,0,0,0,2.059.191l-.516-1.863c-1.1.035-2.306.007-2.665-1.288-.263-.95.2-1.971,1.61-2.513l-.291-1.053.764-.212.286,1.034a4.145,4.145,0,0,1,2.049.044l-.121,1.047a4.01,4.01,0,0,0-1.65-.085l.522,1.882c1.1-.035,2.322-.022,2.681,1.274.264.95-.208,1.964-1.629,2.519m-1.87-3.776-.46-1.659c-.633.286-.82.7-.706,1.109.124.447.581.541,1.166.55m2.33,1.672c-.127-.457-.6-.557-1.2-.561l.457,1.649c.652-.291.852-.688.742-1.089" transform="translate(-92.684 -84.265)" fill="#ff725e"/>
        <path id="Path_5963" data-name="Path 5963" d="M225.23,225.885a.407.407,0,0,1-.066-.063l-.181-.191c-.079-.083-.173-.186-.273-.314s-.224-.266-.339-.436l-.187-.261c-.065-.091-.123-.192-.188-.293-.134-.2-.254-.427-.385-.664a10.088,10.088,0,0,1-1.069-3.337c-.031-.269-.064-.524-.072-.764-.006-.121-.016-.236-.017-.348s0-.219,0-.321c0-.2.014-.389.022-.551s.024-.3.04-.415.027-.193.036-.26a.433.433,0,0,1,.017-.09.423.423,0,0,1,0,.092c-.005.068-.013.155-.022.262s-.023.253-.026.414-.019.345-.011.549c0,.1,0,.208,0,.319s.014.226.021.345c.01.239.046.492.079.759a10.433,10.433,0,0,0,1.062,3.315c.128.236.246.463.376.663.064.1.121.2.184.294l.181.262c.112.171.23.312.328.441s.187.236.263.321l.169.2a.442.442,0,0,1,.055.074" transform="translate(-88.377 -86.44)" fill="#fff"/>
        <path id="Path_5964" data-name="Path 5964" d="M234.356,218.168a.646.646,0,0,1-.276-.154,1.2,1.2,0,0,1-.336-1.407.639.639,0,0,1,.176-.264c.011.007-.062.1-.127.283a1.239,1.239,0,0,0,.322,1.347c.138.13.247.183.24.195" transform="translate(-92.823 -85.95)" fill="#fff"/>
        <path id="Path_5965" data-name="Path 5965" d="M236.157,213.469c-.021.005-.075-.127-.122-.3a.712.712,0,0,1-.048-.317c.02-.005.075.127.122.3a.711.711,0,0,1,.048.316" transform="translate(-93.751 -84.564)" fill="#fff"/>
        <path id="Path_5966" data-name="Path 5966" d="M232.63,206.721a1.5,1.5,0,0,1-.242.057c-.078.015-.174.034-.283.064s-.236.054-.372.1-.286.084-.443.143-.324.122-.5.193a7.979,7.979,0,0,0-2.067,1.292c-.14.126-.276.243-.392.364s-.227.23-.322.335-.178.2-.251.291-.134.163-.181.227a1.645,1.645,0,0,1-.157.193,1.482,1.482,0,0,1,.133-.21c.045-.068.1-.147.172-.236s.147-.195.244-.3.2-.227.318-.345.251-.243.391-.371a7.588,7.588,0,0,1,2.087-1.3c.177-.069.344-.138.505-.189s.31-.1.449-.135.266-.063.377-.087.208-.041.288-.052a1.594,1.594,0,0,1,.247-.028" transform="translate(-90.35 -82.127)" fill="#fff"/>
        <path id="Path_5967" data-name="Path 5967" d="M242,234.764a.857.857,0,0,1-.162.1c-.106.058-.264.134-.463.219a7.361,7.361,0,0,1-3.307.56c-.215-.014-.389-.034-.509-.054a.864.864,0,0,1-.184-.037.957.957,0,0,1,.187.008c.119.011.294.022.508.03a8.23,8.23,0,0,0,3.284-.556c.2-.078.36-.145.47-.2a.891.891,0,0,1,.174-.069" transform="translate(-94.306 -93.268)" fill="#fff"/>
        <path id="Path_5968" data-name="Path 5968" d="M400.043,188.814a6.893,6.893,0,1,1-8.484-4.8,6.893,6.893,0,0,1,8.484,4.8" transform="translate(-153.553 -73.005)" fill="#ff725e"/>
        <g id="Group_2712" data-name="Group 2712" transform="translate(232.953 111.008)" opacity="0.1">
          <g id="Group_2711" data-name="Group 2711">
            <g id="Group_2710" data-name="Group 2710" clip-path="url(#clip-path-14)">
              <path id="Path_5969" data-name="Path 5969" d="M391.559,184.18a6.894,6.894,0,0,0-4.8,8.484s4.726-1.085,5.327-3.276-.526-5.208-.526-5.208" transform="translate(-386.505 -184.18)" fill="#fff"/>
            </g>
          </g>
        </g>
        <path id="Path_5970" data-name="Path 5970" d="M399.317,190.22a5.24,5.24,0,1,1-6.45-3.65,5.24,5.24,0,0,1,6.45,3.65" transform="translate(-154.554 -74.045)" fill="#ff725e"/>
        <g id="Group_2715" data-name="Group 2715" transform="translate(234.472 112.333)" opacity="0.2">
          <g id="Group_2714" data-name="Group 2714">
            <g id="Group_2713" data-name="Group 2713" clip-path="url(#clip-path-15)">
              <path id="Path_5971" data-name="Path 5971" d="M399.317,190.22a5.24,5.24,0,1,1-6.45-3.65,5.24,5.24,0,0,1,6.45,3.65" transform="translate(-389.026 -186.378)"/>
            </g>
          </g>
        </g>
        <path id="Path_5972" data-name="Path 5972" d="M399.742,190.537a5.17,5.17,0,1,1-6.364-3.6,5.171,5.171,0,0,1,6.364,3.6" transform="translate(-154.777 -74.192)" fill="#ff725e"/>
        <g id="Group_2718" data-name="Group 2718" transform="translate(234.811 112.555)" opacity="0.2">
          <g id="Group_2717" data-name="Group 2717">
            <g id="Group_2716" data-name="Group 2716" clip-path="url(#clip-path-16)">
              <path id="Path_5973" data-name="Path 5973" d="M399.742,190.537a5.17,5.17,0,1,1-6.364-3.6,5.171,5.171,0,0,1,6.364,3.6" transform="translate(-389.588 -186.747)" fill="#fff"/>
            </g>
          </g>
        </g>
        <path id="Path_5974" data-name="Path 5974" d="M396.851,192.691l-.353-1.275.006,0a2.723,2.723,0,0,1,.726-.011,2.236,2.236,0,0,1,.373.112l.006-.044.069-.514.016-.118-.294-.175-.1.08a2.477,2.477,0,0,0-1-.011l-.195-.7-.267-.115.049.176-.3.083.2.714c-.959.368-1.27,1.059-1.092,1.7.243.878,1.058.9,1.806.873l.35,1.263a2.515,2.515,0,0,1-1.4-.13l-.107.717a2.87,2.87,0,0,0,1.692.1l.147.529-.245.072.293.1.518-.143-.2-.708c.963-.376,1.283-1.063,1.1-1.707-.243-.878-1.069-.887-1.817-.863m-.555.011c-.4-.006-.706-.069-.79-.372-.077-.278.049-.558.479-.752Zm.2-1.287Zm.876,3.158-.31-1.118c.409,0,.727.071.812.38.075.271-.061.541-.5.738" transform="translate(-156.79 -75.451)" fill="#ff725e"/>
        <g id="Group_2721" data-name="Group 2721" transform="translate(237.864 114.466)" opacity="0.3">
          <g id="Group_2720" data-name="Group 2720">
            <g id="Group_2719" data-name="Group 2719" clip-path="url(#clip-path-17)">
              <path id="Path_5975" data-name="Path 5975" d="M396.851,192.691l-.353-1.275.006,0a2.723,2.723,0,0,1,.726-.011,2.236,2.236,0,0,1,.373.112l.006-.044.069-.514.016-.118-.294-.175-.1.08a2.477,2.477,0,0,0-1-.011l-.195-.7-.267-.115.049.176-.3.083.2.714c-.959.368-1.27,1.059-1.092,1.7.243.878,1.058.9,1.806.873l.35,1.263a2.515,2.515,0,0,1-1.4-.13l-.107.717a2.87,2.87,0,0,0,1.692.1l.147.529-.245.072.293.1.518-.143-.2-.708c.963-.376,1.283-1.063,1.1-1.707-.243-.878-1.069-.887-1.817-.863m-.555.011c-.4-.006-.706-.069-.79-.372-.077-.278.049-.558.479-.752Zm.2-1.287Zm.876,3.158-.31-1.118c.409,0,.727.071.812.38.075.271-.061.541-.5.738" transform="translate(-394.654 -189.917)"/>
            </g>
          </g>
        </g>
        <path id="Path_5976" data-name="Path 5976" d="M397.128,195.149l.2.708-.518.143-.195-.7a2.872,2.872,0,0,1-1.693-.1l.108-.717a2.517,2.517,0,0,0,1.4.13l-.35-1.263c-.748.024-1.563,0-1.806-.873-.178-.644.133-1.336,1.092-1.7l-.2-.714.518-.143.194.7a2.81,2.81,0,0,1,1.389.03l-.082.71a2.713,2.713,0,0,0-1.118-.057l.354,1.275c.749-.024,1.574-.014,1.817.864.179.644-.141,1.331-1.1,1.707m-1.267-2.56-.312-1.125c-.429.194-.555.474-.479.752.084.3.395.366.791.372m1.579,1.133c-.086-.309-.4-.377-.812-.38l.31,1.118c.442-.2.578-.467.5-.738" transform="translate(-156.617 -75.452)" fill="#ff725e"/>
        <path id="Path_5977" data-name="Path 5977" d="M388.752,199.261a.267.267,0,0,1-.045-.043l-.122-.13a2.714,2.714,0,0,1-.185-.213c-.069-.086-.151-.181-.23-.3l-.127-.177c-.044-.061-.084-.13-.128-.2-.09-.136-.172-.29-.261-.45a6.844,6.844,0,0,1-.724-2.263c-.021-.182-.044-.355-.049-.518,0-.081-.011-.16-.011-.236v-.218c0-.139.01-.263.016-.374s.016-.2.027-.281.018-.131.025-.177a.383.383,0,0,1,.011-.061.291.291,0,0,1,0,.063c0,.046-.009.1-.015.177s-.016.171-.018.28-.013.234-.008.372c0,.069,0,.142,0,.216s.01.154.014.234c.007.162.032.333.054.514a7.043,7.043,0,0,0,.72,2.247c.087.16.167.314.255.45.043.068.082.137.124.2l.124.178c.076.115.156.211.222.3s.127.16.178.218l.115.136a.3.3,0,0,1,.037.05" transform="translate(-153.697 -76.926)" fill="#fff"/>
        <path id="Path_5978" data-name="Path 5978" d="M394.938,194.03a.433.433,0,0,1-.187-.1.811.811,0,0,1-.228-.954.44.44,0,0,1,.119-.178c.007.005-.042.071-.086.192a.842.842,0,0,0,.218.913c.094.088.168.124.163.132" transform="translate(-156.711 -76.594)" fill="#fff"/>
        <path id="Path_5979" data-name="Path 5979" d="M396.16,190.844c-.014,0-.051-.086-.083-.2a.475.475,0,0,1-.033-.215c.014,0,.051.086.082.2a.472.472,0,0,1,.033.215" transform="translate(-157.34 -75.654)" fill="#fff"/>
        <path id="Path_5980" data-name="Path 5980" d="M393.769,186.27a1.063,1.063,0,0,1-.164.039c-.053.01-.118.023-.192.043s-.16.037-.252.067-.194.057-.3.1-.219.083-.338.131a5.381,5.381,0,0,0-1.4.876c-.095.085-.187.165-.266.246s-.154.157-.218.228-.121.139-.171.2-.09.11-.123.154a1.087,1.087,0,0,1-.106.131,1,1,0,0,1,.09-.142,1.962,1.962,0,0,1,.116-.16c.048-.06.1-.131.166-.2s.134-.153.215-.234.17-.165.265-.251a5.112,5.112,0,0,1,1.414-.884c.12-.048.233-.094.342-.128s.211-.067.3-.092.18-.043.255-.06.141-.028.2-.035a1.086,1.086,0,0,1,.168-.019" transform="translate(-155.035 -74.002)" fill="#fff"/>
        <path id="Path_5981" data-name="Path 5981" d="M400.12,205.28a.618.618,0,0,1-.11.065c-.072.039-.179.09-.313.148a5.023,5.023,0,0,1-1.1.319,4.972,4.972,0,0,1-1.143.06c-.146-.01-.264-.022-.345-.036a.6.6,0,0,1-.125-.025.561.561,0,0,1,.127.005c.081.007.2.015.345.02a5.583,5.583,0,0,0,2.226-.377c.136-.053.245-.1.319-.133a.611.611,0,0,1,.118-.047" transform="translate(-157.716 -81.554)" fill="#fff"/>
      </g>
    </g>
    <rect id="Rectangle_2324" data-name="Rectangle 2324" width="39.694" height="85.471" transform="translate(176.887 192.658)" fill="#ff725e"/>
    <g id="Group_2746" data-name="Group 2746">
      <g id="Group_2745" data-name="Group 2745" clip-path="url(#clip-path)">
        <g id="Group_2726" data-name="Group 2726" transform="translate(204.277 192.658)" opacity="0.3">
          <g id="Group_2725" data-name="Group 2725">
            <g id="Group_2724" data-name="Group 2724" clip-path="url(#clip-path-19)">
              <rect id="Rectangle_2325" data-name="Rectangle 2325" width="12.304" height="85.471"/>
            </g>
          </g>
        </g>
        <path id="Path_5982" data-name="Path 5982" d="M338.816,405.757c-.093,0-.168-18.919-.168-42.251s.075-42.255.168-42.255.168,18.915.168,42.255-.075,42.251-.168,42.251" transform="translate(-134.54 -127.628)" fill="#263238"/>
        <rect id="Rectangle_2327" data-name="Rectangle 2327" width="39.694" height="115.603" transform="translate(128.443 162.526)" fill="#ff725e"/>
        <g id="Group_2729" data-name="Group 2729" transform="translate(155.832 162.526)" opacity="0.3">
          <g id="Group_2728" data-name="Group 2728">
            <g id="Group_2727" data-name="Group 2727" clip-path="url(#clip-path-20)">
              <rect id="Rectangle_2328" data-name="Rectangle 2328" width="12.304" height="115.603"/>
            </g>
          </g>
        </g>
        <path id="Path_5983" data-name="Path 5983" d="M258.439,386.119c-.093,0-.168-25.589-.168-57.146s.075-57.152.168-57.152.168,25.583.168,57.152-.075,57.146-.168,57.146" transform="translate(-102.607 -107.99)" fill="#263238"/>
        <rect id="Rectangle_2330" data-name="Rectangle 2330" width="39.694" height="60.589" transform="translate(225.862 217.54)" fill="#ff725e"/>
        <g id="Group_2732" data-name="Group 2732" transform="translate(253.251 217.54)" opacity="0.3">
          <g id="Group_2731" data-name="Group 2731">
            <g id="Group_2730" data-name="Group 2730" clip-path="url(#clip-path-21)">
              <rect id="Rectangle_2331" data-name="Rectangle 2331" width="12.304" height="60.589" transform="translate(0)"/>
            </g>
          </g>
        </g>
        <path id="Path_5984" data-name="Path 5984" d="M420.072,421.973c-.093,0-.168-13.411-.168-29.951s.075-29.954.168-29.954.168,13.408.168,29.954-.075,29.951-.168,29.951" transform="translate(-166.821 -143.844)" fill="#263238"/>
        <rect id="Rectangle_2333" data-name="Rectangle 2333" width="39.694" height="33.061" transform="translate(273.776 245.068)" fill="#ff725e"/>
        <g id="Group_2735" data-name="Group 2735" transform="translate(301.166 245.068)" opacity="0.3">
          <g id="Group_2734" data-name="Group 2734">
            <g id="Group_2733" data-name="Group 2733" clip-path="url(#clip-path-22)">
              <rect id="Rectangle_2334" data-name="Rectangle 2334" width="12.304" height="33.061" transform="translate(0 0)"/>
            </g>
          </g>
        </g>
        <path id="Path_5985" data-name="Path 5985" d="M499.57,439.914c-.093,0-.168-7.318-.168-16.343s.075-16.344.168-16.344.168,7.316.168,16.344-.075,16.343-.168,16.343" transform="translate(-198.405 -161.784)" fill="#263238"/>
        <rect id="Rectangle_2336" data-name="Rectangle 2336" width="39.694" height="21.621" transform="translate(322.221 256.508)" fill="#ff725e"/>
        <g id="Group_2738" data-name="Group 2738" transform="translate(349.609 256.508)" opacity="0.3">
          <g id="Group_2737" data-name="Group 2737">
            <g id="Group_2736" data-name="Group 2736" clip-path="url(#clip-path-23)">
              <rect id="Rectangle_2337" data-name="Rectangle 2337" width="12.304" height="21.621" transform="translate(0.001 0)"/>
            </g>
          </g>
        </g>
        <path id="Path_5986" data-name="Path 5986" d="M579.947,447.369c-.093,0-.168-4.786-.168-10.688s.075-10.689.168-10.689.168,4.785.168,10.689-.075,10.688-.168,10.688" transform="translate(-230.337 -169.24)" fill="#263238"/>
        <rect id="Rectangle_2339" data-name="Rectangle 2339" width="39.694" height="153.585" transform="translate(79.999 124.522)" fill="#ff725e"/>
        <g id="Group_2741" data-name="Group 2741" transform="translate(107.388 124.522)" opacity="0.3">
          <g id="Group_2740" data-name="Group 2740">
            <g id="Group_2739" data-name="Group 2739" clip-path="url(#clip-path-24)">
              <rect id="Rectangle_2340" data-name="Rectangle 2340" width="12.304" height="153.585" transform="translate(0.001)"/>
            </g>
          </g>
        </g>
        <path id="Path_5987" data-name="Path 5987" d="M178.062,361.955c-.093,0-.168-34.135-.168-76.234s.075-76.241.168-76.241.168,34.128.168,76.241-.075,76.234-.168,76.234" transform="translate(-70.674 -83.223)" fill="#263238"/>
        <rect id="Rectangle_2342" data-name="Rectangle 2342" width="39.694" height="185.382" transform="translate(31.555 93.35)" fill="#ff725e"/>
        <g id="Group_2744" data-name="Group 2744" transform="translate(58.944 93.35)" opacity="0.3">
          <g id="Group_2743" data-name="Group 2743">
            <g id="Group_2742" data-name="Group 2742" clip-path="url(#clip-path-25)">
              <rect id="Rectangle_2343" data-name="Rectangle 2343" width="12.304" height="185.382" transform="translate(0)"/>
            </g>
          </g>
        </g>
        <path id="Path_5988" data-name="Path 5988" d="M97.686,341.644c-.093,0-.168-41.034-.168-91.64,0-50.624.075-91.649.168-91.649s.168,41.025.168,91.649c0,50.606-.075,91.64-.168,91.64" transform="translate(-38.742 -62.912)" fill="#263238"/>
      </g>
    </g>
    <g id="Group_2754" data-name="Group 2754">
      <g id="Group_2753" data-name="Group 2753" clip-path="url(#clip-path)">
        <path id="Path_5989" data-name="Path 5989" d="M89.751,76.3a25.23,25.23,0,1,1-25.23-25.229A25.23,25.23,0,0,1,89.751,76.3" transform="translate(-15.61 -20.289)" fill="#ff725e"/>
        <g id="Group_2749" data-name="Group 2749" transform="translate(23.681 30.779)" opacity="0.3">
          <g id="Group_2748" data-name="Group 2748">
            <g id="Group_2747" data-name="Group 2747" clip-path="url(#clip-path-27)">
              <path id="Path_5990" data-name="Path 5990" d="M89.751,76.3a25.23,25.23,0,1,1-25.23-25.229A25.23,25.23,0,0,1,89.751,76.3" transform="translate(-39.291 -51.068)"/>
            </g>
          </g>
        </g>
        <path id="Path_5991" data-name="Path 5991" d="M89.751,71.675a25.23,25.23,0,1,1-25.23-25.23,25.23,25.23,0,0,1,25.23,25.23" transform="translate(-15.61 -18.452)" fill="#ff725e"/>
        <path id="Path_5992" data-name="Path 5992" d="M86.911,77.166a16.9,16.9,0,1,1-16.9-16.9,16.9,16.9,0,0,1,16.9,16.9" transform="translate(-21.101 -23.943)" fill="#fff"/>
        <path id="Path_5993" data-name="Path 5993" d="M83.97,82.854a8.27,8.27,0,1,1-8.27-8.27,8.27,8.27,0,0,1,8.27,8.27" transform="translate(-26.789 -29.631)" fill="#ff725e"/>
        <path id="Path_5994" data-name="Path 5994" d="M114.354,45.448l-.685-5.383,5.479-5.864.394,5.809Z" transform="translate(-45.159 -13.588)" fill="#455a64"/>
        <path id="Path_5995" data-name="Path 5995" d="M126.982,45.457,121.423,45l-5.572,5.36,5.573.6Z" transform="translate(-46.026 -17.879)" fill="#455a64"/>
        <g id="Group_2752" data-name="Group 2752" transform="translate(50.016 35.428)" opacity="0.3">
          <g id="Group_2751" data-name="Group 2751">
            <g id="Group_2750" data-name="Group 2750" clip-path="url(#clip-path-28)">
              <path id="Path_5996" data-name="Path 5996" d="M82.985,76.454l19.292-14.728a23.5,23.5,0,0,0-2.414-2.946L82.985,75.143Z" transform="translate(-82.985 -58.78)"/>
            </g>
          </g>
        </g>
        <path id="Path_5997" data-name="Path 5997" d="M106.815,41.226l-8.85,8.968L83.924,64.421,80.7,67.691c-1.022,1.036.575,2.636,1.6,1.6l8.85-8.968L105.185,46.1l3.228-3.27c1.022-1.037-.574-2.636-1.6-1.6" transform="translate(-31.929 -16.245)" fill="#263238"/>
        <path id="Path_5998" data-name="Path 5998" d="M81.048,21.565c-.087,0-.157-4.828-.157-10.782S80.961,0,81.048,0s.157,4.827.157,10.783-.07,10.782-.157,10.782" transform="translate(-32.137)" fill="#263238"/>
        <path id="Path_5999" data-name="Path 5999" d="M102.939,17.111c.069.052-1.654,2.473-3.851,5.406s-4.032,5.271-4.1,5.218,1.654-2.472,3.851-5.406,4.032-5.27,4.1-5.218" transform="translate(-37.736 -6.798)" fill="#263238"/>
        <path id="Path_6000" data-name="Path 6000" d="M53.794,16.286c.076-.042,1.572,2.526,3.342,5.734s3.143,5.845,3.067,5.887-1.572-2.525-3.342-5.735-3.143-5.845-3.067-5.886" transform="translate(-21.37 -6.47)" fill="#263238"/>
      </g>
    </g>
    <g id="Group_2756" data-name="Group 2756">
      <g id="Group_2755" data-name="Group 2755" clip-path="url(#clip-path)">
        <path id="Path_6001" data-name="Path 6001" d="M500.589,108.282l4.814-.562a15.479,15.479,0,1,0-3.12-4.584l-.005-.007Z" transform="translate(-198.876 -32.344)" fill="#fff"/>
        <path id="Path_6002" data-name="Path 6002" d="M500.589,108.19s.027-.1.094-.322l.3-.979,1.224-3.873.038-.121.082.1.005.007-.118.072A15.456,15.456,0,0,1,500.9,95.5a15.177,15.177,0,0,1,1.2-4.828,15.489,15.489,0,0,1,8.134-8.2,15.578,15.578,0,0,1,21.636,12.276,15.871,15.871,0,0,1-.73,7.144,15.332,15.332,0,0,1-3.563,5.744,15.586,15.586,0,0,1-15.694,4.019,15.392,15.392,0,0,1-6.523-3.982l.055.019-3.61.38-.913.092c-.2.02-.3.025-.3.025s.115-.02.325-.048l.928-.123,3.553-.456.032,0,.023.024a15.382,15.382,0,0,0,21.919-.143,15.078,15.078,0,0,0,3.482-5.644,15.589,15.589,0,0,0,.706-7.005,15.309,15.309,0,0,0-14.824-13.3,15.316,15.316,0,0,0-14.418,9.28,15.041,15.041,0,0,0-1.207,4.751,15.456,15.456,0,0,0,1.238,7.5l.2.466-.32-.394-.005-.007.119-.022c-.56,1.651-.993,2.923-1.29,3.8l-.34.989c-.078.224-.124.344-.124.344" transform="translate(-198.876 -32.252)" fill="#263238"/>
        <path id="Path_6003" data-name="Path 6003" d="M514.216,103.93l1.9-2.038,3.915,3.249,7.215-7.431,1.9,1.908-9.264,9.333Z" transform="translate(-204.29 -38.818)" fill="#ff725e"/>
      </g>
    </g>
    <g id="Group_2761" data-name="Group 2761">
      <g id="Group_2760" data-name="Group 2760" clip-path="url(#clip-path)">
        <path id="Path_6004" data-name="Path 6004" d="M375.49,139.722a18.488,18.488,0,0,0-2.927-2.586,6.973,6.973,0,0,0-1.756-.669s-8.961-2.472-10.845-2.639-1.693,1.373.058,1.663a38.817,38.817,0,0,1,5.472,1.8,1.017,1.017,0,0,0-.822.929.863.863,0,0,0,.5.968,1.438,1.438,0,0,0-.062,2.114s-.652.529-.445,1.125a5.087,5.087,0,0,0,1.13,1.434s3.831,2.423,4.657,2.49,1.783.248,1.783.248l1.348.975L377.2,141.9a16.877,16.877,0,0,0-1.708-2.175" transform="translate(-142.476 -53.163)" fill="#ffc09d"/>
        <path id="Path_6005" data-name="Path 6005" d="M370.009,139.512a3.2,3.2,0,0,0,.773.209,3.246,3.246,0,0,0,.8.11,3.208,3.208,0,0,0-.773-.209,3.247,3.247,0,0,0-.8-.11" transform="translate(-146.999 -55.423)" fill="#ff9b6c"/>
        <path id="Path_6006" data-name="Path 6006" d="M369.387,142.7a4.383,4.383,0,0,0,.752.248,4.432,4.432,0,0,0,.768.206,2.4,2.4,0,0,0-.732-.3,2.533,2.533,0,0,0-.788-.152" transform="translate(-146.752 -56.689)" fill="#ff9b6c"/>
        <path id="Path_6007" data-name="Path 6007" d="M369.026,145.715a5.711,5.711,0,0,0,.81.352,5.944,5.944,0,0,0,.825.324,2.765,2.765,0,0,0-.774-.414,3.031,3.031,0,0,0-.86-.262" transform="translate(-146.608 -57.889)" fill="#ff9b6c"/>
        <path id="Path_6008" data-name="Path 6008" d="M485.07,278.33s-1.594-14.639-5.022-16.267-8.179-2.7-9.475-.5a25.952,25.952,0,0,0-3.162,8.995,55.6,55.6,0,0,0-.221,8.855l3.906-.436s-.192-14.589,1-16.746,7.2-.424,7.862,2.174,2.1,14.258,2.1,14.258Z" transform="translate(-185.573 -103.422)" fill="#455a64"/>
        <path id="Path_6009" data-name="Path 6009" d="M490.768,305.955c-.183-6.04-.761-19.351-1.019-25.206a2.973,2.973,0,0,0-2.988-2.842l-35.907.215a2.974,2.974,0,0,0-2.954,2.889l-.7,24.8a2.973,2.973,0,0,0,2.96,3.058l37.626.152a2.973,2.973,0,0,0,2.984-3.064" transform="translate(-177.664 -110.408)" fill="#455a64"/>
        <path id="Path_6010" data-name="Path 6010" d="M452.5,292.824s-.005.087-.007.266,0,.456,0,.8c0,.72.005,1.761.009,3.1.016,2.716.04,6.627.069,11.455q0,.454.007.919a1.769,1.769,0,0,0,.21.951,1.623,1.623,0,0,0,.74.678,2.119,2.119,0,0,0,1,.147l4.106,0,9.059-.016,10.01-.023,5.295-.014,2.708-.008.683,0a3.073,3.073,0,0,0,.712-.045,1.653,1.653,0,0,0,1.277-1.533c.007-.215-.005-.4-.007-.6q-.013-.59-.025-1.177-.024-1.173-.049-2.332-.05-2.317-.1-4.569c-.065-3-.128-5.9-.189-8.672l0-.131-.131.008c-10.316.629-19.166.8-25.429.828-3.132.014-5.618,0-7.321-.015l-1.962-.011h-.5a1.267,1.267,0,0,0-.163,0s.063.006.178.011l.506.02,1.938.058c1.7.039,4.19.08,7.322.087,6.266.017,15.121-.121,25.445-.732l-.134-.124c.057,2.771.116,5.673.177,8.673q.047,2.249.1,4.569.024,1.158.049,2.331.012.587.025,1.177a2.271,2.271,0,0,1-.121,1.1,1.387,1.387,0,0,1-.941.763,2.871,2.871,0,0,1-.652.038l-.683,0-2.708.009-5.295.019-10.01.039-9.059.041-4.106.021a1.921,1.921,0,0,1-.916-.125,1.431,1.431,0,0,1-.651-.591,1.569,1.569,0,0,1-.189-.853q-.006-.461-.012-.912c-.072-4.806-.131-8.7-.172-11.4-.024-1.346-.043-2.395-.056-3.119q-.012-.525-.019-.817c-.005-.185-.013-.285-.013-.285" transform="translate(-179.767 -116.011)" fill="#263238"/>
        <path id="Path_6011" data-name="Path 6011" d="M467.447,311c0-.018-.221,0-.628-.086a3.162,3.162,0,0,1-1.555-.861,3.266,3.266,0,0,1-.875-2.61c0-1.129-.01-2.411-.015-3.827q-.005-1.064-.011-2.225a3.158,3.158,0,0,1,.639-2.2,2.969,2.969,0,0,1,2.133-1.133c.872-.025,1.8-.017,2.731-.029l12.2-.1a2.978,2.978,0,0,1,2.561,1.426,2.913,2.913,0,0,1,.429,1.42q.01.776.02,1.539.016,1.53.031,3,.008.736.016,1.456a12.229,12.229,0,0,1-.022,1.4,2.984,2.984,0,0,1-2.578,2.545c-.406.043-.845.024-1.257.036l-4.638.058-6.715.1-1.826.042-.475.018a.717.717,0,0,0-.161.015.728.728,0,0,0,.161.012l.475.009,1.826.009,6.716-.019,4.638-.026c.421-.01.831.013,1.283-.03a3.22,3.22,0,0,0,2.8-2.739,12.263,12.263,0,0,0,.029-1.44q-.005-.72-.011-1.456-.012-1.472-.024-3-.009-.768-.018-1.547a3.185,3.185,0,0,0-.466-1.549,3.245,3.245,0,0,0-2.792-1.556l-12.2.122c-.94.015-1.844.01-2.746.041a3.194,3.194,0,0,0-2.292,1.231,3.373,3.373,0,0,0-.67,2.334c.01.773.019,1.516.029,2.225.02,1.415.039,2.7.054,3.827,0,.281.005.553.032.821a3.22,3.22,0,0,0,.189.746,3.119,3.119,0,0,0,2.349,1.955,2.37,2.37,0,0,0,.638.033" transform="translate(-184.398 -118.259)" fill="#263238"/>
        <g id="Group_2759" data-name="Group 2759" transform="translate(274.612 194.892)" opacity="0.3">
          <g id="Group_2758" data-name="Group 2758">
            <g id="Group_2757" data-name="Group 2757" clip-path="url(#clip-path-31)">
              <path id="Path_6012" data-name="Path 6012" d="M488.5,323.356a57.368,57.368,0,0,1-32.876.077Z" transform="translate(-455.624 -323.356)"/>
            </g>
          </g>
        </g>
        <path id="Path_6013" data-name="Path 6013" d="M475.5,302.866l4.463-.041a1.09,1.09,0,0,0,1.079-1.1l0-.225a1.09,1.09,0,0,0-1.1-1.079l-4.463.041a1.09,1.09,0,0,0-1.08,1.1l0,.225a1.09,1.09,0,0,0,1.1,1.08" transform="translate(-188.47 -119.352)" fill="#e0e0e0"/>
        <path id="Path_6014" data-name="Path 6014" d="M474.869,253.113a10.314,10.314,0,0,0-1.634,1.82,28.575,28.575,0,0,0-1.172,3.974s.6.54,1.667-1.164a15.732,15.732,0,0,0,1.383-2.56Z" transform="translate(-187.543 -100.558)" fill="#ffc09d"/>
        <path id="Path_6015" data-name="Path 6015" d="M480.93,242.473l-1.424,2.513-3.928,3.968-1.477,5.888a2.6,2.6,0,0,0,.2,1.853.92.92,0,0,0,.4.438c.441.184,1.683-.453,1.683-.453s.906,1.126,1.874.461c0,0,1.4.719,2.171.022,0,0,.885.7,1.545.265a22.45,22.45,0,0,0,2.546-3.188l2.528-9.073Z" transform="translate(-188.319 -96.331)" fill="#ffc09d"/>
        <path id="Path_6016" data-name="Path 6016" d="M493,160.115a6.41,6.41,0,0,1,2.631,4.923c.1,2.474,1.956,19.24,1.794,23.751s-7.844,25.861-7.844,25.861L481.1,212.1l7.334-23.873-.726-14.985Z" transform="translate(-191.132 -63.611)" fill="#ebebeb"/>
        <path id="Path_6017" data-name="Path 6017" d="M466.594,97.647a2.339,2.339,0,0,0-2.381-1.26,3.211,3.211,0,0,0-3.928-.061,2.913,2.913,0,0,0-2.795-.149,2.868,2.868,0,0,0-1.565,2.3,2.443,2.443,0,0,0-2.519,1.154,2.4,2.4,0,0,0,.31,2.735,2.259,2.259,0,0,0,.805,4.426l11.555-6.518a2.3,2.3,0,0,0,.518-2.627" transform="translate(-179.6 -38.014)" fill="#263238"/>
        <path id="Path_6018" data-name="Path 6018" d="M453.691,121.235c.057-2.485.592-7.593,1.131-12.21a9.645,9.645,0,0,1,9.943-8.48l.5.017c5.385.5,7.966,5.313,7.315,10.637l-1.518,16.787-10.419,9.4-2.271-6.641.362-3.382s-5.159-.979-5.043-6.124" transform="translate(-180.243 -39.942)" fill="#ffc09d"/>
        <path id="Path_6019" data-name="Path 6019" d="M461.973,143.879a12.673,12.673,0,0,0,6.865-1.738s-1.728,3.646-6.887,3Z" transform="translate(-183.526 -56.47)" fill="#ff9b6c"/>
        <path id="Path_6020" data-name="Path 6020" d="M457.8,121.614a.737.737,0,0,0,.688.765.708.708,0,0,0,.787-.636.738.738,0,0,0-.688-.766.708.708,0,0,0-.787.636" transform="translate(-181.877 -48.061)" fill="#263238"/>
        <path id="Path_6021" data-name="Path 6021" d="M457.265,118.38c.089.1.664-.294,1.461-.264s1.367.446,1.457.352c.044-.042-.043-.218-.292-.41a2.043,2.043,0,0,0-1.162-.4,1.959,1.959,0,0,0-1.167.33c-.251.177-.341.348-.3.392" transform="translate(-181.66 -46.743)" fill="#263238"/>
        <path id="Path_6022" data-name="Path 6022" d="M469.737,122.256a.737.737,0,0,0,.688.765.707.707,0,0,0,.787-.636.738.738,0,0,0-.688-.766.707.707,0,0,0-.787.636" transform="translate(-186.618 -48.316)" fill="#263238"/>
        <path id="Path_6023" data-name="Path 6023" d="M470.255,119.074c.089.1.665-.294,1.461-.263s1.368.445,1.457.351c.044-.041-.043-.217-.292-.41a2.043,2.043,0,0,0-1.162-.4,1.961,1.961,0,0,0-1.167.329c-.251.178-.341.348-.3.393" transform="translate(-186.821 -47.019)" fill="#263238"/>
        <path id="Path_6024" data-name="Path 6024" d="M463.8,124.778a5.283,5.283,0,0,0-1.286-.277c-.2-.028-.394-.074-.424-.213a1.02,1.02,0,0,1,.157-.594q.312-.722.656-1.516a26.405,26.405,0,0,0,1.493-3.973,26.3,26.3,0,0,0-1.812,3.845q-.331.8-.631,1.526a1.16,1.16,0,0,0-.133.788.509.509,0,0,0,.324.307,1.406,1.406,0,0,0,.344.06,5.271,5.271,0,0,0,1.312.047" transform="translate(-183.46 -46.961)" fill="#263238"/>
        <path id="Path_6025" data-name="Path 6025" d="M467.258,130.152c-.13-.012-.161.846-.923,1.429s-1.68.457-1.691.577c-.014.054.2.174.588.2a2.172,2.172,0,0,0,1.41-.433,1.861,1.861,0,0,0,.718-1.2c.045-.358-.043-.574-.1-.571" transform="translate(-184.596 -51.707)" fill="#263238"/>
        <path id="Path_6026" data-name="Path 6026" d="M470.1,114.043c.071.218.87.143,1.8.287.934.125,1.679.423,1.809.234.058-.09-.066-.3-.363-.516a3.193,3.193,0,0,0-2.751-.4c-.348.125-.527.288-.5.391" transform="translate(-186.762 -45.092)" fill="#263238"/>
        <path id="Path_6027" data-name="Path 6027" d="M457.88,114.57c.134.184.69.017,1.35.031.661-.008,1.215.163,1.35-.02.06-.089-.022-.272-.26-.45a1.969,1.969,0,0,0-2.176-.008c-.24.177-.323.359-.264.448" transform="translate(-181.901 -45.21)" fill="#263238"/>
        <path id="Path_6028" data-name="Path 6028" d="M456.533,106.256s1.481-3.174,3.074-3.871c1.928-.844,2.672,1.248,4.5.809s3.665-1.249,5.463.2c1.968,1.586.984,2.617,1.028,4.9.181,9.27,1.793,11.945,2.431,7.6.07-.476,1.419-.809,1.688-2.82.349-2.607.562-5.779.039-7.656a7.333,7.333,0,0,0-2.874-3.941c-2.481-1.97-5.977-2.131-8.361-1.976s-7.058,2.707-6.984,6.748" transform="translate(-181.373 -39.515)" fill="#263238"/>
        <path id="Path_6029" data-name="Path 6029" d="M483.167,125.624a1.4,1.4,0,0,1,1.567-1.293c.964.125,2.022.706,1.888,2.686-.237,3.513-3.744,2.552-3.743,2.451,0-.069.176-2.376.288-3.845" transform="translate(-191.84 -49.39)" fill="#ffc09d"/>
        <path id="Path_6030" data-name="Path 6030" d="M484.3,128.952c.016-.01.059.047.16.1a.62.62,0,0,0,.46.04,1.516,1.516,0,0,0,.8-1.311,2.009,2.009,0,0,0-.113-.887.711.711,0,0,0-.433-.5.316.316,0,0,0-.375.143c-.054.095-.036.166-.055.171s-.072-.064-.034-.207a.4.4,0,0,1,.154-.211.468.468,0,0,1,.347-.067.867.867,0,0,1,.608.587,2.068,2.068,0,0,1,.148.993,1.593,1.593,0,0,1-1,1.457.669.669,0,0,1-.558-.13c-.1-.094-.117-.174-.1-.18" transform="translate(-192.405 -50.143)" fill="#ff9b6c"/>
        <path id="Path_6031" data-name="Path 6031" d="M474.559,108.142a3.385,3.385,0,0,1-1.526.636,1.157,1.157,0,0,1-1.255-.851c-.033-.247.037-.528-.119-.723-.186-.233-.545-.174-.844-.153a2.262,2.262,0,0,1-2.292-1.691.957.957,0,0,1-1.279.075,5.08,5.08,0,0,1-.929-1.058,1.462,1.462,0,0,0-1.2-.646,3.559,3.559,0,0,1-.777.142c-.464-.057-.672-.606-.727-1.067s-.09-1-.476-1.26a1.873,1.873,0,0,0-1.267-.079c-.431.048-.981-.071-1.076-.491a.831.831,0,0,1,.181-.632,2.31,2.31,0,0,1,2.741-.768,3.124,3.124,0,0,1,5.74-.4,3.172,3.172,0,0,1,5.009,1.317,2.358,2.358,0,0,1,2.364.887,2.312,2.312,0,0,1,.1,2.5,2.157,2.157,0,0,1,1.136,1.759,1.243,1.243,0,0,1-1.454,1.213,1.3,1.3,0,0,1-.559,1.635,1.322,1.322,0,0,1-1.679-.457" transform="translate(-183.062 -38.723)" fill="#263238"/>
        <path id="Path_6032" data-name="Path 6032" d="M484.04,113.046a.839.839,0,0,1-.245.668,1.143,1.143,0,0,1-.725.4,1.236,1.236,0,0,1-1-.326l.151-.017a3.526,3.526,0,0,1-.739.853,2.038,2.038,0,0,1-.66.376,1.585,1.585,0,0,1-1.719-.576,2.02,2.02,0,0,1-.262-.742.675.675,0,0,1-.017-.285c.015,0,.042.1.095.268a2.357,2.357,0,0,0,.3.68,1.455,1.455,0,0,0,2.129.123,3.544,3.544,0,0,0,.7-.8l.066-.1.085.084a1.082,1.082,0,0,0,.846.3,1.048,1.048,0,0,0,.653-.313,1.709,1.709,0,0,0,.335-.588" transform="translate(-190.226 -44.911)" fill="#455a64"/>
        <path id="Path_6033" data-name="Path 6033" d="M470.315,130.3c-.058,0-.066-.373-.357-.689s-.65-.383-.644-.44c0-.025.1-.051.261-.018a1.028,1.028,0,0,1,.537.324,1.011,1.011,0,0,1,.255.569c.013.162-.027.257-.051.254" transform="translate(-186.451 -51.306)" fill="#ff9b6c"/>
        <path id="Path_6034" data-name="Path 6034" d="M471.073,129.189c-.051.028-.175-.1-.36-.188s-.36-.12-.366-.177.214-.128.459,0,.319.347.268.369" transform="translate(-186.861 -51.152)" fill="#ff9b6c"/>
        <path id="Path_6035" data-name="Path 6035" d="M460.127,96.648c-.016-.034-.383.2-.67.778a2.983,2.983,0,0,0-.316,1.084,1.974,1.974,0,0,0,.366,1.349,2.883,2.883,0,0,0,1.106.851,8.034,8.034,0,0,0,1.047.394,4.609,4.609,0,0,0,.992.253,3.811,3.811,0,0,0-.932-.419c-.291-.115-.639-.249-1-.433a2.819,2.819,0,0,1-1.006-.791,1.809,1.809,0,0,1-.338-1.187,3.127,3.127,0,0,1,.247-1.026,4.211,4.211,0,0,1,.508-.852" transform="translate(-182.405 -38.395)" fill="#e0e0e0"/>
        <path id="Path_6036" data-name="Path 6036" d="M457.034,100.486c-.029,0-.051.223.044.566a2.583,2.583,0,0,0,.735,1.162,2.611,2.611,0,0,0,1.227.636c.353.068.573.028.573,0s-.211-.065-.526-.17a3.131,3.131,0,0,1-1.1-.649,3.1,3.1,0,0,1-.738-1.038c-.131-.3-.172-.512-.212-.507" transform="translate(-181.562 -39.921)" fill="#e0e0e0"/>
        <path id="Path_6037" data-name="Path 6037" d="M447.515,151.235l-5.1,40.747c-.248,1.982,1.547,5.585,3.482,6.074l25.784,2.809a2.659,2.659,0,0,0,3.017-2.507c.646-5.528,1.087-17.141,1.884-24.706.879-8.34,2.479-18.944.541-20.45a69.364,69.364,0,0,0-9.874-6.039l-.432-3.787s-11.5,1.326-13.456,3.024l-.912,3.661Z" transform="translate(-175.756 -56.961)" fill="#ebebeb"/>
        <path id="Path_6038" data-name="Path 6038" d="M427.382,150.758,403.727,153l-18.395-9.012-3.891,8.08,2.815,1.465c4.535,2.894,12.806,8.967,16.25,10.488,4.829,2.132,29.081-.619,29.081-.619Z" transform="translate(-151.541 -57.202)" fill="#ebebeb"/>
        <path id="Path_6039" data-name="Path 6039" d="M435.768,168.968a12.5,12.5,0,0,0,1.559-.224,7.67,7.67,0,0,0,3.667-2.073,8.842,8.842,0,0,0,2.472-5.659,7.187,7.187,0,0,0-.758-3.583,2.736,2.736,0,0,0-1.262-1.363,4.194,4.194,0,0,0-1.95-.239c-5.541.408-10.561.9-14.192,1.211l-4.3.37-1.17.09a2.054,2.054,0,0,1-.41.013,1.985,1.985,0,0,1,.4-.076l1.165-.149,4.293-.47c3.63-.365,8.636-.894,14.2-1.3a4.465,4.465,0,0,1,2.1.267,3.037,3.037,0,0,1,1.406,1.508,7.452,7.452,0,0,1,.774,3.738,8.993,8.993,0,0,1-2.6,5.8,7.59,7.59,0,0,1-3.8,2.035,6.491,6.491,0,0,1-1.173.127,1.807,1.807,0,0,1-.411-.023" transform="translate(-166.629 -61.776)" fill="#263238"/>
        <path id="Path_6040" data-name="Path 6040" d="M473.88,149.651a21.872,21.872,0,0,1-2.167.433c-1.339.254-3.172.676-5.2,1.169s-3.878.883-5.232,1.082c-.677.1-1.227.168-1.609.2a2.213,2.213,0,0,1-.6.018,21.838,21.838,0,0,1,2.167-.433c1.339-.255,3.172-.677,5.2-1.169s3.877-.883,5.232-1.082c.677-.1,1.227-.168,1.609-.2a2.194,2.194,0,0,1,.6-.017" transform="translate(-182.385 -59.449)" fill="#263238"/>
        <path id="Path_6041" data-name="Path 6041" d="M497.921,166.694a2.4,2.4,0,0,1-.023.45c-.032.323-.075.749-.128,1.281-.118,1.146-.282,2.747-.484,4.709-.393,3.978-.873,9.479-1.207,15.568-.169,3.046-.289,5.948-.37,8.589-.034,1.319-.067,2.574-.1,3.751s-.027,2.269-.093,3.274a12.6,12.6,0,0,1-.441,2.678,5.985,5.985,0,0,1-.884,1.851,4.008,4.008,0,0,1-.918.915,2.458,2.458,0,0,1-.39.227,5.2,5.2,0,0,0,1.208-1.213,6.058,6.058,0,0,0,.815-1.828,12.736,12.736,0,0,0,.388-2.643c.052-.992.039-2.088.055-3.264s.032-2.433.068-3.754c.066-2.644.177-5.55.346-8.6.333-6.1.85-11.6,1.3-15.574.225-1.988.43-3.593.583-4.7.077-.529.139-.953.186-1.274a2.44,2.44,0,0,1,.086-.442" transform="translate(-195.815 -66.225)" fill="#263238"/>
        <path id="Path_6042" data-name="Path 6042" d="M409,331.542l4.618,10.3s-12.156,4.758-12.253,7.02l23.655-.428-.029-1.976-5.217-16.985Z" transform="translate(-159.457 -130.893)" fill="#455a64"/>
        <path id="Path_6043" data-name="Path 6043" d="M432.445,346.9a.967.967,0,0,1,.688,1.09.929.929,0,0,1-1.075.691,1.019,1.019,0,0,1-.722-1.158.963.963,0,0,1,1.2-.6" transform="translate(-171.351 -137.802)" fill="#e0e0e0"/>
        <path id="Path_6044" data-name="Path 6044" d="M425.015,359.626l-.029-1.976-22.713,1.187s-1.045.477-.912,1.217Z" transform="translate(-159.45 -142.089)" fill="#263238"/>
        <path id="Path_6045" data-name="Path 6045" d="M421.057,349.727c.006.116.585.157,1.159.518.585.346.887.841.993.794.106-.025-.079-.712-.783-1.137s-1.4-.28-1.369-.175" transform="translate(-167.279 -138.896)" fill="#263238"/>
        <path id="Path_6046" data-name="Path 6046" d="M416.971,351.547c-.025.112.479.3.881.781s.524,1,.639.989c.108.016.177-.662-.334-1.251s-1.185-.63-1.186-.52" transform="translate(-165.656 -139.644)" fill="#263238"/>
        <path id="Path_6047" data-name="Path 6047" d="M414.09,355.245c.105.023.256-.558-.052-1.184s-.853-.869-.9-.772c-.064.1.294.429.538.948s.3,1,.414,1.008" transform="translate(-164.13 -140.348)" fill="#263238"/>
        <path id="Path_6048" data-name="Path 6048" d="M419.625,345.061c.05.1.577-.065,1.231-.032s1.166.229,1.224.129c.066-.085-.438-.5-1.208-.531s-1.305.344-1.247.434" transform="translate(-166.709 -136.914)" fill="#263238"/>
        <path id="Path_6049" data-name="Path 6049" d="M476.231,374.658l.527,19.634-10.325-.028-.553-19.159Z" transform="translate(-185.086 -148.846)" fill="#455a64"/>
        <path id="Path_6050" data-name="Path 6050" d="M475.2,393.256c-.086,0-.216-4.185-.29-9.349s-.064-9.353.022-9.354.216,4.184.29,9.35.064,9.352-.022,9.354" transform="translate(-188.654 -148.804)" fill="#263238"/>
        <path id="Path_6051" data-name="Path 6051" d="M466.5,394.921a1.372,1.372,0,0,1,.254-.424,7.164,7.164,0,0,1,.9-1,7,7,0,0,1,1.641-1.156,5.5,5.5,0,0,1,6.456,1.046,4.728,4.728,0,0,1,.781,1.1,1.323,1.323,0,0,1,.175.463,10.747,10.747,0,0,0-1.113-1.413,5.5,5.5,0,0,0-3.9-1.5,6.312,6.312,0,0,0-3.889,1.62c-.847.723-1.255,1.3-1.3,1.263" transform="translate(-185.333 -155.626)" fill="#263238"/>
        <path id="Path_6052" data-name="Path 6052" d="M477.039,405.7l-10.278-.047-.077-2.321,10.365.048Z" transform="translate(-185.407 -160.239)" fill="#263238"/>
        <path id="Path_6053" data-name="Path 6053" d="M448,235.435l-21.406-1.877-.358,2.35c-5.452,4.37-22.452,14.814-31.227,23.368,0,0-3.241,4.52-1.949,8.5l13.72,31.106,13.969-3.222-8.524-26.4,26.216-12.242c5.1-1.886,9.689-8.32,10.774-12.007.928-3.154-1.076-5.534-1.214-9.572" transform="translate(-156.034 -92.789)" fill="#263238"/>
        <path id="Path_6054" data-name="Path 6054" d="M454.584,271.835l5.663,66.075,14.294-.078s.46-20.172.176-33.773,1.369-41.24,1.369-41.24Z" transform="translate(-180.599 -104.413)" fill="#263238"/>
        <path id="Path_6055" data-name="Path 6055" d="M472.891,236.672l6.87.756s.679,13.725.181,15.464-4.205,8.629-4.205,8.629l-20.322,5.916V251.962Z" transform="translate(-180.929 -94.026)" fill="#263238"/>
        <path id="Path_6056" data-name="Path 6056" d="M459.019,259.986a2.116,2.116,0,0,1-.169.369,10.177,10.177,0,0,1-.562,1.022,14.4,14.4,0,0,1-2.735,3.3,24.672,24.672,0,0,1-5.276,3.545c-2.122,1.114-4.544,2.135-7.041,3.3L430.4,277.4l-3.9,1.752-1.067.463a2.157,2.157,0,0,1-.381.144,2.148,2.148,0,0,1,.356-.2l1.045-.512,3.865-1.835,12.8-5.956c2.5-1.164,4.922-2.177,7.037-3.272a25.21,25.21,0,0,0,5.262-3.461,15.15,15.15,0,0,0,2.776-3.208c.548-.844.8-1.347.826-1.331" transform="translate(-168.867 -103.288)" fill="#455a64"/>
        <path id="Path_6057" data-name="Path 6057" d="M409.975,290.564a5.761,5.761,0,0,1,1.48-.286,16.208,16.208,0,0,1,3.64,0,15.026,15.026,0,0,1,3.546.829,5.654,5.654,0,0,1,1.362.647,12.753,12.753,0,0,1-1.428-.455,18.862,18.862,0,0,0-3.513-.737,20.9,20.9,0,0,0-3.592-.078,12.284,12.284,0,0,1-1.5.084" transform="translate(-162.877 -115.281)" fill="#455a64"/>
        <path id="Path_6058" data-name="Path 6058" d="M448.046,235.887l28.9,2.73-.094-2.117-28.291-2.941Z" transform="translate(-178.001 -92.789)" fill="#455a64"/>
        <path id="Path_6059" data-name="Path 6059" d="M458.2,237.114c.085-.17.293-2.676.293-2.676l1.573.164-.379,3.064Z" transform="translate(-182.036 -93.139)" fill="#263238"/>
        <path id="Path_6060" data-name="Path 6060" d="M483.343,239.793c.085-.17.293-2.677.293-2.677l1.572.164-.379,3.065Z" transform="translate(-192.025 -94.202)" fill="#263238"/>
      </g>
    </g>
  </g>
</svg>
