<svg id="Group_2067" data-name="Group 2067" xmlns="http://www.w3.org/2000/svg" xmlns:xlink="http://www.w3.org/1999/xlink" width="179.776" height="138.488" viewBox="0 0 179.776 138.488">
  <defs>
    <clipPath id="clip-path">
      <rect id="Rectangle_2055" data-name="Rectangle 2055" width="179.776" height="138.488" fill="none"/>
    </clipPath>
  </defs>
  <g id="Group_2066" data-name="Group 2066" clip-path="url(#clip-path)">
    <path id="Path_4802" data-name="Path 4802" d="M101.614,128.412s-9.929-17.98-1.073-26.3,13.686-12.881,17.443-25.494,12.076-16.638,28.714-15.3,37.033,8.319,37.033,8.319,22.81-9.929,34.886-4.294,12.613,17.711,7.782,31.4.8,21.468,2.415,27.641,1.073,30.592-19.59,30.056-107.342-24.957-107.342-24.957Z" transform="translate(-71.412 -45.028)" fill="#ffede6"/>
    <path id="Path_4803" data-name="Path 4803" d="M33.857,417.9l-3.495.639c-.1-.164-.2-.325-.3-.48a6.635,6.635,0,0,0-.482-.633c-1.712-1.973-4.395-3.321-6.938-2.723-1.672.394-3.208,1.58-4.91,1.373-2.787-.34-3.812-3.946-6.2-5.428-2.715-1.686-6.715-.322-9.133-2.412-1.936-1.676-1.73-4.756-.413-7.022a7.376,7.376,0,0,1,.592-.87,10.248,10.248,0,0,1,8.144-3.8,10.248,10.248,0,0,1,7.942,4.211c1.908,2.664,2.658,6.384,5.529,7.964,1.387.764,3.049.867,4.5,1.512a8.338,8.338,0,0,1,3.358,3.219,13.422,13.422,0,0,1,1.687,3.936c.042.171.081.343.115.513" transform="translate(-0.721 -292.34)" fill="#9fb26b"/>
    <path id="Path_4804" data-name="Path 4804" d="M35.539,430.489c-.094-.158-.191-.315-.292-.47a15.663,15.663,0,0,0-.99-1.372,13.722,13.722,0,0,0-3.783-3.277,11.786,11.786,0,0,0-5.145-1.264,12.8,12.8,0,0,1-5.245-1.254,13.79,13.79,0,0,1-3.962-4.068c-1.169-1.57-2.377-3.192-3.9-3.98-2.287-1.182-6.243-1.093-7.4-1.038l-.025-.525c1.527-.073,5.331-.113,7.668,1.1,1.634.843,2.88,2.516,4.084,4.134a13.432,13.432,0,0,0,3.793,3.92,12.4,12.4,0,0,0,5.04,1.192,12.362,12.362,0,0,1,5.362,1.333,14.244,14.244,0,0,1,3.928,3.4,16.1,16.1,0,0,1,1.022,1.416c.1.158.2.322.3.487Z" transform="translate(-3.531 -304.634)" fill="#fff"/>
    <path id="Path_4805" data-name="Path 4805" d="M38.137,316.621c-.77,2.39-1.545,5.4.311,7.094.763.694,1.824.978,2.609,1.649a4.89,4.89,0,0,1,1.157,4.853,65.64,65.64,0,0,1-2.149,6.774c-.072.192-.141.384-.211.573l-6.041,1.1c.016-.179.035-.362.058-.545.068-.522.155-1.067.249-1.621.15-.9.311-1.836.4-2.742.276-2.714-.075-5.187-3.241-5.923-1.364-.317-2.926.169-4.122-.558-1.888-1.151-1.221-3.99-1.7-6.145a7.514,7.514,0,0,0-3.881-4.617,51.507,51.507,0,0,0-5.739-2.373,19.272,19.272,0,0,1-10.085-8.82C3.722,301.238,3.768,296,6.5,292.34s8.292-5.124,12.164-2.707c4.134,2.581,5.62,8.578,10.222,10.181,1.72.6,3.629.464,5.345,1.069,2.83,1,4.652,3.923,5.1,6.893a19.76,19.76,0,0,1-1.191,8.845" transform="translate(-3.191 -212.654)" fill="#9fb26b"/>
    <path id="Path_4806" data-name="Path 4806" d="M45.684,344.8v-.533c-.008-.766.044-1.564.1-2.409.169-2.609.344-5.306-1.355-6.858-3.028-2.765-3.792-5.739-4.53-8.614-.986-3.839-2.006-7.808-8.491-11.507-.691-.394-1.416-.785-2.118-1.163C23.962,310.846,17.927,307.594,17,297.5l.523-.048c.9,9.811,6.551,12.855,12.014,15.8.7.38,1.433.772,2.129,1.169,6.678,3.809,7.726,7.888,8.74,11.833.753,2.93,1.464,5.7,4.376,8.357,1.885,1.722,1.7,4.547,1.525,7.28-.054.835-.105,1.623-.1,2.371v.537Z" transform="translate(-12.532 -219.294)" fill="#fff"/>
    <path id="Path_4807" data-name="Path 4807" d="M19.078,361.412a19.444,19.444,0,0,1-10.22-8.946l.47-.234a18.927,18.927,0,0,0,9.951,8.694Z" transform="translate(-6.53 -259.679)" fill="#633f3f"/>
    <path id="Path_4808" data-name="Path 4808" d="M92.089,430.537l.029-.343c.016-.182.036-.368.059-.554.075-.577.173-1.176.25-1.633l.039-.235c.137-.821.278-1.671.363-2.491.242-2.383.071-4.917-3.039-5.64a7.341,7.341,0,0,0-1.629-.117,4.749,4.749,0,0,1-2.57-.472c-1.422-.867-1.513-2.575-1.6-4.228a13.056,13.056,0,0,0-.221-2.085l.513-.115a13.437,13.437,0,0,1,.233,2.171c.085,1.586.165,3.084,1.35,3.807a4.282,4.282,0,0,0,2.3.4,7.731,7.731,0,0,1,1.749.131c3.527.819,3.693,3.746,3.443,6.2-.086.836-.229,1.694-.367,2.523l-.039.235c-.077.453-.174,1.046-.247,1.612-.008.063-.016.127-.023.19l5.55-1.015.159-.433a66.318,66.318,0,0,0,2.139-6.743c.353-1.477.257-3.458-1.072-4.592a6.483,6.483,0,0,0-1.221-.76,6.5,6.5,0,0,1-1.395-.895l.354-.388a6.026,6.026,0,0,0,1.285.818,6.961,6.961,0,0,1,1.318.826c1.508,1.288,1.63,3.486,1.242,5.114a66.673,66.673,0,0,1-2.157,6.8l-.263.714Z" transform="translate(-61.757 -304.202)" fill="#633f3f"/>
    <path id="Path_4809" data-name="Path 4809" d="M107.046,347.9l-.5-.161a19.589,19.589,0,0,0,1.181-8.726,8.208,8.208,0,0,0-4.923-6.684,12.876,12.876,0,0,0-2.629-.526,13.391,13.391,0,0,1-2.715-.543l.173-.5a13.014,13.014,0,0,0,2.609.518,13.241,13.241,0,0,1,2.737.551c2.7.955,4.766,3.743,5.268,7.1a20.058,20.058,0,0,1-1.2,8.965" transform="translate(-71.85 -243.849)" fill="#633f3f"/>
    <path id="Path_4810" data-name="Path 4810" d="M3.9,297.949l-.525-.023a11.587,11.587,0,0,1,2.212-6.477c2.922-3.914,8.652-5.184,12.514-2.773a17.352,17.352,0,0,1,4.56,4.9c.465.65.947,1.322,1.44,1.943l-.411.327c-.5-.631-.987-1.309-1.456-1.964a16.965,16.965,0,0,0-4.411-4.761c-3.639-2.272-9.049-1.063-11.814,2.641A11.065,11.065,0,0,0,3.9,297.949" transform="translate(-2.489 -211.92)" fill="#633f3f"/>
    <path id="Path_4811" data-name="Path 4811" d="M65.056,466.6a3.576,3.576,0,0,1-.432-.026l.064-.522a5.913,5.913,0,0,0,2.972-.707,11.7,11.7,0,0,1,1.845-.661l.121.512a11.334,11.334,0,0,0-1.762.633,7.347,7.347,0,0,1-2.809.771" transform="translate(-47.643 -342.584)" fill="#633f3f"/>
    <path id="Path_4812" data-name="Path 4812" d="M1.512,407.694c-2.071-1.793-1.8-5.056-.468-7.352a7.627,7.627,0,0,1,.613-.9,10.55,10.55,0,0,1,8.357-3.9,10.542,10.542,0,0,1,8.149,4.321l-.427.306a10.006,10.006,0,0,0-7.735-4.1,10,10,0,0,0-7.932,3.7,7.106,7.106,0,0,0-.57.837c-1.226,2.11-1.5,5.086.358,6.691Z" transform="translate(0 -291.603)" fill="#633f3f"/>
    <path id="Path_4813" data-name="Path 4813" d="M188.091,488.677c0,3.2-39.581,5.8-88.406,5.8s-88.406-2.6-88.406-5.8,39.581-5.8,88.406-5.8,88.406,2.6,88.406,5.8" transform="translate(-8.315 -355.992)" fill="#e4edfc"/>
    <path id="Path_4814" data-name="Path 4814" d="M514.393,240.7l3.251,1.433c.132-.137.266-.271.4-.4a6.591,6.591,0,0,1,.616-.5c2.124-1.522,5.046-2.21,7.38-1.037,1.535.771,2.753,2.282,4.457,2.476,2.79.317,4.624-2.952,7.287-3.841,3.032-1.009,6.606,1.247,9.443-.225,2.272-1.181,2.787-4.225,2.032-6.734a7.369,7.369,0,0,0-.374-.983,10.079,10.079,0,0,0-15.741-3.338c-2.475,2.148-4.068,5.593-7.228,6.462-1.527.421-3.167.135-4.725.427a8.339,8.339,0,0,0-4.014,2.351,13.421,13.421,0,0,0-2.555,3.437c-.081.157-.159.315-.231.472" transform="translate(-379.229 -165.941)" fill="#9fb26b"/>
    <path id="Path_4815" data-name="Path 4815" d="M517.247,256.137l-.376-.367c.134-.137.27-.274.41-.405a16.127,16.127,0,0,1,1.32-1.137,18.116,18.116,0,0,1,4.021-2.144l.56-.242a10.38,10.38,0,0,1,5.761-.413,10.531,10.531,0,0,0,5.614-.357,13.4,13.4,0,0,0,3.746-2.659,11.194,11.194,0,0,1,4.688-2.968c2.187-.541,5.71.344,8.17,1.057l-.146.5c-1.384-.4-5.595-1.623-7.9-1.052a10.64,10.64,0,0,0-4.463,2.849,13.8,13.8,0,0,1-3.9,2.755,10.953,10.953,0,0,1-5.878.392,9.826,9.826,0,0,0-5.486.373l-.563.243a17.481,17.481,0,0,0-3.908,2.077,15.629,15.629,0,0,0-1.279,1.1c-.137.129-.268.259-.4.391" transform="translate(-381.056 -180.828)" fill="#fff"/>
    <path id="Path_4816" data-name="Path 4816" d="M506.788,140.919c.194,2.5.249,5.612-1.95,6.828-.9.5-2,.528-2.921,1a4.89,4.89,0,0,0-2.252,4.452,65.629,65.629,0,0,0,.517,7.088c.025.2.048.406.072.606l5.619,2.477c.027-.178.05-.36.07-.543.056-.524.1-1.074.135-1.635.064-.914.124-1.858.244-2.761.362-2.7,1.278-5.028,4.528-5.008,1.4.009,2.807.844,4.139.415,2.1-.681,2.114-3.6,3.084-5.581a7.513,7.513,0,0,1,4.847-3.589,51.475,51.475,0,0,1,6.133-.975,19.273,19.273,0,0,0,11.858-6.236c2.925-3.5,4.1-8.612,2.29-12.8s-6.875-6.91-11.2-5.458c-4.62,1.55-7.459,7.038-12.307,7.529-1.812.183-3.638-.392-5.448-.2-2.986.318-5.436,2.735-6.557,5.52a19.759,19.759,0,0,0-.9,8.88" transform="translate(-368.37 -87.581)" fill="#9fb26b"/>
    <path id="Path_4817" data-name="Path 4817" d="M510.145,172.373l-.51-.127c.176-.706.32-1.471.473-2.281.5-2.677,1.076-5.711,3.078-7.286,4.434-3.489,5.347-6.8,6.229-10,.839-3.042,1.63-5.915,5.576-8.238,1.265-.746,3.67-.983,6.455-1.257,6.454-.635,15.293-1.5,17.822-9.236l.5.163c-2.635,8.058-11.671,8.947-18.269,9.6-2.723.268-5.075.5-6.239,1.186-3.762,2.216-4.492,4.861-5.336,7.925-.863,3.13-1.841,6.677-6.411,10.273-1.847,1.453-2.4,4.384-2.887,6.971-.154.818-.3,1.591-.48,2.311" transform="translate(-375.721 -98.75)" fill="#fff"/>
    <path id="Path_4818" data-name="Path 4818" d="M611.425,195.819l-.082-.519a18.924,18.924,0,0,0,11.7-6.145l.4.337a19.447,19.447,0,0,1-12.018,6.328" transform="translate(-450.704 -139.452)" fill="#5e3b3b"/>
    <path id="Path_4819" data-name="Path 4819" d="M505.343,244.326l-6.071-2.676-.089-.754a66.8,66.8,0,0,1-.519-7.12c0-1.674.629-3.784,2.4-4.686a6.981,6.981,0,0,1,1.474-.5,6.029,6.029,0,0,0,1.44-.5l.254.46a6.5,6.5,0,0,1-1.564.546,6.491,6.491,0,0,0-1.365.456c-1.555.794-2.109,2.7-2.109,4.218a66.388,66.388,0,0,0,.515,7.058l.054.456,5.162,2.276q.012-.1.022-.191c.06-.566.1-1.165.134-1.623l.016-.232c.058-.841.119-1.711.229-2.546.326-2.44,1.162-5.237,4.747-5.237h.042a7.649,7.649,0,0,1,1.731.279,4.316,4.316,0,0,0,2.326.148c1.32-.427,1.746-1.866,2.2-3.389a13.425,13.425,0,0,1,.731-2.057l.472.231a13.087,13.087,0,0,0-.7,1.976c-.469,1.587-.955,3.227-2.539,3.74a4.764,4.764,0,0,1-2.61-.137,7.255,7.255,0,0,0-1.611-.264h-.038c-3.161,0-3.911,2.415-4.228,4.781-.109.819-.168,1.68-.226,2.514l-.016.231c-.031.462-.074,1.067-.136,1.644-.021.188-.044.374-.072.554Z" transform="translate(-367.633 -168.16)" fill="#5e3b3b"/>
    <path id="Path_4820" data-name="Path 4820" d="M525.435,161.757a20.063,20.063,0,0,1,.915-9c1.269-3.15,3.927-5.381,6.773-5.684a13.256,13.256,0,0,1,2.79.1,12.989,12.989,0,0,0,2.659.1l.053.523a13.413,13.413,0,0,1-2.767-.1,12.877,12.877,0,0,0-2.679-.1,8.208,8.208,0,0,0-6.341,5.357,19.589,19.589,0,0,0-.878,8.762Z" transform="translate(-387.28 -108.399)" fill="#5e3b3b"/>
    <path id="Path_4821" data-name="Path 4821" d="M613.73,130.63l-.516-.1a11.066,11.066,0,0,0-.614-6.506c-1.829-4.245-6.811-6.678-10.878-5.313a16.952,16.952,0,0,0-5.4,3.606c-.609.528-1.238,1.075-1.873,1.572l-.325-.414c.625-.489,1.249-1.031,1.853-1.555a17.346,17.346,0,0,1,5.573-3.708c4.317-1.448,9.595,1.118,11.527,5.6a11.583,11.583,0,0,1,.647,6.813" transform="translate(-438.014 -86.853)" fill="#5e3b3b"/>
    <path id="Path_4822" data-name="Path 4822" d="M562.82,284.656a6.4,6.4,0,0,1-2.979-1.477,11.332,11.332,0,0,0-1.566-1.025l.236-.47a11.739,11.739,0,0,1,1.642,1.071,5.933,5.933,0,0,0,2.727,1.378Z" transform="translate(-411.58 -207.667)" fill="#5e3b3b"/>
    <path id="Path_4823" data-name="Path 4823" d="M599.483,238.1l-.242-.466c2.177-1.131,2.6-4.089,1.9-6.425a7.1,7.1,0,0,0-.36-.948,9.816,9.816,0,0,0-15.33-3.25l-.344-.4a10.342,10.342,0,0,1,16.151,3.425,7.606,7.606,0,0,1,.387,1.019c.765,2.544.268,5.779-2.163,7.043" transform="translate(-431.362 -165.208)" fill="#5e3b3b"/>
    <path id="Path_4824" data-name="Path 4824" d="M290.138,266.916l-46.7,28.049-46.646-28.041Z" transform="translate(-145.079 -196.78)" fill="#5e3b3b"/>
    <path id="Path_4825" data-name="Path 4825" d="M289.717,170.606l-44.1-33.374a4.732,4.732,0,0,0-5.731,0L195.9,170.606Z" transform="translate(-144.425 -100.461)" fill="#5e3b3b"/>
    <path id="Path_4826" data-name="Path 4826" d="M291.126,162.953l-33.988-25.721a4.732,4.732,0,0,0-5.731,0L211.528,167.49Z" transform="translate(-155.946 -100.461)" fill="#633f3f"/>
    <path id="Path_4827" data-name="Path 4827" d="M171.8,53.6v-.121a10.168,10.168,0,0,0-20.336,0V53.6Z" transform="translate(-111.665 -31.933)" fill="#5e3b3b"/>
    <path id="Path_4828" data-name="Path 4828" d="M279.337,153.739H210.874a10.17,10.17,0,0,1-10.169-10.169l-.472-90.1A10.17,10.17,0,0,0,190.064,43.3h76.329a10.17,10.17,0,0,1,10.169,10.17l.474,73.759h0v16.34c0,5.616-3.313,10.169,2.3,10.169" transform="translate(-140.122 -31.923)" fill="#fff"/>
    <rect id="Rectangle_2003" data-name="Rectangle 2003" width="8.342" height="0.394" transform="translate(70.002 99.86)" fill="#5e3b3b"/>
    <rect id="Rectangle_2004" data-name="Rectangle 2004" width="28.864" height="0.394" transform="translate(82.455 99.86)" fill="#5e3b3b"/>
    <rect id="Rectangle_2005" data-name="Rectangle 2005" width="8.342" height="0.394" transform="translate(70.002 45.392)" fill="#5e3b3b"/>
    <rect id="Rectangle_2006" data-name="Rectangle 2006" width="24.123" height="0.394" transform="translate(82.455 45.392)" fill="#5e3b3b"/>
    <rect id="Rectangle_2007" data-name="Rectangle 2007" width="20.578" height="0.394" transform="translate(70.002 48.948)" fill="#5e3b3b"/>
    <rect id="Rectangle_2008" data-name="Rectangle 2008" width="8.342" height="0.394" transform="translate(70.002 85.095)" fill="#5e3b3b"/>
    <rect id="Rectangle_2009" data-name="Rectangle 2009" width="28.864" height="0.394" transform="translate(82.455 85.095)" fill="#5e3b3b"/>
    <rect id="Rectangle_2010" data-name="Rectangle 2010" width="20.578" height="0.394" transform="translate(70.002 88.65)" fill="#5e3b3b"/>
    <rect id="Rectangle_2011" data-name="Rectangle 2011" width="25.793" height="0.394" transform="translate(94.569 88.65)" fill="#5e3b3b"/>
    <rect id="Rectangle_2012" data-name="Rectangle 2012" width="13.315" height="0.394" transform="translate(70.002 77.549)" fill="#5e3b3b"/>
    <rect id="Rectangle_2013" data-name="Rectangle 2013" width="21.248" height="0.394" transform="translate(70.002 81.105)" fill="#5e3b3b"/>
    <rect id="Rectangle_2014" data-name="Rectangle 2014" width="9.25" height="0.394" transform="translate(95.306 81.105)" fill="#5e3b3b"/>
    <rect id="Rectangle_2015" data-name="Rectangle 2015" width="21.248" height="0.394" transform="translate(70.002 41.791)" fill="#5e3b3b"/>
    <rect id="Rectangle_2016" data-name="Rectangle 2016" width="9.25" height="0.394" transform="translate(95.569 41.791)" fill="#5e3b3b"/>
    <rect id="Rectangle_2017" data-name="Rectangle 2017" width="9.25" height="0.394" transform="translate(87.256 77.549)" fill="#5e3b3b"/>
    <rect id="Rectangle_2018" data-name="Rectangle 2018" width="23.115" height="0.394" transform="translate(100.485 77.549)" fill="#5e3b3b"/>
    <rect id="Rectangle_2019" data-name="Rectangle 2019" width="13.315" height="0.394" transform="translate(70.002 92.309)" fill="#5e3b3b"/>
    <rect id="Rectangle_2020" data-name="Rectangle 2020" width="21.248" height="0.394" transform="translate(70.002 95.865)" fill="#5e3b3b"/>
    <rect id="Rectangle_2021" data-name="Rectangle 2021" width="9.25" height="0.394" transform="translate(95.306 95.865)" fill="#5e3b3b"/>
    <rect id="Rectangle_2022" data-name="Rectangle 2022" width="9.25" height="0.394" transform="translate(87.256 92.309)" fill="#5e3b3b"/>
    <rect id="Rectangle_2023" data-name="Rectangle 2023" width="23.115" height="0.394" transform="translate(100.485 92.309)" fill="#5e3b3b"/>
    <rect id="Rectangle_2024" data-name="Rectangle 2024" width="14.42" height="0.394" transform="translate(108.969 41.791)" fill="#5e3b3b"/>
    <rect id="Rectangle_2025" data-name="Rectangle 2025" width="26.146" height="3.389" transform="translate(69.992 27.286)" fill="#5e3b3b"/>
    <rect id="Rectangle_2026" data-name="Rectangle 2026" width="26.146" height="1.231" transform="translate(69.992 32.738)" fill="#5e3b3b"/>
    <rect id="Rectangle_2027" data-name="Rectangle 2027" width="60.724" height="21.334" transform="translate(70.002 52.7)" fill="#dce7f9"/>
    <path id="Path_4829" data-name="Path 4829" d="M490.8,127.005l-.474-73.76a9.918,9.918,0,0,0-9.907-9.908v-.526a10.444,10.444,0,0,1,10.432,10.432L491.327,127Z" transform="translate(-354.183 -31.563)" fill="#5e3b3b"/>
    <path id="Path_4830" data-name="Path 4830" d="M211.154,153.745h-.408a10.429,10.429,0,0,1-10.432-10.4l-.472-90.1a9.918,9.918,0,0,0-9.907-9.908v-.526h45.487v.526H193.207a10.451,10.451,0,0,1,7.16,9.906l.472,90.1a9.9,9.9,0,0,0,9.906,9.878h.408c6.139,0,8.556-5.416,9.5-9.96l.514.107c-1.414,6.79-4.878,10.378-10.017,10.378" transform="translate(-140.027 -31.563)" fill="#5e3b3b"/>
    <rect id="Rectangle_2028" data-name="Rectangle 2028" width="0.526" height="4.5" transform="translate(31.645 14.095) rotate(-61.337)" fill="#5e3b3b"/>
    <rect id="Rectangle_2029" data-name="Rectangle 2029" width="4.5" height="0.526" transform="matrix(0.996, -0.09, 0.09, 0.996, 30.697, 18.696)" fill="#5e3b3b"/>
    <path id="Path_4831" data-name="Path 4831" d="M290.2,266.945v54.219a4.413,4.413,0,0,1-4.367,4.458H201.154a4.413,4.413,0,0,1-4.366-4.458V266.945l46.7,28.049Z" transform="translate(-145.079 -196.801)" fill="#afcaf9"/>
    <path id="Path_4832" data-name="Path 4832" d="M285.383,371.773l-13.8-10.272a4.874,4.874,0,0,0-5.826,0l-34.737,25.926Z" transform="translate(-170.318 -265.8)" fill="#afcaf9"/>
    <path id="Path_4833" data-name="Path 4833" d="M273.022,378.633l-.314-.421,23.627-17.634a5.168,5.168,0,0,1,6.14,0l13.8,10.272-.314.421-13.8-10.272a4.638,4.638,0,0,0-5.512,0Z" transform="translate(-201.05 -265.084)" fill="#5e3b3b"/>
    <path id="Path_4834" data-name="Path 4834" d="M243.125,384.545H200.417a4.681,4.681,0,0,1-4.629-4.721V346.513h.526v33.311a4.155,4.155,0,0,0,4.1,4.2h42.708Z" transform="translate(-144.342 -255.462)" fill="#633f3f"/>
    <path id="Path_4835" data-name="Path 4835" d="M520.929,409.243h-5.247v-.526h5.247a4.155,4.155,0,0,0,4.1-4.2V380.014h.525v24.509a4.681,4.681,0,0,1-4.629,4.721" transform="translate(-380.179 -280.16)" fill="#5e3b3b"/>
    <path id="Path_4836" data-name="Path 4836" d="M238.89,291.59,196.235,266.11v13.475h-.526v-14.4l43.45,25.955Z" transform="translate(-144.284 -195.503)" fill="#5e3b3b"/>
    <path id="Path_4837" data-name="Path 4837" d="M377.1,12.87V23.859c0,1.679.03,7.929.03,7.929l5.809-4.889h14.764a3.078,3.078,0,0,0,3.115-3.04V12.87a3.078,3.078,0,0,0-3.115-3.04h-17.49a3.078,3.078,0,0,0-3.113,3.04" transform="translate(-278.014 -7.247)" fill="#5e3b3b"/>
    <path id="Path_4838" data-name="Path 4838" d="M378.189,4.04V15.029c0,1.679.029,7.929.029,7.929l5.669-4.889H398.3a3.04,3.04,0,0,0,3.04-3.04V4.04A3.04,3.04,0,0,0,398.3,1H381.227a3.04,3.04,0,0,0-3.038,3.04" transform="translate(-278.814 -0.737)" fill="#ffc76c"/>
    <path id="Path_4839" data-name="Path 4839" d="M415.664,19.093l1.867,0,1.067-8.9-4.026.006Z" transform="translate(-305.638 -7.511)" fill="#fff"/>
    <path id="Path_4840" data-name="Path 4840" d="M420.093,48.541a1.185,1.185,0,1,1-1.185-1.185,1.185,1.185,0,0,1,1.185,1.185" transform="translate(-307.96 -34.913)" fill="#fff"/>
    <path id="Path_4841" data-name="Path 4841" d="M377.188,22.793V3.3a3.305,3.305,0,0,1,3.3-3.3h17.069a3.307,3.307,0,0,1,3.3,3.3V14.292a3.306,3.306,0,0,1-3.3,3.3H383.246Zm3.3-22.267A2.779,2.779,0,0,0,377.714,3.3V21.649l5.338-4.58h14.506a2.78,2.78,0,0,0,2.777-2.777V3.3A2.78,2.78,0,0,0,397.558.526Z" transform="translate(-278.076)" fill="#633f3f"/>
    <rect id="Rectangle_2030" data-name="Rectangle 2030" width="4.5" height="0.525" transform="translate(137.298 10.883) rotate(-27.936)" fill="#5e3b3b"/>
    <rect id="Rectangle_2031" data-name="Rectangle 2031" width="4.501" height="0.525" transform="matrix(0.473, -0.881, 0.881, 0.473, 135.362, 9.169)" fill="#5e3b3b"/>
    <path id="Path_4842" data-name="Path 4842" d="M478.5,315.891l.757-1.116,1.476.962-.639,1.144a1.355,1.355,0,0,0-.164.806,16.308,16.308,0,0,1,.2,1.718,4.486,4.486,0,0,1-.872,1.566c-.153.076-.4-.09-.4-.09s.47-2.348.2-2.818a6.954,6.954,0,0,0-.508-.717,1.236,1.236,0,0,1-.048-1.455" transform="translate(-352.612 -232.063)" fill="#ffb789"/>
    <path id="Path_4843" data-name="Path 4843" d="M442.149,231.1l1.321-.482,1.119-4,2.826.014.706,4.185,1.93.481A5.009,5.009,0,0,1,446,233.352c-3.348,0-3.853-2.252-3.853-2.252" transform="translate(-325.968 -167.075)" fill="#ffb284"/>
    <path id="Path_4844" data-name="Path 4844" d="M445.558,211.034a5.091,5.091,0,0,1-3.774.545c-.974-.243-1.986-.845-.659-3.627a28.07,28.07,0,0,0,1.213-3.275c.248-.563.873-.955,2.022-.843,1.947.191,4.643,4.636,1.2,7.2" transform="translate(-324.744 -150.26)" fill="#ffb284"/>
    <path id="Path_4845" data-name="Path 4845" d="M427.013,262.2s5.175-3.944,5.611-8.181c.3-2.928-3.66-9.727-6.557-11.59a11.958,11.958,0,0,0-3.938-1.575,24.778,24.778,0,0,0-6.167.18,6.337,6.337,0,0,0-3.669,1.076c-2.324,1.449-6.634,7.121-6.634,7.121l6.828,2.607,10.074-3.32,4.7,5.9-2.684,6.038a10.945,10.945,0,0,1,2.44,1.74" transform="translate(-299.066 -177.482)" fill="#f75d59"/>
    <path id="Path_4846" data-name="Path 4846" d="M400.1,498.894a13.213,13.213,0,0,1-.7,4.74H388.5s.812-1.883,4.849-2.329a2.926,2.926,0,0,0,2.7-2.41Z" transform="translate(-286.416 -367.802)" fill="#4a292f"/>
    <path id="Path_4847" data-name="Path 4847" d="M463.185,498.894a26.451,26.451,0,0,1,.749,4.74h-11.3s.812-1.883,4.849-2.329a1.736,1.736,0,0,0,1.654-2.41Z" transform="translate(-333.699 -367.802)" fill="#4a292f"/>
    <path id="Path_4848" data-name="Path 4848" d="M450.256,307.434a25.838,25.838,0,0,0,3.633-.19s4.118,7.134,0,10.883l6.836,39.537s-1.925,2.338-13.157.584l-.953-31.064Z" transform="translate(-329.26 -226.51)" fill="#5e3b3b"/>
    <path id="Path_4849" data-name="Path 4849" d="M450.8,407.889c-.98-.1-2.055-.239-3.232-.423L446.61,376.4l.163-.891,1.416-1.506Z" transform="translate(-329.257 -275.731)" fill="#4a292f"/>
    <path id="Path_4850" data-name="Path 4850" d="M408.573,308.787S403,307.533,403,307.716c0,.153-4.216,14-7.128,27.136a183.906,183.906,0,0,0-3.471,23.2c5.241,2.629,12.836.584,12.836.584l-.624-22.68,5.99-17.628s3.53-2.435,1.07-10.81Z" transform="translate(-289.293 -226.715)" fill="#77b6f3"/>
    <rect id="Rectangle_2032" data-name="Rectangle 2032" width="17.736" height="0.263" transform="matrix(0.211, -0.978, 0.978, 0.211, 117.228, 100.646)" fill="#fff"/>
    <path id="Path_4851" data-name="Path 4851" d="M457.42,358.82a47.884,47.884,0,0,1-7.292-.654l.06-.39c9.9,1.545,12.5-.125,12.915-.461l-6.837-39.538.08-.073c3.953-3.6,0-10.569-.038-10.639l.341-.2c.042.073,4.1,7.223.042,11.054l6.833,39.52-.057.07c-.059.072-1.154,1.308-6.048,1.308" transform="translate(-331.85 -226.234)" fill="#fff"/>
    <path id="Path_4852" data-name="Path 4852" d="M403,306.934a273.462,273.462,0,0,0-7.128,27.136c-2.346,11.957-3.471,23.2-3.471,23.2,5.241,2.629,12.836.584,12.836.584l-.623-22.68,5.99-17.628s3.854-2.714,1.394-11.089c0,0-9,.291-9,.474" transform="translate(-289.293 -225.933)" fill="#5e3b3b"/>
    <path id="Path_4853" data-name="Path 4853" d="M398.786,367.548a15.182,15.182,0,0,1-6.721-1.354l.177-.352c4.711,2.363,11.458.872,12.546.608l-.62-22.557.012-.033,6.011-17.69.053-.037c.026-.018,2.586-1.887,1.648-7.748l.389-.062c.916,5.722-1.358,7.781-1.757,8.094l-5.959,17.536.627,22.8-.15.04a27.193,27.193,0,0,1-6.255.755" transform="translate(-289.044 -234.678)" fill="#fff"/>
    <path id="Path_4854" data-name="Path 4854" d="M421.657,224.637a4.184,4.184,0,0,1,.5-1.134c.168-.141,1.178-.774,1.015-1s-.769.361-.876.156c-.066-.127,1.086-1.313.8-1.5-.189-.121-.786.7-.863.6s.878-.933.606-1.126-.7.861-.829.76c-.063-.05.691-1.038.466-1.19-.3-.2-.877,1.042-1.021.961-.071-.04.21-.436.347-.7.076-.144-.028-.24-.119-.182-.948.6-1.443,2.581-1.565,2.73q-.272.332-.518.665Z" transform="translate(-309.343 -162.333)" fill="#ffb789"/>
    <path id="Path_4855" data-name="Path 4855" d="M427.575,275.413l1.753.989,1.543-.425,1.431,1.085,7.022-1.7,1.811-1.845-.531-1.068,1.269-2.488s-.069-4.784-.233-6.6l-14.973,2.643Z" transform="translate(-314.555 -194.16)" fill="#f75d59"/>
    <path id="Path_4856" data-name="Path 4856" d="M465.76,281.25l-.387-.079a57.727,57.727,0,0,0,.881-5.876l.392.038a58.288,58.288,0,0,1-.887,5.917" transform="translate(-343.089 -202.957)" fill="#633f3f"/>
    <path id="Path_4857" data-name="Path 4857" d="M407.674,234.979l-4.2,9.662s-5.072,4.7-7.872,3.531c-2.426-1.015-2.839-3.033-2.089-5.113.882-2.445,6.36-10.921,6.36-10.921a6.3,6.3,0,0,0,2.751,1.342l-2.333,8.129Z" transform="translate(-289.859 -171.14)" fill="#f75d59"/>
    <path id="Path_4858" data-name="Path 4858" d="M477.133,274.817l-.283-.275,1.043-1.074-.518-1.042.058-.093a12.065,12.065,0,0,0,1.241-2.407,47.959,47.959,0,0,0,.012-5.285c-.015-.483-.028-.923-.036-1.287l.394-.008c.008.363.021.8.036,1.284a48.073,48.073,0,0,1-.014,5.343,11.535,11.535,0,0,1-1.239,2.475l.544,1.095Z" transform="translate(-351.551 -194.149)" fill="#633f3f"/>
    <path id="Path_4859" data-name="Path 4859" d="M405.373,252.718l-.318-.234c.174-.237,4.292-5.82,6.7-7.176l.194.343c-2.33,1.314-6.53,7.008-6.572,7.066" transform="translate(-298.621 -180.851)" fill="#633f3f"/>
    <path id="Path_4860" data-name="Path 4860" d="M430.78,242.687l-.141-.222a6.807,6.807,0,0,1,3.524-1.079l.2-.017.023.262-.2.017a6.583,6.583,0,0,0-3.4,1.039" transform="translate(-317.482 -177.946)" fill="#633f3f"/>
    <path id="Path_4861" data-name="Path 4861" d="M425.173,281l-.216-.329a11.208,11.208,0,0,0,1.8-1.465l.286.27A11.353,11.353,0,0,1,425.173,281" transform="translate(-313.293 -205.842)" fill="#633f3f"/>
    <path id="Path_4862" data-name="Path 4862" d="M448.19,198.941c2.337-.275,5.758.536,5.706,4.062-.048,3.24-3.776,3.976-3.776,3.976a2.523,2.523,0,0,1-.57-2.074c.05-.486-.021-.923-.43-1.135a.927.927,0,0,0-1.059.137c-.2.2-.479.393-.624.125-.247-.457.171-1.769-.818-2.359-.7-.419-.974-.884-.984-1.249-.02-.724.762-1.272,2.555-1.483" transform="translate(-328.538 -146.63)" fill="#4a292f"/>
    <path id="Path_4863" data-name="Path 4863" d="M456.287,222.161a.763.763,0,0,1-.508-.2l.185-.186a.49.49,0,0,0,.541.075.753.753,0,0,0,.413-.48l.257.056a1.02,1.02,0,0,1-.56.662.779.779,0,0,1-.327.075" transform="translate(-336.016 -163.2)" fill="#4a292f"/>
    <path id="Path_4864" data-name="Path 4864" d="M448.565,232.186a2.625,2.625,0,0,1-.322-.017l.053-.391a3.011,3.011,0,0,0,1.907-.47l.225.323a3.3,3.3,0,0,1-1.864.554" transform="translate(-330.461 -170.528)" fill="#633f3f"/>
    <path id="Path_4865" data-name="Path 4865" d="M476.36,210.318s2.1-.488,3.083.576c1.578,1.7.61,5.6,1.931,7.1,1.784,2.025,2.4,5.663-.092,6.878-2.361,1.149-5.287-.8-4.2-5.227a22.989,22.989,0,0,0,.808-6.782c-.216-1.789-.642-1.833-1.481-2.111Z" transform="translate(-351.19 -154.972)" fill="#4a292f"/>
    <path id="Path_4866" data-name="Path 4866" d="M445.9,234.893l.514-1.565a6.831,6.831,0,0,0,4.361-.85l.559,2.258s-3.6,1.006-5.434.157" transform="translate(-328.732 -171.391)" fill="#f75d59"/>
    <path id="Path_4867" data-name="Path 4867" d="M475.987,224.88c-1.13-1.086-1.418-2.936-.791-5.077a23.12,23.12,0,0,0,1.1-6.67c-.12-1.577-.416-1.688-1.132-1.957l-.128-.048.141-.368.126.047c.843.316,1.254.546,1.387,2.3a23.041,23.041,0,0,1-1.114,6.81c-.585,2-.335,3.7.685,4.682Z" transform="translate(-350.091 -155.38)" fill="#4a292f"/>
    <path id="Path_4868" data-name="Path 4868" d="M445.389,200.7c-.526-.257-1.727-1.56-.442-2.354,1.514-.935,4.758,1.034,4.758,1.034Z" transform="translate(-327.608 -146.042)" fill="#4a292f"/>
    <path id="Path_4869" data-name="Path 4869" d="M431.575,309.748l-1.823-1.028.194-.343,1.683.95,3.847-1.019.1.381Z" transform="translate(-316.828 -227.295)" fill="#633f3f"/>
    <path id="Path_4870" data-name="Path 4870" d="M443.905,312.384l-1.438-1.084.238-.315,1.291.973,3.175-.74.089.384Z" transform="translate(-326.203 -229.269)" fill="#633f3f"/>
    <path id="Path_4871" data-name="Path 4871" d="M449.886,241.7a6.39,6.39,0,0,1-1.865-.28l.117-.377a5.535,5.535,0,0,0,4.651-.593l.216.329a5.618,5.618,0,0,1-3.119.92" transform="translate(-330.297 -177.265)" fill="#633f3f"/>
    <rect id="Rectangle_2033" data-name="Rectangle 2033" width="0.394" height="1.194" transform="translate(121.424 61.958) rotate(-12.99)" fill="#633f3f"/>
    <path id="Path_4872" data-name="Path 4872" d="M482.792,313.16a3.534,3.534,0,0,0-2.232-1.458l.078-.387a3.86,3.86,0,0,1,2.509,1.674Z" transform="translate(-354.286 -229.513)" fill="#633f3f"/>
    <path id="Path_4873" data-name="Path 4873" d="M414.711,232.137l-1.291,1.085-.117,2.18Z" transform="translate(-304.701 -171.139)" fill="#f75d59"/>
    <path id="Path_4874" data-name="Path 4874" d="M407.877,240.148l.6-2.415,1.778-1,.788,1.476Z" transform="translate(-300.701 -174.528)" fill="#f75d59"/>
    <path id="Path_4875" data-name="Path 4875" d="M418.921,237.542a3.678,3.678,0,0,1-2.448-1.294l.3-.254a3.167,3.167,0,0,0,2.373,1.139l.051.391a2.165,2.165,0,0,1-.277.018" transform="translate(-307.039 -173.983)" fill="#633f3f"/>
    <rect id="Rectangle_2034" data-name="Rectangle 2034" width="0.525" height="4.5" transform="translate(113.485 46.145) rotate(-24.307)" fill="#633f3f"/>
    <rect id="Rectangle_2035" data-name="Rectangle 2035" width="0.525" height="4.5" transform="translate(109.68 49.693) rotate(-58.13)" fill="#633f3f"/>
    <rect id="Rectangle_2036" data-name="Rectangle 2036" width="4.5" height="0.526" transform="translate(108.39 53.964) rotate(-1.032)" fill="#633f3f"/>
    <rect id="Rectangle_2037" data-name="Rectangle 2037" width="3.034" height="0.394" transform="translate(113.373 111.578) rotate(-53.841)" fill="#fff"/>
    <path id="Path_4876" data-name="Path 4876" d="M433.661,323.489a2.272,2.272,0,0,1-1.694-.642,3.3,3.3,0,0,1-.75-2.308l.393.027a2.947,2.947,0,0,0,.639,2.006,1.975,1.975,0,0,0,1.578.518l.02.394q-.1.005-.187.005" transform="translate(-317.905 -236.312)" fill="#fff"/>
    <path id="Path_4877" data-name="Path 4877" d="M99.579,326.531H128.49a3.2,3.2,0,0,0,3.189-3.189l1.314-54a3.2,3.2,0,0,0-3.189-3.189H98.265a3.2,3.2,0,0,0-3.189,3.189l1.314,54a3.2,3.2,0,0,0,3.189,3.189" transform="translate(-70.093 -196.216)" fill="#5e3b3b"/>
    <path id="Path_4878" data-name="Path 4878" d="M127.753,326.056H98.842a3.456,3.456,0,0,1-3.452-3.452l-1.314-54a3.457,3.457,0,0,1,3.451-3.458h31.539a3.455,3.455,0,0,1,3.451,3.452L131.2,322.611a3.454,3.454,0,0,1-3.451,3.445m-30.225-60.38A2.929,2.929,0,0,0,94.6,268.6l1.314,54a2.931,2.931,0,0,0,2.926,2.932h28.911a2.929,2.929,0,0,0,2.926-2.926l1.314-54.009a2.928,2.928,0,0,0-2.926-2.92Z" transform="translate(-69.357 -195.478)" fill="#633f3f"/>
    <path id="Path_4879" data-name="Path 4879" d="M108.579,326.531H137.49a3.2,3.2,0,0,0,3.189-3.189l1.314-54a3.2,3.2,0,0,0-3.189-3.189H107.265a3.2,3.2,0,0,0-3.189,3.189l1.314,54a3.2,3.2,0,0,0,3.189,3.189" transform="translate(-76.729 -196.216)" fill="#fff"/>
    <path id="Path_4880" data-name="Path 4880" d="M124.607,303.426h22.432a3.284,3.284,0,0,0,3.275-3.275V288.319a3.284,3.284,0,0,0-3.275-3.275H124.607a3.284,3.284,0,0,0-3.275,3.275v11.833a3.284,3.284,0,0,0,3.275,3.275" transform="translate(-89.45 -210.145)" fill="#dce7f9"/>
    <path id="Path_4881" data-name="Path 4881" d="M136.753,326.056H107.842a3.456,3.456,0,0,1-3.452-3.452l-1.314-54a3.457,3.457,0,0,1,3.451-3.458h31.539a3.455,3.455,0,0,1,3.451,3.452h-.526a2.929,2.929,0,0,0-2.926-2.926H106.528A2.929,2.929,0,0,0,103.6,268.6l1.314,54a2.931,2.931,0,0,0,2.926,2.932h28.911a2.929,2.929,0,0,0,2.926-2.926l.126-5.188.525.013-.126,5.182a3.454,3.454,0,0,1-3.451,3.445" transform="translate(-75.992 -195.478)" fill="#633f3f"/>
    <path id="Path_4882" data-name="Path 4882" d="M146.3,302.952H123.87a3.542,3.542,0,0,1-3.538-3.538V287.582a3.541,3.541,0,0,1,3.538-3.538H146.3a3.542,3.542,0,0,1,3.538,3.538v11.832a3.542,3.542,0,0,1-3.538,3.538M123.87,284.57a3.016,3.016,0,0,0-3.012,3.012v11.832a3.016,3.016,0,0,0,3.012,3.012H146.3a3.016,3.016,0,0,0,3.012-3.012V287.582a3.016,3.016,0,0,0-3.012-3.012Z" transform="translate(-88.713 -209.407)" fill="#5e3b3b"/>
    <rect id="Rectangle_2038" data-name="Rectangle 2038" width="0.394" height="27.783" transform="translate(26.306 87.249) rotate(-1.384)" fill="#fff"/>
    <path id="Path_4883" data-name="Path 4883" d="M204.38,383.225H207.4a1.447,1.447,0,0,0,1.443-1.442v-1.275a1.447,1.447,0,0,0-1.443-1.443H204.38a1.447,1.447,0,0,0-1.442,1.443v1.275a1.447,1.447,0,0,0,1.442,1.442" transform="translate(-149.613 -279.46)" fill="#afc9f9"/>
    <path id="Path_4884" data-name="Path 4884" d="M204.38,383.225H207.4a1.447,1.447,0,0,0,1.443-1.442v-1.275a1.447,1.447,0,0,0-1.443-1.443H204.38a1.447,1.447,0,0,0-1.442,1.443v1.275a1.447,1.447,0,0,0,1.442,1.442" transform="translate(-149.613 -279.46)" fill="#f2695f"/>
    <path id="Path_4885" data-name="Path 4885" d="M204.38,409.012H207.4a1.447,1.447,0,0,0,1.443-1.442v-1.275a1.447,1.447,0,0,0-1.443-1.443H204.38a1.447,1.447,0,0,0-1.442,1.443v1.275a1.447,1.447,0,0,0,1.442,1.442" transform="translate(-149.613 -298.471)" fill="#afc9f9"/>
    <path id="Path_4886" data-name="Path 4886" d="M204.38,434.544H207.4a1.447,1.447,0,0,0,1.443-1.442v-1.275a1.447,1.447,0,0,0-1.443-1.443H204.38a1.447,1.447,0,0,0-1.442,1.443V433.1a1.447,1.447,0,0,0,1.442,1.442" transform="translate(-149.613 -317.294)" fill="#afc9f9"/>
    <path id="Path_4887" data-name="Path 4887" d="M204.38,460.268H207.4a1.447,1.447,0,0,0,1.443-1.442v-1.275a1.447,1.447,0,0,0-1.443-1.443H204.38a1.447,1.447,0,0,0-1.442,1.443v1.275a1.447,1.447,0,0,0,1.442,1.442" transform="translate(-149.613 -336.259)" fill="#afc9f9"/>
    <path id="Path_4888" data-name="Path 4888" d="M167.933,383.225h3.019a1.447,1.447,0,0,0,1.443-1.442v-1.275a1.447,1.447,0,0,0-1.443-1.443h-3.019a1.447,1.447,0,0,0-1.442,1.443v1.275a1.447,1.447,0,0,0,1.442,1.442" transform="translate(-122.743 -279.46)" fill="#afcaf9"/>
    <path id="Path_4889" data-name="Path 4889" d="M131.487,383.225h3.019a1.447,1.447,0,0,0,1.443-1.442v-1.275a1.447,1.447,0,0,0-1.443-1.443h-3.019a1.447,1.447,0,0,0-1.442,1.443v1.275a1.447,1.447,0,0,0,1.442,1.442" transform="translate(-95.874 -279.46)" fill="#afcaf9"/>
    <path id="Path_4890" data-name="Path 4890" d="M204.38,409.012H207.4a1.447,1.447,0,0,0,1.443-1.442v-1.275a1.447,1.447,0,0,0-1.443-1.443H204.38a1.447,1.447,0,0,0-1.442,1.443v1.275a1.447,1.447,0,0,0,1.442,1.442" transform="translate(-149.613 -298.471)" fill="#afcaf9"/>
    <path id="Path_4891" data-name="Path 4891" d="M167.933,409.012h3.019a1.447,1.447,0,0,0,1.443-1.442v-1.275a1.447,1.447,0,0,0-1.443-1.443h-3.019a1.447,1.447,0,0,0-1.442,1.443v1.275a1.447,1.447,0,0,0,1.442,1.442" transform="translate(-122.743 -298.471)" fill="#afcaf9"/>
    <path id="Path_4892" data-name="Path 4892" d="M131.487,409.012h3.019a1.447,1.447,0,0,0,1.443-1.442v-1.275a1.447,1.447,0,0,0-1.443-1.443h-3.019a1.447,1.447,0,0,0-1.442,1.443v1.275a1.447,1.447,0,0,0,1.442,1.442" transform="translate(-95.874 -298.471)" fill="#afcaf9"/>
    <path id="Path_4893" data-name="Path 4893" d="M204.38,434.544H207.4a1.447,1.447,0,0,0,1.443-1.442v-1.275a1.447,1.447,0,0,0-1.443-1.443H204.38a1.447,1.447,0,0,0-1.442,1.443V433.1a1.447,1.447,0,0,0,1.442,1.442" transform="translate(-149.613 -317.294)" fill="#afcaf9"/>
    <path id="Path_4894" data-name="Path 4894" d="M167.933,434.544h3.019a1.447,1.447,0,0,0,1.443-1.442v-1.275a1.447,1.447,0,0,0-1.443-1.443h-3.019a1.447,1.447,0,0,0-1.442,1.443V433.1a1.447,1.447,0,0,0,1.442,1.442" transform="translate(-122.743 -317.294)" fill="#afcaf9"/>
    <path id="Path_4895" data-name="Path 4895" d="M131.487,434.544h3.019a1.447,1.447,0,0,0,1.443-1.442v-1.275a1.447,1.447,0,0,0-1.443-1.443h-3.019a1.447,1.447,0,0,0-1.442,1.443V433.1a1.447,1.447,0,0,0,1.442,1.442" transform="translate(-95.874 -317.294)" fill="#afcaf9"/>
    <path id="Path_4896" data-name="Path 4896" d="M131.487,460.268h3.019a1.447,1.447,0,0,0,1.443-1.442v-1.275a1.447,1.447,0,0,0-1.443-1.443h-3.019a1.447,1.447,0,0,0-1.442,1.443v1.275a1.447,1.447,0,0,0,1.442,1.442" transform="translate(-95.874 -336.259)" fill="#afcaf9"/>
    <path id="Path_4897" data-name="Path 4897" d="M204.38,460.268H207.4a1.447,1.447,0,0,0,1.443-1.442v-1.275a1.447,1.447,0,0,0-1.443-1.443H204.38a1.447,1.447,0,0,0-1.442,1.443v1.275a1.447,1.447,0,0,0,1.442,1.442" transform="translate(-149.613 -336.259)" fill="#afcaf9"/>
    <path id="Path_4898" data-name="Path 4898" d="M167.933,460.268h3.019a1.447,1.447,0,0,0,1.443-1.442v-1.275a1.447,1.447,0,0,0-1.443-1.443h-3.019a1.447,1.447,0,0,0-1.442,1.443v1.275a1.447,1.447,0,0,0,1.442,1.442" transform="translate(-122.743 -336.259)" fill="#afcaf9"/>
    <path id="Path_4899" data-name="Path 4899" d="M206.662,382.75h-3.019a1.707,1.707,0,0,1-1.705-1.705V379.77a1.707,1.707,0,0,1,1.705-1.705h3.019a1.707,1.707,0,0,1,1.705,1.705v1.275a1.707,1.707,0,0,1-1.705,1.705m-3.019-4.16a1.181,1.181,0,0,0-1.18,1.18v1.275a1.181,1.181,0,0,0,1.18,1.18h3.019a1.181,1.181,0,0,0,1.18-1.18V379.77a1.181,1.181,0,0,0-1.18-1.18Z" transform="translate(-148.876 -278.723)" fill="#5e3b3b"/>
    <path id="Path_4900" data-name="Path 4900" d="M170.215,382.75H167.2a1.707,1.707,0,0,1-1.705-1.705V379.77a1.707,1.707,0,0,1,1.705-1.705h3.019a1.707,1.707,0,0,1,1.705,1.705v1.275a1.707,1.707,0,0,1-1.705,1.705m-3.019-4.16a1.181,1.181,0,0,0-1.18,1.18v1.275a1.181,1.181,0,0,0,1.18,1.18h3.019a1.181,1.181,0,0,0,1.18-1.18V379.77a1.181,1.181,0,0,0-1.18-1.18Z" transform="translate(-122.006 -278.723)" fill="#5e3b3b"/>
    <path id="Path_4901" data-name="Path 4901" d="M133.769,382.75H130.75a1.707,1.707,0,0,1-1.705-1.705V379.77a1.707,1.707,0,0,1,1.705-1.705h3.019a1.707,1.707,0,0,1,1.705,1.705v1.275a1.707,1.707,0,0,1-1.705,1.705m-3.019-4.16a1.181,1.181,0,0,0-1.18,1.18v1.275a1.181,1.181,0,0,0,1.18,1.18h3.019a1.181,1.181,0,0,0,1.18-1.18V379.77a1.181,1.181,0,0,0-1.18-1.18Z" transform="translate(-95.137 -278.723)" fill="#5e3b3b"/>
    <path id="Path_4902" data-name="Path 4902" d="M206.662,408.537h-3.019a1.707,1.707,0,0,1-1.705-1.705v-1.275a1.707,1.707,0,0,1,1.705-1.705h3.019a1.707,1.707,0,0,1,1.705,1.705v1.275a1.707,1.707,0,0,1-1.705,1.705m-3.019-4.16a1.181,1.181,0,0,0-1.18,1.18v1.275a1.181,1.181,0,0,0,1.18,1.18h3.019a1.181,1.181,0,0,0,1.18-1.18v-1.275a1.181,1.181,0,0,0-1.18-1.18Z" transform="translate(-148.876 -297.734)" fill="#5e3b3b"/>
    <path id="Path_4903" data-name="Path 4903" d="M170.215,408.537H167.2a1.707,1.707,0,0,1-1.705-1.705v-1.275a1.707,1.707,0,0,1,1.705-1.705h3.019a1.707,1.707,0,0,1,1.705,1.705v1.275a1.707,1.707,0,0,1-1.705,1.705m-3.019-4.16a1.181,1.181,0,0,0-1.18,1.18v1.275a1.181,1.181,0,0,0,1.18,1.18h3.019a1.181,1.181,0,0,0,1.18-1.18v-1.275a1.181,1.181,0,0,0-1.18-1.18Z" transform="translate(-122.006 -297.734)" fill="#5e3b3b"/>
    <path id="Path_4904" data-name="Path 4904" d="M133.769,408.537H130.75a1.707,1.707,0,0,1-1.705-1.705v-1.275a1.707,1.707,0,0,1,1.705-1.705h3.019a1.707,1.707,0,0,1,1.705,1.705v1.275a1.707,1.707,0,0,1-1.705,1.705m-3.019-4.16a1.181,1.181,0,0,0-1.18,1.18v1.275a1.181,1.181,0,0,0,1.18,1.18h3.019a1.181,1.181,0,0,0,1.18-1.18v-1.275a1.181,1.181,0,0,0-1.18-1.18Z" transform="translate(-95.137 -297.734)" fill="#5e3b3b"/>
    <path id="Path_4905" data-name="Path 4905" d="M206.662,434.069h-3.019a1.707,1.707,0,0,1-1.705-1.705v-1.275a1.707,1.707,0,0,1,1.705-1.705h3.019a1.707,1.707,0,0,1,1.705,1.705v1.275a1.707,1.707,0,0,1-1.705,1.705m-3.019-4.16a1.181,1.181,0,0,0-1.18,1.18v1.275a1.181,1.181,0,0,0,1.18,1.18h3.019a1.181,1.181,0,0,0,1.18-1.18v-1.275a1.181,1.181,0,0,0-1.18-1.18Z" transform="translate(-148.876 -316.557)" fill="#5e3b3b"/>
    <path id="Path_4906" data-name="Path 4906" d="M170.215,434.069H167.2a1.707,1.707,0,0,1-1.705-1.705v-1.275a1.707,1.707,0,0,1,1.705-1.705h3.019a1.707,1.707,0,0,1,1.705,1.705v1.275a1.707,1.707,0,0,1-1.705,1.705m-3.019-4.16a1.181,1.181,0,0,0-1.18,1.18v1.275a1.181,1.181,0,0,0,1.18,1.18h3.019a1.181,1.181,0,0,0,1.18-1.18v-1.275a1.181,1.181,0,0,0-1.18-1.18Z" transform="translate(-122.006 -316.557)" fill="#5e3b3b"/>
    <path id="Path_4907" data-name="Path 4907" d="M133.769,434.069H130.75a1.707,1.707,0,0,1-1.705-1.705v-1.275a1.707,1.707,0,0,1,1.705-1.705h3.019a1.707,1.707,0,0,1,1.705,1.705v1.275a1.707,1.707,0,0,1-1.705,1.705m-3.019-4.16a1.181,1.181,0,0,0-1.18,1.18v1.275a1.181,1.181,0,0,0,1.18,1.18h3.019a1.181,1.181,0,0,0,1.18-1.18v-1.275a1.181,1.181,0,0,0-1.18-1.18Z" transform="translate(-95.137 -316.557)" fill="#5e3b3b"/>
    <path id="Path_4908" data-name="Path 4908" d="M206.662,459.793h-3.019a1.707,1.707,0,0,1-1.705-1.705v-1.275a1.707,1.707,0,0,1,1.705-1.705h3.019a1.707,1.707,0,0,1,1.705,1.705v1.275a1.707,1.707,0,0,1-1.705,1.705m-3.019-4.16a1.181,1.181,0,0,0-1.18,1.18v1.275a1.181,1.181,0,0,0,1.18,1.18h3.019a1.181,1.181,0,0,0,1.18-1.18v-1.275a1.181,1.181,0,0,0-1.18-1.18Z" transform="translate(-148.876 -335.522)" fill="#5e3b3b"/>
    <path id="Path_4909" data-name="Path 4909" d="M170.215,459.793H167.2a1.707,1.707,0,0,1-1.705-1.705v-1.275a1.707,1.707,0,0,1,1.705-1.705h3.019a1.707,1.707,0,0,1,1.705,1.705v1.275a1.707,1.707,0,0,1-1.705,1.705m-3.019-4.16a1.181,1.181,0,0,0-1.18,1.18v1.275a1.181,1.181,0,0,0,1.18,1.18h3.019a1.181,1.181,0,0,0,1.18-1.18v-1.275a1.181,1.181,0,0,0-1.18-1.18Z" transform="translate(-122.006 -335.522)" fill="#5e3b3b"/>
    <path id="Path_4910" data-name="Path 4910" d="M133.769,459.793H130.75a1.707,1.707,0,0,1-1.705-1.705v-1.275a1.707,1.707,0,0,1,1.705-1.705h3.019a1.707,1.707,0,0,1,1.705,1.705v1.275a1.707,1.707,0,0,1-1.705,1.705m-3.019-4.16a1.181,1.181,0,0,0-1.18,1.18v1.275a1.181,1.181,0,0,0,1.18,1.18h3.019a1.181,1.181,0,0,0,1.18-1.18v-1.275a1.181,1.181,0,0,0-1.18-1.18Z" transform="translate(-95.137 -335.522)" fill="#5e3b3b"/>
    <path id="Path_4911" data-name="Path 4911" d="M128.956,343.542a.626.626,0,1,1-.626-.626.626.626,0,0,1,.626.626" transform="translate(-94.148 -252.81)" fill="#633f3f"/>
    <rect id="Rectangle_2039" data-name="Rectangle 2039" width="24.957" height="4.83" transform="translate(142.1 126.563)" fill="#ffc76c"/>
    <rect id="Rectangle_2040" data-name="Rectangle 2040" width="24.957" height="4.83" transform="translate(136.845 121.224)" fill="#ffc76c"/>
    <rect id="Rectangle_2041" data-name="Rectangle 2041" width="24.957" height="4.83" transform="translate(142.083 115.902)" fill="#ffc76c"/>
    <rect id="Rectangle_2042" data-name="Rectangle 2042" width="0.526" height="4.83" transform="translate(144.448 115.902)" fill="#5e3b3b"/>
    <rect id="Rectangle_2043" data-name="Rectangle 2043" width="0.526" height="4.83" transform="translate(147.076 115.902)" fill="#5e3b3b"/>
    <rect id="Rectangle_2044" data-name="Rectangle 2044" width="0.526" height="4.83" transform="translate(154.959 115.902)" fill="#5e3b3b"/>
    <rect id="Rectangle_2045" data-name="Rectangle 2045" width="0.526" height="4.83" transform="translate(160.214 115.902)" fill="#5e3b3b"/>
    <rect id="Rectangle_2046" data-name="Rectangle 2046" width="0.526" height="4.83" transform="translate(139.21 121.224)" fill="#5e3b3b"/>
    <rect id="Rectangle_2047" data-name="Rectangle 2047" width="0.526" height="4.83" transform="translate(141.837 121.224)" fill="#5e3b3b"/>
    <rect id="Rectangle_2048" data-name="Rectangle 2048" width="0.526" height="4.83" transform="translate(149.72 121.224)" fill="#5e3b3b"/>
    <rect id="Rectangle_2049" data-name="Rectangle 2049" width="0.526" height="4.83" transform="translate(152.348 121.224)" fill="#5e3b3b"/>
    <rect id="Rectangle_2050" data-name="Rectangle 2050" width="0.526" height="4.831" transform="translate(154.976 126.563)" fill="#5e3b3b"/>
    <rect id="Rectangle_2051" data-name="Rectangle 2051" width="0.526" height="4.831" transform="translate(160.231 126.563)" fill="#5e3b3b"/>
    <rect id="Rectangle_2052" data-name="Rectangle 2052" width="0.526" height="4.831" transform="translate(162.859 126.563)" fill="#5e3b3b"/>
    <rect id="Rectangle_2053" data-name="Rectangle 2053" width="24.823" height="0.526" transform="translate(142.22 120.704)" fill="#5e3b3b"/>
    <rect id="Rectangle_2054" data-name="Rectangle 2054" width="24.94" height="0.526" transform="translate(136.845 126.077)" fill="#5e3b3b"/>
  </g>
</svg>
