<svg id="Group_985" data-name="Group 985" xmlns="http://www.w3.org/2000/svg" xmlns:xlink="http://www.w3.org/1999/xlink" width="168.206" height="161.641" viewBox="0 0 168.206 161.641">
  <defs>
    <clipPath id="clip-path">
      <rect id="Rectangle_828" data-name="Rectangle 828" width="168.206" height="161.641" fill="none"/>
    </clipPath>
  </defs>
  <g id="Group_980" data-name="Group 980">
    <g id="Group_979" data-name="Group 979" clip-path="url(#clip-path)">
      <path id="Path_2224" data-name="Path 2224" d="M88.392,67.749S65.508,68.757,53.385,92.685s-24.64,16.459-32.032,38.044,7.514,46.13,17.506,48.789,124.125,0,124.125,0,15.08-10.31,16.262-37.089-21.289-35.724-30.6-39.531-23.667-35.74-60.251-35.149" transform="translate(-11.519 -40.287)" fill="#f3f5f4"/>
      <path id="Path_2225" data-name="Path 2225" d="M117.752,187.135c26.361-17.737,31.473-26.844,44.484-28.538,31.692-4.124,8.471,77.8-64.1,95.3-34.48,8.317-77.192-14.368-83.3-31.993-5.905-17.04,9.994-23.432,33.47-14.293S104.32,196.172,117.752,187.135Z" transform="translate(-8.088 -94.232)" fill="none" stroke="#bbbfbd" stroke-width="1"/>
      <path id="Path_2226" data-name="Path 2226" d="M337.754,173.436a4.014,4.014,0,1,1-4.014-4.014,4.014,4.014,0,0,1,4.014,4.014" transform="translate(-196.097 -100.76)" fill="#d9d9d9"/>
      <circle id="Ellipse_2" data-name="Ellipse 2" cx="4.014" cy="4.014" r="4.014" transform="translate(132.011 147.529)" fill="none" stroke="#bbbfbd" stroke-width="1"/>
      <circle id="Ellipse_3" data-name="Ellipse 3" cx="4.014" cy="4.014" r="4.014" transform="translate(78.503 58.068) rotate(-22.5)" fill="none" stroke="#bbbfbd" stroke-width="1"/>
      <path id="Path_2227" data-name="Path 2227" d="M172.643,188.208l-4.071,5.667h7.737Z" transform="translate(-100.254 -111.932)" fill="none" stroke="#bbbfbd" stroke-linecap="round" stroke-linejoin="round" stroke-width="1"/>
      <path id="Path_2228" data-name="Path 2228" d="M127.651,365.849l-2.559,4.928h7.737Z" transform="translate(-74.395 -217.58)" fill="#d9d9d9"/>
      <circle id="Ellipse_4" data-name="Ellipse 4" cx="7.657" cy="7.657" r="7.657" transform="translate(-1.107 91.984) rotate(-79.099)" fill="none" stroke="#bbbfbd" stroke-linecap="round" stroke-linejoin="round" stroke-width="1"/>
    </g>
  </g>
  <text id="_" data-name="?" transform="translate(4.896 87.125)" fill="#99c6ab" font-size="10" font-family="SegoeUI, Segoe UI"><tspan x="0" y="0">?</tspan></text>
  <g id="Group_982" data-name="Group 982">
    <g id="Group_981" data-name="Group 981" clip-path="url(#clip-path)">
      <path id="Path_2229" data-name="Path 2229" d="M210.377,62.629a7.657,7.657,0,1,1-7.657-7.657,7.657,7.657,0,0,1,7.657,7.657" transform="translate(-116.009 -32.693)" fill="#dde8f8"/>
    </g>
  </g>
  <text id="_2" data-name="?" transform="translate(83.747 31.148)" fill="#fff" font-size="10" font-family="SegoeUI, Segoe UI"><tspan x="0" y="0">?</tspan></text>
  <g id="Group_984" data-name="Group 984">
    <g id="Group_983" data-name="Group 983" clip-path="url(#clip-path)">
      <path id="Path_2230" data-name="Path 2230" d="M66.717,214.233a3.856,3.856,0,1,1-3.857-3.856,3.857,3.857,0,0,1,3.857,3.856" transform="translate(-35.091 -125.117)" fill="#d9d9d9"/>
      <line id="Line_132" data-name="Line 132" x2="33.012" transform="translate(130.38 32.012)" fill="#d9d9d9"/>
      <path id="Path_2231" data-name="Path 2231" d="M349.741,49.823H315.23a3.567,3.567,0,0,0-3.567,3.567V74.16a3.567,3.567,0,0,0,3.567,3.567h7.025l-1.393,3.6a1.118,1.118,0,0,0,1.7,1.3l6.671-4.9h20.5a3.567,3.567,0,0,0,3.567-3.567V53.39a3.567,3.567,0,0,0-3.567-3.567" transform="translate(-185.354 -29.631)" fill="#dde8f8"/>
      <line id="Line_133" data-name="Line 133" x2="33.012" transform="translate(130.38 26.014)" fill="none" stroke="#fff" stroke-linecap="round" stroke-linejoin="round" stroke-width="1"/>
      <line id="Line_134" data-name="Line 134" x2="33.012" transform="translate(130.38 29.013)" fill="none" stroke="#fff" stroke-linecap="round" stroke-linejoin="round" stroke-width="1"/>
      <line id="Line_135" data-name="Line 135" x2="33.012" transform="translate(130.38 32.012)" fill="none" stroke="#fff" stroke-linecap="round" stroke-linejoin="round" stroke-width="1"/>
      <line id="Line_136" data-name="Line 136" x2="33.012" transform="translate(130.38 35.01)" fill="none" stroke="#fff" stroke-linecap="round" stroke-linejoin="round" stroke-width="1"/>
      <line id="Line_137" data-name="Line 137" x2="33.012" transform="translate(130.38 38.009)" fill="none" stroke="#fff" stroke-linecap="round" stroke-linejoin="round" stroke-width="1"/>
      <line id="Line_138" data-name="Line 138" x2="33.012" transform="translate(130.38 41.007)" fill="none" stroke="#fff" stroke-linecap="round" stroke-linejoin="round" stroke-width="1"/>
      <path id="Path_2232" data-name="Path 2232" d="M115.5,200.121a31.917,31.917,0,0,0-.808-4.355,22.326,22.326,0,0,0-2.388-4.074,3.015,3.015,0,0,0,.351,3.021,28.991,28.991,0,0,0,.035,2.95,54.4,54.4,0,0,0-4.353-3.435l-1.652-1.318c-2.423-1.931-4.039-1.334-3.828-1.194.145.1,2.917,2.338,4.632,3.726l-.225.321-2.581-2.058c-2.424-1.932-4.039-1.335-3.828-1.194.176.117,4.233,3.4,5.555,4.475l-.39.559-2.672-2.131c-2.424-1.931-4.039-1.335-3.828-1.194.181.121,4.431,3.564,5.646,4.548l-.414.593A32.36,32.36,0,0,0,101.839,197a2.762,2.762,0,0,0-2.6-.562l.667.6c.667.6,4.144,3.337,4.144,3.337s5.308,4.74,6.64,5.2l1.3,1.239,4.779-5.173Z" transform="translate(-59.021 -113.902)" fill="#ff996a"/>
      <path id="Path_2233" data-name="Path 2233" d="M170.425,239.309c-2.85,4.109-6.836,6.648-12.136,5.569-14.192-2.885-30.95-30.434-30.95-30.434l.843-.913,6.255-6.767,21.768,19.781,6.8-9.84,6.64-9.609,3.282-4.749s1.922,3.039,3.131,12.7c.755,6.054-.84,17.369-5.631,24.263" transform="translate(-75.732 -120.341)" fill="#d3aa7d"/>
      <path id="Path_2234" data-name="Path 2234" d="M170.425,246.277c-2.85,4.109-6.836,6.648-12.136,5.569-14.192-2.885-30.95-30.434-30.95-30.434l.843-.913.52-.289s19.969,27.472,28.385,23.386c5.2-2.526,6.039-12.6,5.916-19.923l6.64-9.609Z" transform="translate(-75.732 -127.309)" fill="#c1966b"/>
      <path id="Path_2235" data-name="Path 2235" d="M355.93,286.936l-1.293,22.771h-5.014l1.971-22.771Z" transform="translate(-207.929 -170.648)" fill="#dde8f8"/>
      <path id="Path_2236" data-name="Path 2236" d="M280.194,286.936,278.9,309.707h-5.015l1.971-22.771Z" transform="translate(-162.887 -170.648)" fill="#649176"/>
      <path id="Path_2237" data-name="Path 2237" d="M297.658,243.065H257.928a7.15,7.15,0,0,1-7.15-7.15V213.691a7.15,7.15,0,0,1,7.15-7.15h39.729a7.15,7.15,0,0,1,7.15,7.15v22.224a7.15,7.15,0,0,1-7.15,7.15" transform="translate(-149.144 -122.835)" fill="#dde8f8"/>
      <path id="Path_2238" data-name="Path 2238" d="M289.39,243.065H249.66a7.15,7.15,0,0,1-7.15-7.15V213.691a7.15,7.15,0,0,1,7.15-7.15H289.39a7.15,7.15,0,0,1,7.15,7.15v22.224a7.15,7.15,0,0,1-7.15,7.15" transform="translate(-144.227 -122.835)" fill="#ebebeb"/>
      <path id="Path_2239" data-name="Path 2239" d="M247.36,181.087s7.836-1.258,18.377,9.647l2.432,55.959H224.112s-4.811-37.752.8-51.178,15.679-15.028,22.451-14.428" transform="translate(-132.143 -107.635)" fill="#ffd294"/>
      <path id="Path_2240" data-name="Path 2240" d="M240.007,102.47l1.934-2.648,16.491,5.521-.143,6.194h1.089a4,4,0,1,1,0,8.009H258.1l-.194,8.408v7.388l-11.939,1.642-.293-4.941-.155-2.6-1.733-.827a14.258,14.258,0,0,1-8.118-12.867,22.52,22.52,0,0,1,4.334-13.282" transform="translate(-140.161 -59.367)" fill="#ff996a"/>
      <path id="Path_2241" data-name="Path 2241" d="M259.978,159.633l.155,2.6c.439-.052.9-.12,1.375-.207,7.374-1.344,10.261-8.01,9.962-11.443,0,0-2.486,8.259-11.492,9.054" transform="translate(-154.616 -89.553)" fill="#d37a57"/>
      <path id="Path_2242" data-name="Path 2242" d="M293.449,135.213a1.8,1.8,0,0,0-.7.93,1.049,1.049,0,0,1,.672.9,1.072,1.072,0,0,1-.672.989,1.114,1.114,0,0,0,1.492.429,1.59,1.59,0,0,0-.149-2.631s1.474-.168,2.015.373a1.07,1.07,0,0,0-.492-1.022,1.787,1.787,0,0,0-2.171.036" transform="translate(-174.109 -80.185)" fill="#d37a57"/>
      <path id="Path_2243" data-name="Path 2243" d="M237.513,96.6s2.233,3.844,5.119,5.087,5.97-.567,8.855,1.085,1.044,4.747,1.691,6.234,1.364,1.686,1.364,1.686.388-4.229,1.253-5.025c0,0,2.591-.022,3.4.733a19.3,19.3,0,0,0,1.7-5.211c.249-2.288-2.289-3.035-2.289-3.035s-.6-5.472-7.313-7.512-11.84,1.194-14.527,0a3.647,3.647,0,0,0-5.273,3.309,3.869,3.869,0,0,0,1.691,3.706,2.6,2.6,0,0,0-.746,2.663,3.046,3.046,0,0,0,2.059,1.988,45.332,45.332,0,0,1,3.021-5.709" transform="translate(-137.666 -53.495)" fill="#3f2d1f"/>
      <path id="Path_2244" data-name="Path 2244" d="M249.667,154.4l6.838-.336s-1.583,2.463-3.836,2.439a3.627,3.627,0,0,1-3-2.1" transform="translate(-148.484 -91.625)" fill="#fff"/>
      <path id="Path_2245" data-name="Path 2245" d="M263.582,125.3a.383.383,0,0,1-.244-.088,2.384,2.384,0,0,0-2.877-.168.385.385,0,0,1-.454-.622,3.131,3.131,0,0,1,3.821.2.385.385,0,0,1-.245.682" transform="translate(-154.539 -73.664)" fill="#3f2d1f"/>
      <path id="Path_2246" data-name="Path 2246" d="M242.6,125.3a.382.382,0,0,1-.244-.088,2.384,2.384,0,0,0-2.877-.168.385.385,0,0,1-.454-.622,3.131,3.131,0,0,1,3.821.2.385.385,0,0,1-.245.682" transform="translate(-142.059 -73.664)" fill="#3f2d1f"/>
      <path id="Path_2247" data-name="Path 2247" d="M272.828,178.553l-2.164-2.815-8.6,3.029-1.392,2.415-.941-2.169-1.305-1.425-1.355,2.612s.041,2.62,3.356,3.316,10.56-2.006,12.4-4.962" transform="translate(-152.889 -104.516)" fill="#9c897a"/>
      <path id="Path_2248" data-name="Path 2248" d="M292.732,128.521a2.622,2.622,0,0,0-2.605.656,2.211,2.211,0,0,0-.839,2.313s.586-1.382,1.842-1.231,2.169,3.544.491,4.178a2.753,2.753,0,0,1-3.745-2.947c.075-2.614,1.033-4.093,2.614-4.318a1.984,1.984,0,0,1,2.242,1.35" transform="translate(-171.206 -75.617)" fill="#77a58a"/>
      <path id="Path_2249" data-name="Path 2249" d="M270.076,150.715a.345.345,0,0,1-.065-.684c6.5-1.25,8.7-7.372,8.725-7.434a.345.345,0,0,1,.652.226c-.023.066-2.346,6.558-9.247,7.885a.358.358,0,0,1-.065.006" transform="translate(-160.417 -84.669)" fill="#77a58a"/>
      <path id="Path_2250" data-name="Path 2250" d="M267,160.274a1.455,1.455,0,1,0,1.455-1.455A1.455,1.455,0,0,0,267,160.274" transform="translate(-158.794 -94.454)" fill="#649176"/>
      <path id="Path_2251" data-name="Path 2251" d="M295.434,136.124a6.51,6.51,0,0,0,.169,2.467c.353.86.905.415,1.013-.629s-.936-2.508-1.182-1.838" transform="translate(-175.674 -80.856)" fill="#649176"/>
      <path id="Path_2252" data-name="Path 2252" d="M261.374,133.462s0,1.5,1.966,1.749a2.094,2.094,0,0,0,2.321-1.749,4.325,4.325,0,0,0-2.556-1.076,1.623,1.623,0,0,0-1.73,1.076" transform="translate(-155.446 -78.733)" fill="#fff"/>
      <path id="Path_2253" data-name="Path 2253" d="M239.24,133.462s0,1.5,1.924,1.749a1.947,1.947,0,0,0,2.178-1.747,3.792,3.792,0,0,0-2.409-1.078,1.593,1.593,0,0,0-1.693,1.076" transform="translate(-142.282 -78.733)" fill="#fff"/>
      <path id="Path_2254" data-name="Path 2254" d="M243.343,133.027a4.705,4.705,0,0,0-2.13-1.333,1.508,1.508,0,0,0-1.972,1.333,1.412,1.412,0,0,1,1.32-.927,6.11,6.11,0,0,1,2.782.927" transform="translate(-142.283 -78.297)" fill="#3f2d1f"/>
      <path id="Path_2255" data-name="Path 2255" d="M265.661,132.932a4.917,4.917,0,0,0-2.226-1.393,1.576,1.576,0,0,0-2.061,1.393,1.476,1.476,0,0,1,1.379-.969,6.391,6.391,0,0,1,2.908.969" transform="translate(-155.446 -78.203)" fill="#3f2d1f"/>
      <path id="Path_2256" data-name="Path 2256" d="M250.165,135.148l-.905,5.466a4.161,4.161,0,0,1-1.719-.351s2.366-4.5,2.624-5.115" transform="translate(-147.219 -80.376)" fill="#d37a57"/>
      <path id="Path_2257" data-name="Path 2257" d="M187.532,334.306a6,6,0,0,1,4.768-5.732c4.916-1.368,10.9,2.631,11.864,5.732Z" transform="translate(-111.53 -195.247)" fill="#649176"/>
      <path id="Path_2258" data-name="Path 2258" d="M265.448,133.7a1.266,1.266,0,1,1-1.232-1.558,1.424,1.424,0,0,1,1.232,1.558" transform="translate(-156.404 -78.59)" fill="#3f2d1f"/>
      <path id="Path_2259" data-name="Path 2259" d="M244.228,133.895a1.233,1.233,0,1,1-1.2-1.51,1.382,1.382,0,0,1,1.2,1.51" transform="translate(-143.82 -78.733)" fill="#3f2d1f"/>
      <path id="Path_2260" data-name="Path 2260" d="M274.186,143.8c0,.679-.8,1.23-1.8,1.23s-1.8-.551-1.8-1.23.8-1.23,1.8-1.23,1.8.551,1.8,1.23" transform="translate(-160.928 -84.791)" fill="#d37a57"/>
      <path id="Path_2261" data-name="Path 2261" d="M237.981,142.345c0,.679-.8,1.23-1.8,1.23s-1.8-.551-1.8-1.23.8-1.23,1.8-1.23,1.8.551,1.8,1.23" transform="translate(-139.396 -83.925)" fill="#d37a57"/>
      <path id="Path_2262" data-name="Path 2262" d="M283.365,245.507a17.412,17.412,0,0,1-6.216,8.577,19.362,19.362,0,0,1-5.893,2.946c-8.458,2.565-39.781,2.368-39.781,2.368l1.179-9.463,35.075-7.884s-4.537-14.393-4.337-26.02c.181-10.822,3.409-15.282,7.044-13.175a6.032,6.032,0,0,1,.82.585s5.539,8.253,11.254,25.2c2.338,6.933,2.3,12.509.855,16.861" transform="translate(-137.664 -120.342)" fill="#e5bc89"/>
      <path id="Path_2263" data-name="Path 2263" d="M204.477,320.813l-7.441-1.356a5.36,5.36,0,0,0-2.735.357c-1.367.591-2.92,3.474-2.92,3.474a3.429,3.429,0,0,0,2.107-.748,2.815,2.815,0,0,0,.961-1.433l2.731.213.049.633a34.724,34.724,0,0,0-4.775,1.335,5.458,5.458,0,0,0-2.365,2.7,5.537,5.537,0,0,0,3.068-1.552l4.227-.479.03.394a12.041,12.041,0,0,0-3.887.9,5.832,5.832,0,0,0-2.846,2.255,6.876,6.876,0,0,0,3.714-1.183l1.033-.086a7.49,7.49,0,0,0-1.9,2.229,3.661,3.661,0,0,0,2.7-1.282l2.908.218a13.432,13.432,0,0,0,5.1-.008l2.781.428.873-7.006Z" transform="translate(-113.05 -189.962)" fill="#ff996a"/>
      <path id="Path_2264" data-name="Path 2264" d="M169.753,347.7H29.83a2.29,2.29,0,1,1,0-4.58H169.753a2.29,2.29,0,0,1,0,4.58" transform="translate(-16.379 -204.064)" fill="#ebebeb"/>
      <path id="Path_2265" data-name="Path 2265" d="M116.115,347.7h-87.2c-.759,0-1.374-1.025-1.374-2.29s.615-2.29,1.374-2.29h87.2c.759,0,1.374,1.025,1.374,2.29s-.615,2.29-1.374,2.29" transform="translate(-16.379 -204.064)" fill="#fbfbfb"/>
      <path id="Path_2266" data-name="Path 2266" d="M96.139,271.883H47.952a3.463,3.463,0,0,1-3.382-2.718l-6.229-28.288a2.223,2.223,0,0,1,2.171-2.7H89.243a3.068,3.068,0,0,1,3,2.409l6.248,28.376a2.406,2.406,0,0,1-2.349,2.923" transform="translate(-22.771 -141.65)" fill="#358dc0"/>
      <path id="Path_2267" data-name="Path 2267" d="M68.174,302.649c-.4,2.027-2.768,3.265-5.284,2.766s-4.229-2.548-3.827-4.575,2.768-3.265,5.284-2.766,4.229,2.548,3.827,4.575" transform="translate(-35.091 -177.207)" fill="#fff"/>
      <path id="Path_2268" data-name="Path 2268" d="M169.141,268.961l-6.248-28.376a3.068,3.068,0,0,0-3-2.408h-2.809a3.068,3.068,0,0,1,3,2.408l6.248,28.376a2.4,2.4,0,0,1-2.349,2.923h2.809a2.406,2.406,0,0,0,2.35-2.923" transform="translate(-93.424 -141.65)" fill="#dde8f8"/>
      <path id="Path_2269" data-name="Path 2269" d="M102.468,313.923a1.133,1.133,0,0,1-1.135,1.135h-40a2.325,2.325,0,0,1-1.935-3.619l9.9-14.833a1.517,1.517,0,0,1,1.256-.669h17.31a.805.805,0,0,1,.7,1.211L80.2,311.588a.8.8,0,0,0,.69,1.2h20.442a1.136,1.136,0,0,1,1.135,1.135" transform="translate(-35.091 -176.002)" fill="#dde8f8"/>
      <path id="Path_2270" data-name="Path 2270" d="M100.176,277.757H75.635a.517.517,0,1,1,0-1.034h24.541a.517.517,0,0,1,0,1.034" transform="translate(-44.674 -164.574)" fill="#dde8f8"/>
      <path id="Path_2271" data-name="Path 2271" d="M103.094,285.418H78.553a.517.517,0,1,1,0-1.035h24.541a.517.517,0,1,1,0,1.035" transform="translate(-46.409 -169.13)" fill="#dde8f8"/>
      <path id="Path_2272" data-name="Path 2272" d="M38.85,239.851H90.819a3.45,3.45,0,0,1,1.2.218,3.069,3.069,0,0,0-2.834-1.893H40.458a2.223,2.223,0,0,0-2.169,1.738,2.539,2.539,0,0,1,.561-.063" transform="translate(-22.771 -141.65)" fill="#358dc0"/>
      <path id="Path_2273" data-name="Path 2273" d="M157.954,302.649c-.4,2.027-2.768,3.265-5.284,2.766s-4.229-2.548-3.827-4.575,2.768-3.265,5.284-2.766,4.229,2.548,3.827,4.575" transform="translate(-88.486 -177.207)" fill="#fff"/>
      <path id="Path_2274" data-name="Path 2274" d="M128.645,314.007a1.176,1.176,0,0,1-1.193,1.053H104.687a1.664,1.664,0,0,1-1.408-2.553l10.459-16.568h.3a.806.806,0,0,1,.7,1.211l-8.358,14.44a.8.8,0,0,0,.69,1.2h20.442a1.137,1.137,0,0,1,1.132,1.217" transform="translate(-61.271 -176.002)" fill="#dde8f8"/>
      <path id="Path_2275" data-name="Path 2275" d="M271.256,257.776c-8.458,2.565-39.781,2.368-39.781,2.368l40.471-10.769a8.538,8.538,0,0,0,6.239-9.592c-1.779-11.18-5.222-31.241-7.749-36.182a6,6,0,0,1,.82.585s5.539,8.254,11.254,25.2-2.792,25.824-11.254,28.385" transform="translate(-137.664 -121.088)" fill="#d3aa7d"/>
      <path id="Path_2276" data-name="Path 2276" d="M323.745,301.295a16.657,16.657,0,0,1,10.486,4.21" transform="translate(-192.54 -179.188)" fill="none" stroke="#9c897a" stroke-linecap="round" stroke-linejoin="round" stroke-width="1"/>
      <path id="Path_2277" data-name="Path 2277" d="M293.867,185.175s7.615,2.589,11.365,7.029" transform="translate(-174.77 -110.128)" fill="none" stroke="#e5bc89" stroke-linecap="round" stroke-linejoin="round" stroke-width="1"/>
      <path id="Path_2278" data-name="Path 2278" d="M200.339,265.25s4.205,5.447,4.743,11.719" transform="translate(-119.147 -157.751)" fill="none" stroke="#9c897a" stroke-linecap="round" stroke-linejoin="round" stroke-width="1"/>
      <path id="Path_2279" data-name="Path 2279" d="M253.764,185.43s-1.6,4.486,5.078,5.036,14-6,14-6" transform="translate(-150.82 -109.706)" fill="none" stroke="#e5bc89" stroke-linecap="round" stroke-linejoin="round" stroke-width="1"/>
      <path id="Path_2280" data-name="Path 2280" d="M229.181,322.87l-1.564,6.742,1.714.263.873-7.005Z" transform="translate(-135.37 -192.02)" fill="#d37a57"/>
      <path id="Path_2281" data-name="Path 2281" d="M260.43,194.927s-1.98,5.641-3.356,20.231" transform="translate(-152.889 -115.928)" fill="none" stroke="#e5bc89" stroke-linecap="round" stroke-linejoin="round" stroke-width="1"/>
      <path id="Path_2282" data-name="Path 2282" d="M288.19,109.988a11.38,11.38,0,0,0-5.941.347" transform="translate(-167.861 -65.267)" fill="none" stroke="#543e2f" stroke-linecap="round" stroke-linejoin="round" stroke-width="1"/>
      <path id="Path_2283" data-name="Path 2283" d="M246.363,106.357s-.314,4.567,5.464,5.22" transform="translate(-146.516 -63.253)" fill="none" stroke="#543e2f" stroke-linecap="round" stroke-linejoin="round" stroke-width="1"/>
      <path id="Path_2284" data-name="Path 2284" d="M298.178,102.919a4.462,4.462,0,0,1,.09,2.948" transform="translate(-177.334 -61.209)" fill="none" stroke="#543e2f" stroke-linecap="round" stroke-linejoin="round" stroke-width="1"/>
      <path id="Path_2285" data-name="Path 2285" d="M233.6,98.348a3.93,3.93,0,0,0,2.605,3.908" transform="translate(-138.923 -58.49)" fill="none" stroke="#543e2f" stroke-linecap="round" stroke-linejoin="round" stroke-width="1"/>
      <path id="Path_2286" data-name="Path 2286" d="M236.083,111.205a2.623,2.623,0,0,0,1.449,3" transform="translate(-140.366 -66.137)" fill="none" stroke="#543e2f" stroke-linecap="round" stroke-linejoin="round" stroke-width="1"/>
      <path id="Path_2287" data-name="Path 2287" d="M259,92.729s3.7-1.621,8.945.738c4.735,2.128,5.186,4.777,5.186,4.777" transform="translate(-154.033 -54.826)" fill="none" stroke="#543e2f" stroke-linecap="round" stroke-linejoin="round" stroke-width="1"/>
      <path id="Path_2288" data-name="Path 2288" d="M298.178,113.133a2.118,2.118,0,0,1,1.042,1.968,8.067,8.067,0,0,1-.714,2.982" transform="translate(-177.334 -67.283)" fill="none" stroke="#543e2f" stroke-linecap="round" stroke-linejoin="round" stroke-width="1"/>
      <path id="Path_2289" data-name="Path 2289" d="M255.356,111.848s.737,1.954,5.037,2.171,5.688.217,6.861,1.606a3.462,3.462,0,0,1,.782,2.909" transform="translate(-151.867 -66.519)" fill="none" stroke="#543e2f" stroke-linecap="round" stroke-linejoin="round" stroke-width="1"/>
      <path id="Path_2290" data-name="Path 2290" d="M187.946,0H148.819a4.1,4.1,0,0,0-4.1,4.1v6.7a4.1,4.1,0,0,0,4.1,4.1H154L152.8,19.069a.876.876,0,0,0,1.311.984L162.22,14.9h25.726a4.1,4.1,0,0,0,4.1-4.1V4.1a4.1,4.1,0,0,0-4.1-4.1" transform="translate(-86.066)" fill="#d9d9d9"/>
      <line id="Line_139" data-name="Line 139" x2="36.918" transform="translate(63.971 4.01)" fill="none" stroke="#fff" stroke-linecap="round" stroke-linejoin="round" stroke-width="1"/>
      <line id="Line_140" data-name="Line 140" x2="36.918" transform="translate(63.971 7.143)" fill="none" stroke="#fff" stroke-linecap="round" stroke-linejoin="round" stroke-width="1"/>
      <line id="Line_141" data-name="Line 141" x2="36.918" transform="translate(63.971 10.275)" fill="none" stroke="#fff" stroke-linecap="round" stroke-linejoin="round" stroke-width="1"/>
      <circle id="Ellipse_5" data-name="Ellipse 5" cx="33.313" cy="33.313" r="33.313" transform="translate(4.822 7.309)" fill="none" stroke="#bbbfbd" stroke-width="1"/>
      <path id="Path_2291" data-name="Path 2291" d="M79.512,54.447a31.172,31.172,0,0,1-31.2,31.2c-.285,0-.566,0-.847-.012q-.26-.005-.52-.023c-.123,0-.242,0-.366-.015-.185-.008-.37-.019-.551-.034-.077,0-.154-.008-.231-.019-.219-.012-.435-.035-.651-.054-.25-.027-.5-.054-.743-.085l7.714-11.158L31.628,52.029l-13.372,10.8c-.139-.5-.266-1-.381-1.514-.043-.192-.085-.389-.123-.582-.054-.254-.1-.512-.147-.766-.031-.169-.062-.339-.085-.509-.042-.242-.077-.489-.111-.736-.019-.139-.038-.274-.054-.412-.027-.212-.054-.428-.073-.643l-.011-.127c-.023-.231-.046-.462-.062-.7-.019-.258-.039-.516-.05-.778v-.015c-.015-.266-.027-.532-.031-.8s-.011-.535-.011-.8a31.185,31.185,0,0,1,27.4-30.969,31.632,31.632,0,0,1,3.8-.227,31.038,31.038,0,0,1,14.512,3.578L49.24,37.8l9.07,27.5L75.9,39.87a31.021,31.021,0,0,1,3.613,14.578" transform="translate(-10.179 -13.828)" fill="#358dc0"/>
      <path id="Path_2292" data-name="Path 2292" d="M20.409,64.722,31.424,76.665l-13.372,10.8c-.139-.5-.266-1-.381-1.514-.042-.192-.085-.389-.123-.582-.054-.254-.1-.512-.146-.766-.031-.169-.062-.339-.085-.508-.043-.243-.077-.489-.112-.736-.019-.139-.039-.273-.054-.412-.027-.212-.054-.428-.073-.643l-.012-.127c-.023-.231-.046-.462-.062-.7-.019-.258-.039-.516-.05-.778V80.69c-.015-.266-.027-.531-.031-.8s-.012-.535-.012-.805a31.05,31.05,0,0,1,3.5-14.362" transform="translate(-10.058 -38.492)" fill="#dde8f8"/>
      <path id="Path_2293" data-name="Path 2293" d="M100.243,157.989a31.085,31.085,0,0,1-12.082,2.426c-.285,0-.566,0-.847-.012q-.26-.005-.52-.023c-.123,0-.243,0-.366-.016-.185-.008-.37-.019-.551-.034a2.208,2.208,0,0,1-.231-.019c-.22-.011-.435-.034-.651-.054-.25-.027-.5-.054-.743-.085l7.714-11.158Z" transform="translate(-50.107 -88.623)" fill="#7eaf92"/>
      <path id="Path_2294" data-name="Path 2294" d="M102.837,26.762,89.25,37.735,84.528,23.411a31.718,31.718,0,0,1,3.8-.227,31.043,31.043,0,0,1,14.512,3.578" transform="translate(-50.271 -13.788)" fill="#dde8f8"/>
      <path id="Path_2295" data-name="Path 2295" d="M139.761,78.767a31.189,31.189,0,0,1-15.829,27.156l-5.373-16.3,17.589-25.435a31.023,31.023,0,0,1,3.613,14.578" transform="translate(-70.51 -38.175)" fill="#358dc0"/>
      <path id="Path_2296" data-name="Path 2296" d="M53.59,116.41l-7.714,11.158q-.295-.035-.589-.081c-.162-.023-.323-.046-.485-.073-.181-.027-.358-.058-.539-.092-.239-.043-.477-.085-.716-.135-.2-.042-.409-.085-.609-.131-.127-.027-.254-.058-.381-.089-.169-.038-.335-.081-.5-.123-.551-.139-1.094-.3-1.633-.466-.2-.062-.393-.123-.585-.188-.262-.089-.52-.178-.774-.274-.239-.085-.477-.177-.712-.27s-.474-.189-.7-.289-.462-.2-.689-.3a.012.012,0,0,1-.008,0c-.231-.1-.458-.212-.685-.32-.693-.331-1.367-.689-2.03-1.07-.208-.124-.416-.247-.62-.37-.431-.258-.855-.531-1.267-.813-.208-.139-.412-.281-.616-.428s-.408-.293-.608-.443c-.008,0-.015-.011-.027-.019-.188-.143-.381-.289-.566-.435-.165-.131-.327-.258-.489-.393-.239-.193-.473-.393-.7-.593-.177-.154-.35-.308-.524-.466s-.347-.319-.52-.481c-.019-.019-.039-.034-.054-.05-.169-.166-.339-.331-.509-.5-.146-.146-.293-.3-.439-.447-.2-.208-.4-.42-.593-.635-.169-.185-.335-.374-.5-.562-.131-.147-.254-.3-.378-.447-.077-.085-.146-.169-.216-.258-.123-.15-.242-.3-.362-.45-.135-.17-.266-.339-.393-.512-.173-.227-.343-.455-.5-.689-.146-.2-.289-.409-.428-.616-.1-.146-.2-.293-.293-.443-.062-.088-.12-.181-.178-.274-.262-.408-.516-.828-.759-1.251-.111-.2-.223-.4-.335-.6q-.382-.7-.724-1.421c-.1-.2-.193-.4-.285-.608s-.193-.432-.285-.647c-.008-.015-.011-.034-.019-.05-.1-.227-.193-.458-.285-.689a.109.109,0,0,0-.008-.027c-.092-.231-.181-.466-.266-.7s-.166-.45-.243-.682c-.069-.2-.139-.412-.2-.62-.046-.154-.1-.312-.143-.466a.093.093,0,0,1-.008-.031c-.054-.181-.108-.362-.158-.543L33.1,94.191Z" transform="translate(-11.731 -56.018)" fill="#358dc0"/>
      <path id="Path_2297" data-name="Path 2297" d="M122.838,45.053,105.249,70.487l-9.07-27.5,13.588-10.973a31.27,31.27,0,0,1,13.072,13.041" transform="translate(-57.2 -19.038)" fill="#dde8f8"/>
      <path id="Path_2298" data-name="Path 2298" d="M79.4,86.589l-6.189,8.943L52.72,73.314,70.333,59.087Z" transform="translate(-31.354 -35.14)" fill="#dde8f8"/>
      <path id="Path_2299" data-name="Path 2299" d="M88.776,59.533l.1-1.643,1.1-.524a9.022,9.022,0,0,0,5.136-8.142,14.249,14.249,0,0,0-2.742-8.4L91.14,39.145,80.706,42.638l.09,3.919h-.689a2.534,2.534,0,1,0,0,5.068h.806l.123,5.32v1.868a19.636,19.636,0,0,1-5.461,3.356,15.615,15.615,0,0,0,10.577,5.337c6.589.33,6.843-3.632,6.843-3.632a38.357,38.357,0,0,1-4.3-2.991Z" transform="translate(-44.946 -23.281)" fill="#ff996a"/>
      <path id="Path_2300" data-name="Path 2300" d="M97.7,76.991l-.1,1.643c-.278-.033-.569-.076-.871-.131a7.477,7.477,0,0,1-6.3-7.241A8.529,8.529,0,0,0,97.7,76.991" transform="translate(-53.772 -42.381)" fill="#d37a57"/>
      <path id="Path_2301" data-name="Path 2301" d="M84.084,61.539a1.136,1.136,0,0,1,.44.588.664.664,0,0,0-.425.567.678.678,0,0,0,.425.626.7.7,0,0,1-.944.272,1.006,1.006,0,0,1,.094-1.664s-.933-.106-1.275.236a.678.678,0,0,1,.312-.647,1.13,1.13,0,0,1,1.373.024" transform="translate(-49.001 -36.453)" fill="#d37a57"/>
      <path id="Path_2302" data-name="Path 2302" d="M104.386,54.281a.244.244,0,0,0-.153.06,1.508,1.508,0,0,1-1.816.16.244.244,0,0,0-.276.4,1.981,1.981,0,0,0,2.413-.195.244.244,0,0,0-.168-.427" transform="translate(-60.683 -32.282)" fill="#3f2d1f"/>
      <path id="Path_2303" data-name="Path 2303" d="M118.029,54.361a.241.241,0,0,0-.162-.026,1.508,1.508,0,0,1-1.645-.786.244.244,0,0,0-.442.206,1.981,1.981,0,0,0,2.177,1.059.244.244,0,0,0,.073-.453" transform="translate(-68.844 -31.763)" fill="#3f2d1f"/>
      <path id="Path_2304" data-name="Path 2304" d="M103.527,60.43s0,.949-1.244,1.106a1.324,1.324,0,0,1-1.468-1.106,2.737,2.737,0,0,1,1.617-.681,1.027,1.027,0,0,1,1.1.681" transform="translate(-59.957 -35.534)" fill="#fff"/>
      <path id="Path_2305" data-name="Path 2305" d="M117.7,60.43s0,.949-1.217,1.106a1.232,1.232,0,0,1-1.378-1.105,2.4,2.4,0,0,1,1.524-.682,1.008,1.008,0,0,1,1.071.681" transform="translate(-68.458 -35.534)" fill="#fff"/>
      <path id="Path_2306" data-name="Path 2306" d="M115.107,60.155a2.977,2.977,0,0,1,1.348-.844.954.954,0,0,1,1.247.844.893.893,0,0,0-.835-.587,3.869,3.869,0,0,0-1.761.587" transform="translate(-68.457 -35.258)" fill="#3f2d1f"/>
      <path id="Path_2307" data-name="Path 2307" d="M100.813,60.1a3.113,3.113,0,0,1,1.409-.881,1,1,0,0,1,1.3.881.933.933,0,0,0-.873-.613,4.04,4.04,0,0,0-1.84.613" transform="translate(-59.956 -35.199)" fill="#3f2d1f"/>
      <path id="Path_2308" data-name="Path 2308" d="M112.162,61.5l.573,3.459a2.63,2.63,0,0,0,1.087-.222s-1.5-2.848-1.66-3.237" transform="translate(-66.706 -36.574)" fill="#d37a57"/>
      <path id="Path_2309" data-name="Path 2309" d="M102.642,60.583a.8.8,0,1,0,.779-.986.9.9,0,0,0-.779.986" transform="translate(-61.044 -35.444)" fill="#3f2d1f"/>
      <path id="Path_2310" data-name="Path 2310" d="M116.125,60.7a.78.78,0,1,0,.76-.955.875.875,0,0,0-.76.955" transform="translate(-69.063 -35.534)" fill="#3f2d1f"/>
      <path id="Path_2311" data-name="Path 2311" d="M96.063,66.973c0,.43.509.779,1.137.779s1.137-.349,1.137-.779-.509-.779-1.137-.779-1.137.349-1.137.779" transform="translate(-57.131 -39.367)" fill="#d37a57"/>
      <path id="Path_2312" data-name="Path 2312" d="M118.972,66.052c0,.43.509.779,1.137.779s1.137-.349,1.137-.779-.509-.779-1.137-.779-1.137.349-1.137.779" transform="translate(-70.756 -38.82)" fill="#d37a57"/>
      <path id="Path_2313" data-name="Path 2313" d="M109.21,73.312a5.112,5.112,0,0,0-2.579.743c-.743.681,2,.887,2.579.619s.834-1.448,0-1.362" transform="translate(-63.341 -43.598)" fill="#fff"/>
      <path id="Path_2314" data-name="Path 2314" d="M101.015,60.391a.828.828,0,0,1-.765-.082s.037.374.229.455Z" transform="translate(-59.621 -35.867)" fill="#3f2d1f"/>
      <path id="Path_2315" data-name="Path 2315" d="M120.474,59.884s.432.357.76.248c.121-.041-.338.38-.338.38a1.263,1.263,0,0,0-.422-.628" transform="translate(-71.649 -35.615)" fill="#3f2d1f"/>
      <path id="Path_2316" data-name="Path 2316" d="M124.648,105.1s5.843,10.68,8.071,19.636l-6.025,3.508a39.4,39.4,0,0,1-3.219-12.132c-.825-7.345,1.172-11.012,1.172-11.012" transform="translate(-73.316 -62.507)" fill="#847062"/>
      <path id="Path_2317" data-name="Path 2317" d="M90.77,36.065S84.932,41.59,79.6,40.985c0,0-.578,3.879.385,5.364,0,0-.413.409-.991-1.144s-.122-3.7-.418-4.344a2.856,2.856,0,0,0-2.951,1.391c-1.17,1.813,1.391,4.027,3.068,3.677l.077,3.334a3.76,3.76,0,0,1-3.545-.659,2.216,2.216,0,0,1-.826-2.778,9.42,9.42,0,0,1-2.558-5.773,7.168,7.168,0,0,1,2.682-5.465s.922-4.966,7.056-5.021S89.5,31.357,89.5,31.357a6.738,6.738,0,0,1,5.076,4.883,6.239,6.239,0,0,1-1.693,6.46s-.813-5.393-2.111-6.635" transform="translate(-42.722 -17.584)" fill="#3f2d1f"/>
      <path id="Path_2318" data-name="Path 2318" d="M70.644,35.458s-.3-3.606-3.717-3.454-4.082,4.073-2.6,5.888,3.425,1.4,4.869,0a3.9,3.9,0,0,0,1.444-2.434" transform="translate(-37.815 -19.031)" fill="#3f2d1f"/>
      <path id="Path_2319" data-name="Path 2319" d="M77.576,66.725l-2.157,4.491a.28.28,0,0,1-.424.1l-.089-.069-7.067-5.461a.285.285,0,0,1-.077-.358L70.2,60.963l.058-.1a.275.275,0,0,1,.42-.081L77.5,66.39a.283.283,0,0,1,.073.335" transform="translate(-40.28 -36.108)" fill="#fff"/>
      <path id="Path_2320" data-name="Path 2320" d="M87.508,125.529a31.255,31.255,0,0,1-25.781,1.036L59.42,100.141s.474-1.822,3.3-2.862a17.053,17.053,0,0,0,3.247-1.321c12.243,6.162,17.42,1.7,17.42,1.7l2.7,1.371a1.256,1.256,0,0,1,.589.631c.635,1.521,2.742,6.8,2.954,10.434.165,2.9-1.206,10.68-2.118,15.432" transform="translate(-35.339 -57.069)" fill="#9c897a"/>
      <path id="Path_2321" data-name="Path 2321" d="M56.109,101.857s-2.986,1.185-4.067,9,.073,11.952.073,11.952l5.943-7.055s2.034-10.816-1.949-13.9" transform="translate(-30.676 -60.577)" fill="#9c897a"/>
      <path id="Path_2322" data-name="Path 2322" d="M65.66,70.69a10.592,10.592,0,0,0-2.318,1.8,1.6,1.6,0,0,0-.2.644l-.373-.186a11.013,11.013,0,0,1,.535-1.608,3.058,3.058,0,0,0,.921-.784,1,1,0,0,0,.206-.841c-.225.13-.588.367-.966.635l.017-.021a1,1,0,0,0,.206-.841,11,11,0,0,0-2.407,1.873,1.7,1.7,0,0,0-.216.737l-.1-.052a10.674,10.674,0,0,1,.568-1.758,3.057,3.057,0,0,0,.922-.784,1,1,0,0,0,.206-.841,10.987,10.987,0,0,0-2.407,1.873,1.938,1.938,0,0,0-.22,1.045l.22,3.879.217,4.264s-7.837,17.937-7.746,22.31,2.715,6.107,2.715,6.107a6.915,6.915,0,0,0,4.594-3.093c1.788-2.762,3.439-23.812,3.439-23.812a7.806,7.806,0,0,0,1.1-2.8,25.416,25.416,0,0,0-.463-4.822,10.9,10.9,0,0,1,.469-1.364,2.944,2.944,0,0,0,.888-.755.964.964,0,0,0,.2-.81" transform="translate(-31.353 -40.837)" fill="#ff996a"/>
      <path id="Path_2323" data-name="Path 2323" d="M81.2,66.725l-2.157,4.491a.28.28,0,0,1-.424.1l-.089-.069,2.18-4.687-6.886-5.6.058-.1a.275.275,0,0,1,.42-.081l6.824,5.611a.283.283,0,0,1,.073.335" transform="translate(-43.906 -36.108)" fill="#d9d9d9"/>
      <path id="Path_2324" data-name="Path 2324" d="M73.388,63.545l-.3.588,1.486,1.2.34-.567Z" transform="translate(-43.468 -37.792)" fill="#d9d9d9"/>
      <path id="Path_2325" data-name="Path 2325" d="M151.217,99.976l-1.665.31-.045-.148a4.422,4.422,0,0,0,2.07-1.3,6.066,6.066,0,0,0,.795-1.736,3.321,3.321,0,0,0-1.413,1.552l-.789.147a2.576,2.576,0,0,0,.793-.709,6.057,6.057,0,0,0,.795-1.737,3.321,3.321,0,0,0-1.413,1.553l-.995.185a3.21,3.21,0,0,0,1.025-1.2,6.062,6.062,0,0,0,.411-1.864,3.32,3.32,0,0,0-1.055,1.814l-1.093.457L143.854,98.8l.036-.691a8.184,8.184,0,0,0,.686-.505,7.113,7.113,0,0,0,1.136-2.045s-2.508,1.179-3.119,2.478a26.691,26.691,0,0,0-1.194,4.512s-5.751,13.84-6.773,17.652a7.527,7.527,0,0,0-2.915,2.058s2.008,3.686,3.6,4.071a10.106,10.106,0,0,0,6.822-6.272c2.2-5.392,3.087-16.283,3.087-16.283l4.62-2.526a4.035,4.035,0,0,0,1.877-1.119,4.959,4.959,0,0,0,.65-1.42,2.715,2.715,0,0,0-1.155,1.269" transform="translate(-78.333 -56.517)" fill="#ff996a"/>
      <path id="Path_2326" data-name="Path 2326" d="M104.707,145.225a42.865,42.865,0,0,0-7.337-.521,57.628,57.628,0,0,0-9.264.868" transform="translate(-52.399 -86.059)" fill="none" stroke="#847062" stroke-linecap="round" stroke-linejoin="round" stroke-width="1"/>
      <path id="Path_2327" data-name="Path 2327" d="M117.035,37.562a5.557,5.557,0,0,1,.681,2.316" transform="translate(-69.604 -22.339)" fill="none" stroke="#543e2f" stroke-linecap="round" stroke-linejoin="round" stroke-width="1"/>
      <path id="Path_2328" data-name="Path 2328" d="M107.331,34.99a10.309,10.309,0,0,0-4.689,3.358" transform="translate(-61.044 -20.809)" fill="none" stroke="#543e2f" stroke-linecap="round" stroke-linejoin="round" stroke-width="1"/>
      <path id="Path_2329" data-name="Path 2329" d="M76.168,38.776a7.8,7.8,0,0,0-.521,1.505,7.9,7.9,0,0,0-1.821,2.374" transform="translate(-43.906 -23.061)" fill="none" stroke="#543e2f" stroke-linecap="round" stroke-linejoin="round" stroke-width="1"/>
      <path id="Path_2330" data-name="Path 2330" d="M64.606,48.848a3.039,3.039,0,0,0,3.354.277" transform="translate(-38.423 -29.051)" fill="none" stroke="#543e2f" stroke-linecap="round" stroke-linejoin="round" stroke-width="1"/>
      <path id="Path_2331" data-name="Path 2331" d="M84.527,34.382s3.752-3.459,9.961-1.636" transform="translate(-50.27 -19.16)" fill="none" stroke="#543e2f" stroke-linecap="round" stroke-linejoin="round" stroke-width="1"/>
      <path id="Path_2332" data-name="Path 2332" d="M86.392,49.061s1.611.65,5.056,0,6.581-4.178,6.581-4.178" transform="translate(-51.38 -26.693)" fill="none" stroke="#543e2f" stroke-linecap="round" stroke-linejoin="round" stroke-width="1"/>
      <path id="Path_2333" data-name="Path 2333" d="M82.959,101.857a24.472,24.472,0,0,0,9.536,1.675c4.824-.289,5.426-1.158,5.426-1.158" transform="translate(-49.338 -60.577)" fill="none" stroke="#847062" stroke-linecap="round" stroke-linejoin="round" stroke-width="1"/>
    </g>
  </g>
</svg>
